<?xml version="1.0" encoding="utf-8" standalone="no"?>
<!DOCTYPE svg PUBLIC "-//W3C//DTD SVG 1.1//EN"
  "http://www.w3.org/Graphics/SVG/1.1/DTD/svg11.dtd">
<svg xmlns:xlink="http://www.w3.org/1999/xlink" width="216pt" height="144pt" viewBox="0 0 216 144" xmlns="http://www.w3.org/2000/svg" version="1.1">
 <metadata>
  <rdf:RDF xmlns:dc="http://purl.org/dc/elements/1.1/" xmlns:cc="http://creativecommons.org/ns#" xmlns:rdf="http://www.w3.org/1999/02/22-rdf-syntax-ns#">
   <cc:Work>
    <dc:type rdf:resource="http://purl.org/dc/dcmitype/StillImage"/>
    <dc:date>2024-05-30T16:11:35.154144</dc:date>
    <dc:format>image/svg+xml</dc:format>
    <dc:creator>
     <cc:Agent>
      <dc:title>Matplotlib v3.8.3, https://matplotlib.org/</dc:title>
     </cc:Agent>
    </dc:creator>
   </cc:Work>
  </rdf:RDF>
 </metadata>
 <defs>
  <style type="text/css">*{stroke-linejoin: round; stroke-linecap: butt}</style>
 </defs>
 <g id="figure_1">
  <g id="patch_1">
   <path d="M 0 144 
L 216 144 
L 216 0 
L 0 0 
z
" style="fill: #ffffff"/>
  </g>
  <g id="axes_1">
   <g id="patch_2">
    <path d="M 27 128.16 
L 194.4 128.16 
L 194.4 17.28 
L 27 17.28 
z
" style="fill: #ffffff"/>
   </g>
   <g id="matplotlib.axis_1">
    <g id="xtick_1">
     <g id="line2d_1">
      <defs>
       <path id="mc4579ed161" d="M 0 0 
L 0 3.5 
" style="stroke: #000000; stroke-width: 0.8"/>
      </defs>
      <g>
       <use xlink:href="#mc4579ed161" x="38.659701" y="128.16" style="stroke: #000000; stroke-width: 0.8"/>
      </g>
     </g>
     <g id="text_1">
      <!-- 20 -->
      <g transform="translate(32.297201 142.758438) scale(0.1 -0.1)">
       <defs>
        <path id="DejaVuSans-32" d="M 1228 531 
L 3431 531 
L 3431 0 
L 469 0 
L 469 531 
Q 828 903 1448 1529 
Q 2069 2156 2228 2338 
Q 2531 2678 2651 2914 
Q 2772 3150 2772 3378 
Q 2772 3750 2511 3984 
Q 2250 4219 1831 4219 
Q 1534 4219 1204 4116 
Q 875 4013 500 3803 
L 500 4441 
Q 881 4594 1212 4672 
Q 1544 4750 1819 4750 
Q 2544 4750 2975 4387 
Q 3406 4025 3406 3419 
Q 3406 3131 3298 2873 
Q 3191 2616 2906 2266 
Q 2828 2175 2409 1742 
Q 1991 1309 1228 531 
z
" transform="scale(0.015625)"/>
        <path id="DejaVuSans-30" d="M 2034 4250 
Q 1547 4250 1301 3770 
Q 1056 3291 1056 2328 
Q 1056 1369 1301 889 
Q 1547 409 2034 409 
Q 2525 409 2770 889 
Q 3016 1369 3016 2328 
Q 3016 3291 2770 3770 
Q 2525 4250 2034 4250 
z
M 2034 4750 
Q 2819 4750 3233 4129 
Q 3647 3509 3647 2328 
Q 3647 1150 3233 529 
Q 2819 -91 2034 -91 
Q 1250 -91 836 529 
Q 422 1150 422 2328 
Q 422 3509 836 4129 
Q 1250 4750 2034 4750 
z
" transform="scale(0.015625)"/>
       </defs>
       <use xlink:href="#DejaVuSans-32"/>
       <use xlink:href="#DejaVuSans-30" x="63.623047"/>
      </g>
     </g>
    </g>
    <g id="xtick_2">
     <g id="line2d_2">
      <g>
       <use xlink:href="#mc4579ed161" x="88.629851" y="128.16" style="stroke: #000000; stroke-width: 0.8"/>
      </g>
     </g>
     <g id="text_2">
      <!-- 40 -->
      <g transform="translate(82.267351 142.758438) scale(0.1 -0.1)">
       <defs>
        <path id="DejaVuSans-34" d="M 2419 4116 
L 825 1625 
L 2419 1625 
L 2419 4116 
z
M 2253 4666 
L 3047 4666 
L 3047 1625 
L 3713 1625 
L 3713 1100 
L 3047 1100 
L 3047 0 
L 2419 0 
L 2419 1100 
L 313 1100 
L 313 1709 
L 2253 4666 
z
" transform="scale(0.015625)"/>
       </defs>
       <use xlink:href="#DejaVuSans-34"/>
       <use xlink:href="#DejaVuSans-30" x="63.623047"/>
      </g>
     </g>
    </g>
    <g id="xtick_3">
     <g id="line2d_3">
      <g>
       <use xlink:href="#mc4579ed161" x="138.6" y="128.16" style="stroke: #000000; stroke-width: 0.8"/>
      </g>
     </g>
     <g id="text_3">
      <!-- 60 -->
      <g transform="translate(132.2375 142.758438) scale(0.1 -0.1)">
       <defs>
        <path id="DejaVuSans-36" d="M 2113 2584 
Q 1688 2584 1439 2293 
Q 1191 2003 1191 1497 
Q 1191 994 1439 701 
Q 1688 409 2113 409 
Q 2538 409 2786 701 
Q 3034 994 3034 1497 
Q 3034 2003 2786 2293 
Q 2538 2584 2113 2584 
z
M 3366 4563 
L 3366 3988 
Q 3128 4100 2886 4159 
Q 2644 4219 2406 4219 
Q 1781 4219 1451 3797 
Q 1122 3375 1075 2522 
Q 1259 2794 1537 2939 
Q 1816 3084 2150 3084 
Q 2853 3084 3261 2657 
Q 3669 2231 3669 1497 
Q 3669 778 3244 343 
Q 2819 -91 2113 -91 
Q 1303 -91 875 529 
Q 447 1150 447 2328 
Q 447 3434 972 4092 
Q 1497 4750 2381 4750 
Q 2619 4750 2861 4703 
Q 3103 4656 3366 4563 
z
" transform="scale(0.015625)"/>
       </defs>
       <use xlink:href="#DejaVuSans-36"/>
       <use xlink:href="#DejaVuSans-30" x="63.623047"/>
      </g>
     </g>
    </g>
    <g id="xtick_4">
     <g id="line2d_4">
      <g>
       <use xlink:href="#mc4579ed161" x="188.570149" y="128.16" style="stroke: #000000; stroke-width: 0.8"/>
      </g>
     </g>
     <g id="text_4">
      <!-- 80 -->
      <g transform="translate(182.207649 142.758438) scale(0.1 -0.1)">
       <defs>
        <path id="DejaVuSans-38" d="M 2034 2216 
Q 1584 2216 1326 1975 
Q 1069 1734 1069 1313 
Q 1069 891 1326 650 
Q 1584 409 2034 409 
Q 2484 409 2743 651 
Q 3003 894 3003 1313 
Q 3003 1734 2745 1975 
Q 2488 2216 2034 2216 
z
M 1403 2484 
Q 997 2584 770 2862 
Q 544 3141 544 3541 
Q 544 4100 942 4425 
Q 1341 4750 2034 4750 
Q 2731 4750 3128 4425 
Q 3525 4100 3525 3541 
Q 3525 3141 3298 2862 
Q 3072 2584 2669 2484 
Q 3125 2378 3379 2068 
Q 3634 1759 3634 1313 
Q 3634 634 3220 271 
Q 2806 -91 2034 -91 
Q 1263 -91 848 271 
Q 434 634 434 1313 
Q 434 1759 690 2068 
Q 947 2378 1403 2484 
z
M 1172 3481 
Q 1172 3119 1398 2916 
Q 1625 2713 2034 2713 
Q 2441 2713 2670 2916 
Q 2900 3119 2900 3481 
Q 2900 3844 2670 4047 
Q 2441 4250 2034 4250 
Q 1625 4250 1398 4047 
Q 1172 3844 1172 3481 
z
" transform="scale(0.015625)"/>
       </defs>
       <use xlink:href="#DejaVuSans-38"/>
       <use xlink:href="#DejaVuSans-30" x="63.623047"/>
      </g>
     </g>
    </g>
    <g id="text_5">
     <!-- Time (h) -->
     <g transform="translate(89.807031 156.436563) scale(0.1 -0.1)">
      <defs>
       <path id="DejaVuSans-54" d="M -19 4666 
L 3928 4666 
L 3928 4134 
L 2272 4134 
L 2272 0 
L 1638 0 
L 1638 4134 
L -19 4134 
L -19 4666 
z
" transform="scale(0.015625)"/>
       <path id="DejaVuSans-69" d="M 603 3500 
L 1178 3500 
L 1178 0 
L 603 0 
L 603 3500 
z
M 603 4863 
L 1178 4863 
L 1178 4134 
L 603 4134 
L 603 4863 
z
" transform="scale(0.015625)"/>
       <path id="DejaVuSans-6d" d="M 3328 2828 
Q 3544 3216 3844 3400 
Q 4144 3584 4550 3584 
Q 5097 3584 5394 3201 
Q 5691 2819 5691 2113 
L 5691 0 
L 5113 0 
L 5113 2094 
Q 5113 2597 4934 2840 
Q 4756 3084 4391 3084 
Q 3944 3084 3684 2787 
Q 3425 2491 3425 1978 
L 3425 0 
L 2847 0 
L 2847 2094 
Q 2847 2600 2669 2842 
Q 2491 3084 2119 3084 
Q 1678 3084 1418 2786 
Q 1159 2488 1159 1978 
L 1159 0 
L 581 0 
L 581 3500 
L 1159 3500 
L 1159 2956 
Q 1356 3278 1631 3431 
Q 1906 3584 2284 3584 
Q 2666 3584 2933 3390 
Q 3200 3197 3328 2828 
z
" transform="scale(0.015625)"/>
       <path id="DejaVuSans-65" d="M 3597 1894 
L 3597 1613 
L 953 1613 
Q 991 1019 1311 708 
Q 1631 397 2203 397 
Q 2534 397 2845 478 
Q 3156 559 3463 722 
L 3463 178 
Q 3153 47 2828 -22 
Q 2503 -91 2169 -91 
Q 1331 -91 842 396 
Q 353 884 353 1716 
Q 353 2575 817 3079 
Q 1281 3584 2069 3584 
Q 2775 3584 3186 3129 
Q 3597 2675 3597 1894 
z
M 3022 2063 
Q 3016 2534 2758 2815 
Q 2500 3097 2075 3097 
Q 1594 3097 1305 2825 
Q 1016 2553 972 2059 
L 3022 2063 
z
" transform="scale(0.015625)"/>
       <path id="DejaVuSans-20" transform="scale(0.015625)"/>
       <path id="DejaVuSans-28" d="M 1984 4856 
Q 1566 4138 1362 3434 
Q 1159 2731 1159 2009 
Q 1159 1288 1364 580 
Q 1569 -128 1984 -844 
L 1484 -844 
Q 1016 -109 783 600 
Q 550 1309 550 2009 
Q 550 2706 781 3412 
Q 1013 4119 1484 4856 
L 1984 4856 
z
" transform="scale(0.015625)"/>
       <path id="DejaVuSans-68" d="M 3513 2113 
L 3513 0 
L 2938 0 
L 2938 2094 
Q 2938 2591 2744 2837 
Q 2550 3084 2163 3084 
Q 1697 3084 1428 2787 
Q 1159 2491 1159 1978 
L 1159 0 
L 581 0 
L 581 4863 
L 1159 4863 
L 1159 2956 
Q 1366 3272 1645 3428 
Q 1925 3584 2291 3584 
Q 2894 3584 3203 3211 
Q 3513 2838 3513 2113 
z
" transform="scale(0.015625)"/>
       <path id="DejaVuSans-29" d="M 513 4856 
L 1013 4856 
Q 1481 4119 1714 3412 
Q 1947 2706 1947 2009 
Q 1947 1309 1714 600 
Q 1481 -109 1013 -844 
L 513 -844 
Q 928 -128 1133 580 
Q 1338 1288 1338 2009 
Q 1338 2731 1133 3434 
Q 928 4138 513 4856 
z
" transform="scale(0.015625)"/>
      </defs>
      <use xlink:href="#DejaVuSans-54"/>
      <use xlink:href="#DejaVuSans-69" x="57.958984"/>
      <use xlink:href="#DejaVuSans-6d" x="85.742188"/>
      <use xlink:href="#DejaVuSans-65" x="183.154297"/>
      <use xlink:href="#DejaVuSans-20" x="244.677734"/>
      <use xlink:href="#DejaVuSans-28" x="276.464844"/>
      <use xlink:href="#DejaVuSans-68" x="315.478516"/>
      <use xlink:href="#DejaVuSans-29" x="378.857422"/>
     </g>
    </g>
   </g>
   <g id="matplotlib.axis_2">
    <g id="ytick_1">
     <g id="line2d_5">
      <defs>
       <path id="m451f174cb2" d="M 0 0 
L -3.5 0 
" style="stroke: #000000; stroke-width: 0.8"/>
      </defs>
      <g>
       <use xlink:href="#m451f174cb2" x="27" y="128.12531" style="stroke: #000000; stroke-width: 0.8"/>
      </g>
     </g>
     <g id="text_6">
      <!-- 2000 -->
      <g transform="translate(-5.45 131.924529) scale(0.1 -0.1)">
       <use xlink:href="#DejaVuSans-32"/>
       <use xlink:href="#DejaVuSans-30" x="63.623047"/>
       <use xlink:href="#DejaVuSans-30" x="127.246094"/>
       <use xlink:href="#DejaVuSans-30" x="190.869141"/>
      </g>
     </g>
    </g>
    <g id="ytick_2">
     <g id="line2d_6">
      <g>
       <use xlink:href="#m451f174cb2" x="27" y="98.977177" style="stroke: #000000; stroke-width: 0.8"/>
      </g>
     </g>
     <g id="text_7">
      <!-- 4000 -->
      <g transform="translate(-5.45 102.776396) scale(0.1 -0.1)">
       <use xlink:href="#DejaVuSans-34"/>
       <use xlink:href="#DejaVuSans-30" x="63.623047"/>
       <use xlink:href="#DejaVuSans-30" x="127.246094"/>
       <use xlink:href="#DejaVuSans-30" x="190.869141"/>
      </g>
     </g>
    </g>
    <g id="ytick_3">
     <g id="line2d_7">
      <g>
       <use xlink:href="#m451f174cb2" x="27" y="69.829044" style="stroke: #000000; stroke-width: 0.8"/>
      </g>
     </g>
     <g id="text_8">
      <!-- 6000 -->
      <g transform="translate(-5.45 73.628262) scale(0.1 -0.1)">
       <use xlink:href="#DejaVuSans-36"/>
       <use xlink:href="#DejaVuSans-30" x="63.623047"/>
       <use xlink:href="#DejaVuSans-30" x="127.246094"/>
       <use xlink:href="#DejaVuSans-30" x="190.869141"/>
      </g>
     </g>
    </g>
    <g id="ytick_4">
     <g id="line2d_8">
      <g>
       <use xlink:href="#m451f174cb2" x="27" y="40.68091" style="stroke: #000000; stroke-width: 0.8"/>
      </g>
     </g>
     <g id="text_9">
      <!-- 8000 -->
      <g transform="translate(-5.45 44.480129) scale(0.1 -0.1)">
       <use xlink:href="#DejaVuSans-38"/>
       <use xlink:href="#DejaVuSans-30" x="63.623047"/>
       <use xlink:href="#DejaVuSans-30" x="127.246094"/>
       <use xlink:href="#DejaVuSans-30" x="190.869141"/>
      </g>
     </g>
    </g>
    <g id="text_10">
     <!-- p53 level (F.C.) -->
     <g transform="translate(-11.529688 109.966094) rotate(-90) scale(0.1 -0.1)">
      <defs>
       <path id="DejaVuSans-70" d="M 1159 525 
L 1159 -1331 
L 581 -1331 
L 581 3500 
L 1159 3500 
L 1159 2969 
Q 1341 3281 1617 3432 
Q 1894 3584 2278 3584 
Q 2916 3584 3314 3078 
Q 3713 2572 3713 1747 
Q 3713 922 3314 415 
Q 2916 -91 2278 -91 
Q 1894 -91 1617 61 
Q 1341 213 1159 525 
z
M 3116 1747 
Q 3116 2381 2855 2742 
Q 2594 3103 2138 3103 
Q 1681 3103 1420 2742 
Q 1159 2381 1159 1747 
Q 1159 1113 1420 752 
Q 1681 391 2138 391 
Q 2594 391 2855 752 
Q 3116 1113 3116 1747 
z
" transform="scale(0.015625)"/>
       <path id="DejaVuSans-35" d="M 691 4666 
L 3169 4666 
L 3169 4134 
L 1269 4134 
L 1269 2991 
Q 1406 3038 1543 3061 
Q 1681 3084 1819 3084 
Q 2600 3084 3056 2656 
Q 3513 2228 3513 1497 
Q 3513 744 3044 326 
Q 2575 -91 1722 -91 
Q 1428 -91 1123 -41 
Q 819 9 494 109 
L 494 744 
Q 775 591 1075 516 
Q 1375 441 1709 441 
Q 2250 441 2565 725 
Q 2881 1009 2881 1497 
Q 2881 1984 2565 2268 
Q 2250 2553 1709 2553 
Q 1456 2553 1204 2497 
Q 953 2441 691 2322 
L 691 4666 
z
" transform="scale(0.015625)"/>
       <path id="DejaVuSans-33" d="M 2597 2516 
Q 3050 2419 3304 2112 
Q 3559 1806 3559 1356 
Q 3559 666 3084 287 
Q 2609 -91 1734 -91 
Q 1441 -91 1130 -33 
Q 819 25 488 141 
L 488 750 
Q 750 597 1062 519 
Q 1375 441 1716 441 
Q 2309 441 2620 675 
Q 2931 909 2931 1356 
Q 2931 1769 2642 2001 
Q 2353 2234 1838 2234 
L 1294 2234 
L 1294 2753 
L 1863 2753 
Q 2328 2753 2575 2939 
Q 2822 3125 2822 3475 
Q 2822 3834 2567 4026 
Q 2313 4219 1838 4219 
Q 1578 4219 1281 4162 
Q 984 4106 628 3988 
L 628 4550 
Q 988 4650 1302 4700 
Q 1616 4750 1894 4750 
Q 2613 4750 3031 4423 
Q 3450 4097 3450 3541 
Q 3450 3153 3228 2886 
Q 3006 2619 2597 2516 
z
" transform="scale(0.015625)"/>
       <path id="DejaVuSans-6c" d="M 603 4863 
L 1178 4863 
L 1178 0 
L 603 0 
L 603 4863 
z
" transform="scale(0.015625)"/>
       <path id="DejaVuSans-76" d="M 191 3500 
L 800 3500 
L 1894 563 
L 2988 3500 
L 3597 3500 
L 2284 0 
L 1503 0 
L 191 3500 
z
" transform="scale(0.015625)"/>
       <path id="DejaVuSans-46" d="M 628 4666 
L 3309 4666 
L 3309 4134 
L 1259 4134 
L 1259 2759 
L 3109 2759 
L 3109 2228 
L 1259 2228 
L 1259 0 
L 628 0 
L 628 4666 
z
" transform="scale(0.015625)"/>
       <path id="DejaVuSans-2e" d="M 684 794 
L 1344 794 
L 1344 0 
L 684 0 
L 684 794 
z
" transform="scale(0.015625)"/>
       <path id="DejaVuSans-43" d="M 4122 4306 
L 4122 3641 
Q 3803 3938 3442 4084 
Q 3081 4231 2675 4231 
Q 1875 4231 1450 3742 
Q 1025 3253 1025 2328 
Q 1025 1406 1450 917 
Q 1875 428 2675 428 
Q 3081 428 3442 575 
Q 3803 722 4122 1019 
L 4122 359 
Q 3791 134 3420 21 
Q 3050 -91 2638 -91 
Q 1578 -91 968 557 
Q 359 1206 359 2328 
Q 359 3453 968 4101 
Q 1578 4750 2638 4750 
Q 3056 4750 3426 4639 
Q 3797 4528 4122 4306 
z
" transform="scale(0.015625)"/>
      </defs>
      <use xlink:href="#DejaVuSans-70"/>
      <use xlink:href="#DejaVuSans-35" x="63.476562"/>
      <use xlink:href="#DejaVuSans-33" x="127.099609"/>
      <use xlink:href="#DejaVuSans-20" x="190.722656"/>
      <use xlink:href="#DejaVuSans-6c" x="222.509766"/>
      <use xlink:href="#DejaVuSans-65" x="250.292969"/>
      <use xlink:href="#DejaVuSans-76" x="311.816406"/>
      <use xlink:href="#DejaVuSans-65" x="370.996094"/>
      <use xlink:href="#DejaVuSans-6c" x="432.519531"/>
      <use xlink:href="#DejaVuSans-20" x="460.302734"/>
      <use xlink:href="#DejaVuSans-28" x="492.089844"/>
      <use xlink:href="#DejaVuSans-46" x="531.103516"/>
      <use xlink:href="#DejaVuSans-2e" x="572.498047"/>
      <use xlink:href="#DejaVuSans-43" x="604.285156"/>
      <use xlink:href="#DejaVuSans-2e" x="674.109375"/>
      <use xlink:href="#DejaVuSans-29" x="705.896484"/>
     </g>
    </g>
   </g>
   <g id="line2d_9">
    <path d="M 29.914925 89.654416 
L 30.331343 97.664211 
L 30.747761 96.25851 
L 31.164179 89.948032 
L 31.580597 90.496648 
L 31.997015 87.916481 
L 32.413433 86.824819 
L 33.246269 94.647936 
L 34.079104 99.17453 
L 34.495522 102.207885 
L 34.91194 106.552164 
L 35.744776 111.318998 
L 36.577612 108.233287 
L 36.99403 107.390126 
L 37.410448 107.100409 
L 37.826866 104.508917 
L 38.243284 104.168979 
L 38.659701 103.240973 
L 39.076119 100.355772 
L 40.325373 95.440227 
L 40.741791 98.85715 
L 41.158209 95.227557 
L 41.574627 98.693679 
L 41.991045 93.721601 
L 42.407463 95.86436 
L 42.823881 91.784364 
L 43.240299 92.381715 
L 43.656716 76.127547 
L 44.489552 108.819592 
L 44.90597 117.299471 
L 45.322388 116.604464 
L 45.738806 118.200742 
L 46.155224 117.508056 
L 46.571642 116.275016 
L 46.98806 118.131028 
L 47.404478 119.410204 
L 47.820896 119.502568 
L 48.237313 116.620152 
L 48.653731 116.69525 
L 49.070149 115.442159 
L 49.486567 111.609458 
L 49.902985 113.533699 
L 50.319403 110.477786 
L 50.735821 108.970902 
L 51.568657 102.387508 
L 53.234328 80.313182 
L 53.650746 76.881407 
L 54.067164 76.562262 
L 54.483582 77.839303 
L 54.9 83.076406 
L 55.316418 95.999054 
L 55.732836 104.215486 
L 56.149254 106.651583 
L 56.565672 111.988291 
L 56.98209 114.998903 
L 57.398507 105.717636 
L 57.814925 111.551347 
L 58.231343 105.57598 
L 58.647761 102.68753 
L 59.480597 95.980303 
L 61.146269 85.551027 
L 61.562687 80.910625 
L 61.979104 78.023011 
L 62.395522 77.15358 
L 62.81194 79.548368 
L 64.061194 89.700551 
L 64.477612 93.567692 
L 64.89403 95.37107 
L 65.310448 101.467114 
L 66.143284 105.875816 
L 66.559701 107.204469 
L 66.976119 109.345094 
L 67.808955 109.622836 
L 68.225373 108.389239 
L 68.641791 109.038295 
L 69.058209 108.940361 
L 69.891045 104.483946 
L 70.307463 103.623983 
L 70.723881 102.017958 
L 71.140299 89.540701 
L 71.973134 106.373933 
L 72.389552 110.708558 
L 72.80597 112.630292 
L 73.222388 110.574606 
L 73.638806 111.207325 
L 74.055224 111.55144 
L 74.471642 110.557526 
L 74.88806 111.06047 
L 75.304478 110.130608 
L 75.720896 107.463554 
L 76.137313 107.712705 
L 76.553731 106.932296 
L 76.970149 106.577506 
L 77.386567 104.564893 
L 78.219403 102.289203 
L 79.052239 96.087334 
L 79.468657 96.285802 
L 79.885075 94.12457 
L 80.301493 94.62083 
L 80.71791 94.846218 
L 81.134328 98.223874 
L 81.967164 107.218208 
L 82.8 110.218795 
L 83.216418 108.402235 
L 84.049254 108.783389 
L 84.465672 108.470278 
L 84.88209 93.146715 
L 85.298507 100.13976 
L 85.714925 91.52231 
L 86.131343 85.324711 
L 86.547761 74.684807 
L 87.380597 61.903258 
L 87.797015 54.980019 
L 88.213433 45.976124 
L 88.629851 45.996824 
L 89.046269 49.779491 
L 89.879104 64.533273 
L 90.71194 84.384452 
L 91.544776 96.515923 
L 91.961194 96.863102 
L 92.377612 96.784383 
L 92.79403 101.596888 
L 93.210448 101.270689 
L 93.626866 101.943881 
L 94.043284 100.104764 
L 94.459701 95.942243 
L 94.876119 97.103342 
L 95.292537 95.886918 
L 95.708955 93.753813 
L 96.125373 91.010175 
L 97.374627 74.419318 
L 97.791045 67.692411 
L 98.207463 56.15597 
L 98.623881 25.745091 
L 99.040299 42.340219 
L 99.456716 67.860523 
L 99.873134 78.291378 
L 101.122388 99.294372 
L 101.538806 103.114077 
L 102.78806 105.991016 
L 103.204478 106.090528 
L 103.620896 106.485049 
L 104.037313 102.816005 
L 104.453731 102.563511 
L 104.870149 101.767507 
L 105.286567 100.257931 
L 105.702985 99.183813 
L 106.119403 98.515819 
L 106.535821 95.868723 
L 107.368657 94.796926 
L 107.785075 90.784509 
L 108.201493 90.040025 
L 108.61791 83.400563 
L 109.450746 78.345961 
L 110.283582 67.128107 
L 110.7 64.22072 
L 111.116418 64.31819 
L 111.532836 63.653538 
L 111.949254 67.226784 
L 112.365672 56.087555 
L 112.78209 73.260169 
L 113.614925 64.057063 
L 114.031343 63.248249 
L 114.447761 64.931136 
L 114.864179 72.460637 
L 115.280597 73.958796 
L 115.697015 80.122233 
L 116.113433 81.523757 
L 116.529851 85.021626 
L 116.946269 86.884972 
L 117.362687 90.845683 
L 117.779104 91.907084 
L 118.195522 93.898811 
L 118.61194 94.631784 
L 119.028358 95.943914 
L 119.444776 93.612621 
L 119.861194 94.405376 
L 120.277612 93.551168 
L 120.69403 93.547919 
L 121.526866 89.958057 
L 121.943284 88.931189 
L 122.359701 84.633046 
L 123.192537 81.149566 
L 124.025373 70.729944 
L 124.441791 69.292217 
L 124.858209 66.472088 
L 125.274627 67.731863 
L 125.691045 67.5657 
L 126.107463 47.397513 
L 126.940299 92.213789 
L 127.356716 94.871282 
L 128.189552 104.709983 
L 128.60597 107.926675 
L 129.022388 107.209761 
L 129.438806 106.057574 
L 129.855224 106.990407 
L 130.271642 106.301713 
L 131.104478 102.716121 
L 131.520896 104.201283 
L 131.937313 103.766846 
L 132.770149 101.644509 
L 133.186567 101.144535 
L 134.435821 96.839802 
L 134.852239 93.610021 
L 135.268657 89.011022 
L 136.101493 75.927037 
L 136.51791 72.452097 
L 136.934328 71.46728 
L 137.350746 68.7216 
L 137.767164 63.960336 
L 138.183582 65.403819 
L 138.6 62.649691 
L 139.432836 79.719915 
L 139.849254 70.638415 
L 140.265672 83.646187 
L 140.68209 82.173464 
L 141.098507 79.95802 
L 141.514925 79.797148 
L 141.931343 79.431868 
L 142.347761 80.222395 
L 142.764179 81.730022 
L 143.180597 80.370364 
L 143.597015 82.14775 
L 144.013433 81.053117 
L 144.429851 83.17861 
L 144.846269 83.272274 
L 145.679104 84.01648 
L 146.095522 82.804883 
L 146.51194 83.816249 
L 146.928358 80.704175 
L 147.344776 78.872948 
L 147.761194 78.435819 
L 148.177612 77.399761 
L 148.59403 75.840521 
L 149.010448 72.518562 
L 149.426866 71.790602 
L 149.843284 66.272136 
L 150.259701 63.975282 
L 150.676119 60.801755 
L 151.508955 57.569562 
L 151.925373 59.65421 
L 152.341791 59.265259 
L 153.174627 64.181175 
L 153.591045 44.635495 
L 154.007463 71.456512 
L 154.423881 85.154 
L 154.840299 91.875522 
L 156.089552 95.776266 
L 156.50597 94.829416 
L 156.922388 94.633455 
L 157.338806 94.808437 
L 157.755224 94.652114 
L 158.171642 94.059126 
L 158.58806 92.03333 
L 159.004478 92.771502 
L 159.420896 90.25845 
L 159.837313 90.860072 
L 160.253731 90.390081 
L 160.670149 87.687009 
L 161.086567 89.441281 
L 161.502985 86.245755 
L 161.919403 85.692776 
L 162.335821 83.810401 
L 162.752239 81.325104 
L 163.168657 80.884912 
L 164.001493 74.482534 
L 164.41791 67.724808 
L 164.834328 65.708296 
L 165.667164 56.539259 
L 166.5 49.477427 
L 166.916418 52.98987 
L 167.332836 41.981623 
L 167.749254 53.200219 
L 168.165672 50.687075 
L 168.58209 52.900476 
L 168.998507 53.430341 
L 169.831343 60.00965 
L 170.247761 60.55576 
L 170.664179 68.835315 
L 171.080597 70.806156 
L 171.497015 75.590163 
L 171.913433 77.779058 
L 172.329851 77.947077 
L 172.746269 81.064999 
L 173.162687 77.704516 
L 173.579104 80.394035 
L 173.995522 79.320567 
L 174.41194 79.857023 
L 174.828358 77.417955 
L 175.244776 80.382989 
L 175.661194 80.220075 
L 176.077612 74.465453 
L 176.49403 77.92257 
L 177.326866 72.016082 
L 177.743284 71.131612 
L 178.159701 65.691308 
L 178.576119 63.109842 
L 178.992537 55.864117 
L 179.408955 56.914378 
L 179.825373 53.366104 
L 180.241791 45.595713 
L 180.658209 42.262707 
L 181.074627 35.416331 
L 181.491045 33.402881 
L 181.907463 53.761924 
L 182.740299 77.082009 
L 183.156716 83.329642 
L 183.573134 84.935945 
L 183.989552 85.426544 
L 184.40597 87.985731 
L 185.238806 90.444664 
L 185.655224 90.974436 
L 186.071642 88.814597 
L 186.48806 89.432741 
L 186.904478 92.512975 
L 187.320896 89.697859 
L 187.737313 89.912943 
L 188.153731 91.174017 
L 188.570149 87.173575 
L 188.986567 88.889788 
L 189.402985 88.90659 
L 189.819403 88.041521 
L 190.235821 84.637038 
L 190.652239 84.896493 
L 191.485075 81.232833 
L 191.901493 82.012963 
L 192.31791 77.747589 
L 192.734328 77.46604 
L 193.150746 73.564182 
L 193.567164 71.096709 
L 193.983582 65.759723 
L 194.4 63.611394 
L 194.816418 57.978935 
L 195.232836 49.56942 
L 195.649254 48.167525 
L 196.065672 47.86741 
L 196.898507 30.144324 
L 197.314925 24.101842 
L 197.731343 25.957483 
L 198.147761 22.32 
L 198.564179 25.744442 
L 198.980597 32.055569 
L 199.813433 49.250833 
L 200.229851 57.902259 
L 200.646269 63.527941 
L 201.479104 80.219703 
L 201.895522 79.86909 
L 202.31194 85.53274 
L 202.728358 83.58492 
L 203.561194 87.359882 
L 203.977612 85.715983 
L 204.39403 87.352363 
L 204.810448 88.419055 
L 205.226866 89.964834 
L 205.643284 86.73264 
L 206.059701 87.76842 
L 206.476119 85.504891 
L 206.892537 85.18946 
L 207.308955 81.87437 
L 207.725373 83.792392 
L 208.141791 82.267035 
L 208.558209 80.240775 
L 208.974627 81.034273 
L 209.807463 87.306227 
L 210.223881 86.638976 
L 210.640299 89.242629 
L 211.056716 88.830656 
L 211.473134 87.410102 
L 211.889552 86.637677 
L 212.30597 79.845048 
L 212.722388 83.384596 
L 213.138806 79.176961 
L 213.555224 78.004352 
L 213.971642 78.285623 
L 214.804478 73.630833 
L 215.220896 73.767476 
L 215.637313 68.394473 
L 216.053731 66.015929 
L 216.470149 67.211745 
L 217 60.797661 
L 217 60.797661 
" clip-path="url(#pa90ad3f25a)" style="fill: none; stroke: #000000; stroke-width: 1.5; stroke-linecap: square"/>
   </g>
   <g id="LineCollection_1">
    <path d="M 29.498507 119.502568 
L 29.498507 22.32 
" clip-path="url(#pa90ad3f25a)" style="fill: none; stroke-dasharray: 5.55,2.4; stroke-dashoffset: 0; stroke: #7f7f7f; stroke-width: 1.5"/>
    <path d="M 56.98209 119.502568 
L 56.98209 22.32 
" clip-path="url(#pa90ad3f25a)" style="fill: none; stroke-dasharray: 5.55,2.4; stroke-dashoffset: 0; stroke: #7f7f7f; stroke-width: 1.5"/>
    <path d="M 84.465672 119.502568 
L 84.465672 22.32 
" clip-path="url(#pa90ad3f25a)" style="fill: none; stroke-dasharray: 5.55,2.4; stroke-dashoffset: 0; stroke: #7f7f7f; stroke-width: 1.5"/>
    <path d="M 111.949254 119.502568 
L 111.949254 22.32 
" clip-path="url(#pa90ad3f25a)" style="fill: none; stroke-dasharray: 5.55,2.4; stroke-dashoffset: 0; stroke: #7f7f7f; stroke-width: 1.5"/>
    <path d="M 139.432836 119.502568 
L 139.432836 22.32 
" clip-path="url(#pa90ad3f25a)" style="fill: none; stroke-dasharray: 5.55,2.4; stroke-dashoffset: 0; stroke: #7f7f7f; stroke-width: 1.5"/>
    <path d="M 166.916418 119.502568 
L 166.916418 22.32 
" clip-path="url(#pa90ad3f25a)" style="fill: none; stroke-dasharray: 5.55,2.4; stroke-dashoffset: 0; stroke: #7f7f7f; stroke-width: 1.5"/>
    <path d="M 194.4 119.502568 
L 194.4 22.32 
" clip-path="url(#pa90ad3f25a)" style="fill: none; stroke-dasharray: 5.55,2.4; stroke-dashoffset: 0; stroke: #7f7f7f; stroke-width: 1.5"/>
   </g>
   <g id="line2d_10">
    <path d="M 29.914925 96.13412 
L 30.331343 98.706118 
L 30.747761 95.16332 
L 31.580597 85.754043 
L 31.997015 83.07752 
L 32.413433 81.461098 
L 32.829851 85.39294 
L 33.246269 90.695487 
L 33.662687 93.84924 
L 34.91194 110.135064 
L 35.328358 114.743532 
L 35.744776 116.965659 
L 36.161194 116.691444 
L 36.577612 118.075795 
L 36.99403 118.154978 
L 37.410448 119.183331 
L 37.826866 119.036662 
L 38.243284 118.239916 
L 38.659701 118.22924 
L 39.076119 120.422034 
L 39.908955 118.676673 
L 40.325373 118.837174 
L 40.741791 116.903186 
L 41.158209 114.173658 
L 41.574627 113.714714 
L 41.991045 114.605867 
L 42.407463 111.322896 
L 42.823881 110.007889 
L 43.240299 105.668716 
L 43.656716 91.948021 
L 44.90597 112.324051 
L 45.738806 121.169024 
L 46.155224 119.895047 
L 46.571642 122.114668 
L 46.98806 122.811531 
L 47.404478 122.326317 
L 47.820896 123.12 
L 48.237313 122.796771 
L 48.653731 121.318014 
L 49.070149 122.084591 
L 49.486567 120.872623 
L 49.902985 121.858276 
L 50.319403 122.003645 
L 50.735821 119.636427 
L 51.152239 119.506467 
L 51.568657 119.080106 
L 51.985075 118.83244 
L 52.401493 118.105221 
L 52.81791 115.917441 
L 53.234328 114.758756 
L 53.650746 109.06141 
L 54.067164 110.755158 
L 54.483582 106.687415 
L 55.732836 101.170713 
L 56.565672 98.9484 
L 56.98209 99.651111 
L 57.398507 91.258306 
L 57.814925 100.349738 
L 58.647761 86.255131 
L 59.064179 87.279493 
L 59.480597 86.410525 
L 59.897015 93.438567 
L 60.313433 97.885793 
L 60.729851 97.430655 
L 61.146269 104.343125 
L 61.562687 103.352274 
L 61.979104 104.473828 
L 62.395522 109.494547 
L 62.81194 109.858621 
L 63.228358 109.60984 
L 63.644776 109.951542 
L 64.061194 111.730785 
L 64.477612 111.416653 
L 64.89403 112.66566 
L 65.310448 115.075487 
L 65.726866 113.26264 
L 66.143284 114.978666 
L 66.976119 111.074766 
L 67.392537 111.047939 
L 67.808955 110.204314 
L 68.225373 107.745381 
L 68.641791 106.45423 
L 69.058209 105.601044 
L 69.474627 104.266728 
L 69.891045 100.035143 
L 70.307463 99.066478 
L 71.140299 79.671458 
L 71.556716 81.455157 
L 71.973134 85.885581 
L 72.389552 98.698413 
L 72.80597 108.067124 
L 73.222388 113.122005 
L 73.638806 115.416631 
L 74.471642 117.702068 
L 74.88806 115.936378 
L 75.304478 116.379169 
L 75.720896 115.630972 
L 76.137313 117.365007 
L 76.553731 115.621968 
L 76.970149 117.781622 
L 77.802985 120.032804 
L 78.219403 115.477619 
L 78.635821 115.45859 
L 79.468657 113.028712 
L 79.885075 115.639791 
L 80.301493 111.726143 
L 81.967164 105.396635 
L 82.383582 105.281714 
L 82.8 102.553857 
L 83.216418 97.360105 
L 84.049254 96.706871 
L 84.465672 93.232395 
L 84.88209 81.155971 
L 85.298507 91.561855 
L 86.131343 81.184748 
L 86.547761 82.266756 
L 86.964179 85.863487 
L 87.380597 86.208716 
L 87.797015 94.299273 
L 88.213433 97.488301 
L 88.629851 102.070128 
L 89.046269 103.568565 
L 89.462687 106.002341 
L 89.879104 110.764069 
L 90.295522 112.396086 
L 90.71194 112.841663 
L 91.128358 112.366381 
L 91.544776 115.271633 
L 91.961194 115.092567 
L 92.377612 113.691322 
L 92.79403 114.320606 
L 93.210448 116.642059 
L 93.626866 116.62238 
L 94.043284 114.962236 
L 94.459701 116.882856 
L 94.876119 114.376024 
L 95.292537 110.27477 
L 95.708955 113.783964 
L 96.541791 107.054087 
L 96.958209 106.680082 
L 97.374627 105.100141 
L 97.791045 104.349995 
L 98.207463 100.891207 
L 98.623881 95.819524 
L 99.040299 96.014928 
L 99.456716 100.544307 
L 99.873134 107.457798 
L 100.70597 113.056004 
L 101.122388 114.768317 
L 101.538806 114.695168 
L 101.955224 116.79634 
L 102.371642 114.925383 
L 102.78806 117.331682 
L 103.204478 117.651755 
L 103.620896 115.227168 
L 104.037313 115.097765 
L 104.453731 116.389937 
L 104.870149 113.947064 
L 105.286567 112.19437 
L 105.702985 109.305456 
L 106.119403 110.735014 
L 106.535821 110.656667 
L 106.952239 110.050683 
L 107.368657 110.652397 
L 107.785075 108.897196 
L 108.201493 109.002464 
L 108.61791 107.901054 
L 109.034328 107.514516 
L 109.450746 106.396212 
L 109.867164 104.5635 
L 110.283582 105.041474 
L 110.7 103.499593 
L 111.116418 101.208123 
L 111.532836 97.84829 
L 111.949254 96.920377 
L 112.365672 93.719002 
L 112.78209 92.953724 
L 113.198507 94.170705 
L 113.614925 88.788697 
L 114.031343 90.026472 
L 114.447761 89.244764 
L 114.864179 90.007814 
L 115.280597 92.925226 
L 116.113433 103.721082 
L 116.529851 106.764184 
L 116.946269 108.8143 
L 117.362687 108.716645 
L 117.779104 109.402183 
L 118.195522 111.770608 
L 118.61194 109.115157 
L 119.444776 110.344392 
L 119.861194 110.226128 
L 120.277612 113.093135 
L 120.69403 111.089526 
L 121.110448 110.015779 
L 121.526866 110.822644 
L 121.943284 112.516021 
L 122.359701 111.734219 
L 122.776119 110.549079 
L 123.192537 109.720677 
L 123.608955 108.375593 
L 124.025373 108.545655 
L 124.441791 109.568253 
L 124.858209 109.429289 
L 125.274627 107.540787 
L 125.691045 106.652976 
L 126.107463 106.757408 
L 126.523881 100.89919 
L 126.940299 105.893732 
L 127.773134 110.281454 
L 128.189552 111.091846 
L 128.60597 112.712631 
L 129.022388 111.589871 
L 129.438806 114.07461 
L 129.855224 113.918937 
L 130.271642 114.542466 
L 130.68806 115.910571 
L 131.104478 115.1245 
L 131.520896 111.398366 
L 131.937313 113.123304 
L 132.353731 110.867202 
L 132.770149 113.861755 
L 133.186567 112.447792 
L 133.602985 113.613717 
L 134.019403 112.695458 
L 134.435821 111.164531 
L 134.852239 111.434569 
L 135.268657 110.399161 
L 135.685075 110.850678 
L 136.51791 101.871382 
L 136.934328 97.958292 
L 137.350746 97.137688 
L 138.183582 91.672413 
L 138.6 88.018778 
L 139.016418 88.599327 
L 139.432836 87.017159 
L 139.849254 88.103809 
L 140.265672 86.378685 
L 140.68209 88.22625 
L 141.514925 76.604221 
L 141.931343 76.469712 
L 142.347761 75.184967 
L 142.764179 82.818436 
L 143.180597 85.490224 
L 143.597015 90.398064 
L 144.013433 93.766437 
L 144.429851 94.841577 
L 144.846269 98.88964 
L 145.262687 101.198654 
L 145.679104 101.902108 
L 146.095522 103.07908 
L 146.51194 99.746725 
L 146.928358 103.596599 
L 147.344776 102.511527 
L 147.761194 103.277826 
L 148.59403 102.149496 
L 149.010448 101.915661 
L 149.426866 103.533104 
L 149.843284 100.341755 
L 150.259701 99.052925 
L 150.676119 96.91128 
L 151.092537 97.610464 
L 151.508955 93.404406 
L 151.925373 93.836616 
L 152.341791 93.92601 
L 152.758209 92.191974 
L 153.174627 92.040757 
L 153.591045 88.038272 
L 154.007463 85.21833 
L 154.423881 89.520835 
L 154.840299 95.979375 
L 155.673134 102.911896 
L 156.50597 107.234175 
L 156.922388 107.64986 
L 157.338806 107.516744 
L 157.755224 107.906995 
L 158.171642 108.881415 
L 158.58806 110.762213 
L 159.004478 109.66006 
L 159.420896 109.510143 
L 159.837313 107.986364 
L 160.253731 108.266241 
L 160.670149 107.899198 
L 161.086567 106.486906 
L 161.502985 109.564726 
L 161.919403 105.569575 
L 162.335821 106.752209 
L 162.752239 103.190382 
L 163.168657 103.558075 
L 163.585075 101.213971 
L 164.001493 100.290885 
L 164.41791 98.708531 
L 164.834328 96.616456 
L 165.250746 95.89945 
L 166.916418 86.104749 
L 167.332836 81.872978 
L 168.165672 69.288689 
L 168.58209 66.713164 
L 168.998507 59.592201 
L 169.414925 57.866984 
L 169.831343 51.842789 
L 170.247761 47.848009 
L 170.664179 52.943549 
L 171.080597 50.141058 
L 171.497015 62.525487 
L 171.913433 67.33957 
L 172.329851 81.546779 
L 173.162687 92.078723 
L 173.579104 95.746561 
L 173.995522 94.948051 
L 174.41194 97.35732 
L 174.828358 97.033813 
L 175.244776 100.265636 
L 175.661194 100.478306 
L 176.077612 103.128836 
L 176.49403 101.540634 
L 177.326866 105.008798 
L 177.743284 105.361268 
L 178.159701 104.265521 
L 178.576119 106.203129 
L 178.992537 106.530349 
L 179.408955 104.079121 
L 179.825373 105.462451 
L 180.241791 104.473085 
L 180.658209 105.292389 
L 181.074627 106.47131 
L 181.491045 99.42953 
L 181.907463 105.444349 
L 182.323881 108.038997 
L 182.740299 106.247037 
L 183.156716 109.418242 
L 183.573134 106.852835 
L 183.989552 107.452693 
L 184.40597 106.600713 
L 184.822388 107.081843 
L 185.238806 106.509649 
L 185.655224 106.599971 
L 186.071642 104.589028 
L 186.48806 103.994647 
L 187.320896 101.324808 
L 187.737313 101.902108 
L 188.153731 98.086488 
L 188.570149 98.484443 
L 189.402985 93.506425 
L 190.235821 85.077787 
L 190.652239 78.645704 
L 191.068657 78.703258 
L 191.485075 81.819045 
L 191.901493 79.295875 
L 192.31791 81.469917 
L 192.734328 89.282359 
L 193.150746 93.649938 
L 193.567164 96.218687 
L 193.983582 99.855798 
L 194.4 99.408179 
L 194.816418 101.857365 
L 195.232836 93.965926 
L 195.649254 98.714472 
L 196.065672 99.800844 
L 196.48209 96.369811 
L 196.898507 95.76754 
L 197.314925 93.619304 
L 197.731343 92.480856 
L 198.564179 94.237542 
L 198.980597 92.398239 
L 199.397015 93.347317 
L 200.229851 88.988279 
L 200.646269 90.746171 
L 201.062687 89.948218 
L 201.895522 85.478806 
L 202.31194 80.924457 
L 202.728358 78.617948 
L 203.144776 79.008385 
L 203.561194 73.129188 
L 203.977612 70.716205 
L 204.39403 69.787085 
L 204.810448 67.95001 
L 205.226866 67.633279 
L 206.059701 69.022457 
L 206.476119 71.893548 
L 207.308955 81.135177 
L 207.725373 89.669082 
L 208.141791 91.255521 
L 208.558209 91.864661 
L 208.974627 85.763325 
L 209.391045 93.727449 
L 209.807463 95.310917 
L 210.223881 95.821474 
L 210.640299 95.607968 
L 211.056716 94.427747 
L 211.473134 95.703117 
L 211.889552 95.155058 
L 212.30597 97.50074 
L 212.722388 93.254674 
L 213.138806 90.803446 
L 213.555224 93.445158 
L 213.971642 92.691577 
L 214.38806 94.03629 
L 214.804478 89.750957 
L 215.220896 94.922152 
L 215.637313 92.364542 
L 216.053731 88.800301 
L 216.470149 87.57413 
L 217 90.018336 
L 217 90.018336 
" clip-path="url(#pa90ad3f25a)" style="fill: none; stroke: #ff0000; stroke-width: 1.5; stroke-linecap: square"/>
   </g>
   <g id="LineCollection_2">
    <path d="M 29.498507 123.12 
L 29.498507 47.848009 
" clip-path="url(#pa90ad3f25a)" style="fill: none; stroke-dasharray: 5.55,2.4; stroke-dashoffset: 0; stroke: #7f7f7f; stroke-width: 1.5"/>
    <path d="M 56.98209 123.12 
L 56.98209 47.848009 
" clip-path="url(#pa90ad3f25a)" style="fill: none; stroke-dasharray: 5.55,2.4; stroke-dashoffset: 0; stroke: #7f7f7f; stroke-width: 1.5"/>
    <path d="M 84.465672 123.12 
L 84.465672 47.848009 
" clip-path="url(#pa90ad3f25a)" style="fill: none; stroke-dasharray: 5.55,2.4; stroke-dashoffset: 0; stroke: #7f7f7f; stroke-width: 1.5"/>
    <path d="M 111.949254 123.12 
L 111.949254 47.848009 
" clip-path="url(#pa90ad3f25a)" style="fill: none; stroke-dasharray: 5.55,2.4; stroke-dashoffset: 0; stroke: #7f7f7f; stroke-width: 1.5"/>
    <path d="M 139.432836 123.12 
L 139.432836 47.848009 
" clip-path="url(#pa90ad3f25a)" style="fill: none; stroke-dasharray: 5.55,2.4; stroke-dashoffset: 0; stroke: #7f7f7f; stroke-width: 1.5"/>
    <path d="M 166.916418 123.12 
L 166.916418 47.848009 
" clip-path="url(#pa90ad3f25a)" style="fill: none; stroke-dasharray: 5.55,2.4; stroke-dashoffset: 0; stroke: #7f7f7f; stroke-width: 1.5"/>
    <path d="M 194.4 123.12 
L 194.4 47.848009 
" clip-path="url(#pa90ad3f25a)" style="fill: none; stroke-dasharray: 5.55,2.4; stroke-dashoffset: 0; stroke: #7f7f7f; stroke-width: 1.5"/>
   </g>
   <g id="patch_3">
    <path d="M 27 128.16 
L 27 17.28 
" style="fill: none; stroke: #000000; stroke-width: 0.8; stroke-linejoin: miter; stroke-linecap: square"/>
   </g>
   <g id="patch_4">
    <path d="M 194.4 128.16 
L 194.4 17.28 
" style="fill: none; stroke: #000000; stroke-width: 0.8; stroke-linejoin: miter; stroke-linecap: square"/>
   </g>
   <g id="patch_5">
    <path d="M 27 128.16 
L 194.4 128.16 
" style="fill: none; stroke: #000000; stroke-width: 0.8; stroke-linejoin: miter; stroke-linecap: square"/>
   </g>
   <g id="patch_6">
    <path d="M 27 17.28 
L 194.4 17.28 
" style="fill: none; stroke: #000000; stroke-width: 0.8; stroke-linejoin: miter; stroke-linecap: square"/>
   </g>
  </g>
 </g>
 <defs>
  <clipPath id="pa90ad3f25a">
   <rect x="27" y="17.28" width="167.4" height="110.88"/>
  </clipPath>
 </defs>
</svg>
