<?xml version="1.0" encoding="utf-8" standalone="no"?>
<!DOCTYPE svg PUBLIC "-//W3C//DTD SVG 1.1//EN"
  "http://www.w3.org/Graphics/SVG/1.1/DTD/svg11.dtd">
<svg xmlns:xlink="http://www.w3.org/1999/xlink" width="216pt" height="144pt" viewBox="0 0 216 144" xmlns="http://www.w3.org/2000/svg" version="1.1">
 <metadata>
  <rdf:RDF xmlns:dc="http://purl.org/dc/elements/1.1/" xmlns:cc="http://creativecommons.org/ns#" xmlns:rdf="http://www.w3.org/1999/02/22-rdf-syntax-ns#">
   <cc:Work>
    <dc:type rdf:resource="http://purl.org/dc/dcmitype/StillImage"/>
    <dc:date>2024-05-02T16:32:33.887855</dc:date>
    <dc:format>image/svg+xml</dc:format>
    <dc:creator>
     <cc:Agent>
      <dc:title>Matplotlib v3.8.3, https://matplotlib.org/</dc:title>
     </cc:Agent>
    </dc:creator>
   </cc:Work>
  </rdf:RDF>
 </metadata>
 <defs>
  <style type="text/css">*{stroke-linejoin: round; stroke-linecap: butt}</style>
 </defs>
 <g id="figure_1">
  <g id="patch_1">
   <path d="M 0 144 
L 216 144 
L 216 0 
L 0 0 
z
" style="fill: #ffffff"/>
  </g>
  <g id="axes_1">
   <g id="patch_2">
    <path d="M 27 128.16 
L 194.4 128.16 
L 194.4 17.28 
L 27 17.28 
z
" style="fill: #f2f2f2"/>
   </g>
   <g id="matplotlib.axis_1">
    <g id="xtick_1">
     <g id="line2d_1">
      <defs>
       <path id="mb301024746" d="M 0 0 
L 0 3.5 
" style="stroke: #000000; stroke-width: 0.8"/>
      </defs>
      <g>
       <use xlink:href="#mb301024746" x="34.609091" y="128.16" style="stroke: #000000; stroke-width: 0.8"/>
      </g>
     </g>
     <g id="text_1">
      <!-- 0 -->
      <g transform="translate(31.427841 142.758438) scale(0.1 -0.1)">
       <defs>
        <path id="DejaVuSans-30" d="M 2034 4250 
Q 1547 4250 1301 3770 
Q 1056 3291 1056 2328 
Q 1056 1369 1301 889 
Q 1547 409 2034 409 
Q 2525 409 2770 889 
Q 3016 1369 3016 2328 
Q 3016 3291 2770 3770 
Q 2525 4250 2034 4250 
z
M 2034 4750 
Q 2819 4750 3233 4129 
Q 3647 3509 3647 2328 
Q 3647 1150 3233 529 
Q 2819 -91 2034 -91 
Q 1250 -91 836 529 
Q 422 1150 422 2328 
Q 422 3509 836 4129 
Q 1250 4750 2034 4750 
z
" transform="scale(0.015625)"/>
       </defs>
       <use xlink:href="#DejaVuSans-30"/>
      </g>
     </g>
    </g>
    <g id="xtick_2">
     <g id="line2d_2">
      <g>
       <use xlink:href="#mb301024746" x="74.482056" y="128.16" style="stroke: #000000; stroke-width: 0.8"/>
      </g>
     </g>
     <g id="text_2">
      <!-- 20 -->
      <g transform="translate(68.119556 142.758438) scale(0.1 -0.1)">
       <defs>
        <path id="DejaVuSans-32" d="M 1228 531 
L 3431 531 
L 3431 0 
L 469 0 
L 469 531 
Q 828 903 1448 1529 
Q 2069 2156 2228 2338 
Q 2531 2678 2651 2914 
Q 2772 3150 2772 3378 
Q 2772 3750 2511 3984 
Q 2250 4219 1831 4219 
Q 1534 4219 1204 4116 
Q 875 4013 500 3803 
L 500 4441 
Q 881 4594 1212 4672 
Q 1544 4750 1819 4750 
Q 2544 4750 2975 4387 
Q 3406 4025 3406 3419 
Q 3406 3131 3298 2873 
Q 3191 2616 2906 2266 
Q 2828 2175 2409 1742 
Q 1991 1309 1228 531 
z
" transform="scale(0.015625)"/>
       </defs>
       <use xlink:href="#DejaVuSans-32"/>
       <use xlink:href="#DejaVuSans-30" x="63.623047"/>
      </g>
     </g>
    </g>
    <g id="xtick_3">
     <g id="line2d_3">
      <g>
       <use xlink:href="#mb301024746" x="114.355022" y="128.16" style="stroke: #000000; stroke-width: 0.8"/>
      </g>
     </g>
     <g id="text_3">
      <!-- 40 -->
      <g transform="translate(107.992522 142.758438) scale(0.1 -0.1)">
       <defs>
        <path id="DejaVuSans-34" d="M 2419 4116 
L 825 1625 
L 2419 1625 
L 2419 4116 
z
M 2253 4666 
L 3047 4666 
L 3047 1625 
L 3713 1625 
L 3713 1100 
L 3047 1100 
L 3047 0 
L 2419 0 
L 2419 1100 
L 313 1100 
L 313 1709 
L 2253 4666 
z
" transform="scale(0.015625)"/>
       </defs>
       <use xlink:href="#DejaVuSans-34"/>
       <use xlink:href="#DejaVuSans-30" x="63.623047"/>
      </g>
     </g>
    </g>
    <g id="xtick_4">
     <g id="line2d_4">
      <g>
       <use xlink:href="#mb301024746" x="154.227987" y="128.16" style="stroke: #000000; stroke-width: 0.8"/>
      </g>
     </g>
     <g id="text_4">
      <!-- 60 -->
      <g transform="translate(147.865487 142.758438) scale(0.1 -0.1)">
       <defs>
        <path id="DejaVuSans-36" d="M 2113 2584 
Q 1688 2584 1439 2293 
Q 1191 2003 1191 1497 
Q 1191 994 1439 701 
Q 1688 409 2113 409 
Q 2538 409 2786 701 
Q 3034 994 3034 1497 
Q 3034 2003 2786 2293 
Q 2538 2584 2113 2584 
z
M 3366 4563 
L 3366 3988 
Q 3128 4100 2886 4159 
Q 2644 4219 2406 4219 
Q 1781 4219 1451 3797 
Q 1122 3375 1075 2522 
Q 1259 2794 1537 2939 
Q 1816 3084 2150 3084 
Q 2853 3084 3261 2657 
Q 3669 2231 3669 1497 
Q 3669 778 3244 343 
Q 2819 -91 2113 -91 
Q 1303 -91 875 529 
Q 447 1150 447 2328 
Q 447 3434 972 4092 
Q 1497 4750 2381 4750 
Q 2619 4750 2861 4703 
Q 3103 4656 3366 4563 
z
" transform="scale(0.015625)"/>
       </defs>
       <use xlink:href="#DejaVuSans-36"/>
       <use xlink:href="#DejaVuSans-30" x="63.623047"/>
      </g>
     </g>
    </g>
    <g id="xtick_5">
     <g id="line2d_5">
      <g>
       <use xlink:href="#mb301024746" x="194.100953" y="128.16" style="stroke: #000000; stroke-width: 0.8"/>
      </g>
     </g>
     <g id="text_5">
      <!-- 80 -->
      <g transform="translate(187.738453 142.758438) scale(0.1 -0.1)">
       <defs>
        <path id="DejaVuSans-38" d="M 2034 2216 
Q 1584 2216 1326 1975 
Q 1069 1734 1069 1313 
Q 1069 891 1326 650 
Q 1584 409 2034 409 
Q 2484 409 2743 651 
Q 3003 894 3003 1313 
Q 3003 1734 2745 1975 
Q 2488 2216 2034 2216 
z
M 1403 2484 
Q 997 2584 770 2862 
Q 544 3141 544 3541 
Q 544 4100 942 4425 
Q 1341 4750 2034 4750 
Q 2731 4750 3128 4425 
Q 3525 4100 3525 3541 
Q 3525 3141 3298 2862 
Q 3072 2584 2669 2484 
Q 3125 2378 3379 2068 
Q 3634 1759 3634 1313 
Q 3634 634 3220 271 
Q 2806 -91 2034 -91 
Q 1263 -91 848 271 
Q 434 634 434 1313 
Q 434 1759 690 2068 
Q 947 2378 1403 2484 
z
M 1172 3481 
Q 1172 3119 1398 2916 
Q 1625 2713 2034 2713 
Q 2441 2713 2670 2916 
Q 2900 3119 2900 3481 
Q 2900 3844 2670 4047 
Q 2441 4250 2034 4250 
Q 1625 4250 1398 4047 
Q 1172 3844 1172 3481 
z
" transform="scale(0.015625)"/>
       </defs>
       <use xlink:href="#DejaVuSans-38"/>
       <use xlink:href="#DejaVuSans-30" x="63.623047"/>
      </g>
     </g>
    </g>
    <g id="text_6">
     <!-- Time [h] -->
     <g transform="translate(89.807031 156.436563) scale(0.1 -0.1)">
      <defs>
       <path id="DejaVuSans-54" d="M -19 4666 
L 3928 4666 
L 3928 4134 
L 2272 4134 
L 2272 0 
L 1638 0 
L 1638 4134 
L -19 4134 
L -19 4666 
z
" transform="scale(0.015625)"/>
       <path id="DejaVuSans-69" d="M 603 3500 
L 1178 3500 
L 1178 0 
L 603 0 
L 603 3500 
z
M 603 4863 
L 1178 4863 
L 1178 4134 
L 603 4134 
L 603 4863 
z
" transform="scale(0.015625)"/>
       <path id="DejaVuSans-6d" d="M 3328 2828 
Q 3544 3216 3844 3400 
Q 4144 3584 4550 3584 
Q 5097 3584 5394 3201 
Q 5691 2819 5691 2113 
L 5691 0 
L 5113 0 
L 5113 2094 
Q 5113 2597 4934 2840 
Q 4756 3084 4391 3084 
Q 3944 3084 3684 2787 
Q 3425 2491 3425 1978 
L 3425 0 
L 2847 0 
L 2847 2094 
Q 2847 2600 2669 2842 
Q 2491 3084 2119 3084 
Q 1678 3084 1418 2786 
Q 1159 2488 1159 1978 
L 1159 0 
L 581 0 
L 581 3500 
L 1159 3500 
L 1159 2956 
Q 1356 3278 1631 3431 
Q 1906 3584 2284 3584 
Q 2666 3584 2933 3390 
Q 3200 3197 3328 2828 
z
" transform="scale(0.015625)"/>
       <path id="DejaVuSans-65" d="M 3597 1894 
L 3597 1613 
L 953 1613 
Q 991 1019 1311 708 
Q 1631 397 2203 397 
Q 2534 397 2845 478 
Q 3156 559 3463 722 
L 3463 178 
Q 3153 47 2828 -22 
Q 2503 -91 2169 -91 
Q 1331 -91 842 396 
Q 353 884 353 1716 
Q 353 2575 817 3079 
Q 1281 3584 2069 3584 
Q 2775 3584 3186 3129 
Q 3597 2675 3597 1894 
z
M 3022 2063 
Q 3016 2534 2758 2815 
Q 2500 3097 2075 3097 
Q 1594 3097 1305 2825 
Q 1016 2553 972 2059 
L 3022 2063 
z
" transform="scale(0.015625)"/>
       <path id="DejaVuSans-20" transform="scale(0.015625)"/>
       <path id="DejaVuSans-5b" d="M 550 4863 
L 1875 4863 
L 1875 4416 
L 1125 4416 
L 1125 -397 
L 1875 -397 
L 1875 -844 
L 550 -844 
L 550 4863 
z
" transform="scale(0.015625)"/>
       <path id="DejaVuSans-68" d="M 3513 2113 
L 3513 0 
L 2938 0 
L 2938 2094 
Q 2938 2591 2744 2837 
Q 2550 3084 2163 3084 
Q 1697 3084 1428 2787 
Q 1159 2491 1159 1978 
L 1159 0 
L 581 0 
L 581 4863 
L 1159 4863 
L 1159 2956 
Q 1366 3272 1645 3428 
Q 1925 3584 2291 3584 
Q 2894 3584 3203 3211 
Q 3513 2838 3513 2113 
z
" transform="scale(0.015625)"/>
       <path id="DejaVuSans-5d" d="M 1947 4863 
L 1947 -844 
L 622 -844 
L 622 -397 
L 1369 -397 
L 1369 4416 
L 622 4416 
L 622 4863 
L 1947 4863 
z
" transform="scale(0.015625)"/>
      </defs>
      <use xlink:href="#DejaVuSans-54"/>
      <use xlink:href="#DejaVuSans-69" x="57.958984"/>
      <use xlink:href="#DejaVuSans-6d" x="85.742188"/>
      <use xlink:href="#DejaVuSans-65" x="183.154297"/>
      <use xlink:href="#DejaVuSans-20" x="244.677734"/>
      <use xlink:href="#DejaVuSans-5b" x="276.464844"/>
      <use xlink:href="#DejaVuSans-68" x="315.478516"/>
      <use xlink:href="#DejaVuSans-5d" x="378.857422"/>
     </g>
    </g>
   </g>
   <g id="matplotlib.axis_2">
    <g id="ytick_1">
     <g id="line2d_6">
      <defs>
       <path id="m15c0b6deb9" d="M 0 0 
L -3.5 0 
" style="stroke: #000000; stroke-width: 0.8"/>
      </defs>
      <g>
       <use xlink:href="#m15c0b6deb9" x="27" y="125.478599" style="stroke: #000000; stroke-width: 0.8"/>
      </g>
     </g>
     <g id="text_7">
      <!-- −6 -->
      <g transform="translate(5.257812 129.277818) scale(0.1 -0.1)">
       <defs>
        <path id="DejaVuSans-2212" d="M 678 2272 
L 4684 2272 
L 4684 1741 
L 678 1741 
L 678 2272 
z
" transform="scale(0.015625)"/>
       </defs>
       <use xlink:href="#DejaVuSans-2212"/>
       <use xlink:href="#DejaVuSans-36" x="83.789062"/>
      </g>
     </g>
    </g>
    <g id="ytick_2">
     <g id="line2d_7">
      <g>
       <use xlink:href="#m15c0b6deb9" x="27" y="102.218606" style="stroke: #000000; stroke-width: 0.8"/>
      </g>
     </g>
     <g id="text_8">
      <!-- −4 -->
      <g transform="translate(5.257812 106.017825) scale(0.1 -0.1)">
       <use xlink:href="#DejaVuSans-2212"/>
       <use xlink:href="#DejaVuSans-34" x="83.789062"/>
      </g>
     </g>
    </g>
    <g id="ytick_3">
     <g id="line2d_8">
      <g>
       <use xlink:href="#m15c0b6deb9" x="27" y="78.958614" style="stroke: #000000; stroke-width: 0.8"/>
      </g>
     </g>
     <g id="text_9">
      <!-- −2 -->
      <g transform="translate(5.257812 82.757832) scale(0.1 -0.1)">
       <use xlink:href="#DejaVuSans-2212"/>
       <use xlink:href="#DejaVuSans-32" x="83.789062"/>
      </g>
     </g>
    </g>
    <g id="ytick_4">
     <g id="line2d_9">
      <g>
       <use xlink:href="#m15c0b6deb9" x="27" y="55.698621" style="stroke: #000000; stroke-width: 0.8"/>
      </g>
     </g>
     <g id="text_10">
      <!-- 0 -->
      <g transform="translate(13.6375 59.49784) scale(0.1 -0.1)">
       <use xlink:href="#DejaVuSans-30"/>
      </g>
     </g>
    </g>
    <g id="ytick_5">
     <g id="line2d_10">
      <g>
       <use xlink:href="#m15c0b6deb9" x="27" y="32.438628" style="stroke: #000000; stroke-width: 0.8"/>
      </g>
     </g>
     <g id="text_11">
      <!-- 2 -->
      <g transform="translate(13.6375 36.237847) scale(0.1 -0.1)">
       <use xlink:href="#DejaVuSans-32"/>
      </g>
     </g>
    </g>
    <g id="text_12">
     <!-- Log($\delta$Z(t)/$\delta$Z(0)) -->
     <g transform="translate(-0.842188 113.27) rotate(-90) scale(0.1 -0.1)">
      <defs>
       <path id="DejaVuSans-4c" d="M 628 4666 
L 1259 4666 
L 1259 531 
L 3531 531 
L 3531 0 
L 628 0 
L 628 4666 
z
" transform="scale(0.015625)"/>
       <path id="DejaVuSans-6f" d="M 1959 3097 
Q 1497 3097 1228 2736 
Q 959 2375 959 1747 
Q 959 1119 1226 758 
Q 1494 397 1959 397 
Q 2419 397 2687 759 
Q 2956 1122 2956 1747 
Q 2956 2369 2687 2733 
Q 2419 3097 1959 3097 
z
M 1959 3584 
Q 2709 3584 3137 3096 
Q 3566 2609 3566 1747 
Q 3566 888 3137 398 
Q 2709 -91 1959 -91 
Q 1206 -91 779 398 
Q 353 888 353 1747 
Q 353 2609 779 3096 
Q 1206 3584 1959 3584 
z
" transform="scale(0.015625)"/>
       <path id="DejaVuSans-67" d="M 2906 1791 
Q 2906 2416 2648 2759 
Q 2391 3103 1925 3103 
Q 1463 3103 1205 2759 
Q 947 2416 947 1791 
Q 947 1169 1205 825 
Q 1463 481 1925 481 
Q 2391 481 2648 825 
Q 2906 1169 2906 1791 
z
M 3481 434 
Q 3481 -459 3084 -895 
Q 2688 -1331 1869 -1331 
Q 1566 -1331 1297 -1286 
Q 1028 -1241 775 -1147 
L 775 -588 
Q 1028 -725 1275 -790 
Q 1522 -856 1778 -856 
Q 2344 -856 2625 -561 
Q 2906 -266 2906 331 
L 2906 616 
Q 2728 306 2450 153 
Q 2172 0 1784 0 
Q 1141 0 747 490 
Q 353 981 353 1791 
Q 353 2603 747 3093 
Q 1141 3584 1784 3584 
Q 2172 3584 2450 3431 
Q 2728 3278 2906 2969 
L 2906 3500 
L 3481 3500 
L 3481 434 
z
" transform="scale(0.015625)"/>
       <path id="DejaVuSans-28" d="M 1984 4856 
Q 1566 4138 1362 3434 
Q 1159 2731 1159 2009 
Q 1159 1288 1364 580 
Q 1569 -128 1984 -844 
L 1484 -844 
Q 1016 -109 783 600 
Q 550 1309 550 2009 
Q 550 2706 781 3412 
Q 1013 4119 1484 4856 
L 1984 4856 
z
" transform="scale(0.015625)"/>
       <path id="DejaVuSans-Oblique-3b4" d="M 3472 4053 
Q 3197 4272 2450 4272 
Q 1659 4272 1588 3906 
Q 1531 3619 2328 3469 
Q 2953 3353 3253 3003 
Q 3616 2581 3447 1716 
Q 3284 888 2763 400 
Q 2238 -91 1488 -91 
Q 741 -91 406 400 
Q 72 888 241 1747 
Q 363 2384 891 2900 
Q 1097 3100 1353 3213 
Q 913 3459 1000 3900 
Q 1166 4750 2544 4750 
Q 3234 4750 3566 4531 
L 3472 4053 
z
M 1753 3056 
Q 1525 2966 1306 2738 
Q 969 2384 847 1747 
Q 722 1113 919 756 
Q 1119 397 1584 397 
Q 2044 397 2381 759 
Q 2722 1122 2838 1716 
Q 2956 2338 2731 2638 
Q 2491 2959 2103 2994 
Q 1906 3013 1753 3056 
z
" transform="scale(0.015625)"/>
       <path id="DejaVuSans-5a" d="M 359 4666 
L 4025 4666 
L 4025 4184 
L 1075 531 
L 4097 531 
L 4097 0 
L 288 0 
L 288 481 
L 3238 4134 
L 359 4134 
L 359 4666 
z
" transform="scale(0.015625)"/>
       <path id="DejaVuSans-74" d="M 1172 4494 
L 1172 3500 
L 2356 3500 
L 2356 3053 
L 1172 3053 
L 1172 1153 
Q 1172 725 1289 603 
Q 1406 481 1766 481 
L 2356 481 
L 2356 0 
L 1766 0 
Q 1100 0 847 248 
Q 594 497 594 1153 
L 594 3053 
L 172 3053 
L 172 3500 
L 594 3500 
L 594 4494 
L 1172 4494 
z
" transform="scale(0.015625)"/>
       <path id="DejaVuSans-29" d="M 513 4856 
L 1013 4856 
Q 1481 4119 1714 3412 
Q 1947 2706 1947 2009 
Q 1947 1309 1714 600 
Q 1481 -109 1013 -844 
L 513 -844 
Q 928 -128 1133 580 
Q 1338 1288 1338 2009 
Q 1338 2731 1133 3434 
Q 928 4138 513 4856 
z
" transform="scale(0.015625)"/>
       <path id="DejaVuSans-2f" d="M 1625 4666 
L 2156 4666 
L 531 -594 
L 0 -594 
L 1625 4666 
z
" transform="scale(0.015625)"/>
      </defs>
      <use xlink:href="#DejaVuSans-4c" transform="translate(0 0.125)"/>
      <use xlink:href="#DejaVuSans-6f" transform="translate(55.712891 0.125)"/>
      <use xlink:href="#DejaVuSans-67" transform="translate(116.894531 0.125)"/>
      <use xlink:href="#DejaVuSans-28" transform="translate(180.371094 0.125)"/>
      <use xlink:href="#DejaVuSans-Oblique-3b4" transform="translate(219.384766 0.125)"/>
      <use xlink:href="#DejaVuSans-5a" transform="translate(280.566406 0.125)"/>
      <use xlink:href="#DejaVuSans-28" transform="translate(349.072266 0.125)"/>
      <use xlink:href="#DejaVuSans-74" transform="translate(388.085938 0.125)"/>
      <use xlink:href="#DejaVuSans-29" transform="translate(427.294922 0.125)"/>
      <use xlink:href="#DejaVuSans-2f" transform="translate(466.308594 0.125)"/>
      <use xlink:href="#DejaVuSans-Oblique-3b4" transform="translate(500 0.125)"/>
      <use xlink:href="#DejaVuSans-5a" transform="translate(561.181641 0.125)"/>
      <use xlink:href="#DejaVuSans-28" transform="translate(629.6875 0.125)"/>
      <use xlink:href="#DejaVuSans-30" transform="translate(668.701172 0.125)"/>
      <use xlink:href="#DejaVuSans-29" transform="translate(732.324219 0.125)"/>
      <use xlink:href="#DejaVuSans-29" transform="translate(771.337891 0.125)"/>
     </g>
    </g>
   </g>
   <g id="line2d_11">
    <path d="M 34.609091 55.698621 
L 34.941366 53.076717 
L 35.27364 57.568972 
L 35.605915 46.532432 
L 35.93819 80.883098 
L 36.270464 58.897033 
L 36.602739 58.982572 
L 37.267289 45.756193 
L 37.599563 60.129336 
L 37.931838 55.499273 
L 38.264113 48.919198 
L 38.596387 53.068891 
L 38.928662 61.251296 
L 39.260937 85.827506 
L 39.593212 49.997033 
L 39.925486 47.523858 
L 40.257761 52.680381 
L 40.590036 55.791185 
L 40.92231 110.726284 
L 41.254585 47.720991 
L 41.58686 54.295885 
L 41.919135 43.124423 
L 42.251409 52.868014 
L 42.583684 55.881004 
L 42.915959 50.683714 
L 43.248233 85.652225 
L 43.580508 65.663725 
L 43.912783 93.439715 
L 44.245058 53.367229 
L 44.577332 48.612808 
L 44.909607 55.482894 
L 45.241882 48.977384 
L 45.574156 60.459138 
L 45.906431 49.925467 
L 46.238706 72.289034 
L 46.570981 123.12 
L 46.903255 66.422706 
L 47.567805 64.539211 
L 47.900079 115.303552 
L 48.232354 63.550453 
L 48.564629 66.068083 
L 48.896904 105.91835 
L 49.229178 76.872604 
L 49.561453 63.280983 
L 50.226002 49.301584 
L 50.558277 45.752022 
L 51.555101 39.64624 
L 51.887376 37.923544 
L 52.219651 38.481952 
L 52.8842 31.479834 
L 53.216475 31.422586 
L 53.54875 31.837875 
L 53.881024 42.022864 
L 54.213299 63.161124 
L 54.545574 42.394454 
L 55.210123 32.079045 
L 55.542398 32.499146 
L 55.874672 30.734008 
L 56.206947 30.341524 
L 56.539222 29.731781 
L 56.871497 31.648637 
L 57.203771 31.229343 
L 57.536046 32.980588 
L 57.868321 32.083551 
L 58.53287 34.675346 
L 58.865145 37.135085 
L 59.529694 57.448643 
L 59.861969 62.198739 
L 60.526518 35.589261 
L 60.858793 32.058922 
L 61.523343 30.029581 
L 61.855617 29.665656 
L 62.187892 30.761727 
L 62.520167 30.215741 
L 63.184716 31.68665 
L 63.516991 33.321889 
L 63.849266 37.133793 
L 64.18154 39.276474 
L 64.84609 44.854487 
L 65.178364 57.461761 
L 65.510639 58.411458 
L 65.842914 49.672994 
L 66.175189 46.6573 
L 66.507463 48.727501 
L 66.839738 43.491965 
L 67.172013 42.325918 
L 67.504287 40.385242 
L 67.836562 46.078928 
L 68.168837 45.900802 
L 68.501112 46.709029 
L 68.833386 51.008429 
L 69.165661 48.698453 
L 69.83021 52.95368 
L 70.162485 52.779541 
L 70.49476 57.157603 
L 70.827035 48.797189 
L 71.159309 58.542231 
L 71.491584 60.227371 
L 71.823859 69.495849 
L 72.156133 53.452219 
L 72.488408 49.248797 
L 72.820683 49.891485 
L 73.152958 41.529175 
L 73.485232 39.650187 
L 73.817507 35.821827 
L 74.149782 36.821596 
L 74.482056 35.740613 
L 74.814331 36.810186 
L 75.146606 36.240676 
L 75.811155 40.403658 
L 76.14343 54.729874 
L 76.475705 43.028507 
L 77.140254 33.200295 
L 77.472529 32.429437 
L 77.804803 29.292299 
L 78.137078 28.124883 
L 78.469353 26.047357 
L 78.801628 26.452437 
L 79.133902 27.249635 
L 79.466177 26.829119 
L 79.798452 25.144206 
L 80.463001 25.067892 
L 80.795276 24.667398 
L 81.127551 22.72876 
L 81.459825 22.424259 
L 81.7921 22.32 
L 82.456649 24.315073 
L 82.788924 27.074912 
L 83.121199 27.433193 
L 83.453474 28.278133 
L 84.118023 32.212365 
L 84.450298 31.593701 
L 84.782572 34.290117 
L 85.114847 35.600492 
L 85.447122 34.806645 
L 86.111671 42.054986 
L 86.776221 45.283277 
L 87.108495 38.649201 
L 87.44077 37.241621 
L 87.773045 38.212801 
L 88.10532 33.81743 
L 88.437594 33.401862 
L 88.769869 31.712435 
L 89.102144 32.270375 
L 89.434418 29.30603 
L 90.098968 35.183931 
L 90.431243 35.849826 
L 90.763517 36.976059 
L 91.095792 37.326791 
L 91.428067 38.355315 
L 91.760341 41.253024 
L 92.092616 41.966712 
L 92.424891 45.804895 
L 92.757166 42.745095 
L 93.08944 42.298461 
L 93.421715 43.693366 
L 93.75399 42.379154 
L 94.086264 44.347067 
L 94.750814 31.683912 
L 95.083089 42.344881 
L 95.415363 42.392892 
L 95.747638 41.090035 
L 96.079913 41.952566 
L 96.412187 40.98826 
L 97.076737 42.823932 
L 97.409012 49.194005 
L 97.741286 50.60243 
L 98.073561 44.228672 
L 98.405836 43.891385 
L 98.73811 41.297719 
L 99.40266 34.901814 
L 99.734934 32.273188 
L 100.067209 34.00811 
L 100.399484 31.590184 
L 101.064033 37.569793 
L 101.396308 36.680718 
L 101.728583 36.153023 
L 102.060857 33.383922 
L 102.393132 34.937386 
L 102.725407 35.248231 
L 103.057682 36.119458 
L 103.389956 34.453125 
L 104.054506 37.185486 
L 104.38678 38.27852 
L 104.719055 41.15066 
L 105.05133 42.107603 
L 105.383605 49.810215 
L 105.715879 60.552558 
L 106.048154 84.303189 
L 106.712703 54.972431 
L 107.044978 46.262003 
L 107.377253 50.72585 
L 108.041802 45.109741 
L 108.374077 47.193263 
L 108.706352 60.976313 
L 109.038626 64.864651 
L 109.370901 48.136065 
L 109.703176 47.081458 
L 110.035451 40.012354 
L 110.7 36.008508 
L 111.032275 35.950465 
L 111.364549 34.397461 
L 111.696824 33.710842 
L 112.361374 39.831365 
L 112.693648 43.292304 
L 113.690472 49.025082 
L 114.022747 52.20886 
L 114.355022 50.657934 
L 114.687297 53.518302 
L 115.019571 52.50094 
L 115.351846 50.841869 
L 115.684121 52.166072 
L 116.016395 56.904636 
L 116.34867 55.513261 
L 116.680945 56.843868 
L 117.01322 79.102549 
L 117.345494 53.090033 
L 117.677769 54.7973 
L 118.010044 62.228794 
L 118.342318 59.96257 
L 118.674593 80.254746 
L 119.006868 54.074576 
L 119.339143 53.760688 
L 119.671417 56.621428 
L 120.003692 53.308783 
L 120.335967 51.148853 
L 120.668241 45.681551 
L 121.000516 45.270867 
L 122.329615 31.914453 
L 122.66189 30.400806 
L 122.994164 31.249338 
L 123.326439 31.522573 
L 123.658714 30.513647 
L 123.990988 30.679852 
L 124.323263 30.228906 
L 124.655538 30.927461 
L 124.987813 29.618638 
L 125.320087 32.863594 
L 125.652362 32.322957 
L 126.316911 40.540048 
L 127.313736 69.528016 
L 127.64601 52.687192 
L 127.978285 44.095004 
L 128.642834 40.997261 
L 128.975109 37.879487 
L 129.307384 38.292016 
L 129.971933 38.11313 
L 130.304208 38.72006 
L 130.968757 42.686957 
L 131.301032 44.093377 
L 131.633307 44.132313 
L 131.965582 46.791957 
L 132.297856 54.632818 
L 132.630131 55.623342 
L 132.962406 68.543352 
L 133.29468 55.689307 
L 133.626955 48.812913 
L 133.95923 56.279299 
L 134.291505 52.016827 
L 134.623779 52.754767 
L 134.956054 52.092109 
L 135.288329 47.282584 
L 135.620603 54.349475 
L 135.952878 49.670365 
L 136.285153 56.305103 
L 136.617428 49.626059 
L 136.949702 47.414616 
L 137.614252 39.256657 
L 137.946526 40.057502 
L 138.278801 37.815347 
L 138.611076 34.740365 
L 138.943351 36.828855 
L 139.275625 34.767416 
L 139.6079 33.900144 
L 139.940175 34.052478 
L 140.272449 32.290344 
L 140.936999 30.913133 
L 141.269274 29.38498 
L 141.601548 29.673398 
L 141.933823 30.693667 
L 142.598372 35.195871 
L 142.930647 39.720607 
L 143.262922 58.092624 
L 144.259746 36.255964 
L 144.592021 48.031089 
L 145.25657 37.227988 
L 145.588845 40.456567 
L 145.921119 37.625227 
L 146.253394 37.489695 
L 146.585669 35.902807 
L 146.917944 37.335888 
L 147.250218 36.700425 
L 147.582493 37.568864 
L 147.914768 38.807982 
L 148.247042 43.715397 
L 148.579317 43.811349 
L 148.911592 53.06068 
L 149.243867 65.688011 
L 149.576141 66.970606 
L 149.908416 61.311531 
L 150.240691 42.979284 
L 150.572965 40.45194 
L 150.90524 35.302611 
L 151.902064 29.445213 
L 152.234339 30.089948 
L 152.566614 28.52968 
L 152.898888 27.84343 
L 153.895713 27.361343 
L 154.227987 27.277153 
L 154.560262 28.188953 
L 154.892537 31.283602 
L 155.224811 32.659564 
L 155.557086 32.8991 
L 155.889361 39.340695 
L 156.55391 56.704011 
L 156.886185 50.406024 
L 157.21846 49.919498 
L 157.550734 57.286743 
L 157.883009 55.103086 
L 158.215284 51.804732 
L 158.547559 70.731725 
L 158.879833 48.180171 
L 159.212108 51.247432 
L 159.544383 46.444023 
L 159.876657 44.133946 
L 160.208932 45.162938 
L 160.541207 42.309157 
L 160.873482 40.512509 
L 161.205756 46.042956 
L 161.538031 45.375971 
L 161.870306 41.465108 
L 162.86713 48.631222 
L 163.199405 48.541297 
L 163.531679 45.553352 
L 163.863954 45.843919 
L 164.528503 40.957845 
L 164.860778 38.473028 
L 165.193053 39.717132 
L 165.525328 40.132239 
L 166.189877 35.621242 
L 166.522152 39.532214 
L 166.854426 42.012881 
L 167.186701 39.904154 
L 167.518976 42.847298 
L 167.85125 54.660594 
L 168.183525 55.925424 
L 168.5158 55.794151 
L 168.848075 45.783968 
L 169.180349 41.117438 
L 169.512624 39.922707 
L 169.844899 40.342866 
L 170.177173 36.414065 
L 170.509448 45.115267 
L 170.841723 46.96817 
L 171.173998 67.433415 
L 171.506272 63.727109 
L 171.838547 51.366436 
L 172.503096 40.998092 
L 172.835371 40.777142 
L 173.499921 36.610107 
L 173.832195 36.428179 
L 174.16447 35.85392 
L 174.496745 37.832747 
L 175.161294 39.703861 
L 175.493569 39.905794 
L 175.825844 39.559483 
L 176.490393 43.454084 
L 176.822668 44.410435 
L 177.154942 43.106472 
L 177.487217 45.168092 
L 177.819492 43.631519 
L 178.151767 39.832869 
L 178.816316 49.575836 
L 179.148591 51.253454 
L 179.480865 62.390703 
L 180.145415 66.586634 
L 180.47769 82.950598 
L 180.809964 63.395435 
L 181.142239 59.791186 
L 181.474514 60.658748 
L 181.806788 57.72962 
L 182.139063 47.111417 
L 182.471338 44.51176 
L 182.803613 43.216105 
L 183.800437 36.223663 
L 184.132711 31.99435 
L 184.464986 33.195336 
L 184.797261 32.326638 
L 185.129536 32.033704 
L 185.46181 32.497145 
L 185.794085 32.652802 
L 186.12636 32.038127 
L 186.458634 33.613736 
L 186.790909 38.354984 
L 186.790909 38.354984 
" clip-path="url(#p33cb4901f0)" style="fill: none; stroke: #808080; stroke-opacity: 0.5; stroke-width: 1.5; stroke-linecap: square"/>
   </g>
   <g id="line2d_12">
    <path d="M 34.609091 55.698621 
L 34.941366 76.953866 
L 35.27364 76.373812 
L 35.605915 120.303371 
L 35.93819 59.328206 
L 36.270464 59.094286 
L 36.602739 57.896888 
L 36.935014 58.084576 
L 37.599563 65.000212 
L 37.931838 85.623491 
L 38.264113 61.012973 
L 38.596387 62.589422 
L 38.928662 56.677545 
L 39.260937 57.299029 
L 39.593212 54.603394 
L 39.925486 50.836868 
L 40.590036 48.451759 
L 40.92231 46.308732 
L 41.254585 46.680297 
L 41.58686 45.945789 
L 41.919135 42.55248 
L 42.583684 41.717367 
L 42.915959 40.766512 
L 43.248233 43.786583 
L 43.580508 43.220527 
L 43.912783 45.920391 
L 44.245058 42.08779 
L 44.577332 45.586496 
L 44.909607 43.672758 
L 45.241882 47.34699 
L 45.574156 45.317337 
L 46.238706 63.437052 
L 46.570981 58.770862 
L 46.903255 81.223713 
L 47.23553 64.778059 
L 47.567805 67.312817 
L 47.900079 56.908183 
L 48.232354 59.481501 
L 48.564629 64.984281 
L 48.896904 62.477868 
L 49.229178 56.255742 
L 49.561453 59.625862 
L 50.226002 51.542398 
L 50.558277 52.784873 
L 50.890552 49.000694 
L 51.222827 49.902909 
L 51.555101 46.631296 
L 51.887376 44.693266 
L 52.219651 41.328752 
L 52.8842 37.519018 
L 53.216475 36.26832 
L 53.54875 37.05957 
L 53.881024 36.353948 
L 54.213299 38.330737 
L 54.545574 41.687911 
L 55.210123 64.482158 
L 55.874672 47.565319 
L 56.206947 45.670113 
L 56.539222 46.363629 
L 56.871497 49.332564 
L 57.203771 48.954421 
L 57.536046 44.875978 
L 57.868321 48.862886 
L 58.200595 51.163677 
L 58.53287 109.698717 
L 58.865145 55.557198 
L 59.19742 51.296195 
L 59.529694 43.315447 
L 60.526518 37.001542 
L 60.858793 37.755733 
L 61.855617 41.466519 
L 62.187892 43.914289 
L 62.520167 44.281234 
L 62.852441 47.069043 
L 63.184716 51.53203 
L 63.516991 51.745437 
L 63.849266 56.920576 
L 64.18154 71.058855 
L 64.513815 72.525034 
L 64.84609 83.736891 
L 65.178364 82.551721 
L 65.510639 66.390204 
L 65.842914 63.408242 
L 66.175189 67.160495 
L 66.507463 60.071961 
L 66.839738 59.79121 
L 67.172013 48.242258 
L 67.504287 50.805321 
L 67.836562 45.181785 
L 68.168837 42.310382 
L 68.501112 48.52202 
L 68.833386 59.776769 
L 69.165661 66.556412 
L 69.497936 60.715535 
L 69.83021 58.485158 
L 70.162485 54.562675 
L 70.49476 59.005828 
L 71.491584 51.063816 
L 71.823859 52.28568 
L 72.488408 46.428769 
L 72.820683 44.829752 
L 73.152958 47.433601 
L 73.485232 44.995904 
L 73.817507 43.819473 
L 74.149782 44.658265 
L 74.482056 41.741628 
L 74.814331 44.409218 
L 75.146606 45.796214 
L 75.478881 50.624167 
L 75.811155 62.56444 
L 76.14343 70.456791 
L 77.140254 49.499332 
L 77.804803 48.457925 
L 78.137078 45.753698 
L 78.469353 48.540822 
L 78.801628 52.436233 
L 79.133902 59.27506 
L 79.466177 60.908719 
L 79.798452 53.871601 
L 80.130726 44.409975 
L 80.463001 40.323462 
L 80.795276 34.729279 
L 81.127551 31.587971 
L 81.459825 30.601264 
L 81.7921 31.084949 
L 82.456649 32.846012 
L 83.121199 38.489405 
L 83.785748 43.337989 
L 84.118023 43.668967 
L 84.450298 44.544882 
L 84.782572 47.850782 
L 85.114847 45.65226 
L 85.447122 46.18867 
L 85.779397 46.047724 
L 86.111671 42.056454 
L 86.776221 46.421263 
L 87.108495 42.573428 
L 87.44077 43.216368 
L 87.773045 41.86243 
L 88.437594 37.614408 
L 89.102144 33.228461 
L 89.434418 28.008959 
L 89.766693 31.109703 
L 90.098968 36.878913 
L 90.431243 38.203115 
L 91.095792 42.395104 
L 91.760341 48.945095 
L 92.092616 47.884176 
L 92.424891 50.551055 
L 92.757166 49.189078 
L 93.08944 48.965062 
L 93.421715 52.215696 
L 93.75399 48.261931 
L 94.086264 46.884167 
L 94.418539 48.359116 
L 94.750814 48.593613 
L 95.083089 50.51163 
L 95.747638 46.102277 
L 96.079913 46.106074 
L 96.412187 45.291638 
L 96.744462 43.743709 
L 97.076737 43.210503 
L 97.409012 40.230513 
L 97.741286 39.232147 
L 98.073561 38.656923 
L 98.73811 35.152734 
L 99.070385 34.741229 
L 99.734934 36.353316 
L 100.067209 37.994784 
L 100.399484 35.239536 
L 100.731759 42.770524 
L 101.064033 39.509527 
L 101.396308 40.121308 
L 101.728583 39.196655 
L 102.060857 40.319554 
L 102.393132 44.112607 
L 102.725407 43.208055 
L 103.057682 43.49982 
L 103.389956 41.378643 
L 103.722231 41.619386 
L 104.054506 41.51991 
L 104.38678 43.899963 
L 104.719055 44.147174 
L 105.05133 43.899419 
L 105.383605 46.344307 
L 105.715879 46.834535 
L 106.048154 44.666005 
L 106.380429 45.317132 
L 106.712703 42.860391 
L 107.044978 44.116299 
L 107.377253 43.680521 
L 108.374077 39.057234 
L 109.038626 38.442948 
L 109.703176 35.182728 
L 110.367725 33.700141 
L 110.7 34.585337 
L 111.032275 34.798097 
L 111.364549 29.938831 
L 111.696824 37.179045 
L 112.029099 47.008038 
L 112.361374 47.486849 
L 112.693648 50.786849 
L 113.025923 55.875569 
L 113.358198 59.222382 
L 113.690472 60.252939 
L 114.022747 53.222665 
L 114.355022 54.919728 
L 114.687297 52.902574 
L 115.019571 49.159984 
L 115.351846 48.142646 
L 115.684121 54.477461 
L 116.016395 51.425854 
L 116.34867 52.925392 
L 116.680945 48.323184 
L 117.01322 49.227505 
L 117.345494 46.769563 
L 117.677769 46.078939 
L 118.010044 46.4724 
L 119.006868 38.203522 
L 119.339143 37.889101 
L 119.671417 38.102721 
L 120.003692 39.322067 
L 120.668241 37.626201 
L 121.000516 39.420124 
L 121.332791 39.825345 
L 121.665066 44.909203 
L 121.99734 54.316722 
L 122.329615 44.166938 
L 122.66189 65.740641 
L 122.994164 56.491277 
L 123.326439 66.442545 
L 123.658714 63.929596 
L 123.990988 64.802088 
L 124.323263 58.626811 
L 124.655538 76.445996 
L 124.987813 58.43804 
L 125.652362 47.860289 
L 125.984637 48.863164 
L 126.316911 45.467613 
L 126.649186 44.162179 
L 126.981461 43.890422 
L 127.313736 42.432585 
L 127.64601 45.236752 
L 127.978285 41.02004 
L 128.31056 40.647019 
L 128.642834 40.06952 
L 128.975109 39.853124 
L 129.307384 39.40226 
L 129.971933 37.21877 
L 130.304208 36.395953 
L 130.968757 35.719662 
L 131.301032 34.993091 
L 131.965582 36.357516 
L 132.297856 36.195895 
L 132.962406 38.736247 
L 133.29468 33.580129 
L 133.95923 60.288238 
L 134.291505 61.010606 
L 134.623779 55.534177 
L 134.956054 52.606373 
L 135.288329 51.374391 
L 135.620603 48.14604 
L 135.952878 47.586284 
L 136.285153 47.864876 
L 136.617428 47.375137 
L 136.949702 46.075296 
L 137.281977 43.354636 
L 137.614252 44.557532 
L 137.946526 43.034438 
L 138.278801 44.394963 
L 138.611076 43.896581 
L 138.943351 42.46821 
L 139.275625 44.449872 
L 139.6079 40.805337 
L 139.940175 42.66281 
L 140.272449 40.994978 
L 140.604724 41.553929 
L 141.269274 40.681598 
L 141.601548 39.625696 
L 141.933823 37.500152 
L 142.266098 37.52855 
L 142.598372 36.118627 
L 142.930647 35.484869 
L 143.262922 35.31841 
L 143.595197 34.801274 
L 143.927471 36.726517 
L 144.259746 34.56128 
L 144.592021 41.104336 
L 144.924295 43.433935 
L 145.25657 46.895729 
L 145.588845 56.283566 
L 145.921119 82.001551 
L 146.253394 53.007326 
L 146.585669 47.865386 
L 147.250218 42.210485 
L 147.582493 47.543235 
L 147.914768 50.152036 
L 148.247042 62.535011 
L 148.579317 55.642111 
L 148.911592 46.432299 
L 149.243867 45.666526 
L 149.576141 45.460081 
L 150.240691 42.816499 
L 150.90524 42.441747 
L 151.237515 38.405449 
L 151.56979 40.657117 
L 152.234339 36.7695 
L 152.566614 36.341451 
L 153.563438 31.780547 
L 153.895713 32.613407 
L 155.224811 27.847349 
L 155.557086 28.700939 
L 156.886185 39.500088 
L 157.21846 41.526509 
L 157.550734 41.468675 
L 157.883009 43.425581 
L 158.215284 43.847164 
L 158.547559 45.138966 
L 158.879833 45.461532 
L 159.212108 45.351233 
L 159.544383 46.281417 
L 159.876657 50.489146 
L 160.208932 48.899135 
L 160.541207 48.542353 
L 160.873482 54.946716 
L 161.205756 49.219676 
L 161.870306 59.68369 
L 162.20258 77.257242 
L 162.534855 86.959511 
L 162.86713 56.116919 
L 163.199405 60.356922 
L 163.531679 83.642586 
L 163.863954 65.806412 
L 164.196229 62.145426 
L 164.528503 48.711242 
L 164.860778 42.541187 
L 165.193053 39.939183 
L 165.525328 36.386926 
L 165.857602 35.820826 
L 166.189877 33.453369 
L 166.522152 33.316857 
L 166.854426 31.807961 
L 167.186701 31.49325 
L 167.85125 28.772218 
L 168.183525 28.101767 
L 168.5158 28.613773 
L 168.848075 27.867788 
L 169.180349 28.274413 
L 169.844899 31.619199 
L 170.177173 34.041155 
L 170.509448 37.461818 
L 170.841723 39.00711 
L 171.173998 44.209978 
L 171.506272 54.227264 
L 172.170822 59.662352 
L 172.503096 58.790624 
L 172.835371 55.372188 
L 173.167646 46.548997 
L 173.499921 45.936861 
L 174.16447 42.321347 
L 174.496745 41.308526 
L 174.829019 43.544674 
L 175.161294 43.344035 
L 175.493569 47.066505 
L 175.825844 52.167756 
L 176.158118 80.945845 
L 176.490393 56.834652 
L 176.822668 51.892477 
L 177.154942 48.9022 
L 177.487217 59.361488 
L 177.819492 51.556742 
L 178.151767 53.240589 
L 178.484041 51.644121 
L 178.816316 55.90572 
L 179.148591 57.401576 
L 179.480865 52.82905 
L 179.81314 52.518583 
L 180.145415 44.040906 
L 180.47769 50.804336 
L 180.809964 48.8996 
L 181.142239 45.599843 
L 181.474514 46.406641 
L 181.806788 43.692799 
L 182.139063 45.099117 
L 182.471338 41.938171 
L 182.803613 40.485061 
L 183.135887 41.075064 
L 183.468162 42.382107 
L 184.132711 36.087233 
L 184.464986 36.988531 
L 184.797261 35.696007 
L 185.46181 37.512145 
L 185.794085 36.955633 
L 186.12636 46.850796 
L 186.458634 51.201757 
L 186.790909 79.659904 
L 186.790909 79.659904 
" clip-path="url(#p33cb4901f0)" style="fill: none; stroke: #808080; stroke-opacity: 0.5; stroke-width: 1.5; stroke-linecap: square"/>
   </g>
   <g id="line2d_13">
    <path d="M 34.609091 55.698621 
L 34.941366 65.015291 
L 35.27364 66.971392 
L 35.605915 83.417901 
L 36.270464 58.99566 
L 36.602739 58.43973 
L 36.935014 55.52591 
L 37.267289 53.601989 
L 37.931838 70.561382 
L 38.264113 54.966086 
L 38.596387 57.829157 
L 38.928662 58.964421 
L 39.260937 71.563267 
L 39.593212 52.300214 
L 39.925486 49.180363 
L 40.257761 51.237741 
L 40.590036 52.121472 
L 40.92231 78.517508 
L 41.254585 47.200644 
L 41.58686 50.120837 
L 41.919135 42.838451 
L 42.251409 47.482634 
L 42.583684 48.799185 
L 42.915959 45.725113 
L 43.248233 64.719404 
L 43.580508 54.442126 
L 43.912783 69.680053 
L 44.245058 47.72751 
L 44.577332 47.099652 
L 44.909607 49.577826 
L 45.241882 48.162187 
L 45.574156 52.888237 
L 45.906431 52.421039 
L 46.238706 67.863043 
L 46.570981 90.945431 
L 46.903255 73.823209 
L 47.23553 65.141151 
L 47.567805 65.926014 
L 47.900079 86.105867 
L 48.232354 61.515977 
L 48.564629 65.526182 
L 48.896904 84.198109 
L 49.229178 66.564173 
L 50.226002 50.421991 
L 50.558277 49.268447 
L 50.890552 46.297804 
L 51.222827 45.489564 
L 51.887376 41.308405 
L 52.219651 39.905352 
L 52.8842 34.499426 
L 53.216475 33.845453 
L 53.54875 34.448723 
L 53.881024 39.188406 
L 54.213299 50.74593 
L 54.545574 42.041182 
L 54.877848 46.162252 
L 55.210123 48.280602 
L 55.874672 39.149664 
L 56.206947 38.005818 
L 56.539222 38.047705 
L 56.871497 40.4906 
L 57.203771 40.091882 
L 57.536046 38.928283 
L 58.200595 42.230837 
L 58.53287 72.187032 
L 58.865145 46.346141 
L 59.19742 49.506864 
L 59.529694 50.382045 
L 59.861969 51.725035 
L 60.526518 36.295402 
L 60.858793 34.907327 
L 61.855617 35.566088 
L 62.187892 37.338008 
L 62.520167 37.248488 
L 62.852441 39.081903 
L 63.184716 41.60934 
L 63.516991 42.533663 
L 63.849266 47.027185 
L 64.18154 55.167665 
L 64.513815 57.504281 
L 65.178364 70.006741 
L 65.842914 56.540618 
L 66.175189 56.908897 
L 66.839738 51.641587 
L 67.172013 45.284088 
L 67.504287 45.595281 
L 67.836562 45.630357 
L 68.168837 44.105592 
L 68.501112 47.615524 
L 68.833386 55.392599 
L 69.165661 57.627433 
L 69.497936 55.634197 
L 69.83021 55.719419 
L 70.162485 53.671108 
L 70.49476 58.081716 
L 70.827035 52.459127 
L 71.159309 55.774382 
L 71.491584 55.645594 
L 71.823859 60.890764 
L 72.156133 51.39109 
L 72.488408 47.838783 
L 72.820683 47.360619 
L 73.485232 42.323046 
L 73.817507 39.82065 
L 74.149782 40.739931 
L 74.482056 38.74112 
L 74.814331 40.609702 
L 75.146606 41.018445 
L 75.478881 44.621421 
L 75.811155 51.484049 
L 76.14343 62.593333 
L 76.807979 45.744034 
L 77.140254 41.349814 
L 77.472529 40.746859 
L 78.137078 36.93929 
L 78.469353 37.29409 
L 78.801628 39.444335 
L 79.133902 43.262347 
L 79.466177 43.868919 
L 80.130726 34.76224 
L 80.463001 32.695677 
L 81.127551 27.158366 
L 81.459825 26.512762 
L 81.7921 26.702475 
L 82.456649 28.580543 
L 82.788924 31.218118 
L 84.118023 37.940666 
L 84.450298 38.069292 
L 84.782572 41.07045 
L 85.114847 40.626376 
L 85.447122 40.497657 
L 85.779397 42.182784 
L 86.111671 42.05572 
L 86.776221 45.85227 
L 87.108495 40.611314 
L 87.44077 40.228995 
L 87.773045 40.037616 
L 88.10532 36.567834 
L 88.437594 35.508135 
L 88.769869 33.628453 
L 89.102144 32.749418 
L 89.434418 28.657494 
L 90.098968 36.031422 
L 90.431243 37.02647 
L 91.428067 41.965112 
L 91.760341 45.099059 
L 92.092616 44.925444 
L 92.424891 48.177975 
L 92.757166 45.967086 
L 93.08944 45.631762 
L 93.421715 47.954531 
L 93.75399 45.320542 
L 94.086264 45.615617 
L 94.750814 40.138762 
L 95.083089 46.428255 
L 95.415363 45.35711 
L 95.747638 43.596156 
L 96.079913 44.02932 
L 96.412187 43.139949 
L 96.744462 42.912791 
L 97.076737 43.017217 
L 97.409012 44.712259 
L 97.741286 44.917288 
L 98.073561 41.442798 
L 98.405836 40.405449 
L 99.070385 36.272916 
L 99.734934 34.313252 
L 100.067209 36.001447 
L 100.399484 33.41486 
L 100.731759 38.583718 
L 101.396308 38.401013 
L 102.060857 36.851738 
L 102.393132 39.524996 
L 102.725407 39.228143 
L 103.057682 39.809639 
L 103.389956 37.915884 
L 103.722231 38.844248 
L 104.054506 39.352698 
L 104.719055 42.648917 
L 105.05133 43.003511 
L 105.715879 53.693546 
L 106.048154 64.484597 
L 106.712703 48.916411 
L 107.044978 45.189151 
L 107.377253 47.203185 
L 108.041802 42.891617 
L 108.374077 43.125249 
L 108.706352 49.892431 
L 109.038626 51.653799 
L 109.370901 42.503906 
L 109.703176 41.132093 
L 110.035451 37.23101 
L 110.367725 35.678411 
L 110.7 35.296922 
L 111.032275 35.374281 
L 111.364549 32.168146 
L 111.696824 35.444943 
L 112.029099 41.685047 
L 112.361374 43.659107 
L 113.358198 52.858151 
L 113.690472 54.63901 
L 114.022747 52.715763 
L 114.355022 52.788831 
L 114.687297 53.210438 
L 115.019571 50.830462 
L 115.351846 49.492258 
L 115.684121 53.321766 
L 116.016395 54.165245 
L 116.34867 54.219326 
L 116.680945 52.583526 
L 117.01322 64.165027 
L 117.345494 49.929798 
L 117.677769 50.438119 
L 118.010044 54.350597 
L 118.342318 51.946389 
L 118.674593 61.032636 
L 119.006868 46.139049 
L 119.339143 45.824894 
L 119.671417 47.362075 
L 120.003692 46.315425 
L 120.335967 44.827538 
L 120.668241 41.653876 
L 121.000516 42.345495 
L 121.332791 40.792527 
L 121.665066 41.443827 
L 121.99734 44.508315 
L 122.329615 38.040696 
L 122.66189 48.070724 
L 122.994164 43.870308 
L 123.326439 48.982559 
L 123.658714 47.221622 
L 123.990988 47.74097 
L 124.323263 44.427858 
L 124.655538 53.686728 
L 124.987813 44.028339 
L 125.320087 42.876341 
L 125.652362 40.091623 
L 125.984637 42.411709 
L 126.316911 43.003831 
L 127.313736 55.9803 
L 127.978285 42.557522 
L 128.642834 40.533391 
L 128.975109 38.866306 
L 129.307384 38.847138 
L 129.971933 37.66595 
L 130.304208 37.558007 
L 130.968757 39.20331 
L 131.633307 39.97039 
L 131.965582 41.574736 
L 132.297856 45.414357 
L 132.630131 46.67323 
L 132.962406 53.639799 
L 133.29468 44.634718 
L 133.626955 47.875776 
L 133.95923 58.283769 
L 134.623779 54.144472 
L 134.956054 52.349241 
L 135.288329 49.328487 
L 135.620603 51.247757 
L 135.952878 48.628325 
L 136.285153 52.08499 
L 136.617428 48.500598 
L 136.949702 46.744956 
L 137.281977 43.224246 
L 137.614252 41.907095 
L 138.278801 41.105155 
L 138.611076 39.318473 
L 138.943351 39.648532 
L 139.275625 39.608644 
L 139.6079 37.35274 
L 139.940175 38.357644 
L 140.272449 36.642661 
L 140.604724 36.524557 
L 140.936999 36.02255 
L 141.269274 35.033289 
L 141.933823 34.09691 
L 142.266098 35.165245 
L 142.598372 35.657249 
L 142.930647 37.602738 
L 143.262922 46.705517 
L 143.927471 37.914685 
L 144.259746 35.408622 
L 144.592021 44.567713 
L 145.25657 42.061858 
L 145.588845 48.370067 
L 145.921119 59.813389 
L 146.253394 45.248511 
L 146.585669 41.884096 
L 146.917944 41.300467 
L 147.250218 39.455455 
L 147.582493 42.55605 
L 147.914768 44.480009 
L 148.247042 53.125204 
L 148.579317 49.72673 
L 148.911592 49.746489 
L 149.243867 55.677269 
L 149.576141 56.215343 
L 149.908416 52.727625 
L 150.240691 42.897891 
L 150.572965 41.555664 
L 151.237515 35.945262 
L 151.56979 36.212808 
L 151.902064 33.929513 
L 152.234339 33.429724 
L 153.563438 29.663835 
L 153.895713 29.987375 
L 154.227987 29.366989 
L 154.560262 29.111354 
L 154.892537 30.262392 
L 155.224811 30.253457 
L 155.557086 30.800019 
L 155.889361 35.445146 
L 156.55391 47.453841 
L 156.886185 44.953056 
L 157.21846 45.723003 
L 157.550734 49.377709 
L 157.883009 49.264333 
L 158.215284 47.825948 
L 158.547559 57.935346 
L 158.879833 46.820851 
L 159.212108 48.299333 
L 159.544383 46.36272 
L 159.876657 47.311546 
L 160.208932 47.031036 
L 160.541207 45.425755 
L 160.873482 47.729612 
L 161.205756 47.631316 
L 161.538031 50.027411 
L 161.870306 50.574399 
L 162.20258 60.491134 
L 162.534855 66.547812 
L 162.86713 52.37407 
L 163.199405 54.44911 
L 163.531679 64.597969 
L 163.863954 55.825166 
L 164.196229 52.91992 
L 164.528503 44.834543 
L 164.860778 40.507108 
L 165.193053 39.828157 
L 165.857602 36.732468 
L 166.189877 34.537305 
L 166.522152 36.424535 
L 166.854426 36.910421 
L 167.186701 35.698702 
L 167.518976 36.471607 
L 167.85125 41.716406 
L 168.5158 42.203962 
L 168.848075 36.825878 
L 169.180349 34.695926 
L 169.512624 34.835283 
L 169.844899 35.981032 
L 170.177173 35.22761 
L 170.509448 41.288542 
L 170.841723 42.98764 
L 171.173998 55.821696 
L 171.506272 58.977187 
L 171.838547 54.370904 
L 172.170822 52.906241 
L 172.503096 49.894358 
L 172.835371 48.074665 
L 173.167646 42.728802 
L 173.832195 40.264398 
L 174.16447 39.087634 
L 174.496745 39.570637 
L 174.829019 41.224847 
L 175.161294 41.523948 
L 175.825844 45.863619 
L 176.158118 61.312313 
L 176.490393 50.144368 
L 177.154942 46.004336 
L 177.487217 52.26479 
L 177.819492 47.59413 
L 178.151767 46.536729 
L 178.484041 48.421595 
L 178.816316 52.740778 
L 179.148591 54.327515 
L 179.480865 57.609877 
L 179.81314 58.512664 
L 180.145415 55.31377 
L 180.47769 66.877467 
L 180.809964 56.147517 
L 181.142239 52.695515 
L 181.474514 53.532694 
L 181.806788 50.711209 
L 182.139063 46.105267 
L 182.471338 43.224966 
L 183.135887 40.911847 
L 183.468162 40.458874 
L 184.132711 34.040791 
L 184.464986 35.091933 
L 184.797261 34.011322 
L 185.129536 34.411984 
L 185.46181 35.004645 
L 185.794085 34.804217 
L 186.12636 39.444462 
L 186.458634 42.407747 
L 186.790909 59.007444 
L 186.790909 59.007444 
" clip-path="url(#p33cb4901f0)" style="fill: none; stroke: #000000; stroke-width: 1.5; stroke-linecap: square"/>
   </g>
   <g id="line2d_14">
    <path d="M 34.609091 60.91644 
L 84.118023 37.742028 
L 84.118023 37.742028 
" clip-path="url(#p33cb4901f0)" style="fill: none; stroke: #ffff00; stroke-width: 1.5; stroke-linecap: square"/>
   </g>
   <g id="line2d_15">
    <path d="M 34.609091 55.698621 
L 186.790909 55.698621 
L 186.790909 55.698621 
" clip-path="url(#p33cb4901f0)" style="fill: none; stroke-dasharray: 5.55,2.4; stroke-dashoffset: 0; stroke: #7f7f7f; stroke-width: 1.5"/>
   </g>
   <g id="patch_3">
    <path d="M 27 128.16 
L 27 17.28 
" style="fill: none; stroke: #000000; stroke-width: 0.8; stroke-linejoin: miter; stroke-linecap: square"/>
   </g>
   <g id="patch_4">
    <path d="M 194.4 128.16 
L 194.4 17.28 
" style="fill: none; stroke: #000000; stroke-width: 0.8; stroke-linejoin: miter; stroke-linecap: square"/>
   </g>
   <g id="patch_5">
    <path d="M 27 128.16 
L 194.4 128.16 
" style="fill: none; stroke: #000000; stroke-width: 0.8; stroke-linejoin: miter; stroke-linecap: square"/>
   </g>
   <g id="patch_6">
    <path d="M 27 17.28 
L 194.4 17.28 
" style="fill: none; stroke: #000000; stroke-width: 0.8; stroke-linejoin: miter; stroke-linecap: square"/>
   </g>
  </g>
 </g>
 <defs>
  <clipPath id="p33cb4901f0">
   <rect x="27" y="17.28" width="167.4" height="110.88"/>
  </clipPath>
 </defs>
</svg>
