<?xml version="1.0" encoding="utf-8" standalone="no"?>
<!DOCTYPE svg PUBLIC "-//W3C//DTD SVG 1.1//EN"
  "http://www.w3.org/Graphics/SVG/1.1/DTD/svg11.dtd">
<svg xmlns:xlink="http://www.w3.org/1999/xlink" width="216pt" height="144pt" viewBox="0 0 216 144" xmlns="http://www.w3.org/2000/svg" version="1.1">
 <metadata>
  <rdf:RDF xmlns:dc="http://purl.org/dc/elements/1.1/" xmlns:cc="http://creativecommons.org/ns#" xmlns:rdf="http://www.w3.org/1999/02/22-rdf-syntax-ns#">
   <cc:Work>
    <dc:type rdf:resource="http://purl.org/dc/dcmitype/StillImage"/>
    <dc:date>2024-05-30T16:23:11.859150</dc:date>
    <dc:format>image/svg+xml</dc:format>
    <dc:creator>
     <cc:Agent>
      <dc:title>Matplotlib v3.8.3, https://matplotlib.org/</dc:title>
     </cc:Agent>
    </dc:creator>
   </cc:Work>
  </rdf:RDF>
 </metadata>
 <defs>
  <style type="text/css">*{stroke-linejoin: round; stroke-linecap: butt}</style>
 </defs>
 <g id="figure_1">
  <g id="patch_1">
   <path d="M 0 144 
L 216 144 
L 216 0 
L 0 0 
z
" style="fill: #ffffff"/>
  </g>
  <g id="axes_1">
   <g id="patch_2">
    <path d="M 27 128.16 
L 194.4 128.16 
L 194.4 17.28 
L 27 17.28 
z
" style="fill: #f2f2f2"/>
   </g>
   <g id="PolyCollection_1">
    <path d="M 34.996322 103.492186 
L 34.996322 116.970506 
L 35.383553 115.692573 
L 35.770784 114.455603 
L 36.158015 111.84745 
L 36.545246 110.02287 
L 36.932477 107.2476 
L 37.319709 106.016405 
L 37.70694 104.087575 
L 38.094171 103.164996 
L 38.481402 101.219572 
L 38.868633 100.007884 
L 39.255864 97.409205 
L 39.643095 97.245521 
L 40.030326 96.921937 
L 40.417557 96.124785 
L 40.804788 95.474051 
L 41.192019 93.92533 
L 41.579251 92.601595 
L 41.966482 93.852262 
L 42.353713 92.209789 
L 42.740944 92.804576 
L 43.128175 92.336603 
L 43.515406 94.52082 
L 43.902637 92.752239 
L 44.289868 94.42607 
L 44.677099 93.952173 
L 45.06433 95.987016 
L 45.451561 94.976156 
L 45.838793 95.423977 
L 46.226024 95.607368 
L 46.613255 94.893893 
L 47.000486 95.87426 
L 47.387717 102.758454 
L 47.774948 110.622798 
L 48.162179 115.426691 
L 48.54941 118.519821 
L 48.936641 119.587954 
L 49.323872 119.917659 
L 49.711103 120.164023 
L 50.098334 120.345103 
L 50.485566 120.018113 
L 50.872797 119.665648 
L 51.260028 119.748428 
L 51.647259 119.370153 
L 52.03449 119.129251 
L 52.421721 119.218453 
L 52.808952 119.186954 
L 53.196183 118.821622 
L 53.583414 118.978961 
L 53.970645 118.911095 
L 54.357876 118.90859 
L 54.745108 118.443082 
L 55.132339 117.937814 
L 55.51957 118.082485 
L 55.906801 117.468133 
L 56.294032 117.292082 
L 56.681263 117.208948 
L 57.068494 116.615224 
L 57.455725 115.941024 
L 57.842956 115.789844 
L 58.230187 114.814682 
L 58.617418 114.460496 
L 59.00465 114.307359 
L 59.391881 113.202558 
L 59.779112 111.051565 
L 60.166343 110.664636 
L 60.553574 109.357192 
L 60.940805 107.063536 
L 61.328036 106.664973 
L 61.715267 105.076634 
L 62.102498 103.895564 
L 62.489729 102.848643 
L 62.87696 100.652373 
L 63.264192 100.155175 
L 63.651423 98.847068 
L 64.038654 97.597776 
L 64.425885 98.964936 
L 64.813116 98.551307 
L 65.200347 98.117244 
L 65.587578 99.73358 
L 65.974809 101.457151 
L 66.36204 101.113548 
L 66.749271 102.451724 
L 67.136502 103.971215 
L 67.523734 105.003925 
L 67.910965 107.525475 
L 68.298196 107.962308 
L 68.685427 109.114099 
L 69.072658 112.201596 
L 69.459889 111.876461 
L 69.84712 113.364273 
L 70.234351 114.966175 
L 70.621582 116.36078 
L 71.008813 116.439361 
L 71.396044 118.85259 
L 71.783276 118.398209 
L 72.170507 116.652368 
L 72.557738 115.306631 
L 72.944969 116.083486 
L 73.3322 120.534064 
L 73.719431 121.005699 
L 74.106662 121.329819 
L 74.493893 120.572159 
L 74.881124 120.112702 
L 75.268355 120.370073 
L 75.655586 120.116789 
L 76.042817 119.882666 
L 76.430049 119.783938 
L 76.81728 119.684344 
L 77.204511 119.748012 
L 77.591742 119.98887 
L 77.978973 119.615477 
L 78.366204 119.613419 
L 78.753435 120.003704 
L 79.140666 119.09478 
L 79.527897 119.555699 
L 79.915128 119.455494 
L 80.302359 118.767172 
L 80.689591 118.806872 
L 81.076822 118.80663 
L 81.464053 118.843008 
L 81.851284 118.483626 
L 82.238515 118.041718 
L 82.625746 118.024101 
L 83.012977 117.177029 
L 83.400208 116.708257 
L 83.787439 116.301372 
L 84.17467 115.775074 
L 84.561901 115.817698 
L 84.949133 115.226566 
L 85.336364 113.371428 
L 85.723595 113.49319 
L 86.110826 111.570382 
L 86.498057 110.785669 
L 86.885288 108.480405 
L 87.272519 107.312043 
L 87.65975 106.008278 
L 88.046981 103.979661 
L 88.434212 103.350272 
L 88.821443 101.940511 
L 89.208675 101.123685 
L 89.595906 101.930967 
L 89.983137 101.181865 
L 90.370368 102.807941 
L 90.757599 103.968058 
L 91.14483 105.532483 
L 91.532061 107.03322 
L 91.919292 107.481936 
L 92.306523 108.795539 
L 92.693754 110.199735 
L 93.080985 110.760841 
L 93.468217 110.643972 
L 93.855448 112.641915 
L 94.242679 113.031206 
L 94.62991 114.080464 
L 95.017141 114.240909 
L 95.404372 114.136054 
L 95.791603 114.970007 
L 96.178834 115.265869 
L 96.566065 116.290663 
L 96.953296 116.272626 
L 97.340527 117.571449 
L 97.727759 116.953743 
L 98.11499 114.321424 
L 98.502221 117.330051 
L 98.889452 118.399675 
L 99.276683 118.704242 
L 99.663914 119.612535 
L 100.051145 119.381325 
L 100.438376 119.966931 
L 100.825607 123.12 
L 101.212838 120.658872 
L 101.600069 121.23121 
L 101.9873 121.434787 
L 102.374532 121.92424 
L 102.761763 121.942972 
L 103.148994 122.801897 
L 103.536225 122.722038 
L 103.923456 122.850022 
L 104.310687 122.983892 
L 104.697918 122.79722 
L 105.085149 122.58991 
L 105.47238 122.35038 
L 105.859611 121.741615 
L 106.246842 121.837053 
L 106.634074 121.039781 
L 107.021305 119.711618 
L 107.408536 118.50984 
L 107.795767 117.929502 
L 108.182998 117.03018 
L 108.570229 116.195178 
L 108.95746 115.690338 
L 109.344691 115.258982 
L 109.731922 115.082671 
L 110.119153 114.863439 
L 110.506384 114.614318 
L 110.893616 110.9778 
L 111.280847 112.575522 
L 111.668078 110.662356 
L 112.055309 109.559038 
L 112.44254 108.263196 
L 112.829771 105.553073 
L 113.217002 104.122932 
L 113.604233 102.780994 
L 113.991464 100.943176 
L 114.378695 100.965181 
L 114.765926 100.463898 
L 115.153158 99.226236 
L 115.540389 100.117535 
L 115.92762 102.029716 
L 116.314851 102.548856 
L 116.702082 103.85676 
L 117.089313 105.217927 
L 117.476544 107.267318 
L 117.863775 109.482676 
L 118.251006 110.403563 
L 118.638237 111.545324 
L 119.025468 112.588556 
L 119.4127 113.217116 
L 119.799931 114.16417 
L 120.187162 115.160722 
L 120.574393 115.636597 
L 120.961624 115.889435 
L 121.348855 118.441006 
L 121.736086 119.410238 
L 122.123317 119.834077 
L 122.510548 119.964976 
L 122.897779 119.474104 
L 123.28501 118.946665 
L 123.672241 123.02828 
L 124.059473 119.651249 
L 124.446704 119.961892 
L 124.833935 119.482343 
L 125.221166 119.370444 
L 125.608397 118.809263 
L 125.995628 118.840416 
L 126.382859 118.84448 
L 126.77009 119.006694 
L 127.157321 119.096852 
L 127.544552 118.883107 
L 127.931783 119.305413 
L 128.319015 118.727884 
L 128.706246 118.422123 
L 129.093477 118.543768 
L 129.480708 118.833731 
L 129.867939 118.316724 
L 130.25517 118.33772 
L 130.642401 118.270129 
L 131.029632 117.953187 
L 131.416863 117.280248 
L 131.804094 117.470837 
L 132.191325 117.2573 
L 132.578557 116.694623 
L 132.965788 116.899927 
L 133.353019 116.589063 
L 133.74025 116.629669 
L 134.127481 116.367512 
L 134.514712 116.296489 
L 134.901943 115.377092 
L 135.289174 115.834552 
L 135.676405 115.575821 
L 136.063636 115.838394 
L 136.450867 112.437705 
L 136.838099 112.402492 
L 137.22533 111.863921 
L 137.612561 110.591353 
L 137.999792 108.392285 
L 138.387023 107.790834 
L 138.774254 106.32996 
L 139.161485 105.330527 
L 139.548716 105.85031 
L 139.935947 103.688947 
L 140.323178 103.89285 
L 140.710409 102.85208 
L 141.097641 102.534968 
L 141.484872 103.424501 
L 141.872103 104.763446 
L 142.259334 105.263282 
L 142.646565 106.756809 
L 143.033796 107.607408 
L 143.421027 109.054465 
L 143.808258 110.211714 
L 144.195489 111.237642 
L 144.58272 112.866859 
L 144.969951 113.242917 
L 145.357183 113.445883 
L 145.744414 113.849886 
L 146.131645 114.759313 
L 146.518876 116.036708 
L 146.906107 116.580725 
L 147.293338 117.003763 
L 147.680569 117.463979 
L 148.0678 117.120742 
L 148.455031 117.227299 
L 148.842262 117.692305 
L 149.229493 117.736464 
L 149.616724 119.827018 
L 150.003956 118.732774 
L 150.391187 118.351433 
L 150.778418 118.249681 
L 151.165649 118.691632 
L 151.55288 118.538053 
L 151.940111 118.456544 
L 152.327342 117.957621 
L 152.714573 118.286765 
L 153.101804 118.183709 
L 153.489035 117.969535 
L 153.876266 117.910722 
L 154.263498 117.782871 
L 154.650729 117.677682 
L 155.03796 117.534594 
L 155.425191 117.389474 
L 155.812422 117.576516 
L 156.199653 116.782538 
L 156.586884 117.008589 
L 156.974115 116.731329 
L 157.361346 116.323202 
L 157.748577 116.145102 
L 158.135808 115.909484 
L 158.52304 115.202352 
L 158.910271 114.912483 
L 159.297502 116.217419 
L 159.684733 115.66681 
L 160.071964 113.871151 
L 160.459195 112.983512 
L 160.846426 112.536483 
L 161.233657 113.058622 
L 161.620888 117.536148 
L 162.008119 111.799434 
L 162.39535 110.912316 
L 162.782582 109.151306 
L 163.169813 107.541475 
L 163.557044 106.49597 
L 163.944275 105.76997 
L 164.331506 103.690383 
L 164.718737 103.451094 
L 165.105968 102.672264 
L 165.493199 101.917952 
L 165.88043 102.141247 
L 166.267661 101.455401 
L 166.654892 101.671896 
L 167.042124 102.446625 
L 167.429355 102.623927 
L 167.816586 102.99095 
L 168.203817 105.402955 
L 168.591048 106.297222 
L 168.978279 106.585978 
L 169.36551 107.958914 
L 169.752741 109.639787 
L 170.139972 110.518396 
L 170.527203 111.24678 
L 170.914434 112.836259 
L 171.301666 113.427572 
L 171.688897 114.163195 
L 172.076128 114.631242 
L 172.463359 115.080127 
L 172.85059 115.140517 
L 173.237821 115.476937 
L 173.625052 115.40174 
L 174.012283 115.38706 
L 174.399514 115.042547 
L 174.786745 113.876786 
L 175.173976 114.614713 
L 175.561207 115.091718 
L 175.948439 115.607254 
L 176.33567 117.010824 
L 176.722901 118.339905 
L 177.110132 116.900321 
L 177.497363 117.253106 
L 177.884594 117.519275 
L 178.271825 117.224699 
L 178.659056 117.543847 
L 179.046287 117.546981 
L 179.433518 117.520327 
L 179.820749 117.579948 
L 180.207981 117.559151 
L 180.595212 117.30726 
L 180.982443 120.297832 
L 181.369674 117.103521 
L 181.756905 117.046239 
L 182.144136 116.953665 
L 182.531367 116.787265 
L 182.918598 116.785552 
L 183.305829 116.964357 
L 183.69306 116.573028 
L 184.080291 116.910981 
L 184.467523 116.780234 
L 184.854754 116.738315 
L 185.241985 115.610955 
L 185.629216 115.478035 
L 186.016447 115.657621 
L 186.403678 115.9723 
L 186.790909 116.250841 
L 186.790909 85.441934 
L 186.790909 85.441934 
L 186.403678 85.678678 
L 186.016447 87.352219 
L 185.629216 90.609307 
L 185.241985 91.120368 
L 184.854754 94.086134 
L 184.467523 95.884862 
L 184.080291 97.210409 
L 183.69306 98.355152 
L 183.305829 101.07058 
L 182.918598 101.57308 
L 182.531367 101.432197 
L 182.144136 102.44793 
L 181.756905 103.506364 
L 181.369674 104.412925 
L 180.982443 99.215254 
L 180.595212 105.10626 
L 180.207981 105.894547 
L 179.820749 106.46254 
L 179.433518 106.376422 
L 179.046287 106.624395 
L 178.659056 106.671139 
L 178.271825 106.129995 
L 177.884594 105.983084 
L 177.497363 106.086625 
L 177.110132 104.369638 
L 176.722901 101.280188 
L 176.33567 101.28194 
L 175.948439 98.628574 
L 175.561207 94.512856 
L 175.173976 88.005812 
L 174.786745 80.953644 
L 174.399514 88.221006 
L 174.012283 86.904734 
L 173.625052 85.63839 
L 173.237821 84.737967 
L 172.85059 84.206631 
L 172.463359 82.15854 
L 172.076128 81.386906 
L 171.688897 78.258424 
L 171.301666 79.449176 
L 170.914434 76.974075 
L 170.527203 73.792562 
L 170.139972 73.197418 
L 169.752741 72.642439 
L 169.36551 68.085071 
L 168.978279 66.270227 
L 168.591048 67.258303 
L 168.203817 63.04224 
L 167.816586 59.548898 
L 167.429355 60.685965 
L 167.042124 62.781871 
L 166.654892 60.121374 
L 166.267661 59.102437 
L 165.88043 62.277824 
L 165.493199 61.76206 
L 165.105968 62.750429 
L 164.718737 66.71251 
L 164.331506 67.411845 
L 163.944275 69.944242 
L 163.557044 73.138698 
L 163.169813 76.540239 
L 162.782582 80.295209 
L 162.39535 80.270698 
L 162.008119 73.262561 
L 161.620888 79.45771 
L 161.233657 87.696873 
L 160.846426 91.305883 
L 160.459195 93.32017 
L 160.071964 92.921995 
L 159.684733 91.66575 
L 159.297502 94.485747 
L 158.910271 99.741811 
L 158.52304 101.066356 
L 158.135808 103.202673 
L 157.748577 103.961731 
L 157.361346 104.863647 
L 156.974115 106.110471 
L 156.586884 107.385369 
L 156.199653 107.835304 
L 155.812422 108.950963 
L 155.425191 108.788995 
L 155.03796 109.763552 
L 154.650729 109.901613 
L 154.263498 109.691255 
L 153.876266 110.117243 
L 153.489035 110.259359 
L 153.101804 109.820067 
L 152.714573 109.803928 
L 152.327342 109.237709 
L 151.940111 108.757793 
L 151.55288 106.476813 
L 151.165649 105.313293 
L 150.778418 104.022401 
L 150.391187 99.121818 
L 150.003956 92.326954 
L 149.616724 80.179196 
L 149.229493 76.116784 
L 148.842262 81.035571 
L 148.455031 81.744535 
L 148.0678 80.706935 
L 147.680569 80.258518 
L 147.293338 78.584302 
L 146.906107 79.945511 
L 146.518876 79.803362 
L 146.131645 77.74789 
L 145.744414 76.830197 
L 145.357183 76.099121 
L 144.969951 72.758533 
L 144.58272 72.909407 
L 144.195489 70.098196 
L 143.808258 71.75561 
L 143.421027 68.958665 
L 143.033796 68.468387 
L 142.646565 68.591592 
L 142.259334 65.530954 
L 141.872103 65.020582 
L 141.484872 66.018888 
L 141.097641 64.991522 
L 140.710409 63.695631 
L 140.323178 67.152603 
L 139.935947 66.964753 
L 139.548716 69.730221 
L 139.161485 70.015152 
L 138.774254 74.277285 
L 138.387023 78.123006 
L 137.999792 79.028497 
L 137.612561 84.503487 
L 137.22533 86.520534 
L 136.838099 86.745364 
L 136.450867 84.983052 
L 136.063636 96.13484 
L 135.676405 94.841395 
L 135.289174 96.432505 
L 134.901943 96.334128 
L 134.514712 97.889136 
L 134.127481 100.316486 
L 133.74025 101.490674 
L 133.353019 102.80999 
L 132.965788 105.01209 
L 132.578557 104.867235 
L 132.191325 106.714361 
L 131.804094 108.260292 
L 131.416863 108.248741 
L 131.029632 109.642815 
L 130.642401 110.163354 
L 130.25517 110.406684 
L 129.867939 110.037333 
L 129.480708 111.235573 
L 129.093477 111.421224 
L 128.706246 110.520062 
L 128.319015 110.713551 
L 127.931783 110.66382 
L 127.544552 110.453793 
L 127.157321 110.804199 
L 126.77009 109.680203 
L 126.382859 108.408334 
L 125.995628 107.759354 
L 125.608397 106.274517 
L 125.221166 101.243499 
L 124.833935 95.096537 
L 124.446704 83.41199 
L 124.059473 72.168759 
L 123.672241 52.736943 
L 123.28501 75.642302 
L 122.897779 75.954263 
L 122.510548 72.601962 
L 122.123317 73.389819 
L 121.736086 73.314291 
L 121.348855 73.542113 
L 120.961624 73.505897 
L 120.574393 73.498423 
L 120.187162 73.19332 
L 119.799931 70.333687 
L 119.4127 70.571656 
L 119.025468 70.54596 
L 118.638237 67.093302 
L 118.251006 66.566916 
L 117.863775 68.440074 
L 117.476544 64.583154 
L 117.089313 63.272358 
L 116.702082 65.026196 
L 116.314851 62.671824 
L 115.92762 65.16311 
L 115.540389 63.66702 
L 115.153158 63.263822 
L 114.765926 65.06094 
L 114.378695 67.535024 
L 113.991464 67.451044 
L 113.604233 70.606034 
L 113.217002 73.878462 
L 112.829771 77.443335 
L 112.44254 80.16361 
L 112.055309 83.957224 
L 111.668078 86.269576 
L 111.280847 89.059581 
L 110.893616 86.21771 
L 110.506384 97.36977 
L 110.119153 98.530151 
L 109.731922 98.5321 
L 109.344691 99.201848 
L 108.95746 101.425404 
L 108.570229 101.459895 
L 108.182998 102.651495 
L 107.795767 102.945443 
L 107.408536 103.066939 
L 107.021305 102.198914 
L 106.634074 102.311528 
L 106.246842 101.83967 
L 105.859611 102.935241 
L 105.47238 102.832706 
L 105.085149 102.689609 
L 104.697918 103.795163 
L 104.310687 103.522755 
L 103.923456 104.065703 
L 103.536225 105.342971 
L 103.148994 104.878461 
L 102.761763 106.096757 
L 102.374532 106.874686 
L 101.9873 107.871014 
L 101.600069 107.637912 
L 101.212838 108.606128 
L 100.825607 103.237975 
L 100.438376 108.083469 
L 100.051145 106.055137 
L 99.663914 102.324019 
L 99.276683 96.001051 
L 98.889452 88.401871 
L 98.502221 75.398775 
L 98.11499 69.750784 
L 97.727759 83.177836 
L 97.340527 80.113843 
L 96.953296 83.414441 
L 96.566065 78.754988 
L 96.178834 81.796783 
L 95.791603 80.385411 
L 95.404372 81.033455 
L 95.017141 80.781295 
L 94.62991 80.367006 
L 94.242679 79.349705 
L 93.855448 79.940315 
L 93.468217 75.557853 
L 93.080985 77.219669 
L 92.693754 75.860084 
L 92.306523 74.962763 
L 91.919292 70.834532 
L 91.532061 72.817423 
L 91.14483 69.019062 
L 90.757599 65.970036 
L 90.370368 65.531859 
L 89.983137 61.668901 
L 89.595906 65.721628 
L 89.208675 65.667393 
L 88.821443 66.35875 
L 88.434212 69.589828 
L 88.046981 69.312621 
L 87.65975 73.025824 
L 87.272519 75.12382 
L 86.885288 78.192782 
L 86.498057 82.415023 
L 86.110826 84.842048 
L 85.723595 88.214561 
L 85.336364 87.570057 
L 84.949133 95.20191 
L 84.561901 95.074357 
L 84.17467 93.992245 
L 83.787439 96.314614 
L 83.400208 97.750304 
L 83.012977 96.589532 
L 82.625746 99.198125 
L 82.238515 101.329594 
L 81.851284 101.498917 
L 81.464053 104.096958 
L 81.076822 105.176585 
L 80.689591 106.866684 
L 80.302359 106.907544 
L 79.915128 107.711686 
L 79.527897 108.645821 
L 79.140666 108.886455 
L 78.753435 109.190486 
L 78.366204 110.817539 
L 77.978973 110.381324 
L 77.591742 110.956631 
L 77.204511 111.021252 
L 76.81728 112.103833 
L 76.430049 111.139318 
L 76.042817 111.260491 
L 75.655586 109.803949 
L 75.268355 108.948627 
L 74.881124 106.360775 
L 74.493893 101.889924 
L 74.106662 96.75315 
L 73.719431 86.249653 
L 73.3322 68.241858 
L 72.944969 48.242652 
L 72.557738 27.350146 
L 72.170507 50.18251 
L 71.783276 40.1682 
L 71.396044 36.027909 
L 71.008813 41.435756 
L 70.621582 36.769022 
L 70.234351 38.826334 
L 69.84712 43.754147 
L 69.459889 41.472974 
L 69.072658 41.642072 
L 68.685427 41.57291 
L 68.298196 42.023321 
L 67.910965 43.619639 
L 67.523734 42.348623 
L 67.136502 41.576168 
L 66.749271 46.067215 
L 66.36204 43.679312 
L 65.974809 42.748709 
L 65.587578 46.793162 
L 65.200347 48.372858 
L 64.813116 48.433208 
L 64.425885 49.880859 
L 64.038654 48.94116 
L 63.651423 52.236298 
L 63.264192 54.755648 
L 62.87696 52.888876 
L 62.489729 61.223481 
L 62.102498 61.927872 
L 61.715267 63.832985 
L 61.328036 71.290992 
L 60.940805 74.272829 
L 60.553574 78.501485 
L 60.166343 82.740454 
L 59.779112 80.933086 
L 59.391881 86.754955 
L 59.00465 88.486753 
L 58.617418 89.483086 
L 58.230187 91.471021 
L 57.842956 95.417217 
L 57.455725 96.529333 
L 57.068494 99.029358 
L 56.681263 102.484789 
L 56.294032 103.491852 
L 55.906801 104.870146 
L 55.51957 107.412701 
L 55.132339 107.67571 
L 54.745108 108.124131 
L 54.357876 109.260327 
L 53.970645 109.576788 
L 53.583414 110.626377 
L 53.196183 110.810668 
L 52.808952 110.411558 
L 52.421721 111.030891 
L 52.03449 110.550024 
L 51.647259 109.637009 
L 51.260028 109.045384 
L 50.872797 108.022634 
L 50.485566 106.546853 
L 50.098334 104.833565 
L 49.711103 102.657594 
L 49.323872 99.220689 
L 48.936641 95.818526 
L 48.54941 89.458746 
L 48.162179 78.36311 
L 47.774948 65.191364 
L 47.387717 46.298131 
L 47.000486 22.32 
L 46.613255 29.425598 
L 46.226024 31.603182 
L 45.838793 30.965484 
L 45.451561 33.128321 
L 45.06433 34.814246 
L 44.677099 34.133538 
L 44.289868 37.097944 
L 43.902637 33.596628 
L 43.515406 38.634651 
L 43.128175 34.669908 
L 42.740944 39.880116 
L 42.353713 40.401876 
L 41.966482 44.848736 
L 41.579251 44.187837 
L 41.192019 47.954905 
L 40.804788 51.103218 
L 40.417557 51.614635 
L 40.030326 60.467769 
L 39.643095 60.554027 
L 39.255864 61.472286 
L 38.868633 68.40069 
L 38.481402 68.218858 
L 38.094171 75.325404 
L 37.70694 78.393195 
L 37.319709 81.375237 
L 36.932477 85.715539 
L 36.545246 89.81998 
L 36.158015 93.183892 
L 35.770784 98.702395 
L 35.383553 101.213865 
L 34.996322 103.492186 
z
" clip-path="url(#pc3e80183af)" style="fill: #808080; fill-opacity: 0.5"/>
   </g>
   <g id="matplotlib.axis_1">
    <g id="xtick_1">
     <g id="line2d_1">
      <defs>
       <path id="m5aa61c2066" d="M 0 0 
L 0 3.5 
" style="stroke: #000000; stroke-width: 0.8"/>
      </defs>
      <g>
       <use xlink:href="#m5aa61c2066" x="43.128175" y="128.16" style="stroke: #000000; stroke-width: 0.8"/>
      </g>
     </g>
     <g id="text_1">
      <!-- 20 -->
      <g transform="translate(36.765675 142.758438) scale(0.1 -0.1)">
       <defs>
        <path id="DejaVuSans-32" d="M 1228 531 
L 3431 531 
L 3431 0 
L 469 0 
L 469 531 
Q 828 903 1448 1529 
Q 2069 2156 2228 2338 
Q 2531 2678 2651 2914 
Q 2772 3150 2772 3378 
Q 2772 3750 2511 3984 
Q 2250 4219 1831 4219 
Q 1534 4219 1204 4116 
Q 875 4013 500 3803 
L 500 4441 
Q 881 4594 1212 4672 
Q 1544 4750 1819 4750 
Q 2544 4750 2975 4387 
Q 3406 4025 3406 3419 
Q 3406 3131 3298 2873 
Q 3191 2616 2906 2266 
Q 2828 2175 2409 1742 
Q 1991 1309 1228 531 
z
" transform="scale(0.015625)"/>
        <path id="DejaVuSans-30" d="M 2034 4250 
Q 1547 4250 1301 3770 
Q 1056 3291 1056 2328 
Q 1056 1369 1301 889 
Q 1547 409 2034 409 
Q 2525 409 2770 889 
Q 3016 1369 3016 2328 
Q 3016 3291 2770 3770 
Q 2525 4250 2034 4250 
z
M 2034 4750 
Q 2819 4750 3233 4129 
Q 3647 3509 3647 2328 
Q 3647 1150 3233 529 
Q 2819 -91 2034 -91 
Q 1250 -91 836 529 
Q 422 1150 422 2328 
Q 422 3509 836 4129 
Q 1250 4750 2034 4750 
z
" transform="scale(0.015625)"/>
       </defs>
       <use xlink:href="#DejaVuSans-32"/>
       <use xlink:href="#DejaVuSans-30" x="63.623047"/>
      </g>
     </g>
    </g>
    <g id="xtick_2">
     <g id="line2d_2">
      <g>
       <use xlink:href="#m5aa61c2066" x="89.595906" y="128.16" style="stroke: #000000; stroke-width: 0.8"/>
      </g>
     </g>
     <g id="text_2">
      <!-- 40 -->
      <g transform="translate(83.233406 142.758438) scale(0.1 -0.1)">
       <defs>
        <path id="DejaVuSans-34" d="M 2419 4116 
L 825 1625 
L 2419 1625 
L 2419 4116 
z
M 2253 4666 
L 3047 4666 
L 3047 1625 
L 3713 1625 
L 3713 1100 
L 3047 1100 
L 3047 0 
L 2419 0 
L 2419 1100 
L 313 1100 
L 313 1709 
L 2253 4666 
z
" transform="scale(0.015625)"/>
       </defs>
       <use xlink:href="#DejaVuSans-34"/>
       <use xlink:href="#DejaVuSans-30" x="63.623047"/>
      </g>
     </g>
    </g>
    <g id="xtick_3">
     <g id="line2d_3">
      <g>
       <use xlink:href="#m5aa61c2066" x="136.063636" y="128.16" style="stroke: #000000; stroke-width: 0.8"/>
      </g>
     </g>
     <g id="text_3">
      <!-- 60 -->
      <g transform="translate(129.701136 142.758438) scale(0.1 -0.1)">
       <defs>
        <path id="DejaVuSans-36" d="M 2113 2584 
Q 1688 2584 1439 2293 
Q 1191 2003 1191 1497 
Q 1191 994 1439 701 
Q 1688 409 2113 409 
Q 2538 409 2786 701 
Q 3034 994 3034 1497 
Q 3034 2003 2786 2293 
Q 2538 2584 2113 2584 
z
M 3366 4563 
L 3366 3988 
Q 3128 4100 2886 4159 
Q 2644 4219 2406 4219 
Q 1781 4219 1451 3797 
Q 1122 3375 1075 2522 
Q 1259 2794 1537 2939 
Q 1816 3084 2150 3084 
Q 2853 3084 3261 2657 
Q 3669 2231 3669 1497 
Q 3669 778 3244 343 
Q 2819 -91 2113 -91 
Q 1303 -91 875 529 
Q 447 1150 447 2328 
Q 447 3434 972 4092 
Q 1497 4750 2381 4750 
Q 2619 4750 2861 4703 
Q 3103 4656 3366 4563 
z
" transform="scale(0.015625)"/>
       </defs>
       <use xlink:href="#DejaVuSans-36"/>
       <use xlink:href="#DejaVuSans-30" x="63.623047"/>
      </g>
     </g>
    </g>
    <g id="xtick_4">
     <g id="line2d_4">
      <g>
       <use xlink:href="#m5aa61c2066" x="182.531367" y="128.16" style="stroke: #000000; stroke-width: 0.8"/>
      </g>
     </g>
     <g id="text_4">
      <!-- 80 -->
      <g transform="translate(176.168867 142.758438) scale(0.1 -0.1)">
       <defs>
        <path id="DejaVuSans-38" d="M 2034 2216 
Q 1584 2216 1326 1975 
Q 1069 1734 1069 1313 
Q 1069 891 1326 650 
Q 1584 409 2034 409 
Q 2484 409 2743 651 
Q 3003 894 3003 1313 
Q 3003 1734 2745 1975 
Q 2488 2216 2034 2216 
z
M 1403 2484 
Q 997 2584 770 2862 
Q 544 3141 544 3541 
Q 544 4100 942 4425 
Q 1341 4750 2034 4750 
Q 2731 4750 3128 4425 
Q 3525 4100 3525 3541 
Q 3525 3141 3298 2862 
Q 3072 2584 2669 2484 
Q 3125 2378 3379 2068 
Q 3634 1759 3634 1313 
Q 3634 634 3220 271 
Q 2806 -91 2034 -91 
Q 1263 -91 848 271 
Q 434 634 434 1313 
Q 434 1759 690 2068 
Q 947 2378 1403 2484 
z
M 1172 3481 
Q 1172 3119 1398 2916 
Q 1625 2713 2034 2713 
Q 2441 2713 2670 2916 
Q 2900 3119 2900 3481 
Q 2900 3844 2670 4047 
Q 2441 4250 2034 4250 
Q 1625 4250 1398 4047 
Q 1172 3844 1172 3481 
z
" transform="scale(0.015625)"/>
       </defs>
       <use xlink:href="#DejaVuSans-38"/>
       <use xlink:href="#DejaVuSans-30" x="63.623047"/>
      </g>
     </g>
    </g>
    <g id="text_5">
     <!-- Time (h) -->
     <g transform="translate(89.807031 156.436563) scale(0.1 -0.1)">
      <defs>
       <path id="DejaVuSans-54" d="M -19 4666 
L 3928 4666 
L 3928 4134 
L 2272 4134 
L 2272 0 
L 1638 0 
L 1638 4134 
L -19 4134 
L -19 4666 
z
" transform="scale(0.015625)"/>
       <path id="DejaVuSans-69" d="M 603 3500 
L 1178 3500 
L 1178 0 
L 603 0 
L 603 3500 
z
M 603 4863 
L 1178 4863 
L 1178 4134 
L 603 4134 
L 603 4863 
z
" transform="scale(0.015625)"/>
       <path id="DejaVuSans-6d" d="M 3328 2828 
Q 3544 3216 3844 3400 
Q 4144 3584 4550 3584 
Q 5097 3584 5394 3201 
Q 5691 2819 5691 2113 
L 5691 0 
L 5113 0 
L 5113 2094 
Q 5113 2597 4934 2840 
Q 4756 3084 4391 3084 
Q 3944 3084 3684 2787 
Q 3425 2491 3425 1978 
L 3425 0 
L 2847 0 
L 2847 2094 
Q 2847 2600 2669 2842 
Q 2491 3084 2119 3084 
Q 1678 3084 1418 2786 
Q 1159 2488 1159 1978 
L 1159 0 
L 581 0 
L 581 3500 
L 1159 3500 
L 1159 2956 
Q 1356 3278 1631 3431 
Q 1906 3584 2284 3584 
Q 2666 3584 2933 3390 
Q 3200 3197 3328 2828 
z
" transform="scale(0.015625)"/>
       <path id="DejaVuSans-65" d="M 3597 1894 
L 3597 1613 
L 953 1613 
Q 991 1019 1311 708 
Q 1631 397 2203 397 
Q 2534 397 2845 478 
Q 3156 559 3463 722 
L 3463 178 
Q 3153 47 2828 -22 
Q 2503 -91 2169 -91 
Q 1331 -91 842 396 
Q 353 884 353 1716 
Q 353 2575 817 3079 
Q 1281 3584 2069 3584 
Q 2775 3584 3186 3129 
Q 3597 2675 3597 1894 
z
M 3022 2063 
Q 3016 2534 2758 2815 
Q 2500 3097 2075 3097 
Q 1594 3097 1305 2825 
Q 1016 2553 972 2059 
L 3022 2063 
z
" transform="scale(0.015625)"/>
       <path id="DejaVuSans-20" transform="scale(0.015625)"/>
       <path id="DejaVuSans-28" d="M 1984 4856 
Q 1566 4138 1362 3434 
Q 1159 2731 1159 2009 
Q 1159 1288 1364 580 
Q 1569 -128 1984 -844 
L 1484 -844 
Q 1016 -109 783 600 
Q 550 1309 550 2009 
Q 550 2706 781 3412 
Q 1013 4119 1484 4856 
L 1984 4856 
z
" transform="scale(0.015625)"/>
       <path id="DejaVuSans-68" d="M 3513 2113 
L 3513 0 
L 2938 0 
L 2938 2094 
Q 2938 2591 2744 2837 
Q 2550 3084 2163 3084 
Q 1697 3084 1428 2787 
Q 1159 2491 1159 1978 
L 1159 0 
L 581 0 
L 581 4863 
L 1159 4863 
L 1159 2956 
Q 1366 3272 1645 3428 
Q 1925 3584 2291 3584 
Q 2894 3584 3203 3211 
Q 3513 2838 3513 2113 
z
" transform="scale(0.015625)"/>
       <path id="DejaVuSans-29" d="M 513 4856 
L 1013 4856 
Q 1481 4119 1714 3412 
Q 1947 2706 1947 2009 
Q 1947 1309 1714 600 
Q 1481 -109 1013 -844 
L 513 -844 
Q 928 -128 1133 580 
Q 1338 1288 1338 2009 
Q 1338 2731 1133 3434 
Q 928 4138 513 4856 
z
" transform="scale(0.015625)"/>
      </defs>
      <use xlink:href="#DejaVuSans-54"/>
      <use xlink:href="#DejaVuSans-69" x="57.958984"/>
      <use xlink:href="#DejaVuSans-6d" x="85.742188"/>
      <use xlink:href="#DejaVuSans-65" x="183.154297"/>
      <use xlink:href="#DejaVuSans-20" x="244.677734"/>
      <use xlink:href="#DejaVuSans-28" x="276.464844"/>
      <use xlink:href="#DejaVuSans-68" x="315.478516"/>
      <use xlink:href="#DejaVuSans-29" x="378.857422"/>
     </g>
    </g>
   </g>
   <g id="matplotlib.axis_2">
    <g id="ytick_1">
     <g id="line2d_5">
      <defs>
       <path id="m4ab9bf3b03" d="M 0 0 
L -3.5 0 
" style="stroke: #000000; stroke-width: 0.8"/>
      </defs>
      <g>
       <use xlink:href="#m4ab9bf3b03" x="27" y="124.324288" style="stroke: #000000; stroke-width: 0.8"/>
      </g>
     </g>
     <g id="text_6">
      <!-- 0 -->
      <g transform="translate(13.6375 128.123507) scale(0.1 -0.1)">
       <use xlink:href="#DejaVuSans-30"/>
      </g>
     </g>
    </g>
    <g id="ytick_2">
     <g id="line2d_6">
      <g>
       <use xlink:href="#m4ab9bf3b03" x="27" y="82.640976" style="stroke: #000000; stroke-width: 0.8"/>
      </g>
     </g>
     <g id="text_7">
      <!-- 5 -->
      <g transform="translate(13.6375 86.440195) scale(0.1 -0.1)">
       <defs>
        <path id="DejaVuSans-35" d="M 691 4666 
L 3169 4666 
L 3169 4134 
L 1269 4134 
L 1269 2991 
Q 1406 3038 1543 3061 
Q 1681 3084 1819 3084 
Q 2600 3084 3056 2656 
Q 3513 2228 3513 1497 
Q 3513 744 3044 326 
Q 2575 -91 1722 -91 
Q 1428 -91 1123 -41 
Q 819 9 494 109 
L 494 744 
Q 775 591 1075 516 
Q 1375 441 1709 441 
Q 2250 441 2565 725 
Q 2881 1009 2881 1497 
Q 2881 1984 2565 2268 
Q 2250 2553 1709 2553 
Q 1456 2553 1204 2497 
Q 953 2441 691 2322 
L 691 4666 
z
" transform="scale(0.015625)"/>
       </defs>
       <use xlink:href="#DejaVuSans-35"/>
      </g>
     </g>
    </g>
    <g id="ytick_3">
     <g id="line2d_7">
      <g>
       <use xlink:href="#m4ab9bf3b03" x="27" y="40.957664" style="stroke: #000000; stroke-width: 0.8"/>
      </g>
     </g>
     <g id="text_8">
      <!-- 10 -->
      <g transform="translate(7.275 44.756883) scale(0.1 -0.1)">
       <defs>
        <path id="DejaVuSans-31" d="M 794 531 
L 1825 531 
L 1825 4091 
L 703 3866 
L 703 4441 
L 1819 4666 
L 2450 4666 
L 2450 531 
L 3481 531 
L 3481 0 
L 794 0 
L 794 531 
z
" transform="scale(0.015625)"/>
       </defs>
       <use xlink:href="#DejaVuSans-31"/>
       <use xlink:href="#DejaVuSans-30" x="63.623047"/>
      </g>
     </g>
    </g>
    <g id="text_9">
     <!-- Mean p53 level (F.C.) -->
     <g transform="translate(1.195312 125.178594) rotate(-90) scale(0.1 -0.1)">
      <defs>
       <path id="DejaVuSans-4d" d="M 628 4666 
L 1569 4666 
L 2759 1491 
L 3956 4666 
L 4897 4666 
L 4897 0 
L 4281 0 
L 4281 4097 
L 3078 897 
L 2444 897 
L 1241 4097 
L 1241 0 
L 628 0 
L 628 4666 
z
" transform="scale(0.015625)"/>
       <path id="DejaVuSans-61" d="M 2194 1759 
Q 1497 1759 1228 1600 
Q 959 1441 959 1056 
Q 959 750 1161 570 
Q 1363 391 1709 391 
Q 2188 391 2477 730 
Q 2766 1069 2766 1631 
L 2766 1759 
L 2194 1759 
z
M 3341 1997 
L 3341 0 
L 2766 0 
L 2766 531 
Q 2569 213 2275 61 
Q 1981 -91 1556 -91 
Q 1019 -91 701 211 
Q 384 513 384 1019 
Q 384 1609 779 1909 
Q 1175 2209 1959 2209 
L 2766 2209 
L 2766 2266 
Q 2766 2663 2505 2880 
Q 2244 3097 1772 3097 
Q 1472 3097 1187 3025 
Q 903 2953 641 2809 
L 641 3341 
Q 956 3463 1253 3523 
Q 1550 3584 1831 3584 
Q 2591 3584 2966 3190 
Q 3341 2797 3341 1997 
z
" transform="scale(0.015625)"/>
       <path id="DejaVuSans-6e" d="M 3513 2113 
L 3513 0 
L 2938 0 
L 2938 2094 
Q 2938 2591 2744 2837 
Q 2550 3084 2163 3084 
Q 1697 3084 1428 2787 
Q 1159 2491 1159 1978 
L 1159 0 
L 581 0 
L 581 3500 
L 1159 3500 
L 1159 2956 
Q 1366 3272 1645 3428 
Q 1925 3584 2291 3584 
Q 2894 3584 3203 3211 
Q 3513 2838 3513 2113 
z
" transform="scale(0.015625)"/>
       <path id="DejaVuSans-70" d="M 1159 525 
L 1159 -1331 
L 581 -1331 
L 581 3500 
L 1159 3500 
L 1159 2969 
Q 1341 3281 1617 3432 
Q 1894 3584 2278 3584 
Q 2916 3584 3314 3078 
Q 3713 2572 3713 1747 
Q 3713 922 3314 415 
Q 2916 -91 2278 -91 
Q 1894 -91 1617 61 
Q 1341 213 1159 525 
z
M 3116 1747 
Q 3116 2381 2855 2742 
Q 2594 3103 2138 3103 
Q 1681 3103 1420 2742 
Q 1159 2381 1159 1747 
Q 1159 1113 1420 752 
Q 1681 391 2138 391 
Q 2594 391 2855 752 
Q 3116 1113 3116 1747 
z
" transform="scale(0.015625)"/>
       <path id="DejaVuSans-33" d="M 2597 2516 
Q 3050 2419 3304 2112 
Q 3559 1806 3559 1356 
Q 3559 666 3084 287 
Q 2609 -91 1734 -91 
Q 1441 -91 1130 -33 
Q 819 25 488 141 
L 488 750 
Q 750 597 1062 519 
Q 1375 441 1716 441 
Q 2309 441 2620 675 
Q 2931 909 2931 1356 
Q 2931 1769 2642 2001 
Q 2353 2234 1838 2234 
L 1294 2234 
L 1294 2753 
L 1863 2753 
Q 2328 2753 2575 2939 
Q 2822 3125 2822 3475 
Q 2822 3834 2567 4026 
Q 2313 4219 1838 4219 
Q 1578 4219 1281 4162 
Q 984 4106 628 3988 
L 628 4550 
Q 988 4650 1302 4700 
Q 1616 4750 1894 4750 
Q 2613 4750 3031 4423 
Q 3450 4097 3450 3541 
Q 3450 3153 3228 2886 
Q 3006 2619 2597 2516 
z
" transform="scale(0.015625)"/>
       <path id="DejaVuSans-6c" d="M 603 4863 
L 1178 4863 
L 1178 0 
L 603 0 
L 603 4863 
z
" transform="scale(0.015625)"/>
       <path id="DejaVuSans-76" d="M 191 3500 
L 800 3500 
L 1894 563 
L 2988 3500 
L 3597 3500 
L 2284 0 
L 1503 0 
L 191 3500 
z
" transform="scale(0.015625)"/>
       <path id="DejaVuSans-46" d="M 628 4666 
L 3309 4666 
L 3309 4134 
L 1259 4134 
L 1259 2759 
L 3109 2759 
L 3109 2228 
L 1259 2228 
L 1259 0 
L 628 0 
L 628 4666 
z
" transform="scale(0.015625)"/>
       <path id="DejaVuSans-2e" d="M 684 794 
L 1344 794 
L 1344 0 
L 684 0 
L 684 794 
z
" transform="scale(0.015625)"/>
       <path id="DejaVuSans-43" d="M 4122 4306 
L 4122 3641 
Q 3803 3938 3442 4084 
Q 3081 4231 2675 4231 
Q 1875 4231 1450 3742 
Q 1025 3253 1025 2328 
Q 1025 1406 1450 917 
Q 1875 428 2675 428 
Q 3081 428 3442 575 
Q 3803 722 4122 1019 
L 4122 359 
Q 3791 134 3420 21 
Q 3050 -91 2638 -91 
Q 1578 -91 968 557 
Q 359 1206 359 2328 
Q 359 3453 968 4101 
Q 1578 4750 2638 4750 
Q 3056 4750 3426 4639 
Q 3797 4528 4122 4306 
z
" transform="scale(0.015625)"/>
      </defs>
      <use xlink:href="#DejaVuSans-4d"/>
      <use xlink:href="#DejaVuSans-65" x="86.279297"/>
      <use xlink:href="#DejaVuSans-61" x="147.802734"/>
      <use xlink:href="#DejaVuSans-6e" x="209.082031"/>
      <use xlink:href="#DejaVuSans-20" x="272.460938"/>
      <use xlink:href="#DejaVuSans-70" x="304.248047"/>
      <use xlink:href="#DejaVuSans-35" x="367.724609"/>
      <use xlink:href="#DejaVuSans-33" x="431.347656"/>
      <use xlink:href="#DejaVuSans-20" x="494.970703"/>
      <use xlink:href="#DejaVuSans-6c" x="526.757812"/>
      <use xlink:href="#DejaVuSans-65" x="554.541016"/>
      <use xlink:href="#DejaVuSans-76" x="616.064453"/>
      <use xlink:href="#DejaVuSans-65" x="675.244141"/>
      <use xlink:href="#DejaVuSans-6c" x="736.767578"/>
      <use xlink:href="#DejaVuSans-20" x="764.550781"/>
      <use xlink:href="#DejaVuSans-28" x="796.337891"/>
      <use xlink:href="#DejaVuSans-46" x="835.351562"/>
      <use xlink:href="#DejaVuSans-2e" x="876.746094"/>
      <use xlink:href="#DejaVuSans-43" x="908.533203"/>
      <use xlink:href="#DejaVuSans-2e" x="978.357422"/>
      <use xlink:href="#DejaVuSans-29" x="1010.144531"/>
     </g>
    </g>
   </g>
   <g id="line2d_8">
    <path d="M 34.996322 110.231346 
L 35.770784 106.578999 
L 36.158015 102.515671 
L 36.545246 99.921425 
L 37.319709 93.695821 
L 38.094171 89.2452 
L 38.481402 84.719215 
L 38.868633 84.204287 
L 39.255864 79.440745 
L 39.643095 78.899774 
L 40.030326 78.694853 
L 40.417557 73.86971 
L 40.804788 73.288634 
L 41.579251 68.394716 
L 41.966482 69.350499 
L 42.353713 66.305833 
L 42.740944 66.342346 
L 43.128175 63.503256 
L 43.515406 66.577736 
L 43.902637 63.174433 
L 44.289868 65.762007 
L 44.677099 64.042855 
L 45.06433 65.400631 
L 45.451561 64.052239 
L 45.838793 63.194731 
L 46.226024 63.605275 
L 46.613255 62.159745 
L 47.000486 59.09713 
L 47.774948 87.907081 
L 48.54941 103.989284 
L 48.936641 107.70324 
L 49.711103 111.410808 
L 50.098334 112.589334 
L 50.872797 113.844141 
L 51.260028 114.396906 
L 51.647259 114.503581 
L 52.421721 115.124672 
L 52.808952 114.799256 
L 53.583414 114.802669 
L 53.970645 114.243942 
L 54.357876 114.084459 
L 54.745108 113.283607 
L 55.132339 112.806762 
L 55.51957 112.747593 
L 55.906801 111.16914 
L 56.681263 109.846869 
L 57.455725 106.235178 
L 57.842956 105.60353 
L 58.230187 103.142851 
L 58.617418 101.971791 
L 59.00465 101.397056 
L 59.391881 99.978756 
L 59.779112 95.992326 
L 60.166343 96.702545 
L 61.328036 88.977983 
L 61.715267 84.45481 
L 62.102498 82.911718 
L 62.489729 82.036062 
L 62.87696 76.770624 
L 63.264192 77.455411 
L 64.038654 73.269468 
L 64.425885 74.422897 
L 64.813116 73.492257 
L 65.200347 73.245051 
L 65.587578 73.263371 
L 65.974809 72.10293 
L 66.36204 72.39643 
L 66.749271 74.259469 
L 67.136502 72.773691 
L 67.523734 73.676274 
L 67.910965 75.572557 
L 68.298196 74.992815 
L 68.685427 75.343504 
L 69.072658 76.921834 
L 69.459889 76.674718 
L 69.84712 78.55921 
L 70.234351 76.896255 
L 70.621582 76.564901 
L 71.008813 78.937559 
L 71.396044 77.440249 
L 71.783276 79.283204 
L 72.170507 83.417439 
L 72.557738 71.328389 
L 73.719431 103.627676 
L 74.106662 109.041485 
L 74.881124 113.236739 
L 75.268355 114.65935 
L 75.655586 114.960369 
L 76.042817 115.571579 
L 76.430049 115.461628 
L 76.81728 115.894088 
L 77.204511 115.384632 
L 77.591742 115.472751 
L 77.978973 114.998401 
L 78.366204 115.215479 
L 79.140666 113.990617 
L 79.527897 114.10076 
L 79.915128 113.58359 
L 80.302359 112.837358 
L 80.689591 112.836778 
L 81.076822 111.991607 
L 81.464053 111.469983 
L 81.851284 109.991272 
L 82.238515 109.685656 
L 82.625746 108.611113 
L 83.012977 106.88328 
L 83.400208 107.22928 
L 83.787439 106.307993 
L 84.17467 104.88366 
L 84.561901 105.446027 
L 84.949133 105.214238 
L 85.336364 100.470742 
L 85.723595 100.853876 
L 86.110826 98.206215 
L 86.498057 96.600346 
L 86.885288 93.336594 
L 88.046981 86.646141 
L 88.434212 86.47005 
L 88.821443 84.149631 
L 89.208675 83.395539 
L 89.595906 83.826297 
L 89.983137 81.425383 
L 90.370368 84.1699 
L 90.757599 84.969047 
L 91.532061 89.925321 
L 91.919292 89.158234 
L 92.306523 91.879151 
L 93.080985 93.990255 
L 93.468217 93.100913 
L 93.855448 96.291115 
L 94.242679 96.190455 
L 94.62991 97.223735 
L 95.017141 97.511102 
L 95.791603 97.677709 
L 96.178834 98.531326 
L 96.566065 97.522825 
L 96.953296 99.843534 
L 97.340527 98.842646 
L 97.727759 100.065789 
L 98.11499 92.036104 
L 98.502221 96.364413 
L 98.889452 103.400773 
L 99.663914 110.968277 
L 100.438376 114.0252 
L 100.825607 113.178988 
L 101.212838 114.6325 
L 101.600069 114.434561 
L 101.9873 114.652901 
L 103.148994 113.840179 
L 103.536225 114.032504 
L 103.923456 113.457863 
L 104.310687 113.253323 
L 104.697918 113.296191 
L 105.085149 112.63976 
L 105.47238 112.591543 
L 105.859611 112.338428 
L 106.246842 111.838362 
L 106.634074 111.675654 
L 107.021305 110.955266 
L 107.408536 110.78839 
L 107.795767 110.437473 
L 108.182998 109.840838 
L 108.570229 108.827537 
L 108.95746 108.557871 
L 109.344691 107.230415 
L 109.731922 106.807385 
L 110.119153 106.696795 
L 110.506384 105.992044 
L 110.893616 98.597755 
L 111.280847 100.817551 
L 113.991464 84.19711 
L 114.378695 84.250102 
L 115.153158 81.245029 
L 115.540389 81.892278 
L 115.92762 83.596413 
L 116.314851 82.61034 
L 116.702082 84.441478 
L 117.089313 84.245143 
L 117.476544 85.925236 
L 117.863775 88.961375 
L 118.251006 88.485239 
L 118.638237 89.319313 
L 119.025468 91.567258 
L 119.799931 92.248928 
L 120.187162 94.177021 
L 120.574393 94.56751 
L 120.961624 94.697666 
L 121.348855 95.991559 
L 122.123317 96.611948 
L 122.510548 96.283469 
L 122.897779 97.714183 
L 123.28501 97.294483 
L 123.672241 87.882611 
L 124.446704 101.686941 
L 124.833935 107.28944 
L 125.608397 112.54189 
L 125.995628 113.299885 
L 126.382859 113.626407 
L 127.157321 114.950525 
L 127.544552 114.66845 
L 127.931783 114.984617 
L 128.706246 114.471093 
L 129.093477 114.982496 
L 129.480708 115.034652 
L 129.867939 114.177029 
L 130.25517 114.372202 
L 130.642401 114.216742 
L 131.029632 113.798001 
L 131.416863 112.764495 
L 131.804094 112.865565 
L 132.191325 111.985831 
L 132.578557 110.780929 
L 132.965788 110.956008 
L 133.353019 109.699527 
L 134.127481 108.341999 
L 134.901943 105.85561 
L 135.289174 106.133529 
L 135.676405 105.208608 
L 136.063636 105.986617 
L 136.450867 98.710379 
L 136.838099 99.573928 
L 137.22533 99.192227 
L 137.612561 97.54742 
L 137.999792 93.710391 
L 138.387023 92.95692 
L 139.161485 87.672839 
L 139.548716 87.790266 
L 139.935947 85.32685 
L 140.323178 85.522726 
L 140.710409 83.273856 
L 141.097641 83.763245 
L 141.484872 84.721695 
L 141.872103 84.892014 
L 142.259334 85.397118 
L 142.646565 87.674201 
L 143.033796 88.037897 
L 143.421027 89.006565 
L 143.808258 90.983662 
L 144.195489 90.667919 
L 144.58272 92.888133 
L 144.969951 93.000725 
L 145.357183 94.772502 
L 145.744414 95.340042 
L 146.131645 96.253602 
L 146.518876 97.920035 
L 146.906107 98.263118 
L 147.293338 97.794033 
L 147.680569 98.861248 
L 148.0678 98.913838 
L 148.455031 99.485917 
L 148.842262 99.363938 
L 149.229493 96.926624 
L 149.616724 100.003107 
L 150.003956 105.529864 
L 150.778418 111.136041 
L 151.165649 112.002463 
L 151.55288 112.507433 
L 151.940111 113.607169 
L 152.327342 113.597665 
L 152.714573 114.045347 
L 153.101804 114.001888 
L 153.489035 114.114447 
L 153.876266 114.013982 
L 154.263498 113.737063 
L 154.650729 113.789648 
L 155.03796 113.649073 
L 155.425191 113.089234 
L 155.812422 113.26374 
L 156.199653 112.308921 
L 156.586884 112.196979 
L 157.748577 110.053417 
L 158.135808 109.556078 
L 158.52304 108.134354 
L 158.910271 107.327147 
L 159.684733 103.66628 
L 160.459195 103.151841 
L 161.233657 100.377748 
L 161.620888 98.496929 
L 162.008119 92.530997 
L 162.39535 95.591507 
L 162.782582 94.723258 
L 163.557044 89.817334 
L 164.331506 85.551114 
L 164.718737 85.081802 
L 165.105968 82.711346 
L 165.493199 81.840006 
L 165.88043 82.209535 
L 166.267661 80.278919 
L 166.654892 80.896635 
L 167.042124 82.614248 
L 167.429355 81.654946 
L 167.816586 81.269924 
L 168.591048 86.777763 
L 168.978279 86.428102 
L 169.36551 88.021992 
L 169.752741 91.141113 
L 170.527203 92.519671 
L 170.914434 94.905167 
L 171.301666 96.438374 
L 171.688897 96.21081 
L 172.076128 98.009074 
L 172.463359 98.619334 
L 172.85059 99.673574 
L 173.625052 100.520065 
L 174.399514 101.631776 
L 174.786745 97.415215 
L 175.561207 104.802287 
L 176.33567 109.146382 
L 177.110132 110.63498 
L 177.497363 111.669865 
L 177.884594 111.75118 
L 178.271825 111.677347 
L 178.659056 112.107493 
L 179.046287 112.085688 
L 179.433518 111.948375 
L 179.820749 112.021244 
L 180.207981 111.726849 
L 180.595212 111.20676 
L 180.982443 109.756543 
L 181.369674 110.758223 
L 182.144136 109.700798 
L 182.531367 109.109731 
L 182.918598 109.179316 
L 183.305829 109.017468 
L 183.69306 107.46409 
L 184.080291 107.060695 
L 184.854754 105.412225 
L 185.241985 103.365661 
L 185.629216 103.043671 
L 186.016447 101.50492 
L 186.403678 100.825489 
L 186.790909 100.846387 
L 186.790909 100.846387 
" clip-path="url(#pc3e80183af)" style="fill: none; stroke: #4d4d4d; stroke-width: 1.5; stroke-linecap: square"/>
   </g>
   <g id="LineCollection_1">
    <path d="M 34.609091 123.12 
L 34.609091 22.32 
" clip-path="url(#pc3e80183af)" style="fill: none; stroke-dasharray: 5.55,2.4; stroke-dashoffset: 0; stroke: #7f7f7f; stroke-width: 1.5"/>
    <path d="M 60.166343 123.12 
L 60.166343 22.32 
" clip-path="url(#pc3e80183af)" style="fill: none; stroke-dasharray: 5.55,2.4; stroke-dashoffset: 0; stroke: #7f7f7f; stroke-width: 1.5"/>
    <path d="M 85.723595 123.12 
L 85.723595 22.32 
" clip-path="url(#pc3e80183af)" style="fill: none; stroke-dasharray: 5.55,2.4; stroke-dashoffset: 0; stroke: #7f7f7f; stroke-width: 1.5"/>
    <path d="M 111.280847 123.12 
L 111.280847 22.32 
" clip-path="url(#pc3e80183af)" style="fill: none; stroke-dasharray: 5.55,2.4; stroke-dashoffset: 0; stroke: #7f7f7f; stroke-width: 1.5"/>
    <path d="M 136.838099 123.12 
L 136.838099 22.32 
" clip-path="url(#pc3e80183af)" style="fill: none; stroke-dasharray: 5.55,2.4; stroke-dashoffset: 0; stroke: #7f7f7f; stroke-width: 1.5"/>
    <path d="M 162.39535 123.12 
L 162.39535 22.32 
" clip-path="url(#pc3e80183af)" style="fill: none; stroke-dasharray: 5.55,2.4; stroke-dashoffset: 0; stroke: #7f7f7f; stroke-width: 1.5"/>
   </g>
   <g id="patch_3">
    <path d="M 27 128.16 
L 27 17.28 
" style="fill: none; stroke: #000000; stroke-width: 0.8; stroke-linejoin: miter; stroke-linecap: square"/>
   </g>
   <g id="patch_4">
    <path d="M 194.4 128.16 
L 194.4 17.28 
" style="fill: none; stroke: #000000; stroke-width: 0.8; stroke-linejoin: miter; stroke-linecap: square"/>
   </g>
   <g id="patch_5">
    <path d="M 27 128.16 
L 194.4 128.16 
" style="fill: none; stroke: #000000; stroke-width: 0.8; stroke-linejoin: miter; stroke-linecap: square"/>
   </g>
   <g id="patch_6">
    <path d="M 27 17.28 
L 194.4 17.28 
" style="fill: none; stroke: #000000; stroke-width: 0.8; stroke-linejoin: miter; stroke-linecap: square"/>
   </g>
  </g>
 </g>
 <defs>
  <clipPath id="pc3e80183af">
   <rect x="27" y="17.28" width="167.4" height="110.88"/>
  </clipPath>
 </defs>
</svg>
