<?xml version="1.0" encoding="utf-8" standalone="no"?>
<!DOCTYPE svg PUBLIC "-//W3C//DTD SVG 1.1//EN"
  "http://www.w3.org/Graphics/SVG/1.1/DTD/svg11.dtd">
<svg xmlns:xlink="http://www.w3.org/1999/xlink" width="252pt" height="72pt" viewBox="0 0 252 72" xmlns="http://www.w3.org/2000/svg" version="1.1">
 <metadata>
  <rdf:RDF xmlns:dc="http://purl.org/dc/elements/1.1/" xmlns:cc="http://creativecommons.org/ns#" xmlns:rdf="http://www.w3.org/1999/02/22-rdf-syntax-ns#">
   <cc:Work>
    <dc:type rdf:resource="http://purl.org/dc/dcmitype/StillImage"/>
    <dc:date>2024-07-10T09:28:56.932924</dc:date>
    <dc:format>image/svg+xml</dc:format>
    <dc:creator>
     <cc:Agent>
      <dc:title>Matplotlib v3.8.3, https://matplotlib.org/</dc:title>
     </cc:Agent>
    </dc:creator>
   </cc:Work>
  </rdf:RDF>
 </metadata>
 <defs>
  <style type="text/css">*{stroke-linejoin: round; stroke-linecap: butt}</style>
 </defs>
 <g id="figure_1">
  <g id="patch_1">
   <path d="M 0 72 
L 252 72 
L 252 0 
L 0 0 
z
" style="fill: #ffffff"/>
  </g>
  <g id="axes_1">
   <g id="patch_2">
    <path d="M 31.5 64.08 
L 226.8 64.08 
L 226.8 8.64 
L 31.5 8.64 
z
" style="fill: #fffdee"/>
   </g>
   <g id="matplotlib.axis_1">
    <g id="xtick_1">
     <g id="line2d_1">
      <defs>
       <path id="mf960d3dd95" d="M 0 0 
L 0 3.5 
" style="stroke: #000000; stroke-width: 0.5"/>
      </defs>
      <g>
       <use xlink:href="#mf960d3dd95" x="40.377273" y="64.08" style="stroke: #000000; stroke-width: 0.5"/>
      </g>
     </g>
     <g id="text_1">
      <!-- 0 -->
      <g transform="translate(38.786648 74.879219) scale(0.05 -0.05)">
       <defs>
        <path id="DejaVuSans-30" d="M 2034 4250 
Q 1547 4250 1301 3770 
Q 1056 3291 1056 2328 
Q 1056 1369 1301 889 
Q 1547 409 2034 409 
Q 2525 409 2770 889 
Q 3016 1369 3016 2328 
Q 3016 3291 2770 3770 
Q 2525 4250 2034 4250 
z
M 2034 4750 
Q 2819 4750 3233 4129 
Q 3647 3509 3647 2328 
Q 3647 1150 3233 529 
Q 2819 -91 2034 -91 
Q 1250 -91 836 529 
Q 422 1150 422 2328 
Q 422 3509 836 4129 
Q 1250 4750 2034 4750 
z
" transform="scale(0.015625)"/>
       </defs>
       <use xlink:href="#DejaVuSans-30"/>
      </g>
     </g>
    </g>
    <g id="xtick_2">
     <g id="line2d_2">
      <g>
       <use xlink:href="#mf960d3dd95" x="79.831862" y="64.08" style="stroke: #000000; stroke-width: 0.5"/>
      </g>
     </g>
     <g id="text_2">
      <!-- 20 -->
      <g transform="translate(76.650612 74.879219) scale(0.05 -0.05)">
       <defs>
        <path id="DejaVuSans-32" d="M 1228 531 
L 3431 531 
L 3431 0 
L 469 0 
L 469 531 
Q 828 903 1448 1529 
Q 2069 2156 2228 2338 
Q 2531 2678 2651 2914 
Q 2772 3150 2772 3378 
Q 2772 3750 2511 3984 
Q 2250 4219 1831 4219 
Q 1534 4219 1204 4116 
Q 875 4013 500 3803 
L 500 4441 
Q 881 4594 1212 4672 
Q 1544 4750 1819 4750 
Q 2544 4750 2975 4387 
Q 3406 4025 3406 3419 
Q 3406 3131 3298 2873 
Q 3191 2616 2906 2266 
Q 2828 2175 2409 1742 
Q 1991 1309 1228 531 
z
" transform="scale(0.015625)"/>
       </defs>
       <use xlink:href="#DejaVuSans-32"/>
       <use xlink:href="#DejaVuSans-30" x="63.623047"/>
      </g>
     </g>
    </g>
    <g id="xtick_3">
     <g id="line2d_3">
      <g>
       <use xlink:href="#mf960d3dd95" x="119.286451" y="64.08" style="stroke: #000000; stroke-width: 0.5"/>
      </g>
     </g>
     <g id="text_3">
      <!-- 40 -->
      <g transform="translate(116.105201 74.879219) scale(0.05 -0.05)">
       <defs>
        <path id="DejaVuSans-34" d="M 2419 4116 
L 825 1625 
L 2419 1625 
L 2419 4116 
z
M 2253 4666 
L 3047 4666 
L 3047 1625 
L 3713 1625 
L 3713 1100 
L 3047 1100 
L 3047 0 
L 2419 0 
L 2419 1100 
L 313 1100 
L 313 1709 
L 2253 4666 
z
" transform="scale(0.015625)"/>
       </defs>
       <use xlink:href="#DejaVuSans-34"/>
       <use xlink:href="#DejaVuSans-30" x="63.623047"/>
      </g>
     </g>
    </g>
    <g id="xtick_4">
     <g id="line2d_4">
      <g>
       <use xlink:href="#mf960d3dd95" x="158.741041" y="64.08" style="stroke: #000000; stroke-width: 0.5"/>
      </g>
     </g>
     <g id="text_4">
      <!-- 60 -->
      <g transform="translate(155.559791 74.879219) scale(0.05 -0.05)">
       <defs>
        <path id="DejaVuSans-36" d="M 2113 2584 
Q 1688 2584 1439 2293 
Q 1191 2003 1191 1497 
Q 1191 994 1439 701 
Q 1688 409 2113 409 
Q 2538 409 2786 701 
Q 3034 994 3034 1497 
Q 3034 2003 2786 2293 
Q 2538 2584 2113 2584 
z
M 3366 4563 
L 3366 3988 
Q 3128 4100 2886 4159 
Q 2644 4219 2406 4219 
Q 1781 4219 1451 3797 
Q 1122 3375 1075 2522 
Q 1259 2794 1537 2939 
Q 1816 3084 2150 3084 
Q 2853 3084 3261 2657 
Q 3669 2231 3669 1497 
Q 3669 778 3244 343 
Q 2819 -91 2113 -91 
Q 1303 -91 875 529 
Q 447 1150 447 2328 
Q 447 3434 972 4092 
Q 1497 4750 2381 4750 
Q 2619 4750 2861 4703 
Q 3103 4656 3366 4563 
z
" transform="scale(0.015625)"/>
       </defs>
       <use xlink:href="#DejaVuSans-36"/>
       <use xlink:href="#DejaVuSans-30" x="63.623047"/>
      </g>
     </g>
    </g>
    <g id="xtick_5">
     <g id="line2d_5">
      <g>
       <use xlink:href="#mf960d3dd95" x="198.19563" y="64.08" style="stroke: #000000; stroke-width: 0.5"/>
      </g>
     </g>
     <g id="text_5">
      <!-- 80 -->
      <g transform="translate(195.01438 74.879219) scale(0.05 -0.05)">
       <defs>
        <path id="DejaVuSans-38" d="M 2034 2216 
Q 1584 2216 1326 1975 
Q 1069 1734 1069 1313 
Q 1069 891 1326 650 
Q 1584 409 2034 409 
Q 2484 409 2743 651 
Q 3003 894 3003 1313 
Q 3003 1734 2745 1975 
Q 2488 2216 2034 2216 
z
M 1403 2484 
Q 997 2584 770 2862 
Q 544 3141 544 3541 
Q 544 4100 942 4425 
Q 1341 4750 2034 4750 
Q 2731 4750 3128 4425 
Q 3525 4100 3525 3541 
Q 3525 3141 3298 2862 
Q 3072 2584 2669 2484 
Q 3125 2378 3379 2068 
Q 3634 1759 3634 1313 
Q 3634 634 3220 271 
Q 2806 -91 2034 -91 
Q 1263 -91 848 271 
Q 434 634 434 1313 
Q 434 1759 690 2068 
Q 947 2378 1403 2484 
z
M 1172 3481 
Q 1172 3119 1398 2916 
Q 1625 2713 2034 2713 
Q 2441 2713 2670 2916 
Q 2900 3119 2900 3481 
Q 2900 3844 2670 4047 
Q 2441 4250 2034 4250 
Q 1625 4250 1398 4047 
Q 1172 3844 1172 3481 
z
" transform="scale(0.015625)"/>
       </defs>
       <use xlink:href="#DejaVuSans-38"/>
       <use xlink:href="#DejaVuSans-30" x="63.623047"/>
      </g>
     </g>
    </g>
    <g id="text_6">
     <!-- Time (h) -->
     <g transform="translate(113.480273 85.617891) scale(0.075 -0.075)">
      <defs>
       <path id="DejaVuSans-54" d="M -19 4666 
L 3928 4666 
L 3928 4134 
L 2272 4134 
L 2272 0 
L 1638 0 
L 1638 4134 
L -19 4134 
L -19 4666 
z
" transform="scale(0.015625)"/>
       <path id="DejaVuSans-69" d="M 603 3500 
L 1178 3500 
L 1178 0 
L 603 0 
L 603 3500 
z
M 603 4863 
L 1178 4863 
L 1178 4134 
L 603 4134 
L 603 4863 
z
" transform="scale(0.015625)"/>
       <path id="DejaVuSans-6d" d="M 3328 2828 
Q 3544 3216 3844 3400 
Q 4144 3584 4550 3584 
Q 5097 3584 5394 3201 
Q 5691 2819 5691 2113 
L 5691 0 
L 5113 0 
L 5113 2094 
Q 5113 2597 4934 2840 
Q 4756 3084 4391 3084 
Q 3944 3084 3684 2787 
Q 3425 2491 3425 1978 
L 3425 0 
L 2847 0 
L 2847 2094 
Q 2847 2600 2669 2842 
Q 2491 3084 2119 3084 
Q 1678 3084 1418 2786 
Q 1159 2488 1159 1978 
L 1159 0 
L 581 0 
L 581 3500 
L 1159 3500 
L 1159 2956 
Q 1356 3278 1631 3431 
Q 1906 3584 2284 3584 
Q 2666 3584 2933 3390 
Q 3200 3197 3328 2828 
z
" transform="scale(0.015625)"/>
       <path id="DejaVuSans-65" d="M 3597 1894 
L 3597 1613 
L 953 1613 
Q 991 1019 1311 708 
Q 1631 397 2203 397 
Q 2534 397 2845 478 
Q 3156 559 3463 722 
L 3463 178 
Q 3153 47 2828 -22 
Q 2503 -91 2169 -91 
Q 1331 -91 842 396 
Q 353 884 353 1716 
Q 353 2575 817 3079 
Q 1281 3584 2069 3584 
Q 2775 3584 3186 3129 
Q 3597 2675 3597 1894 
z
M 3022 2063 
Q 3016 2534 2758 2815 
Q 2500 3097 2075 3097 
Q 1594 3097 1305 2825 
Q 1016 2553 972 2059 
L 3022 2063 
z
" transform="scale(0.015625)"/>
       <path id="DejaVuSans-20" transform="scale(0.015625)"/>
       <path id="DejaVuSans-28" d="M 1984 4856 
Q 1566 4138 1362 3434 
Q 1159 2731 1159 2009 
Q 1159 1288 1364 580 
Q 1569 -128 1984 -844 
L 1484 -844 
Q 1016 -109 783 600 
Q 550 1309 550 2009 
Q 550 2706 781 3412 
Q 1013 4119 1484 4856 
L 1984 4856 
z
" transform="scale(0.015625)"/>
       <path id="DejaVuSans-68" d="M 3513 2113 
L 3513 0 
L 2938 0 
L 2938 2094 
Q 2938 2591 2744 2837 
Q 2550 3084 2163 3084 
Q 1697 3084 1428 2787 
Q 1159 2491 1159 1978 
L 1159 0 
L 581 0 
L 581 4863 
L 1159 4863 
L 1159 2956 
Q 1366 3272 1645 3428 
Q 1925 3584 2291 3584 
Q 2894 3584 3203 3211 
Q 3513 2838 3513 2113 
z
" transform="scale(0.015625)"/>
       <path id="DejaVuSans-29" d="M 513 4856 
L 1013 4856 
Q 1481 4119 1714 3412 
Q 1947 2706 1947 2009 
Q 1947 1309 1714 600 
Q 1481 -109 1013 -844 
L 513 -844 
Q 928 -128 1133 580 
Q 1338 1288 1338 2009 
Q 1338 2731 1133 3434 
Q 928 4138 513 4856 
z
" transform="scale(0.015625)"/>
      </defs>
      <use xlink:href="#DejaVuSans-54"/>
      <use xlink:href="#DejaVuSans-69" x="57.958984"/>
      <use xlink:href="#DejaVuSans-6d" x="85.742188"/>
      <use xlink:href="#DejaVuSans-65" x="183.154297"/>
      <use xlink:href="#DejaVuSans-20" x="244.677734"/>
      <use xlink:href="#DejaVuSans-28" x="276.464844"/>
      <use xlink:href="#DejaVuSans-68" x="315.478516"/>
      <use xlink:href="#DejaVuSans-29" x="378.857422"/>
     </g>
    </g>
   </g>
   <g id="matplotlib.axis_2">
    <g id="ytick_1">
     <g id="line2d_6">
      <defs>
       <path id="mcf3efce57c" d="M 0 0 
L -3.5 0 
" style="stroke: #000000; stroke-width: 0.5"/>
      </defs>
      <g>
       <use xlink:href="#mcf3efce57c" x="31.5" y="61.56" style="stroke: #000000; stroke-width: 0.5"/>
      </g>
     </g>
     <g id="text_7">
      <!-- 0 -->
      <g transform="translate(21.31875 63.459609) scale(0.05 -0.05)">
       <use xlink:href="#DejaVuSans-30"/>
      </g>
     </g>
    </g>
    <g id="ytick_2">
     <g id="line2d_7">
      <g>
       <use xlink:href="#mcf3efce57c" x="31.5" y="42.87102" style="stroke: #000000; stroke-width: 0.5"/>
      </g>
     </g>
     <g id="text_8">
      <!-- 2 -->
      <g transform="translate(21.31875 44.770629) scale(0.05 -0.05)">
       <use xlink:href="#DejaVuSans-32"/>
      </g>
     </g>
    </g>
    <g id="ytick_3">
     <g id="line2d_8">
      <g>
       <use xlink:href="#mcf3efce57c" x="31.5" y="24.18204" style="stroke: #000000; stroke-width: 0.5"/>
      </g>
     </g>
     <g id="text_9">
      <!-- 4 -->
      <g transform="translate(21.31875 26.081649) scale(0.05 -0.05)">
       <use xlink:href="#DejaVuSans-34"/>
      </g>
     </g>
    </g>
    <g id="text_10">
     <!-- p53 (a.u.) -->
     <g transform="translate(15.758984 54.688711) rotate(-90) scale(0.075 -0.075)">
      <defs>
       <path id="DejaVuSans-70" d="M 1159 525 
L 1159 -1331 
L 581 -1331 
L 581 3500 
L 1159 3500 
L 1159 2969 
Q 1341 3281 1617 3432 
Q 1894 3584 2278 3584 
Q 2916 3584 3314 3078 
Q 3713 2572 3713 1747 
Q 3713 922 3314 415 
Q 2916 -91 2278 -91 
Q 1894 -91 1617 61 
Q 1341 213 1159 525 
z
M 3116 1747 
Q 3116 2381 2855 2742 
Q 2594 3103 2138 3103 
Q 1681 3103 1420 2742 
Q 1159 2381 1159 1747 
Q 1159 1113 1420 752 
Q 1681 391 2138 391 
Q 2594 391 2855 752 
Q 3116 1113 3116 1747 
z
" transform="scale(0.015625)"/>
       <path id="DejaVuSans-35" d="M 691 4666 
L 3169 4666 
L 3169 4134 
L 1269 4134 
L 1269 2991 
Q 1406 3038 1543 3061 
Q 1681 3084 1819 3084 
Q 2600 3084 3056 2656 
Q 3513 2228 3513 1497 
Q 3513 744 3044 326 
Q 2575 -91 1722 -91 
Q 1428 -91 1123 -41 
Q 819 9 494 109 
L 494 744 
Q 775 591 1075 516 
Q 1375 441 1709 441 
Q 2250 441 2565 725 
Q 2881 1009 2881 1497 
Q 2881 1984 2565 2268 
Q 2250 2553 1709 2553 
Q 1456 2553 1204 2497 
Q 953 2441 691 2322 
L 691 4666 
z
" transform="scale(0.015625)"/>
       <path id="DejaVuSans-33" d="M 2597 2516 
Q 3050 2419 3304 2112 
Q 3559 1806 3559 1356 
Q 3559 666 3084 287 
Q 2609 -91 1734 -91 
Q 1441 -91 1130 -33 
Q 819 25 488 141 
L 488 750 
Q 750 597 1062 519 
Q 1375 441 1716 441 
Q 2309 441 2620 675 
Q 2931 909 2931 1356 
Q 2931 1769 2642 2001 
Q 2353 2234 1838 2234 
L 1294 2234 
L 1294 2753 
L 1863 2753 
Q 2328 2753 2575 2939 
Q 2822 3125 2822 3475 
Q 2822 3834 2567 4026 
Q 2313 4219 1838 4219 
Q 1578 4219 1281 4162 
Q 984 4106 628 3988 
L 628 4550 
Q 988 4650 1302 4700 
Q 1616 4750 1894 4750 
Q 2613 4750 3031 4423 
Q 3450 4097 3450 3541 
Q 3450 3153 3228 2886 
Q 3006 2619 2597 2516 
z
" transform="scale(0.015625)"/>
       <path id="DejaVuSans-61" d="M 2194 1759 
Q 1497 1759 1228 1600 
Q 959 1441 959 1056 
Q 959 750 1161 570 
Q 1363 391 1709 391 
Q 2188 391 2477 730 
Q 2766 1069 2766 1631 
L 2766 1759 
L 2194 1759 
z
M 3341 1997 
L 3341 0 
L 2766 0 
L 2766 531 
Q 2569 213 2275 61 
Q 1981 -91 1556 -91 
Q 1019 -91 701 211 
Q 384 513 384 1019 
Q 384 1609 779 1909 
Q 1175 2209 1959 2209 
L 2766 2209 
L 2766 2266 
Q 2766 2663 2505 2880 
Q 2244 3097 1772 3097 
Q 1472 3097 1187 3025 
Q 903 2953 641 2809 
L 641 3341 
Q 956 3463 1253 3523 
Q 1550 3584 1831 3584 
Q 2591 3584 2966 3190 
Q 3341 2797 3341 1997 
z
" transform="scale(0.015625)"/>
       <path id="DejaVuSans-2e" d="M 684 794 
L 1344 794 
L 1344 0 
L 684 0 
L 684 794 
z
" transform="scale(0.015625)"/>
       <path id="DejaVuSans-75" d="M 544 1381 
L 544 3500 
L 1119 3500 
L 1119 1403 
Q 1119 906 1312 657 
Q 1506 409 1894 409 
Q 2359 409 2629 706 
Q 2900 1003 2900 1516 
L 2900 3500 
L 3475 3500 
L 3475 0 
L 2900 0 
L 2900 538 
Q 2691 219 2414 64 
Q 2138 -91 1772 -91 
Q 1169 -91 856 284 
Q 544 659 544 1381 
z
M 1991 3584 
L 1991 3584 
z
" transform="scale(0.015625)"/>
      </defs>
      <use xlink:href="#DejaVuSans-70"/>
      <use xlink:href="#DejaVuSans-35" x="63.476562"/>
      <use xlink:href="#DejaVuSans-33" x="127.099609"/>
      <use xlink:href="#DejaVuSans-20" x="190.722656"/>
      <use xlink:href="#DejaVuSans-28" x="222.509766"/>
      <use xlink:href="#DejaVuSans-61" x="261.523438"/>
      <use xlink:href="#DejaVuSans-2e" x="322.802734"/>
      <use xlink:href="#DejaVuSans-75" x="354.589844"/>
      <use xlink:href="#DejaVuSans-2e" x="417.96875"/>
      <use xlink:href="#DejaVuSans-29" x="449.755859"/>
     </g>
    </g>
   </g>
   <g id="line2d_9">
    <path d="M 40.377273 58.820207 
L 40.41653 58.82192 
L 40.476501 58.742073 
L 40.48163 58.752361 
L 40.597824 58.673229 
L 40.522466 58.775909 
L 40.601769 58.676379 
L 40.705338 58.646842 
L 40.610055 58.654672 
L 40.706521 58.639699 
L 40.718752 58.63117 
L 40.758996 58.692143 
L 40.814627 58.673076 
L 40.880911 58.711054 
L 40.929045 58.704446 
L 41.050565 58.664623 
L 40.947589 58.721838 
L 41.052933 58.670138 
L 41.115863 58.724965 
L 41.056681 58.665062 
L 41.166956 58.706488 
L 41.251586 58.677279 
L 41.171296 58.714237 
L 41.28315 58.684225 
L 41.380208 58.699078 
L 41.338189 58.674163 
L 41.395004 58.687507 
L 41.505871 58.678099 
L 41.468981 58.718075 
L 41.50883 58.681297 
L 41.622065 58.697695 
L 41.546115 58.660414 
L 41.622262 58.696865 
L 41.678091 58.670527 
L 41.726225 58.713032 
L 41.735497 58.690274 
L 41.758775 58.703676 
L 41.820719 58.656926 
L 41.847351 58.689762 
L 41.84814 58.684779 
L 42.071453 58.683487 
L 42.178572 58.614784 
L 42.081119 58.685346 
L 42.187449 58.619375 
L 42.30818 58.571968 
L 42.18883 58.619894 
L 42.311929 58.575306 
L 42.346649 58.578453 
L 42.407606 58.512505 
L 42.415497 58.514956 
L 42.416878 58.517581 
L 43.300069 57.789926 
L 43.858943 56.571233 
L 44.011829 56.053194 
L 44.177539 55.485088 
L 44.468714 54.19429 
L 44.469503 54.195426 
L 44.515467 53.986611 
L 44.515665 53.986918 
L 45.879807 43.222267 
L 47.278867 26.652102 
L 47.365272 25.848739 
L 47.619163 24.09576 
L 47.839122 23.190486 
L 47.839714 23.191065 
L 47.839911 23.192443 
L 47.927895 23.032555 
L 47.92967 23.036751 
L 47.934602 23.020415 
L 48.031463 23.115158 
L 48.036592 23.115187 
L 48.038762 23.113272 
L 48.122011 23.278315 
L 48.526026 25.539267 
L 48.526618 25.538865 
L 49.04229 31.95036 
L 50.200874 57.877505 
L 50.52085 59.978879 
L 50.530319 59.975009 
L 50.530517 59.974631 
L 50.613766 60.05211 
L 50.61495 60.050213 
L 50.709246 60.072907 
L 50.657758 60.040258 
L 50.72562 60.042979 
L 50.754224 60.024758 
L 50.786774 60.064739 
L 50.835106 60.06028 
L 50.930784 60.097765 
L 50.836882 60.056948 
L 50.948538 60.079468 
L 51.021726 60.058132 
L 51.061181 60.065965 
L 51.250958 60.018302 
L 51.253917 60.024448 
L 51.345451 60.054471 
L 51.369321 60.031809 
L 51.450992 59.975669 
L 51.396348 60.03981 
L 51.482951 60.003051 
L 51.586519 59.990457 
L 51.495181 60.016407 
L 51.596382 60.021391 
L 51.670754 60.036274 
L 51.6964 59.994061 
L 51.70725 60.013077 
L 51.776098 59.985692 
L 51.747691 60.03221 
L 51.820879 59.9932 
L 51.821668 59.994604 
L 51.841001 59.962893 
L 51.928985 59.966806 
L 51.930563 59.968976 
L 52.05879 59.895719 
L 52.18031 59.899506 
L 52.075953 59.879595 
L 52.180705 59.896433 
L 52.303409 59.796065 
L 52.181099 59.896635 
L 52.312286 59.807789 
L 52.312681 59.811218 
L 52.416643 59.745912 
L 52.418024 59.748649 
L 52.537177 59.660729 
L 52.537374 59.662254 
L 52.554143 59.680858 
L 52.617073 59.598873 
L 52.638378 59.596295 
L 52.746286 59.550522 
L 52.661854 59.618551 
L 52.75615 59.56192 
L 52.757136 59.564378 
L 52.850249 59.429086 
L 52.85163 59.432183 
L 52.967627 59.35066 
L 52.855576 59.443485 
L 52.967824 59.351376 
L 53.094276 59.260054 
L 52.969402 59.352557 
L 53.095262 59.262907 
L 53.124459 59.268222 
L 53.196858 59.183218 
L 53.19962 59.194985 
L 53.339683 59.063928 
L 53.217374 59.20787 
L 53.342051 59.071026 
L 53.345602 59.077882 
L 53.445027 58.961501 
L 53.445225 58.962683 
L 53.574833 58.834919 
L 53.591996 58.848037 
L 53.669524 58.773655 
L 53.679979 58.778392 
L 53.701877 58.792841 
L 53.8376 58.646475 
L 53.839573 58.653118 
L 53.929332 58.542937 
L 54.045526 58.456353 
L 54.05105 58.46037 
L 54.138836 58.314493 
L 54.139428 58.316121 
L 54.288369 58.117241 
L 54.292117 58.121757 
L 54.293695 58.125976 
L 54.382074 57.995691 
L 54.383652 57.996523 
L 54.51109 57.819455 
L 54.525097 57.824501 
L 54.613278 57.698811 
L 54.767742 57.403204 
L 54.768926 57.404524 
L 54.771096 57.408735 
L 54.847046 57.230306 
L 54.847835 57.230931 
L 54.901493 57.080318 
L 54.905242 57.08323 
L 55.172941 56.49819 
L 55.173138 56.500937 
L 55.266448 56.249104 
L 55.267632 56.252396 
L 55.48187 55.714208 
L 56.039364 54.131414 
L 56.215134 53.461515 
L 56.041731 54.131984 
L 56.215529 53.46243 
L 56.215923 53.464801 
L 56.274316 53.181156 
L 56.506506 52.137968 
L 56.506703 52.139109 
L 56.566083 51.831357 
L 56.56628 51.832179 
L 56.736921 51.036412 
L 57.138371 49.062054 
L 57.138569 49.062991 
L 57.191438 48.775275 
L 58.717739 41.090732 
L 58.990962 39.655035 
L 58.991948 39.656579 
L 59.078551 39.149756 
L 59.252348 38.173043 
L 59.252546 38.175174 
L 59.968646 34.89497 
L 59.969435 34.898449 
L 59.96983 34.900436 
L 60.104962 34.487927 
L 60.254495 34.022619 
L 60.255284 34.024231 
L 60.257848 34.031432 
L 60.33656 33.886131 
L 60.336758 33.88723 
L 60.489447 33.767314 
L 60.340703 33.894004 
L 60.490236 33.768929 
L 60.605838 33.861568 
L 60.514303 33.751376 
L 60.607022 33.858771 
L 60.607416 33.857642 
L 60.684944 34.011408 
L 60.690271 34.007853 
L 60.828559 34.38917 
L 60.828954 34.387274 
L 60.829348 34.386089 
L 60.894251 34.605689 
L 60.89504 34.604254 
L 61.037866 35.250569 
L 61.165501 36.036868 
L 62.14654 46.647814 
L 62.420157 50.86805 
L 62.855539 56.732074 
L 62.907027 57.219454 
L 63.05222 58.24057 
L 63.052417 58.238021 
L 63.131918 58.646131 
L 63.132115 58.64612 
L 63.287172 59.005457 
L 63.288355 59.004665 
L 63.373972 59.088289 
L 63.382455 59.081519 
L 63.504764 59.207669 
L 63.386795 59.077031 
L 63.506145 59.205233 
L 63.584265 59.206823 
L 63.510682 59.201327 
L 63.619379 59.184779 
L 63.734784 59.1636 
L 63.672249 59.203834 
L 63.736165 59.166339 
L 64.172336 58.915405 
L 64.41143 58.686369 
L 64.412219 58.690293 
L 64.413798 58.695427 
L 64.514604 58.573709 
L 64.515788 58.578499 
L 64.636913 58.449011 
L 64.638886 58.449901 
L 64.639675 58.452825 
L 64.717795 58.329788 
L 64.720557 58.33623 
L 64.842669 58.17372 
L 64.843853 58.176709 
L 64.847601 58.177639 
L 64.914871 58.059425 
L 65.054737 57.877169 
L 65.056316 57.880915 
L 65.137 57.798307 
L 65.137789 57.792244 
L 65.278248 57.623967 
L 65.138973 57.794161 
L 65.285152 57.627629 
L 65.289492 57.634768 
L 65.386353 57.488485 
L 65.387537 57.492639 
L 65.388129 57.495144 
L 65.445535 57.369242 
L 65.562715 57.214605 
L 65.57396 57.217978 
L 65.919582 56.764079 
L 65.576327 57.223189 
L 65.923133 56.773802 
L 65.923527 56.776638 
L 66.019599 56.614673 
L 66.019994 56.615578 
L 66.020191 56.616551 
L 66.10127 56.459546 
L 66.102257 56.46226 
L 66.279605 56.12299 
L 66.283156 56.124958 
L 66.288877 56.131493 
L 66.377453 55.981355 
L 66.377847 55.981443 
L 66.517319 55.658506 
L 66.518897 55.659098 
L 66.519884 55.661703 
L 66.613786 55.491972 
L 66.614377 55.493806 
L 66.632526 55.489924 
L 66.684804 55.379949 
L 66.685001 55.379913 
L 66.807705 55.14501 
L 66.811453 55.152107 
L 66.953687 54.906245 
L 66.814609 55.157736 
L 66.953884 54.906986 
L 67.030031 54.777727 
L 67.157272 54.490589 
L 67.158851 54.495209 
L 67.25729 54.274778 
L 67.399326 53.962851 
L 67.399918 53.966317 
L 67.476263 53.727885 
L 67.604688 53.424583 
L 67.605082 53.425998 
L 67.677481 53.230097 
L 67.871203 52.586318 
L 67.871795 52.588109 
L 67.873176 52.593983 
L 67.969445 52.319861 
L 67.971221 52.32864 
L 68.131406 51.834178 
L 68.301456 51.240637 
L 68.302639 51.242522 
L 68.303231 51.245094 
L 68.369515 50.975653 
L 68.369712 50.975659 
L 68.5514 50.407912 
L 68.551598 50.408306 
L 68.551795 50.409742 
L 68.62597 50.135246 
L 68.626364 50.136374 
L 68.755972 49.713857 
L 68.757156 49.715732 
L 68.878084 49.255819 
L 69.079895 48.696386 
L 69.080092 48.696881 
L 69.48825 47.653917 
L 69.528493 47.533687 
L 69.772323 47.033801 
L 69.781397 47.039504 
L 69.781594 47.040239 
L 69.84847 46.919944 
L 69.863857 46.918802 
L 70.010431 46.681161 
L 69.865238 46.922079 
L 70.01122 46.681624 
L 70.329421 46.464702 
L 70.329619 46.4658 
L 70.433384 46.312977 
L 70.450547 46.318619 
L 70.560625 46.238946 
L 70.583706 46.260893 
L 70.583904 46.262822 
L 70.659656 46.191183 
L 70.689247 46.202068 
L 70.689839 46.205952 
L 70.74547 46.135798 
L 70.790054 46.153576 
L 70.914138 46.118547 
L 70.799523 46.16304 
L 70.914928 46.127066 
L 70.938798 46.139348 
L 70.920451 46.11384 
L 71.024611 46.107663 
L 71.146723 46.031014 
L 71.033094 46.112202 
L 71.147118 46.032424 
L 71.313813 45.944791 
L 71.712699 45.544983 
L 71.314997 45.949506 
L 71.713291 45.547923 
L 71.713488 45.549507 
L 71.799105 45.469708 
L 71.816465 45.479153 
L 71.958107 45.445984 
L 71.817057 45.479737 
L 71.96225 45.457138 
L 72.317144 45.140669 
L 72.317538 45.141871 
L 72.427222 44.98012 
L 72.445371 44.989227 
L 72.445568 44.989443 
L 72.490547 44.879234 
L 72.50041 44.88577 
L 72.645998 44.694364 
L 72.648365 44.699083 
L 72.651127 44.703596 
L 72.73477 44.623987 
L 72.754301 44.629914 
L 72.791585 44.646767 
L 72.85708 44.587875 
L 72.857277 44.589166 
L 72.90265 44.554426 
L 72.867141 44.591921 
L 72.970709 44.564627 
L 73.101698 44.631596 
L 72.979389 44.561178 
L 73.102487 44.627958 
L 73.104065 44.620691 
L 73.203491 44.725063 
L 73.203688 44.723316 
L 73.352038 45.021483 
L 73.20428 44.721764 
L 73.352629 45.017919 
L 73.35401 45.016049 
L 73.413981 45.136242 
L 73.419702 45.138226 
L 73.841472 45.980952 
L 73.420689 45.134827 
L 73.842853 45.977411 
L 74.033221 46.400459 
L 74.185713 46.727833 
L 75.353569 48.802452 
L 75.354555 48.798909 
L 75.35929 48.794177 
L 75.446682 48.93736 
L 75.457334 48.93506 
L 75.550447 49.024853 
L 75.458913 48.932241 
L 75.57629 49.009225 
L 75.664471 48.976133 
L 75.610418 49.032446 
L 75.689919 48.995875 
L 75.751666 49.04189 
L 75.798814 48.974899 
L 75.799011 48.975396 
L 75.918361 48.905567 
L 75.92862 48.909079 
L 75.929409 48.910631 
L 76.01759 48.797336 
L 76.207761 48.451904 
L 76.022127 48.79988 
L 76.207958 48.45341 
L 76.208155 48.454337 
L 76.280949 48.264764 
L 76.281344 48.265122 
L 76.951085 46.51282 
L 76.281738 48.265643 
L 76.954242 46.519954 
L 76.958187 46.520648 
L 77.009873 46.388316 
L 77.010267 46.38891 
L 77.168085 46.030534 
L 77.170058 46.033953 
L 77.260804 45.804022 
L 77.499109 45.143605 
L 77.499307 45.145312 
L 77.499899 45.149386 
L 77.58946 44.919532 
L 77.589855 44.919603 
L 77.765231 44.442334 
L 77.59163 44.920396 
L 77.769373 44.447636 
L 77.770162 44.449594 
L 77.839208 44.249016 
L 77.839405 44.24937 
L 77.8398 44.251108 
L 78.003931 43.857549 
L 78.056011 43.679571 
L 78.248155 43.087723 
L 78.057195 43.681644 
L 78.248352 43.08907 
L 78.24993 43.091468 
L 78.307731 42.933786 
L 78.311479 42.935855 
L 78.608572 42.19452 
L 78.610348 42.197313 
L 78.611729 42.200556 
L 78.685312 42.006815 
L 78.829913 41.61312 
L 78.686298 42.007024 
L 78.830505 41.61655 
L 78.831096 41.622124 
L 78.92559 41.357688 
L 78.925787 41.358472 
L 78.926971 41.36354 
L 78.998187 41.212716 
L 79.208282 40.695517 
L 79.003907 41.219214 
L 79.20848 40.696365 
L 79.209269 40.702606 
L 79.292321 40.531828 
L 79.297055 40.53302 
L 79.44067 40.311831 
L 79.493342 40.197885 
L 79.619399 40.009816 
L 79.496695 40.198601 
L 79.621175 40.011951 
L 79.814305 39.781529 
L 79.626895 40.016255 
L 79.814897 39.783123 
L 79.815488 39.786235 
L 79.903275 39.690792 
L 79.913928 39.696328 
L 80.049257 39.5721 
L 79.917084 39.702855 
L 80.060107 39.577862 
L 80.060304 39.578423 
L 80.147696 39.496155 
L 80.149471 39.497437 
L 80.290522 39.364019 
L 80.150261 39.499563 
L 80.291311 39.366276 
L 80.297426 39.378405 
L 80.393104 39.27071 
L 80.39409 39.272498 
L 80.640287 39.066125 
L 80.395668 39.274241 
L 80.644429 39.072997 
L 80.679149 39.066247 
L 80.732216 38.999805 
L 80.733005 39.00151 
L 80.844267 38.914262 
L 80.73478 39.007418 
L 80.85058 38.923929 
L 80.851763 38.925741 
L 80.936985 38.792408 
L 80.944481 38.800056 
L 80.945468 38.795976 
L 81.00682 38.855236 
L 81.048247 38.842578 
L 81.102694 38.876873 
L 81.054757 38.833656 
L 81.160101 38.846559 
L 81.161876 38.841422 
L 81.255975 38.955101 
L 81.258343 38.948392 
L 81.377101 39.124913 
L 81.83655 40.427304 
L 82.000878 41.050142 
L 82.001075 41.04945 
L 82.00147 41.047413 
L 82.043292 41.207056 
L 82.191444 41.767423 
L 82.191838 41.767194 
L 82.701 44.105651 
L 82.888606 44.998625 
L 82.969686 45.348692 
L 83.138551 46.154653 
L 83.138748 46.154057 
L 83.138946 46.153485 
L 83.189448 46.347521 
L 83.189645 46.347409 
L 84.166935 49.988875 
L 84.167132 49.988455 
L 84.214675 50.14811 
L 84.541359 51.173327 
L 84.684579 51.631239 
L 84.728966 51.739708 
L 84.860152 52.025951 
L 84.729755 51.739303 
L 84.861928 52.024074 
L 84.93847 52.121925 
L 84.938667 52.124846 
L 85.095104 52.35644 
L 85.101417 52.351776 
L 85.189598 52.423741 
L 85.19887 52.412384 
L 85.558696 52.251057 
L 85.686923 52.102097 
L 85.688699 52.10398 
L 85.688896 52.106485 
L 85.786743 51.945911 
L 85.78773 51.946904 
L 85.871965 51.778929 
L 85.872162 51.780591 
L 86.01992 51.384747 
L 86.021301 51.385952 
L 86.050694 51.267187 
L 86.23041 50.528979 
L 86.230607 50.52962 
L 86.274205 50.293927 
L 86.748843 47.237696 
L 86.95381 45.568197 
L 87.178109 43.372755 
L 87.416218 40.85558 
L 87.440877 40.587912 
L 87.441074 40.588367 
L 89.357778 20.588212 
L 89.906197 18.687202 
L 89.906394 18.687912 
L 90.028901 18.823451 
L 89.940128 18.684309 
L 90.02969 18.822875 
L 90.282791 19.703855 
L 90.282988 19.702564 
L 90.283185 19.702452 
L 90.300743 19.819969 
L 90.358938 20.142 
L 90.571598 21.936757 
L 90.571796 21.936386 
L 90.588564 22.105363 
L 91.112126 29.50169 
L 92.611006 58.151155 
L 92.830374 59.098447 
L 92.834516 59.096338 
L 92.90297 59.21118 
L 92.905732 59.20941 
L 92.960574 59.267757 
L 92.908099 59.202025 
L 93.02449 59.252437 
L 93.138317 59.245501 
L 93.094522 59.270592 
L 93.138711 59.245855 
L 93.144827 59.254514 
L 93.229457 59.173518 
L 93.232219 59.177841 
L 93.264571 59.191053 
L 93.344862 59.146393 
L 93.523985 59.014242 
L 93.653199 58.874133 
L 93.525564 59.015692 
L 93.654186 58.876247 
L 93.65458 58.877699 
L 93.748679 58.769514 
L 93.750652 58.769465 
L 93.984815 58.485814 
L 93.751047 58.769656 
L 93.98955 58.491197 
L 93.991325 58.497076 
L 94.088975 58.396285 
L 94.21089 58.254191 
L 94.100022 58.39828 
L 94.217794 58.258787 
L 94.224304 58.259218 
L 94.308934 58.146339 
L 94.311302 58.152279 
L 94.448012 57.983676 
L 94.314458 58.152955 
L 94.448998 57.992254 
L 94.453733 57.997146 
L 94.513507 57.875623 
L 94.514887 57.87813 
L 94.517057 57.882412 
L 94.649033 57.68984 
L 94.64923 57.691827 
L 94.743329 57.518459 
L 94.869584 57.206331 
L 94.870373 57.207874 
L 95.052653 56.760928 
L 95.1795 56.462978 
L 95.333767 56.082116 
L 95.335937 56.090684 
L 95.985755 54.207079 
L 96.125818 53.71575 
L 96.126016 53.715885 
L 96.32605 52.993757 
L 96.487025 52.361678 
L 96.487222 52.363146 
L 96.531214 52.201209 
L 96.83462 50.958463 
L 96.834817 50.959251 
L 96.835015 50.959853 
L 96.878217 50.736828 
L 97.071545 49.839675 
L 97.215751 49.21858 
L 97.072137 49.841022 
L 97.216146 49.219277 
L 97.375345 48.413391 
L 98.809717 41.92793 
L 98.809914 41.931209 
L 98.810309 41.933346 
L 98.890204 41.71278 
L 98.89987 41.713755 
L 98.901054 41.719846 
L 99.002847 41.447533 
L 99.197161 40.966615 
L 99.198542 40.967212 
L 99.219847 40.959024 
L 99.259302 40.883711 
L 99.270349 40.883059 
L 99.407454 40.598456 
L 99.413175 40.607672 
L 99.448092 40.60351 
L 99.46269 40.565401 
L 99.515362 40.564368 
L 99.596441 40.540672 
L 99.559551 40.578712 
L 99.626821 40.559211 
L 99.768069 40.791636 
L 99.629189 40.551799 
L 99.768858 40.786886 
L 99.76945 40.785976 
L 99.835931 40.921409 
L 99.838495 40.919159 
L 99.839679 40.917298 
L 100.492258 43.148841 
L 100.699986 44.361248 
L 100.958611 45.92903 
L 101.235385 47.519732 
L 101.235582 47.518277 
L 101.30009 47.86868 
L 101.745138 50.291763 
L 101.745335 50.290452 
L 101.903943 51.111423 
L 102.068469 51.81256 
L 102.06906 51.811726 
L 102.069258 51.810572 
L 102.144813 52.013833 
L 102.14797 52.009208 
L 102.67311 53.462881 
L 102.675083 53.459212 
L 102.678042 53.458126 
L 102.751625 53.626759 
L 102.751822 53.626666 
L 103.019719 54.087215 
L 102.753795 53.621134 
L 103.019916 54.086856 
L 103.020113 54.08519 
L 103.116974 54.202153 
L 103.118158 54.199982 
L 103.245202 54.340684 
L 103.246583 54.338709 
L 103.374021 54.402296 
L 103.482521 54.421753 
L 103.375599 54.40045 
L 103.496527 54.396211 
L 103.610946 54.333031 
L 103.525527 54.40755 
L 103.617061 54.34138 
L 103.622979 54.351223 
L 103.713725 54.290649 
L 103.720629 54.29691 
L 103.821436 54.230993 
L 103.72418 54.30499 
L 103.840177 54.235658 
L 103.840374 54.23956 
L 103.940983 54.155999 
L 103.947691 54.163938 
L 103.954595 54.166057 
L 104.032518 54.044232 
L 104.039817 54.04549 
L 104.181854 53.837146 
L 104.182051 53.838088 
L 104.264708 53.6952 
L 104.265892 53.697351 
L 104.515245 53.158231 
L 104.268456 53.698251 
L 104.523333 53.16488 
L 104.523728 53.167076 
L 104.6125 52.957791 
L 104.612895 52.957949 
L 104.768149 52.527581 
L 104.768346 52.529004 
L 104.986135 51.899976 
L 104.98653 51.900692 
L 104.986727 51.903479 
L 105.0755 51.588481 
L 105.230557 51.127185 
L 105.076289 51.58991 
L 105.230951 51.127234 
L 105.684284 49.493989 
L 105.684679 49.494702 
L 105.684876 49.495981 
L 105.752541 49.208871 
L 105.753133 49.210251 
L 105.955929 48.341514 
L 105.956324 48.343289 
L 106.018662 47.985066 
L 106.018859 47.985041 
L 106.350278 46.017123 
L 106.350475 46.017351 
L 106.370202 45.871117 
L 106.370597 45.870937 
L 106.728253 43.381206 
L 107.116683 40.133789 
L 109.081916 21.960596 
L 109.082311 21.962287 
L 109.266367 21.596891 
L 109.0831 21.963718 
L 109.269917 21.60024 
L 109.27189 21.608388 
L 109.351391 21.518597 
L 109.365398 21.52479 
L 109.365595 21.522375 
L 109.463639 21.657509 
L 109.466204 21.654469 
L 109.521638 21.787479 
L 110.017187 25.079886 
L 110.260622 28.006785 
L 110.260819 28.006285 
L 110.448426 30.653828 
L 110.667399 34.280434 
L 112.046337 57.8377 
L 112.246372 58.798416 
L 112.247358 58.797783 
L 112.289969 58.91404 
L 112.290561 58.914533 
L 112.423917 59.083984 
L 112.292928 58.911247 
L 112.425496 59.082294 
L 112.509928 59.07999 
L 112.426285 59.086866 
L 112.53656 59.105921 
L 112.593178 59.109411 
L 112.605803 59.081415 
L 112.645652 59.083866 
L 112.75652 59.056256 
L 112.704637 59.094385 
L 112.759479 59.061382 
L 113.536142 58.561946 
L 113.536339 58.56254 
L 113.636357 58.44483 
L 113.657268 58.456897 
L 113.661805 58.459347 
L 113.754523 58.360076 
L 113.756102 58.360017 
L 113.963435 58.067056 
L 113.96383 58.067582 
L 113.964027 58.069188 
L 114.058521 57.938943 
L 114.059902 57.942544 
L 114.185959 57.734818 
L 114.40296 57.458957 
L 114.519548 57.305389 
L 114.520929 57.309413 
L 114.521323 57.311263 
L 114.577152 57.193419 
L 114.587212 57.193899 
L 114.728854 56.918728 
L 114.729052 56.921088 
L 114.732405 56.924125 
L 114.824335 56.745799 
L 114.824729 56.747363 
L 114.984915 56.373426 
L 115.117679 56.094886 
L 114.987282 56.375769 
L 115.117877 56.09589 
L 115.118074 56.098173 
L 115.210003 55.873445 
L 115.2102 55.874099 
L 115.389522 55.388883 
L 115.210792 55.876647 
L 115.389719 55.391475 
L 115.389916 55.392691 
L 115.465866 55.16813 
L 115.621515 54.713088 
L 115.621712 54.713403 
L 115.624868 54.715344 
L 115.694506 54.474932 
L 115.695689 54.475139 
L 115.696084 54.475412 
L 118.380377 42.781332 
L 118.66228 41.325767 
L 118.381363 42.783368 
L 118.662477 41.326554 
L 119.903127 37.236608 
L 119.90648 37.244578 
L 119.906677 37.24689 
L 120.004525 37.141731 
L 120.009457 37.147328 
L 120.09527 37.11845 
L 120.121113 37.138531 
L 120.242633 37.245214 
L 120.148337 37.117238 
L 120.243422 37.243655 
L 120.308128 37.348401 
L 120.442274 37.653156 
L 120.442668 37.651935 
L 120.442865 37.650363 
L 120.521577 37.913185 
L 120.521972 37.911959 
L 120.831493 39.421899 
L 120.855363 39.576557 
L 121.093866 41.489297 
L 122.333332 55.277448 
L 122.333529 55.277148 
L 122.686451 57.570156 
L 122.686845 57.56966 
L 122.687042 57.569522 
L 122.710912 57.687596 
L 122.895954 58.361494 
L 122.898322 58.358783 
L 123.0735 58.622284 
L 123.073697 58.622018 
L 123.147083 58.709263 
L 123.248087 58.765758 
L 123.181211 58.699178 
L 123.263277 58.760287 
L 123.390518 58.807881 
L 123.395252 58.82288 
L 123.442795 58.829968 
L 123.497242 58.781337 
L 123.500004 58.781453 
L 123.620538 58.80035 
L 123.500793 58.78097 
L 123.624089 58.792435 
L 123.734562 58.810448 
L 123.646775 58.830587 
L 123.734759 58.811737 
L 123.858449 58.801778 
L 123.74699 58.822515 
L 123.861014 58.810081 
L 123.992989 58.829675 
L 123.875217 58.795773 
L 123.993778 58.827608 
L 124.106816 58.772298 
L 123.994567 58.829198 
L 124.10938 58.774244 
L 124.112734 58.777778 
L 124.173099 58.725696 
L 124.217289 58.735111 
L 124.27943 58.696301 
L 124.235043 58.737724 
L 124.32934 58.719709 
L 124.336836 58.728755 
L 124.423044 58.655256 
L 124.434881 58.672634 
L 124.554428 58.580883 
L 124.436459 58.677307 
L 124.554625 58.582196 
L 124.558176 58.585614 
L 124.649908 58.509099 
L 124.657602 58.512979 
L 124.749926 58.461476 
L 124.674173 58.51556 
L 124.771034 58.480646 
L 124.779517 58.488749 
L 124.858426 58.39409 
L 125.508835 57.628616 
L 125.511202 57.635005 
L 126.321007 55.818125 
L 126.457717 55.427718 
L 126.457915 55.428891 
L 126.53564 55.221797 
L 126.985817 53.456143 
L 126.986014 53.456462 
L 127.021129 53.302447 
L 127.977903 45.969549 
L 130.12226 15.312782 
L 130.122457 15.312867 
L 130.13311 15.197994 
L 130.552512 11.769973 
L 130.552907 11.770859 
L 130.553104 11.772217 
L 130.62353 11.485807 
L 130.623728 11.486528 
L 130.773852 11.17642 
L 130.77405 11.177032 
L 130.789831 11.16 
L 130.868346 11.275457 
L 130.868543 11.274509 
L 131.009988 11.679209 
L 131.063646 11.925466 
L 131.748972 21.758947 
L 132.032848 28.870343 
L 132.299364 36.60952 
L 132.434101 40.757062 
L 132.62881 46.910083 
L 132.923338 55.62823 
L 133.214316 59.902395 
L 133.21471 59.90177 
L 133.272709 60.055148 
L 133.2806 60.053415 
L 133.355169 60.175797 
L 133.403501 60.148556 
L 133.430922 60.139175 
L 133.508647 60.188864 
L 133.510817 60.187848 
L 133.602746 60.149608 
L 133.515946 60.195515 
L 133.631351 60.162043 
L 133.772006 60.197658 
L 133.773387 60.191871 
L 133.881296 60.155816 
L 133.787986 60.195584 
L 133.886425 60.161805 
L 133.968688 60.147941 
L 133.897867 60.177672 
L 134.000251 60.164038 
L 134.0618 60.168215 
L 134.100071 60.136303 
L 134.108751 60.137547 
L 134.111513 60.131672 
L 134.207782 60.17746 
L 134.21666 60.169745 
L 134.34252 60.147899 
L 134.454176 60.178573 
L 134.348044 60.143813 
L 134.459305 60.174884 
L 134.531902 60.136183 
L 134.462856 60.183226 
L 134.576683 60.165393 
L 134.702346 60.162089 
L 134.597594 60.148055 
L 134.702938 60.158516 
L 134.738644 60.127033 
L 134.797431 60.174778 
L 134.814594 60.164303 
L 134.997861 60.109412 
L 134.998255 60.114104 
L 135.097483 60.122225 
L 134.999439 60.109368 
L 135.114843 60.089601 
L 135.156073 60.068142 
L 135.214861 60.113637 
L 135.224724 60.103469 
L 135.285485 60.106413 
L 135.317048 60.068854 
L 135.335592 60.095852 
L 135.448037 60.062744 
L 135.35887 60.103957 
L 135.450997 60.06932 
L 135.536021 60.091619 
L 135.45652 60.066003 
L 135.567585 60.060699 
L 135.651623 60.017726 
L 135.680425 60.045185 
L 135.773143 60.089837 
L 135.708438 60.025729 
L 135.796421 60.052243 
L 135.844753 60.027824 
L 135.903343 60.07223 
L 135.9065 60.067859 
L 135.912615 60.077252 
L 135.972783 60.029237 
L 136.013619 60.03982 
L 136.126065 60.018392 
L 136.014803 60.043622 
L 136.127445 60.020616 
L 136.295917 60.003248 
L 136.297495 59.99086 
L 136.377982 59.949364 
L 136.300848 60.002386 
L 136.410335 59.96234 
L 136.439334 59.978775 
L 136.517257 59.938807 
L 136.520413 59.947157 
L 136.637002 59.905382 
L 136.637199 59.907129 
L 136.698551 59.935791 
L 136.738005 59.893001 
L 136.747672 59.895643 
L 136.87728 59.836247 
L 136.877674 59.839984 
L 136.886157 59.852659 
L 136.983018 59.799876 
L 136.985977 59.809303 
L 137.475609 59.714768 
L 137.539723 59.681097 
L 137.479949 59.716115 
L 137.590027 59.70783 
L 137.737982 59.705207 
L 137.602061 59.694696 
L 137.738376 59.70406 
L 137.854965 59.632394 
L 137.739165 59.704729 
L 137.858121 59.634085 
L 137.884358 59.67431 
L 137.973131 59.654627 
L 138.069203 59.623814 
L 137.987138 59.663344 
L 138.08676 59.645925 
L 138.226824 59.545382 
L 138.230178 59.551961 
L 138.234715 59.565439 
L 138.279299 59.5216 
L 138.34144 59.552084 
L 138.352882 59.546097 
L 138.421533 59.58946 
L 138.450729 59.57643 
L 138.470456 59.585322 
L 138.555678 59.515631 
L 138.555875 59.516228 
L 138.781358 59.424949 
L 138.794773 59.407551 
L 138.853363 59.462659 
L 138.891239 59.439791 
L 139.015521 59.461733 
L 138.956142 59.404479 
L 139.016705 59.459468 
L 139.135266 59.377351 
L 139.024201 59.462314 
L 139.138422 59.380652 
L 139.183795 59.390701 
L 139.240413 59.313902 
L 139.244358 59.32575 
L 139.258167 59.30417 
L 139.29486 59.342763 
L 139.356212 59.319035 
L 139.630421 59.250999 
L 139.630618 59.253412 
L 139.710119 59.26626 
L 139.635748 59.244597 
L 139.744445 59.251739 
L 139.849986 59.201475 
L 139.857877 59.207506 
L 139.869516 59.222504 
L 139.948228 59.161088 
L 139.965588 59.177279 
L 140.042919 59.16387 
L 140.025559 59.201631 
L 140.075469 59.191018 
L 140.081782 59.199022 
L 140.131889 59.104073 
L 140.179432 59.124391 
L 140.366447 59.015983 
L 140.180221 59.126558 
L 140.367827 59.017843 
L 140.416159 59.042131 
L 140.465478 59.000951 
L 140.479681 59.016969 
L 140.583644 58.948855 
L 140.600018 58.960313 
L 140.672022 58.97706 
L 140.622901 58.945781 
L 140.712266 58.953557 
L 140.841677 58.875664 
L 140.714436 58.955641 
L 140.843453 58.88188 
L 141.136995 58.635099 
L 140.844242 58.882881 
L 141.13877 58.638757 
L 141.139757 58.641967 
L 141.231883 58.49895 
L 141.234053 58.503107 
L 141.359716 58.320321 
L 141.236223 58.507466 
L 141.359913 58.321446 
L 141.361689 58.325251 
L 141.434482 58.198873 
L 141.434877 58.199998 
L 141.570995 57.943916 
L 141.571192 57.944462 
L 141.637871 57.804728 
L 141.638463 57.80454 
L 141.860395 57.207869 
L 141.863156 57.209661 
L 141.864932 57.213288 
L 141.943644 56.963735 
L 141.946208 56.966128 
L 141.946406 56.967378 
L 142.013873 56.683677 
L 142.190235 55.96408 
L 142.190629 55.964481 
L 142.258491 55.685385 
L 142.396582 55.086635 
L 142.39678 55.088143 
L 142.396977 55.088796 
L 142.44669 54.870414 
L 142.64633 53.96491 
L 143.210728 50.84096 
L 143.210925 50.84146 
L 143.452585 49.161756 
L 143.452782 49.163183 
L 143.508215 48.754813 
L 143.508413 48.755665 
L 144.705268 38.941087 
L 144.93805 37.149061 
L 144.938247 37.150167 
L 144.985395 36.78394 
L 145.731482 31.856181 
L 145.731876 31.85875 
L 145.869375 31.219167 
L 145.732468 31.860739 
L 145.86977 31.219372 
L 146.027194 30.631845 
L 146.027391 30.633086 
L 146.027588 30.634075 
L 146.095253 30.405589 
L 146.107484 30.409234 
L 146.146544 30.293494 
L 146.146938 30.293664 
L 146.421542 30.059331 
L 146.147333 30.294926 
L 146.424501 30.064184 
L 146.42608 30.060831 
L 146.985743 31.391862 
L 147.501612 35.045808 
L 147.741496 37.194266 
L 149.125365 50.313353 
L 149.125957 50.309523 
L 149.188493 50.731945 
L 149.250239 51.105297 
L 149.251226 51.103293 
L 149.462702 52.224836 
L 149.462899 52.224497 
L 149.495449 52.387912 
L 149.674376 53.059845 
L 149.674968 53.05855 
L 149.67556 53.057116 
L 149.708307 53.177046 
L 149.708899 53.174614 
L 149.832983 53.423506 
L 149.833181 53.42295 
L 149.83397 53.422117 
L 149.914457 53.558045 
L 149.914852 53.555805 
L 150.046827 53.735673 
L 150.047222 53.73491 
L 150.168347 53.757922 
L 150.051562 53.725968 
L 150.19419 53.719813 
L 150.335635 53.610929 
L 150.208197 53.729786 
L 150.336029 53.611541 
L 150.340961 53.616623 
L 150.430918 53.487825 
L 150.431904 53.491132 
L 150.467216 53.39798 
L 150.437625 53.470804 
L 150.468991 53.38913 
L 150.608661 52.98814 
L 150.608858 52.989907 
L 150.610239 52.992086 
L 150.686583 52.744178 
L 150.687373 52.744976 
L 150.687767 52.745525 
L 150.807315 52.18677 
L 150.9892 51.236347 
L 150.990187 51.237768 
L 150.990384 51.23796 
L 151.013465 51.106104 
L 151.179371 50.006159 
L 151.544524 47.119158 
L 154.000769 19.427943 
L 154.345799 17.592573 
L 154.346983 17.594675 
L 154.510522 17.231249 
L 154.514073 17.232711 
L 154.518019 17.24235 
L 154.607778 17.141267 
L 154.612907 17.15089 
L 154.62356 17.130081 
L 154.716081 17.294039 
L 154.717264 17.292908 
L 154.724958 17.282039 
L 154.805051 17.539337 
L 154.805248 17.53899 
L 154.843124 17.695947 
L 155.096423 19.524853 
L 156.190696 41.58825 
L 157.023977 60.173098 
L 157.024371 60.170262 
L 157.024569 60.168637 
L 157.093417 60.245855 
L 157.128137 60.236245 
L 157.23644 60.28075 
L 157.247684 60.274082 
L 157.35579 60.266593 
L 157.261494 60.290646 
L 157.363089 60.278493 
L 157.47514 60.317686 
L 157.484215 60.310312 
L 157.501575 60.301223 
L 157.523077 60.341166 
L 157.584429 60.35689 
L 157.592518 60.380154 
L 157.624673 60.352192 
L 157.696086 60.364268 
L 157.8253 60.395769 
L 157.69648 60.365068 
L 157.825891 60.399894 
L 157.943072 60.404013 
L 157.861401 60.383426 
L 157.943861 60.401981 
L 158.116672 60.453576 
L 157.961812 60.387008 
L 158.117461 60.44992 
L 158.195384 60.40669 
L 158.119828 60.455364 
L 158.241546 60.426224 
L 158.353202 60.426445 
L 158.243321 60.423176 
L 158.35695 60.423257 
L 158.371746 60.405288 
L 158.465845 60.449015 
L 158.585787 60.423941 
L 158.484389 60.463776 
L 158.588154 60.427482 
L 158.701586 60.458761 
L 158.588549 60.425543 
L 158.704348 60.453112 
L 158.802787 60.42514 
L 158.818766 60.431085 
L 158.931212 60.432923 
L 158.820936 60.437957 
L 158.933776 60.440235 
L 159.001244 60.453287 
L 159.034583 60.424535 
L 159.044249 60.428586 
L 159.163797 60.42885 
L 159.077391 60.389794 
L 159.168728 60.419312 
L 159.279201 60.402112 
L 159.16932 60.421863 
L 159.290446 60.419007 
L 159.305636 60.429927 
L 159.389477 60.38832 
L 159.399932 60.397665 
L 159.4674 60.409747 
L 159.505473 60.362117 
L 159.506657 60.365565 
L 159.627191 60.342778 
L 159.517901 60.372864 
L 159.627388 60.343526 
L 159.689726 60.372276 
L 159.727603 60.32913 
L 159.738255 60.335274 
L 159.851293 60.347689 
L 159.742201 60.343821 
L 159.861354 60.373262 
L 159.968473 60.367462 
L 159.889958 60.354201 
L 159.974588 60.358482 
L 160.08151 60.329848 
L 159.975377 60.359611 
L 160.093347 60.337188 
L 160.100646 60.351638 
L 160.143849 60.311231 
L 160.204214 60.332593 
L 160.314292 60.314177 
L 160.23637 60.348502 
L 160.317646 60.320587 
L 160.426738 60.33835 
L 160.323367 60.302763 
L 160.430881 60.33175 
L 160.542734 60.28419 
L 160.438772 60.335442 
L 160.546285 60.293639 
L 160.637623 60.311038 
L 160.571142 60.271966 
L 160.656758 60.28247 
L 160.764075 60.272838 
L 160.682206 60.262638 
L 160.767428 60.270367 
L 160.790312 60.248722 
L 160.809447 60.282378 
L 160.879479 60.266402 
L 160.935505 60.26952 
L 160.977919 60.225377 
L 160.986993 60.231135 
L 161.05742 60.250378 
L 161.001591 60.216613 
L 161.099636 60.229032 
L 161.181307 60.203015 
L 161.115812 60.233118 
L 161.212082 60.218051 
L 161.277971 60.220793 
L 161.240883 60.19314 
L 161.31782 60.183768 
L 161.432041 60.16121 
L 161.320187 60.186482 
L 161.434014 60.170646 
L 161.542316 60.204211 
L 161.435395 60.166554 
L 161.547643 60.198049 
L 161.670149 60.154852 
L 161.556915 60.212226 
L 161.670741 60.159455 
L 161.752412 60.179024 
L 161.707039 60.14415 
L 161.780622 60.141915 
L 161.883007 60.105194 
L 161.807846 60.160217 
L 161.903918 60.129273 
L 161.904707 60.13458 
L 161.986378 60.075591 
L 162.009853 60.08709 
L 162.374019 60.033212 
L 162.476207 60.010041 
L 162.442473 60.040657 
L 162.485676 60.027645 
L 162.604434 60.038325 
L 162.492383 60.019717 
L 162.60976 60.032198 
L 162.717866 60.029002 
L 162.682554 60.056426 
L 162.721811 60.035391 
L 162.737988 60.051706 
L 162.799142 59.989423 
L 162.828142 60.000772 
L 162.939798 59.94681 
L 162.828931 60.001173 
L 162.945716 59.952439 
L 163.018313 59.943517 
L 163.029754 59.909339 
L 163.054019 59.928468 
L 163.125037 59.898652 
L 163.062896 59.938591 
L 163.166267 59.917406 
L 163.260761 59.869595 
L 163.166859 59.914794 
L 163.262931 59.858506 
L 163.447776 59.751994 
L 163.263917 59.860425 
L 163.469081 59.774965 
L 163.571663 59.778132 
L 163.529841 59.723061 
L 163.579949 59.767628 
L 163.709557 59.73369 
L 163.581921 59.770766 
L 163.712122 59.739271 
L 163.715475 59.743024 
L 163.814901 59.685028 
L 163.81569 59.686981 
L 163.944312 59.630827 
L 163.816084 59.687866 
L 163.947863 59.63856 
L 163.951414 59.644638 
L 163.981005 59.602773 
L 164.056757 59.616207 
L 164.179461 59.50937 
L 164.063267 59.619888 
L 164.182026 59.515878 
L 164.229174 59.508048 
L 164.257187 59.452935 
L 164.286186 59.477812 
L 164.422304 59.382884 
L 164.422896 59.383587 
L 164.423685 59.384608 
L 164.492139 59.309295 
L 164.520546 59.304853 
L 164.618788 59.248214 
L 164.521532 59.301987 
L 164.621155 59.236168 
L 164.727683 59.124563 
L 164.743859 59.126936 
L 164.845849 59.066544 
L 164.744254 59.124508 
L 164.8494 59.053416 
L 165.022211 58.868467 
L 164.850386 59.056321 
L 165.025762 58.87413 
L 165.025959 58.875329 
L 165.115127 58.734612 
L 165.115324 58.735452 
L 165.117691 58.740538 
L 165.27334 58.568786 
L 165.273537 58.571133 
L 165.372568 58.426715 
L 165.372765 58.42821 
L 165.558005 58.111241 
L 165.558202 58.112991 
L 165.576351 58.124294 
L 165.654668 57.993028 
L 165.657825 57.992722 
L 165.822548 57.67044 
L 165.824126 57.67397 
L 166.35913 56.245948 
L 166.360116 56.246603 
L 166.360314 56.248035 
L 166.435475 55.979792 
L 166.530166 55.671771 
L 166.790763 54.520741 
L 166.79096 54.521336 
L 166.791552 54.522313 
L 166.842646 54.277349 
L 166.844421 54.277195 
L 167.76904 47.570503 
L 168.208564 43.086861 
L 168.714569 37.970258 
L 168.714766 37.97137 
L 168.782431 37.717003 
L 168.782628 37.717078 
L 168.808471 37.609287 
L 168.978717 36.937078 
L 168.98069 36.939577 
L 169.55002 35.415423 
L 169.551993 35.429179 
L 169.641357 35.307039 
L 169.76702 35.093897 
L 169.767217 35.09608 
L 169.859541 34.986886 
L 169.869997 35.000234 
L 169.992898 35.020581 
L 169.891894 34.988793 
L 169.993884 35.017274 
L 169.996646 35.009344 
L 170.04695 35.085978 
L 170.095085 35.092315 
L 170.096071 35.088832 
L 170.150913 35.21237 
L 170.152689 35.211705 
L 170.287426 35.513731 
L 170.288018 35.511041 
L 170.366138 35.721052 
L 170.367124 35.719669 
L 171.219541 40.385043 
L 171.375189 41.554656 
L 171.54583 42.756918 
L 172.499448 49.567771 
L 172.50004 49.565415 
L 172.557249 49.961049 
L 172.731243 51.023286 
L 173.814666 54.953735 
L 173.820585 54.948124 
L 173.826503 54.947358 
L 173.905807 55.066808 
L 173.906004 55.064504 
L 174.024959 55.192298 
L 173.90916 55.055988 
L 174.026735 55.189247 
L 174.185145 55.361073 
L 174.027129 55.189094 
L 174.185737 55.360673 
L 174.185934 55.358564 
L 174.268986 55.419648 
L 174.293448 55.402074 
L 174.445348 55.497508 
L 174.446532 55.494666 
L 174.552862 55.537528 
L 174.553256 55.538332 
L 174.554045 55.543045 
L 174.631968 55.481529 
L 174.660967 55.485017 
L 174.661165 55.48635 
L 174.738298 55.388135 
L 174.758617 55.386228 
L 174.841078 55.311132 
L 174.761774 55.373664 
L 174.842261 55.303202 
L 174.844431 55.306054 
L 175.000474 55.078933 
L 175.001066 55.080144 
L 175.055908 54.955289 
L 175.193013 54.735148 
L 175.060051 54.957709 
L 175.19321 54.736182 
L 175.19538 54.744088 
L 175.285336 54.596363 
L 175.412577 54.287617 
L 175.412972 54.287994 
L 175.413366 54.289204 
L 175.498786 54.154198 
L 175.498983 54.155746 
L 175.635298 53.880149 
L 175.635693 53.883343 
L 175.729003 53.641179 
L 175.888794 53.274836 
L 175.888991 53.275232 
L 175.940085 53.130983 
L 175.940874 53.132711 
L 176.084686 52.766841 
L 176.087054 52.769736 
L 176.155902 52.531933 
L 176.286891 52.10664 
L 176.287088 52.108889 
L 176.324373 51.960755 
L 176.510007 51.290801 
L 176.51119 51.291863 
L 176.511585 51.293112 
L 176.561889 51.107837 
L 176.562679 51.108469 
L 177.20638 47.76772 
L 177.386885 46.448998 
L 177.470134 45.800269 
L 177.694039 44.022935 
L 177.694236 44.023128 
L 177.761506 43.472738 
L 178.029008 41.236359 
L 178.908451 35.041567 
L 178.908648 35.043291 
L 178.930546 34.934428 
L 178.93094 34.935225 
L 179.10099 34.107987 
L 179.280311 33.347111 
L 179.281494 33.351916 
L 179.366716 33.026236 
L 179.423531 32.820725 
L 179.63264 32.337774 
L 179.633232 32.340771 
L 179.633824 32.344006 
L 179.71076 32.240364 
L 179.726542 32.244909 
L 179.769153 32.189317 
L 179.846681 32.222368 
L 179.972147 32.328629 
L 179.877653 32.208567 
L 179.976092 32.322518 
L 179.977473 32.31861 
L 180.036655 32.470821 
L 180.036852 32.470808 
L 180.175141 32.846023 
L 180.176127 32.843883 
L 180.756504 37.088903 
L 181.282828 43.956924 
L 181.351479 44.979325 
L 182.17825 55.998024 
L 182.561552 58.136283 
L 182.971879 58.367379 
L 182.979178 58.348678 
L 183.390887 58.077862 
L 183.498006 57.986584 
L 183.393452 58.078432 
L 183.50787 57.989038 
L 183.68798 57.828625 
L 183.808317 57.700921 
L 183.693109 57.830008 
L 183.810487 57.702499 
L 183.837118 57.728084 
L 183.917211 57.630756 
L 183.917803 57.634295 
L 183.961006 57.619451 
L 183.980339 57.571681 
L 184.006576 57.568057 
L 184.126715 57.466662 
L 184.157884 57.473895 
L 184.216869 57.384971 
L 184.229889 57.392925 
L 184.328131 57.251382 
L 184.356341 57.257298 
L 184.360484 57.262465 
L 184.583599 56.932845 
L 184.585572 56.939808 
L 184.654618 56.807987 
L 184.680263 56.811906 
L 184.869251 56.525639 
L 184.872012 56.533903 
L 184.970452 56.400921 
L 185.127875 56.099547 
L 185.12827 56.101406 
L 185.129848 56.105822 
L 185.223947 55.888126 
L 185.224145 55.890909 
L 185.388276 55.488552 
L 185.390051 55.492445 
L 185.483361 55.295552 
L 185.483559 55.296381 
L 185.483953 55.296942 
L 185.983645 54.061808 
L 186.110886 53.790078 
L 186.111084 53.790241 
L 186.156654 53.683874 
L 186.316248 53.296065 
L 186.316445 53.296616 
L 186.371089 53.125039 
L 186.372076 53.125533 
L 186.507208 52.657001 
L 186.507405 52.657509 
L 186.683964 52.043912 
L 186.684951 52.04538 
L 186.747289 51.799396 
L 186.902346 51.118988 
L 186.903135 51.11914 
L 186.903529 51.120271 
L 186.960936 50.863405 
L 187.188391 49.824326 
L 186.961527 50.864246 
L 187.188589 49.824677 
L 187.188983 49.826915 
L 187.257831 49.534742 
L 188.470863 42.645492 
L 188.661034 41.413817 
L 188.66202 41.414418 
L 189.202351 37.77406 
L 189.202548 37.774814 
L 189.202745 37.775989 
L 189.262914 37.463816 
L 189.880181 35.357414 
L 189.881364 35.359534 
L 189.881562 35.360448 
L 189.973096 35.258222 
L 189.973491 35.261066 
L 190.069563 35.172919 
L 189.977436 35.267119 
L 190.092841 35.205121 
L 190.220082 35.324671 
L 190.101521 35.198372 
L 190.220871 35.322308 
L 190.227973 35.306293 
L 190.303726 35.436914 
L 190.846029 38.150495 
L 191.10998 40.501914 
L 191.394053 43.600575 
L 191.679507 47.090419 
L 191.955887 50.424763 
L 192.484775 55.53229 
L 192.484973 55.532198 
L 192.501938 55.645249 
L 192.700197 56.790153 
L 192.700395 56.78981 
L 192.700592 56.789271 
L 192.744584 56.991502 
L 192.745176 56.990052 
L 193.185686 57.920739 
L 192.748135 56.987407 
L 193.227311 57.886102 
L 193.33226 57.829163 
L 193.247038 57.891979 
L 193.342715 57.83493 
L 193.347055 57.840982 
L 193.418074 57.77426 
L 193.447073 57.78331 
L 193.795457 57.363515 
L 193.796246 57.367882 
L 193.797824 57.371667 
L 193.891331 57.177469 
L 193.892318 57.179851 
L 194.028042 56.95853 
L 193.893107 57.181967 
L 194.028239 56.958756 
L 194.030014 56.964128 
L 194.104584 56.86622 
L 194.105767 56.866985 
L 194.239321 56.576556 
L 194.239913 56.57739 
L 195.164334 54.094728 
L 195.431047 52.989987 
L 195.167096 54.097084 
L 195.431639 52.990829 
L 195.546254 52.48801 
L 195.723208 51.69747 
L 195.755758 51.531395 
L 195.755955 51.531673 
L 195.952439 50.586219 
L 195.978479 50.460712 
L 196.861276 45.311621 
L 197.279297 42.415111 
L 197.279494 42.416306 
L 197.327234 42.025015 
L 197.612491 39.842427 
L 197.612688 39.844037 
L 197.672462 39.418573 
L 197.970739 37.402068 
L 197.971133 37.402735 
L 198.014336 37.152193 
L 198.170971 36.35981 
L 198.171563 36.360016 
L 198.17176 36.360547 
L 198.213582 36.154255 
L 198.543619 34.811724 
L 198.544408 34.813942 
L 198.544606 34.814991 
L 198.624107 34.646314 
L 198.62529 34.646585 
L 198.745232 34.402561 
L 198.627263 34.646764 
L 198.753321 34.414149 
L 198.755293 34.405959 
L 198.832032 34.320634 
L 198.94724 34.27997 
L 198.882337 34.337207 
L 198.947437 34.281826 
L 198.959668 34.270348 
L 199.518345 35.359007 
L 199.750535 36.396249 
L 199.750733 36.396016 
L 199.75093 36.395303 
L 199.797289 36.643661 
L 200.992368 46.642589 
L 201.533685 53.407768 
L 202.219209 58.776345 
L 202.219406 58.775852 
L 202.38117 59.016464 
L 202.390245 59.007627 
L 202.393993 59.000884 
L 202.478426 59.096401 
L 202.581797 59.165272 
L 202.490262 59.08805 
L 202.594225 59.138378 
L 202.594422 59.136939 
L 202.648672 59.215791 
L 202.699569 59.186908 
L 203.207941 59.167107 
L 203.308945 59.112531 
L 203.223131 59.186183 
L 203.324135 59.118935 
L 203.477416 59.053844 
L 203.334787 59.135975 
L 203.478008 59.054567 
L 203.488069 59.061486 
L 203.577236 58.978323 
L 203.58059 58.989756 
L 203.658907 58.976734 
L 203.628132 58.95648 
L 203.685539 58.955364 
L 203.79325 58.877677 
L 203.693824 58.95844 
L 203.800352 58.882123 
L 203.883798 58.859252 
L 203.811991 58.8623 
L 203.898594 58.830954 
L 204.019916 58.676211 
L 203.925817 58.836332 
L 204.02761 58.68944 
L 205.426472 55.679484 
L 205.42667 55.679696 
L 205.586658 55.140854 
L 205.587053 55.143913 
L 205.655704 54.925632 
L 206.138628 52.741806 
L 207.312796 42.595299 
L 207.556823 39.503733 
L 207.579312 39.20737 
L 207.805387 36.073641 
L 208.916625 23.023193 
L 208.916823 23.02403 
L 208.963379 22.737363 
L 209.144081 21.915605 
L 209.145857 21.917203 
L 209.148027 21.919206 
L 209.226936 21.775348 
L 209.227133 21.775925 
L 209.254949 21.745562 
L 209.334647 21.789646 
L 209.337803 21.785562 
L 209.338 21.784832 
L 209.415331 21.918974 
L 209.41691 21.917455 
L 209.934948 27.055314 
L 211.342688 60.039184 
L 211.501296 60.216337 
L 211.504255 60.213092 
L 211.522996 60.187214 
L 211.50603 60.213892 
L 211.615714 60.21149 
L 211.638006 60.212807 
L 211.673712 60.170813 
L 211.724214 60.188224 
L 211.756172 60.177685 
L 211.82364 60.229269 
L 211.834292 60.203913 
L 212.19471 60.187934 
L 212.197077 60.196331 
L 212.318992 60.197112 
L 212.206941 60.186815 
L 212.321359 60.18829 
L 212.539543 60.15223 
L 212.546645 60.166032 
L 212.554339 60.177504 
L 212.645479 60.109094 
L 212.654948 60.133624 
L 212.760292 60.084911 
L 212.720245 60.141046 
L 212.769761 60.091319 
L 212.911205 60.073316 
L 212.771142 60.088724 
L 212.912586 60.06665 
L 213.023256 60.043355 
L 212.934089 60.087707 
L 213.025624 60.048511 
L 213.031542 60.055251 
L 213.092302 60.018707 
L 213.135702 60.033112 
L 213.262154 59.950277 
L 213.262943 59.946267 
L 213.370457 59.929569 
L 213.299241 59.966615 
L 213.376967 59.932258 
L 213.480338 59.932877 
L 213.397286 59.916792 
L 213.488623 59.920812 
L 213.58943 59.844825 
L 213.49612 59.92494 
L 213.605606 59.852507 
L 213.655122 59.858145 
L 213.702073 59.788701 
L 213.710161 59.789303 
L 213.832865 59.698466 
L 213.833456 59.699407 
L 213.953004 59.680165 
L 213.840164 59.675328 
L 213.958922 59.663678 
L 214.068014 59.546198 
L 213.963854 59.669653 
L 214.077286 59.554584 
L 214.404167 59.356375 
L 214.405351 59.360497 
L 214.405548 59.36257 
L 214.502014 59.23525 
L 214.505368 59.239117 
L 214.617222 59.151741 
L 214.505763 59.24115 
L 214.627085 59.164401 
L 214.630636 59.173595 
L 214.724144 59.081803 
L 214.732626 59.091745 
L 214.89439 58.969891 
L 214.733416 59.096984 
L 214.895771 58.976204 
L 214.898336 58.984837 
L 214.998945 58.857008 
L 214.999142 58.857563 
L 215.187538 58.640945 
L 215.188327 58.64405 
L 215.189905 58.651025 
L 215.282426 58.562362 
L 215.29229 58.568387 
L 215.437088 58.351848 
L 215.437877 58.353828 
L 215.514419 58.190693 
L 215.514616 58.191008 
L 215.572615 58.074528 
L 215.706366 57.810034 
L 215.706563 57.810403 
L 215.707944 57.818157 
L 215.779159 57.652795 
L 215.923169 57.277724 
L 215.923366 57.278165 
L 215.979786 57.132684 
L 216.131686 56.679192 
L 216.131883 56.679936 
L 216.132081 56.680949 
L 216.198956 56.443943 
L 216.199154 56.444118 
L 216.223221 56.319419 
L 216.381236 55.694159 
L 216.38242 55.695684 
L 216.608495 54.567878 
L 216.609087 54.56836 
L 216.986667 52.2485 
L 216.986864 52.248731 
L 217.00817 52.103082 
L 217.420273 48.728424 
L 217.42047 48.728718 
L 217.43132 48.614582 
L 217.922727 43.49535 
L 217.922727 43.49535 
" clip-path="url(#p6437eed1ac)" style="fill: none; stroke: #000000; stroke-width: 0.75; stroke-linecap: square"/>
   </g>
   <g id="LineCollection_1">
    <path d="M 85.75005 60.467671 
L 85.75005 11.16 
" clip-path="url(#p6437eed1ac)" style="fill: none; stroke-dasharray: 2.59,1.12; stroke-dashoffset: 0; stroke: #808080; stroke-width: 0.7"/>
    <path d="M 105.280072 60.467671 
L 105.280072 11.16 
" clip-path="url(#p6437eed1ac)" style="fill: none; stroke-dasharray: 2.59,1.12; stroke-dashoffset: 0; stroke: #808080; stroke-width: 0.7"/>
    <path d="M 124.810094 60.467671 
L 124.810094 11.16 
" clip-path="url(#p6437eed1ac)" style="fill: none; stroke-dasharray: 2.59,1.12; stroke-dashoffset: 0; stroke: #808080; stroke-width: 0.7"/>
    <path d="M 144.340116 60.467671 
L 144.340116 11.16 
" clip-path="url(#p6437eed1ac)" style="fill: none; stroke-dasharray: 2.59,1.12; stroke-dashoffset: 0; stroke: #808080; stroke-width: 0.7"/>
   </g>
   <g id="LineCollection_2">
    <path d="M 85.75005 61.56 
L 85.75005 14.83755 
" clip-path="url(#p6437eed1ac)" style="fill: none; stroke-dasharray: 5.55,2.4; stroke-dashoffset: 0; stroke: #808080; stroke-width: 1.5"/>
    <path d="M 168.604688 61.56 
L 168.604688 14.83755 
" clip-path="url(#p6437eed1ac)" style="fill: none; stroke-dasharray: 5.55,2.4; stroke-dashoffset: 0; stroke: #808080; stroke-width: 1.5"/>
   </g>
   <g id="patch_3">
    <path d="M 31.5 64.08 
L 31.5 8.64 
" style="fill: none; stroke: #000000; stroke-width: 0.5; stroke-linejoin: miter; stroke-linecap: square"/>
   </g>
   <g id="patch_4">
    <path d="M 31.5 64.08 
L 226.8 64.08 
" style="fill: none; stroke: #000000; stroke-width: 0.5; stroke-linejoin: miter; stroke-linecap: square"/>
   </g>
  </g>
 </g>
 <defs>
  <clipPath id="p6437eed1ac">
   <rect x="31.5" y="8.64" width="195.3" height="55.44"/>
  </clipPath>
 </defs>
</svg>
