<?xml version="1.0" encoding="utf-8" standalone="no"?>
<!DOCTYPE svg PUBLIC "-//W3C//DTD SVG 1.1//EN"
  "http://www.w3.org/Graphics/SVG/1.1/DTD/svg11.dtd">
<svg xmlns:xlink="http://www.w3.org/1999/xlink" width="144pt" height="72pt" viewBox="0 0 144 72" xmlns="http://www.w3.org/2000/svg" version="1.1">
 <metadata>
  <rdf:RDF xmlns:dc="http://purl.org/dc/elements/1.1/" xmlns:cc="http://creativecommons.org/ns#" xmlns:rdf="http://www.w3.org/1999/02/22-rdf-syntax-ns#">
   <cc:Work>
    <dc:type rdf:resource="http://purl.org/dc/dcmitype/StillImage"/>
    <dc:date>2024-07-10T09:51:24.385949</dc:date>
    <dc:format>image/svg+xml</dc:format>
    <dc:creator>
     <cc:Agent>
      <dc:title>Matplotlib v3.8.3, https://matplotlib.org/</dc:title>
     </cc:Agent>
    </dc:creator>
   </cc:Work>
  </rdf:RDF>
 </metadata>
 <defs>
  <style type="text/css">*{stroke-linejoin: round; stroke-linecap: butt}</style>
 </defs>
 <g id="figure_1">
  <g id="patch_1">
   <path d="M 0 72 
L 144 72 
L 144 0 
L 0 0 
z
" style="fill: #ffffff"/>
  </g>
  <g id="axes_1">
   <g id="matplotlib.axis_1"/>
   <g id="matplotlib.axis_2"/>
   <g id="line2d_1">
    <path d="M 17.997464 54.783202 
L 18.621409 53.00716 
L 19.2555 50.49234 
L 19.930173 46.846302 
L 20.693618 41.40567 
L 21.733527 32.1841 
L 23.067655 20.676512 
L 23.600291 17.839978 
L 23.945236 16.987841 
L 24.148145 16.919941 
L 24.318082 17.131799 
L 24.553964 17.852189 
L 24.873545 19.643812 
L 25.292045 23.401018 
L 25.850045 30.645253 
L 26.882345 47.703746 
L 27.488536 55.764338 
L 27.818264 57.697113 
L 28.084582 58.167349 
L 28.353436 58.228879 
L 28.784618 58.059921 
L 29.461827 57.544382 
L 30.174545 56.718347 
L 30.866973 55.563337 
L 31.554327 53.965312 
L 32.261973 51.727313 
L 33.022882 48.538879 
L 33.908073 43.798476 
L 35.470473 33.893712 
L 36.360736 29.0684 
L 36.878155 27.325128 
L 37.215491 26.826099 
L 37.431082 26.823702 
L 37.639064 27.079884 
L 37.910455 27.823093 
L 38.263009 29.517926 
L 38.711945 32.890774 
L 39.297845 39.168262 
L 40.893218 57.350143 
L 41.192509 58.170991 
L 41.4918 58.408594 
L 41.943273 58.448695 
L 42.727009 58.279268 
L 43.571618 57.87398 
L 44.342673 57.25679 
L 45.040173 56.407237 
L 45.689482 55.251752 
L 46.315964 53.659715 
L 46.944982 51.417718 
L 47.6019 48.200768 
L 48.3273 43.458912 
L 49.225173 35.975819 
L 51.135055 19.614659 
L 51.609355 17.47643 
L 51.911182 16.928653 
L 52.088727 16.947754 
L 52.271345 17.250534 
L 52.527518 18.1808 
L 52.872464 20.389626 
L 53.3214 24.869934 
L 53.932664 33.460326 
L 55.502673 56.654537 
L 55.801964 57.91734 
L 56.060673 58.209928 
L 56.357427 58.206522 
L 56.874845 57.940257 
L 57.582491 57.32219 
L 58.2876 56.404618 
L 58.977491 55.127149 
L 59.669918 53.352614 
L 60.390245 50.859201 
L 61.179055 47.275867 
L 62.1378 41.794467 
L 64.357118 28.667336 
L 64.841564 27.1886 
L 65.156073 26.805752 
L 65.361518 26.844892 
L 65.577109 27.155589 
L 65.861182 28.015436 
L 66.228955 29.928508 
L 66.695645 33.665693 
L 67.314518 40.624285 
L 68.706982 56.916908 
L 69.018955 58.046271 
L 69.310636 58.373057 
L 69.6987 58.453985 
L 70.408882 58.346375 
L 71.263636 57.996788 
L 72.054982 57.433511 
L 72.7677 56.649438 
L 73.424618 55.586256 
L 74.053636 54.126407 
L 74.680118 52.077814 
L 75.326891 49.154395 
L 76.029464 44.878282 
L 76.861391 38.327107 
L 79.253182 18.456941 
L 79.651391 17.131531 
L 79.894882 16.904701 
L 80.057209 17.026936 
L 80.267727 17.530247 
L 80.559409 18.895363 
L 80.944936 21.902662 
L 81.449673 27.784092 
L 82.192827 39.420686 
L 83.232736 55.240049 
L 83.577682 57.557832 
L 83.849073 58.137427 
L 84.110318 58.232728 
L 84.505991 58.102939 
L 85.162909 57.635087 
L 85.878164 56.849349 
L 86.573127 55.744004 
L 87.260482 54.214349 
L 87.963055 52.08054 
L 88.713818 49.047824 
L 89.573645 44.583028 
L 90.836755 36.658124 
L 92.021236 29.701285 
L 92.586845 27.553931 
L 92.957155 26.870923 
L 93.193036 26.804868 
L 93.393409 27.000993 
L 93.649582 27.614776 
L 93.984382 29.067047 
L 94.410491 32.011545 
L 94.960882 37.53508 
L 95.879045 49.480618 
L 96.505527 56.266955 
L 96.840327 57.865095 
L 97.129473 58.32004 
L 97.471882 58.447336 
L 98.083145 58.40029 
L 98.932827 58.11475 
L 99.747 57.608232 
L 100.480009 56.887547 
L 101.149609 55.908993 
L 101.7837 54.572418 
L 102.407645 52.711237 
L 103.046809 50.060871 
L 103.729091 46.219986 
L 104.512827 40.436749 
L 105.664336 30.011049 
L 106.772727 20.64234 
L 107.302827 17.83059 
L 107.645236 16.987841 
L 107.848145 16.919941 
L 108.018082 17.131799 
L 108.253964 17.852189 
L 108.573545 19.643812 
L 108.992045 23.401018 
L 109.550045 30.645253 
L 110.582345 47.703746 
L 111.188536 55.764338 
L 111.518264 57.697113 
L 111.784582 58.167349 
L 112.053436 58.228879 
L 112.484618 58.059921 
L 113.161827 57.544382 
L 113.874545 56.718347 
L 114.566973 55.563337 
L 115.254327 53.965312 
L 115.961973 51.727313 
L 116.722882 48.538879 
L 117.608073 43.798476 
L 119.170473 33.893712 
L 120.060736 29.0684 
L 120.578155 27.325128 
L 120.915491 26.826099 
L 121.131082 26.823702 
L 121.339064 27.079884 
L 121.610455 27.823093 
L 121.963009 29.517926 
L 122.411945 32.890774 
L 122.997845 39.168262 
L 124.593218 57.350143 
L 124.892509 58.170991 
L 125.1918 58.408594 
L 125.643273 58.448695 
L 126.427009 58.279268 
L 127.271618 57.87398 
L 128.042673 57.25679 
L 128.740173 56.407237 
L 129.389482 55.251752 
L 129.597464 54.783202 
L 129.597464 54.783202 
" clip-path="url(#pfe889fe831)" style="fill: none; stroke: #000000; stroke-width: 1.5; stroke-linecap: square"/>
   </g>
   <g id="LineCollection_1">
    <path clip-path="url(#pfe889fe831)" style="fill: none; stroke-dasharray: 5.55,2.4; stroke-dashoffset: 0; stroke: #808080; stroke-width: 1.5"/>
    <path clip-path="url(#pfe889fe831)" style="fill: none; stroke-dasharray: 5.55,2.4; stroke-dashoffset: 0; stroke: #808080; stroke-width: 1.5"/>
    <path clip-path="url(#pfe889fe831)" style="fill: none; stroke-dasharray: 5.55,2.4; stroke-dashoffset: 0; stroke: #808080; stroke-width: 1.5"/>
    <path clip-path="url(#pfe889fe831)" style="fill: none; stroke-dasharray: 5.55,2.4; stroke-dashoffset: 0; stroke: #808080; stroke-width: 1.5"/>
    <path clip-path="url(#pfe889fe831)" style="fill: none; stroke-dasharray: 5.55,2.4; stroke-dashoffset: 0; stroke: #808080; stroke-width: 1.5"/>
    <path clip-path="url(#pfe889fe831)" style="fill: none; stroke-dasharray: 5.55,2.4; stroke-dashoffset: 0; stroke: #808080; stroke-width: 1.5"/>
    <path clip-path="url(#pfe889fe831)" style="fill: none; stroke-dasharray: 5.55,2.4; stroke-dashoffset: 0; stroke: #808080; stroke-width: 1.5"/>
    <path clip-path="url(#pfe889fe831)" style="fill: none; stroke-dasharray: 5.55,2.4; stroke-dashoffset: 0; stroke: #808080; stroke-width: 1.5"/>
    <path clip-path="url(#pfe889fe831)" style="fill: none; stroke-dasharray: 5.55,2.4; stroke-dashoffset: 0; stroke: #808080; stroke-width: 1.5"/>
    <path clip-path="url(#pfe889fe831)" style="fill: none; stroke-dasharray: 5.55,2.4; stroke-dashoffset: 0; stroke: #808080; stroke-width: 1.5"/>
    <path clip-path="url(#pfe889fe831)" style="fill: none; stroke-dasharray: 5.55,2.4; stroke-dashoffset: 0; stroke: #808080; stroke-width: 1.5"/>
    <path clip-path="url(#pfe889fe831)" style="fill: none; stroke-dasharray: 5.55,2.4; stroke-dashoffset: 0; stroke: #808080; stroke-width: 1.5"/>
    <path clip-path="url(#pfe889fe831)" style="fill: none; stroke-dasharray: 5.55,2.4; stroke-dashoffset: 0; stroke: #808080; stroke-width: 1.5"/>
    <path clip-path="url(#pfe889fe831)" style="fill: none; stroke-dasharray: 5.55,2.4; stroke-dashoffset: 0; stroke: #808080; stroke-width: 1.5"/>
    <path clip-path="url(#pfe889fe831)" style="fill: none; stroke-dasharray: 5.55,2.4; stroke-dashoffset: 0; stroke: #808080; stroke-width: 1.5"/>
    <path clip-path="url(#pfe889fe831)" style="fill: none; stroke-dasharray: 5.55,2.4; stroke-dashoffset: 0; stroke: #808080; stroke-width: 1.5"/>
    <path d="M 18 61.56 
L 18 11.16 
" clip-path="url(#pfe889fe831)" style="fill: none; stroke-dasharray: 5.55,2.4; stroke-dashoffset: 0; stroke: #808080; stroke-width: 1.5"/>
    <path d="M 45.9 61.56 
L 45.9 11.16 
" clip-path="url(#pfe889fe831)" style="fill: none; stroke-dasharray: 5.55,2.4; stroke-dashoffset: 0; stroke: #808080; stroke-width: 1.5"/>
    <path d="M 73.8 61.56 
L 73.8 11.16 
" clip-path="url(#pfe889fe831)" style="fill: none; stroke-dasharray: 5.55,2.4; stroke-dashoffset: 0; stroke: #808080; stroke-width: 1.5"/>
    <path d="M 101.7 61.56 
L 101.7 11.16 
" clip-path="url(#pfe889fe831)" style="fill: none; stroke-dasharray: 5.55,2.4; stroke-dashoffset: 0; stroke: #808080; stroke-width: 1.5"/>
   </g>
  </g>
 </g>
 <defs>
  <clipPath id="pfe889fe831">
   <rect x="18" y="8.64" width="111.6" height="55.44"/>
  </clipPath>
 </defs>
</svg>
