<?xml version="1.0" encoding="utf-8" standalone="no"?>
<!DOCTYPE svg PUBLIC "-//W3C//DTD SVG 1.1//EN"
  "http://www.w3.org/Graphics/SVG/1.1/DTD/svg11.dtd">
<svg xmlns:xlink="http://www.w3.org/1999/xlink" width="252pt" height="72pt" viewBox="0 0 252 72" xmlns="http://www.w3.org/2000/svg" version="1.1">
 <metadata>
  <rdf:RDF xmlns:dc="http://purl.org/dc/elements/1.1/" xmlns:cc="http://creativecommons.org/ns#" xmlns:rdf="http://www.w3.org/1999/02/22-rdf-syntax-ns#">
   <cc:Work>
    <dc:type rdf:resource="http://purl.org/dc/dcmitype/StillImage"/>
    <dc:date>2024-07-10T09:28:49.131003</dc:date>
    <dc:format>image/svg+xml</dc:format>
    <dc:creator>
     <cc:Agent>
      <dc:title>Matplotlib v3.8.3, https://matplotlib.org/</dc:title>
     </cc:Agent>
    </dc:creator>
   </cc:Work>
  </rdf:RDF>
 </metadata>
 <defs>
  <style type="text/css">*{stroke-linejoin: round; stroke-linecap: butt}</style>
 </defs>
 <g id="figure_1">
  <g id="patch_1">
   <path d="M 0 72 
L 252 72 
L 252 0 
L 0 0 
z
" style="fill: #ffffff"/>
  </g>
  <g id="axes_1">
   <g id="patch_2">
    <path d="M 31.5 64.08 
L 226.8 64.08 
L 226.8 8.64 
L 31.5 8.64 
z
" style="fill: #fffdee"/>
   </g>
   <g id="matplotlib.axis_1">
    <g id="xtick_1">
     <g id="line2d_1">
      <defs>
       <path id="mafa6748ded" d="M 0 0 
L 0 3.5 
" style="stroke: #000000; stroke-width: 0.5"/>
      </defs>
      <g>
       <use xlink:href="#mafa6748ded" x="40.377273" y="64.08" style="stroke: #000000; stroke-width: 0.5"/>
      </g>
     </g>
     <g id="text_1">
      <!-- 0 -->
      <g transform="translate(38.786648 74.879219) scale(0.05 -0.05)">
       <defs>
        <path id="DejaVuSans-30" d="M 2034 4250 
Q 1547 4250 1301 3770 
Q 1056 3291 1056 2328 
Q 1056 1369 1301 889 
Q 1547 409 2034 409 
Q 2525 409 2770 889 
Q 3016 1369 3016 2328 
Q 3016 3291 2770 3770 
Q 2525 4250 2034 4250 
z
M 2034 4750 
Q 2819 4750 3233 4129 
Q 3647 3509 3647 2328 
Q 3647 1150 3233 529 
Q 2819 -91 2034 -91 
Q 1250 -91 836 529 
Q 422 1150 422 2328 
Q 422 3509 836 4129 
Q 1250 4750 2034 4750 
z
" transform="scale(0.015625)"/>
       </defs>
       <use xlink:href="#DejaVuSans-30"/>
      </g>
     </g>
    </g>
    <g id="xtick_2">
     <g id="line2d_2">
      <g>
       <use xlink:href="#mafa6748ded" x="65.740945" y="64.08" style="stroke: #000000; stroke-width: 0.5"/>
      </g>
     </g>
     <g id="text_2">
      <!-- 10 -->
      <g transform="translate(62.559695 74.879219) scale(0.05 -0.05)">
       <defs>
        <path id="DejaVuSans-31" d="M 794 531 
L 1825 531 
L 1825 4091 
L 703 3866 
L 703 4441 
L 1819 4666 
L 2450 4666 
L 2450 531 
L 3481 531 
L 3481 0 
L 794 0 
L 794 531 
z
" transform="scale(0.015625)"/>
       </defs>
       <use xlink:href="#DejaVuSans-31"/>
       <use xlink:href="#DejaVuSans-30" x="63.623047"/>
      </g>
     </g>
    </g>
    <g id="xtick_3">
     <g id="line2d_3">
      <g>
       <use xlink:href="#mafa6748ded" x="91.104618" y="64.08" style="stroke: #000000; stroke-width: 0.5"/>
      </g>
     </g>
     <g id="text_3">
      <!-- 20 -->
      <g transform="translate(87.923368 74.879219) scale(0.05 -0.05)">
       <defs>
        <path id="DejaVuSans-32" d="M 1228 531 
L 3431 531 
L 3431 0 
L 469 0 
L 469 531 
Q 828 903 1448 1529 
Q 2069 2156 2228 2338 
Q 2531 2678 2651 2914 
Q 2772 3150 2772 3378 
Q 2772 3750 2511 3984 
Q 2250 4219 1831 4219 
Q 1534 4219 1204 4116 
Q 875 4013 500 3803 
L 500 4441 
Q 881 4594 1212 4672 
Q 1544 4750 1819 4750 
Q 2544 4750 2975 4387 
Q 3406 4025 3406 3419 
Q 3406 3131 3298 2873 
Q 3191 2616 2906 2266 
Q 2828 2175 2409 1742 
Q 1991 1309 1228 531 
z
" transform="scale(0.015625)"/>
       </defs>
       <use xlink:href="#DejaVuSans-32"/>
       <use xlink:href="#DejaVuSans-30" x="63.623047"/>
      </g>
     </g>
    </g>
    <g id="xtick_4">
     <g id="line2d_4">
      <g>
       <use xlink:href="#mafa6748ded" x="116.468291" y="64.08" style="stroke: #000000; stroke-width: 0.5"/>
      </g>
     </g>
     <g id="text_4">
      <!-- 30 -->
      <g transform="translate(113.287041 74.879219) scale(0.05 -0.05)">
       <defs>
        <path id="DejaVuSans-33" d="M 2597 2516 
Q 3050 2419 3304 2112 
Q 3559 1806 3559 1356 
Q 3559 666 3084 287 
Q 2609 -91 1734 -91 
Q 1441 -91 1130 -33 
Q 819 25 488 141 
L 488 750 
Q 750 597 1062 519 
Q 1375 441 1716 441 
Q 2309 441 2620 675 
Q 2931 909 2931 1356 
Q 2931 1769 2642 2001 
Q 2353 2234 1838 2234 
L 1294 2234 
L 1294 2753 
L 1863 2753 
Q 2328 2753 2575 2939 
Q 2822 3125 2822 3475 
Q 2822 3834 2567 4026 
Q 2313 4219 1838 4219 
Q 1578 4219 1281 4162 
Q 984 4106 628 3988 
L 628 4550 
Q 988 4650 1302 4700 
Q 1616 4750 1894 4750 
Q 2613 4750 3031 4423 
Q 3450 4097 3450 3541 
Q 3450 3153 3228 2886 
Q 3006 2619 2597 2516 
z
" transform="scale(0.015625)"/>
       </defs>
       <use xlink:href="#DejaVuSans-33"/>
       <use xlink:href="#DejaVuSans-30" x="63.623047"/>
      </g>
     </g>
    </g>
    <g id="xtick_5">
     <g id="line2d_5">
      <g>
       <use xlink:href="#mafa6748ded" x="141.831963" y="64.08" style="stroke: #000000; stroke-width: 0.5"/>
      </g>
     </g>
     <g id="text_5">
      <!-- 40 -->
      <g transform="translate(138.650713 74.879219) scale(0.05 -0.05)">
       <defs>
        <path id="DejaVuSans-34" d="M 2419 4116 
L 825 1625 
L 2419 1625 
L 2419 4116 
z
M 2253 4666 
L 3047 4666 
L 3047 1625 
L 3713 1625 
L 3713 1100 
L 3047 1100 
L 3047 0 
L 2419 0 
L 2419 1100 
L 313 1100 
L 313 1709 
L 2253 4666 
z
" transform="scale(0.015625)"/>
       </defs>
       <use xlink:href="#DejaVuSans-34"/>
       <use xlink:href="#DejaVuSans-30" x="63.623047"/>
      </g>
     </g>
    </g>
    <g id="xtick_6">
     <g id="line2d_6">
      <g>
       <use xlink:href="#mafa6748ded" x="167.195636" y="64.08" style="stroke: #000000; stroke-width: 0.5"/>
      </g>
     </g>
     <g id="text_6">
      <!-- 50 -->
      <g transform="translate(164.014386 74.879219) scale(0.05 -0.05)">
       <defs>
        <path id="DejaVuSans-35" d="M 691 4666 
L 3169 4666 
L 3169 4134 
L 1269 4134 
L 1269 2991 
Q 1406 3038 1543 3061 
Q 1681 3084 1819 3084 
Q 2600 3084 3056 2656 
Q 3513 2228 3513 1497 
Q 3513 744 3044 326 
Q 2575 -91 1722 -91 
Q 1428 -91 1123 -41 
Q 819 9 494 109 
L 494 744 
Q 775 591 1075 516 
Q 1375 441 1709 441 
Q 2250 441 2565 725 
Q 2881 1009 2881 1497 
Q 2881 1984 2565 2268 
Q 2250 2553 1709 2553 
Q 1456 2553 1204 2497 
Q 953 2441 691 2322 
L 691 4666 
z
" transform="scale(0.015625)"/>
       </defs>
       <use xlink:href="#DejaVuSans-35"/>
       <use xlink:href="#DejaVuSans-30" x="63.623047"/>
      </g>
     </g>
    </g>
    <g id="xtick_7">
     <g id="line2d_7">
      <g>
       <use xlink:href="#mafa6748ded" x="192.559308" y="64.08" style="stroke: #000000; stroke-width: 0.5"/>
      </g>
     </g>
     <g id="text_7">
      <!-- 60 -->
      <g transform="translate(189.378058 74.879219) scale(0.05 -0.05)">
       <defs>
        <path id="DejaVuSans-36" d="M 2113 2584 
Q 1688 2584 1439 2293 
Q 1191 2003 1191 1497 
Q 1191 994 1439 701 
Q 1688 409 2113 409 
Q 2538 409 2786 701 
Q 3034 994 3034 1497 
Q 3034 2003 2786 2293 
Q 2538 2584 2113 2584 
z
M 3366 4563 
L 3366 3988 
Q 3128 4100 2886 4159 
Q 2644 4219 2406 4219 
Q 1781 4219 1451 3797 
Q 1122 3375 1075 2522 
Q 1259 2794 1537 2939 
Q 1816 3084 2150 3084 
Q 2853 3084 3261 2657 
Q 3669 2231 3669 1497 
Q 3669 778 3244 343 
Q 2819 -91 2113 -91 
Q 1303 -91 875 529 
Q 447 1150 447 2328 
Q 447 3434 972 4092 
Q 1497 4750 2381 4750 
Q 2619 4750 2861 4703 
Q 3103 4656 3366 4563 
z
" transform="scale(0.015625)"/>
       </defs>
       <use xlink:href="#DejaVuSans-36"/>
       <use xlink:href="#DejaVuSans-30" x="63.623047"/>
      </g>
     </g>
    </g>
    <g id="xtick_8">
     <g id="line2d_8">
      <g>
       <use xlink:href="#mafa6748ded" x="217.922981" y="64.08" style="stroke: #000000; stroke-width: 0.5"/>
      </g>
     </g>
     <g id="text_8">
      <!-- 70 -->
      <g transform="translate(214.741731 74.879219) scale(0.05 -0.05)">
       <defs>
        <path id="DejaVuSans-37" d="M 525 4666 
L 3525 4666 
L 3525 4397 
L 1831 0 
L 1172 0 
L 2766 4134 
L 525 4134 
L 525 4666 
z
" transform="scale(0.015625)"/>
       </defs>
       <use xlink:href="#DejaVuSans-37"/>
       <use xlink:href="#DejaVuSans-30" x="63.623047"/>
      </g>
     </g>
    </g>
    <g id="text_9">
     <!-- Time (h) -->
     <g transform="translate(113.480273 85.617891) scale(0.075 -0.075)">
      <defs>
       <path id="DejaVuSans-54" d="M -19 4666 
L 3928 4666 
L 3928 4134 
L 2272 4134 
L 2272 0 
L 1638 0 
L 1638 4134 
L -19 4134 
L -19 4666 
z
" transform="scale(0.015625)"/>
       <path id="DejaVuSans-69" d="M 603 3500 
L 1178 3500 
L 1178 0 
L 603 0 
L 603 3500 
z
M 603 4863 
L 1178 4863 
L 1178 4134 
L 603 4134 
L 603 4863 
z
" transform="scale(0.015625)"/>
       <path id="DejaVuSans-6d" d="M 3328 2828 
Q 3544 3216 3844 3400 
Q 4144 3584 4550 3584 
Q 5097 3584 5394 3201 
Q 5691 2819 5691 2113 
L 5691 0 
L 5113 0 
L 5113 2094 
Q 5113 2597 4934 2840 
Q 4756 3084 4391 3084 
Q 3944 3084 3684 2787 
Q 3425 2491 3425 1978 
L 3425 0 
L 2847 0 
L 2847 2094 
Q 2847 2600 2669 2842 
Q 2491 3084 2119 3084 
Q 1678 3084 1418 2786 
Q 1159 2488 1159 1978 
L 1159 0 
L 581 0 
L 581 3500 
L 1159 3500 
L 1159 2956 
Q 1356 3278 1631 3431 
Q 1906 3584 2284 3584 
Q 2666 3584 2933 3390 
Q 3200 3197 3328 2828 
z
" transform="scale(0.015625)"/>
       <path id="DejaVuSans-65" d="M 3597 1894 
L 3597 1613 
L 953 1613 
Q 991 1019 1311 708 
Q 1631 397 2203 397 
Q 2534 397 2845 478 
Q 3156 559 3463 722 
L 3463 178 
Q 3153 47 2828 -22 
Q 2503 -91 2169 -91 
Q 1331 -91 842 396 
Q 353 884 353 1716 
Q 353 2575 817 3079 
Q 1281 3584 2069 3584 
Q 2775 3584 3186 3129 
Q 3597 2675 3597 1894 
z
M 3022 2063 
Q 3016 2534 2758 2815 
Q 2500 3097 2075 3097 
Q 1594 3097 1305 2825 
Q 1016 2553 972 2059 
L 3022 2063 
z
" transform="scale(0.015625)"/>
       <path id="DejaVuSans-20" transform="scale(0.015625)"/>
       <path id="DejaVuSans-28" d="M 1984 4856 
Q 1566 4138 1362 3434 
Q 1159 2731 1159 2009 
Q 1159 1288 1364 580 
Q 1569 -128 1984 -844 
L 1484 -844 
Q 1016 -109 783 600 
Q 550 1309 550 2009 
Q 550 2706 781 3412 
Q 1013 4119 1484 4856 
L 1984 4856 
z
" transform="scale(0.015625)"/>
       <path id="DejaVuSans-68" d="M 3513 2113 
L 3513 0 
L 2938 0 
L 2938 2094 
Q 2938 2591 2744 2837 
Q 2550 3084 2163 3084 
Q 1697 3084 1428 2787 
Q 1159 2491 1159 1978 
L 1159 0 
L 581 0 
L 581 4863 
L 1159 4863 
L 1159 2956 
Q 1366 3272 1645 3428 
Q 1925 3584 2291 3584 
Q 2894 3584 3203 3211 
Q 3513 2838 3513 2113 
z
" transform="scale(0.015625)"/>
       <path id="DejaVuSans-29" d="M 513 4856 
L 1013 4856 
Q 1481 4119 1714 3412 
Q 1947 2706 1947 2009 
Q 1947 1309 1714 600 
Q 1481 -109 1013 -844 
L 513 -844 
Q 928 -128 1133 580 
Q 1338 1288 1338 2009 
Q 1338 2731 1133 3434 
Q 928 4138 513 4856 
z
" transform="scale(0.015625)"/>
      </defs>
      <use xlink:href="#DejaVuSans-54"/>
      <use xlink:href="#DejaVuSans-69" x="57.958984"/>
      <use xlink:href="#DejaVuSans-6d" x="85.742188"/>
      <use xlink:href="#DejaVuSans-65" x="183.154297"/>
      <use xlink:href="#DejaVuSans-20" x="244.677734"/>
      <use xlink:href="#DejaVuSans-28" x="276.464844"/>
      <use xlink:href="#DejaVuSans-68" x="315.478516"/>
      <use xlink:href="#DejaVuSans-29" x="378.857422"/>
     </g>
    </g>
   </g>
   <g id="matplotlib.axis_2">
    <g id="ytick_1">
     <g id="line2d_9">
      <defs>
       <path id="m8fcbe73a9e" d="M 0 0 
L -3.5 0 
" style="stroke: #000000; stroke-width: 0.5"/>
      </defs>
      <g>
       <use xlink:href="#m8fcbe73a9e" x="31.5" y="61.56" style="stroke: #000000; stroke-width: 0.5"/>
      </g>
     </g>
     <g id="text_10">
      <!-- 0 -->
      <g transform="translate(21.31875 63.459609) scale(0.05 -0.05)">
       <use xlink:href="#DejaVuSans-30"/>
      </g>
     </g>
    </g>
    <g id="ytick_2">
     <g id="line2d_10">
      <g>
       <use xlink:href="#m8fcbe73a9e" x="31.5" y="42.284829" style="stroke: #000000; stroke-width: 0.5"/>
      </g>
     </g>
     <g id="text_11">
      <!-- 2 -->
      <g transform="translate(21.31875 44.184439) scale(0.05 -0.05)">
       <use xlink:href="#DejaVuSans-32"/>
      </g>
     </g>
    </g>
    <g id="ytick_3">
     <g id="line2d_11">
      <g>
       <use xlink:href="#m8fcbe73a9e" x="31.5" y="23.009659" style="stroke: #000000; stroke-width: 0.5"/>
      </g>
     </g>
     <g id="text_12">
      <!-- 4 -->
      <g transform="translate(21.31875 24.909268) scale(0.05 -0.05)">
       <use xlink:href="#DejaVuSans-34"/>
      </g>
     </g>
    </g>
    <g id="text_13">
     <!-- p53 (a.u.) -->
     <g transform="translate(15.758984 54.688711) rotate(-90) scale(0.075 -0.075)">
      <defs>
       <path id="DejaVuSans-70" d="M 1159 525 
L 1159 -1331 
L 581 -1331 
L 581 3500 
L 1159 3500 
L 1159 2969 
Q 1341 3281 1617 3432 
Q 1894 3584 2278 3584 
Q 2916 3584 3314 3078 
Q 3713 2572 3713 1747 
Q 3713 922 3314 415 
Q 2916 -91 2278 -91 
Q 1894 -91 1617 61 
Q 1341 213 1159 525 
z
M 3116 1747 
Q 3116 2381 2855 2742 
Q 2594 3103 2138 3103 
Q 1681 3103 1420 2742 
Q 1159 2381 1159 1747 
Q 1159 1113 1420 752 
Q 1681 391 2138 391 
Q 2594 391 2855 752 
Q 3116 1113 3116 1747 
z
" transform="scale(0.015625)"/>
       <path id="DejaVuSans-61" d="M 2194 1759 
Q 1497 1759 1228 1600 
Q 959 1441 959 1056 
Q 959 750 1161 570 
Q 1363 391 1709 391 
Q 2188 391 2477 730 
Q 2766 1069 2766 1631 
L 2766 1759 
L 2194 1759 
z
M 3341 1997 
L 3341 0 
L 2766 0 
L 2766 531 
Q 2569 213 2275 61 
Q 1981 -91 1556 -91 
Q 1019 -91 701 211 
Q 384 513 384 1019 
Q 384 1609 779 1909 
Q 1175 2209 1959 2209 
L 2766 2209 
L 2766 2266 
Q 2766 2663 2505 2880 
Q 2244 3097 1772 3097 
Q 1472 3097 1187 3025 
Q 903 2953 641 2809 
L 641 3341 
Q 956 3463 1253 3523 
Q 1550 3584 1831 3584 
Q 2591 3584 2966 3190 
Q 3341 2797 3341 1997 
z
" transform="scale(0.015625)"/>
       <path id="DejaVuSans-2e" d="M 684 794 
L 1344 794 
L 1344 0 
L 684 0 
L 684 794 
z
" transform="scale(0.015625)"/>
       <path id="DejaVuSans-75" d="M 544 1381 
L 544 3500 
L 1119 3500 
L 1119 1403 
Q 1119 906 1312 657 
Q 1506 409 1894 409 
Q 2359 409 2629 706 
Q 2900 1003 2900 1516 
L 2900 3500 
L 3475 3500 
L 3475 0 
L 2900 0 
L 2900 538 
Q 2691 219 2414 64 
Q 2138 -91 1772 -91 
Q 1169 -91 856 284 
Q 544 659 544 1381 
z
M 1991 3584 
L 1991 3584 
z
" transform="scale(0.015625)"/>
      </defs>
      <use xlink:href="#DejaVuSans-70"/>
      <use xlink:href="#DejaVuSans-35" x="63.476562"/>
      <use xlink:href="#DejaVuSans-33" x="127.099609"/>
      <use xlink:href="#DejaVuSans-20" x="190.722656"/>
      <use xlink:href="#DejaVuSans-28" x="222.509766"/>
      <use xlink:href="#DejaVuSans-61" x="261.523438"/>
      <use xlink:href="#DejaVuSans-2e" x="322.802734"/>
      <use xlink:href="#DejaVuSans-75" x="354.589844"/>
      <use xlink:href="#DejaVuSans-2e" x="417.96875"/>
      <use xlink:href="#DejaVuSans-29" x="449.755859"/>
     </g>
    </g>
   </g>
   <g id="line2d_12">
    <path d="M 40.377273 58.734272 
L 40.379048 58.740105 
L 40.461734 58.657528 
L 40.463763 58.660096 
L 40.571558 58.626042 
L 40.480503 58.66784 
L 40.578914 58.633987 
L 40.645874 58.613986 
L 40.579675 58.634892 
L 40.691529 58.638802 
L 40.756713 58.667238 
L 40.69508 58.633314 
L 40.807441 58.645814 
L 40.976616 58.734882 
L 40.812006 58.637195 
L 40.978138 58.730087 
L 41.089738 58.725325 
L 41.034445 58.752164 
L 41.092782 58.727331 
L 41.204889 58.748033 
L 41.115102 58.714565 
L 41.205904 58.744167 
L 41.270328 58.704588 
L 41.207679 58.74602 
L 41.317758 58.741763 
L 41.470701 58.813212 
L 41.471969 58.819203 
L 41.606396 58.888382 
L 41.60665 58.887112 
L 41.718504 58.857023 
L 41.608933 58.889418 
L 41.722816 58.874987 
L 41.784196 58.907156 
L 41.725098 58.874351 
L 41.838981 58.886944 
L 41.874237 58.870118 
L 41.924457 58.911459 
L 41.947538 58.909013 
L 42.040369 58.909936 
L 41.95185 58.898831 
L 42.058377 58.891334 
L 42.078161 58.860931 
L 42.108851 58.914617 
L 42.169216 58.900963 
L 42.605979 58.761559 
L 42.701092 58.740865 
L 42.636922 58.783344 
L 42.718593 58.753825 
L 42.892335 58.657005 
L 42.903495 58.682528 
L 42.905777 58.687855 
L 43.001145 58.591122 
L 43.001906 58.591851 
L 43.112491 58.535096 
L 43.116803 58.543549 
L 43.119339 58.549258 
L 43.456169 58.321965 
L 43.463778 58.329209 
L 43.558892 58.216123 
L 43.559145 58.21717 
L 43.678101 58.164648 
L 43.560414 58.222172 
L 43.690783 58.179374 
L 43.704733 58.177017 
L 43.785389 58.111794 
L 43.786658 58.112043 
L 43.900033 58.05726 
L 43.903584 58.058924 
L 43.903838 58.059774 
L 43.995908 57.980001 
L 44.111566 57.896469 
L 43.997683 57.982051 
L 44.112581 57.902707 
L 44.208709 57.835472 
L 44.208963 57.833041 
L 44.335274 57.716106 
L 44.428612 57.661523 
L 44.434192 57.642808 
L 44.578765 57.482317 
L 45.597117 56.046731 
L 45.722159 55.870836 
L 45.722667 55.873079 
L 45.805099 55.735093 
L 45.807381 55.735721 
L 45.946882 55.409059 
L 45.94815 55.410924 
L 47.19934 50.852255 
L 47.944271 46.712125 
L 47.945285 46.713794 
L 47.945539 46.71674 
L 48.018079 46.265276 
L 48.31382 44.271639 
L 49.430582 37.554211 
L 49.463808 37.381685 
L 49.795312 35.903299 
L 49.864808 35.629544 
L 50.04768 34.892432 
L 50.047934 34.893238 
L 50.097139 34.681061 
L 50.334797 33.842626 
L 50.335051 33.844514 
L 50.71652 32.999446 
L 50.718803 33.005398 
L 50.812902 32.925828 
L 50.820004 32.93307 
L 51.040414 33.05929 
L 51.041936 33.056488 
L 51.04219 33.05389 
L 51.133753 33.250418 
L 51.13426 33.250337 
L 51.384853 34.110526 
L 51.472358 34.560023 
L 51.636968 35.485152 
L 51.637222 35.484824 
L 51.659034 35.634994 
L 51.864987 36.977942 
L 52.093514 38.918787 
L 52.398132 42.114171 
L 52.418676 42.349791 
L 52.865584 48.112736 
L 53.116685 51.493321 
L 53.270388 53.461184 
L 53.598594 56.835903 
L 53.733022 57.83303 
L 54.062242 59.116715 
L 54.062496 59.115731 
L 54.06275 59.114698 
L 54.144167 59.241357 
L 54.145689 59.239821 
L 54.264391 59.31338 
L 55.156177 59.15694 
L 55.275894 59.087097 
L 55.381914 59.092742 
L 55.328904 59.053888 
L 55.387494 59.087615 
L 55.439997 59.095439 
L 55.50087 59.050181 
L 55.545003 59.043988 
L 55.592433 58.993646 
L 55.599027 58.997346 
L 55.772007 58.946321 
L 55.772768 58.947019 
L 55.790269 58.933761 
L 55.889188 58.930096 
L 55.997744 58.862015 
L 55.891217 58.932044 
L 56.006621 58.870368 
L 56.457334 58.795996 
L 56.457588 58.792334 
L 56.568934 58.717966 
L 56.465958 58.793794 
L 56.57426 58.72161 
L 56.65999 58.71015 
L 56.598102 58.703904 
L 56.681295 58.691969 
L 56.796446 58.637445 
L 56.798729 58.639693 
L 56.80507 58.648451 
L 56.887755 58.582581 
L 56.898408 58.586906 
L 57.013813 58.579321 
L 56.931127 58.618184 
L 57.01432 58.583005 
L 57.666167 58.196762 
L 57.015842 58.585975 
L 57.670732 58.204576 
L 57.673015 58.205452 
L 57.754432 58.079739 
L 58.021765 57.803124 
L 58.027092 57.809085 
L 58.033432 57.812289 
L 58.087457 57.730626 
L 58.116372 57.729679 
L 58.456245 57.272502 
L 58.456752 57.275486 
L 58.457513 57.281059 
L 58.550091 57.108375 
L 58.682996 56.933681 
L 58.725861 56.931256 
L 58.755029 56.868935 
L 58.767457 56.861757 
L 58.897066 56.663104 
L 58.898587 56.663887 
L 58.902899 56.666357 
L 58.982541 56.530569 
L 58.987614 56.531172 
L 59.057364 56.401871 
L 59.19027 56.164312 
L 59.0599 56.403148 
L 59.190777 56.164823 
L 59.443145 55.611632 
L 59.443653 55.613538 
L 59.522534 55.381806 
L 59.523041 55.382183 
L 59.523295 55.382898 
L 59.583407 55.221303 
L 59.781243 54.667781 
L 59.585689 55.223643 
L 59.78175 54.672357 
L 59.782004 54.67313 
L 59.83679 54.487081 
L 59.837551 54.488353 
L 60.069882 53.720693 
L 60.070135 53.721085 
L 60.212426 53.225177 
L 60.508927 52.035016 
L 60.510195 52.040405 
L 60.548748 51.901486 
L 60.549002 51.90168 
L 60.729845 51.18313 
L 60.997431 49.916787 
L 61.088487 49.469219 
L 61.702288 46.419596 
L 61.727144 46.284501 
L 61.894037 45.382265 
L 61.894291 45.382907 
L 61.930307 45.17226 
L 62.477909 41.99477 
L 62.478416 41.994876 
L 62.53447 41.652328 
L 62.831478 39.885048 
L 62.953478 39.179686 
L 64.25996 32.403283 
L 64.260214 32.404259 
L 64.323116 32.204496 
L 64.530845 31.478829 
L 64.531352 31.479448 
L 64.531605 31.480042 
L 64.579796 31.311617 
L 64.580304 31.313026 
L 64.757342 30.829141 
L 64.760386 30.836591 
L 64.760639 30.837615 
L 64.836223 30.684027 
L 64.836984 30.686178 
L 64.975216 30.432109 
L 64.978513 30.434963 
L 65.069062 30.324916 
L 65.210337 30.185289 
L 65.069823 30.325853 
L 65.210591 30.186423 
L 65.323967 30.21967 
L 65.220483 30.178851 
L 65.326757 30.216021 
L 65.327264 30.212366 
L 65.42745 30.306195 
L 65.428211 30.303302 
L 65.548435 30.408536 
L 65.45814 30.290933 
L 65.54945 30.404662 
L 65.723952 30.894814 
L 65.724459 30.893965 
L 66.233508 33.344054 
L 66.420945 34.732745 
L 67.474045 46.457397 
L 67.864392 51.419254 
L 67.936932 52.330218 
L 68.420871 57.258315 
L 68.421378 57.258094 
L 69.032643 59.382285 
L 69.034925 59.375997 
L 69.090218 59.363242 
L 69.135366 59.415595 
L 69.142467 59.411341 
L 69.246966 59.465049 
L 69.143989 59.408459 
L 69.262184 59.446999 
L 69.367697 59.422999 
L 69.311643 59.469241 
L 69.376321 59.429242 
L 69.494008 59.417905 
L 69.494515 59.420615 
L 69.62945 59.436127 
L 69.496291 59.424468 
L 69.632747 59.443177 
L 69.643907 59.458888 
L 69.723296 59.395887 
L 69.741304 59.414919 
L 69.854426 59.417036 
L 69.772247 59.442823 
L 69.855187 59.422598 
L 69.917835 59.437425 
L 69.873449 59.40398 
L 69.967801 59.420634 
L 70.6303 59.222341 
L 70.750778 59.134249 
L 70.751032 59.135045 
L 71.004668 58.95473 
L 70.751792 59.136152 
L 71.004922 58.955416 
L 71.007966 58.959023 
L 71.100797 58.845637 
L 71.102318 58.849581 
L 71.253486 58.661194 
L 71.256022 58.664878 
L 71.352658 58.552479 
L 71.353165 58.553238 
L 71.492665 58.375859 
L 71.493426 58.376783 
L 71.496724 58.381715 
L 71.595388 58.301335 
L 71.595642 58.304391 
L 71.597164 58.305654 
L 71.762281 58.034449 
L 72.647727 56.440675 
L 72.824005 55.977888 
L 72.825273 55.978596 
L 72.82578 55.979709 
L 72.890457 55.765056 
L 72.890711 55.766047 
L 73.512121 53.676074 
L 73.720357 52.81416 
L 73.72061 52.814451 
L 73.748257 52.678536 
L 73.919969 51.887122 
L 73.920222 51.888183 
L 73.979573 51.581314 
L 74.379051 49.348859 
L 74.379305 49.349512 
L 74.416082 49.138659 
L 75.410592 43.186782 
L 75.410846 43.188526 
L 75.411099 43.188754 
L 75.432405 43.058789 
L 75.432658 43.059195 
L 75.689846 41.312241 
L 75.97189 39.325842 
L 76.35691 36.49244 
L 76.357164 36.492718 
L 76.375933 36.348572 
L 76.507317 35.438943 
L 76.806608 33.513703 
L 76.806862 33.514035 
L 77.839164 29.26668 
L 77.854889 29.267869 
L 77.923625 29.18294 
L 77.926415 29.188011 
L 78.042327 29.116734 
L 78.047146 29.124687 
L 78.264259 29.155202 
L 78.265527 29.160925 
L 78.266288 29.16047 
L 78.913822 31.593904 
L 79.87333 41.527739 
L 80.280163 47.354775 
L 80.977918 56.543561 
L 81.253875 58.495552 
L 81.254636 58.492184 
L 81.33098 58.802621 
L 81.331488 58.801883 
L 81.49762 59.174328 
L 81.498127 59.172689 
L 81.499141 59.169153 
L 81.581827 59.292662 
L 81.582081 59.290984 
L 81.704841 59.369398 
L 81.706363 59.368443 
L 81.729444 59.361217 
L 81.77383 59.404283 
L 81.814412 59.394524 
L 81.915613 59.431296 
L 81.814919 59.396004 
L 81.92449 59.444967 
L 82.033808 59.487207 
L 81.939708 59.429952 
L 82.039388 59.483585 
L 82.250413 59.458075 
L 82.04167 59.474984 
L 82.251935 59.45291 
L 82.342737 59.427843 
L 82.365565 59.434718 
L 82.507094 59.452209 
L 82.381797 59.421087 
L 82.513435 59.441034 
L 82.610324 59.408175 
L 82.628839 59.425119 
L 82.73765 59.426262 
L 82.646087 59.411305 
L 82.740693 59.42161 
L 82.758194 59.430445 
L 82.860156 59.38572 
L 82.860917 59.385486 
L 82.981394 59.444574 
L 83.108466 59.375442 
L 82.990272 59.451445 
L 83.115568 59.380617 
L 83.122924 59.385643 
L 83.197239 59.305687 
L 83.210936 59.310211 
L 83.324565 59.22541 
L 83.213472 59.312516 
L 83.33471 59.23466 
L 83.446564 59.232485 
L 83.360581 59.217343 
L 83.447072 59.225364 
L 83.558418 59.18643 
L 83.480298 59.235201 
L 83.561462 59.19252 
L 83.609906 59.207695 
L 83.654293 59.178187 
L 83.67154 59.180161 
L 83.779336 59.129102 
L 83.690309 59.189256 
L 83.792017 59.138644 
L 84.021559 59.040087 
L 83.795061 59.145103 
L 84.022573 59.044286 
L 84.0837 59.033818 
L 84.121999 59.003928 
L 84.127072 59.00619 
L 84.231063 58.936062 
L 84.132144 59.007529 
L 84.243237 58.949067 
L 84.918672 58.60364 
L 84.920447 58.609794 
L 84.932875 58.617765 
L 85.015561 58.536941 
L 85.023931 58.541765 
L 85.134517 58.472562 
L 85.034077 58.545988 
L 85.147452 58.484743 
L 85.149228 58.491138 
L 85.730056 58.008598 
L 85.852816 57.872048 
L 85.734875 58.009438 
L 85.854084 57.872486 
L 85.863469 57.888514 
L 85.949959 57.763549 
L 86.077792 57.569333 
L 85.9563 57.774726 
L 86.080582 57.574253 
L 86.081089 57.577357 
L 86.17392 57.487923 
L 86.177978 57.491911 
L 86.686773 56.531331 
L 86.687281 56.534831 
L 86.687534 56.535738 
L 86.760074 56.389538 
L 86.761596 56.391731 
L 86.887907 56.08013 
L 86.889176 56.082285 
L 87.079403 55.596202 
L 87.0827 55.601931 
L 87.083208 55.604306 
L 87.165386 55.365553 
L 87.1664 55.366083 
L 87.166654 55.36763 
L 87.24655 55.171049 
L 87.247057 55.171707 
L 87.423588 54.710034 
L 87.425617 54.711279 
L 87.474823 54.577226 
L 87.771578 53.473324 
L 87.476345 54.577747 
L 87.771831 53.473792 
L 87.772085 53.47483 
L 87.832704 53.257068 
L 88.037389 52.380286 
L 88.428243 50.458019 
L 88.657784 49.237757 
L 88.658038 49.238419 
L 88.695323 49.028058 
L 88.903812 47.870262 
L 88.904319 47.871851 
L 89.230243 45.768179 
L 89.400686 44.597057 
L 89.607654 43.141192 
L 89.608161 43.142566 
L 89.645192 42.878548 
L 89.901873 41.038434 
L 89.930026 40.838442 
L 90.146378 39.055446 
L 90.146632 39.055946 
L 90.821559 33.811169 
L 90.882939 33.363842 
L 91.049832 32.206443 
L 91.050086 32.207507 
L 91.267199 30.922351 
L 91.459963 29.963809 
L 91.642835 29.215686 
L 91.643089 29.21664 
L 91.673525 29.105256 
L 91.817083 28.687305 
L 91.879732 28.557467 
L 92.021007 28.279165 
L 92.022529 28.279862 
L 92.024305 28.282739 
L 92.119926 28.169172 
L 92.121194 28.173769 
L 92.130578 28.182101 
L 92.21783 28.114883 
L 92.220112 28.116133 
L 92.25486 28.114246 
L 92.320045 28.178018 
L 92.320299 28.177148 
L 92.320806 28.176715 
L 92.456502 28.358434 
L 92.541216 28.558225 
L 92.713182 29.153498 
L 93.226796 32.846281 
L 93.490325 35.88052 
L 93.74523 39.353132 
L 93.999881 43.329921 
L 94.504618 52.070496 
L 94.991601 58.738078 
L 95.387274 59.796673 
L 95.397927 59.787628 
L 95.530832 59.817675 
L 95.531847 59.813472 
L 95.649534 59.782451 
L 95.565327 59.827027 
L 95.651056 59.78282 
L 95.750482 59.802328 
L 95.652071 59.782143 
L 95.770773 59.788563 
L 96.167207 59.730695 
L 95.771534 59.792432 
L 96.169743 59.739426 
L 96.184201 59.747254 
L 96.268154 59.692484 
L 96.272973 59.694603 
L 96.377472 59.6386 
L 96.39269 59.657441 
L 96.536756 59.591027 
L 96.537517 59.588347 
L 96.644298 59.5422 
L 96.571504 59.610379 
L 96.657487 59.545242 
L 96.822351 59.516836 
L 96.665857 59.554078 
L 96.826155 59.522418 
L 96.936234 59.549239 
L 96.838837 59.505915 
L 96.939277 59.545415 
L 97.002686 59.522411 
L 97.05316 59.534919 
L 97.161209 59.559576 
L 97.068378 59.511805 
L 97.168818 59.535851 
L 97.27078 59.454932 
L 97.169579 59.536638 
L 97.298173 59.481365 
L 97.30147 59.486966 
L 97.397345 59.413629 
L 97.397599 59.413939 
L 97.56576 59.305601 
L 97.670258 59.2619 
L 97.579203 59.314343 
L 97.688013 59.267504 
L 97.905633 59.233837 
L 97.691056 59.272619 
L 97.90614 59.235018 
L 98.00303 59.251356 
L 97.943932 59.224477 
L 98.019009 59.238114 
L 98.13974 59.157474 
L 98.139993 59.158199 
L 98.177532 59.187873 
L 98.140754 59.157734 
L 98.248296 59.131476 
L 98.473272 59.06358 
L 98.47454 59.067496 
L 98.592481 59.089679 
L 98.517912 59.044818 
L 98.592989 59.086646 
L 98.708393 59.042296 
L 98.606685 59.098435 
L 98.716763 59.056567 
L 98.722343 59.063747 
L 98.820501 59.00401 
L 98.822783 59.006035 
L 98.946812 58.952108 
L 98.852966 59.035667 
L 98.948841 58.955818 
L 98.96203 58.960675 
L 99.04573 58.855208 
L 99.04852 58.858634 
L 99.089102 58.86815 
L 99.145917 58.806455 
L 99.14896 58.807036 
L 99.278822 58.68813 
L 99.151243 58.809796 
L 99.279076 58.688979 
L 99.282373 58.693901 
L 99.341471 58.612718 
L 99.361762 58.604514 
L 99.368863 58.612829 
L 99.900232 57.507441 
L 100.04582 57.008219 
L 100.839956 52.013094 
L 101.654638 42.134341 
L 102.86068 25.531715 
L 103.479554 21.486907 
L 103.482597 21.490903 
L 103.535354 21.394736 
L 103.553616 21.392757 
L 103.633765 21.39732 
L 103.660397 21.442837 
L 103.795585 21.846741 
L 103.795839 21.846603 
L 103.817652 21.960132 
L 103.994436 23.054128 
L 105.00315 40.661997 
L 105.51651 53.413218 
L 105.940591 59.562416 
L 106.065634 59.827973 
L 106.070453 59.821184 
L 106.191438 59.869689 
L 106.191691 59.868932 
L 106.281732 59.838534 
L 106.204373 59.846505 
L 106.295936 59.825714 
L 106.422754 59.77056 
L 106.298219 59.826806 
L 106.429856 59.776403 
L 106.430871 59.782884 
L 106.532833 59.721615 
L 106.537652 59.730342 
L 106.637838 59.619286 
L 106.638346 59.621252 
L 106.797122 59.41658 
L 106.927491 59.253461 
L 106.927745 59.254186 
L 106.967059 59.259555 
L 107.022352 59.157472 
L 107.238704 58.725248 
L 107.246059 58.734549 
L 107.253161 58.74194 
L 107.325194 58.575498 
L 107.325701 58.575648 
L 107.325955 58.575979 
L 107.371356 58.452588 
L 107.52785 58.063272 
L 107.52861 58.063761 
L 108.808969 54.835483 
L 108.813534 54.84035 
L 108.904082 54.769927 
L 109.042822 54.680586 
L 108.921837 54.778997 
L 109.045358 54.692126 
L 109.379398 54.940951 
L 109.380412 54.938717 
L 110.052296 56.831924 
L 110.188245 57.227469 
L 110.469021 58.037103 
L 110.469275 58.036887 
L 110.47384 58.036233 
L 110.522792 58.139791 
L 110.523553 58.13969 
L 110.660263 58.403396 
L 110.664829 58.396806 
L 110.714541 58.502536 
L 110.851505 58.679075 
L 110.715556 58.502046 
L 110.862158 58.672088 
L 110.865963 58.668358 
L 110.904769 58.707052 
L 110.967671 58.706139 
L 111.06735 58.764002 
L 111.084344 58.752705 
L 111.102352 58.727868 
L 111.156123 58.763195 
L 111.196451 58.741516 
L 111.20406 58.749328 
L 111.265694 58.65906 
L 111.29334 58.67483 
L 111.389976 58.606489 
L 111.305769 58.689125 
L 111.412042 58.616725 
L 111.41255 58.617878 
L 111.609879 58.350591 
L 111.735429 58.190424 
L 111.73619 58.193047 
L 111.737458 58.193532 
L 112.58917 55.529518 
L 113.109379 51.525751 
L 114.553587 30.525825 
L 115.532117 15.492295 
L 115.962285 11.767765 
L 115.986127 11.63189 
L 116.140338 11.172168 
L 116.144143 11.175213 
L 116.198675 11.166895 
L 116.248387 11.213154 
L 116.249656 11.212597 
L 116.419592 11.713508 
L 116.419846 11.712368 
L 116.468798 12.003788 
L 117.029081 19.847919 
L 117.966776 49.965071 
L 118.394408 60.337091 
L 118.528074 60.516959 
L 118.537459 60.505129 
L 118.643225 60.448801 
L 118.655654 60.466254 
L 118.762942 60.478621 
L 118.700801 60.446694 
L 118.767761 60.474319 
L 118.892297 60.449182 
L 118.893058 60.452506 
L 118.943024 60.467117 
L 118.984874 60.415437 
L 119.001614 60.420064 
L 119.064009 60.381276 
L 119.017847 60.426463 
L 119.116765 60.38822 
L 119.136042 60.393271 
L 119.203509 60.304778 
L 119.320182 60.240731 
L 119.205538 60.308644 
L 119.327791 60.246001 
L 119.405404 60.228472 
L 119.433557 60.189513 
L 119.556318 60.114097 
L 119.591066 60.093021 
L 119.62201 60.04603 
L 119.640779 60.04159 
L 119.645851 60.045659 
L 119.758466 59.969078 
L 119.759481 59.97388 
L 119.851044 59.869593 
L 119.851297 59.869714 
L 119.972536 59.756849 
L 119.972789 59.757191 
L 120.011596 59.746094 
L 120.049895 59.678757 
L 120.052177 59.681943 
L 120.176967 59.515654 
L 120.179757 59.518639 
L 120.18001 59.519223 
L 120.254072 59.424269 
L 120.259399 59.424026 
L 120.429843 59.190798 
L 120.267008 59.42912 
L 120.430603 59.193801 
L 120.434154 59.205976 
L 120.514811 59.097503 
L 120.519376 59.099364 
L 120.782651 58.775028 
L 120.783666 58.777046 
L 120.78747 58.787046 
L 120.889179 58.719974 
L 120.889432 58.72026 
L 120.925449 58.726153 
L 121.007627 58.658928 
L 121.134953 58.590446 
L 121.009149 58.665438 
L 121.13546 58.591209 
L 121.244777 58.594973 
L 121.184919 58.574936 
L 121.249596 58.587677 
L 121.364748 58.585235 
L 121.26101 58.599947 
L 121.370835 58.595809 
L 121.495878 58.661592 
L 121.380219 58.582079 
L 121.4974 58.660289 
L 121.509574 58.652166 
L 121.599361 58.733879 
L 121.868216 59.051958 
L 121.869738 59.045229 
L 121.942025 59.138375 
L 121.870246 59.047716 
L 121.942278 59.142742 
L 122.12794 59.438586 
L 121.943293 59.13998 
L 122.128701 59.436874 
L 122.400093 59.814289 
L 122.134281 59.42969 
L 122.40339 59.812655 
L 122.403897 59.809026 
L 122.468828 59.856488 
L 122.512961 59.832075 
L 122.688731 60.038819 
L 122.689746 60.035216 
L 122.713588 60.028501 
L 122.787142 60.092807 
L 122.788157 60.091268 
L 122.902801 60.153768 
L 122.806672 60.08099 
L 122.905083 60.151132 
L 123.39308 60.314166 
L 122.905844 60.149143 
L 123.394856 60.306157 
L 123.430111 60.287521 
L 123.462577 60.326708 
L 123.505188 60.317907 
L 123.623383 60.362326 
L 123.632513 60.353595 
L 123.679183 60.345776 
L 123.734475 60.383121 
L 123.74107 60.375511 
L 123.823248 60.374488 
L 123.785203 60.345708 
L 123.849373 60.350856 
L 123.959198 60.322533 
L 123.903651 60.364204 
L 123.96427 60.332592 
L 124.072573 60.353724 
L 123.975684 60.328593 
L 124.077646 60.345678 
L 124.207254 60.275007 
L 124.208015 60.278756 
L 124.300339 60.278747 
L 124.274722 60.258176 
L 124.317586 60.260709 
L 124.463935 60.188628 
L 124.464696 60.189583 
L 124.516691 60.211539 
L 124.569448 60.141361 
L 124.569955 60.141637 
L 124.571984 60.147513 
L 124.658728 60.07579 
L 124.662025 60.07843 
L 124.776922 59.983111 
L 124.779459 59.986016 
L 125.012044 59.788923 
L 124.781995 59.990715 
L 125.015595 59.794116 
L 125.018892 59.796375 
L 125.100563 59.707048 
L 125.107411 59.709477 
L 125.261876 59.447168 
L 125.10944 59.711683 
L 125.263905 59.44907 
L 125.264159 59.450715 
L 125.34304 59.304557 
L 125.3542 59.307675 
L 125.522361 58.97797 
L 125.354707 59.308118 
L 125.531238 58.984274 
L 125.571566 58.877007 
L 125.720197 58.470481 
L 125.720705 58.47119 
L 125.819116 58.144439 
L 125.819369 58.145023 
L 126.083659 57.048072 
L 126.08442 57.048543 
L 126.086702 57.04327 
L 126.106486 56.939414 
L 126.106993 56.939447 
L 126.821488 51.722877 
L 127.198899 47.854793 
L 127.238213 47.448122 
L 127.368329 46.044382 
L 127.368582 46.044783 
L 127.585442 43.704112 
L 127.585695 43.704733 
L 127.848463 40.865804 
L 127.877631 40.587521 
L 128.177684 37.761815 
L 128.177937 37.762267 
L 128.446792 35.779284 
L 128.447807 35.780777 
L 128.487628 35.574779 
L 128.686733 34.594 
L 128.686986 34.594452 
L 128.68724 34.594553 
L 128.71514 34.488361 
L 128.716408 34.487458 
L 128.887866 34.081021 
L 128.888374 34.082647 
L 128.907904 34.084837 
L 128.978922 34.02259 
L 128.98577 34.027693 
L 129.001749 34.000126 
L 129.095595 34.045816 
L 129.095849 34.043637 
L 129.13643 34.046008 
L 129.183861 34.143042 
L 129.18589 34.142672 
L 129.387531 34.70281 
L 129.186904 34.140409 
L 129.388038 34.702332 
L 129.388292 34.702125 
L 129.417206 34.820759 
L 129.41746 34.820523 
L 129.642182 36.110958 
L 129.923465 38.515941 
L 131.510977 54.01779 
L 131.511485 54.017355 
L 131.559168 54.166231 
L 131.858967 54.59779 
L 131.920094 54.530229 
L 132.043615 54.331618 
L 132.04539 54.332715 
L 132.104995 54.216811 
L 133.222518 46.454793 
L 134.362615 35.036089 
L 134.363122 35.037367 
L 134.443272 34.505845 
L 134.70122 33.199421 
L 134.701981 33.199967 
L 134.702235 33.200082 
L 134.728867 33.092787 
L 134.729881 33.090868 
L 134.777818 32.897043 
L 134.918333 32.659302 
L 134.921377 32.668108 
L 134.923406 32.659168 
L 135.142294 32.84182 
L 135.333283 33.482921 
L 136.059445 40.184987 
L 136.472873 45.820543 
L 136.531463 46.695698 
L 136.751619 49.857978 
L 137.175193 54.72782 
L 137.175446 54.725707 
L 137.232768 55.179563 
L 137.523182 56.755017 
L 137.523436 56.754563 
L 137.778087 57.148794 
L 137.782146 57.14124 
L 137.855193 57.139337 
L 137.782653 57.137981 
L 137.888673 57.107733 
L 138.025129 56.904379 
L 138.026144 56.905969 
L 138.092851 56.747577 
L 138.271157 56.227982 
L 138.093358 56.748069 
L 138.272172 56.230089 
L 138.523272 55.171364 
L 138.732776 53.87072 
L 138.73303 53.870909 
L 138.750277 53.760988 
L 139.062504 51.195317 
L 139.389188 47.986608 
L 139.884287 42.075909 
L 140.486674 34.610442 
L 140.777088 31.504554 
L 141.008912 29.456793 
L 141.519736 26.790007 
L 141.521765 26.795024 
L 141.522019 26.79639 
L 141.603183 26.63644 
L 141.607241 26.646968 
L 141.633366 26.608786 
L 141.682064 26.655088 
L 141.720109 26.626059 
L 141.740147 26.631665 
L 141.800259 26.713317 
L 141.801527 26.709757 
L 141.957006 27.160393 
L 141.957513 27.160156 
L 142.248942 28.95865 
L 142.544682 31.687467 
L 143.193992 40.438148 
L 143.617058 46.711985 
L 144.610046 55.442825 
L 144.6103 55.441314 
L 144.689942 55.631479 
L 144.691464 55.628223 
L 144.775925 55.710051 
L 144.812448 55.688674 
L 144.815238 55.693615 
L 144.940535 55.601625 
L 144.94231 55.605805 
L 145.025503 55.476188 
L 145.210912 54.984047 
L 145.211165 54.984597 
L 145.261385 54.829282 
L 145.929464 51.264222 
L 146.203646 49.409088 
L 146.406809 48.149034 
L 146.613269 46.937845 
L 146.613523 46.938069 
L 146.634575 46.809338 
L 146.634828 46.809251 
L 146.800453 45.925255 
L 147.044198 45.123806 
L 147.044705 45.124825 
L 147.103042 44.996482 
L 147.106846 44.997416 
L 147.164168 44.901205 
L 147.164422 44.899375 
L 147.289718 44.744428 
L 147.289972 44.744775 
L 147.461177 44.832746 
L 147.300371 44.736436 
L 147.461938 44.828952 
L 147.462445 44.82756 
L 147.528898 44.969293 
L 147.904534 46.259492 
L 148.170852 47.890183 
L 148.713127 52.462561 
L 148.961184 54.836377 
L 149.293195 57.366295 
L 149.293448 57.36617 
L 149.52933 58.281213 
L 149.529584 58.280836 
L 149.576253 58.39096 
L 149.586906 58.392094 
L 149.700789 58.557352 
L 149.7155 58.55052 
L 149.819491 58.619489 
L 149.725645 58.54453 
L 149.854746 58.584462 
L 149.98892 58.520564 
L 149.899133 58.609811 
L 149.993739 58.526354 
L 149.997798 58.533933 
L 150.090882 58.444849 
L 150.091643 58.447903 
L 150.78331 56.587739 
L 151.848331 47.272044 
L 152.538477 37.078048 
L 153.846228 20.024702 
L 153.880722 19.780549 
L 154.171897 18.665407 
L 154.173165 18.666525 
L 154.318753 18.652299 
L 154.336507 18.700273 
L 154.337015 18.699624 
L 154.515321 19.44867 
L 154.693881 20.769477 
L 154.912516 23.302177 
L 154.985056 24.354583 
L 155.732524 40.564551 
L 156.50713 58.53706 
L 156.554307 59.054045 
L 156.724497 59.833913 
L 156.863997 59.948428 
L 156.873889 59.932673 
L 156.88581 59.939339 
L 156.934762 59.874948 
L 156.967735 59.874667 
L 157.10064 59.73534 
L 156.973568 59.876159 
L 157.101909 59.737006 
L 157.174195 59.74629 
L 157.103684 59.73433 
L 157.220103 59.715198 
L 157.341595 59.597857 
L 157.224669 59.718365 
L 157.343117 59.598792 
L 157.343371 59.600315 
L 157.43747 59.497138 
L 157.438738 59.497137 
L 157.444318 59.501128 
L 157.521931 59.422604 
L 157.522438 59.422888 
L 157.644691 59.263187 
L 157.652554 59.266531 
L 157.731942 59.089847 
L 157.859521 58.908556 
L 157.860282 58.910203 
L 157.861297 58.913652 
L 157.952606 58.754119 
L 157.989637 58.702607 
L 158.007392 58.657755 
L 158.161856 58.273626 
L 158.16211 58.274111 
L 158.163632 58.27537 
L 158.23186 58.122892 
L 158.367302 57.793984 
L 158.367556 57.794704 
L 158.430711 57.642546 
L 158.430965 57.643226 
L 158.572748 57.257888 
L 158.573002 57.259635 
L 159.467578 55.233329 
L 159.468086 55.234108 
L 159.470115 55.244138 
L 159.509682 55.20539 
L 159.578925 55.226185 
L 159.721976 55.262461 
L 159.588817 55.205215 
L 159.733136 55.251647 
L 159.733897 55.248018 
L 159.830279 55.378818 
L 159.830532 55.37869 
L 159.872636 55.457113 
L 159.877455 55.4816 
L 160.98534 59.002595 
L 160.985594 59.000731 
L 161.07386 59.147488 
L 161.078425 59.142057 
L 161.091107 59.13755 
L 161.155023 59.218717 
L 161.173032 59.214633 
L 161.2859 59.29822 
L 161.290465 59.293043 
L 161.408407 59.398335 
L 161.292495 59.292677 
L 161.413987 59.386339 
L 161.414494 59.384904 
L 161.504281 59.472546 
L 161.508086 59.469068 
L 161.623237 59.525575 
L 161.538015 59.44923 
L 161.627041 59.524316 
L 161.70364 59.544775 
L 161.63389 59.512768 
L 161.744729 59.515604 
L 161.856583 59.474299 
L 161.860894 59.482884 
L 161.981372 59.490811 
L 161.879917 59.470188 
L 161.98264 59.490032 
L 162.197217 59.489272 
L 161.984162 59.484698 
L 162.197724 59.487166 
L 162.210152 59.495788 
L 162.32505 59.416743 
L 162.430309 59.35971 
L 162.328093 59.409405 
L 162.43107 59.352035 
L 162.563468 59.28728 
L 162.432084 59.353813 
L 162.563722 59.287575 
L 162.582998 59.301679 
L 162.651987 59.224983 
L 162.661879 59.227007 
L 162.782103 59.118802 
L 162.792756 59.125811 
L 162.795039 59.132181 
L 162.872144 59.062417 
L 162.894464 59.063295 
L 162.950011 59.029915 
L 162.97994 58.990516 
L 163.098895 58.857027 
L 163.106758 58.858156 
L 163.107265 58.859296 
L 163.202886 58.795754 
L 163.208213 58.806699 
L 163.338075 58.664632 
L 163.218612 58.81408 
L 163.338328 58.667656 
L 163.474024 58.582852 
L 163.475292 58.587886 
L 163.512577 58.596801 
L 163.571674 58.533208 
L 163.572689 58.533625 
L 163.708131 58.368201 
L 163.579537 58.534901 
L 163.709653 58.368571 
L 163.710413 58.371393 
L 163.799694 58.225925 
L 163.800455 58.22819 
L 163.958217 58.016317 
L 163.95847 58.017612 
L 163.961767 58.025276 
L 164.05612 57.931101 
L 164.057135 57.935008 
L 164.186997 57.774189 
L 164.195621 57.783978 
L 164.202215 57.78946 
L 164.282364 57.651556 
L 164.441902 57.380079 
L 164.442916 57.384291 
L 164.508608 57.225796 
L 164.511398 57.226598 
L 165.783386 54.152725 
L 165.946982 53.574186 
L 165.947489 53.576646 
L 165.947743 53.576829 
L 165.978687 53.463914 
L 165.97894 53.464359 
L 166.197575 52.642527 
L 166.238664 52.496515 
L 166.502193 51.332614 
L 167.009974 49.016661 
L 167.195382 48.032034 
L 167.195636 48.032067 
L 167.385863 46.927034 
L 167.614897 45.532007 
L 167.615404 45.534127 
L 167.677292 45.156968 
L 168.709086 37.629875 
L 169.022835 34.7727 
L 170.334897 25.255543 
L 170.335405 25.258927 
L 170.368885 25.14948 
L 170.369899 25.15012 
L 170.511936 24.691321 
L 170.512697 24.693 
L 170.587012 24.528932 
L 170.74655 24.265362 
L 170.752384 24.266014 
L 170.804379 24.160986 
L 170.808437 24.158413 
L 170.857896 24.135347 
L 170.81072 24.164311 
L 170.912428 24.196582 
L 171.027579 24.267231 
L 170.921559 24.195437 
L 171.030116 24.263997 
L 171.090228 24.376033 
L 171.244946 24.793312 
L 171.245453 24.791749 
L 171.291108 24.959872 
L 171.632249 26.98516 
L 171.659135 27.204052 
L 172.757635 42.753289 
L 173.314875 53.610351 
L 173.968497 59.897973 
L 173.969512 59.897192 
L 174.099881 59.975825 
L 173.974331 59.887456 
L 174.101656 59.971858 
L 174.149594 60.013624 
L 174.224417 59.9769 
L 174.285797 59.974563 
L 174.236845 59.996487 
L 174.335256 59.983711 
L 174.361634 59.963703 
L 174.44432 60.006552 
L 174.546282 60.029076 
L 174.483633 59.986516 
L 174.558964 60.010779 
L 174.655345 59.975575 
L 174.673607 59.988138 
L 174.763141 60.021369 
L 174.702015 59.976763 
L 174.789773 60.001085 
L 174.801187 59.97826 
L 174.895539 60.051871 
L 174.897822 60.044527 
L 175.003842 60.017144 
L 174.906446 60.051917 
L 175.016017 60.038809 
L 175.094391 60.050216 
L 175.042141 60.034752 
L 175.125842 60.024235 
L 175.259255 59.988378 
L 175.126856 60.02578 
L 175.260776 59.995372 
L 175.370601 60.021149 
L 175.265595 59.990405 
L 175.378971 60.005529 
L 176.260612 59.827025 
L 176.365111 59.790926 
L 176.264163 59.831881 
L 176.373227 59.797708 
L 176.493958 59.762531 
L 176.49548 59.765049 
L 176.603529 59.728653 
L 176.497002 59.763002 
L 176.605051 59.72548 
L 176.756979 59.646298 
L 176.605812 59.73015 
L 176.758501 59.650756 
L 176.761545 59.65515 
L 176.821403 59.567918 
L 176.85818 59.576268 
L 176.98297 59.539151 
L 176.866804 59.59011 
L 176.983223 59.541175 
L 176.985252 59.544891 
L 177.086707 59.481443 
L 177.269833 59.336563 
L 177.100404 59.500553 
L 177.272116 59.340001 
L 177.383716 59.27406 
L 177.272623 59.338479 
L 177.385491 59.264967 
L 177.513578 59.138578 
L 177.386506 59.265495 
L 177.52144 59.151702 
L 177.521948 59.153449 
L 177.946028 58.739787 
L 178.08147 58.569012 
L 178.081724 58.569983 
L 178.082485 58.574406 
L 178.183432 58.492076 
L 178.184701 58.484659 
L 178.265611 58.399639 
L 178.41551 58.254803 
L 178.416271 58.257298 
L 178.416524 58.257842 
L 178.474861 58.161796 
L 178.492362 58.158632 
L 178.661791 57.942663 
L 178.662045 57.943818 
L 178.662552 57.945927 
L 178.96996 57.43983 
L 179.129244 57.12934 
L 178.974525 57.443663 
L 179.131019 57.130039 
L 179.131526 57.132686 
L 179.217002 56.899755 
L 179.256823 56.792997 
L 179.305775 56.663214 
L 179.453645 56.244626 
L 179.454406 56.247967 
L 179.455928 56.248993 
L 179.522127 56.075016 
L 179.523142 56.077018 
L 180.671101 51.315244 
L 180.858032 50.131517 
L 180.858285 50.132123 
L 180.888214 49.919191 
L 181.111161 48.455771 
L 181.131959 48.30569 
L 181.893884 41.985832 
L 181.894138 41.986053 
L 181.908341 41.852664 
L 182.207633 39.156265 
L 182.269266 38.620022 
L 182.749147 34.351197 
L 182.749401 34.35209 
L 182.749654 34.352499 
L 182.769945 34.175142 
L 183.162068 30.951247 
L 184.248901 25.187031 
L 184.249408 25.190864 
L 184.328543 25.099518 
L 184.348073 25.103382 
L 184.410975 25.064386 
L 184.358726 25.105031 
L 184.461956 25.08935 
L 184.572795 25.116823 
L 184.584462 25.141645 
L 185.042277 26.763201 
L 185.043038 26.763023 
L 185.443784 29.904973 
L 186.388834 44.416205 
L 187.169274 58.740905 
L 187.577883 60.089778 
L 187.578644 60.087081 
L 187.591833 60.068561 
L 187.625567 60.11267 
L 187.682381 60.125969 
L 187.765067 60.143208 
L 187.692527 60.110848 
L 187.794489 60.127069 
L 187.938301 60.187818 
L 187.939569 60.181076 
L 188.043053 60.174021 
L 187.940837 60.182393 
L 188.058525 60.186905 
L 188.157697 60.20249 
L 188.170632 60.19023 
L 188.281725 60.191061 
L 188.223896 60.20903 
L 188.282232 60.195546 
L 188.394086 60.190106 
L 188.307089 60.168563 
L 188.394847 60.187051 
L 188.415645 60.173561 
L 188.463075 60.221319 
L 188.50594 60.189633 
L 188.647469 60.1854 
L 188.509744 60.193529 
L 188.648484 60.191047 
L 188.740046 60.181815 
L 188.674608 60.170674 
L 188.75425 60.156244 
L 188.888678 60.163371 
L 188.756026 60.159186 
L 188.890707 60.17108 
L 188.891214 60.17382 
L 188.947775 60.135028 
L 188.99977 60.146057 
L 189.062419 60.12752 
L 189.016511 60.167412 
L 189.111371 60.153695 
L 189.22779 60.171434 
L 189.11898 60.141459 
L 189.228804 60.170827 
L 189.317831 60.13234 
L 189.233877 60.173318 
L 189.345985 60.150188 
L 189.419539 60.159714 
L 189.350296 60.140499 
L 189.450737 60.113936 
L 189.572736 60.048344 
L 189.452258 60.118118 
L 189.574765 60.049824 
L 189.629804 60.075238 
L 189.663538 60.03837 
L 189.685351 60.040613 
L 189.758144 59.999928 
L 189.797458 60.030843 
L 189.907283 60.004518 
L 189.802784 60.014931 
L 189.911341 59.997627 
L 190.043739 59.950621 
L 189.926305 60.02031 
L 190.044754 59.952219 
L 190.096496 59.946634 
L 190.134034 59.887172 
L 190.137585 59.892626 
L 190.246395 59.857594 
L 190.25654 59.861401 
L 190.386656 59.830039 
L 190.387924 59.827065 
L 190.496734 59.822455 
L 190.486335 59.850318 
L 190.499778 59.824535 
L 190.500032 59.82524 
L 190.549745 59.760504 
L 190.596667 59.766045 
L 191.101151 59.602991 
L 191.206917 59.516282 
L 191.217316 59.539309 
L 191.341852 59.545845 
L 191.218585 59.536095 
L 191.346164 59.539821 
L 191.460554 59.481665 
L 191.35707 59.556092 
L 191.46309 59.482509 
L 191.480591 59.470702 
L 191.553639 59.558892 
L 191.554146 59.558561 
L 191.595235 59.589404 
L 191.668282 59.559436 
L 192.074862 59.476272 
L 192.075623 59.480264 
L 192.166679 59.466236 
L 192.118741 59.435887 
L 192.184941 59.4504 
L 192.298062 59.381944 
L 192.307954 59.38655 
L 192.419554 59.373513 
L 192.352594 59.405663 
L 192.422598 59.375323 
L 192.534198 59.39252 
L 192.460897 59.346747 
L 192.539525 59.384973 
L 192.682829 59.342832 
L 192.540286 59.386828 
L 192.684351 59.348312 
L 193.074698 59.189182 
L 193.077742 59.194913 
L 193.080025 59.202742 
L 193.179704 59.117197 
L 193.180972 59.122166 
L 193.219017 59.096249 
L 193.183001 59.124634 
L 193.294601 59.123921 
L 193.369424 59.112876 
L 193.341778 59.086728 
L 193.395549 59.075497 
L 193.436384 59.041953 
L 193.507656 59.071948 
L 193.724262 58.953849 
L 193.510192 59.076261 
L 193.728066 58.960726 
L 193.749372 58.966221 
L 193.801367 58.899789 
L 193.82876 58.900921 
L 193.91525 58.850937 
L 193.87061 58.909431 
L 193.943404 58.86583 
L 194.013154 58.834187 
L 193.945179 58.861838 
L 194.035981 58.799144 
L 194.159502 58.699894 
L 194.043844 58.804268 
L 194.1628 58.705135 
L 194.230774 58.720931 
L 194.26882 58.675323 
L 194.269834 58.675828 
L 194.271103 58.678983 
L 194.407813 58.556745 
L 194.408066 58.558541 
L 194.504956 58.467291 
L 194.507238 58.469534 
L 194.629999 58.38713 
L 194.630759 58.391451 
L 195.09948 58.227037 
L 195.103031 58.240605 
L 195.175318 58.234488 
L 195.146657 58.208658 
L 195.209051 58.203295 
L 195.653423 58.028783 
L 195.772125 57.930122 
L 195.774915 57.930715 
L 195.932169 57.774627 
L 195.780241 57.940621 
L 195.938003 57.779818 
L 195.94333 57.780231 
L 196.011811 57.689488 
L 196.024747 57.699281 
L 196.123919 57.589172 
L 196.028551 57.704263 
L 196.154355 57.598644 
L 196.155116 57.600585 
L 196.228417 57.476648 
L 196.350416 57.385923 
L 196.35067 57.387457 
L 196.444262 57.277524 
L 196.445784 57.281774 
L 196.497272 57.200382 
L 196.448828 57.269642 
L 196.502091 57.186093 
L 196.699674 56.861866 
L 196.700182 56.865658 
L 196.700689 56.868143 
L 196.78515 56.715032 
L 196.916787 56.486966 
L 196.788447 56.715892 
L 196.92186 56.49059 
L 197.645486 54.648686 
L 197.950103 53.399757 
L 197.950357 53.400704 
L 198.004382 53.178032 
L 198.160875 52.381315 
L 198.161383 52.382906 
L 198.2149 52.056109 
L 198.321681 51.420058 
L 198.528395 50.209632 
L 198.562636 50.002257 
L 198.74982 48.746867 
L 199.1843 45.398056 
L 199.328365 44.16027 
L 199.537616 42.203217 
L 199.537869 42.203538 
L 199.555624 42.05009 
L 199.83082 39.40725 
L 201.875893 21.046347 
L 201.876146 21.046447 
L 201.8764 21.04844 
L 201.946657 20.720593 
L 202.14424 19.918149 
L 202.144494 19.919083 
L 202.201308 19.705666 
L 202.547269 19.195217 
L 202.549552 19.200097 
L 202.550566 19.198707 
L 202.716445 19.49375 
L 202.745613 19.571873 
L 202.732677 19.555083 
L 202.753222 19.597078 
L 202.938123 20.373107 
L 202.977437 20.588899 
L 203.675952 28.612821 
L 204.393744 43.778132 
L 205.14527 59.703011 
L 205.145524 59.702185 
L 205.164039 59.821089 
L 205.299481 60.212722 
L 205.300242 60.211618 
L 205.301003 60.206059 
L 205.370753 60.291358 
L 205.401189 60.282833 
L 205.488694 60.338872 
L 205.51634 60.316871 
L 205.594968 60.307163 
L 205.556415 60.344318 
L 205.628955 60.319146 
L 205.729395 60.361216 
L 205.630984 60.316131 
L 205.74715 60.340795 
L 205.774035 60.33245 
L 205.809798 60.36931 
L 205.850634 60.379003 
L 205.952596 60.386253 
L 205.912775 60.349127 
L 205.961219 60.37282 
L 205.962234 60.367386 
L 205.997743 60.409391 
L 206.069269 60.412573 
L 206.192282 60.419958 
L 206.088038 60.402281 
L 206.193551 60.415567 
L 206.313521 60.382249 
L 206.194565 60.418938 
L 206.322398 60.393091 
L 206.435266 60.429511 
L 206.342182 60.369687 
L 206.439071 60.419704 
L 206.856811 60.393908 
L 206.926814 60.385558 
L 206.878623 60.41388 
L 206.967396 60.405049 
L 207.16853 60.41884 
L 206.968157 60.407779 
L 207.169798 60.424732 
L 207.350895 60.412848 
L 207.170306 60.422138 
L 207.351656 60.409419 
L 207.367381 60.432867 
L 207.46909 60.383096 
L 207.578914 60.394713 
L 207.472133 60.375329 
L 207.585255 60.388173 
L 207.694573 60.378587 
L 207.63091 60.413474 
L 207.697616 60.38335 
L 208.00477 60.351954 
L 208.006039 60.356813 
L 208.010604 60.373069 
L 208.033431 60.344564 
L 208.116878 60.34502 
L 208.309388 60.264364 
L 208.404755 60.250176 
L 208.377109 60.274301 
L 208.421242 60.262165 
L 208.484144 60.256383 
L 208.517117 60.215817 
L 208.525233 60.221568 
L 208.576468 60.194308 
L 208.528784 60.230672 
L 208.639369 60.226081 
L 208.639623 60.230486 
L 208.67006 60.190042 
L 208.748433 60.188952 
L 208.86536 60.173747 
L 208.80398 60.218346 
L 208.866121 60.177463 
L 208.878042 60.18005 
L 208.956923 60.123945 
L 208.969097 60.136229 
L 209.064211 60.101901 
L 208.989135 60.140839 
L 209.082219 60.1177 
L 209.083995 60.123016 
L 209.180123 60.066859 
L 209.187478 60.081693 
L 209.304659 60.020754 
L 209.199907 60.090856 
L 209.310492 60.027137 
L 209.392671 60.037477 
L 209.314804 60.015827 
L 209.41981 60.007724 
L 210.11097 59.830719 
L 210.225867 59.801983 
L 210.142674 59.855446 
L 210.226121 59.802876 
L 210.307031 59.806118 
L 210.253006 59.785133 
L 210.337467 59.795233 
L 210.446024 59.754638 
L 210.45972 59.759432 
L 210.464793 59.770952 
L 210.543928 59.71343 
L 210.567516 59.729553 
L 210.640563 59.712088 
L 210.59364 59.744375 
L 210.680638 59.748048 
L 210.682667 59.754174 
L 210.748105 59.691181 
L 210.787926 59.71589 
L 210.967755 59.640962 
L 211.048157 59.626548 
L 211.013409 59.66517 
L 211.080623 59.642604 
L 211.45981 59.501558 
L 211.085442 59.661749 
L 211.463614 59.511996 
L 211.563294 59.521246 
L 211.575215 59.497842 
L 211.692141 59.441153 
L 211.578258 59.498867 
L 211.698736 59.452395 
L 211.726889 59.460748 
L 211.796386 59.387592 
L 211.803741 59.401595 
L 212.057885 59.337606 
L 212.186733 59.285117 
L 212.061183 59.34186 
L 212.19003 59.292063 
L 212.190791 59.293153 
L 212.283115 59.21716 
L 212.284129 59.219114 
L 212.40207 59.129548 
L 212.403338 59.133609 
L 212.452798 59.150855 
L 212.411201 59.12907 
L 212.514178 59.121195 
L 212.605741 59.094309 
L 212.547658 59.148807 
L 212.6273 59.107677 
L 212.629075 59.111842 
L 212.725711 59.025243 
L 212.730023 59.033532 
L 212.831731 58.98688 
L 212.733573 59.039236 
L 212.846188 59.004881 
L 212.897676 59.00957 
L 212.947136 58.950335 
L 212.949672 58.949997 
L 213.066852 58.860532 
L 213.069896 58.872804 
L 213.120623 58.902181 
L 213.071164 58.868903 
L 213.184032 58.855484 
L 213.293096 58.820607 
L 213.298169 58.825754 
L 213.307046 58.827777 
L 213.350672 58.791306 
L 213.404696 58.789774 
L 213.887874 58.372964 
L 213.406725 58.791968 
L 213.890157 58.378096 
L 213.90918 58.38913 
L 213.969799 58.315257 
L 213.99009 58.319375 
L 214.109045 58.235539 
L 214.114118 58.23897 
L 214.181332 58.16016 
L 214.196043 58.157538 
L 214.304346 58.043281 
L 214.318803 58.052305 
L 214.319564 58.053626 
L 214.396923 57.964333 
L 214.410366 57.972546 
L 214.49711 57.912844 
L 214.428881 57.945434 
L 214.500153 57.906326 
L 214.624435 57.717223 
L 214.63382 57.720852 
L 214.641936 57.729115 
L 214.738318 57.646342 
L 214.738825 57.646451 
L 214.867166 57.467462 
L 214.869195 57.469243 
L 214.870209 57.471273 
L 214.946047 57.338385 
L 214.946554 57.338902 
L 215.174827 56.955272 
L 215.175842 56.956374 
L 215.176095 56.957122 
L 215.246099 56.822501 
L 215.247621 56.823527 
L 215.457886 56.283318 
L 215.458646 56.284661 
L 215.679564 55.671612 
L 215.833775 55.175619 
L 216.022227 54.521268 
L 216.022481 54.521646 
L 216.023242 54.523854 
L 216.078281 54.389641 
L 216.265211 53.787423 
L 216.267494 53.78801 
L 216.304525 53.674814 
L 216.503883 52.936387 
L 217.086741 50.459544 
L 217.407845 48.847722 
L 217.430165 48.730245 
L 217.594521 47.941473 
L 217.594775 47.943604 
L 217.66554 47.600124 
L 217.665793 47.602814 
L 217.922474 46.369033 
L 217.922727 46.369114 
" clip-path="url(#p4e07db27c1)" style="fill: none; stroke: #000000; stroke-width: 0.75; stroke-linecap: square"/>
   </g>
   <g id="LineCollection_1">
    <path d="M 98.71372 60.516959 
L 98.71372 11.16 
" clip-path="url(#p4e07db27c1)" style="fill: none; stroke-dasharray: 2.59,1.12; stroke-dashoffset: 0; stroke: #808080; stroke-width: 0.7"/>
    <path d="M 105.054638 60.516959 
L 105.054638 11.16 
" clip-path="url(#p4e07db27c1)" style="fill: none; stroke-dasharray: 2.59,1.12; stroke-dashoffset: 0; stroke: #808080; stroke-width: 0.7"/>
    <path d="M 111.395556 60.516959 
L 111.395556 11.16 
" clip-path="url(#p4e07db27c1)" style="fill: none; stroke-dasharray: 2.59,1.12; stroke-dashoffset: 0; stroke: #808080; stroke-width: 0.7"/>
    <path d="M 117.736474 60.516959 
L 117.736474 11.16 
" clip-path="url(#p4e07db27c1)" style="fill: none; stroke-dasharray: 2.59,1.12; stroke-dashoffset: 0; stroke: #808080; stroke-width: 0.7"/>
    <path d="M 124.077392 60.516959 
L 124.077392 11.16 
" clip-path="url(#p4e07db27c1)" style="fill: none; stroke-dasharray: 2.59,1.12; stroke-dashoffset: 0; stroke: #808080; stroke-width: 0.7"/>
    <path d="M 130.41831 60.516959 
L 130.41831 11.16 
" clip-path="url(#p4e07db27c1)" style="fill: none; stroke-dasharray: 2.59,1.12; stroke-dashoffset: 0; stroke: #808080; stroke-width: 0.7"/>
    <path d="M 136.759229 60.516959 
L 136.759229 11.16 
" clip-path="url(#p4e07db27c1)" style="fill: none; stroke-dasharray: 2.59,1.12; stroke-dashoffset: 0; stroke: #808080; stroke-width: 0.7"/>
    <path d="M 143.100147 60.516959 
L 143.100147 11.16 
" clip-path="url(#p4e07db27c1)" style="fill: none; stroke-dasharray: 2.59,1.12; stroke-dashoffset: 0; stroke: #808080; stroke-width: 0.7"/>
    <path d="M 149.441065 60.516959 
L 149.441065 11.16 
" clip-path="url(#p4e07db27c1)" style="fill: none; stroke-dasharray: 2.59,1.12; stroke-dashoffset: 0; stroke: #808080; stroke-width: 0.7"/>
    <path d="M 155.781983 60.516959 
L 155.781983 11.16 
" clip-path="url(#p4e07db27c1)" style="fill: none; stroke-dasharray: 2.59,1.12; stroke-dashoffset: 0; stroke: #808080; stroke-width: 0.7"/>
   </g>
   <g id="LineCollection_2">
    <path d="M 98.71372 61.56 
L 98.71372 13.372073 
" clip-path="url(#p4e07db27c1)" style="fill: none; stroke-dasharray: 5.55,2.4; stroke-dashoffset: 0; stroke: #808080; stroke-width: 1.5"/>
    <path d="M 162.122901 61.56 
L 162.122901 13.372073 
" clip-path="url(#p4e07db27c1)" style="fill: none; stroke-dasharray: 5.55,2.4; stroke-dashoffset: 0; stroke: #808080; stroke-width: 1.5"/>
   </g>
   <g id="patch_3">
    <path d="M 31.5 64.08 
L 31.5 8.64 
" style="fill: none; stroke: #000000; stroke-width: 0.5; stroke-linejoin: miter; stroke-linecap: square"/>
   </g>
   <g id="patch_4">
    <path d="M 31.5 64.08 
L 226.8 64.08 
" style="fill: none; stroke: #000000; stroke-width: 0.5; stroke-linejoin: miter; stroke-linecap: square"/>
   </g>
  </g>
 </g>
 <defs>
  <clipPath id="p4e07db27c1">
   <rect x="31.5" y="8.64" width="195.3" height="55.44"/>
  </clipPath>
 </defs>
</svg>
