<?xml version="1.0" encoding="utf-8" standalone="no"?>
<!DOCTYPE svg PUBLIC "-//W3C//DTD SVG 1.1//EN"
  "http://www.w3.org/Graphics/SVG/1.1/DTD/svg11.dtd">
<svg xmlns:xlink="http://www.w3.org/1999/xlink" width="144pt" height="72pt" viewBox="0 0 144 72" xmlns="http://www.w3.org/2000/svg" version="1.1">
 <metadata>
  <rdf:RDF xmlns:dc="http://purl.org/dc/elements/1.1/" xmlns:cc="http://creativecommons.org/ns#" xmlns:rdf="http://www.w3.org/1999/02/22-rdf-syntax-ns#">
   <cc:Work>
    <dc:type rdf:resource="http://purl.org/dc/dcmitype/StillImage"/>
    <dc:date>2024-07-10T09:51:28.098396</dc:date>
    <dc:format>image/svg+xml</dc:format>
    <dc:creator>
     <cc:Agent>
      <dc:title>Matplotlib v3.8.3, https://matplotlib.org/</dc:title>
     </cc:Agent>
    </dc:creator>
   </cc:Work>
  </rdf:RDF>
 </metadata>
 <defs>
  <style type="text/css">*{stroke-linejoin: round; stroke-linecap: butt}</style>
 </defs>
 <g id="figure_1">
  <g id="patch_1">
   <path d="M 0 72 
L 144 72 
L 144 0 
L 0 0 
z
" style="fill: #ffffff"/>
  </g>
  <g id="axes_1">
   <g id="matplotlib.axis_1"/>
   <g id="matplotlib.axis_2"/>
   <g id="line2d_1">
    <path d="M 17.997464 57.791569 
L 18.639164 56.804504 
L 19.240282 55.452309 
L 19.831255 53.544879 
L 20.442518 50.772603 
L 21.107045 46.653273 
L 21.888245 40.29851 
L 23.219836 27.202147 
L 24.107564 19.608272 
L 24.609764 16.974703 
L 24.934418 16.227277 
L 25.124645 16.193926 
L 25.297118 16.440199 
L 25.538073 17.241228 
L 25.8678 19.21562 
L 26.304055 23.344417 
L 26.895027 31.311456 
L 28.736427 57.865526 
L 29.010355 58.656491 
L 29.258918 58.799864 
L 29.619082 58.711867 
L 30.308973 58.284482 
L 31.125682 57.517788 
L 31.947464 56.431408 
L 32.802218 54.915002 
L 33.745745 52.760791 
L 34.937836 49.43195 
L 37.182518 43.073953 
L 37.849582 41.87298 
L 38.326418 41.417432 
L 38.691655 41.346006 
L 39.021382 41.511347 
L 39.389155 41.967796 
L 39.835555 42.911636 
L 40.401164 44.679543 
L 41.233091 48.114684 
L 42.480982 53.156595 
L 43.031373 54.498065 
L 43.470164 55.047239 
L 43.850618 55.198191 
L 44.226 55.106623 
L 44.657182 54.75616 
L 45.169527 54.031049 
L 45.745282 52.806127 
L 46.369227 50.924738 
L 47.046436 48.132086 
L 47.814955 43.94988 
L 48.8295 37.05488 
L 50.3361 26.920388 
L 50.883955 24.655216 
L 51.249191 23.932301 
L 51.48 23.858377 
L 51.677836 24.048811 
L 51.936545 24.663838 
L 52.281491 26.133773 
L 52.738036 29.166711 
L 53.369591 35.037035 
L 55.261718 53.65755 
L 55.680218 55.423374 
L 56.007409 55.991539 
L 56.268655 56.068161 
L 56.540045 55.898871 
L 56.912891 55.367258 
L 57.407482 54.238516 
L 57.998455 52.297394 
L 58.673127 49.262578 
L 59.467009 44.586489 
L 60.610909 36.328057 
L 61.904455 27.388041 
L 62.464991 24.914245 
L 62.825155 24.152029 
L 63.045818 24.083998 
L 63.228436 24.285625 
L 63.471927 24.948547 
L 63.791509 26.553098 
L 64.197327 29.863142 
L 64.707136 36.046049 
L 65.419855 47.770975 
L 66.1275 58.451298 
L 66.3786 59.529564 
L 66.632236 59.750429 
L 67.261255 59.882166 
L 68.577627 59.936741 
L 70.127345 59.780572 
L 71.471618 59.431358 
L 72.508991 58.939359 
L 73.330773 58.305552 
L 74.0232 57.486477 
L 74.647145 56.39119 
L 75.240655 54.877996 
L 75.8367 52.711554 
L 76.463182 49.536501 
L 77.158145 44.77856 
L 78.015436 37.225111 
L 80.031845 18.809511 
L 80.490927 16.710536 
L 80.785145 16.188815 
L 80.955082 16.21939 
L 81.1377 16.539477 
L 81.396409 17.519441 
L 81.746427 19.839139 
L 82.208045 24.571161 
L 82.844673 33.667607 
L 84.419755 57.164502 
L 84.719045 58.49897 
L 84.970145 58.781476 
L 85.264364 58.770088 
L 85.829973 58.482337 
L 86.634 57.824052 
L 87.453245 56.858878 
L 88.290245 55.514871 
L 89.193191 53.62069 
L 90.258464 50.830746 
L 93.360436 42.317341 
L 93.9159 41.566603 
L 94.326791 41.342533 
L 94.661591 41.400058 
L 95.006536 41.702846 
L 95.412355 42.386439 
L 95.914555 43.711085 
L 96.581618 46.167144 
L 98.582809 53.990295 
L 99.067255 54.853117 
L 99.470536 55.164745 
L 99.838309 55.182805 
L 100.236518 54.968882 
L 100.710818 54.440787 
L 101.258673 53.474485 
L 101.859791 51.936564 
L 102.5091 49.627341 
L 103.226891 46.195142 
L 104.081645 40.927854 
L 106.488655 25.31379 
L 106.9173 24.108734 
L 107.198836 23.846449 
L 107.3916 23.934249 
L 107.619873 24.332809 
L 107.926773 25.382031 
L 108.332591 27.656069 
L 108.877909 32.126554 
L 109.760564 41.533025 
L 110.787791 51.811465 
L 111.279845 54.74168 
L 111.647618 55.793413 
L 111.9393 56.066825 
L 112.1904 56.020642 
L 112.502373 55.706235 
L 112.933555 54.920891 
L 113.478873 53.42916 
L 114.107891 51.016917 
L 114.830755 47.297789 
L 115.728627 41.403705 
L 117.988527 25.96607 
L 118.447609 24.433585 
L 118.739291 24.075603 
L 118.921909 24.13791 
L 119.127355 24.498161 
L 119.403818 25.505654 
L 119.761445 27.761617 
L 120.210382 32.177866 
L 120.7836 40.254427 
L 122.067 59.234838 
L 122.300345 59.676334 
L 122.655436 59.814635 
L 123.725782 59.934755 
L 125.224773 59.879252 
L 126.700936 59.610036 
L 127.8702 59.179666 
L 128.775682 58.614846 
L 129.518836 57.888019 
L 129.597464 57.791215 
L 129.597464 57.791215 
" clip-path="url(#p816d2b6f0d)" style="fill: none; stroke: #000000; stroke-width: 1.5; stroke-linecap: square"/>
   </g>
   <g id="LineCollection_1">
    <path clip-path="url(#p816d2b6f0d)" style="fill: none; stroke-dasharray: 5.55,2.4; stroke-dashoffset: 0; stroke: #808080; stroke-width: 1.5"/>
    <path clip-path="url(#p816d2b6f0d)" style="fill: none; stroke-dasharray: 5.55,2.4; stroke-dashoffset: 0; stroke: #808080; stroke-width: 1.5"/>
    <path clip-path="url(#p816d2b6f0d)" style="fill: none; stroke-dasharray: 5.55,2.4; stroke-dashoffset: 0; stroke: #808080; stroke-width: 1.5"/>
    <path clip-path="url(#p816d2b6f0d)" style="fill: none; stroke-dasharray: 5.55,2.4; stroke-dashoffset: 0; stroke: #808080; stroke-width: 1.5"/>
    <path clip-path="url(#p816d2b6f0d)" style="fill: none; stroke-dasharray: 5.55,2.4; stroke-dashoffset: 0; stroke: #808080; stroke-width: 1.5"/>
    <path clip-path="url(#p816d2b6f0d)" style="fill: none; stroke-dasharray: 5.55,2.4; stroke-dashoffset: 0; stroke: #808080; stroke-width: 1.5"/>
    <path clip-path="url(#p816d2b6f0d)" style="fill: none; stroke-dasharray: 5.55,2.4; stroke-dashoffset: 0; stroke: #808080; stroke-width: 1.5"/>
    <path clip-path="url(#p816d2b6f0d)" style="fill: none; stroke-dasharray: 5.55,2.4; stroke-dashoffset: 0; stroke: #808080; stroke-width: 1.5"/>
    <path clip-path="url(#p816d2b6f0d)" style="fill: none; stroke-dasharray: 5.55,2.4; stroke-dashoffset: 0; stroke: #808080; stroke-width: 1.5"/>
    <path clip-path="url(#p816d2b6f0d)" style="fill: none; stroke-dasharray: 5.55,2.4; stroke-dashoffset: 0; stroke: #808080; stroke-width: 1.5"/>
    <path clip-path="url(#p816d2b6f0d)" style="fill: none; stroke-dasharray: 5.55,2.4; stroke-dashoffset: 0; stroke: #808080; stroke-width: 1.5"/>
    <path clip-path="url(#p816d2b6f0d)" style="fill: none; stroke-dasharray: 5.55,2.4; stroke-dashoffset: 0; stroke: #808080; stroke-width: 1.5"/>
    <path clip-path="url(#p816d2b6f0d)" style="fill: none; stroke-dasharray: 5.55,2.4; stroke-dashoffset: 0; stroke: #808080; stroke-width: 1.5"/>
    <path clip-path="url(#p816d2b6f0d)" style="fill: none; stroke-dasharray: 5.55,2.4; stroke-dashoffset: 0; stroke: #808080; stroke-width: 1.5"/>
    <path clip-path="url(#p816d2b6f0d)" style="fill: none; stroke-dasharray: 5.55,2.4; stroke-dashoffset: 0; stroke: #808080; stroke-width: 1.5"/>
    <path clip-path="url(#p816d2b6f0d)" style="fill: none; stroke-dasharray: 5.55,2.4; stroke-dashoffset: 0; stroke: #808080; stroke-width: 1.5"/>
    <path d="M 18 61.56 
L 18 11.16 
" clip-path="url(#p816d2b6f0d)" style="fill: none; stroke-dasharray: 5.55,2.4; stroke-dashoffset: 0; stroke: #808080; stroke-width: 1.5"/>
    <path d="M 45.9 61.56 
L 45.9 11.16 
" clip-path="url(#p816d2b6f0d)" style="fill: none; stroke-dasharray: 5.55,2.4; stroke-dashoffset: 0; stroke: #808080; stroke-width: 1.5"/>
    <path d="M 73.8 61.56 
L 73.8 11.16 
" clip-path="url(#p816d2b6f0d)" style="fill: none; stroke-dasharray: 5.55,2.4; stroke-dashoffset: 0; stroke: #808080; stroke-width: 1.5"/>
    <path d="M 101.7 61.56 
L 101.7 11.16 
" clip-path="url(#p816d2b6f0d)" style="fill: none; stroke-dasharray: 5.55,2.4; stroke-dashoffset: 0; stroke: #808080; stroke-width: 1.5"/>
   </g>
  </g>
 </g>
 <defs>
  <clipPath id="p816d2b6f0d">
   <rect x="18" y="8.64" width="111.6" height="55.44"/>
  </clipPath>
 </defs>
</svg>
