<?xml version="1.0" encoding="utf-8" standalone="no"?>
<!DOCTYPE svg PUBLIC "-//W3C//DTD SVG 1.1//EN"
  "http://www.w3.org/Graphics/SVG/1.1/DTD/svg11.dtd">
<svg xmlns:xlink="http://www.w3.org/1999/xlink" width="144pt" height="72pt" viewBox="0 0 144 72" xmlns="http://www.w3.org/2000/svg" version="1.1">
 <metadata>
  <rdf:RDF xmlns:dc="http://purl.org/dc/elements/1.1/" xmlns:cc="http://creativecommons.org/ns#" xmlns:rdf="http://www.w3.org/1999/02/22-rdf-syntax-ns#">
   <cc:Work>
    <dc:type rdf:resource="http://purl.org/dc/dcmitype/StillImage"/>
    <dc:date>2024-05-02T12:59:53.332400</dc:date>
    <dc:format>image/svg+xml</dc:format>
    <dc:creator>
     <cc:Agent>
      <dc:title>Matplotlib v3.8.3, https://matplotlib.org/</dc:title>
     </cc:Agent>
    </dc:creator>
   </cc:Work>
  </rdf:RDF>
 </metadata>
 <defs>
  <style type="text/css">*{stroke-linejoin: round; stroke-linecap: butt}</style>
 </defs>
 <g id="figure_1">
  <g id="patch_1">
   <path d="M 0 72 
L 144 72 
L 144 0 
L 0 0 
z
" style="fill: #ffffff"/>
  </g>
  <g id="axes_1">
   <g id="matplotlib.axis_1"/>
   <g id="matplotlib.axis_2"/>
   <g id="line2d_1">
    <path d="M 17.998732 56.285589 
L 18.405818 54.291694 
L 18.828123 51.006978 
L 19.302423 45.394276 
L 19.947927 34.721229 
L 20.787464 21.512724 
L 21.088023 19.623493 
L 21.176795 19.545305 
L 21.221182 19.596554 
L 21.342927 20.05708 
L 21.5433 21.858593 
L 21.842591 26.8828 
L 22.328305 39.448986 
L 23.022 56.311322 
L 23.265491 57.972647 
L 23.42655 58.089127 
L 23.435427 58.084885 
L 23.619314 57.863045 
L 23.957918 57.05289 
L 24.386564 55.413481 
L 24.864668 52.627931 
L 25.445495 47.788495 
L 27.012968 33.894536 
L 27.242509 33.492538 
L 27.354109 33.61757 
L 27.518973 34.233489 
L 27.761195 36.145695 
L 28.095995 40.810885 
L 28.664141 52.535995 
L 29.0484 58.295825 
L 29.270332 59.008703 
L 29.529041 59.141181 
L 29.998268 59.103929 
L 30.5271 58.841173 
L 31.017886 58.344425 
L 31.464286 57.561006 
L 31.881518 56.348419 
L 32.289873 54.420128 
L 32.710909 51.261028 
L 33.181405 45.877021 
L 33.806618 35.804729 
L 34.709564 21.677594 
L 35.00505 19.893655 
L 35.090018 19.826412 
L 35.134405 19.878174 
L 35.257418 20.343899 
L 35.459059 22.153927 
L 35.759618 27.176347 
L 36.251673 39.808613 
L 36.935223 56.186279 
L 37.182518 57.891544 
L 37.344845 58.014125 
L 37.353723 58.009877 
L 37.533805 57.789277 
L 37.8648 56.9753 
L 38.287105 55.308023 
L 38.760136 52.454175 
L 39.334623 47.479356 
L 40.908436 32.944331 
L 41.130368 32.571352 
L 41.2407 32.715309 
L 41.4081 33.402989 
L 41.652859 35.509242 
L 41.991464 40.629827 
L 42.617945 54.424396 
L 42.933723 58.643409 
L 43.146777 59.173273 
L 43.437191 59.284016 
L 43.959682 59.233911 
L 44.512609 58.959177 
L 45.014809 58.457756 
L 45.465014 57.679158 
L 45.882245 56.482548 
L 46.288064 54.587711 
L 46.706564 51.472207 
L 47.171986 46.162785 
L 47.779445 36.340925 
L 48.734386 21.1111 
L 49.0248 19.394861 
L 49.104695 19.340803 
L 49.149082 19.396044 
L 49.272095 19.878001 
L 49.473736 21.735935 
L 49.775564 26.904061 
L 50.268886 39.869076 
L 50.943559 56.37087 
L 51.185782 58.03019 
L 51.348109 58.143954 
L 51.355718 58.140278 
L 51.543409 57.916089 
L 51.888355 57.106291 
L 52.320805 55.4893 
L 52.802714 52.7516 
L 53.389882 47.992185 
L 54.949745 34.564922 
L 55.186895 34.137174 
L 55.301032 34.253177 
L 55.465895 34.836258 
L 55.70685 36.641229 
L 56.04165 41.071138 
L 56.602186 52.090058 
L 57.009273 58.11873 
L 57.236277 58.893291 
L 57.487377 59.034785 
L 57.926168 58.994356 
L 58.435977 58.726297 
L 58.916618 58.215715 
L 59.357945 57.405508 
L 59.773909 56.144193 
L 60.183532 54.132395 
L 60.609641 50.821087 
L 61.090282 45.161475 
L 61.757345 34.26097 
L 62.551227 22.1376 
L 62.854323 20.253943 
L 62.945632 20.173249 
L 62.990018 20.223756 
L 63.111764 20.674187 
L 63.312136 22.43228 
L 63.611427 27.329192 
L 64.099677 39.627088 
L 64.794641 56.050827 
L 65.044473 57.784464 
L 65.2068 57.916501 
L 65.216945 57.911798 
L 65.391955 57.694977 
L 65.711536 56.886685 
L 66.1275 55.187566 
L 66.594191 52.262832 
L 67.161068 47.143502 
L 68.746295 31.832047 
L 68.951741 31.497684 
L 68.958082 31.499935 
L 69.067145 31.666953 
L 69.237082 32.441074 
L 69.484377 34.778053 
L 69.826786 40.436459 
L 70.859086 59.226916 
L 71.100041 59.396089 
L 71.5959 59.426634 
L 72.186873 59.245021 
L 72.735995 58.843535 
L 73.215368 58.209373 
L 73.64655 57.248902 
L 74.053636 55.758188 
L 74.459455 53.354869 
L 74.891905 49.328099 
L 75.399177 42.293175 
L 76.945091 18.988177 
L 77.068105 18.787668 
L 77.107418 18.82302 
L 77.219018 19.196701 
L 77.406709 20.759761 
L 77.689514 25.285539 
L 78.130841 36.515098 
L 78.939941 56.915513 
L 79.169482 58.218885 
L 79.326736 58.272171 
L 79.330541 58.269808 
L 79.541059 58.003478 
L 79.917709 57.12696 
L 80.367914 55.479725 
L 80.870114 52.722255 
L 81.496595 47.897802 
L 82.892864 36.724021 
L 83.178205 35.999278 
L 83.315168 36.039698 
L 83.468618 36.427871 
L 83.695623 37.721366 
L 84.0114 40.99712 
L 84.486968 48.638185 
L 85.089355 57.534412 
L 85.33665 58.496879 
L 85.576336 58.671585 
L 85.927623 58.623507 
L 86.381632 58.333552 
L 86.830568 57.773176 
L 87.257945 56.863143 
L 87.671373 55.421692 
L 88.087336 53.09714 
L 88.5312 49.232317 
L 89.051155 42.542196 
L 90.566632 21.460679 
L 90.713741 21.197375 
L 90.745445 21.220129 
L 90.854509 21.52326 
L 91.037127 22.829921 
L 91.313591 26.680222 
L 91.742236 36.266516 
L 92.61855 56.064237 
L 92.865845 57.500511 
L 93.015491 57.589387 
L 93.030709 57.580311 
L 93.205718 57.325243 
L 93.515155 56.418441 
L 93.919705 54.490903 
L 94.381323 51.108782 
L 94.953273 45.086677 
L 96.390123 29.112965 
L 96.6222 28.551692 
L 96.71985 28.670701 
L 96.870764 29.324074 
L 97.0965 31.461908 
L 97.409741 36.861102 
L 97.881505 49.502986 
L 98.311418 59.023726 
L 98.504182 59.588245 
L 98.817423 59.723409 
L 99.436295 59.748894 
L 100.121114 59.556727 
L 100.7235 59.160273 
L 101.2257 58.558996 
L 101.664491 57.66847 
L 102.070309 56.304468 
L 102.468518 54.118955 
L 102.88575 50.470664 
L 103.362586 44.14024 
L 104.056282 31.452478 
L 104.779145 19.491266 
L 105.078436 17.464506 
L 105.164673 17.380178 
L 105.210327 17.435247 
L 105.330805 17.923832 
L 105.529909 19.84875 
L 105.826664 25.224654 
L 106.302232 38.592223 
L 106.999732 57.172001 
L 107.222932 58.532272 
L 107.385259 58.590324 
L 107.618605 58.339405 
L 108.040909 57.529124 
L 108.530427 56.080653 
L 109.080818 53.697367 
L 109.793536 49.501744 
L 111.061718 41.975671 
L 111.420614 41.037075 
L 111.622255 40.962494 
L 111.784582 41.177536 
L 112.011586 41.91935 
L 112.3299 43.833013 
L 112.809273 48.291121 
L 113.608227 55.544269 
L 113.921468 56.600986 
L 114.163691 56.795094 
L 114.384355 56.692906 
L 114.682377 56.271278 
L 115.056491 55.322573 
L 115.466114 53.630105 
L 115.903636 50.794726 
L 116.394423 46.013359 
L 117.052609 37.109734 
L 117.921314 25.868041 
L 118.228214 24.251868 
L 118.332205 24.175612 
L 118.371518 24.21512 
L 118.498336 24.606659 
L 118.702514 26.098119 
L 119.009414 30.244275 
L 119.523027 40.780416 
L 120.212918 53.841786 
L 120.508405 55.961034 
L 120.697364 56.206104 
L 120.701168 56.204769 
L 120.836864 56.033843 
L 121.067673 55.305437 
L 121.412618 53.394223 
L 121.8438 49.628968 
L 122.386582 42.709802 
L 123.846259 22.891329 
L 124.032682 22.437413 
L 124.050436 22.445535 
L 124.144282 22.650681 
L 124.302805 23.660102 
L 124.537418 26.827967 
L 124.859536 34.613262 
L 125.390905 54.02148 
L 125.658491 59.740368 
L 125.837305 60.014752 
L 126.350918 60.173443 
L 127.161286 60.192918 
L 128.043941 59.997099 
L 128.757927 59.619143 
L 129.309586 59.075741 
L 129.598732 58.633644 
L 129.598732 58.633644 
" clip-path="url(#p8a8ab6c31b)" style="fill: none; stroke: #000000; stroke-width: 1.5; stroke-linecap: square"/>
   </g>
   <g id="LineCollection_1">
    <path clip-path="url(#p8a8ab6c31b)" style="fill: none; stroke-dasharray: 5.55,2.4; stroke-dashoffset: 0; stroke: #808080; stroke-width: 1.5"/>
    <path clip-path="url(#p8a8ab6c31b)" style="fill: none; stroke-dasharray: 5.55,2.4; stroke-dashoffset: 0; stroke: #808080; stroke-width: 1.5"/>
    <path clip-path="url(#p8a8ab6c31b)" style="fill: none; stroke-dasharray: 5.55,2.4; stroke-dashoffset: 0; stroke: #808080; stroke-width: 1.5"/>
    <path clip-path="url(#p8a8ab6c31b)" style="fill: none; stroke-dasharray: 5.55,2.4; stroke-dashoffset: 0; stroke: #808080; stroke-width: 1.5"/>
    <path clip-path="url(#p8a8ab6c31b)" style="fill: none; stroke-dasharray: 5.55,2.4; stroke-dashoffset: 0; stroke: #808080; stroke-width: 1.5"/>
    <path clip-path="url(#p8a8ab6c31b)" style="fill: none; stroke-dasharray: 5.55,2.4; stroke-dashoffset: 0; stroke: #808080; stroke-width: 1.5"/>
    <path clip-path="url(#p8a8ab6c31b)" style="fill: none; stroke-dasharray: 5.55,2.4; stroke-dashoffset: 0; stroke: #808080; stroke-width: 1.5"/>
    <path clip-path="url(#p8a8ab6c31b)" style="fill: none; stroke-dasharray: 5.55,2.4; stroke-dashoffset: 0; stroke: #808080; stroke-width: 1.5"/>
    <path clip-path="url(#p8a8ab6c31b)" style="fill: none; stroke-dasharray: 5.55,2.4; stroke-dashoffset: 0; stroke: #808080; stroke-width: 1.5"/>
    <path clip-path="url(#p8a8ab6c31b)" style="fill: none; stroke-dasharray: 5.55,2.4; stroke-dashoffset: 0; stroke: #808080; stroke-width: 1.5"/>
    <path clip-path="url(#p8a8ab6c31b)" style="fill: none; stroke-dasharray: 5.55,2.4; stroke-dashoffset: 0; stroke: #808080; stroke-width: 1.5"/>
    <path d="M 4.05 61.56 
L 4.05 11.16 
" clip-path="url(#p8a8ab6c31b)" style="fill: none; stroke-dasharray: 5.55,2.4; stroke-dashoffset: 0; stroke: #808080; stroke-width: 1.5"/>
    <path d="M 18 61.56 
L 18 11.16 
" clip-path="url(#p8a8ab6c31b)" style="fill: none; stroke-dasharray: 5.55,2.4; stroke-dashoffset: 0; stroke: #808080; stroke-width: 1.5"/>
    <path d="M 31.95 61.56 
L 31.95 11.16 
" clip-path="url(#p8a8ab6c31b)" style="fill: none; stroke-dasharray: 5.55,2.4; stroke-dashoffset: 0; stroke: #808080; stroke-width: 1.5"/>
    <path d="M 45.9 61.56 
L 45.9 11.16 
" clip-path="url(#p8a8ab6c31b)" style="fill: none; stroke-dasharray: 5.55,2.4; stroke-dashoffset: 0; stroke: #808080; stroke-width: 1.5"/>
    <path d="M 59.85 61.56 
L 59.85 11.16 
" clip-path="url(#p8a8ab6c31b)" style="fill: none; stroke-dasharray: 5.55,2.4; stroke-dashoffset: 0; stroke: #808080; stroke-width: 1.5"/>
    <path d="M 73.8 61.56 
L 73.8 11.16 
" clip-path="url(#p8a8ab6c31b)" style="fill: none; stroke-dasharray: 5.55,2.4; stroke-dashoffset: 0; stroke: #808080; stroke-width: 1.5"/>
    <path d="M 87.75 61.56 
L 87.75 11.16 
" clip-path="url(#p8a8ab6c31b)" style="fill: none; stroke-dasharray: 5.55,2.4; stroke-dashoffset: 0; stroke: #808080; stroke-width: 1.5"/>
    <path d="M 101.7 61.56 
L 101.7 11.16 
" clip-path="url(#p8a8ab6c31b)" style="fill: none; stroke-dasharray: 5.55,2.4; stroke-dashoffset: 0; stroke: #808080; stroke-width: 1.5"/>
    <path d="M 115.65 61.56 
L 115.65 11.16 
" clip-path="url(#p8a8ab6c31b)" style="fill: none; stroke-dasharray: 5.55,2.4; stroke-dashoffset: 0; stroke: #808080; stroke-width: 1.5"/>
   </g>
  </g>
 </g>
 <defs>
  <clipPath id="p8a8ab6c31b">
   <rect x="18" y="8.64" width="111.6" height="55.44"/>
  </clipPath>
 </defs>
</svg>
