<?xml version="1.0" encoding="utf-8" standalone="no"?>
<!DOCTYPE svg PUBLIC "-//W3C//DTD SVG 1.1//EN"
  "http://www.w3.org/Graphics/SVG/1.1/DTD/svg11.dtd">
<svg xmlns:xlink="http://www.w3.org/1999/xlink" width="252pt" height="72pt" viewBox="0 0 252 72" xmlns="http://www.w3.org/2000/svg" version="1.1">
 <metadata>
  <rdf:RDF xmlns:dc="http://purl.org/dc/elements/1.1/" xmlns:cc="http://creativecommons.org/ns#" xmlns:rdf="http://www.w3.org/1999/02/22-rdf-syntax-ns#">
   <cc:Work>
    <dc:type rdf:resource="http://purl.org/dc/dcmitype/StillImage"/>
    <dc:date>2024-07-10T09:30:25.693950</dc:date>
    <dc:format>image/svg+xml</dc:format>
    <dc:creator>
     <cc:Agent>
      <dc:title>Matplotlib v3.8.3, https://matplotlib.org/</dc:title>
     </cc:Agent>
    </dc:creator>
   </cc:Work>
  </rdf:RDF>
 </metadata>
 <defs>
  <style type="text/css">*{stroke-linejoin: round; stroke-linecap: butt}</style>
 </defs>
 <g id="figure_1">
  <g id="patch_1">
   <path d="M 0 72 
L 252 72 
L 252 0 
L 0 0 
z
" style="fill: #ffffff"/>
  </g>
  <g id="axes_1">
   <g id="patch_2">
    <path d="M 31.5 64.08 
L 226.8 64.08 
L 226.8 8.64 
L 31.5 8.64 
z
" style="fill: #fffdee"/>
   </g>
   <g id="matplotlib.axis_1">
    <g id="xtick_1">
     <g id="line2d_1">
      <defs>
       <path id="meeab1731eb" d="M 0 0 
L 0 3.5 
" style="stroke: #000000; stroke-width: 0.5"/>
      </defs>
      <g>
       <use xlink:href="#meeab1731eb" x="40.377273" y="64.08" style="stroke: #000000; stroke-width: 0.5"/>
      </g>
     </g>
     <g id="text_1">
      <!-- 0 -->
      <g transform="translate(38.786648 74.879219) scale(0.05 -0.05)">
       <defs>
        <path id="DejaVuSans-30" d="M 2034 4250 
Q 1547 4250 1301 3770 
Q 1056 3291 1056 2328 
Q 1056 1369 1301 889 
Q 1547 409 2034 409 
Q 2525 409 2770 889 
Q 3016 1369 3016 2328 
Q 3016 3291 2770 3770 
Q 2525 4250 2034 4250 
z
M 2034 4750 
Q 2819 4750 3233 4129 
Q 3647 3509 3647 2328 
Q 3647 1150 3233 529 
Q 2819 -91 2034 -91 
Q 1250 -91 836 529 
Q 422 1150 422 2328 
Q 422 3509 836 4129 
Q 1250 4750 2034 4750 
z
" transform="scale(0.015625)"/>
       </defs>
       <use xlink:href="#DejaVuSans-30"/>
      </g>
     </g>
    </g>
    <g id="xtick_2">
     <g id="line2d_2">
      <g>
       <use xlink:href="#meeab1731eb" x="75.886541" y="64.08" style="stroke: #000000; stroke-width: 0.5"/>
      </g>
     </g>
     <g id="text_2">
      <!-- 20 -->
      <g transform="translate(72.705291 74.879219) scale(0.05 -0.05)">
       <defs>
        <path id="DejaVuSans-32" d="M 1228 531 
L 3431 531 
L 3431 0 
L 469 0 
L 469 531 
Q 828 903 1448 1529 
Q 2069 2156 2228 2338 
Q 2531 2678 2651 2914 
Q 2772 3150 2772 3378 
Q 2772 3750 2511 3984 
Q 2250 4219 1831 4219 
Q 1534 4219 1204 4116 
Q 875 4013 500 3803 
L 500 4441 
Q 881 4594 1212 4672 
Q 1544 4750 1819 4750 
Q 2544 4750 2975 4387 
Q 3406 4025 3406 3419 
Q 3406 3131 3298 2873 
Q 3191 2616 2906 2266 
Q 2828 2175 2409 1742 
Q 1991 1309 1228 531 
z
" transform="scale(0.015625)"/>
       </defs>
       <use xlink:href="#DejaVuSans-32"/>
       <use xlink:href="#DejaVuSans-30" x="63.623047"/>
      </g>
     </g>
    </g>
    <g id="xtick_3">
     <g id="line2d_3">
      <g>
       <use xlink:href="#meeab1731eb" x="111.39581" y="64.08" style="stroke: #000000; stroke-width: 0.5"/>
      </g>
     </g>
     <g id="text_3">
      <!-- 40 -->
      <g transform="translate(108.21456 74.879219) scale(0.05 -0.05)">
       <defs>
        <path id="DejaVuSans-34" d="M 2419 4116 
L 825 1625 
L 2419 1625 
L 2419 4116 
z
M 2253 4666 
L 3047 4666 
L 3047 1625 
L 3713 1625 
L 3713 1100 
L 3047 1100 
L 3047 0 
L 2419 0 
L 2419 1100 
L 313 1100 
L 313 1709 
L 2253 4666 
z
" transform="scale(0.015625)"/>
       </defs>
       <use xlink:href="#DejaVuSans-34"/>
       <use xlink:href="#DejaVuSans-30" x="63.623047"/>
      </g>
     </g>
    </g>
    <g id="xtick_4">
     <g id="line2d_4">
      <g>
       <use xlink:href="#meeab1731eb" x="146.905078" y="64.08" style="stroke: #000000; stroke-width: 0.5"/>
      </g>
     </g>
     <g id="text_4">
      <!-- 60 -->
      <g transform="translate(143.723828 74.879219) scale(0.05 -0.05)">
       <defs>
        <path id="DejaVuSans-36" d="M 2113 2584 
Q 1688 2584 1439 2293 
Q 1191 2003 1191 1497 
Q 1191 994 1439 701 
Q 1688 409 2113 409 
Q 2538 409 2786 701 
Q 3034 994 3034 1497 
Q 3034 2003 2786 2293 
Q 2538 2584 2113 2584 
z
M 3366 4563 
L 3366 3988 
Q 3128 4100 2886 4159 
Q 2644 4219 2406 4219 
Q 1781 4219 1451 3797 
Q 1122 3375 1075 2522 
Q 1259 2794 1537 2939 
Q 1816 3084 2150 3084 
Q 2853 3084 3261 2657 
Q 3669 2231 3669 1497 
Q 3669 778 3244 343 
Q 2819 -91 2113 -91 
Q 1303 -91 875 529 
Q 447 1150 447 2328 
Q 447 3434 972 4092 
Q 1497 4750 2381 4750 
Q 2619 4750 2861 4703 
Q 3103 4656 3366 4563 
z
" transform="scale(0.015625)"/>
       </defs>
       <use xlink:href="#DejaVuSans-36"/>
       <use xlink:href="#DejaVuSans-30" x="63.623047"/>
      </g>
     </g>
    </g>
    <g id="xtick_5">
     <g id="line2d_5">
      <g>
       <use xlink:href="#meeab1731eb" x="182.414347" y="64.08" style="stroke: #000000; stroke-width: 0.5"/>
      </g>
     </g>
     <g id="text_5">
      <!-- 80 -->
      <g transform="translate(179.233097 74.879219) scale(0.05 -0.05)">
       <defs>
        <path id="DejaVuSans-38" d="M 2034 2216 
Q 1584 2216 1326 1975 
Q 1069 1734 1069 1313 
Q 1069 891 1326 650 
Q 1584 409 2034 409 
Q 2484 409 2743 651 
Q 3003 894 3003 1313 
Q 3003 1734 2745 1975 
Q 2488 2216 2034 2216 
z
M 1403 2484 
Q 997 2584 770 2862 
Q 544 3141 544 3541 
Q 544 4100 942 4425 
Q 1341 4750 2034 4750 
Q 2731 4750 3128 4425 
Q 3525 4100 3525 3541 
Q 3525 3141 3298 2862 
Q 3072 2584 2669 2484 
Q 3125 2378 3379 2068 
Q 3634 1759 3634 1313 
Q 3634 634 3220 271 
Q 2806 -91 2034 -91 
Q 1263 -91 848 271 
Q 434 634 434 1313 
Q 434 1759 690 2068 
Q 947 2378 1403 2484 
z
M 1172 3481 
Q 1172 3119 1398 2916 
Q 1625 2713 2034 2713 
Q 2441 2713 2670 2916 
Q 2900 3119 2900 3481 
Q 2900 3844 2670 4047 
Q 2441 4250 2034 4250 
Q 1625 4250 1398 4047 
Q 1172 3844 1172 3481 
z
" transform="scale(0.015625)"/>
       </defs>
       <use xlink:href="#DejaVuSans-38"/>
       <use xlink:href="#DejaVuSans-30" x="63.623047"/>
      </g>
     </g>
    </g>
    <g id="xtick_6">
     <g id="line2d_6">
      <g>
       <use xlink:href="#meeab1731eb" x="217.923615" y="64.08" style="stroke: #000000; stroke-width: 0.5"/>
      </g>
     </g>
     <g id="text_6">
      <!-- 100 -->
      <g transform="translate(213.15174 74.879219) scale(0.05 -0.05)">
       <defs>
        <path id="DejaVuSans-31" d="M 794 531 
L 1825 531 
L 1825 4091 
L 703 3866 
L 703 4441 
L 1819 4666 
L 2450 4666 
L 2450 531 
L 3481 531 
L 3481 0 
L 794 0 
L 794 531 
z
" transform="scale(0.015625)"/>
       </defs>
       <use xlink:href="#DejaVuSans-31"/>
       <use xlink:href="#DejaVuSans-30" x="63.623047"/>
       <use xlink:href="#DejaVuSans-30" x="127.246094"/>
      </g>
     </g>
    </g>
    <g id="text_7">
     <!-- Time (h) -->
     <g transform="translate(113.480273 85.617891) scale(0.075 -0.075)">
      <defs>
       <path id="DejaVuSans-54" d="M -19 4666 
L 3928 4666 
L 3928 4134 
L 2272 4134 
L 2272 0 
L 1638 0 
L 1638 4134 
L -19 4134 
L -19 4666 
z
" transform="scale(0.015625)"/>
       <path id="DejaVuSans-69" d="M 603 3500 
L 1178 3500 
L 1178 0 
L 603 0 
L 603 3500 
z
M 603 4863 
L 1178 4863 
L 1178 4134 
L 603 4134 
L 603 4863 
z
" transform="scale(0.015625)"/>
       <path id="DejaVuSans-6d" d="M 3328 2828 
Q 3544 3216 3844 3400 
Q 4144 3584 4550 3584 
Q 5097 3584 5394 3201 
Q 5691 2819 5691 2113 
L 5691 0 
L 5113 0 
L 5113 2094 
Q 5113 2597 4934 2840 
Q 4756 3084 4391 3084 
Q 3944 3084 3684 2787 
Q 3425 2491 3425 1978 
L 3425 0 
L 2847 0 
L 2847 2094 
Q 2847 2600 2669 2842 
Q 2491 3084 2119 3084 
Q 1678 3084 1418 2786 
Q 1159 2488 1159 1978 
L 1159 0 
L 581 0 
L 581 3500 
L 1159 3500 
L 1159 2956 
Q 1356 3278 1631 3431 
Q 1906 3584 2284 3584 
Q 2666 3584 2933 3390 
Q 3200 3197 3328 2828 
z
" transform="scale(0.015625)"/>
       <path id="DejaVuSans-65" d="M 3597 1894 
L 3597 1613 
L 953 1613 
Q 991 1019 1311 708 
Q 1631 397 2203 397 
Q 2534 397 2845 478 
Q 3156 559 3463 722 
L 3463 178 
Q 3153 47 2828 -22 
Q 2503 -91 2169 -91 
Q 1331 -91 842 396 
Q 353 884 353 1716 
Q 353 2575 817 3079 
Q 1281 3584 2069 3584 
Q 2775 3584 3186 3129 
Q 3597 2675 3597 1894 
z
M 3022 2063 
Q 3016 2534 2758 2815 
Q 2500 3097 2075 3097 
Q 1594 3097 1305 2825 
Q 1016 2553 972 2059 
L 3022 2063 
z
" transform="scale(0.015625)"/>
       <path id="DejaVuSans-20" transform="scale(0.015625)"/>
       <path id="DejaVuSans-28" d="M 1984 4856 
Q 1566 4138 1362 3434 
Q 1159 2731 1159 2009 
Q 1159 1288 1364 580 
Q 1569 -128 1984 -844 
L 1484 -844 
Q 1016 -109 783 600 
Q 550 1309 550 2009 
Q 550 2706 781 3412 
Q 1013 4119 1484 4856 
L 1984 4856 
z
" transform="scale(0.015625)"/>
       <path id="DejaVuSans-68" d="M 3513 2113 
L 3513 0 
L 2938 0 
L 2938 2094 
Q 2938 2591 2744 2837 
Q 2550 3084 2163 3084 
Q 1697 3084 1428 2787 
Q 1159 2491 1159 1978 
L 1159 0 
L 581 0 
L 581 4863 
L 1159 4863 
L 1159 2956 
Q 1366 3272 1645 3428 
Q 1925 3584 2291 3584 
Q 2894 3584 3203 3211 
Q 3513 2838 3513 2113 
z
" transform="scale(0.015625)"/>
       <path id="DejaVuSans-29" d="M 513 4856 
L 1013 4856 
Q 1481 4119 1714 3412 
Q 1947 2706 1947 2009 
Q 1947 1309 1714 600 
Q 1481 -109 1013 -844 
L 513 -844 
Q 928 -128 1133 580 
Q 1338 1288 1338 2009 
Q 1338 2731 1133 3434 
Q 928 4138 513 4856 
z
" transform="scale(0.015625)"/>
      </defs>
      <use xlink:href="#DejaVuSans-54"/>
      <use xlink:href="#DejaVuSans-69" x="57.958984"/>
      <use xlink:href="#DejaVuSans-6d" x="85.742188"/>
      <use xlink:href="#DejaVuSans-65" x="183.154297"/>
      <use xlink:href="#DejaVuSans-20" x="244.677734"/>
      <use xlink:href="#DejaVuSans-28" x="276.464844"/>
      <use xlink:href="#DejaVuSans-68" x="315.478516"/>
      <use xlink:href="#DejaVuSans-29" x="378.857422"/>
     </g>
    </g>
   </g>
   <g id="matplotlib.axis_2">
    <g id="ytick_1">
     <g id="line2d_7">
      <defs>
       <path id="m6d4497cfc8" d="M 0 0 
L -3.5 0 
" style="stroke: #000000; stroke-width: 0.5"/>
      </defs>
      <g>
       <use xlink:href="#m6d4497cfc8" x="31.5" y="61.56" style="stroke: #000000; stroke-width: 0.5"/>
      </g>
     </g>
     <g id="text_8">
      <!-- 0 -->
      <g transform="translate(21.31875 63.459609) scale(0.05 -0.05)">
       <use xlink:href="#DejaVuSans-30"/>
      </g>
     </g>
    </g>
    <g id="ytick_2">
     <g id="line2d_8">
      <g>
       <use xlink:href="#m6d4497cfc8" x="31.5" y="41.416684" style="stroke: #000000; stroke-width: 0.5"/>
      </g>
     </g>
     <g id="text_9">
      <!-- 2 -->
      <g transform="translate(21.31875 43.316294) scale(0.05 -0.05)">
       <use xlink:href="#DejaVuSans-32"/>
      </g>
     </g>
    </g>
    <g id="ytick_3">
     <g id="line2d_9">
      <g>
       <use xlink:href="#m6d4497cfc8" x="31.5" y="21.273369" style="stroke: #000000; stroke-width: 0.5"/>
      </g>
     </g>
     <g id="text_10">
      <!-- 4 -->
      <g transform="translate(21.31875 23.172978) scale(0.05 -0.05)">
       <use xlink:href="#DejaVuSans-34"/>
      </g>
     </g>
    </g>
    <g id="text_11">
     <!-- p53 (a.u.) -->
     <g transform="translate(15.758984 54.688711) rotate(-90) scale(0.075 -0.075)">
      <defs>
       <path id="DejaVuSans-70" d="M 1159 525 
L 1159 -1331 
L 581 -1331 
L 581 3500 
L 1159 3500 
L 1159 2969 
Q 1341 3281 1617 3432 
Q 1894 3584 2278 3584 
Q 2916 3584 3314 3078 
Q 3713 2572 3713 1747 
Q 3713 922 3314 415 
Q 2916 -91 2278 -91 
Q 1894 -91 1617 61 
Q 1341 213 1159 525 
z
M 3116 1747 
Q 3116 2381 2855 2742 
Q 2594 3103 2138 3103 
Q 1681 3103 1420 2742 
Q 1159 2381 1159 1747 
Q 1159 1113 1420 752 
Q 1681 391 2138 391 
Q 2594 391 2855 752 
Q 3116 1113 3116 1747 
z
" transform="scale(0.015625)"/>
       <path id="DejaVuSans-35" d="M 691 4666 
L 3169 4666 
L 3169 4134 
L 1269 4134 
L 1269 2991 
Q 1406 3038 1543 3061 
Q 1681 3084 1819 3084 
Q 2600 3084 3056 2656 
Q 3513 2228 3513 1497 
Q 3513 744 3044 326 
Q 2575 -91 1722 -91 
Q 1428 -91 1123 -41 
Q 819 9 494 109 
L 494 744 
Q 775 591 1075 516 
Q 1375 441 1709 441 
Q 2250 441 2565 725 
Q 2881 1009 2881 1497 
Q 2881 1984 2565 2268 
Q 2250 2553 1709 2553 
Q 1456 2553 1204 2497 
Q 953 2441 691 2322 
L 691 4666 
z
" transform="scale(0.015625)"/>
       <path id="DejaVuSans-33" d="M 2597 2516 
Q 3050 2419 3304 2112 
Q 3559 1806 3559 1356 
Q 3559 666 3084 287 
Q 2609 -91 1734 -91 
Q 1441 -91 1130 -33 
Q 819 25 488 141 
L 488 750 
Q 750 597 1062 519 
Q 1375 441 1716 441 
Q 2309 441 2620 675 
Q 2931 909 2931 1356 
Q 2931 1769 2642 2001 
Q 2353 2234 1838 2234 
L 1294 2234 
L 1294 2753 
L 1863 2753 
Q 2328 2753 2575 2939 
Q 2822 3125 2822 3475 
Q 2822 3834 2567 4026 
Q 2313 4219 1838 4219 
Q 1578 4219 1281 4162 
Q 984 4106 628 3988 
L 628 4550 
Q 988 4650 1302 4700 
Q 1616 4750 1894 4750 
Q 2613 4750 3031 4423 
Q 3450 4097 3450 3541 
Q 3450 3153 3228 2886 
Q 3006 2619 2597 2516 
z
" transform="scale(0.015625)"/>
       <path id="DejaVuSans-61" d="M 2194 1759 
Q 1497 1759 1228 1600 
Q 959 1441 959 1056 
Q 959 750 1161 570 
Q 1363 391 1709 391 
Q 2188 391 2477 730 
Q 2766 1069 2766 1631 
L 2766 1759 
L 2194 1759 
z
M 3341 1997 
L 3341 0 
L 2766 0 
L 2766 531 
Q 2569 213 2275 61 
Q 1981 -91 1556 -91 
Q 1019 -91 701 211 
Q 384 513 384 1019 
Q 384 1609 779 1909 
Q 1175 2209 1959 2209 
L 2766 2209 
L 2766 2266 
Q 2766 2663 2505 2880 
Q 2244 3097 1772 3097 
Q 1472 3097 1187 3025 
Q 903 2953 641 2809 
L 641 3341 
Q 956 3463 1253 3523 
Q 1550 3584 1831 3584 
Q 2591 3584 2966 3190 
Q 3341 2797 3341 1997 
z
" transform="scale(0.015625)"/>
       <path id="DejaVuSans-2e" d="M 684 794 
L 1344 794 
L 1344 0 
L 684 0 
L 684 794 
z
" transform="scale(0.015625)"/>
       <path id="DejaVuSans-75" d="M 544 1381 
L 544 3500 
L 1119 3500 
L 1119 1403 
Q 1119 906 1312 657 
Q 1506 409 1894 409 
Q 2359 409 2629 706 
Q 2900 1003 2900 1516 
L 2900 3500 
L 3475 3500 
L 3475 0 
L 2900 0 
L 2900 538 
Q 2691 219 2414 64 
Q 2138 -91 1772 -91 
Q 1169 -91 856 284 
Q 544 659 544 1381 
z
M 1991 3584 
L 1991 3584 
z
" transform="scale(0.015625)"/>
      </defs>
      <use xlink:href="#DejaVuSans-70"/>
      <use xlink:href="#DejaVuSans-35" x="63.476562"/>
      <use xlink:href="#DejaVuSans-33" x="127.099609"/>
      <use xlink:href="#DejaVuSans-20" x="190.722656"/>
      <use xlink:href="#DejaVuSans-28" x="222.509766"/>
      <use xlink:href="#DejaVuSans-61" x="261.523438"/>
      <use xlink:href="#DejaVuSans-2e" x="322.802734"/>
      <use xlink:href="#DejaVuSans-75" x="354.589844"/>
      <use xlink:href="#DejaVuSans-2e" x="417.96875"/>
      <use xlink:href="#DejaVuSans-29" x="449.755859"/>
     </g>
    </g>
   </g>
   <g id="line2d_10">
    <path d="M 40.377273 61.56 
L 40.547717 57.900736 
L 40.764324 56.922419 
L 40.765211 56.924849 
L 40.893045 57.06956 
L 41.478948 59.059097 
L 42.154512 59.690319 
L 42.159838 59.680827 
L 42.191796 59.674495 
L 42.21399 59.704775 
L 42.267254 59.706125 
L 42.27258 59.697962 
L 42.395087 59.751197 
L 42.512267 59.735798 
L 42.410178 59.759166 
L 42.514043 59.739963 
L 42.620571 59.739357 
L 42.62856 59.73332 
L 42.743965 59.720949 
L 42.66407 59.755074 
L 42.747516 59.738089 
L 43.092844 59.745391 
L 43.201147 59.710542 
L 43.095507 59.746151 
L 43.210025 59.723816 
L 43.353837 59.7263 
L 43.354725 59.723812 
L 43.561566 59.678423 
L 43.60329 59.686486 
L 43.568668 59.675389 
L 43.667206 59.647149 
L 43.792377 59.608099 
L 43.833212 59.614332 
L 43.803029 59.599188 
L 43.898904 59.575081 
L 43.965484 59.545954 
L 43.984127 59.513265 
L 43.996555 59.52504 
L 43.999218 59.531323 
L 44.130602 59.498404 
L 44.246008 59.501735 
L 44.160785 59.481839 
L 44.248671 59.497758 
L 44.250446 59.500683 
L 45.469302 58.810588 
L 45.611339 58.730723 
L 45.740948 58.658312 
L 45.743611 58.662416 
L 45.831496 58.581985 
L 45.833272 58.584297 
L 46.003716 58.401199 
L 46.088051 58.292206 
L 46.257608 58.054846 
L 46.258495 58.057297 
L 46.259383 58.058611 
L 46.314422 57.943613 
L 46.954477 56.60425 
L 47.304243 55.449259 
L 47.389466 55.133833 
L 47.635367 53.979494 
L 48.192863 50.525474 
L 49.411718 37.586077 
L 49.882216 31.054514 
L 50.521383 24.681144 
L 50.838303 23.838372 
L 50.856946 23.85843 
L 51.211151 25.74686 
L 51.528071 29.835196 
L 51.773972 34.662188 
L 52.097995 42.590306 
L 52.810843 59.014027 
L 53.048755 59.701038 
L 53.06651 59.688272 
L 53.146406 59.773053 
L 53.268025 59.81109 
L 53.271576 59.804571 
L 53.398521 59.777557 
L 53.400297 59.781324 
L 53.473979 59.827305 
L 53.521916 59.800644 
L 53.628444 59.805187 
L 53.638209 59.82159 
L 53.808654 59.785102 
L 53.809541 59.787554 
L 53.969333 59.791342 
L 53.971108 59.794315 
L 53.971996 59.797574 
L 54.035025 59.749132 
L 54.073198 59.74969 
L 54.082075 59.760905 
L 54.198368 59.708147 
L 54.374139 59.652157 
L 54.378577 59.657849 
L 54.383016 59.663428 
L 54.406985 59.63273 
L 54.479779 59.610527 
L 54.612938 59.524448 
L 54.659988 59.541203 
L 54.710589 59.495894 
L 54.719466 59.49663 
L 54.756751 59.456797 
L 54.833984 59.48936 
L 54.837535 59.492323 
L 54.912992 59.412641 
L 54.927195 59.416868 
L 55.053253 59.296666 
L 55.061243 59.301323 
L 55.988923 58.207452 
L 56.148714 57.954664 
L 56.149602 57.955537 
L 56.19754 57.850185 
L 56.440778 57.388891 
L 56.537541 57.241443 
L 56.680466 56.937285 
L 56.953887 56.176541 
L 57.000049 56.026232 
L 57.400416 54.863635 
L 57.671174 53.85421 
L 57.727101 53.641573 
L 58.296137 50.813958 
L 58.710708 48.003626 
L 58.984129 46.10879 
L 59.493687 42.368624 
L 59.720059 40.359837 
L 60.050295 37.170229 
L 60.197659 35.745439 
L 60.942466 29.014903 
L 61.347271 26.84031 
L 61.558551 26.636529 
L 61.567429 26.642119 
L 61.718343 26.983978 
L 62.507537 34.999712 
L 63.747698 58.584308 
L 63.95809 59.343012 
L 63.960753 59.3394 
L 64.278561 59.43347 
L 64.389528 59.433461 
L 64.30253 59.447049 
L 64.393966 59.435169 
L 64.394854 59.43773 
L 64.454332 59.380734 
L 64.492505 59.383964 
L 64.623001 59.304826 
L 64.624777 59.307824 
L 64.786344 59.2704 
L 64.79167 59.276545 
L 64.805874 59.263463 
L 64.901749 59.257076 
L 65.021593 59.222099 
L 65.109478 59.178016 
L 65.03047 59.212322 
L 65.117468 59.163556 
L 65.200027 59.119465 
L 65.120131 59.165245 
L 65.233761 59.142634 
L 65.522273 58.987122 
L 65.524049 58.996674 
L 65.661647 58.915036 
L 66.789954 57.904597 
L 66.917788 57.720854 
L 66.92489 57.725222 
L 67.401601 56.695178 
L 67.600453 56.158796 
L 67.601341 56.161845 
L 67.66437 55.986796 
L 67.855232 55.475462 
L 68.030116 54.990976 
L 68.256487 54.288214 
L 68.568081 53.178932 
L 68.896542 51.684665 
L 69.312 49.603737 
L 69.529494 48.560956 
L 70.131376 46.102009 
L 70.194405 45.969132 
L 70.793624 44.730018 
L 70.890387 44.558597 
L 71.124748 44.120765 
L 71.125636 44.122076 
L 71.181563 44.010362 
L 71.183339 44.010122 
L 71.354671 43.714076 
L 71.520677 43.404546 
L 71.524228 43.412671 
L 71.736395 42.970052 
L 71.737283 42.971274 
L 71.780782 42.846112 
L 73.376036 37.413564 
L 73.599744 36.63121 
L 74.049824 35.542338 
L 74.055151 35.548445 
L 74.061365 35.550355 
L 74.083558 35.501245 
L 74.138597 35.473047 
L 74.266431 35.437717 
L 74.27442 35.444978 
L 74.452854 35.633469 
L 74.453742 35.630774 
L 74.522985 35.771445 
L 74.8186 37.02551 
L 75.118653 39.214333 
L 76.254062 53.876222 
L 76.543463 56.585303 
L 77.005083 57.922108 
L 77.007746 57.915819 
L 77.098295 57.869574 
L 77.106285 57.855132 
L 77.294484 57.645836 
L 77.298922 57.649545 
L 77.301586 57.654826 
L 77.381481 57.527265 
L 77.383257 57.531032 
L 77.572344 57.177269 
L 77.574119 57.178368 
L 77.575007 57.179401 
L 77.623832 57.073864 
L 77.627383 57.071987 
L 77.876836 56.464332 
L 78.174226 55.383193 
L 78.529318 53.769317 
L 78.530206 53.769795 
L 78.965195 51.225656 
L 79.410836 48.268416 
L 79.915068 45.029712 
L 80.30567 43.231757 
L 80.343842 43.125136 
L 80.493869 42.831366 
L 80.597733 42.797545 
L 80.621702 42.812685 
L 80.640344 42.803859 
L 80.769066 42.977762 
L 80.901338 43.245789 
L 81.575126 47.239018 
L 81.87873 49.981756 
L 82.502806 54.447298 
L 82.891632 55.455173 
L 82.899622 55.449706 
L 82.971528 55.445261 
L 82.91205 55.462585 
L 83.0097 55.464917 
L 83.136646 55.469795 
L 83.014139 55.460479 
L 83.139309 55.456422 
L 83.946257 52.614602 
L 84.9707 42.480566 
L 85.36574 37.119438 
L 85.943654 29.174379 
L 86.529557 23.454687 
L 86.79055 22.631945 
L 86.850028 22.685362 
L 87.028462 23.324755 
L 87.151857 24.27467 
L 87.653425 32.577841 
L 87.99964 42.086183 
L 88.705387 59.654644 
L 88.901576 59.936733 
L 88.902464 59.933749 
L 89.030297 59.964332 
L 89.032072 59.96005 
L 89.178548 59.92186 
L 89.182987 59.932234 
L 89.296616 59.920219 
L 89.301055 59.92531 
L 89.427113 59.861658 
L 89.462622 59.853647 
L 89.517662 59.798966 
L 89.521213 59.799243 
L 89.64372 59.734634 
L 89.533641 59.80867 
L 89.654372 59.745875 
L 89.767114 59.674759 
L 89.768002 59.671374 
L 90.723201 58.511269 
L 90.93093 58.019073 
L 90.931818 58.020265 
L 90.973542 57.921398 
L 90.974429 57.917195 
L 91.046336 57.707007 
L 91.423622 56.434973 
L 91.672186 55.464149 
L 91.815999 54.877503 
L 92.024616 53.978883 
L 92.701068 51.036946 
L 93.109424 50.01465 
L 93.1112 50.014257 
L 93.152035 49.916485 
L 93.297623 49.628607 
L 93.522219 49.230141 
L 93.523107 49.231097 
L 93.576371 49.127313 
L 93.832925 48.740379 
L 93.863996 48.731653 
L 93.920811 48.668976 
L 94.133867 48.440765 
L 94.142744 48.452664 
L 94.145407 48.457614 
L 94.235068 48.366735 
L 94.360238 48.28846 
L 94.370891 48.296944 
L 94.451674 48.264594 
L 94.427706 48.246551 
L 94.467654 48.243496 
L 94.490735 48.216773 
L 94.57862 48.258819 
L 94.824522 48.193326 
L 94.90353 48.193264 
L 94.938151 48.174758 
L 95.205359 48.032539 
L 95.207134 48.038708 
L 95.29502 47.966412 
L 95.297683 47.958539 
L 95.516953 47.617388 
L 95.522279 47.622501 
L 95.579094 47.501932 
L 95.579981 47.50197 
L 95.902228 46.555017 
L 96.147242 45.460004 
L 96.401133 43.996697 
L 96.690534 41.885595 
L 98.454457 26.041981 
L 98.699471 25.504441 
L 98.753622 25.546956 
L 99.064328 26.798777 
L 99.476236 31.978067 
L 99.813574 39.340679 
L 100.678225 59.832767 
L 100.684439 59.82242 
L 100.765222 59.928735 
L 100.89128 60.015893 
L 100.986268 60.017087 
L 100.956085 59.987667 
L 101.00491 60.006766 
L 101.116764 59.99132 
L 101.07149 60.032098 
L 101.117652 59.99406 
L 101.241047 59.96587 
L 101.251699 59.977426 
L 101.354676 59.978443 
L 101.268566 59.965424 
L 101.369768 59.965984 
L 101.419481 59.991592 
L 101.493162 59.932874 
L 101.598802 59.896896 
L 101.605904 59.883485 
L 101.817184 59.8058 
L 101.973425 59.663617 
L 101.827837 59.813346 
L 101.979639 59.666981 
L 102.505177 59.196282 
L 102.739538 58.832178 
L 102.740425 58.833592 
L 102.83275 58.672256 
L 103.152333 57.908887 
L 103.153221 57.913674 
L 103.243769 57.675036 
L 103.495885 56.885111 
L 103.750664 55.924233 
L 106.160856 44.350693 
L 106.162631 44.352025 
L 106.200804 44.247256 
L 106.538142 43.333138 
L 106.639343 43.040208 
L 106.858613 42.433861 
L 106.859501 42.436602 
L 106.916315 42.25202 
L 107.302479 41.102112 
L 107.359294 40.95252 
L 108.424572 37.531601 
L 108.807184 35.884311 
L 109.847606 31.561996 
L 109.848493 31.562966 
L 110.111262 30.932615 
L 110.11215 30.934405 
L 110.173403 30.87454 
L 110.199147 30.862459 
L 110.305675 30.811745 
L 110.202698 30.863534 
L 110.326093 30.822569 
L 110.642125 31.309631 
L 111.315914 36.822448 
L 111.585784 40.877607 
L 112.150382 52.352046 
L 112.524117 58.50449 
L 112.73007 59.521398 
L 112.731846 59.518692 
L 112.770906 59.595201 
L 112.806415 59.606918 
L 113.028348 59.778549 
L 113.11357 59.794659 
L 113.133101 59.8154 
L 113.213884 59.83102 
L 113.245843 59.817361 
L 113.341718 59.82855 
L 113.302657 59.863993 
L 113.355034 59.836232 
L 113.556549 59.83509 
L 113.559212 59.844468 
L 113.654199 59.853513 
L 113.671954 59.837804 
L 113.813103 59.779805 
L 113.673729 59.838838 
L 113.82198 59.784464 
L 113.929396 59.745963 
L 113.830858 59.775631 
L 113.931171 59.742599 
L 114.04924 59.673217 
L 114.062556 59.678364 
L 114.277387 59.555278 
L 114.420312 59.461179 
L 114.508197 59.399194 
L 114.426526 59.454052 
L 114.509085 59.393873 
L 114.668876 59.205724 
L 114.669764 59.209933 
L 114.759425 59.146775 
L 114.770078 59.148678 
L 114.981358 58.843269 
L 114.983133 58.844805 
L 114.997337 58.844346 
L 115.062142 58.74466 
L 115.065693 58.754193 
L 115.940996 56.320953 
L 116.212642 55.030079 
L 116.696456 51.605925 
L 118.680536 35.019231 
L 119.010772 34.363885 
L 119.034741 34.388215 
L 119.042731 34.379524 
L 119.382732 34.941157 
L 119.713856 36.649097 
L 120.055632 39.304805 
L 120.423153 42.759691 
L 120.869682 47.127015 
L 121.19548 49.413413 
L 121.662427 50.930179 
L 121.663315 50.928326 
L 121.966031 50.88814 
L 122.871517 45.900292 
L 123.183999 43.212846 
L 124.2404 34.82802 
L 124.278572 34.651873 
L 124.480087 33.837237 
L 124.659409 33.434879 
L 124.784579 33.405425 
L 124.785467 33.408062 
L 125.116591 34.235376 
L 125.303015 35.370158 
L 125.991007 43.340922 
L 126.734926 53.812438 
L 127.036755 56.282107 
L 127.062499 56.405067 
L 127.283544 57.114721 
L 127.580046 57.21148 
L 127.590699 57.193855 
L 127.755817 56.972428 
L 128.714568 53.139384 
L 129.074987 50.616887 
L 129.359061 48.28562 
L 129.823345 44.368816 
L 131.035098 35.908313 
L 131.254368 35.605754 
L 131.627215 36.6428 
L 131.940585 38.945731 
L 132.34539 43.258166 
L 132.839857 49.604987 
L 133.494115 55.395716 
L 133.495891 55.393444 
L 133.786179 55.948906 
L 134.296625 54.903486 
L 134.511456 53.843727 
L 134.551404 53.631725 
L 135.13997 49.038732 
L 135.89898 39.887753 
L 136.746764 29.069432 
L 136.879036 27.96473 
L 137.089429 26.821281 
L 137.090316 26.823526 
L 137.147131 26.667763 
L 137.148019 26.667495 
L 137.265199 26.585331 
L 137.282066 26.609868 
L 137.28828 26.605306 
L 137.706402 28.978674 
L 137.98515 32.955133 
L 138.397057 42.229892 
L 139.072621 59.00462 
L 139.24129 59.768298 
L 139.245729 59.767717 
L 139.430377 59.88904 
L 139.254606 59.762308 
L 139.43304 59.883771 
L 139.579516 59.85835 
L 139.587506 59.876261 
L 139.67184 59.89721 
L 139.705574 59.872861 
L 139.895549 59.794722 
L 139.898212 59.797972 
L 140.091737 59.757729 
L 140.092625 59.754939 
L 140.261294 59.653721 
L 140.280824 59.653905 
L 140.342965 59.57842 
L 140.344741 59.577878 
L 140.61905 59.329847 
L 140.619938 59.334998 
L 140.703384 59.218897 
L 140.713149 59.221808 
L 140.999887 58.858253 
L 141.282185 58.392159 
L 141.283073 58.393437 
L 141.341663 58.288218 
L 141.920465 56.700176 
L 142.137071 56.048879 
L 143.888566 51.218303 
L 143.951595 51.104053 
L 144.112274 50.822704 
L 144.174415 50.690841 
L 144.369716 50.251394 
L 144.370604 50.251638 
L 144.685749 49.366519 
L 145.129615 47.348291 
L 146.045754 38.754916 
L 146.537557 31.409623 
L 147.246855 20.210331 
L 147.822105 13.241221 
L 148.271297 11.17168 
L 148.272185 11.172132 
L 148.456833 11.651453 
L 148.748897 14.714511 
L 149.173233 24.622809 
L 149.783104 50.705428 
L 150.076056 60.348112 
L 150.257153 60.555502 
L 150.3406 60.587666 
L 150.284673 60.583169 
L 150.357467 60.604386 
L 150.550105 60.652904 
L 150.656632 60.676714 
L 150.658408 60.681386 
L 150.774701 60.710585 
L 150.663734 60.679928 
L 150.775588 60.706732 
L 150.78269 60.699826 
L 150.825301 60.736714 
L 150.884779 60.72729 
L 152.445412 60.606976 
L 152.562592 60.56055 
L 152.676222 60.542372 
L 152.67711 60.53784 
L 152.84134 60.477123 
L 152.679773 60.540503 
L 152.843116 60.480437 
L 153.000244 60.400167 
L 153.124526 60.372059 
L 153.00557 60.402117 
L 153.125414 60.375963 
L 153.23283 60.290621 
L 153.362439 60.215028 
L 153.448549 60.192928 
L 153.382856 60.19427 
L 153.462752 60.172803 
L 153.590586 60.058161 
L 153.743275 59.932648 
L 153.744163 59.933395 
L 153.747714 59.938063 
L 153.837375 59.846811 
L 154.095705 59.604215 
L 154.452573 59.185287 
L 154.725107 58.766939 
L 154.733096 58.770571 
L 154.779258 58.654112 
L 154.970121 58.341559 
L 154.971896 58.346033 
L 155.047353 58.222901 
L 155.048241 58.222624 
L 155.051792 58.227501 
L 155.113045 58.098262 
L 155.18939 57.974726 
L 155.333203 57.763284 
L 155.339417 57.7658 
L 155.405997 57.689953 
L 155.40866 57.680784 
L 155.572891 57.381115 
L 155.573778 57.383186 
L 155.579992 57.387051 
L 155.648348 57.273524 
L 155.702499 57.167665 
L 155.863179 56.900699 
L 156.188976 56.386275 
L 156.190752 56.391672 
L 156.486366 56.044854 
L 156.493468 56.050315 
L 156.556497 56.009009 
L 156.57514 55.97688 
L 156.703861 55.829268 
L 156.706524 55.831387 
L 157.125533 55.357269 
L 157.291539 55.135941 
L 157.294202 55.137152 
L 157.371435 55.056416 
L 158.164179 52.738557 
L 158.541465 50.792657 
L 158.749195 49.477233 
L 159.026167 47.420466 
L 160.316929 33.60334 
L 160.931239 26.834656 
L 161.402625 23.395642 
L 161.640537 22.72508 
L 161.74884 22.817032 
L 161.750616 22.817407 
L 161.794114 22.919906 
L 161.906856 23.343747 
L 162.233542 26.313493 
L 162.554013 31.941504 
L 162.876259 40.117942 
L 163.72138 59.975244 
L 163.727594 59.964447 
L 163.812816 60.026149 
L 163.789735 60.025959 
L 163.815479 60.029967 
L 163.928221 60.119424 
L 163.954853 60.097699 
L 164.022321 60.085073 
L 164.064932 60.111985 
L 164.136838 60.127476 
L 164.078248 60.105322 
L 164.176786 60.118926 
L 164.25757 60.113622 
L 164.189215 60.130482 
L 164.289528 60.132456 
L 164.364985 60.144055 
L 164.40227 60.123013 
L 165.574076 59.539056 
L 165.748959 59.338782 
L 165.755173 59.340993 
L 165.828855 59.24195 
L 165.96379 59.016124 
L 166.125357 58.759446 
L 166.378361 58.205276 
L 166.634915 57.502789 
L 166.635803 57.503194 
L 166.723689 57.250499 
L 166.892358 56.711689 
L 166.893245 56.712804 
L 167.132933 55.779028 
L 167.184421 55.607418 
L 167.374396 54.820075 
L 167.375284 54.820496 
L 167.402803 54.715075 
L 167.780977 53.200171 
L 168.65273 50.064563 
L 168.7779 49.674444 
L 168.920825 49.265617 
L 168.990068 49.092297 
L 169.225317 48.632796 
L 169.226204 48.636655 
L 169.230643 48.641394 
L 169.303437 48.537132 
L 169.502289 48.365183 
L 169.512942 48.376014 
L 169.589287 48.303539 
L 169.593725 48.286836 
L 169.765945 48.019454 
L 169.767721 48.019904 
L 170.099732 47.389876 
L 170.290595 46.982775 
L 170.325216 46.866636 
L 170.706053 45.618595 
L 170.855192 45.013837 
L 171.117961 43.791104 
L 171.161459 43.545141 
L 171.267099 42.903471 
L 172.203656 35.025625 
L 172.837497 28.319517 
L 173.738545 22.91101 
L 173.8069 22.893655 
L 173.840634 22.962882 
L 173.888571 23.067086 
L 174.550819 29.614325 
L 175.017766 40.897642 
L 175.780327 60.005471 
L 175.921477 60.190517 
L 175.934793 60.178347 
L 175.942782 60.174272 
L 175.994271 60.218781 
L 176.035106 60.226151 
L 176.255264 60.256582 
L 176.261478 60.249092 
L 176.405291 60.286891 
L 176.525134 60.28908 
L 176.527798 60.292548 
L 176.758608 60.270526 
L 176.762159 60.281836 
L 176.965449 60.276169 
L 177.087956 60.239189 
L 177.090619 60.24047 
L 177.100385 60.230082 
L 177.209576 60.21584 
L 177.340072 60.171509 
L 177.428845 60.17683 
L 177.455477 60.156394 
L 177.565556 60.091369 
L 177.577984 60.102226 
L 178.304149 59.569551 
L 178.479032 59.391019 
L 178.481695 59.393262 
L 178.482583 59.396965 
L 178.566917 59.277571 
L 178.75778 58.993566 
L 178.764881 58.991982 
L 178.829686 58.89465 
L 178.831461 58.895929 
L 178.85543 58.833047 
L 178.887388 58.799637 
L 179.106658 58.354269 
L 179.107546 58.356638 
L 179.175014 58.224237 
L 179.341019 57.828289 
L 179.342795 57.827608 
L 179.371202 57.726669 
L 179.374753 57.723806 
L 179.964207 55.664604 
L 180.218098 54.611702 
L 181.369486 48.70825 
L 181.515962 48.135654 
L 181.703273 47.494508 
L 181.704161 47.495126 
L 182.996699 44.028778 
L 184.174719 38.378293 
L 184.511169 37.595521 
L 184.801457 37.45859 
L 184.811222 37.452127 
L 184.939943 37.585112 
L 185.296811 38.722555 
L 186.338121 46.028786 
L 187.282667 52.977309 
L 187.904079 55.148121 
L 188.500635 55.720939 
L 188.502411 55.717306 
L 188.505074 55.710958 
L 188.52993 55.744615 
L 188.608051 55.747384 
L 188.711028 55.732027 
L 188.687947 55.709909 
L 188.716354 55.724257 
L 188.719017 55.727946 
L 189.400795 54.670657 
L 189.568576 54.177948 
L 189.569464 54.178849 
L 189.570352 54.17992 
L 189.607637 54.053925 
L 189.877507 52.817546 
L 192.642791 34.272022 
L 192.985456 33.506035 
L 192.986343 33.509265 
L 193.279295 33.625285 
L 193.82525 35.787159 
L 194.637524 44.095854 
L 195.400086 54.932039 
L 195.916746 58.224934 
L 196.170637 58.460592 
L 196.1733 58.451346 
L 196.274502 58.486697 
L 196.176851 58.456387 
L 196.278053 58.493558 
L 196.322439 58.499124 
L 196.381917 58.455553 
L 196.509751 58.388319 
L 196.707715 58.25181 
L 196.708603 58.253106 
L 196.718368 58.257745 
L 196.800039 58.17778 
L 196.800927 58.181532 
L 196.991789 57.952726 
L 197.141816 57.729485 
L 197.246568 57.523089 
L 197.798737 56.139452 
L 198.054404 55.371546 
L 198.260358 54.672638 
L 198.300306 54.529454 
L 198.531116 53.474364 
L 198.621664 53.034579 
L 199.184486 49.608783 
L 199.581302 46.554197 
L 199.982557 42.767845 
L 200.772638 33.599561 
L 201.219167 28.420196 
L 201.575148 25.377675 
L 201.959536 23.885042 
L 201.962199 23.886711 
L 201.971964 23.877417 
L 202.303976 24.68593 
L 202.822411 30.747557 
L 203.18283 38.54593 
L 204.103408 59.477969 
L 204.292495 59.806457 
L 204.296046 59.800828 
L 204.34132 59.835905 
L 204.399022 59.837568 
L 204.510877 59.854134 
L 204.518866 59.846316 
L 204.76388 59.854842 
L 204.764768 59.858304 
L 204.888163 59.879748 
L 204.780747 59.845366 
L 204.89704 59.858817 
L 204.913907 59.867921 
L 205.015108 59.862428 
L 205.123411 59.8615 
L 205.067484 59.840986 
L 205.12785 59.853646 
L 205.265449 59.78375 
L 205.154482 59.869258 
L 205.276101 59.79049 
L 205.551298 59.696428 
L 205.669366 59.662899 
L 205.775894 59.631774 
L 205.688009 59.641934 
L 205.778557 59.628247 
L 205.919707 59.501233 
L 205.927696 59.511811 
L 205.928584 59.51889 
L 206.021796 59.43097 
L 206.029786 59.436188 
L 206.117671 59.429765 
L 206.138089 59.400204 
L 206.303207 59.297884 
L 206.441693 59.22426 
L 206.445244 59.227943 
L 206.532242 59.133248 
L 206.533129 59.135654 
L 206.703574 58.990218 
L 206.706237 58.9944 
L 206.786133 58.87791 
L 206.792347 58.87959 
L 206.930833 58.725765 
L 207.271722 58.304188 
L 207.419086 58.079199 
L 207.876267 57.387092 
L 208.075119 57.062188 
L 208.076007 57.0643 
L 208.115067 56.974484 
L 208.116843 56.963273 
L 208.309481 56.571736 
L 208.310368 56.573137 
L 208.311256 56.57352 
L 208.320133 56.536817 
L 208.351204 56.472352 
L 208.714286 55.34985 
L 208.715174 55.352585 
L 208.769326 55.163653 
L 209.788442 50.633295 
L 210.044996 49.240838 
L 210.147085 48.614301 
L 210.807558 43.601568 
L 211.254087 39.736371 
L 212.345997 30.889212 
L 212.9825 29.340753 
L 212.985163 29.348744 
L 213.374878 30.933938 
L 213.59326 32.799112 
L 213.982974 37.427107 
L 214.656762 48.598008 
L 215.153892 56.812428 
L 215.439742 58.803048 
L 215.441517 58.800786 
L 215.68298 59.130536 
L 215.755774 59.141926 
L 215.714939 59.164292 
L 215.787733 59.167221 
L 215.79661 59.173479 
L 215.908464 59.181593 
L 216.021206 59.216372 
L 216.029196 59.211011 
L 216.062929 59.229315 
L 216.155253 59.179966 
L 216.294627 59.165972 
L 216.158804 59.173089 
L 216.299954 59.155013 
L 216.539641 59.062048 
L 216.545855 59.072075 
L 216.546743 59.078298 
L 216.632853 59.024051 
L 216.651495 59.029812 
L 216.656822 59.034778 
L 216.74382 58.965658 
L 216.744707 58.967643 
L 216.853011 58.907839 
L 216.750921 58.956192 
L 216.853898 58.904367 
L 216.985283 58.797984 
L 216.987058 58.806955 
L 217.075831 58.73455 
L 217.087372 58.738914 
L 217.295989 58.54367 
L 217.298652 58.54819 
L 217.303978 58.557458 
L 217.375885 58.459836 
L 217.514371 58.383131 
L 217.516146 58.390017 
L 217.60847 58.285584 
L 217.744293 58.153394 
L 217.764711 58.158011 
L 217.833954 58.084662 
L 217.92184 57.993037 
L 217.922727 57.993323 
" clip-path="url(#p6da52097d6)" style="fill: none; stroke: #000000; stroke-width: 0.75; stroke-linecap: square"/>
   </g>
   <g id="LineCollection_1">
    <path d="M 75.886541 61.56 
L 75.886541 11.16 
" clip-path="url(#p6da52097d6)" style="fill: none; stroke-dasharray: 2.59,1.12; stroke-dashoffset: 0; stroke: #808080; stroke-width: 0.7"/>
    <path d="M 82.204034 61.56 
L 82.204034 11.16 
" clip-path="url(#p6da52097d6)" style="fill: none; stroke-dasharray: 2.59,1.12; stroke-dashoffset: 0; stroke: #808080; stroke-width: 0.7"/>
    <path d="M 88.521527 61.56 
L 88.521527 11.16 
" clip-path="url(#p6da52097d6)" style="fill: none; stroke-dasharray: 2.59,1.12; stroke-dashoffset: 0; stroke: #808080; stroke-width: 0.7"/>
    <path d="M 94.83902 61.56 
L 94.83902 11.16 
" clip-path="url(#p6da52097d6)" style="fill: none; stroke-dasharray: 2.59,1.12; stroke-dashoffset: 0; stroke: #808080; stroke-width: 0.7"/>
    <path d="M 101.156512 61.56 
L 101.156512 11.16 
" clip-path="url(#p6da52097d6)" style="fill: none; stroke-dasharray: 2.59,1.12; stroke-dashoffset: 0; stroke: #808080; stroke-width: 0.7"/>
    <path d="M 107.474005 61.56 
L 107.474005 11.16 
" clip-path="url(#p6da52097d6)" style="fill: none; stroke-dasharray: 2.59,1.12; stroke-dashoffset: 0; stroke: #808080; stroke-width: 0.7"/>
    <path d="M 113.791498 61.56 
L 113.791498 11.16 
" clip-path="url(#p6da52097d6)" style="fill: none; stroke-dasharray: 2.59,1.12; stroke-dashoffset: 0; stroke: #808080; stroke-width: 0.7"/>
    <path d="M 120.108991 61.56 
L 120.108991 11.16 
" clip-path="url(#p6da52097d6)" style="fill: none; stroke-dasharray: 2.59,1.12; stroke-dashoffset: 0; stroke: #808080; stroke-width: 0.7"/>
    <path d="M 126.426483 61.56 
L 126.426483 11.16 
" clip-path="url(#p6da52097d6)" style="fill: none; stroke-dasharray: 2.59,1.12; stroke-dashoffset: 0; stroke: #808080; stroke-width: 0.7"/>
    <path d="M 132.743976 61.56 
L 132.743976 11.16 
" clip-path="url(#p6da52097d6)" style="fill: none; stroke-dasharray: 2.59,1.12; stroke-dashoffset: 0; stroke: #808080; stroke-width: 0.7"/>
    <path d="M 139.061469 61.56 
L 139.061469 11.16 
" clip-path="url(#p6da52097d6)" style="fill: none; stroke-dasharray: 2.59,1.12; stroke-dashoffset: 0; stroke: #808080; stroke-width: 0.7"/>
    <path d="M 145.378962 61.56 
L 145.378962 11.16 
" clip-path="url(#p6da52097d6)" style="fill: none; stroke-dasharray: 2.59,1.12; stroke-dashoffset: 0; stroke: #808080; stroke-width: 0.7"/>
    <path d="M 151.696455 61.56 
L 151.696455 11.16 
" clip-path="url(#p6da52097d6)" style="fill: none; stroke-dasharray: 2.59,1.12; stroke-dashoffset: 0; stroke: #808080; stroke-width: 0.7"/>
    <path d="M 158.013947 61.56 
L 158.013947 11.16 
" clip-path="url(#p6da52097d6)" style="fill: none; stroke-dasharray: 2.59,1.12; stroke-dashoffset: 0; stroke: #808080; stroke-width: 0.7"/>
    <path d="M 164.33144 61.56 
L 164.33144 11.16 
" clip-path="url(#p6da52097d6)" style="fill: none; stroke-dasharray: 2.59,1.12; stroke-dashoffset: 0; stroke: #808080; stroke-width: 0.7"/>
    <path d="M 170.648933 61.56 
L 170.648933 11.16 
" clip-path="url(#p6da52097d6)" style="fill: none; stroke-dasharray: 2.59,1.12; stroke-dashoffset: 0; stroke: #808080; stroke-width: 0.7"/>
   </g>
   <g id="LineCollection_2">
    <path d="M 75.886541 61.56 
L 75.886541 11.201711 
" clip-path="url(#p6da52097d6)" style="fill: none; stroke-dasharray: 5.55,2.4; stroke-dashoffset: 0; stroke: #808080; stroke-width: 1.5"/>
    <path d="M 182.414347 61.56 
L 182.414347 11.201711 
" clip-path="url(#p6da52097d6)" style="fill: none; stroke-dasharray: 5.55,2.4; stroke-dashoffset: 0; stroke: #808080; stroke-width: 1.5"/>
   </g>
   <g id="patch_3">
    <path d="M 31.5 64.08 
L 31.5 8.64 
" style="fill: none; stroke: #000000; stroke-width: 0.5; stroke-linejoin: miter; stroke-linecap: square"/>
   </g>
   <g id="patch_4">
    <path d="M 31.5 64.08 
L 226.8 64.08 
" style="fill: none; stroke: #000000; stroke-width: 0.5; stroke-linejoin: miter; stroke-linecap: square"/>
   </g>
  </g>
 </g>
 <defs>
  <clipPath id="p6da52097d6">
   <rect x="31.5" y="8.64" width="195.3" height="55.44"/>
  </clipPath>
 </defs>
</svg>
