<?xml version="1.0" encoding="utf-8" standalone="no"?>
<!DOCTYPE svg PUBLIC "-//W3C//DTD SVG 1.1//EN"
  "http://www.w3.org/Graphics/SVG/1.1/DTD/svg11.dtd">
<svg xmlns:xlink="http://www.w3.org/1999/xlink" width="216pt" height="57.6pt" viewBox="0 0 216 57.6" xmlns="http://www.w3.org/2000/svg" version="1.1">
 <metadata>
  <rdf:RDF xmlns:dc="http://purl.org/dc/elements/1.1/" xmlns:cc="http://creativecommons.org/ns#" xmlns:rdf="http://www.w3.org/1999/02/22-rdf-syntax-ns#">
   <cc:Work>
    <dc:type rdf:resource="http://purl.org/dc/dcmitype/StillImage"/>
    <dc:date>2024-07-10T09:19:01.515374</dc:date>
    <dc:format>image/svg+xml</dc:format>
    <dc:creator>
     <cc:Agent>
      <dc:title>Matplotlib v3.8.3, https://matplotlib.org/</dc:title>
     </cc:Agent>
    </dc:creator>
   </cc:Work>
  </rdf:RDF>
 </metadata>
 <defs>
  <style type="text/css">*{stroke-linejoin: round; stroke-linecap: butt}</style>
 </defs>
 <g id="figure_1">
  <g id="patch_1">
   <path d="M 0 57.6 
L 216 57.6 
L 216 0 
L 0 0 
z
" style="fill: #ffffff"/>
  </g>
  <g id="axes_1">
   <g id="patch_2">
    <path d="M 27 51.264 
L 194.4 51.264 
L 194.4 6.912 
L 27 6.912 
z
" style="fill: #fffdee"/>
   </g>
   <g id="matplotlib.axis_1">
    <g id="xtick_1">
     <g id="line2d_1">
      <defs>
       <path id="mf0003e294f" d="M 0 0 
L 0 3.5 
" style="stroke: #000000; stroke-width: 0.5"/>
      </defs>
      <g>
       <use xlink:href="#mf0003e294f" x="34.609091" y="51.264" style="stroke: #000000; stroke-width: 0.5"/>
      </g>
     </g>
     <g id="text_1">
      <!-- 0 -->
      <g transform="translate(33.018466 62.063219) scale(0.05 -0.05)">
       <defs>
        <path id="DejaVuSans-30" d="M 2034 4250 
Q 1547 4250 1301 3770 
Q 1056 3291 1056 2328 
Q 1056 1369 1301 889 
Q 1547 409 2034 409 
Q 2525 409 2770 889 
Q 3016 1369 3016 2328 
Q 3016 3291 2770 3770 
Q 2525 4250 2034 4250 
z
M 2034 4750 
Q 2819 4750 3233 4129 
Q 3647 3509 3647 2328 
Q 3647 1150 3233 529 
Q 2819 -91 2034 -91 
Q 1250 -91 836 529 
Q 422 1150 422 2328 
Q 422 3509 836 4129 
Q 1250 4750 2034 4750 
z
" transform="scale(0.015625)"/>
       </defs>
       <use xlink:href="#DejaVuSans-30"/>
      </g>
     </g>
    </g>
    <g id="xtick_2">
     <g id="line2d_2">
      <g>
       <use xlink:href="#mf0003e294f" x="65.045607" y="51.264" style="stroke: #000000; stroke-width: 0.5"/>
      </g>
     </g>
     <g id="text_2">
      <!-- 20 -->
      <g transform="translate(61.864357 62.063219) scale(0.05 -0.05)">
       <defs>
        <path id="DejaVuSans-32" d="M 1228 531 
L 3431 531 
L 3431 0 
L 469 0 
L 469 531 
Q 828 903 1448 1529 
Q 2069 2156 2228 2338 
Q 2531 2678 2651 2914 
Q 2772 3150 2772 3378 
Q 2772 3750 2511 3984 
Q 2250 4219 1831 4219 
Q 1534 4219 1204 4116 
Q 875 4013 500 3803 
L 500 4441 
Q 881 4594 1212 4672 
Q 1544 4750 1819 4750 
Q 2544 4750 2975 4387 
Q 3406 4025 3406 3419 
Q 3406 3131 3298 2873 
Q 3191 2616 2906 2266 
Q 2828 2175 2409 1742 
Q 1991 1309 1228 531 
z
" transform="scale(0.015625)"/>
       </defs>
       <use xlink:href="#DejaVuSans-32"/>
       <use xlink:href="#DejaVuSans-30" x="63.623047"/>
      </g>
     </g>
    </g>
    <g id="xtick_3">
     <g id="line2d_3">
      <g>
       <use xlink:href="#mf0003e294f" x="95.482123" y="51.264" style="stroke: #000000; stroke-width: 0.5"/>
      </g>
     </g>
     <g id="text_3">
      <!-- 40 -->
      <g transform="translate(92.300873 62.063219) scale(0.05 -0.05)">
       <defs>
        <path id="DejaVuSans-34" d="M 2419 4116 
L 825 1625 
L 2419 1625 
L 2419 4116 
z
M 2253 4666 
L 3047 4666 
L 3047 1625 
L 3713 1625 
L 3713 1100 
L 3047 1100 
L 3047 0 
L 2419 0 
L 2419 1100 
L 313 1100 
L 313 1709 
L 2253 4666 
z
" transform="scale(0.015625)"/>
       </defs>
       <use xlink:href="#DejaVuSans-34"/>
       <use xlink:href="#DejaVuSans-30" x="63.623047"/>
      </g>
     </g>
    </g>
    <g id="xtick_4">
     <g id="line2d_4">
      <g>
       <use xlink:href="#mf0003e294f" x="125.918638" y="51.264" style="stroke: #000000; stroke-width: 0.5"/>
      </g>
     </g>
     <g id="text_4">
      <!-- 60 -->
      <g transform="translate(122.737388 62.063219) scale(0.05 -0.05)">
       <defs>
        <path id="DejaVuSans-36" d="M 2113 2584 
Q 1688 2584 1439 2293 
Q 1191 2003 1191 1497 
Q 1191 994 1439 701 
Q 1688 409 2113 409 
Q 2538 409 2786 701 
Q 3034 994 3034 1497 
Q 3034 2003 2786 2293 
Q 2538 2584 2113 2584 
z
M 3366 4563 
L 3366 3988 
Q 3128 4100 2886 4159 
Q 2644 4219 2406 4219 
Q 1781 4219 1451 3797 
Q 1122 3375 1075 2522 
Q 1259 2794 1537 2939 
Q 1816 3084 2150 3084 
Q 2853 3084 3261 2657 
Q 3669 2231 3669 1497 
Q 3669 778 3244 343 
Q 2819 -91 2113 -91 
Q 1303 -91 875 529 
Q 447 1150 447 2328 
Q 447 3434 972 4092 
Q 1497 4750 2381 4750 
Q 2619 4750 2861 4703 
Q 3103 4656 3366 4563 
z
" transform="scale(0.015625)"/>
       </defs>
       <use xlink:href="#DejaVuSans-36"/>
       <use xlink:href="#DejaVuSans-30" x="63.623047"/>
      </g>
     </g>
    </g>
    <g id="xtick_5">
     <g id="line2d_5">
      <g>
       <use xlink:href="#mf0003e294f" x="156.355154" y="51.264" style="stroke: #000000; stroke-width: 0.5"/>
      </g>
     </g>
     <g id="text_5">
      <!-- 80 -->
      <g transform="translate(153.173904 62.063219) scale(0.05 -0.05)">
       <defs>
        <path id="DejaVuSans-38" d="M 2034 2216 
Q 1584 2216 1326 1975 
Q 1069 1734 1069 1313 
Q 1069 891 1326 650 
Q 1584 409 2034 409 
Q 2484 409 2743 651 
Q 3003 894 3003 1313 
Q 3003 1734 2745 1975 
Q 2488 2216 2034 2216 
z
M 1403 2484 
Q 997 2584 770 2862 
Q 544 3141 544 3541 
Q 544 4100 942 4425 
Q 1341 4750 2034 4750 
Q 2731 4750 3128 4425 
Q 3525 4100 3525 3541 
Q 3525 3141 3298 2862 
Q 3072 2584 2669 2484 
Q 3125 2378 3379 2068 
Q 3634 1759 3634 1313 
Q 3634 634 3220 271 
Q 2806 -91 2034 -91 
Q 1263 -91 848 271 
Q 434 634 434 1313 
Q 434 1759 690 2068 
Q 947 2378 1403 2484 
z
M 1172 3481 
Q 1172 3119 1398 2916 
Q 1625 2713 2034 2713 
Q 2441 2713 2670 2916 
Q 2900 3119 2900 3481 
Q 2900 3844 2670 4047 
Q 2441 4250 2034 4250 
Q 1625 4250 1398 4047 
Q 1172 3844 1172 3481 
z
" transform="scale(0.015625)"/>
       </defs>
       <use xlink:href="#DejaVuSans-38"/>
       <use xlink:href="#DejaVuSans-30" x="63.623047"/>
      </g>
     </g>
    </g>
    <g id="xtick_6">
     <g id="line2d_6">
      <g>
       <use xlink:href="#mf0003e294f" x="186.79167" y="51.264" style="stroke: #000000; stroke-width: 0.5"/>
      </g>
     </g>
     <g id="text_6">
      <!-- 100 -->
      <g transform="translate(182.019795 62.063219) scale(0.05 -0.05)">
       <defs>
        <path id="DejaVuSans-31" d="M 794 531 
L 1825 531 
L 1825 4091 
L 703 3866 
L 703 4441 
L 1819 4666 
L 2450 4666 
L 2450 531 
L 3481 531 
L 3481 0 
L 794 0 
L 794 531 
z
" transform="scale(0.015625)"/>
       </defs>
       <use xlink:href="#DejaVuSans-31"/>
       <use xlink:href="#DejaVuSans-30" x="63.623047"/>
       <use xlink:href="#DejaVuSans-30" x="127.246094"/>
      </g>
     </g>
    </g>
    <g id="text_7">
     <!-- Time (h) -->
     <g transform="translate(95.030273 72.801891) scale(0.075 -0.075)">
      <defs>
       <path id="DejaVuSans-54" d="M -19 4666 
L 3928 4666 
L 3928 4134 
L 2272 4134 
L 2272 0 
L 1638 0 
L 1638 4134 
L -19 4134 
L -19 4666 
z
" transform="scale(0.015625)"/>
       <path id="DejaVuSans-69" d="M 603 3500 
L 1178 3500 
L 1178 0 
L 603 0 
L 603 3500 
z
M 603 4863 
L 1178 4863 
L 1178 4134 
L 603 4134 
L 603 4863 
z
" transform="scale(0.015625)"/>
       <path id="DejaVuSans-6d" d="M 3328 2828 
Q 3544 3216 3844 3400 
Q 4144 3584 4550 3584 
Q 5097 3584 5394 3201 
Q 5691 2819 5691 2113 
L 5691 0 
L 5113 0 
L 5113 2094 
Q 5113 2597 4934 2840 
Q 4756 3084 4391 3084 
Q 3944 3084 3684 2787 
Q 3425 2491 3425 1978 
L 3425 0 
L 2847 0 
L 2847 2094 
Q 2847 2600 2669 2842 
Q 2491 3084 2119 3084 
Q 1678 3084 1418 2786 
Q 1159 2488 1159 1978 
L 1159 0 
L 581 0 
L 581 3500 
L 1159 3500 
L 1159 2956 
Q 1356 3278 1631 3431 
Q 1906 3584 2284 3584 
Q 2666 3584 2933 3390 
Q 3200 3197 3328 2828 
z
" transform="scale(0.015625)"/>
       <path id="DejaVuSans-65" d="M 3597 1894 
L 3597 1613 
L 953 1613 
Q 991 1019 1311 708 
Q 1631 397 2203 397 
Q 2534 397 2845 478 
Q 3156 559 3463 722 
L 3463 178 
Q 3153 47 2828 -22 
Q 2503 -91 2169 -91 
Q 1331 -91 842 396 
Q 353 884 353 1716 
Q 353 2575 817 3079 
Q 1281 3584 2069 3584 
Q 2775 3584 3186 3129 
Q 3597 2675 3597 1894 
z
M 3022 2063 
Q 3016 2534 2758 2815 
Q 2500 3097 2075 3097 
Q 1594 3097 1305 2825 
Q 1016 2553 972 2059 
L 3022 2063 
z
" transform="scale(0.015625)"/>
       <path id="DejaVuSans-20" transform="scale(0.015625)"/>
       <path id="DejaVuSans-28" d="M 1984 4856 
Q 1566 4138 1362 3434 
Q 1159 2731 1159 2009 
Q 1159 1288 1364 580 
Q 1569 -128 1984 -844 
L 1484 -844 
Q 1016 -109 783 600 
Q 550 1309 550 2009 
Q 550 2706 781 3412 
Q 1013 4119 1484 4856 
L 1984 4856 
z
" transform="scale(0.015625)"/>
       <path id="DejaVuSans-68" d="M 3513 2113 
L 3513 0 
L 2938 0 
L 2938 2094 
Q 2938 2591 2744 2837 
Q 2550 3084 2163 3084 
Q 1697 3084 1428 2787 
Q 1159 2491 1159 1978 
L 1159 0 
L 581 0 
L 581 4863 
L 1159 4863 
L 1159 2956 
Q 1366 3272 1645 3428 
Q 1925 3584 2291 3584 
Q 2894 3584 3203 3211 
Q 3513 2838 3513 2113 
z
" transform="scale(0.015625)"/>
       <path id="DejaVuSans-29" d="M 513 4856 
L 1013 4856 
Q 1481 4119 1714 3412 
Q 1947 2706 1947 2009 
Q 1947 1309 1714 600 
Q 1481 -109 1013 -844 
L 513 -844 
Q 928 -128 1133 580 
Q 1338 1288 1338 2009 
Q 1338 2731 1133 3434 
Q 928 4138 513 4856 
z
" transform="scale(0.015625)"/>
      </defs>
      <use xlink:href="#DejaVuSans-54"/>
      <use xlink:href="#DejaVuSans-69" x="57.958984"/>
      <use xlink:href="#DejaVuSans-6d" x="85.742188"/>
      <use xlink:href="#DejaVuSans-65" x="183.154297"/>
      <use xlink:href="#DejaVuSans-20" x="244.677734"/>
      <use xlink:href="#DejaVuSans-28" x="276.464844"/>
      <use xlink:href="#DejaVuSans-68" x="315.478516"/>
      <use xlink:href="#DejaVuSans-29" x="378.857422"/>
     </g>
    </g>
   </g>
   <g id="matplotlib.axis_2">
    <g id="ytick_1">
     <g id="line2d_7">
      <defs>
       <path id="m2c40d3a508" d="M 0 0 
L -3.5 0 
" style="stroke: #000000; stroke-width: 0.5"/>
      </defs>
      <g>
       <use xlink:href="#m2c40d3a508" x="27" y="49.248" style="stroke: #000000; stroke-width: 0.5"/>
      </g>
     </g>
     <g id="text_8">
      <!-- 0 -->
      <g transform="translate(16.81875 51.147609) scale(0.05 -0.05)">
       <use xlink:href="#DejaVuSans-30"/>
      </g>
     </g>
    </g>
    <g id="ytick_2">
     <g id="line2d_8">
      <g>
       <use xlink:href="#m2c40d3a508" x="27" y="33.133347" style="stroke: #000000; stroke-width: 0.5"/>
      </g>
     </g>
     <g id="text_9">
      <!-- 2 -->
      <g transform="translate(16.81875 35.032957) scale(0.05 -0.05)">
       <use xlink:href="#DejaVuSans-32"/>
      </g>
     </g>
    </g>
    <g id="ytick_3">
     <g id="line2d_9">
      <g>
       <use xlink:href="#m2c40d3a508" x="27" y="17.018695" style="stroke: #000000; stroke-width: 0.5"/>
      </g>
     </g>
     <g id="text_10">
      <!-- 4 -->
      <g transform="translate(16.81875 18.918304) scale(0.05 -0.05)">
       <use xlink:href="#DejaVuSans-34"/>
      </g>
     </g>
    </g>
    <g id="text_11">
     <!-- p53 (a.u.) -->
     <g transform="translate(11.258984 47.416711) rotate(-90) scale(0.075 -0.075)">
      <defs>
       <path id="DejaVuSans-70" d="M 1159 525 
L 1159 -1331 
L 581 -1331 
L 581 3500 
L 1159 3500 
L 1159 2969 
Q 1341 3281 1617 3432 
Q 1894 3584 2278 3584 
Q 2916 3584 3314 3078 
Q 3713 2572 3713 1747 
Q 3713 922 3314 415 
Q 2916 -91 2278 -91 
Q 1894 -91 1617 61 
Q 1341 213 1159 525 
z
M 3116 1747 
Q 3116 2381 2855 2742 
Q 2594 3103 2138 3103 
Q 1681 3103 1420 2742 
Q 1159 2381 1159 1747 
Q 1159 1113 1420 752 
Q 1681 391 2138 391 
Q 2594 391 2855 752 
Q 3116 1113 3116 1747 
z
" transform="scale(0.015625)"/>
       <path id="DejaVuSans-35" d="M 691 4666 
L 3169 4666 
L 3169 4134 
L 1269 4134 
L 1269 2991 
Q 1406 3038 1543 3061 
Q 1681 3084 1819 3084 
Q 2600 3084 3056 2656 
Q 3513 2228 3513 1497 
Q 3513 744 3044 326 
Q 2575 -91 1722 -91 
Q 1428 -91 1123 -41 
Q 819 9 494 109 
L 494 744 
Q 775 591 1075 516 
Q 1375 441 1709 441 
Q 2250 441 2565 725 
Q 2881 1009 2881 1497 
Q 2881 1984 2565 2268 
Q 2250 2553 1709 2553 
Q 1456 2553 1204 2497 
Q 953 2441 691 2322 
L 691 4666 
z
" transform="scale(0.015625)"/>
       <path id="DejaVuSans-33" d="M 2597 2516 
Q 3050 2419 3304 2112 
Q 3559 1806 3559 1356 
Q 3559 666 3084 287 
Q 2609 -91 1734 -91 
Q 1441 -91 1130 -33 
Q 819 25 488 141 
L 488 750 
Q 750 597 1062 519 
Q 1375 441 1716 441 
Q 2309 441 2620 675 
Q 2931 909 2931 1356 
Q 2931 1769 2642 2001 
Q 2353 2234 1838 2234 
L 1294 2234 
L 1294 2753 
L 1863 2753 
Q 2328 2753 2575 2939 
Q 2822 3125 2822 3475 
Q 2822 3834 2567 4026 
Q 2313 4219 1838 4219 
Q 1578 4219 1281 4162 
Q 984 4106 628 3988 
L 628 4550 
Q 988 4650 1302 4700 
Q 1616 4750 1894 4750 
Q 2613 4750 3031 4423 
Q 3450 4097 3450 3541 
Q 3450 3153 3228 2886 
Q 3006 2619 2597 2516 
z
" transform="scale(0.015625)"/>
       <path id="DejaVuSans-61" d="M 2194 1759 
Q 1497 1759 1228 1600 
Q 959 1441 959 1056 
Q 959 750 1161 570 
Q 1363 391 1709 391 
Q 2188 391 2477 730 
Q 2766 1069 2766 1631 
L 2766 1759 
L 2194 1759 
z
M 3341 1997 
L 3341 0 
L 2766 0 
L 2766 531 
Q 2569 213 2275 61 
Q 1981 -91 1556 -91 
Q 1019 -91 701 211 
Q 384 513 384 1019 
Q 384 1609 779 1909 
Q 1175 2209 1959 2209 
L 2766 2209 
L 2766 2266 
Q 2766 2663 2505 2880 
Q 2244 3097 1772 3097 
Q 1472 3097 1187 3025 
Q 903 2953 641 2809 
L 641 3341 
Q 956 3463 1253 3523 
Q 1550 3584 1831 3584 
Q 2591 3584 2966 3190 
Q 3341 2797 3341 1997 
z
" transform="scale(0.015625)"/>
       <path id="DejaVuSans-2e" d="M 684 794 
L 1344 794 
L 1344 0 
L 684 0 
L 684 794 
z
" transform="scale(0.015625)"/>
       <path id="DejaVuSans-75" d="M 544 1381 
L 544 3500 
L 1119 3500 
L 1119 1403 
Q 1119 906 1312 657 
Q 1506 409 1894 409 
Q 2359 409 2629 706 
Q 2900 1003 2900 1516 
L 2900 3500 
L 3475 3500 
L 3475 0 
L 2900 0 
L 2900 538 
Q 2691 219 2414 64 
Q 2138 -91 1772 -91 
Q 1169 -91 856 284 
Q 544 659 544 1381 
z
M 1991 3584 
L 1991 3584 
z
" transform="scale(0.015625)"/>
      </defs>
      <use xlink:href="#DejaVuSans-70"/>
      <use xlink:href="#DejaVuSans-35" x="63.476562"/>
      <use xlink:href="#DejaVuSans-33" x="127.099609"/>
      <use xlink:href="#DejaVuSans-20" x="190.722656"/>
      <use xlink:href="#DejaVuSans-28" x="222.509766"/>
      <use xlink:href="#DejaVuSans-61" x="261.523438"/>
      <use xlink:href="#DejaVuSans-2e" x="322.802734"/>
      <use xlink:href="#DejaVuSans-75" x="354.589844"/>
      <use xlink:href="#DejaVuSans-2e" x="417.96875"/>
      <use xlink:href="#DejaVuSans-29" x="449.755859"/>
     </g>
    </g>
   </g>
   <g id="line2d_10">
    <path d="M 34.609091 49.248 
L 34.773448 46.17406 
L 34.940849 45.537935 
L 34.94161 45.539879 
L 35.061834 45.680616 
L 35.647737 47.389136 
L 35.648498 47.386437 
L 35.726872 47.511005 
L 35.727633 47.51102 
L 35.901882 47.638524 
L 35.927753 47.639894 
L 35.957429 47.691398 
L 35.993952 47.70005 
L 35.996996 47.695539 
L 36.152222 47.740138 
L 36.49235 47.800087 
L 36.580616 47.805446 
L 36.499959 47.792091 
L 36.606487 47.789609 
L 36.609531 47.791807 
L 36.739647 47.782299 
L 36.849218 47.794691 
L 36.746495 47.772396 
L 36.853784 47.790572 
L 37.029555 47.768434 
L 36.861393 47.803151 
L 37.031838 47.774701 
L 37.09195 47.802991 
L 37.15054 47.775812 
L 37.320224 47.74072 
L 37.152062 47.778045 
L 37.320984 47.74167 
L 37.441209 47.709631 
L 37.553063 47.677109 
L 37.562955 47.686567 
L 37.571325 47.691465 
L 37.659591 47.637411 
L 37.665678 47.642905 
L 38.453984 47.272583 
L 38.571164 47.235905 
L 38.491269 47.28205 
L 38.571925 47.236859 
L 38.69215 47.197373 
L 38.694432 47.193393 
L 38.818461 47.131741 
L 38.823787 47.138127 
L 39.01782 47.011199 
L 39.018581 47.012206 
L 39.020864 47.018649 
L 39.118261 46.96256 
L 39.123587 46.965745 
L 39.419582 46.736083 
L 39.586222 46.531125 
L 39.596875 46.538897 
L 39.669162 46.41145 
L 39.840367 46.200209 
L 39.841128 46.20092 
L 39.89287 46.09848 
L 39.893631 46.098402 
L 40.665197 43.919265 
L 40.867599 42.995232 
L 41.160551 41.377027 
L 42.053863 33.729602 
L 43.445572 19.207377 
L 43.503402 19.106372 
L 43.575688 19.070698 
L 43.617539 19.124049 
L 43.86864 20.381273 
L 44.031475 21.994699 
L 44.456826 29.393909 
L 44.856305 39.168823 
L 45.28546 47.333326 
L 45.43612 47.737007 
L 45.585259 47.839199 
L 45.590586 47.832901 
L 45.717658 47.851888 
L 45.602 47.821959 
L 45.731355 47.835081 
L 45.770161 47.822046 
L 45.834839 47.861844 
L 45.840165 47.857634 
L 47.265355 47.382832 
L 47.621462 47.020021 
L 47.624506 47.024649 
L 47.646572 47.023793 
L 47.68614 46.937347 
L 47.698315 46.94189 
L 47.993549 46.56104 
L 48.093989 46.418931 
L 48.425747 45.855409 
L 48.428791 45.861047 
L 48.431074 45.864829 
L 48.507165 45.695495 
L 48.508687 45.700834 
L 48.954582 44.582316 
L 49.237641 43.755879 
L 49.351778 43.353209 
L 50.560869 36.866579 
L 51.171882 32.435116 
L 51.698434 27.680093 
L 51.965514 25.288528 
L 52.18694 23.574443 
L 52.53696 21.622637 
L 52.710448 21.316694 
L 52.721101 21.300285 
L 52.99579 21.953661 
L 53.348093 24.930568 
L 54.128789 38.324407 
L 54.634796 46.830939 
L 54.852418 47.496145 
L 54.853178 47.495651 
L 54.976446 47.565533 
L 54.993947 47.55289 
L 55.749534 47.366856 
L 55.885737 47.295572 
L 55.988461 47.273554 
L 55.99607 47.266478 
L 56.158905 47.187483 
L 56.161949 47.189697 
L 56.164231 47.197502 
L 56.220539 47.140848 
L 56.265433 47.139991 
L 56.4549 46.998931 
L 56.553058 46.944204 
L 56.55458 46.941888 
L 56.683174 46.886993 
L 56.684696 46.88868 
L 56.686218 46.890135 
L 56.903078 46.746851 
L 56.9046 46.749647 
L 56.991344 46.665175 
L 57.224183 46.362149 
L 57.224944 46.363645 
L 57.294948 46.257756 
L 57.297231 46.260307 
L 57.547571 45.820529 
L 58.023903 44.710045 
L 58.024663 44.711618 
L 58.07184 44.598365 
L 58.16315 44.374407 
L 58.348051 43.875696 
L 58.348812 43.877363 
L 58.401315 43.727158 
L 59.402677 39.712709 
L 59.831832 37.846599 
L 60.432953 36.253297 
L 60.477086 36.149894 
L 60.626986 35.873832 
L 60.627746 35.875441 
L 60.630029 35.869254 
L 60.682532 35.781547 
L 60.865912 35.455326 
L 60.934394 35.334915 
L 61.779769 33.645962 
L 63.446929 28.435308 
L 63.451494 28.438606 
L 63.453016 28.440573 
L 63.679768 28.355587 
L 64.011526 29.097845 
L 64.580689 33.164701 
L 65.722058 45.830478 
L 65.754778 45.948751 
L 65.953376 46.299318 
L 65.954898 46.298666 
L 66.132951 46.245291 
L 66.133712 46.242664 
L 66.275242 46.09053 
L 66.276764 46.093096 
L 66.353616 45.982341 
L 67.167793 43.691595 
L 68.975722 34.283433 
L 68.976483 34.283967 
L 69.121056 34.243364 
L 69.128665 34.258322 
L 69.59967 35.66039 
L 70.219054 40.29912 
L 70.747888 43.664961 
L 71.04997 44.364138 
L 71.050731 44.363012 
L 71.118453 44.356209 
L 71.067471 44.370068 
L 71.161825 44.372446 
L 71.259982 44.375836 
L 71.170195 44.363903 
L 71.280527 44.335111 
L 71.513366 43.853157 
L 71.715769 43.185376 
L 71.937195 42.177283 
L 72.528424 37.465227 
L 74.314287 18.198908 
L 74.418532 18.114378 
L 74.446686 18.162315 
L 74.52506 18.317799 
L 74.678003 19.216785 
L 74.889537 21.610404 
L 75.148247 26.43331 
L 76.141999 47.91798 
L 76.143521 47.917098 
L 76.236353 47.950649 
L 76.215047 47.963363 
L 76.245484 47.961302 
L 76.311683 47.971466 
L 76.361903 47.934771 
L 76.472236 47.938775 
L 76.473758 47.94128 
L 76.555175 47.935264 
L 76.478323 47.938034 
L 76.585612 47.914314 
L 76.756817 47.836697 
L 76.759861 47.844029 
L 76.780405 47.842961 
L 76.835952 47.787725 
L 76.85954 47.789408 
L 77.045964 47.682551 
L 77.049008 47.686217 
L 77.050529 47.689743 
L 77.126621 47.605098 
L 77.128143 47.605057 
L 77.131186 47.608036 
L 77.795463 46.745419 
L 77.981126 46.327425 
L 78.016128 46.22045 
L 78.472676 44.758781 
L 78.624097 44.200318 
L 79.479363 40.767993 
L 80.08505 39.49936 
L 80.148967 39.415367 
L 80.150489 39.410128 
L 80.36811 39.058141 
L 80.378002 39.057887 
L 80.396263 39.010075 
L 80.445723 38.978669 
L 80.454854 38.985322 
L 80.686171 38.752612 
L 80.696063 38.766091 
L 80.786612 38.681423 
L 80.788134 38.684481 
L 80.858138 38.63419 
L 80.889335 38.637555 
L 80.958578 38.611675 
L 80.938033 38.597241 
L 80.982927 38.58061 
L 81.085651 38.59373 
L 81.020973 38.606847 
L 81.091738 38.599467 
L 81.151089 38.606592 
L 81.103912 38.594742 
L 81.198266 38.568262 
L 81.364906 38.533993 
L 81.367188 38.537188 
L 81.386211 38.538531 
L 81.466107 38.474285 
L 81.961461 37.933412 
L 82.21865 37.19583 
L 82.219411 37.196454 
L 82.254413 37.084884 
L 82.656175 35.049347 
L 82.717809 34.633179 
L 83.234469 30.420231 
L 83.733627 25.601361 
L 83.97788 23.355853 
L 84.330944 21.069326 
L 84.338553 21.041674 
L 84.349967 20.978245 
L 84.355293 20.961989 
L 84.599546 20.403553 
L 84.699226 20.520522 
L 84.998265 22.142854 
L 85.400788 28.028341 
L 85.774396 37.308052 
L 86.201268 47.401818 
L 86.370952 47.947516 
L 87.159257 47.902423 
L 87.272633 47.842483 
L 87.170671 47.906338 
L 87.279482 47.846621 
L 87.366987 47.774221 
L 87.367747 47.773113 
L 87.503951 47.700768 
L 87.504712 47.703244 
L 87.597543 47.631301 
L 87.598304 47.63198 
L 88.639233 45.740268 
L 90.671631 36.557411 
L 90.673153 36.557925 
L 90.708916 36.42129 
L 91.468307 34.255839 
L 91.469829 34.256549 
L 91.544398 34.095908 
L 91.789412 33.396598 
L 91.832023 33.275147 
L 92.274875 32.14446 
L 92.275636 32.144849 
L 92.409556 31.807244 
L 92.82121 30.439644 
L 92.821971 30.440844 
L 92.822732 30.442053 
L 92.866104 30.302446 
L 93.364502 28.279676 
L 94.260857 24.964359 
L 94.262379 24.966516 
L 94.490653 24.667588 
L 94.494458 24.675455 
L 94.626096 24.680465 
L 94.6299 24.686367 
L 94.774474 24.907448 
L 95.341354 28.602572 
L 95.62137 32.338515 
L 96.577076 47.507813 
L 96.631101 47.623959 
L 96.766544 47.751332 
L 96.768065 47.749455 
L 96.859375 47.802434 
L 96.809155 47.792521 
L 96.861658 47.807506 
L 97.041994 47.86396 
L 97.170588 47.863742 
L 97.17211 47.865861 
L 97.283203 47.877461 
L 97.260376 47.850198 
L 97.285486 47.871758 
L 97.432342 47.874409 
L 97.290812 47.865543 
L 97.436147 47.869114 
L 97.554088 47.823844 
L 97.560937 47.827528 
L 97.773231 47.729602 
L 97.927697 47.664747 
L 97.929218 47.667414 
L 97.934545 47.671231 
L 98.021289 47.597699 
L 98.025093 47.599357 
L 98.067705 47.581385 
L 98.037268 47.578703 
L 98.117925 47.542975 
L 98.252606 47.400089 
L 98.253367 47.401334 
L 98.484685 47.15057 
L 98.485446 47.151251 
L 98.490772 47.154763 
L 98.576755 47.061481 
L 98.579038 47.062156 
L 99.276795 45.463357 
L 100.204348 39.846842 
L 101.854768 27.631513 
L 101.857051 27.632559 
L 101.999341 27.495042 
L 102.179678 27.593313 
L 102.805909 30.641819 
L 103.99826 40.045315 
L 104.385564 40.827643 
L 104.387847 40.819897 
L 104.511115 40.767481 
L 104.514159 40.757464 
L 104.699821 40.281695 
L 104.870266 39.573079 
L 105.522368 35.102651 
L 106.37383 28.48258 
L 106.772548 26.876328 
L 106.773309 26.87954 
L 106.850161 26.75064 
L 106.958211 26.72434 
L 106.970385 26.73113 
L 107.144634 27.028387 
L 107.995335 34.713937 
L 108.722007 43.918094 
L 108.973869 45.377633 
L 109.22497 45.805557 
L 109.238667 45.797115 
L 109.253885 45.804685 
L 109.372587 45.74128 
L 109.37487 45.745241 
L 109.453244 45.652463 
L 109.681518 45.19798 
L 109.739347 45.022575 
L 110.540589 41.202718 
L 111.135623 36.625061 
L 111.661413 32.317352 
L 111.781638 31.437625 
L 112.326451 28.707375 
L 112.378193 28.586784 
L 112.505266 28.48528 
L 112.380476 28.588054 
L 112.538746 28.522708 
L 112.846155 29.442044 
L 113.151281 31.673007 
L 114.336783 43.95492 
L 114.607668 44.719768 
L 114.877031 44.595744 
L 115.57631 41.342715 
L 115.916438 38.430707 
L 116.299178 34.215977 
L 117.076831 24.550727 
L 117.494572 21.483347 
L 117.495333 21.487242 
L 117.572185 21.302363 
L 117.630014 21.262226 
L 117.70154 21.310605 
L 117.703062 21.30906 
L 117.762413 21.433385 
L 117.765457 21.432441 
L 118.024928 23.085699 
L 118.524087 31.330667 
L 119.294892 47.713734 
L 119.466858 47.886737 
L 119.475228 47.883623 
L 120.404303 47.575451 
L 120.538984 47.459769 
L 120.539745 47.460368 
L 120.540506 47.461758 
L 120.602901 47.375118 
L 120.615836 47.370639 
L 120.809869 47.156624 
L 120.815956 47.157192 
L 120.869981 47.064621 
L 120.878351 47.065612 
L 120.939224 46.974872 
L 120.879873 47.06161 
L 120.939985 46.97283 
L 121.136301 46.653359 
L 121.140105 46.655723 
L 121.188804 46.556951 
L 123.589484 40.531048 
L 123.593289 40.532875 
L 123.647313 40.429853 
L 124.270501 38.524628 
L 124.456164 37.548978 
L 125.543508 26.019854 
L 126.316596 14.744156 
L 126.972503 9.086607 
L 127.124685 8.929068 
L 127.134577 8.947908 
L 127.317957 9.76199 
L 127.731133 16.169698 
L 128.106263 28.301874 
L 128.719559 48.419599 
L 128.883155 48.486514 
L 128.883916 48.485503 
L 128.988161 48.51654 
L 128.993487 48.527504 
L 129.101537 48.548115 
L 129.003379 48.517819 
L 129.108385 48.543707 
L 129.208826 48.555226 
L 129.218718 48.564174 
L 129.319919 48.586819 
L 129.231653 48.560311 
L 129.333615 48.579277 
L 129.438621 48.593301 
L 129.336659 48.583914 
L 129.446991 48.598389 
L 129.569498 48.606478 
L 129.448513 48.594272 
L 129.572542 48.602727 
L 129.696571 48.596753 
L 129.701897 48.602753 
L 129.802338 48.610644 
L 129.752118 48.593556 
L 129.813751 48.599705 
L 129.944628 48.611376 
L 129.945389 48.609521 
L 130.082354 48.592067 
L 129.951477 48.597747 
L 130.084636 48.584985 
L 130.206383 48.576738 
L 130.32965 48.562916 
L 130.210948 48.573081 
L 130.330411 48.559887 
L 130.334216 48.562434 
L 130.463571 48.530863 
L 130.53738 48.53373 
L 130.573143 48.510106 
L 130.713911 48.476628 
L 130.716955 48.479846 
L 130.783915 48.45812 
L 130.761849 48.447998 
L 130.818156 48.434952 
L 130.958925 48.400901 
L 131.058605 48.375668 
L 130.963491 48.393685 
L 131.067736 48.358865 
L 131.211548 48.295095 
L 131.216875 48.29926 
L 131.317315 48.257371 
L 131.319598 48.249883 
L 131.515914 48.152882 
L 131.516675 48.154554 
L 131.611789 48.090784 
L 131.77995 47.946118 
L 131.824083 47.939196 
L 131.865934 47.874122 
L 131.999854 47.75313 
L 132.000615 47.753486 
L 132.592605 47.069441 
L 132.788921 46.734524 
L 132.799574 46.706639 
L 132.860447 46.646838 
L 133.032413 46.347075 
L 135.325804 43.13518 
L 135.675064 41.720355 
L 135.902576 40.583946 
L 136.250314 38.366459 
L 136.368255 37.462275 
L 137.183954 29.457709 
L 137.21439 29.157337 
L 137.703657 23.73583 
L 138.230209 19.262252 
L 138.549032 18.180064 
L 138.590121 18.21263 
L 138.671538 18.311104 
L 138.907421 19.542482 
L 139.134174 22.087527 
L 139.559524 30.811574 
L 140.332611 47.980195 
L 140.340981 47.977284 
L 140.428486 48.031707 
L 140.391202 48.020767 
L 140.432291 48.038874 
L 140.57306 48.088423 
L 140.573821 48.087097 
L 140.590561 48.068058 
L 140.685675 48.095967 
L 140.832531 48.114376 
L 140.834053 48.11128 
L 140.938298 48.099476 
L 140.952755 48.104799 
L 141.052435 48.10049 
L 140.989279 48.086938 
L 141.062327 48.09062 
L 141.154397 48.044014 
L 141.18179 48.066057 
L 142.234894 47.244095 
L 142.464689 46.866825 
L 142.530128 46.747431 
L 142.877104 45.868822 
L 143.126683 45.138057 
L 143.167773 44.993903 
L 143.353436 44.287914 
L 143.694325 43.006538 
L 143.769655 42.722197 
L 144.344905 40.719844 
L 144.345666 40.7217 
L 144.461325 40.36601 
L 144.945265 39.090449 
L 144.946026 39.092558 
L 145.014508 38.957649 
L 145.238978 38.729629 
L 145.305177 38.702535 
L 145.267892 38.696333 
L 145.33257 38.670837 
L 145.559322 38.351637 
L 145.561605 38.354356 
L 145.644544 38.204542 
L 145.939778 37.633036 
L 145.979346 37.542762 
L 145.98239 37.529681 
L 146.439698 36.041121 
L 146.478505 35.881204 
L 147.015709 32.928967 
L 147.348989 30.28103 
L 147.418993 29.684016 
L 148.448508 20.14796 
L 148.866249 18.36761 
L 148.977343 18.314924 
L 149.007779 18.370595 
L 149.230727 19.221421 
L 149.498568 21.88433 
L 149.719233 25.61505 
L 150.134691 36.163072 
L 150.579825 47.590762 
L 150.789837 48.152414 
L 150.896365 48.178431 
L 150.899409 48.181788 
L 151.015828 48.201764 
L 151.023438 48.192806 
L 151.115508 48.205277 
L 151.043982 48.203387 
L 151.128444 48.22509 
L 151.25095 48.238203 
L 151.357478 48.227552 
L 151.374979 48.241408 
L 151.412264 48.25166 
L 151.448027 48.215396 
L 151.485312 48.225313 
L 151.662604 48.206985 
L 151.664887 48.211158 
L 151.775219 48.205064 
L 151.77598 48.203196 
L 151.895444 48.167516 
L 151.896205 48.168747 
L 151.90077 48.174556 
L 152.062845 48.136236 
L 152.161763 48.099422 
L 152.065127 48.133152 
L 152.167851 48.087807 
L 152.321555 48.038681 
L 152.323077 48.042437 
L 152.324599 48.046039 
L 152.421995 47.979775 
L 152.632768 47.843911 
L 152.782668 47.713722 
L 152.854955 47.644027 
L 152.838215 47.642377 
L 152.85952 47.633907 
L 153.00105 47.498825 
L 153.001811 47.499974 
L 153.069532 47.401559 
L 153.070293 47.403152 
L 153.264326 47.139335 
L 153.388355 46.91223 
L 153.60141 46.516342 
L 153.602171 46.517171 
L 153.655435 46.414603 
L 153.656196 46.415279 
L 153.990998 45.44575 
L 154.446024 43.813963 
L 156.037854 37.277435 
L 156.803332 35.425355 
L 157.007257 34.595127 
L 158.098406 30.151948 
L 158.099927 30.154048 
L 158.391357 29.959361 
L 158.392118 29.964914 
L 158.668329 30.423869 
L 159.636211 36.199861 
L 160.707576 43.157247 
L 160.776058 43.392403 
L 160.989875 44.007139 
L 161.062161 44.119181 
L 161.393919 44.49611 
L 161.516426 44.561858 
L 161.517187 44.564977 
L 161.65263 44.598168 
L 162.058957 44.199238 
L 162.253751 43.903662 
L 162.481264 43.364693 
L 162.725517 42.387781 
L 163.177499 39.70499 
L 163.699485 35.954722 
L 165.009017 27.818332 
L 165.263161 27.030315 
L 165.263922 27.032246 
L 165.480783 26.771708 
L 165.599485 26.794596 
L 165.507414 26.762142 
L 165.601768 26.793056 
L 165.649705 26.85672 
L 165.659597 26.885896 
L 166.269088 29.544495 
L 166.479861 31.353012 
L 166.813902 35.052679 
L 167.654711 45.473265 
L 167.897442 46.504824 
L 167.948423 46.619124 
L 168.083866 46.766751 
L 168.086148 46.763807 
L 168.178219 46.763113 
L 168.092997 46.766926 
L 168.197242 46.779228 
L 168.276377 46.799299 
L 168.307574 46.767104 
L 168.464322 46.683692 
L 168.465083 46.685616 
L 169.003048 46.139716 
L 169.480141 45.070005 
L 169.661999 44.572413 
L 169.66276 44.573261 
L 169.706893 44.456797 
L 170.919027 38.32511 
L 171.494277 33.407844 
L 172.01322 27.763821 
L 173.020668 19.267526 
L 173.188069 19.119462 
L 173.191113 19.121024 
L 173.634725 21.67117 
L 174.175734 31.266238 
L 175.015782 47.750378 
L 175.016543 47.74838 
L 175.283623 47.874007 
L 175.407652 47.871856 
L 175.295037 47.883307 
L 175.409174 47.873065 
L 175.515702 47.890364 
L 175.528637 47.882048 
L 175.868004 47.879852 
L 175.868765 47.877025 
L 175.992794 47.804227 
L 175.99736 47.807357 
L 176.101605 47.813635 
L 176.111497 47.798851 
L 176.321509 47.710964 
L 176.463799 47.635854 
L 176.558913 47.584764 
L 176.491192 47.607301 
L 176.559674 47.582869 
L 176.690551 47.520195 
L 176.850343 47.416104 
L 176.855669 47.418845 
L 176.85643 47.420978 
L 176.868605 47.399685 
L 176.95611 47.370604 
L 176.959154 47.364354 
L 177.042093 47.298884 
L 177.209494 47.140309 
L 177.261236 47.099944 
L 177.284824 47.061348 
L 177.427115 46.932276 
L 177.427876 46.932893 
L 178.02291 46.134766 
L 178.025953 46.136789 
L 178.026714 46.138976 
L 178.10661 46.032292 
L 178.24814 45.80322 
L 178.955028 44.1081 
L 179.19015 43.311305 
L 179.218304 43.199775 
L 179.642132 41.285524 
L 179.919866 40.02229 
L 179.944215 39.890462 
L 180.295757 37.817178 
L 182.219344 23.892428 
L 182.512296 23.470989 
L 182.522188 23.477008 
L 182.536645 23.468238 
L 182.907971 24.840331 
L 183.203966 27.444446 
L 183.663557 33.460947 
L 184.000642 39.037525 
L 184.74101 47.18204 
L 184.743292 47.180406 
L 184.750141 47.181733 
L 184.818623 47.264065 
L 184.821667 47.263974 
L 184.968523 47.338783 
L 184.970805 47.336951 
L 185.090269 47.358181 
L 185.212015 47.385294 
L 185.228755 47.371132 
L 185.469203 47.307924 
L 185.469964 47.309294 
L 185.564318 47.279144 
L 185.532359 47.273543 
L 185.574209 47.271247 
L 186.048258 46.999661 
L 186.197397 46.852784 
L 186.260553 46.845966 
L 186.296316 46.803115 
L 186.440889 46.706505 
L 186.445455 46.709716 
L 186.567962 46.582174 
L 186.736884 46.443368 
L 186.787865 46.399009 
L 186.747537 46.424163 
L 186.790909 46.394658 
" clip-path="url(#pc7ce7ddcf4)" style="fill: none; stroke: #000000; stroke-width: 0.75; stroke-linecap: square"/>
   </g>
   <g id="LineCollection_1">
    <path d="M 65.045607 49.248 
L 65.045607 8.928 
" clip-path="url(#pc7ce7ddcf4)" style="fill: none; stroke-dasharray: 2.59,1.12; stroke-dashoffset: 0; stroke: #808080; stroke-width: 0.7"/>
    <path d="M 70.460601 49.248 
L 70.460601 8.928 
" clip-path="url(#pc7ce7ddcf4)" style="fill: none; stroke-dasharray: 2.59,1.12; stroke-dashoffset: 0; stroke: #808080; stroke-width: 0.7"/>
    <path d="M 75.875594 49.248 
L 75.875594 8.928 
" clip-path="url(#pc7ce7ddcf4)" style="fill: none; stroke-dasharray: 2.59,1.12; stroke-dashoffset: 0; stroke: #808080; stroke-width: 0.7"/>
    <path d="M 81.290588 49.248 
L 81.290588 8.928 
" clip-path="url(#pc7ce7ddcf4)" style="fill: none; stroke-dasharray: 2.59,1.12; stroke-dashoffset: 0; stroke: #808080; stroke-width: 0.7"/>
    <path d="M 86.705582 49.248 
L 86.705582 8.928 
" clip-path="url(#pc7ce7ddcf4)" style="fill: none; stroke-dasharray: 2.59,1.12; stroke-dashoffset: 0; stroke: #808080; stroke-width: 0.7"/>
    <path d="M 92.120576 49.248 
L 92.120576 8.928 
" clip-path="url(#pc7ce7ddcf4)" style="fill: none; stroke-dasharray: 2.59,1.12; stroke-dashoffset: 0; stroke: #808080; stroke-width: 0.7"/>
    <path d="M 97.53557 49.248 
L 97.53557 8.928 
" clip-path="url(#pc7ce7ddcf4)" style="fill: none; stroke-dasharray: 2.59,1.12; stroke-dashoffset: 0; stroke: #808080; stroke-width: 0.7"/>
    <path d="M 102.950563 49.248 
L 102.950563 8.928 
" clip-path="url(#pc7ce7ddcf4)" style="fill: none; stroke-dasharray: 2.59,1.12; stroke-dashoffset: 0; stroke: #808080; stroke-width: 0.7"/>
    <path d="M 108.365557 49.248 
L 108.365557 8.928 
" clip-path="url(#pc7ce7ddcf4)" style="fill: none; stroke-dasharray: 2.59,1.12; stroke-dashoffset: 0; stroke: #808080; stroke-width: 0.7"/>
    <path d="M 113.780551 49.248 
L 113.780551 8.928 
" clip-path="url(#pc7ce7ddcf4)" style="fill: none; stroke-dasharray: 2.59,1.12; stroke-dashoffset: 0; stroke: #808080; stroke-width: 0.7"/>
    <path d="M 119.195545 49.248 
L 119.195545 8.928 
" clip-path="url(#pc7ce7ddcf4)" style="fill: none; stroke-dasharray: 2.59,1.12; stroke-dashoffset: 0; stroke: #808080; stroke-width: 0.7"/>
    <path d="M 124.610539 49.248 
L 124.610539 8.928 
" clip-path="url(#pc7ce7ddcf4)" style="fill: none; stroke-dasharray: 2.59,1.12; stroke-dashoffset: 0; stroke: #808080; stroke-width: 0.7"/>
    <path d="M 130.025533 49.248 
L 130.025533 8.928 
" clip-path="url(#pc7ce7ddcf4)" style="fill: none; stroke-dasharray: 2.59,1.12; stroke-dashoffset: 0; stroke: #808080; stroke-width: 0.7"/>
    <path d="M 135.440526 49.248 
L 135.440526 8.928 
" clip-path="url(#pc7ce7ddcf4)" style="fill: none; stroke-dasharray: 2.59,1.12; stroke-dashoffset: 0; stroke: #808080; stroke-width: 0.7"/>
    <path d="M 140.85552 49.248 
L 140.85552 8.928 
" clip-path="url(#pc7ce7ddcf4)" style="fill: none; stroke-dasharray: 2.59,1.12; stroke-dashoffset: 0; stroke: #808080; stroke-width: 0.7"/>
    <path d="M 146.270514 49.248 
L 146.270514 8.928 
" clip-path="url(#pc7ce7ddcf4)" style="fill: none; stroke-dasharray: 2.59,1.12; stroke-dashoffset: 0; stroke: #808080; stroke-width: 0.7"/>
   </g>
   <g id="patch_3">
    <path d="M 27 51.264 
L 27 6.912 
" style="fill: none; stroke: #000000; stroke-width: 0.5; stroke-linejoin: miter; stroke-linecap: square"/>
   </g>
   <g id="patch_4">
    <path d="M 27 51.264 
L 194.4 51.264 
" style="fill: none; stroke: #000000; stroke-width: 0.5; stroke-linejoin: miter; stroke-linecap: square"/>
   </g>
  </g>
 </g>
 <defs>
  <clipPath id="pc7ce7ddcf4">
   <rect x="27" y="6.912" width="167.4" height="44.352"/>
  </clipPath>
 </defs>
</svg>
