<?xml version="1.0" encoding="utf-8" standalone="no"?>
<!DOCTYPE svg PUBLIC "-//W3C//DTD SVG 1.1//EN"
  "http://www.w3.org/Graphics/SVG/1.1/DTD/svg11.dtd">
<svg xmlns:xlink="http://www.w3.org/1999/xlink" width="144pt" height="72pt" viewBox="0 0 144 72" xmlns="http://www.w3.org/2000/svg" version="1.1">
 <metadata>
  <rdf:RDF xmlns:dc="http://purl.org/dc/elements/1.1/" xmlns:cc="http://creativecommons.org/ns#" xmlns:rdf="http://www.w3.org/1999/02/22-rdf-syntax-ns#">
   <cc:Work>
    <dc:type rdf:resource="http://purl.org/dc/dcmitype/StillImage"/>
    <dc:date>2024-05-02T13:07:27.309919</dc:date>
    <dc:format>image/svg+xml</dc:format>
    <dc:creator>
     <cc:Agent>
      <dc:title>Matplotlib v3.8.3, https://matplotlib.org/</dc:title>
     </cc:Agent>
    </dc:creator>
   </cc:Work>
  </rdf:RDF>
 </metadata>
 <defs>
  <style type="text/css">*{stroke-linejoin: round; stroke-linecap: butt}</style>
 </defs>
 <g id="figure_1">
  <g id="patch_1">
   <path d="M 0 72 
L 144 72 
L 144 0 
L 0 0 
z
" style="fill: #ffffff"/>
  </g>
  <g id="axes_1">
   <g id="matplotlib.axis_1"/>
   <g id="matplotlib.axis_2"/>
   <g id="line2d_1">
    <path d="M 17.997464 55.288551 
L 18.6138 53.618822 
L 19.237745 51.247048 
L 19.8972 47.809224 
L 20.640355 42.663877 
L 21.611782 34.199852 
L 23.143745 20.894448 
L 23.666236 18.183338 
L 24.006109 17.373581 
L 24.209018 17.313189 
L 24.381491 17.530044 
L 24.619909 18.25283 
L 24.944564 20.043628 
L 25.373209 23.802875 
L 25.9515 31.068952 
L 27.874064 57.080482 
L 28.165745 57.952938 
L 28.421918 58.131354 
L 28.726282 58.054933 
L 29.233555 57.666311 
L 29.890473 56.875773 
L 30.562609 55.706901 
L 31.247427 54.045923 
L 31.967755 51.679813 
L 32.769245 48.231752 
L 33.773645 42.835435 
L 35.805273 31.686211 
L 36.335373 30.023148 
L 36.685391 29.527489 
L 36.913664 29.516106 
L 37.129255 29.756527 
L 37.405718 30.449042 
L 37.760809 32.009828 
L 38.209745 35.091888 
L 38.790573 40.791479 
L 40.421455 57.881073 
L 40.715673 58.544031 
L 41.035255 58.748832 
L 41.590718 58.794894 
L 42.511418 58.643751 
L 43.434655 58.271113 
L 44.248827 57.7037 
L 44.964082 56.930114 
L 45.615927 55.886796 
L 46.237336 54.452327 
L 46.853673 52.439019 
L 47.492836 49.543618 
L 48.190336 45.277418 
L 49.019727 38.705028 
L 51.386155 18.937631 
L 51.791973 17.542051 
L 52.045609 17.281442 
L 52.210473 17.39129 
L 52.418455 17.86029 
L 52.7076 19.143444 
L 53.093127 21.997464 
L 53.602936 27.629587 
L 54.358773 38.807303 
L 55.467164 54.818458 
L 55.837473 57.354807 
L 56.119009 58.02222 
L 56.372645 58.13687 
L 56.707445 58.013842 
L 57.260373 57.544707 
L 57.927436 56.679589 
L 58.602109 55.424615 
L 59.292 53.6451 
L 60.025009 51.099797 
L 60.851864 47.368899 
L 61.945036 41.293134 
L 63.5886 32.226467 
L 64.161818 30.239722 
L 64.539736 29.596847 
L 64.785764 29.531288 
L 64.996282 29.723222 
L 65.260064 30.312443 
L 65.602473 31.692238 
L 66.036191 34.471652 
L 66.589118 39.61147 
L 67.499673 50.592058 
L 68.118545 56.799249 
L 68.448273 58.232453 
L 68.739955 58.646519 
L 69.1128 58.777921 
L 69.835664 58.758803 
L 70.784264 58.517872 
L 71.666918 58.067402 
L 72.437973 57.42355 
L 73.122791 56.556332 
L 73.759418 55.377407 
L 74.375755 53.744008 
L 74.997164 51.431356 
L 75.654082 48.072951 
L 76.389627 43.065154 
L 77.333155 34.942035 
L 78.979255 20.665325 
L 79.489064 18.101822 
L 79.821327 17.353681 
L 80.019164 17.313405 
L 80.194173 17.548929 
L 80.437664 18.317541 
L 80.767391 20.192801 
L 81.203645 24.112381 
L 81.794618 31.675448 
L 83.636018 56.881367 
L 83.935309 57.90435 
L 84.191482 58.127318 
L 84.483164 58.077604 
L 84.962536 57.735348 
L 85.611845 56.990207 
L 86.283982 55.869507 
L 86.966264 54.277066 
L 87.681518 52.007853 
L 88.470327 48.715089 
L 89.436682 43.641218 
L 91.704191 31.322859 
L 92.201318 29.903327 
L 92.528509 29.516622 
L 92.746636 29.54526 
L 92.969836 29.836221 
L 93.258982 30.635531 
L 93.629291 32.39503 
L 94.095982 35.809086 
L 94.707245 42.105654 
L 96.135218 57.500154 
L 96.442118 58.435514 
L 96.741409 58.711663 
L 97.197955 58.795188 
L 98.052709 58.706083 
L 98.9937 58.390797 
L 99.838309 57.875657 
L 100.576391 57.162947 
L 101.240918 56.204362 
L 101.8674 54.893865 
L 102.483736 53.059825 
L 103.115291 50.436246 
L 103.7925 46.605011 
L 104.571164 40.822377 
L 105.732818 30.247106 
L 106.820918 21.052948 
L 107.353555 18.227302 
L 107.6985 17.373656 
L 107.906482 17.299234 
L 108.078955 17.509006 
L 108.314836 18.21169 
L 108.636955 19.964614 
L 109.063064 23.663578 
L 109.636282 30.813244 
L 111.594355 57.17126 
L 111.8835 57.978557 
L 112.137136 58.135412 
L 112.449109 58.046512 
L 112.969064 57.63656 
L 113.628518 56.827319 
L 114.303191 55.633163 
L 114.988009 53.945267 
L 115.710873 51.537336 
L 116.519973 48.014362 
L 117.544664 42.460705 
L 119.469764 31.872118 
L 120.015082 30.102881 
L 120.375245 29.561245 
L 120.608591 29.534581 
L 120.824182 29.762554 
L 121.098109 30.429277 
L 121.450664 31.946249 
L 121.897064 34.960993 
L 122.470282 40.51282 
L 124.149355 57.952185 
L 124.443573 58.563724 
L 124.770764 58.752787 
L 125.354127 58.787805 
L 126.282436 58.620084 
L 127.198064 58.232804 
L 128.002091 57.652695 
L 128.712273 56.861336 
L 129.361582 55.79265 
L 129.597464 55.293951 
L 129.597464 55.293951 
" clip-path="url(#p3142df0746)" style="fill: none; stroke: #000000; stroke-width: 1.5; stroke-linecap: square"/>
   </g>
   <g id="LineCollection_1">
    <path clip-path="url(#p3142df0746)" style="fill: none; stroke-dasharray: 5.55,2.4; stroke-dashoffset: 0; stroke: #808080; stroke-width: 1.5"/>
    <path clip-path="url(#p3142df0746)" style="fill: none; stroke-dasharray: 5.55,2.4; stroke-dashoffset: 0; stroke: #808080; stroke-width: 1.5"/>
    <path clip-path="url(#p3142df0746)" style="fill: none; stroke-dasharray: 5.55,2.4; stroke-dashoffset: 0; stroke: #808080; stroke-width: 1.5"/>
    <path clip-path="url(#p3142df0746)" style="fill: none; stroke-dasharray: 5.55,2.4; stroke-dashoffset: 0; stroke: #808080; stroke-width: 1.5"/>
    <path clip-path="url(#p3142df0746)" style="fill: none; stroke-dasharray: 5.55,2.4; stroke-dashoffset: 0; stroke: #808080; stroke-width: 1.5"/>
    <path clip-path="url(#p3142df0746)" style="fill: none; stroke-dasharray: 5.55,2.4; stroke-dashoffset: 0; stroke: #808080; stroke-width: 1.5"/>
    <path clip-path="url(#p3142df0746)" style="fill: none; stroke-dasharray: 5.55,2.4; stroke-dashoffset: 0; stroke: #808080; stroke-width: 1.5"/>
    <path clip-path="url(#p3142df0746)" style="fill: none; stroke-dasharray: 5.55,2.4; stroke-dashoffset: 0; stroke: #808080; stroke-width: 1.5"/>
    <path clip-path="url(#p3142df0746)" style="fill: none; stroke-dasharray: 5.55,2.4; stroke-dashoffset: 0; stroke: #808080; stroke-width: 1.5"/>
    <path clip-path="url(#p3142df0746)" style="fill: none; stroke-dasharray: 5.55,2.4; stroke-dashoffset: 0; stroke: #808080; stroke-width: 1.5"/>
    <path clip-path="url(#p3142df0746)" style="fill: none; stroke-dasharray: 5.55,2.4; stroke-dashoffset: 0; stroke: #808080; stroke-width: 1.5"/>
    <path clip-path="url(#p3142df0746)" style="fill: none; stroke-dasharray: 5.55,2.4; stroke-dashoffset: 0; stroke: #808080; stroke-width: 1.5"/>
    <path clip-path="url(#p3142df0746)" style="fill: none; stroke-dasharray: 5.55,2.4; stroke-dashoffset: 0; stroke: #808080; stroke-width: 1.5"/>
    <path clip-path="url(#p3142df0746)" style="fill: none; stroke-dasharray: 5.55,2.4; stroke-dashoffset: 0; stroke: #808080; stroke-width: 1.5"/>
    <path clip-path="url(#p3142df0746)" style="fill: none; stroke-dasharray: 5.55,2.4; stroke-dashoffset: 0; stroke: #808080; stroke-width: 1.5"/>
    <path clip-path="url(#p3142df0746)" style="fill: none; stroke-dasharray: 5.55,2.4; stroke-dashoffset: 0; stroke: #808080; stroke-width: 1.5"/>
    <path d="M 18 61.56 
L 18 11.16 
" clip-path="url(#p3142df0746)" style="fill: none; stroke-dasharray: 5.55,2.4; stroke-dashoffset: 0; stroke: #808080; stroke-width: 1.5"/>
    <path d="M 45.9 61.56 
L 45.9 11.16 
" clip-path="url(#p3142df0746)" style="fill: none; stroke-dasharray: 5.55,2.4; stroke-dashoffset: 0; stroke: #808080; stroke-width: 1.5"/>
    <path d="M 73.8 61.56 
L 73.8 11.16 
" clip-path="url(#p3142df0746)" style="fill: none; stroke-dasharray: 5.55,2.4; stroke-dashoffset: 0; stroke: #808080; stroke-width: 1.5"/>
    <path d="M 101.7 61.56 
L 101.7 11.16 
" clip-path="url(#p3142df0746)" style="fill: none; stroke-dasharray: 5.55,2.4; stroke-dashoffset: 0; stroke: #808080; stroke-width: 1.5"/>
   </g>
  </g>
 </g>
 <defs>
  <clipPath id="p3142df0746">
   <rect x="18" y="8.64" width="111.6" height="55.44"/>
  </clipPath>
 </defs>
</svg>
