<?xml version="1.0" encoding="utf-8" standalone="no"?>
<!DOCTYPE svg PUBLIC "-//W3C//DTD SVG 1.1//EN"
  "http://www.w3.org/Graphics/SVG/1.1/DTD/svg11.dtd">
<svg xmlns:xlink="http://www.w3.org/1999/xlink" width="144pt" height="72pt" viewBox="0 0 144 72" xmlns="http://www.w3.org/2000/svg" version="1.1">
 <metadata>
  <rdf:RDF xmlns:dc="http://purl.org/dc/elements/1.1/" xmlns:cc="http://creativecommons.org/ns#" xmlns:rdf="http://www.w3.org/1999/02/22-rdf-syntax-ns#">
   <cc:Work>
    <dc:type rdf:resource="http://purl.org/dc/dcmitype/StillImage"/>
    <dc:date>2024-07-10T09:51:31.849219</dc:date>
    <dc:format>image/svg+xml</dc:format>
    <dc:creator>
     <cc:Agent>
      <dc:title>Matplotlib v3.8.3, https://matplotlib.org/</dc:title>
     </cc:Agent>
    </dc:creator>
   </cc:Work>
  </rdf:RDF>
 </metadata>
 <defs>
  <style type="text/css">*{stroke-linejoin: round; stroke-linecap: butt}</style>
 </defs>
 <g id="figure_1">
  <g id="patch_1">
   <path d="M 0 72 
L 144 72 
L 144 0 
L 0 0 
z
" style="fill: #ffffff"/>
  </g>
  <g id="axes_1">
   <g id="matplotlib.axis_1"/>
   <g id="matplotlib.axis_2"/>
   <g id="line2d_1">
    <path d="M 17.998732 59.419668 
L 18.464155 58.712477 
L 18.869973 57.664811 
L 19.250427 56.014738 
L 19.633418 53.268535 
L 20.049382 48.511331 
L 20.554118 39.88645 
L 21.998577 13.307461 
L 22.162173 12.842626 
L 22.188805 12.860173 
L 22.28265 13.14023 
L 22.448782 14.493693 
L 22.702418 18.689104 
L 23.079068 29.164227 
L 24.092345 59.233346 
L 24.264818 59.401051 
L 24.5844 59.265747 
L 25.373209 58.675167 
L 27.673691 56.841634 
L 28.528445 56.08033 
L 29.102932 55.255489 
L 29.622886 54.097414 
L 30.133964 52.37806 
L 30.669136 49.73614 
L 31.29435 45.41665 
L 32.714714 35.133632 
L 32.984836 34.599503 
L 33.123068 34.66295 
L 33.293005 35.074044 
L 33.549177 36.38028 
L 33.939777 39.715091 
L 35.043095 49.725274 
L 35.306877 50.358764 
L 35.441305 50.306701 
L 35.606168 49.90371 
L 35.856 48.601446 
L 36.202214 45.462244 
L 36.6651 38.995542 
L 37.447568 24.264441 
L 38.081659 14.157207 
L 38.375877 12.240392 
L 38.451968 12.17918 
L 38.497623 12.239281 
L 38.616832 12.758711 
L 38.809595 14.785432 
L 39.083523 20.367474 
L 39.460173 33.200513 
L 40.223618 60.155024 
L 40.495009 60.281261 
L 41.376395 60.439827 
L 42.696573 60.445833 
L 43.910223 60.242952 
L 44.771318 59.885148 
L 45.391459 59.390546 
L 45.879709 58.709533 
L 46.300745 57.718069 
L 46.692614 56.179319 
L 47.081945 53.66546 
L 47.499177 49.372264 
L 47.993768 41.726459 
L 49.547291 15.541588 
L 49.660159 15.349487 
L 49.703277 15.394023 
L 49.816145 15.831631 
L 50.005105 17.630424 
L 50.289177 22.797815 
L 50.730505 35.549747 
L 51.518045 58.055651 
L 51.719686 58.973694 
L 51.882014 58.976972 
L 52.209205 58.665382 
L 52.754523 57.831594 
L 53.412709 56.386072 
L 54.476714 53.402346 
L 55.534377 50.687464 
L 56.178614 49.60206 
L 56.717591 49.09644 
L 57.259105 48.889384 
L 58.509532 48.537415 
L 58.921691 48.069808 
L 59.355409 47.211903 
L 59.855073 45.683629 
L 60.492968 42.935904 
L 61.98435 36.239882 
L 62.355927 35.573253 
L 62.608295 35.492097 
L 62.839105 35.667378 
L 63.166295 36.245272 
L 64.357118 38.61608 
L 64.580318 38.580995 
L 64.812395 38.281548 
L 65.124368 37.458552 
L 65.58345 35.524325 
L 66.623359 31.001419 
L 66.855436 30.782457 
L 66.996205 30.927778 
L 67.186432 31.5202 
L 67.446409 33.168512 
L 67.786282 36.935939 
L 68.246632 44.848707 
L 69.032905 58.383333 
L 69.261177 59.061259 
L 69.563005 59.253317 
L 70.194559 59.361465 
L 70.936445 59.267919 
L 71.611118 58.963754 
L 72.175459 58.465048 
L 72.661173 57.728195 
L 73.1025 56.629113 
L 73.524805 54.935806 
L 73.954718 52.210996 
L 74.422677 47.680722 
L 75.011114 39.55104 
L 76.0878 24.478827 
L 76.364264 23.201359 
L 76.440355 23.187045 
L 76.477132 23.236573 
L 76.606486 23.71149 
L 76.815736 25.486747 
L 77.128977 30.344203 
L 77.6781 43.054987 
L 78.272877 55.058802 
L 78.545536 56.969297 
L 78.709132 57.141417 
L 78.723082 57.135001 
L 78.871459 56.924338 
L 79.131436 56.094784 
L 79.495405 54.117721 
L 79.922782 50.449712 
L 80.446541 43.817059 
L 82.039377 22.017471 
L 82.164927 21.816802 
L 82.202973 21.850143 
L 82.313305 22.215021 
L 82.493386 23.737407 
L 82.750827 28.099657 
L 83.10465 38.402302 
L 83.822441 60.033221 
L 84.059591 60.184343 
L 84.730459 60.325856 
L 85.653695 60.288107 
L 86.549032 60.038646 
L 87.230045 59.625615 
L 87.753805 59.045891 
L 88.191327 58.214662 
L 88.587 56.950579 
L 88.969991 54.916201 
L 89.3682 51.477016 
L 89.817136 45.459292 
L 90.415718 34.025828 
L 91.360514 16.257231 
L 91.650927 14.224618 
L 91.727018 14.155818 
L 91.773941 14.218417 
L 91.89315 14.749886 
L 92.090986 16.840305 
L 92.386473 22.69886 
L 92.849359 37.036402 
L 93.562077 58.258294 
L 93.758645 59.169516 
L 93.928582 59.177608 
L 94.326791 58.875248 
L 95.014145 58.069322 
L 96.374905 56.025697 
L 97.788927 54.137189 
L 98.646218 52.82986 
L 99.262555 51.45465 
L 99.867477 49.523113 
L 100.558636 46.501658 
L 102.127377 39.32488 
L 102.449495 38.835833 
L 102.653673 38.84657 
L 102.864191 39.123998 
L 103.167286 39.954565 
L 103.712605 42.245337 
L 104.321332 44.466735 
L 104.599064 44.815984 
L 104.765195 44.736755 
L 104.963032 44.330021 
L 105.236959 43.178309 
L 105.607268 40.534302 
L 106.120882 35.054457 
L 107.465155 19.910166 
L 107.711182 19.229954 
L 107.812636 19.31835 
L 107.958477 19.866355 
L 108.180409 21.723339 
L 108.488577 26.456028 
L 108.910882 36.824809 
L 109.797341 59.428861 
L 109.993909 59.678879 
L 110.559518 59.829427 
L 111.647618 59.899917 
L 112.721768 59.758161 
L 113.547355 59.434238 
L 114.175105 58.951973 
L 114.683645 58.274319 
L 115.128777 57.290895 
L 115.544741 55.793737 
L 115.958168 53.404972 
L 116.398227 49.436074 
L 116.918182 42.505255 
L 118.385468 21.440105 
L 118.545259 21.108201 
L 118.571891 21.124521 
L 118.674614 21.388089 
L 118.849623 22.589049 
L 119.115941 26.214619 
L 119.525564 35.313347 
L 120.455141 56.545497 
L 120.691023 57.728053 
L 120.829255 57.7669 
L 120.843205 57.756287 
L 121.029627 57.454084 
L 121.351745 56.448895 
L 121.755027 54.404778 
L 122.212841 50.825971 
L 122.787327 44.374631 
L 124.1595 28.212401 
L 124.401723 27.518059 
L 124.496836 27.617523 
L 124.640141 28.21983 
L 124.857 30.2635 
L 125.157559 35.505842 
L 125.593814 47.612877 
L 126.071918 59.332524 
L 126.257073 59.788791 
L 126.624845 59.931639 
L 127.305859 59.966493 
L 128.061695 59.785701 
L 128.708468 59.408402 
L 129.229691 58.845034 
L 129.598732 58.193558 
L 129.598732 58.193558 
" clip-path="url(#pc0a0295ec4)" style="fill: none; stroke: #000000; stroke-width: 1.5; stroke-linecap: square"/>
   </g>
   <g id="LineCollection_1">
    <path clip-path="url(#pc0a0295ec4)" style="fill: none; stroke-dasharray: 5.55,2.4; stroke-dashoffset: 0; stroke: #808080; stroke-width: 1.5"/>
    <path clip-path="url(#pc0a0295ec4)" style="fill: none; stroke-dasharray: 5.55,2.4; stroke-dashoffset: 0; stroke: #808080; stroke-width: 1.5"/>
    <path clip-path="url(#pc0a0295ec4)" style="fill: none; stroke-dasharray: 5.55,2.4; stroke-dashoffset: 0; stroke: #808080; stroke-width: 1.5"/>
    <path clip-path="url(#pc0a0295ec4)" style="fill: none; stroke-dasharray: 5.55,2.4; stroke-dashoffset: 0; stroke: #808080; stroke-width: 1.5"/>
    <path clip-path="url(#pc0a0295ec4)" style="fill: none; stroke-dasharray: 5.55,2.4; stroke-dashoffset: 0; stroke: #808080; stroke-width: 1.5"/>
    <path clip-path="url(#pc0a0295ec4)" style="fill: none; stroke-dasharray: 5.55,2.4; stroke-dashoffset: 0; stroke: #808080; stroke-width: 1.5"/>
    <path clip-path="url(#pc0a0295ec4)" style="fill: none; stroke-dasharray: 5.55,2.4; stroke-dashoffset: 0; stroke: #808080; stroke-width: 1.5"/>
    <path clip-path="url(#pc0a0295ec4)" style="fill: none; stroke-dasharray: 5.55,2.4; stroke-dashoffset: 0; stroke: #808080; stroke-width: 1.5"/>
    <path clip-path="url(#pc0a0295ec4)" style="fill: none; stroke-dasharray: 5.55,2.4; stroke-dashoffset: 0; stroke: #808080; stroke-width: 1.5"/>
    <path clip-path="url(#pc0a0295ec4)" style="fill: none; stroke-dasharray: 5.55,2.4; stroke-dashoffset: 0; stroke: #808080; stroke-width: 1.5"/>
    <path clip-path="url(#pc0a0295ec4)" style="fill: none; stroke-dasharray: 5.55,2.4; stroke-dashoffset: 0; stroke: #808080; stroke-width: 1.5"/>
    <path d="M 4.05 61.56 
L 4.05 11.16 
" clip-path="url(#pc0a0295ec4)" style="fill: none; stroke-dasharray: 5.55,2.4; stroke-dashoffset: 0; stroke: #808080; stroke-width: 1.5"/>
    <path d="M 18 61.56 
L 18 11.16 
" clip-path="url(#pc0a0295ec4)" style="fill: none; stroke-dasharray: 5.55,2.4; stroke-dashoffset: 0; stroke: #808080; stroke-width: 1.5"/>
    <path d="M 31.95 61.56 
L 31.95 11.16 
" clip-path="url(#pc0a0295ec4)" style="fill: none; stroke-dasharray: 5.55,2.4; stroke-dashoffset: 0; stroke: #808080; stroke-width: 1.5"/>
    <path d="M 45.9 61.56 
L 45.9 11.16 
" clip-path="url(#pc0a0295ec4)" style="fill: none; stroke-dasharray: 5.55,2.4; stroke-dashoffset: 0; stroke: #808080; stroke-width: 1.5"/>
    <path d="M 59.85 61.56 
L 59.85 11.16 
" clip-path="url(#pc0a0295ec4)" style="fill: none; stroke-dasharray: 5.55,2.4; stroke-dashoffset: 0; stroke: #808080; stroke-width: 1.5"/>
    <path d="M 73.8 61.56 
L 73.8 11.16 
" clip-path="url(#pc0a0295ec4)" style="fill: none; stroke-dasharray: 5.55,2.4; stroke-dashoffset: 0; stroke: #808080; stroke-width: 1.5"/>
    <path d="M 87.75 61.56 
L 87.75 11.16 
" clip-path="url(#pc0a0295ec4)" style="fill: none; stroke-dasharray: 5.55,2.4; stroke-dashoffset: 0; stroke: #808080; stroke-width: 1.5"/>
    <path d="M 101.7 61.56 
L 101.7 11.16 
" clip-path="url(#pc0a0295ec4)" style="fill: none; stroke-dasharray: 5.55,2.4; stroke-dashoffset: 0; stroke: #808080; stroke-width: 1.5"/>
    <path d="M 115.65 61.56 
L 115.65 11.16 
" clip-path="url(#pc0a0295ec4)" style="fill: none; stroke-dasharray: 5.55,2.4; stroke-dashoffset: 0; stroke: #808080; stroke-width: 1.5"/>
   </g>
  </g>
 </g>
 <defs>
  <clipPath id="pc0a0295ec4">
   <rect x="18" y="8.64" width="111.6" height="55.44"/>
  </clipPath>
 </defs>
</svg>
