<?xml version="1.0" encoding="utf-8" standalone="no"?>
<!DOCTYPE svg PUBLIC "-//W3C//DTD SVG 1.1//EN"
  "http://www.w3.org/Graphics/SVG/1.1/DTD/svg11.dtd">
<svg xmlns:xlink="http://www.w3.org/1999/xlink" width="216pt" height="144pt" viewBox="0 0 216 144" xmlns="http://www.w3.org/2000/svg" version="1.1">
 <metadata>
  <rdf:RDF xmlns:dc="http://purl.org/dc/elements/1.1/" xmlns:cc="http://creativecommons.org/ns#" xmlns:rdf="http://www.w3.org/1999/02/22-rdf-syntax-ns#">
   <cc:Work>
    <dc:type rdf:resource="http://purl.org/dc/dcmitype/StillImage"/>
    <dc:date>2024-05-30T15:41:02.677581</dc:date>
    <dc:format>image/svg+xml</dc:format>
    <dc:creator>
     <cc:Agent>
      <dc:title>Matplotlib v3.8.3, https://matplotlib.org/</dc:title>
     </cc:Agent>
    </dc:creator>
   </cc:Work>
  </rdf:RDF>
 </metadata>
 <defs>
  <style type="text/css">*{stroke-linejoin: round; stroke-linecap: butt}</style>
 </defs>
 <g id="figure_1">
  <g id="patch_1">
   <path d="M 0 144 
L 216 144 
L 216 0 
L 0 0 
z
" style="fill: #ffffff"/>
  </g>
  <g id="axes_1">
   <g id="patch_2">
    <path d="M 27 128.16 
L 194.4 128.16 
L 194.4 17.28 
L 27 17.28 
z
" style="fill: #ffffff"/>
   </g>
   <g id="matplotlib.axis_1">
    <g id="xtick_1">
     <g id="line2d_1">
      <defs>
       <path id="m8782819f90" d="M 0 0 
L 0 3.5 
" style="stroke: #000000; stroke-width: 0.8"/>
      </defs>
      <g>
       <use xlink:href="#m8782819f90" x="44.36" y="128.16" style="stroke: #000000; stroke-width: 0.8"/>
      </g>
     </g>
     <g id="text_1">
      <!-- 20 -->
      <g transform="translate(37.9975 142.758438) scale(0.1 -0.1)">
       <defs>
        <path id="DejaVuSans-32" d="M 1228 531 
L 3431 531 
L 3431 0 
L 469 0 
L 469 531 
Q 828 903 1448 1529 
Q 2069 2156 2228 2338 
Q 2531 2678 2651 2914 
Q 2772 3150 2772 3378 
Q 2772 3750 2511 3984 
Q 2250 4219 1831 4219 
Q 1534 4219 1204 4116 
Q 875 4013 500 3803 
L 500 4441 
Q 881 4594 1212 4672 
Q 1544 4750 1819 4750 
Q 2544 4750 2975 4387 
Q 3406 4025 3406 3419 
Q 3406 3131 3298 2873 
Q 3191 2616 2906 2266 
Q 2828 2175 2409 1742 
Q 1991 1309 1228 531 
z
" transform="scale(0.015625)"/>
        <path id="DejaVuSans-30" d="M 2034 4250 
Q 1547 4250 1301 3770 
Q 1056 3291 1056 2328 
Q 1056 1369 1301 889 
Q 1547 409 2034 409 
Q 2525 409 2770 889 
Q 3016 1369 3016 2328 
Q 3016 3291 2770 3770 
Q 2525 4250 2034 4250 
z
M 2034 4750 
Q 2819 4750 3233 4129 
Q 3647 3509 3647 2328 
Q 3647 1150 3233 529 
Q 2819 -91 2034 -91 
Q 1250 -91 836 529 
Q 422 1150 422 2328 
Q 422 3509 836 4129 
Q 1250 4750 2034 4750 
z
" transform="scale(0.015625)"/>
       </defs>
       <use xlink:href="#DejaVuSans-32"/>
       <use xlink:href="#DejaVuSans-30" x="63.623047"/>
      </g>
     </g>
    </g>
    <g id="xtick_2">
     <g id="line2d_2">
      <g>
       <use xlink:href="#m8782819f90" x="81.56" y="128.16" style="stroke: #000000; stroke-width: 0.8"/>
      </g>
     </g>
     <g id="text_2">
      <!-- 30 -->
      <g transform="translate(75.1975 142.758438) scale(0.1 -0.1)">
       <defs>
        <path id="DejaVuSans-33" d="M 2597 2516 
Q 3050 2419 3304 2112 
Q 3559 1806 3559 1356 
Q 3559 666 3084 287 
Q 2609 -91 1734 -91 
Q 1441 -91 1130 -33 
Q 819 25 488 141 
L 488 750 
Q 750 597 1062 519 
Q 1375 441 1716 441 
Q 2309 441 2620 675 
Q 2931 909 2931 1356 
Q 2931 1769 2642 2001 
Q 2353 2234 1838 2234 
L 1294 2234 
L 1294 2753 
L 1863 2753 
Q 2328 2753 2575 2939 
Q 2822 3125 2822 3475 
Q 2822 3834 2567 4026 
Q 2313 4219 1838 4219 
Q 1578 4219 1281 4162 
Q 984 4106 628 3988 
L 628 4550 
Q 988 4650 1302 4700 
Q 1616 4750 1894 4750 
Q 2613 4750 3031 4423 
Q 3450 4097 3450 3541 
Q 3450 3153 3228 2886 
Q 3006 2619 2597 2516 
z
" transform="scale(0.015625)"/>
       </defs>
       <use xlink:href="#DejaVuSans-33"/>
       <use xlink:href="#DejaVuSans-30" x="63.623047"/>
      </g>
     </g>
    </g>
    <g id="xtick_3">
     <g id="line2d_3">
      <g>
       <use xlink:href="#m8782819f90" x="118.76" y="128.16" style="stroke: #000000; stroke-width: 0.8"/>
      </g>
     </g>
     <g id="text_3">
      <!-- 40 -->
      <g transform="translate(112.3975 142.758438) scale(0.1 -0.1)">
       <defs>
        <path id="DejaVuSans-34" d="M 2419 4116 
L 825 1625 
L 2419 1625 
L 2419 4116 
z
M 2253 4666 
L 3047 4666 
L 3047 1625 
L 3713 1625 
L 3713 1100 
L 3047 1100 
L 3047 0 
L 2419 0 
L 2419 1100 
L 313 1100 
L 313 1709 
L 2253 4666 
z
" transform="scale(0.015625)"/>
       </defs>
       <use xlink:href="#DejaVuSans-34"/>
       <use xlink:href="#DejaVuSans-30" x="63.623047"/>
      </g>
     </g>
    </g>
    <g id="xtick_4">
     <g id="line2d_4">
      <g>
       <use xlink:href="#m8782819f90" x="155.96" y="128.16" style="stroke: #000000; stroke-width: 0.8"/>
      </g>
     </g>
     <g id="text_4">
      <!-- 50 -->
      <g transform="translate(149.5975 142.758438) scale(0.1 -0.1)">
       <defs>
        <path id="DejaVuSans-35" d="M 691 4666 
L 3169 4666 
L 3169 4134 
L 1269 4134 
L 1269 2991 
Q 1406 3038 1543 3061 
Q 1681 3084 1819 3084 
Q 2600 3084 3056 2656 
Q 3513 2228 3513 1497 
Q 3513 744 3044 326 
Q 2575 -91 1722 -91 
Q 1428 -91 1123 -41 
Q 819 9 494 109 
L 494 744 
Q 775 591 1075 516 
Q 1375 441 1709 441 
Q 2250 441 2565 725 
Q 2881 1009 2881 1497 
Q 2881 1984 2565 2268 
Q 2250 2553 1709 2553 
Q 1456 2553 1204 2497 
Q 953 2441 691 2322 
L 691 4666 
z
" transform="scale(0.015625)"/>
       </defs>
       <use xlink:href="#DejaVuSans-35"/>
       <use xlink:href="#DejaVuSans-30" x="63.623047"/>
      </g>
     </g>
    </g>
    <g id="xtick_5">
     <g id="line2d_5">
      <g>
       <use xlink:href="#m8782819f90" x="193.16" y="128.16" style="stroke: #000000; stroke-width: 0.8"/>
      </g>
     </g>
     <g id="text_5">
      <!-- 60 -->
      <g transform="translate(186.7975 142.758438) scale(0.1 -0.1)">
       <defs>
        <path id="DejaVuSans-36" d="M 2113 2584 
Q 1688 2584 1439 2293 
Q 1191 2003 1191 1497 
Q 1191 994 1439 701 
Q 1688 409 2113 409 
Q 2538 409 2786 701 
Q 3034 994 3034 1497 
Q 3034 2003 2786 2293 
Q 2538 2584 2113 2584 
z
M 3366 4563 
L 3366 3988 
Q 3128 4100 2886 4159 
Q 2644 4219 2406 4219 
Q 1781 4219 1451 3797 
Q 1122 3375 1075 2522 
Q 1259 2794 1537 2939 
Q 1816 3084 2150 3084 
Q 2853 3084 3261 2657 
Q 3669 2231 3669 1497 
Q 3669 778 3244 343 
Q 2819 -91 2113 -91 
Q 1303 -91 875 529 
Q 447 1150 447 2328 
Q 447 3434 972 4092 
Q 1497 4750 2381 4750 
Q 2619 4750 2861 4703 
Q 3103 4656 3366 4563 
z
" transform="scale(0.015625)"/>
       </defs>
       <use xlink:href="#DejaVuSans-36"/>
       <use xlink:href="#DejaVuSans-30" x="63.623047"/>
      </g>
     </g>
    </g>
    <g id="text_6">
     <!-- Time (h) -->
     <g transform="translate(89.807031 156.436563) scale(0.1 -0.1)">
      <defs>
       <path id="DejaVuSans-54" d="M -19 4666 
L 3928 4666 
L 3928 4134 
L 2272 4134 
L 2272 0 
L 1638 0 
L 1638 4134 
L -19 4134 
L -19 4666 
z
" transform="scale(0.015625)"/>
       <path id="DejaVuSans-69" d="M 603 3500 
L 1178 3500 
L 1178 0 
L 603 0 
L 603 3500 
z
M 603 4863 
L 1178 4863 
L 1178 4134 
L 603 4134 
L 603 4863 
z
" transform="scale(0.015625)"/>
       <path id="DejaVuSans-6d" d="M 3328 2828 
Q 3544 3216 3844 3400 
Q 4144 3584 4550 3584 
Q 5097 3584 5394 3201 
Q 5691 2819 5691 2113 
L 5691 0 
L 5113 0 
L 5113 2094 
Q 5113 2597 4934 2840 
Q 4756 3084 4391 3084 
Q 3944 3084 3684 2787 
Q 3425 2491 3425 1978 
L 3425 0 
L 2847 0 
L 2847 2094 
Q 2847 2600 2669 2842 
Q 2491 3084 2119 3084 
Q 1678 3084 1418 2786 
Q 1159 2488 1159 1978 
L 1159 0 
L 581 0 
L 581 3500 
L 1159 3500 
L 1159 2956 
Q 1356 3278 1631 3431 
Q 1906 3584 2284 3584 
Q 2666 3584 2933 3390 
Q 3200 3197 3328 2828 
z
" transform="scale(0.015625)"/>
       <path id="DejaVuSans-65" d="M 3597 1894 
L 3597 1613 
L 953 1613 
Q 991 1019 1311 708 
Q 1631 397 2203 397 
Q 2534 397 2845 478 
Q 3156 559 3463 722 
L 3463 178 
Q 3153 47 2828 -22 
Q 2503 -91 2169 -91 
Q 1331 -91 842 396 
Q 353 884 353 1716 
Q 353 2575 817 3079 
Q 1281 3584 2069 3584 
Q 2775 3584 3186 3129 
Q 3597 2675 3597 1894 
z
M 3022 2063 
Q 3016 2534 2758 2815 
Q 2500 3097 2075 3097 
Q 1594 3097 1305 2825 
Q 1016 2553 972 2059 
L 3022 2063 
z
" transform="scale(0.015625)"/>
       <path id="DejaVuSans-20" transform="scale(0.015625)"/>
       <path id="DejaVuSans-28" d="M 1984 4856 
Q 1566 4138 1362 3434 
Q 1159 2731 1159 2009 
Q 1159 1288 1364 580 
Q 1569 -128 1984 -844 
L 1484 -844 
Q 1016 -109 783 600 
Q 550 1309 550 2009 
Q 550 2706 781 3412 
Q 1013 4119 1484 4856 
L 1984 4856 
z
" transform="scale(0.015625)"/>
       <path id="DejaVuSans-68" d="M 3513 2113 
L 3513 0 
L 2938 0 
L 2938 2094 
Q 2938 2591 2744 2837 
Q 2550 3084 2163 3084 
Q 1697 3084 1428 2787 
Q 1159 2491 1159 1978 
L 1159 0 
L 581 0 
L 581 4863 
L 1159 4863 
L 1159 2956 
Q 1366 3272 1645 3428 
Q 1925 3584 2291 3584 
Q 2894 3584 3203 3211 
Q 3513 2838 3513 2113 
z
" transform="scale(0.015625)"/>
       <path id="DejaVuSans-29" d="M 513 4856 
L 1013 4856 
Q 1481 4119 1714 3412 
Q 1947 2706 1947 2009 
Q 1947 1309 1714 600 
Q 1481 -109 1013 -844 
L 513 -844 
Q 928 -128 1133 580 
Q 1338 1288 1338 2009 
Q 1338 2731 1133 3434 
Q 928 4138 513 4856 
z
" transform="scale(0.015625)"/>
      </defs>
      <use xlink:href="#DejaVuSans-54"/>
      <use xlink:href="#DejaVuSans-69" x="57.958984"/>
      <use xlink:href="#DejaVuSans-6d" x="85.742188"/>
      <use xlink:href="#DejaVuSans-65" x="183.154297"/>
      <use xlink:href="#DejaVuSans-20" x="244.677734"/>
      <use xlink:href="#DejaVuSans-28" x="276.464844"/>
      <use xlink:href="#DejaVuSans-68" x="315.478516"/>
      <use xlink:href="#DejaVuSans-29" x="378.857422"/>
     </g>
    </g>
   </g>
   <g id="matplotlib.axis_2">
    <g id="ytick_1">
     <g id="line2d_6">
      <defs>
       <path id="mf67cd7b310" d="M 0 0 
L -3.5 0 
" style="stroke: #000000; stroke-width: 0.8"/>
      </defs>
      <g>
       <use xlink:href="#mf67cd7b310" x="27" y="104.373702" style="stroke: #000000; stroke-width: 0.8"/>
      </g>
     </g>
     <g id="text_7">
      <!-- 2 -->
      <g transform="translate(13.6375 108.172921) scale(0.1 -0.1)">
       <use xlink:href="#DejaVuSans-32"/>
      </g>
     </g>
    </g>
    <g id="ytick_2">
     <g id="line2d_7">
      <g>
       <use xlink:href="#mf67cd7b310" x="27" y="79.234089" style="stroke: #000000; stroke-width: 0.8"/>
      </g>
     </g>
     <g id="text_8">
      <!-- 3 -->
      <g transform="translate(13.6375 83.033308) scale(0.1 -0.1)">
       <use xlink:href="#DejaVuSans-33"/>
      </g>
     </g>
    </g>
    <g id="ytick_3">
     <g id="line2d_8">
      <g>
       <use xlink:href="#mf67cd7b310" x="27" y="54.094477" style="stroke: #000000; stroke-width: 0.8"/>
      </g>
     </g>
     <g id="text_9">
      <!-- 4 -->
      <g transform="translate(13.6375 57.893695) scale(0.1 -0.1)">
       <use xlink:href="#DejaVuSans-34"/>
      </g>
     </g>
    </g>
    <g id="ytick_4">
     <g id="line2d_9">
      <g>
       <use xlink:href="#mf67cd7b310" x="27" y="28.954864" style="stroke: #000000; stroke-width: 0.8"/>
      </g>
     </g>
     <g id="text_10">
      <!-- 5 -->
      <g transform="translate(13.6375 32.754083) scale(0.1 -0.1)">
       <use xlink:href="#DejaVuSans-35"/>
      </g>
     </g>
    </g>
    <g id="text_11">
     <!-- p53 level (F.C.) -->
     <g transform="translate(7.557812 109.966094) rotate(-90) scale(0.1 -0.1)">
      <defs>
       <path id="DejaVuSans-70" d="M 1159 525 
L 1159 -1331 
L 581 -1331 
L 581 3500 
L 1159 3500 
L 1159 2969 
Q 1341 3281 1617 3432 
Q 1894 3584 2278 3584 
Q 2916 3584 3314 3078 
Q 3713 2572 3713 1747 
Q 3713 922 3314 415 
Q 2916 -91 2278 -91 
Q 1894 -91 1617 61 
Q 1341 213 1159 525 
z
M 3116 1747 
Q 3116 2381 2855 2742 
Q 2594 3103 2138 3103 
Q 1681 3103 1420 2742 
Q 1159 2381 1159 1747 
Q 1159 1113 1420 752 
Q 1681 391 2138 391 
Q 2594 391 2855 752 
Q 3116 1113 3116 1747 
z
" transform="scale(0.015625)"/>
       <path id="DejaVuSans-6c" d="M 603 4863 
L 1178 4863 
L 1178 0 
L 603 0 
L 603 4863 
z
" transform="scale(0.015625)"/>
       <path id="DejaVuSans-76" d="M 191 3500 
L 800 3500 
L 1894 563 
L 2988 3500 
L 3597 3500 
L 2284 0 
L 1503 0 
L 191 3500 
z
" transform="scale(0.015625)"/>
       <path id="DejaVuSans-46" d="M 628 4666 
L 3309 4666 
L 3309 4134 
L 1259 4134 
L 1259 2759 
L 3109 2759 
L 3109 2228 
L 1259 2228 
L 1259 0 
L 628 0 
L 628 4666 
z
" transform="scale(0.015625)"/>
       <path id="DejaVuSans-2e" d="M 684 794 
L 1344 794 
L 1344 0 
L 684 0 
L 684 794 
z
" transform="scale(0.015625)"/>
       <path id="DejaVuSans-43" d="M 4122 4306 
L 4122 3641 
Q 3803 3938 3442 4084 
Q 3081 4231 2675 4231 
Q 1875 4231 1450 3742 
Q 1025 3253 1025 2328 
Q 1025 1406 1450 917 
Q 1875 428 2675 428 
Q 3081 428 3442 575 
Q 3803 722 4122 1019 
L 4122 359 
Q 3791 134 3420 21 
Q 3050 -91 2638 -91 
Q 1578 -91 968 557 
Q 359 1206 359 2328 
Q 359 3453 968 4101 
Q 1578 4750 2638 4750 
Q 3056 4750 3426 4639 
Q 3797 4528 4122 4306 
z
" transform="scale(0.015625)"/>
      </defs>
      <use xlink:href="#DejaVuSans-70"/>
      <use xlink:href="#DejaVuSans-35" x="63.476562"/>
      <use xlink:href="#DejaVuSans-33" x="127.099609"/>
      <use xlink:href="#DejaVuSans-20" x="190.722656"/>
      <use xlink:href="#DejaVuSans-6c" x="222.509766"/>
      <use xlink:href="#DejaVuSans-65" x="250.292969"/>
      <use xlink:href="#DejaVuSans-76" x="311.816406"/>
      <use xlink:href="#DejaVuSans-65" x="370.996094"/>
      <use xlink:href="#DejaVuSans-6c" x="432.519531"/>
      <use xlink:href="#DejaVuSans-20" x="460.302734"/>
      <use xlink:href="#DejaVuSans-28" x="492.089844"/>
      <use xlink:href="#DejaVuSans-46" x="531.103516"/>
      <use xlink:href="#DejaVuSans-2e" x="572.498047"/>
      <use xlink:href="#DejaVuSans-43" x="604.285156"/>
      <use xlink:href="#DejaVuSans-2e" x="674.109375"/>
      <use xlink:href="#DejaVuSans-29" x="705.896484"/>
     </g>
    </g>
   </g>
   <g id="line2d_10">
    <path d="M 31.34 108.219251 
L 31.96 109.748061 
L 32.58 106.444457 
L 33.82 92.725451 
L 34.44 88.686001 
L 35.06 82.464642 
L 35.68 74.0867 
L 36.92 62.484143 
L 37.54 62.755529 
L 38.16 58.015782 
L 38.78 62.090254 
L 39.4 65.384763 
L 40.02 71.804758 
L 40.64 74.998259 
L 41.26 86.569777 
L 42.5 102.219675 
L 43.12 107.28507 
L 43.74 110.994211 
L 44.36 116.05427 
L 44.98 119.42138 
L 45.6 120.545103 
L 46.22 123.12 
L 46.84 122.716641 
L 47.46 121.563157 
L 48.08 122.001914 
L 48.7 121.782385 
L 49.32 119.956035 
L 49.94 119.290009 
L 50.56 119.031174 
L 51.18 118.556417 
L 51.8 110.543655 
L 52.42 118.828855 
L 53.04 121.945172 
L 53.66 122.720174 
L 54.28 121.454933 
L 54.9 121.708658 
L 56.76 116.576224 
L 57.38 116.248021 
L 58 112.817029 
L 58.62 110.525242 
L 59.24 108.787726 
L 59.86 106.410637 
L 61.1 103.22856 
L 62.34 96.233627 
L 62.96 93.964988 
L 63.58 90.853782 
L 64.2 90.066755 
L 64.82 90.7415 
L 65.44 91.632992 
L 66.06 97.701937 
L 66.68 102.23448 
L 67.3 109.041375 
L 67.92 112.525276 
L 68.54 115.134519 
L 69.16 115.008484 
L 69.78 116.531958 
L 70.4 115.178786 
L 71.02 115.208773 
L 71.64 114.683287 
L 72.26 104.365585 
L 72.88 113.030545 
L 73.5 106.054476 
L 74.74 95.313575 
L 75.36 87.573852 
L 76.6 79.191627 
L 77.84 63.16986 
L 78.46 57.5529 
L 79.08 53.589809 
L 79.7 51.381669 
L 80.94 46.560529 
L 81.56 42.326277 
L 82.18 48.318563 
L 82.8 44.909216 
L 83.42 49.519095 
L 84.04 55.296511 
L 85.28 74.526734 
L 85.9 83.379433 
L 86.52 94.55631 
L 87.14 96.827805 
L 87.76 104.253303 
L 89 107.130024 
L 89.62 107.970712 
L 90.24 108.417135 
L 90.86 109.804427 
L 91.48 112.629742 
L 92.1 110.240028 
L 92.72 102.339848 
L 93.34 111.145274 
L 94.58 118.578663 
L 95.2 116.502873 
L 96.44 115.329021 
L 97.06 113.954355 
L 97.68 113.349354 
L 98.3 111.140464 
L 98.92 107.507003 
L 99.54 108.023321 
L 100.16 104.694615 
L 100.78 108.32041 
L 101.4 103.892257 
L 102.02 104.86131 
L 102.64 102.739449 
L 103.26 99.750221 
L 103.88 97.845108 
L 104.5 93.959351 
L 105.74 89.372996 
L 106.36 90.058714 
L 106.98 92.705685 
L 107.6 94.140701 
L 108.84 103.871664 
L 109.46 106.790022 
L 110.08 106.493534 
L 110.7 107.921335 
L 111.32 107.912241 
L 111.94 107.49062 
L 112.56 108.63734 
L 113.18 91.161618 
L 113.8 101.25235 
L 114.42 97.337659 
L 115.04 94.144308 
L 115.66 87.940084 
L 116.28 84.020207 
L 116.9 79.165322 
L 117.52 76.345343 
L 118.14 68.776825 
L 118.76 64.836204 
L 119.38 60.005219 
L 120 52.852009 
L 120.62 49.860375 
L 121.24 50.600505 
L 123.1 45.297318 
L 123.72 47.614132 
L 124.96 59.731052 
L 126.2 76.790864 
L 128.68 95.270436 
L 130.54 101.812859 
L 131.16 100.823664 
L 131.78 100.774964 
L 132.4 100.536796 
L 133.02 98.817768 
L 133.64 84.294599 
L 134.26 100.492004 
L 134.88 102.581172 
L 135.5 101.713954 
L 136.12 104.867097 
L 136.74 103.510844 
L 137.36 103.840475 
L 137.98 101.350052 
L 138.6 100.696276 
L 139.22 97.828574 
L 139.84 96.232725 
L 140.46 94.279738 
L 141.08 91.579256 
L 141.7 89.823928 
L 142.94 82.484934 
L 143.56 81.938855 
L 144.18 76.936966 
L 144.8 74.072571 
L 145.42 73.234889 
L 146.04 75.691567 
L 146.66 72.892557 
L 147.28 71.197202 
L 147.9 73.139442 
L 148.52 77.204519 
L 149.14 79.816618 
L 149.76 83.825855 
L 150.38 86.326725 
L 151 90.360462 
L 151.62 91.125318 
L 152.24 93.45085 
L 152.86 96.71402 
L 153.48 96.215665 
L 154.1 85.913671 
L 154.72 100.622774 
L 155.96 86.558654 
L 156.58 81.516783 
L 157.2 73.768793 
L 157.82 71.89765 
L 158.44 60.159513 
L 159.06 52.650141 
L 159.68 48.62407 
L 160.3 43.409566 
L 160.92 40.698563 
L 161.54 33.381363 
L 162.16 32.374432 
L 163.4 34.392353 
L 164.02 32.154077 
L 164.64 38.16688 
L 165.88 61.111656 
L 167.12 81.913377 
L 167.74 87.044608 
L 168.36 95.076836 
L 168.98 97.120385 
L 169.6 101.520655 
L 170.22 102.583953 
L 170.84 102.61394 
L 171.46 102.522851 
L 172.08 105.206498 
L 173.32 104.569031 
L 173.94 103.023461 
L 174.56 91.437288 
L 175.18 100.658999 
L 175.8 106.715167 
L 176.42 106.178182 
L 177.04 106.243041 
L 177.66 104.940148 
L 178.28 104.49613 
L 178.9 103.343548 
L 179.52 102.913058 
L 180.14 101.790538 
L 180.76 100.375889 
L 181.38 101.580328 
L 182 99.397291 
L 182.62 97.684125 
L 183.24 96.713869 
L 183.86 94.104025 
L 184.48 93.74606 
L 185.1 91.430449 
L 185.72 86.677475 
L 186.34 84.30963 
L 188.2 71.40869 
L 188.82 72.663483 
L 189.44 70.390485 
L 190.06 74.042208 
L 190.68 80.670533 
L 191.3 90.235704 
L 191.92 94.558189 
L 192.54 100.818178 
L 193.78 104.344467 
L 194.4 103.715041 
L 195.02 104.758948 
L 195.64 101.827063 
L 196.26 101.950844 
L 197.5 95.840113 
L 198.12 94.863996 
L 198.74 93.176683 
L 199.36 92.252498 
L 199.98 87.395058 
L 200.6 88.595364 
L 201.84 84.310457 
L 202.46 84.024867 
L 203.08 81.893085 
L 203.7 79.324276 
L 204.94 75.947997 
L 206.18 73.324023 
L 206.8 72.525047 
L 207.42 73.872658 
L 208.04 78.319223 
L 208.66 78.281796 
L 209.9 87.296755 
L 211.76 96.808114 
L 212.38 97.318494 
L 213 98.660844 
L 213.62 99.685286 
L 214.24 99.774796 
L 214.86 99.304098 
L 215.48 99.359713 
L 216.1 98.355037 
L 217 101.318771 
L 217 101.318771 
" clip-path="url(#p633786c014)" style="fill: none; stroke: #008000; stroke-width: 1.5; stroke-linecap: square"/>
   </g>
   <g id="LineCollection_1">
    <path d="M 30.72 123.12 
L 30.72 22.32 
" clip-path="url(#p633786c014)" style="fill: none; stroke-dasharray: 5.55,2.4; stroke-dashoffset: 0; stroke: #7f7f7f; stroke-width: 1.5"/>
    <path d="M 71.64 123.12 
L 71.64 22.32 
" clip-path="url(#p633786c014)" style="fill: none; stroke-dasharray: 5.55,2.4; stroke-dashoffset: 0; stroke: #7f7f7f; stroke-width: 1.5"/>
    <path d="M 112.56 123.12 
L 112.56 22.32 
" clip-path="url(#p633786c014)" style="fill: none; stroke-dasharray: 5.55,2.4; stroke-dashoffset: 0; stroke: #7f7f7f; stroke-width: 1.5"/>
    <path d="M 153.48 123.12 
L 153.48 22.32 
" clip-path="url(#p633786c014)" style="fill: none; stroke-dasharray: 5.55,2.4; stroke-dashoffset: 0; stroke: #7f7f7f; stroke-width: 1.5"/>
    <path d="M 194.4 123.12 
L 194.4 22.32 
" clip-path="url(#p633786c014)" style="fill: none; stroke-dasharray: 5.55,2.4; stroke-dashoffset: 0; stroke: #7f7f7f; stroke-width: 1.5"/>
    <path clip-path="url(#p633786c014)" style="fill: none; stroke-dasharray: 5.55,2.4; stroke-dashoffset: 0; stroke: #7f7f7f; stroke-width: 1.5"/>
    <path clip-path="url(#p633786c014)" style="fill: none; stroke-dasharray: 5.55,2.4; stroke-dashoffset: 0; stroke: #7f7f7f; stroke-width: 1.5"/>
   </g>
   <g id="patch_3">
    <path d="M 27 128.16 
L 27 17.28 
" style="fill: none; stroke: #000000; stroke-width: 0.8; stroke-linejoin: miter; stroke-linecap: square"/>
   </g>
   <g id="patch_4">
    <path d="M 194.4 128.16 
L 194.4 17.28 
" style="fill: none; stroke: #000000; stroke-width: 0.8; stroke-linejoin: miter; stroke-linecap: square"/>
   </g>
   <g id="patch_5">
    <path d="M 27 128.16 
L 194.4 128.16 
" style="fill: none; stroke: #000000; stroke-width: 0.8; stroke-linejoin: miter; stroke-linecap: square"/>
   </g>
   <g id="patch_6">
    <path d="M 27 17.28 
L 194.4 17.28 
" style="fill: none; stroke: #000000; stroke-width: 0.8; stroke-linejoin: miter; stroke-linecap: square"/>
   </g>
  </g>
 </g>
 <defs>
  <clipPath id="p633786c014">
   <rect x="27" y="17.28" width="167.4" height="110.88"/>
  </clipPath>
 </defs>
</svg>
