<?xml version="1.0" encoding="utf-8" standalone="no"?>
<!DOCTYPE svg PUBLIC "-//W3C//DTD SVG 1.1//EN"
  "http://www.w3.org/Graphics/SVG/1.1/DTD/svg11.dtd">
<svg xmlns:xlink="http://www.w3.org/1999/xlink" width="252pt" height="72pt" viewBox="0 0 252 72" xmlns="http://www.w3.org/2000/svg" version="1.1">
 <metadata>
  <rdf:RDF xmlns:dc="http://purl.org/dc/elements/1.1/" xmlns:cc="http://creativecommons.org/ns#" xmlns:rdf="http://www.w3.org/1999/02/22-rdf-syntax-ns#">
   <cc:Work>
    <dc:type rdf:resource="http://purl.org/dc/dcmitype/StillImage"/>
    <dc:date>2024-07-10T09:40:42.797091</dc:date>
    <dc:format>image/svg+xml</dc:format>
    <dc:creator>
     <cc:Agent>
      <dc:title>Matplotlib v3.8.3, https://matplotlib.org/</dc:title>
     </cc:Agent>
    </dc:creator>
   </cc:Work>
  </rdf:RDF>
 </metadata>
 <defs>
  <style type="text/css">*{stroke-linejoin: round; stroke-linecap: butt}</style>
 </defs>
 <g id="figure_1">
  <g id="patch_1">
   <path d="M 0 72 
L 252 72 
L 252 0 
L 0 0 
z
" style="fill: #ffffff"/>
  </g>
  <g id="axes_1">
   <g id="patch_2">
    <path d="M 31.5 64.08 
L 226.8 64.08 
L 226.8 8.64 
L 31.5 8.64 
z
" style="fill: #fffdee"/>
   </g>
   <g id="PathCollection_1">
    <defs>
     <path id="C0_0_bf96633603" d="M 0 2.236068 
C 0.593012 2.236068 1.161816 2.000462 1.581139 1.581139 
C 2.000462 1.161816 2.236068 0.593012 2.236068 -0 
C 2.236068 -0.593012 2.000462 -1.161816 1.581139 -1.581139 
C 1.161816 -2.000462 0.593012 -2.236068 0 -2.236068 
C -0.593012 -2.236068 -1.161816 -2.000462 -1.581139 -1.581139 
C -2.000462 -1.161816 -2.236068 -0.593012 -2.236068 0 
C -2.236068 0.593012 -2.000462 1.161816 -1.581139 1.581139 
C -1.161816 2.000462 -0.593012 2.236068 0 2.236068 
z
"/>
    </defs>
    <g clip-path="url(#pfc8f829553)">
     <use xlink:href="#C0_0_bf96633603" x="72.046828" y="11.304215" style="fill: #5baa46; stroke: #5baa46"/>
    </g>
    <g clip-path="url(#pfc8f829553)">
     <use xlink:href="#C0_0_bf96633603" x="80.343118" y="31.11972" style="fill: #1f77b4; stroke: #1f77b4"/>
    </g>
    <g clip-path="url(#pfc8f829553)">
     <use xlink:href="#C0_0_bf96633603" x="89.323771" y="13.674263" style="fill: #5baa46; stroke: #5baa46"/>
    </g>
    <g clip-path="url(#pfc8f829553)">
     <use xlink:href="#C0_0_bf96633603" x="97.193949" y="23.533173" style="fill: #1f77b4; stroke: #1f77b4"/>
    </g>
    <g clip-path="url(#pfc8f829553)">
     <use xlink:href="#C0_0_bf96633603" x="107.346413" y="11.16" style="fill: #5baa46; stroke: #5baa46"/>
    </g>
    <g clip-path="url(#pfc8f829553)">
     <use xlink:href="#C0_0_bf96633603" x="115.541017" y="28.494851" style="fill: #1f77b4; stroke: #1f77b4"/>
    </g>
    <g clip-path="url(#pfc8f829553)">
     <use xlink:href="#C0_0_bf96633603" x="124.923573" y="12.714361" style="fill: #5baa46; stroke: #5baa46"/>
    </g>
    <g clip-path="url(#pfc8f829553)">
     <use xlink:href="#C0_0_bf96633603" x="132.903506" y="25.238022" style="fill: #1f77b4; stroke: #1f77b4"/>
    </g>
    <g clip-path="url(#pfc8f829553)">
     <use xlink:href="#C0_0_bf96633603" x="142.792878" y="11.668566" style="fill: #5baa46; stroke: #5baa46"/>
    </g>
    <g clip-path="url(#pfc8f829553)">
     <use xlink:href="#C0_0_bf96633603" x="150.910007" y="27.358953" style="fill: #1f77b4; stroke: #1f77b4"/>
    </g>
    <g clip-path="url(#pfc8f829553)">
     <use xlink:href="#C0_0_bf96633603" x="160.471724" y="12.341541" style="fill: #5baa46; stroke: #5baa46"/>
    </g>
    <g clip-path="url(#pfc8f829553)">
     <use xlink:href="#C0_0_bf96633603" x="168.496852" y="25.952946" style="fill: #1f77b4; stroke: #1f77b4"/>
    </g>
    <g clip-path="url(#pfc8f829553)">
     <use xlink:href="#C0_0_bf96633603" x="178.276467" y="11.890899" style="fill: #5baa46; stroke: #5baa46"/>
    </g>
    <g clip-path="url(#pfc8f829553)">
     <use xlink:href="#C0_0_bf96633603" x="186.361315" y="26.880692" style="fill: #1f77b4; stroke: #1f77b4"/>
    </g>
   </g>
   <g id="matplotlib.axis_1">
    <g id="xtick_1">
     <g id="line2d_1">
      <defs>
       <path id="mbb0a39b820" d="M 0 0 
L 0 3.5 
" style="stroke: #000000; stroke-width: 0.5"/>
      </defs>
      <g>
       <use xlink:href="#mbb0a39b820" x="40.377273" y="64.08" style="stroke: #000000; stroke-width: 0.5"/>
      </g>
     </g>
     <g id="text_1">
      <!-- 0 -->
      <g transform="translate(38.786648 74.879219) scale(0.05 -0.05)">
       <defs>
        <path id="DejaVuSans-30" d="M 2034 4250 
Q 1547 4250 1301 3770 
Q 1056 3291 1056 2328 
Q 1056 1369 1301 889 
Q 1547 409 2034 409 
Q 2525 409 2770 889 
Q 3016 1369 3016 2328 
Q 3016 3291 2770 3770 
Q 2525 4250 2034 4250 
z
M 2034 4750 
Q 2819 4750 3233 4129 
Q 3647 3509 3647 2328 
Q 3647 1150 3233 529 
Q 2819 -91 2034 -91 
Q 1250 -91 836 529 
Q 422 1150 422 2328 
Q 422 3509 836 4129 
Q 1250 4750 2034 4750 
z
" transform="scale(0.015625)"/>
       </defs>
       <use xlink:href="#DejaVuSans-30"/>
      </g>
     </g>
    </g>
    <g id="xtick_2">
     <g id="line2d_2">
      <g>
       <use xlink:href="#mbb0a39b820" x="72.658558" y="64.08" style="stroke: #000000; stroke-width: 0.5"/>
      </g>
     </g>
     <g id="text_2">
      <!-- 20 -->
      <g transform="translate(69.477308 74.879219) scale(0.05 -0.05)">
       <defs>
        <path id="DejaVuSans-32" d="M 1228 531 
L 3431 531 
L 3431 0 
L 469 0 
L 469 531 
Q 828 903 1448 1529 
Q 2069 2156 2228 2338 
Q 2531 2678 2651 2914 
Q 2772 3150 2772 3378 
Q 2772 3750 2511 3984 
Q 2250 4219 1831 4219 
Q 1534 4219 1204 4116 
Q 875 4013 500 3803 
L 500 4441 
Q 881 4594 1212 4672 
Q 1544 4750 1819 4750 
Q 2544 4750 2975 4387 
Q 3406 4025 3406 3419 
Q 3406 3131 3298 2873 
Q 3191 2616 2906 2266 
Q 2828 2175 2409 1742 
Q 1991 1309 1228 531 
z
" transform="scale(0.015625)"/>
       </defs>
       <use xlink:href="#DejaVuSans-32"/>
       <use xlink:href="#DejaVuSans-30" x="63.623047"/>
      </g>
     </g>
    </g>
    <g id="xtick_3">
     <g id="line2d_3">
      <g>
       <use xlink:href="#mbb0a39b820" x="104.939843" y="64.08" style="stroke: #000000; stroke-width: 0.5"/>
      </g>
     </g>
     <g id="text_3">
      <!-- 40 -->
      <g transform="translate(101.758593 74.879219) scale(0.05 -0.05)">
       <defs>
        <path id="DejaVuSans-34" d="M 2419 4116 
L 825 1625 
L 2419 1625 
L 2419 4116 
z
M 2253 4666 
L 3047 4666 
L 3047 1625 
L 3713 1625 
L 3713 1100 
L 3047 1100 
L 3047 0 
L 2419 0 
L 2419 1100 
L 313 1100 
L 313 1709 
L 2253 4666 
z
" transform="scale(0.015625)"/>
       </defs>
       <use xlink:href="#DejaVuSans-34"/>
       <use xlink:href="#DejaVuSans-30" x="63.623047"/>
      </g>
     </g>
    </g>
    <g id="xtick_4">
     <g id="line2d_4">
      <g>
       <use xlink:href="#mbb0a39b820" x="137.221128" y="64.08" style="stroke: #000000; stroke-width: 0.5"/>
      </g>
     </g>
     <g id="text_4">
      <!-- 60 -->
      <g transform="translate(134.039878 74.879219) scale(0.05 -0.05)">
       <defs>
        <path id="DejaVuSans-36" d="M 2113 2584 
Q 1688 2584 1439 2293 
Q 1191 2003 1191 1497 
Q 1191 994 1439 701 
Q 1688 409 2113 409 
Q 2538 409 2786 701 
Q 3034 994 3034 1497 
Q 3034 2003 2786 2293 
Q 2538 2584 2113 2584 
z
M 3366 4563 
L 3366 3988 
Q 3128 4100 2886 4159 
Q 2644 4219 2406 4219 
Q 1781 4219 1451 3797 
Q 1122 3375 1075 2522 
Q 1259 2794 1537 2939 
Q 1816 3084 2150 3084 
Q 2853 3084 3261 2657 
Q 3669 2231 3669 1497 
Q 3669 778 3244 343 
Q 2819 -91 2113 -91 
Q 1303 -91 875 529 
Q 447 1150 447 2328 
Q 447 3434 972 4092 
Q 1497 4750 2381 4750 
Q 2619 4750 2861 4703 
Q 3103 4656 3366 4563 
z
" transform="scale(0.015625)"/>
       </defs>
       <use xlink:href="#DejaVuSans-36"/>
       <use xlink:href="#DejaVuSans-30" x="63.623047"/>
      </g>
     </g>
    </g>
    <g id="xtick_5">
     <g id="line2d_5">
      <g>
       <use xlink:href="#mbb0a39b820" x="169.502414" y="64.08" style="stroke: #000000; stroke-width: 0.5"/>
      </g>
     </g>
     <g id="text_5">
      <!-- 80 -->
      <g transform="translate(166.321164 74.879219) scale(0.05 -0.05)">
       <defs>
        <path id="DejaVuSans-38" d="M 2034 2216 
Q 1584 2216 1326 1975 
Q 1069 1734 1069 1313 
Q 1069 891 1326 650 
Q 1584 409 2034 409 
Q 2484 409 2743 651 
Q 3003 894 3003 1313 
Q 3003 1734 2745 1975 
Q 2488 2216 2034 2216 
z
M 1403 2484 
Q 997 2584 770 2862 
Q 544 3141 544 3541 
Q 544 4100 942 4425 
Q 1341 4750 2034 4750 
Q 2731 4750 3128 4425 
Q 3525 4100 3525 3541 
Q 3525 3141 3298 2862 
Q 3072 2584 2669 2484 
Q 3125 2378 3379 2068 
Q 3634 1759 3634 1313 
Q 3634 634 3220 271 
Q 2806 -91 2034 -91 
Q 1263 -91 848 271 
Q 434 634 434 1313 
Q 434 1759 690 2068 
Q 947 2378 1403 2484 
z
M 1172 3481 
Q 1172 3119 1398 2916 
Q 1625 2713 2034 2713 
Q 2441 2713 2670 2916 
Q 2900 3119 2900 3481 
Q 2900 3844 2670 4047 
Q 2441 4250 2034 4250 
Q 1625 4250 1398 4047 
Q 1172 3844 1172 3481 
z
" transform="scale(0.015625)"/>
       </defs>
       <use xlink:href="#DejaVuSans-38"/>
       <use xlink:href="#DejaVuSans-30" x="63.623047"/>
      </g>
     </g>
    </g>
    <g id="xtick_6">
     <g id="line2d_6">
      <g>
       <use xlink:href="#mbb0a39b820" x="201.783699" y="64.08" style="stroke: #000000; stroke-width: 0.5"/>
      </g>
     </g>
     <g id="text_6">
      <!-- 100 -->
      <g transform="translate(197.011824 74.879219) scale(0.05 -0.05)">
       <defs>
        <path id="DejaVuSans-31" d="M 794 531 
L 1825 531 
L 1825 4091 
L 703 3866 
L 703 4441 
L 1819 4666 
L 2450 4666 
L 2450 531 
L 3481 531 
L 3481 0 
L 794 0 
L 794 531 
z
" transform="scale(0.015625)"/>
       </defs>
       <use xlink:href="#DejaVuSans-31"/>
       <use xlink:href="#DejaVuSans-30" x="63.623047"/>
       <use xlink:href="#DejaVuSans-30" x="127.246094"/>
      </g>
     </g>
    </g>
    <g id="text_7">
     <!-- Time (h) -->
     <g transform="translate(113.480273 85.617891) scale(0.075 -0.075)">
      <defs>
       <path id="DejaVuSans-54" d="M -19 4666 
L 3928 4666 
L 3928 4134 
L 2272 4134 
L 2272 0 
L 1638 0 
L 1638 4134 
L -19 4134 
L -19 4666 
z
" transform="scale(0.015625)"/>
       <path id="DejaVuSans-69" d="M 603 3500 
L 1178 3500 
L 1178 0 
L 603 0 
L 603 3500 
z
M 603 4863 
L 1178 4863 
L 1178 4134 
L 603 4134 
L 603 4863 
z
" transform="scale(0.015625)"/>
       <path id="DejaVuSans-6d" d="M 3328 2828 
Q 3544 3216 3844 3400 
Q 4144 3584 4550 3584 
Q 5097 3584 5394 3201 
Q 5691 2819 5691 2113 
L 5691 0 
L 5113 0 
L 5113 2094 
Q 5113 2597 4934 2840 
Q 4756 3084 4391 3084 
Q 3944 3084 3684 2787 
Q 3425 2491 3425 1978 
L 3425 0 
L 2847 0 
L 2847 2094 
Q 2847 2600 2669 2842 
Q 2491 3084 2119 3084 
Q 1678 3084 1418 2786 
Q 1159 2488 1159 1978 
L 1159 0 
L 581 0 
L 581 3500 
L 1159 3500 
L 1159 2956 
Q 1356 3278 1631 3431 
Q 1906 3584 2284 3584 
Q 2666 3584 2933 3390 
Q 3200 3197 3328 2828 
z
" transform="scale(0.015625)"/>
       <path id="DejaVuSans-65" d="M 3597 1894 
L 3597 1613 
L 953 1613 
Q 991 1019 1311 708 
Q 1631 397 2203 397 
Q 2534 397 2845 478 
Q 3156 559 3463 722 
L 3463 178 
Q 3153 47 2828 -22 
Q 2503 -91 2169 -91 
Q 1331 -91 842 396 
Q 353 884 353 1716 
Q 353 2575 817 3079 
Q 1281 3584 2069 3584 
Q 2775 3584 3186 3129 
Q 3597 2675 3597 1894 
z
M 3022 2063 
Q 3016 2534 2758 2815 
Q 2500 3097 2075 3097 
Q 1594 3097 1305 2825 
Q 1016 2553 972 2059 
L 3022 2063 
z
" transform="scale(0.015625)"/>
       <path id="DejaVuSans-20" transform="scale(0.015625)"/>
       <path id="DejaVuSans-28" d="M 1984 4856 
Q 1566 4138 1362 3434 
Q 1159 2731 1159 2009 
Q 1159 1288 1364 580 
Q 1569 -128 1984 -844 
L 1484 -844 
Q 1016 -109 783 600 
Q 550 1309 550 2009 
Q 550 2706 781 3412 
Q 1013 4119 1484 4856 
L 1984 4856 
z
" transform="scale(0.015625)"/>
       <path id="DejaVuSans-68" d="M 3513 2113 
L 3513 0 
L 2938 0 
L 2938 2094 
Q 2938 2591 2744 2837 
Q 2550 3084 2163 3084 
Q 1697 3084 1428 2787 
Q 1159 2491 1159 1978 
L 1159 0 
L 581 0 
L 581 4863 
L 1159 4863 
L 1159 2956 
Q 1366 3272 1645 3428 
Q 1925 3584 2291 3584 
Q 2894 3584 3203 3211 
Q 3513 2838 3513 2113 
z
" transform="scale(0.015625)"/>
       <path id="DejaVuSans-29" d="M 513 4856 
L 1013 4856 
Q 1481 4119 1714 3412 
Q 1947 2706 1947 2009 
Q 1947 1309 1714 600 
Q 1481 -109 1013 -844 
L 513 -844 
Q 928 -128 1133 580 
Q 1338 1288 1338 2009 
Q 1338 2731 1133 3434 
Q 928 4138 513 4856 
z
" transform="scale(0.015625)"/>
      </defs>
      <use xlink:href="#DejaVuSans-54"/>
      <use xlink:href="#DejaVuSans-69" x="57.958984"/>
      <use xlink:href="#DejaVuSans-6d" x="85.742188"/>
      <use xlink:href="#DejaVuSans-65" x="183.154297"/>
      <use xlink:href="#DejaVuSans-20" x="244.677734"/>
      <use xlink:href="#DejaVuSans-28" x="276.464844"/>
      <use xlink:href="#DejaVuSans-68" x="315.478516"/>
      <use xlink:href="#DejaVuSans-29" x="378.857422"/>
     </g>
    </g>
   </g>
   <g id="matplotlib.axis_2">
    <g id="ytick_1">
     <g id="line2d_7">
      <defs>
       <path id="m271570e570" d="M 0 0 
L -3.5 0 
" style="stroke: #000000; stroke-width: 0.5"/>
      </defs>
      <g>
       <use xlink:href="#m271570e570" x="31.5" y="51.361741" style="stroke: #000000; stroke-width: 0.5"/>
      </g>
     </g>
     <g id="text_8">
      <!-- 1 -->
      <g transform="translate(21.31875 53.26135) scale(0.05 -0.05)">
       <use xlink:href="#DejaVuSans-31"/>
      </g>
     </g>
    </g>
    <g id="ytick_2">
     <g id="line2d_8">
      <g>
       <use xlink:href="#m271570e570" x="31.5" y="38.3311" style="stroke: #000000; stroke-width: 0.5"/>
      </g>
     </g>
     <g id="text_9">
      <!-- 2 -->
      <g transform="translate(21.31875 40.230709) scale(0.05 -0.05)">
       <use xlink:href="#DejaVuSans-32"/>
      </g>
     </g>
    </g>
    <g id="ytick_3">
     <g id="line2d_9">
      <g>
       <use xlink:href="#m271570e570" x="31.5" y="25.300459" style="stroke: #000000; stroke-width: 0.5"/>
      </g>
     </g>
     <g id="text_10">
      <!-- 3 -->
      <g transform="translate(21.31875 27.200068) scale(0.05 -0.05)">
       <defs>
        <path id="DejaVuSans-33" d="M 2597 2516 
Q 3050 2419 3304 2112 
Q 3559 1806 3559 1356 
Q 3559 666 3084 287 
Q 2609 -91 1734 -91 
Q 1441 -91 1130 -33 
Q 819 25 488 141 
L 488 750 
Q 750 597 1062 519 
Q 1375 441 1716 441 
Q 2309 441 2620 675 
Q 2931 909 2931 1356 
Q 2931 1769 2642 2001 
Q 2353 2234 1838 2234 
L 1294 2234 
L 1294 2753 
L 1863 2753 
Q 2328 2753 2575 2939 
Q 2822 3125 2822 3475 
Q 2822 3834 2567 4026 
Q 2313 4219 1838 4219 
Q 1578 4219 1281 4162 
Q 984 4106 628 3988 
L 628 4550 
Q 988 4650 1302 4700 
Q 1616 4750 1894 4750 
Q 2613 4750 3031 4423 
Q 3450 4097 3450 3541 
Q 3450 3153 3228 2886 
Q 3006 2619 2597 2516 
z
" transform="scale(0.015625)"/>
       </defs>
       <use xlink:href="#DejaVuSans-33"/>
      </g>
     </g>
    </g>
    <g id="ytick_4">
     <g id="line2d_10">
      <g>
       <use xlink:href="#m271570e570" x="31.5" y="12.269818" style="stroke: #000000; stroke-width: 0.5"/>
      </g>
     </g>
     <g id="text_11">
      <!-- 4 -->
      <g transform="translate(21.31875 14.169428) scale(0.05 -0.05)">
       <use xlink:href="#DejaVuSans-34"/>
      </g>
     </g>
    </g>
    <g id="text_12">
     <!-- p53 (a.u.) -->
     <g transform="translate(15.758984 54.688711) rotate(-90) scale(0.075 -0.075)">
      <defs>
       <path id="DejaVuSans-70" d="M 1159 525 
L 1159 -1331 
L 581 -1331 
L 581 3500 
L 1159 3500 
L 1159 2969 
Q 1341 3281 1617 3432 
Q 1894 3584 2278 3584 
Q 2916 3584 3314 3078 
Q 3713 2572 3713 1747 
Q 3713 922 3314 415 
Q 2916 -91 2278 -91 
Q 1894 -91 1617 61 
Q 1341 213 1159 525 
z
M 3116 1747 
Q 3116 2381 2855 2742 
Q 2594 3103 2138 3103 
Q 1681 3103 1420 2742 
Q 1159 2381 1159 1747 
Q 1159 1113 1420 752 
Q 1681 391 2138 391 
Q 2594 391 2855 752 
Q 3116 1113 3116 1747 
z
" transform="scale(0.015625)"/>
       <path id="DejaVuSans-35" d="M 691 4666 
L 3169 4666 
L 3169 4134 
L 1269 4134 
L 1269 2991 
Q 1406 3038 1543 3061 
Q 1681 3084 1819 3084 
Q 2600 3084 3056 2656 
Q 3513 2228 3513 1497 
Q 3513 744 3044 326 
Q 2575 -91 1722 -91 
Q 1428 -91 1123 -41 
Q 819 9 494 109 
L 494 744 
Q 775 591 1075 516 
Q 1375 441 1709 441 
Q 2250 441 2565 725 
Q 2881 1009 2881 1497 
Q 2881 1984 2565 2268 
Q 2250 2553 1709 2553 
Q 1456 2553 1204 2497 
Q 953 2441 691 2322 
L 691 4666 
z
" transform="scale(0.015625)"/>
       <path id="DejaVuSans-61" d="M 2194 1759 
Q 1497 1759 1228 1600 
Q 959 1441 959 1056 
Q 959 750 1161 570 
Q 1363 391 1709 391 
Q 2188 391 2477 730 
Q 2766 1069 2766 1631 
L 2766 1759 
L 2194 1759 
z
M 3341 1997 
L 3341 0 
L 2766 0 
L 2766 531 
Q 2569 213 2275 61 
Q 1981 -91 1556 -91 
Q 1019 -91 701 211 
Q 384 513 384 1019 
Q 384 1609 779 1909 
Q 1175 2209 1959 2209 
L 2766 2209 
L 2766 2266 
Q 2766 2663 2505 2880 
Q 2244 3097 1772 3097 
Q 1472 3097 1187 3025 
Q 903 2953 641 2809 
L 641 3341 
Q 956 3463 1253 3523 
Q 1550 3584 1831 3584 
Q 2591 3584 2966 3190 
Q 3341 2797 3341 1997 
z
" transform="scale(0.015625)"/>
       <path id="DejaVuSans-2e" d="M 684 794 
L 1344 794 
L 1344 0 
L 684 0 
L 684 794 
z
" transform="scale(0.015625)"/>
       <path id="DejaVuSans-75" d="M 544 1381 
L 544 3500 
L 1119 3500 
L 1119 1403 
Q 1119 906 1312 657 
Q 1506 409 1894 409 
Q 2359 409 2629 706 
Q 2900 1003 2900 1516 
L 2900 3500 
L 3475 3500 
L 3475 0 
L 2900 0 
L 2900 538 
Q 2691 219 2414 64 
Q 2138 -91 1772 -91 
Q 1169 -91 856 284 
Q 544 659 544 1381 
z
M 1991 3584 
L 1991 3584 
z
" transform="scale(0.015625)"/>
      </defs>
      <use xlink:href="#DejaVuSans-70"/>
      <use xlink:href="#DejaVuSans-35" x="63.476562"/>
      <use xlink:href="#DejaVuSans-33" x="127.099609"/>
      <use xlink:href="#DejaVuSans-20" x="190.722656"/>
      <use xlink:href="#DejaVuSans-28" x="222.509766"/>
      <use xlink:href="#DejaVuSans-61" x="261.523438"/>
      <use xlink:href="#DejaVuSans-2e" x="322.802734"/>
      <use xlink:href="#DejaVuSans-75" x="354.589844"/>
      <use xlink:href="#DejaVuSans-2e" x="417.96875"/>
      <use xlink:href="#DejaVuSans-29" x="449.755859"/>
     </g>
    </g>
   </g>
   <g id="line2d_11">
    <path d="M 40.377273 60.571813 
L 40.890545 59.400575 
L 41.390905 57.676937 
L 41.888037 55.108598 
L 42.40938 51.152465 
L 43.006583 44.757959 
L 43.945969 31.798578 
L 44.644859 23.546991 
L 44.983812 21.667197 
L 45.124236 21.51518 
L 45.154903 21.537501 
L 45.275958 21.831259 
L 45.468031 23.005641 
L 45.744036 26.29075 
L 46.124956 33.84191 
L 46.848056 53.851102 
L 47.207993 60.358751 
L 47.427505 61.236642 
L 47.647018 61.348881 
L 48.045692 61.248088 
L 48.599316 60.87881 
L 49.156168 60.232334 
L 49.688809 59.257387 
L 50.198854 57.833875 
L 50.704056 55.719054 
L 51.225399 52.503746 
L 51.798391 47.460278 
L 52.531177 38.803662 
L 53.683618 25.277337 
L 54.030642 23.469593 
L 54.183978 23.310511 
L 54.208189 23.326162 
L 54.329244 23.580862 
L 54.519704 24.606152 
L 54.794095 27.491752 
L 55.1734 34.157814 
L 55.82064 50.319778 
L 56.288718 59.514959 
L 56.530828 60.829653 
L 56.747112 61.023826 
L 57.052171 60.96117 
L 57.547688 60.619108 
L 58.08033 59.974105 
L 58.601672 58.976694 
L 59.108488 57.498882 
L 59.613691 55.294957 
L 60.139876 51.92884 
L 60.725781 46.615563 
L 61.51183 37.176875 
L 62.501252 25.778549 
L 62.862802 23.787722 
L 63.033893 23.581775 
L 63.051647 23.591482 
L 63.169474 23.812911 
L 63.355092 24.741845 
L 63.623026 27.398099 
L 63.992647 33.578544 
L 64.586623 47.94355 
L 65.13379 59.264818 
L 65.382356 60.741296 
L 65.598641 60.966395 
L 65.887558 60.916808 
L 66.36855 60.589585 
L 66.897963 59.953044 
L 67.417691 58.963618 
L 67.924507 57.491808 
L 68.400656 55.391692 
L 68.878419 52.197597 
L 69.393306 47.123035 
L 70.000194 38.720536 
L 71.798262 12.011274 
L 72.037143 11.3053 
L 72.133987 11.396352 
L 72.279253 11.969075 
L 72.505222 13.934735 
L 72.826421 18.962162 
L 73.291271 30.216495 
L 74.432415 59.161932 
L 74.669682 60.330856 
L 74.855299 60.431466 
L 75.086111 60.245922 
L 75.505767 59.584041 
L 76.020654 58.338533 
L 76.562979 56.406518 
L 77.147271 53.44102 
L 77.821949 48.765964 
L 78.858179 39.731906 
L 79.708791 33.113497 
L 80.118763 31.393795 
L 80.352802 31.12024 
L 80.491612 31.248033 
L 80.682071 31.808216 
L 80.950006 33.397048 
L 81.31317 37.071189 
L 81.832899 44.925001 
L 82.71902 58.225986 
L 83.014394 59.699773 
L 83.267802 60.034399 
L 83.535737 60.038134 
L 83.91827 59.795466 
L 84.383121 59.224126 
L 84.85927 58.266001 
L 85.33219 56.779918 
L 85.806725 54.500854 
L 86.300629 50.94845 
L 86.842955 45.292222 
L 87.517634 35.661986 
L 88.87829 15.719884 
L 89.207559 13.823511 
L 89.341526 13.677607 
L 89.373807 13.701884 
L 89.494862 14.006392 
L 89.690164 15.229297 
L 89.974239 18.638944 
L 90.377755 26.534976 
L 91.155734 47.319152 
L 91.659322 57.678636 
L 91.932099 59.637108 
L 92.135471 59.901893 
L 92.311404 59.791123 
L 92.618077 59.275934 
L 93.06033 58.068303 
L 93.549392 56.043885 
L 94.075577 52.842863 
L 94.67278 47.718987 
L 95.471742 38.696126 
L 96.625798 25.913535 
L 97.009945 23.808661 
L 97.214932 23.536877 
L 97.219774 23.538801 
L 97.3376 23.712748 
L 97.516762 24.470517 
L 97.775012 26.688539 
L 98.122036 31.852292 
L 98.606255 42.832646 
L 99.387462 60.349553 
L 99.615045 61.32199 
L 99.863611 61.513806 
L 100.34783 61.553972 
L 100.987 61.388482 
L 101.618099 60.994301 
L 102.189478 60.370496 
L 102.707592 59.462331 
L 103.190197 58.142901 
L 103.658276 56.171163 
L 104.131197 53.141186 
L 104.636399 48.336015 
L 105.22069 40.445794 
L 106.172988 23.888958 
L 106.857351 13.840275 
L 107.204375 11.401127 
L 107.357711 11.161765 
L 107.38515 11.179272 
L 107.496521 11.446364 
L 107.67891 12.584326 
L 107.948459 15.890249 
L 108.329378 23.675935 
L 108.962091 42.046655 
L 109.589962 58.106604 
L 109.851441 60.279365 
L 110.049971 60.552035 
L 110.242044 60.454338 
L 110.601981 59.968492 
L 111.089428 58.921712 
L 111.604314 57.256155 
L 112.14664 54.694148 
L 112.747072 50.697951 
L 113.494384 44.07145 
L 115.037429 30.00466 
L 115.394137 28.63442 
L 115.581369 28.505732 
L 115.586211 28.508518 
L 115.723406 28.723605 
L 115.925164 29.542545 
L 116.207626 31.757992 
L 116.588545 36.738373 
L 117.161538 47.63312 
L 117.808777 58.842253 
L 118.081554 60.378645 
L 118.325278 60.703134 
L 118.63195 60.734463 
L 119.103257 60.542537 
L 119.622986 60.085623 
L 120.128188 59.333003 
L 120.614021 58.186876 
L 121.086942 56.462335 
L 121.561477 53.829674 
L 122.061837 49.694681 
L 122.625145 43.01397 
L 123.386984 30.959391 
L 124.384475 15.763104 
L 124.752482 13.04691 
L 124.934871 12.71575 
L 124.951012 12.722914 
L 125.055926 12.920533 
L 125.228631 13.832904 
L 125.486881 16.591223 
L 125.85166 23.209197 
L 126.424652 38.333101 
L 127.194561 57.507535 
L 127.470566 59.847182 
L 127.677166 60.17818 
L 127.853099 60.093494 
L 128.163 59.636665 
L 128.616552 58.545267 
L 129.112069 56.734967 
L 129.638254 53.904174 
L 130.225774 49.421963 
L 130.968243 41.857825 
L 132.39669 27.022518 
L 132.755013 25.403986 
L 132.930946 25.244289 
L 132.945472 25.252462 
L 133.072983 25.473125 
L 133.266671 26.348519 
L 133.539448 28.764036 
L 133.907454 34.271198 
L 134.44171 46.118886 
L 135.100248 59.731537 
L 135.343972 61.027487 
L 135.582853 61.277482 
L 135.979913 61.321726 
L 136.564204 61.16391 
L 137.15818 60.770894 
L 137.71019 60.131804 
L 138.21862 59.187772 
L 138.699611 57.796233 
L 139.169304 55.70601 
L 139.647067 52.485385 
L 140.161953 47.368257 
L 140.770456 38.872286 
L 142.537856 12.42259 
L 142.779966 11.670563 
L 142.876809 11.755055 
L 143.018847 12.3055 
L 143.241588 14.225074 
L 143.559559 19.186926 
L 144.019567 30.341231 
L 145.154254 59.205355 
L 145.389908 60.342721 
L 145.572297 60.430468 
L 145.801494 60.230956 
L 146.211466 59.539759 
L 146.703756 58.25406 
L 147.220256 56.239726 
L 147.77388 53.113591 
L 148.406594 48.153773 
L 149.302399 39.108301 
L 150.291821 29.701207 
L 150.695337 27.671236 
L 150.92292 27.360087 
L 151.047203 27.495083 
L 151.226364 28.106599 
L 151.483 29.900745 
L 151.830024 34.1097 
L 152.314243 43.061139 
L 153.201979 59.622679 
L 153.453773 60.721878 
L 153.69911 60.948084 
L 154.065503 60.951733 
L 154.593302 60.730724 
L 155.135628 60.257733 
L 155.652128 59.499842 
L 156.14119 58.364986 
L 156.61411 56.668357 
L 157.087031 54.082819 
L 157.582549 50.038262 
L 158.137787 43.513351 
L 158.872186 31.915149 
L 159.947153 15.273451 
L 160.308704 12.645808 
L 160.483022 12.343149 
L 160.502391 12.352962 
L 160.608919 12.569106 
L 160.784852 13.544941 
L 161.046331 16.450874 
L 161.415952 23.385013 
L 162.005085 39.351205 
L 162.733028 57.632338 
L 163.005805 59.954793 
L 163.210791 60.275996 
L 163.389952 60.189285 
L 163.709537 59.728725 
L 164.171159 58.649725 
L 164.669905 56.882725 
L 165.199318 54.124409 
L 165.788452 49.773833 
L 166.529307 42.461942 
L 167.996492 27.642329 
L 168.351586 26.10761 
L 168.527519 25.960259 
L 168.540431 25.967673 
L 168.67117 26.192182 
L 168.868086 27.072283 
L 169.144091 29.477934 
L 169.515326 34.917152 
L 170.06088 46.687804 
L 170.706505 59.541466 
L 170.956685 60.90387 
L 171.195567 61.169457 
L 171.568416 61.210564 
L 172.13011 61.046573 
L 172.706331 60.644553 
L 173.247043 59.988834 
L 173.750631 59.011867 
L 174.228394 57.570338 
L 174.698086 55.395863 
L 175.179078 52.032822 
L 175.70042 46.683625 
L 176.326677 37.724971 
L 177.955268 13.060138 
L 178.229659 11.916721 
L 178.31359 11.907805 
L 178.347486 11.952607 
L 178.481453 12.41065 
L 178.692895 14.072192 
L 178.997954 18.497831 
L 179.435365 28.544146 
L 180.694335 59.550882 
L 180.920304 60.342593 
L 181.094623 60.364508 
L 181.348031 60.100324 
L 181.777372 59.299042 
L 182.271276 57.882899 
L 182.789391 55.674811 
L 183.349471 52.239629 
L 184.004781 46.712104 
L 185.115257 34.992568 
L 185.825445 28.723703 
L 186.195066 27.075464 
L 186.391982 26.887295 
L 186.396824 26.8896 
L 186.525949 27.081988 
L 186.718023 27.859857 
L 186.989186 30.027849 
L 187.353964 34.968668 
L 187.881763 45.594749 
L 188.601636 59.399332 
L 188.856658 60.747243 
L 189.097154 61.019491 
L 189.44902 61.051194 
L 189.981661 60.870469 
L 190.536899 60.443848 
L 191.063084 59.749792 
L 191.558602 58.709428 
L 192.034751 57.158055 
L 192.515742 54.770428 
L 193.041927 50.946868 
L 193.647201 44.767065 
L 194.622096 32.01835 
L 195.300003 24.558171 
L 195.637342 22.821674 
L 195.77938 22.68513 
L 195.808433 22.706366 
L 195.932716 22.996489 
L 196.128018 24.138174 
L 196.407251 27.296063 
L 196.793012 34.524803 
L 197.551622 54.20055 
L 197.911559 60.143299 
L 198.139142 61.032156 
L 198.358654 61.147021 
L 198.725047 61.037544 
L 199.252846 60.644731 
L 199.793558 59.95587 
L 200.316514 58.91103 
L 200.823331 57.371523 
L 201.330147 55.070589 
L 201.85956 51.551697 
L 202.453535 45.977611 
L 203.288007 35.719534 
L 204.166058 25.705624 
L 204.527608 23.694389 
L 204.698699 23.482186 
L 204.718068 23.492545 
L 204.835894 23.715411 
L 205.021512 24.650334 
L 205.289446 27.323831 
L 205.659067 33.54454 
L 206.253043 47.998866 
L 206.796982 59.299085 
L 207.043934 60.763312 
L 207.260219 60.986628 
L 207.55075 60.937023 
L 208.03497 60.610586 
L 208.565997 59.976871 
L 209.08734 58.990916 
L 209.594156 57.528602 
L 210.099358 55.346783 
L 210.625543 52.011843 
L 211.209834 46.756347 
L 211.986199 37.48971 
L 213.003059 25.772781 
L 213.362996 23.80965 
L 213.532472 23.610205 
L 213.551841 23.62129 
L 213.671282 23.852488 
L 213.858513 24.806045 
L 214.128062 27.510082 
L 214.500911 33.797795 
L 215.107799 48.527059 
L 215.635598 59.286013 
L 215.88255 60.736876 
L 216.098835 60.960767 
L 216.387752 60.910461 
L 216.867129 60.583035 
L 217.396542 59.94464 
L 217.916271 58.95228 
L 217.922727 58.937056 
L 217.922727 58.937056 
" clip-path="url(#pfc8f829553)" style="fill: none; stroke: #000000; stroke-width: 0.75; stroke-linecap: square"/>
   </g>
   <g id="LineCollection_1">
    <path d="M 67.816365 61.56 
L 67.816365 11.16 
" clip-path="url(#pfc8f829553)" style="fill: none; stroke-dasharray: 2.59,1.12; stroke-dashoffset: 0; stroke: #808080; stroke-width: 0.7"/>
    <path d="M 85.571072 61.56 
L 85.571072 11.16 
" clip-path="url(#pfc8f829553)" style="fill: none; stroke-dasharray: 2.59,1.12; stroke-dashoffset: 0; stroke: #808080; stroke-width: 0.7"/>
    <path d="M 103.325779 61.56 
L 103.325779 11.16 
" clip-path="url(#pfc8f829553)" style="fill: none; stroke-dasharray: 2.59,1.12; stroke-dashoffset: 0; stroke: #808080; stroke-width: 0.7"/>
    <path d="M 121.080486 61.56 
L 121.080486 11.16 
" clip-path="url(#pfc8f829553)" style="fill: none; stroke-dasharray: 2.59,1.12; stroke-dashoffset: 0; stroke: #808080; stroke-width: 0.7"/>
    <path d="M 138.835193 61.56 
L 138.835193 11.16 
" clip-path="url(#pfc8f829553)" style="fill: none; stroke-dasharray: 2.59,1.12; stroke-dashoffset: 0; stroke: #808080; stroke-width: 0.7"/>
    <path d="M 156.589899 61.56 
L 156.589899 11.16 
" clip-path="url(#pfc8f829553)" style="fill: none; stroke-dasharray: 2.59,1.12; stroke-dashoffset: 0; stroke: #808080; stroke-width: 0.7"/>
    <path d="M 174.344606 61.56 
L 174.344606 11.16 
" clip-path="url(#pfc8f829553)" style="fill: none; stroke-dasharray: 2.59,1.12; stroke-dashoffset: 0; stroke: #808080; stroke-width: 0.7"/>
   </g>
   <g id="patch_3">
    <path d="M 31.5 64.08 
L 31.5 8.64 
" style="fill: none; stroke: #000000; stroke-width: 0.5; stroke-linejoin: miter; stroke-linecap: square"/>
   </g>
   <g id="patch_4">
    <path d="M 31.5 64.08 
L 226.8 64.08 
" style="fill: none; stroke: #000000; stroke-width: 0.5; stroke-linejoin: miter; stroke-linecap: square"/>
   </g>
  </g>
 </g>
 <defs>
  <clipPath id="pfc8f829553">
   <rect x="31.5" y="8.64" width="195.3" height="55.44"/>
  </clipPath>
 </defs>
</svg>
