<?xml version="1.0" encoding="utf-8" standalone="no"?>
<!DOCTYPE svg PUBLIC "-//W3C//DTD SVG 1.1//EN"
  "http://www.w3.org/Graphics/SVG/1.1/DTD/svg11.dtd">
<svg xmlns:xlink="http://www.w3.org/1999/xlink" width="216pt" height="144pt" viewBox="0 0 216 144" xmlns="http://www.w3.org/2000/svg" version="1.1">
 <metadata>
  <rdf:RDF xmlns:dc="http://purl.org/dc/elements/1.1/" xmlns:cc="http://creativecommons.org/ns#" xmlns:rdf="http://www.w3.org/1999/02/22-rdf-syntax-ns#">
   <cc:Work>
    <dc:type rdf:resource="http://purl.org/dc/dcmitype/StillImage"/>
    <dc:date>2024-04-23T23:11:35.021250</dc:date>
    <dc:format>image/svg+xml</dc:format>
    <dc:creator>
     <cc:Agent>
      <dc:title>Matplotlib v3.8.3, https://matplotlib.org/</dc:title>
     </cc:Agent>
    </dc:creator>
   </cc:Work>
  </rdf:RDF>
 </metadata>
 <defs>
  <style type="text/css">*{stroke-linejoin: round; stroke-linecap: butt}</style>
 </defs>
 <g id="figure_1">
  <g id="patch_1">
   <path d="M 0 144 
L 216 144 
L 216 0 
L 0 0 
z
" style="fill: #ffffff"/>
  </g>
  <g id="axes_1">
   <g id="patch_2">
    <path d="M 27 128.16 
L 194.4 128.16 
L 194.4 17.28 
L 27 17.28 
z
" style="fill: #ffffff"/>
   </g>
   <g id="matplotlib.axis_1">
    <g id="xtick_1">
     <g id="line2d_1">
      <defs>
       <path id="mc192178c93" d="M 0 0 
L 0 3.5 
" style="stroke: #000000; stroke-width: 0.8"/>
      </defs>
      <g>
       <use xlink:href="#mc192178c93" x="43.74" y="128.16" style="stroke: #000000; stroke-width: 0.8"/>
      </g>
     </g>
     <g id="text_1">
      <!-- 30 -->
      <g transform="translate(37.3775 142.758438) scale(0.1 -0.1)">
       <defs>
        <path id="DejaVuSans-33" d="M 2597 2516 
Q 3050 2419 3304 2112 
Q 3559 1806 3559 1356 
Q 3559 666 3084 287 
Q 2609 -91 1734 -91 
Q 1441 -91 1130 -33 
Q 819 25 488 141 
L 488 750 
Q 750 597 1062 519 
Q 1375 441 1716 441 
Q 2309 441 2620 675 
Q 2931 909 2931 1356 
Q 2931 1769 2642 2001 
Q 2353 2234 1838 2234 
L 1294 2234 
L 1294 2753 
L 1863 2753 
Q 2328 2753 2575 2939 
Q 2822 3125 2822 3475 
Q 2822 3834 2567 4026 
Q 2313 4219 1838 4219 
Q 1578 4219 1281 4162 
Q 984 4106 628 3988 
L 628 4550 
Q 988 4650 1302 4700 
Q 1616 4750 1894 4750 
Q 2613 4750 3031 4423 
Q 3450 4097 3450 3541 
Q 3450 3153 3228 2886 
Q 3006 2619 2597 2516 
z
" transform="scale(0.015625)"/>
        <path id="DejaVuSans-30" d="M 2034 4250 
Q 1547 4250 1301 3770 
Q 1056 3291 1056 2328 
Q 1056 1369 1301 889 
Q 1547 409 2034 409 
Q 2525 409 2770 889 
Q 3016 1369 3016 2328 
Q 3016 3291 2770 3770 
Q 2525 4250 2034 4250 
z
M 2034 4750 
Q 2819 4750 3233 4129 
Q 3647 3509 3647 2328 
Q 3647 1150 3233 529 
Q 2819 -91 2034 -91 
Q 1250 -91 836 529 
Q 422 1150 422 2328 
Q 422 3509 836 4129 
Q 1250 4750 2034 4750 
z
" transform="scale(0.015625)"/>
       </defs>
       <use xlink:href="#DejaVuSans-33"/>
       <use xlink:href="#DejaVuSans-30" x="63.623047"/>
      </g>
     </g>
    </g>
    <g id="xtick_2">
     <g id="line2d_2">
      <g>
       <use xlink:href="#mc192178c93" x="80.94" y="128.16" style="stroke: #000000; stroke-width: 0.8"/>
      </g>
     </g>
     <g id="text_2">
      <!-- 40 -->
      <g transform="translate(74.5775 142.758438) scale(0.1 -0.1)">
       <defs>
        <path id="DejaVuSans-34" d="M 2419 4116 
L 825 1625 
L 2419 1625 
L 2419 4116 
z
M 2253 4666 
L 3047 4666 
L 3047 1625 
L 3713 1625 
L 3713 1100 
L 3047 1100 
L 3047 0 
L 2419 0 
L 2419 1100 
L 313 1100 
L 313 1709 
L 2253 4666 
z
" transform="scale(0.015625)"/>
       </defs>
       <use xlink:href="#DejaVuSans-34"/>
       <use xlink:href="#DejaVuSans-30" x="63.623047"/>
      </g>
     </g>
    </g>
    <g id="xtick_3">
     <g id="line2d_3">
      <g>
       <use xlink:href="#mc192178c93" x="118.14" y="128.16" style="stroke: #000000; stroke-width: 0.8"/>
      </g>
     </g>
     <g id="text_3">
      <!-- 50 -->
      <g transform="translate(111.7775 142.758438) scale(0.1 -0.1)">
       <defs>
        <path id="DejaVuSans-35" d="M 691 4666 
L 3169 4666 
L 3169 4134 
L 1269 4134 
L 1269 2991 
Q 1406 3038 1543 3061 
Q 1681 3084 1819 3084 
Q 2600 3084 3056 2656 
Q 3513 2228 3513 1497 
Q 3513 744 3044 326 
Q 2575 -91 1722 -91 
Q 1428 -91 1123 -41 
Q 819 9 494 109 
L 494 744 
Q 775 591 1075 516 
Q 1375 441 1709 441 
Q 2250 441 2565 725 
Q 2881 1009 2881 1497 
Q 2881 1984 2565 2268 
Q 2250 2553 1709 2553 
Q 1456 2553 1204 2497 
Q 953 2441 691 2322 
L 691 4666 
z
" transform="scale(0.015625)"/>
       </defs>
       <use xlink:href="#DejaVuSans-35"/>
       <use xlink:href="#DejaVuSans-30" x="63.623047"/>
      </g>
     </g>
    </g>
    <g id="xtick_4">
     <g id="line2d_4">
      <g>
       <use xlink:href="#mc192178c93" x="155.34" y="128.16" style="stroke: #000000; stroke-width: 0.8"/>
      </g>
     </g>
     <g id="text_4">
      <!-- 60 -->
      <g transform="translate(148.9775 142.758438) scale(0.1 -0.1)">
       <defs>
        <path id="DejaVuSans-36" d="M 2113 2584 
Q 1688 2584 1439 2293 
Q 1191 2003 1191 1497 
Q 1191 994 1439 701 
Q 1688 409 2113 409 
Q 2538 409 2786 701 
Q 3034 994 3034 1497 
Q 3034 2003 2786 2293 
Q 2538 2584 2113 2584 
z
M 3366 4563 
L 3366 3988 
Q 3128 4100 2886 4159 
Q 2644 4219 2406 4219 
Q 1781 4219 1451 3797 
Q 1122 3375 1075 2522 
Q 1259 2794 1537 2939 
Q 1816 3084 2150 3084 
Q 2853 3084 3261 2657 
Q 3669 2231 3669 1497 
Q 3669 778 3244 343 
Q 2819 -91 2113 -91 
Q 1303 -91 875 529 
Q 447 1150 447 2328 
Q 447 3434 972 4092 
Q 1497 4750 2381 4750 
Q 2619 4750 2861 4703 
Q 3103 4656 3366 4563 
z
" transform="scale(0.015625)"/>
       </defs>
       <use xlink:href="#DejaVuSans-36"/>
       <use xlink:href="#DejaVuSans-30" x="63.623047"/>
      </g>
     </g>
    </g>
    <g id="xtick_5">
     <g id="line2d_5">
      <g>
       <use xlink:href="#mc192178c93" x="192.54" y="128.16" style="stroke: #000000; stroke-width: 0.8"/>
      </g>
     </g>
     <g id="text_5">
      <!-- 70 -->
      <g transform="translate(186.1775 142.758438) scale(0.1 -0.1)">
       <defs>
        <path id="DejaVuSans-37" d="M 525 4666 
L 3525 4666 
L 3525 4397 
L 1831 0 
L 1172 0 
L 2766 4134 
L 525 4134 
L 525 4666 
z
" transform="scale(0.015625)"/>
       </defs>
       <use xlink:href="#DejaVuSans-37"/>
       <use xlink:href="#DejaVuSans-30" x="63.623047"/>
      </g>
     </g>
    </g>
   </g>
   <g id="matplotlib.axis_2">
    <g id="ytick_1">
     <g id="line2d_6">
      <defs>
       <path id="m9d9bfca54c" d="M 0 0 
L -3.5 0 
" style="stroke: #000000; stroke-width: 0.8"/>
      </defs>
      <g>
       <use xlink:href="#m9d9bfca54c" x="27" y="105.984" style="stroke: #000000; stroke-width: 0.8"/>
      </g>
     </g>
     <g id="text_6">
      <!-- 1000 -->
      <g transform="translate(-5.45 109.783219) scale(0.1 -0.1)">
       <defs>
        <path id="DejaVuSans-31" d="M 794 531 
L 1825 531 
L 1825 4091 
L 703 3866 
L 703 4441 
L 1819 4666 
L 2450 4666 
L 2450 531 
L 3481 531 
L 3481 0 
L 794 0 
L 794 531 
z
" transform="scale(0.015625)"/>
       </defs>
       <use xlink:href="#DejaVuSans-31"/>
       <use xlink:href="#DejaVuSans-30" x="63.623047"/>
       <use xlink:href="#DejaVuSans-30" x="127.246094"/>
       <use xlink:href="#DejaVuSans-30" x="190.869141"/>
      </g>
     </g>
    </g>
    <g id="ytick_2">
     <g id="line2d_7">
      <g>
       <use xlink:href="#m9d9bfca54c" x="27" y="69.024" style="stroke: #000000; stroke-width: 0.8"/>
      </g>
     </g>
     <g id="text_7">
      <!-- 1500 -->
      <g transform="translate(-5.45 72.823219) scale(0.1 -0.1)">
       <use xlink:href="#DejaVuSans-31"/>
       <use xlink:href="#DejaVuSans-35" x="63.623047"/>
       <use xlink:href="#DejaVuSans-30" x="127.246094"/>
       <use xlink:href="#DejaVuSans-30" x="190.869141"/>
      </g>
     </g>
    </g>
    <g id="ytick_3">
     <g id="line2d_8">
      <g>
       <use xlink:href="#m9d9bfca54c" x="27" y="32.064" style="stroke: #000000; stroke-width: 0.8"/>
      </g>
     </g>
     <g id="text_8">
      <!-- 2000 -->
      <g transform="translate(-5.45 35.863219) scale(0.1 -0.1)">
       <defs>
        <path id="DejaVuSans-32" d="M 1228 531 
L 3431 531 
L 3431 0 
L 469 0 
L 469 531 
Q 828 903 1448 1529 
Q 2069 2156 2228 2338 
Q 2531 2678 2651 2914 
Q 2772 3150 2772 3378 
Q 2772 3750 2511 3984 
Q 2250 4219 1831 4219 
Q 1534 4219 1204 4116 
Q 875 4013 500 3803 
L 500 4441 
Q 881 4594 1212 4672 
Q 1544 4750 1819 4750 
Q 2544 4750 2975 4387 
Q 3406 4025 3406 3419 
Q 3406 3131 3298 2873 
Q 3191 2616 2906 2266 
Q 2828 2175 2409 1742 
Q 1991 1309 1228 531 
z
" transform="scale(0.015625)"/>
       </defs>
       <use xlink:href="#DejaVuSans-32"/>
       <use xlink:href="#DejaVuSans-30" x="63.623047"/>
       <use xlink:href="#DejaVuSans-30" x="127.246094"/>
       <use xlink:href="#DejaVuSans-30" x="190.869141"/>
      </g>
     </g>
    </g>
   </g>
   <g id="line2d_9">
    <path d="M -1 122.473719 
L -0.9 122.440381 
L -0.28 125.909442 
L 0.96 128.297482 
L 1.58 128.646836 
L 2.2 129.661471 
L 2.82 125.392002 
L 3.44 126.384037 
L 4.06 123.027033 
L 4.68 124.925882 
L 5.3 121.20587 
L 5.92 122.680503 
L 6.54 119.484994 
L 7.16 119.513243 
L 7.78 116.627538 
L 8.4 111.47668 
L 9.02 109.935189 
L 9.64 106.695892 
L 10.26 105.776365 
L 10.88 90.760247 
L 11.5 89.53421 
L 12.12 104.996674 
L 12.74 115.489076 
L 13.36 121.778397 
L 14.6 129.378974 
L 15.22 130.203864 
L 15.84 128.424135 
L 16.46 125.091143 
L 17.08 118.137484 
L 17.7 117.354497 
L 18.32 119.883785 
L 18.94 117.463729 
L 19.56 116.822461 
L 20.18 114.601095 
L 20.8 119.251934 
L 21.42 116.872369 
L 22.04 119.518422 
L 22.66 114.839804 
L 23.28 114.261157 
L 24.52 107.772676 
L 25.14 102.995655 
L 25.76 101.986199 
L 26.38 91.58655 
L 27 92.140714 
L 27.62 82.962393 
L 28.24 80.795642 
L 28.86 69.001871 
L 29.48 68.313991 
L 30.1 60.190795 
L 30.72 63.421617 
L 31.34 48.437515 
L 31.96 64.066181 
L 32.58 62.412633 
L 33.2 69.965656 
L 33.82 73.448371 
L 35.06 92.882739 
L 35.68 106.443057 
L 36.3 109.068865 
L 36.92 119.999609 
L 37.54 118.894575 
L 38.16 124.02613 
L 38.78 121.945541 
L 39.4 125.02146 
L 40.02 120.562719 
L 40.64 122.613175 
L 41.26 108.785427 
L 41.88 108.68514 
L 42.5 107.515133 
L 43.12 105.524472 
L 43.74 101.853897 
L 44.36 101.288903 
L 44.98 109.768986 
L 45.6 110.836824 
L 46.22 107.927107 
L 46.84 108.526942 
L 47.46 103.806891 
L 48.08 104.753726 
L 48.7 97.559474 
L 49.32 97.712493 
L 49.94 90.385468 
L 50.56 93.754713 
L 51.8 70.898837 
L 52.42 66.123229 
L 53.66 94.364906 
L 54.28 107.527374 
L 55.52 118.372898 
L 56.14 119.293837 
L 56.76 119.84706 
L 57.38 120.872995 
L 58 119.995842 
L 58.62 122.455448 
L 59.24 119.427082 
L 59.86 119.754307 
L 60.48 117.619573 
L 61.1 114.4848 
L 61.72 113.585518 
L 62.34 114.631228 
L 62.96 111.347673 
L 63.58 116.428378 
L 64.2 112.870331 
L 64.82 113.775262 
L 65.44 109.195047 
L 66.06 109.158323 
L 66.68 101.490417 
L 67.3 100.072283 
L 67.92 93.441141 
L 68.54 91.363848 
L 69.16 85.397515 
L 69.78 85.668712 
L 70.4 77.790347 
L 71.02 79.136915 
L 72.88 48.843369 
L 73.5 59.470899 
L 74.12 55.848349 
L 75.36 67.673194 
L 75.98 81.777319 
L 77.22 100.306285 
L 77.84 105.443019 
L 78.46 108.111672 
L 79.08 112.532276 
L 79.7 113.918394 
L 80.32 116.067724 
L 80.94 113.769141 
L 81.56 116.108686 
L 82.18 109.6687 
L 82.8 110.001576 
L 83.42 105.383223 
L 84.04 107.857425 
L 84.66 104.651557 
L 85.28 106.642688 
L 85.9 104.401547 
L 86.52 106.25143 
L 87.14 98.935234 
L 87.76 101.216395 
L 88.38 94.047097 
L 89 92.993384 
L 89.62 84.213854 
L 90.24 83.038196 
L 90.86 67.690615 
L 91.48 72.161127 
L 92.1 67.300769 
L 92.72 66.159482 
L 93.34 52.588806 
L 93.96 82.964276 
L 94.58 96.804737 
L 95.2 102.546955 
L 95.82 106.758983 
L 96.44 107.399309 
L 97.06 107.803279 
L 97.68 106.68883 
L 98.3 106.722258 
L 98.92 109.451648 
L 99.54 110.24311 
L 100.16 108.832039 
L 100.78 107.990198 
L 101.4 106.760395 
L 102.02 108.477976 
L 102.64 107.737364 
L 103.26 107.799984 
L 103.88 104.964657 
L 104.5 106.212352 
L 105.12 101.933937 
L 105.74 103.771108 
L 106.36 97.979924 
L 106.98 96.708688 
L 107.6 91.543704 
L 108.22 87.747889 
L 108.84 85.296758 
L 109.46 80.798467 
L 110.7 74.241245 
L 111.32 74.122597 
L 111.94 67.817739 
L 112.56 69.665268 
L 113.18 67.399172 
L 113.8 56.578132 
L 114.42 50.794951 
L 115.04 63.407022 
L 115.66 61.347149 
L 116.28 65.00407 
L 116.9 63.134883 
L 117.52 70.734047 
L 118.14 69.948706 
L 118.76 80.315398 
L 119.38 81.020698 
L 120 90.132162 
L 121.24 92.58753 
L 121.86 95.577288 
L 122.48 95.265129 
L 123.1 101.142005 
L 123.72 99.692796 
L 124.34 100.761576 
L 124.96 99.827924 
L 125.58 101.792218 
L 126.2 97.843854 
L 126.82 99.915027 
L 127.44 97.168216 
L 128.06 96.097553 
L 128.68 88.804427 
L 129.3 91.159038 
L 129.92 84.157825 
L 130.54 82.906835 
L 131.16 76.625048 
L 131.78 75.428674 
L 132.4 67.023452 
L 133.02 69.514132 
L 133.64 61.54113 
L 134.26 48.709654 
L 136.12 94.666236 
L 136.74 101.036068 
L 137.36 105.747174 
L 137.98 103.472603 
L 138.6 106.822074 
L 139.22 105.405823 
L 139.84 108.985058 
L 140.46 107.294785 
L 141.08 112.456002 
L 141.7 108.68514 
L 142.32 110.17484 
L 142.94 108.127209 
L 143.56 109.510973 
L 144.18 102.494223 
L 144.8 105.68267 
L 145.42 103.121366 
L 146.04 101.578462 
L 146.66 99.584505 
L 147.28 98.043485 
L 147.9 96.089549 
L 148.52 92.86626 
L 149.76 88.820906 
L 150.38 89.066207 
L 151 84.927629 
L 151.62 84.705398 
L 152.24 71.236892 
L 152.86 78.018699 
L 153.48 66.309206 
L 154.1 69.661972 
L 154.72 29.128387 
L 155.34 47.306116 
L 155.96 42.812533 
L 156.58 45.781575 
L 157.2 37.196967 
L 157.82 37.233692 
L 158.44 30.689653 
L 159.06 37.417315 
L 159.68 41.291758 
L 160.3 58.002858 
L 160.92 65.199935 
L 161.54 75.154181 
L 162.16 79.087949 
L 162.78 88.536997 
L 163.4 89.262072 
L 164.02 94.557475 
L 164.64 94.761814 
L 165.26 98.771856 
L 165.88 92.508431 
L 166.5 99.112265 
L 167.12 96.105086 
L 167.74 98.875909 
L 168.36 96.921031 
L 168.98 98.814231 
L 169.6 94.660115 
L 170.22 94.918129 
L 170.84 93.441612 
L 171.46 91.520634 
L 172.08 90.136399 
L 172.7 89.421683 
L 173.32 85.101835 
L 173.94 82.081474 
L 174.56 78.352045 
L 175.18 58.451086 
L 176.42 81.861597 
L 177.04 79.525348 
L 177.66 85.114548 
L 178.28 80.04938 
L 178.9 80.911937 
L 179.52 77.428751 
L 180.14 78.864306 
L 180.76 73.246386 
L 181.38 81.397831 
L 182 74.387673 
L 182.62 74.684765 
L 183.24 66.392542 
L 183.86 70.09843 
L 184.48 65.57236 
L 185.1 66.403842 
L 185.72 60.519904 
L 186.34 60.330631 
L 186.96 52.306309 
L 187.58 55.344563 
L 188.2 52.455091 
L 188.82 52.93204 
L 189.44 48.40597 
L 190.06 52.510649 
L 190.68 61.009095 
L 191.3 72.739304 
L 191.92 78.456569 
L 192.54 89.610955 
L 193.16 87.700806 
L 193.78 94.707669 
L 194.4 93.630885 
L 195.02 97.491204 
L 195.64 64.523355 
L 196.26 75.413136 
L 196.88 74.450764 
L 197.5 85.257209 
L 198.12 80.18592 
L 198.74 78.930692 
L 199.36 81.290953 
L 199.98 78.952351 
L 200.6 71.315991 
L 201.84 68.774932 
L 202.46 65.654284 
L 203.08 51.758265 
L 203.7 66.02718 
L 204.32 62.459716 
L 204.94 62.3825 
L 205.56 51.985205 
L 206.18 62.720554 
L 206.8 60.626311 
L 207.42 74.551521 
L 208.04 74.075985 
L 208.66 82.314534 
L 209.28 83.389434 
L 209.9 90.711281 
L 210.52 87.722935 
L 211.14 86.791637 
L 211.76 93.728346 
L 212.38 81.653491 
L 213 94.591845 
L 213.62 97.236015 
L 214.24 96.306601 
L 214.86 97.012372 
L 215.48 87.421605 
L 216.1 69.645022 
L 216.72 75.893381 
L 217 81.36015 
L 217 81.36015 
" clip-path="url(#peb3d1822c2)" style="fill: none; stroke: #008000; stroke-width: 1.5; stroke-linecap: square"/>
   </g>
   <g id="LineCollection_1">
    <path clip-path="url(#peb3d1822c2)" style="fill: none; stroke-dasharray: 5.55,2.4; stroke-dashoffset: 0; stroke: #7f7f7f; stroke-width: 1.5"/>
    <path d="M 30.72 145 
L 30.72 -1 
" clip-path="url(#peb3d1822c2)" style="fill: none; stroke-dasharray: 5.55,2.4; stroke-dashoffset: 0; stroke: #7f7f7f; stroke-width: 1.5"/>
    <path d="M 71.64 145 
L 71.64 -1 
" clip-path="url(#peb3d1822c2)" style="fill: none; stroke-dasharray: 5.55,2.4; stroke-dashoffset: 0; stroke: #7f7f7f; stroke-width: 1.5"/>
    <path d="M 112.56 145 
L 112.56 -1 
" clip-path="url(#peb3d1822c2)" style="fill: none; stroke-dasharray: 5.55,2.4; stroke-dashoffset: 0; stroke: #7f7f7f; stroke-width: 1.5"/>
    <path d="M 153.48 145 
L 153.48 -1 
" clip-path="url(#peb3d1822c2)" style="fill: none; stroke-dasharray: 5.55,2.4; stroke-dashoffset: 0; stroke: #7f7f7f; stroke-width: 1.5"/>
    <path d="M 194.4 145 
L 194.4 -1 
" clip-path="url(#peb3d1822c2)" style="fill: none; stroke-dasharray: 5.55,2.4; stroke-dashoffset: 0; stroke: #7f7f7f; stroke-width: 1.5"/>
    <path clip-path="url(#peb3d1822c2)" style="fill: none; stroke-dasharray: 5.55,2.4; stroke-dashoffset: 0; stroke: #7f7f7f; stroke-width: 1.5"/>
   </g>
   <g id="patch_3">
    <path d="M 27 128.16 
L 27 17.28 
" style="fill: none; stroke: #000000; stroke-width: 0.8; stroke-linejoin: miter; stroke-linecap: square"/>
   </g>
   <g id="patch_4">
    <path d="M 194.4 128.16 
L 194.4 17.28 
" style="fill: none; stroke: #000000; stroke-width: 0.8; stroke-linejoin: miter; stroke-linecap: square"/>
   </g>
   <g id="patch_5">
    <path d="M 27 128.16 
L 194.4 128.16 
" style="fill: none; stroke: #000000; stroke-width: 0.8; stroke-linejoin: miter; stroke-linecap: square"/>
   </g>
   <g id="patch_6">
    <path d="M 27 17.28 
L 194.4 17.28 
" style="fill: none; stroke: #000000; stroke-width: 0.8; stroke-linejoin: miter; stroke-linecap: square"/>
   </g>
  </g>
 </g>
 <defs>
  <clipPath id="peb3d1822c2">
   <rect x="27" y="17.28" width="167.4" height="110.88"/>
  </clipPath>
 </defs>
</svg>
