<?xml version="1.0" encoding="utf-8" standalone="no"?>
<!DOCTYPE svg PUBLIC "-//W3C//DTD SVG 1.1//EN"
  "http://www.w3.org/Graphics/SVG/1.1/DTD/svg11.dtd">
<svg xmlns:xlink="http://www.w3.org/1999/xlink" width="252pt" height="72pt" viewBox="0 0 252 72" xmlns="http://www.w3.org/2000/svg" version="1.1">
 <metadata>
  <rdf:RDF xmlns:dc="http://purl.org/dc/elements/1.1/" xmlns:cc="http://creativecommons.org/ns#" xmlns:rdf="http://www.w3.org/1999/02/22-rdf-syntax-ns#">
   <cc:Work>
    <dc:type rdf:resource="http://purl.org/dc/dcmitype/StillImage"/>
    <dc:date>2024-07-10T09:41:27.451775</dc:date>
    <dc:format>image/svg+xml</dc:format>
    <dc:creator>
     <cc:Agent>
      <dc:title>Matplotlib v3.8.3, https://matplotlib.org/</dc:title>
     </cc:Agent>
    </dc:creator>
   </cc:Work>
  </rdf:RDF>
 </metadata>
 <defs>
  <style type="text/css">*{stroke-linejoin: round; stroke-linecap: butt}</style>
 </defs>
 <g id="figure_1">
  <g id="patch_1">
   <path d="M 0 72 
L 252 72 
L 252 0 
L 0 0 
z
" style="fill: #ffffff"/>
  </g>
  <g id="axes_1">
   <g id="patch_2">
    <path d="M 31.5 64.08 
L 226.8 64.08 
L 226.8 8.64 
L 31.5 8.64 
z
" style="fill: #fffdee"/>
   </g>
   <g id="PathCollection_1">
    <defs>
     <path id="C0_0_e9d5d1289e" d="M 0 2.236068 
C 0.593012 2.236068 1.161816 2.000462 1.581139 1.581139 
C 2.000462 1.161816 2.236068 0.593012 2.236068 -0 
C 2.236068 -0.593012 2.000462 -1.161816 1.581139 -1.581139 
C 1.161816 -2.000462 0.593012 -2.236068 0 -2.236068 
C -0.593012 -2.236068 -1.161816 -2.000462 -1.581139 -1.581139 
C -2.000462 -1.161816 -2.236068 -0.593012 -2.236068 0 
C -2.236068 0.593012 -2.000462 1.161816 -1.581139 1.581139 
C -1.161816 2.000462 -0.593012 2.236068 0 2.236068 
z
"/>
    </defs>
    <g clip-path="url(#pd06da99f31)">
     <use xlink:href="#C0_0_e9d5d1289e" x="108.162298" y="23.459576" style="fill: #5baa46; stroke: #5baa46"/>
    </g>
    <g clip-path="url(#pd06da99f31)">
     <use xlink:href="#C0_0_e9d5d1289e" x="115.193215" y="39.376887" style="fill: #1f77b4; stroke: #1f77b4"/>
    </g>
    <g clip-path="url(#pd06da99f31)">
     <use xlink:href="#C0_0_e9d5d1289e" x="122.910653" y="13.956143" style="fill: #5baa46; stroke: #5baa46"/>
    </g>
    <g clip-path="url(#pd06da99f31)">
     <use xlink:href="#C0_0_e9d5d1289e" x="129.385252" y="53.075727" style="fill: #1f77b4; stroke: #1f77b4"/>
    </g>
    <g clip-path="url(#pd06da99f31)">
     <use xlink:href="#C0_0_e9d5d1289e" x="137.795128" y="11.437959" style="fill: #5baa46; stroke: #5baa46"/>
    </g>
    <g clip-path="url(#pd06da99f31)">
     <use xlink:href="#C0_0_e9d5d1289e" x="144.032996" y="55.040778" style="fill: #1f77b4; stroke: #1f77b4"/>
    </g>
    <g clip-path="url(#pd06da99f31)">
     <use xlink:href="#C0_0_e9d5d1289e" x="152.638176" y="14.69225" style="fill: #5baa46; stroke: #5baa46"/>
    </g>
    <g clip-path="url(#pd06da99f31)">
     <use xlink:href="#C0_0_e9d5d1289e" x="159.024" y="51.97206" style="fill: #1f77b4; stroke: #1f77b4"/>
    </g>
    <g clip-path="url(#pd06da99f31)">
     <use xlink:href="#C0_0_e9d5d1289e" x="167.377653" y="11.16" style="fill: #5baa46; stroke: #5baa46"/>
    </g>
    <g clip-path="url(#pd06da99f31)">
     <use xlink:href="#C0_0_e9d5d1289e" x="173.609602" y="55.270504" style="fill: #1f77b4; stroke: #1f77b4"/>
    </g>
   </g>
   <g id="matplotlib.axis_1">
    <g id="xtick_1">
     <g id="line2d_1">
      <defs>
       <path id="ma4ff5e2bc5" d="M 0 0 
L 0 3.5 
" style="stroke: #000000; stroke-width: 0.5"/>
      </defs>
      <g>
       <use xlink:href="#ma4ff5e2bc5" x="40.377273" y="64.08" style="stroke: #000000; stroke-width: 0.5"/>
      </g>
     </g>
     <g id="text_1">
      <!-- 0 -->
      <g transform="translate(38.786648 74.879219) scale(0.05 -0.05)">
       <defs>
        <path id="DejaVuSans-30" d="M 2034 4250 
Q 1547 4250 1301 3770 
Q 1056 3291 1056 2328 
Q 1056 1369 1301 889 
Q 1547 409 2034 409 
Q 2525 409 2770 889 
Q 3016 1369 3016 2328 
Q 3016 3291 2770 3770 
Q 2525 4250 2034 4250 
z
M 2034 4750 
Q 2819 4750 3233 4129 
Q 3647 3509 3647 2328 
Q 3647 1150 3233 529 
Q 2819 -91 2034 -91 
Q 1250 -91 836 529 
Q 422 1150 422 2328 
Q 422 3509 836 4129 
Q 1250 4750 2034 4750 
z
" transform="scale(0.015625)"/>
       </defs>
       <use xlink:href="#DejaVuSans-30"/>
      </g>
     </g>
    </g>
    <g id="xtick_2">
     <g id="line2d_2">
      <g>
       <use xlink:href="#ma4ff5e2bc5" x="69.968675" y="64.08" style="stroke: #000000; stroke-width: 0.5"/>
      </g>
     </g>
     <g id="text_2">
      <!-- 10 -->
      <g transform="translate(66.787425 74.879219) scale(0.05 -0.05)">
       <defs>
        <path id="DejaVuSans-31" d="M 794 531 
L 1825 531 
L 1825 4091 
L 703 3866 
L 703 4441 
L 1819 4666 
L 2450 4666 
L 2450 531 
L 3481 531 
L 3481 0 
L 794 0 
L 794 531 
z
" transform="scale(0.015625)"/>
       </defs>
       <use xlink:href="#DejaVuSans-31"/>
       <use xlink:href="#DejaVuSans-30" x="63.623047"/>
      </g>
     </g>
    </g>
    <g id="xtick_3">
     <g id="line2d_3">
      <g>
       <use xlink:href="#ma4ff5e2bc5" x="99.560077" y="64.08" style="stroke: #000000; stroke-width: 0.5"/>
      </g>
     </g>
     <g id="text_3">
      <!-- 20 -->
      <g transform="translate(96.378827 74.879219) scale(0.05 -0.05)">
       <defs>
        <path id="DejaVuSans-32" d="M 1228 531 
L 3431 531 
L 3431 0 
L 469 0 
L 469 531 
Q 828 903 1448 1529 
Q 2069 2156 2228 2338 
Q 2531 2678 2651 2914 
Q 2772 3150 2772 3378 
Q 2772 3750 2511 3984 
Q 2250 4219 1831 4219 
Q 1534 4219 1204 4116 
Q 875 4013 500 3803 
L 500 4441 
Q 881 4594 1212 4672 
Q 1544 4750 1819 4750 
Q 2544 4750 2975 4387 
Q 3406 4025 3406 3419 
Q 3406 3131 3298 2873 
Q 3191 2616 2906 2266 
Q 2828 2175 2409 1742 
Q 1991 1309 1228 531 
z
" transform="scale(0.015625)"/>
       </defs>
       <use xlink:href="#DejaVuSans-32"/>
       <use xlink:href="#DejaVuSans-30" x="63.623047"/>
      </g>
     </g>
    </g>
    <g id="xtick_4">
     <g id="line2d_4">
      <g>
       <use xlink:href="#ma4ff5e2bc5" x="129.15148" y="64.08" style="stroke: #000000; stroke-width: 0.5"/>
      </g>
     </g>
     <g id="text_4">
      <!-- 30 -->
      <g transform="translate(125.97023 74.879219) scale(0.05 -0.05)">
       <defs>
        <path id="DejaVuSans-33" d="M 2597 2516 
Q 3050 2419 3304 2112 
Q 3559 1806 3559 1356 
Q 3559 666 3084 287 
Q 2609 -91 1734 -91 
Q 1441 -91 1130 -33 
Q 819 25 488 141 
L 488 750 
Q 750 597 1062 519 
Q 1375 441 1716 441 
Q 2309 441 2620 675 
Q 2931 909 2931 1356 
Q 2931 1769 2642 2001 
Q 2353 2234 1838 2234 
L 1294 2234 
L 1294 2753 
L 1863 2753 
Q 2328 2753 2575 2939 
Q 2822 3125 2822 3475 
Q 2822 3834 2567 4026 
Q 2313 4219 1838 4219 
Q 1578 4219 1281 4162 
Q 984 4106 628 3988 
L 628 4550 
Q 988 4650 1302 4700 
Q 1616 4750 1894 4750 
Q 2613 4750 3031 4423 
Q 3450 4097 3450 3541 
Q 3450 3153 3228 2886 
Q 3006 2619 2597 2516 
z
" transform="scale(0.015625)"/>
       </defs>
       <use xlink:href="#DejaVuSans-33"/>
       <use xlink:href="#DejaVuSans-30" x="63.623047"/>
      </g>
     </g>
    </g>
    <g id="xtick_5">
     <g id="line2d_5">
      <g>
       <use xlink:href="#ma4ff5e2bc5" x="158.742882" y="64.08" style="stroke: #000000; stroke-width: 0.5"/>
      </g>
     </g>
     <g id="text_5">
      <!-- 40 -->
      <g transform="translate(155.561632 74.879219) scale(0.05 -0.05)">
       <defs>
        <path id="DejaVuSans-34" d="M 2419 4116 
L 825 1625 
L 2419 1625 
L 2419 4116 
z
M 2253 4666 
L 3047 4666 
L 3047 1625 
L 3713 1625 
L 3713 1100 
L 3047 1100 
L 3047 0 
L 2419 0 
L 2419 1100 
L 313 1100 
L 313 1709 
L 2253 4666 
z
" transform="scale(0.015625)"/>
       </defs>
       <use xlink:href="#DejaVuSans-34"/>
       <use xlink:href="#DejaVuSans-30" x="63.623047"/>
      </g>
     </g>
    </g>
    <g id="xtick_6">
     <g id="line2d_6">
      <g>
       <use xlink:href="#ma4ff5e2bc5" x="188.334284" y="64.08" style="stroke: #000000; stroke-width: 0.5"/>
      </g>
     </g>
     <g id="text_6">
      <!-- 50 -->
      <g transform="translate(185.153034 74.879219) scale(0.05 -0.05)">
       <defs>
        <path id="DejaVuSans-35" d="M 691 4666 
L 3169 4666 
L 3169 4134 
L 1269 4134 
L 1269 2991 
Q 1406 3038 1543 3061 
Q 1681 3084 1819 3084 
Q 2600 3084 3056 2656 
Q 3513 2228 3513 1497 
Q 3513 744 3044 326 
Q 2575 -91 1722 -91 
Q 1428 -91 1123 -41 
Q 819 9 494 109 
L 494 744 
Q 775 591 1075 516 
Q 1375 441 1709 441 
Q 2250 441 2565 725 
Q 2881 1009 2881 1497 
Q 2881 1984 2565 2268 
Q 2250 2553 1709 2553 
Q 1456 2553 1204 2497 
Q 953 2441 691 2322 
L 691 4666 
z
" transform="scale(0.015625)"/>
       </defs>
       <use xlink:href="#DejaVuSans-35"/>
       <use xlink:href="#DejaVuSans-30" x="63.623047"/>
      </g>
     </g>
    </g>
    <g id="xtick_7">
     <g id="line2d_7">
      <g>
       <use xlink:href="#ma4ff5e2bc5" x="217.925686" y="64.08" style="stroke: #000000; stroke-width: 0.5"/>
      </g>
     </g>
     <g id="text_7">
      <!-- 60 -->
      <g transform="translate(214.744436 74.879219) scale(0.05 -0.05)">
       <defs>
        <path id="DejaVuSans-36" d="M 2113 2584 
Q 1688 2584 1439 2293 
Q 1191 2003 1191 1497 
Q 1191 994 1439 701 
Q 1688 409 2113 409 
Q 2538 409 2786 701 
Q 3034 994 3034 1497 
Q 3034 2003 2786 2293 
Q 2538 2584 2113 2584 
z
M 3366 4563 
L 3366 3988 
Q 3128 4100 2886 4159 
Q 2644 4219 2406 4219 
Q 1781 4219 1451 3797 
Q 1122 3375 1075 2522 
Q 1259 2794 1537 2939 
Q 1816 3084 2150 3084 
Q 2853 3084 3261 2657 
Q 3669 2231 3669 1497 
Q 3669 778 3244 343 
Q 2819 -91 2113 -91 
Q 1303 -91 875 529 
Q 447 1150 447 2328 
Q 447 3434 972 4092 
Q 1497 4750 2381 4750 
Q 2619 4750 2861 4703 
Q 3103 4656 3366 4563 
z
" transform="scale(0.015625)"/>
       </defs>
       <use xlink:href="#DejaVuSans-36"/>
       <use xlink:href="#DejaVuSans-30" x="63.623047"/>
      </g>
     </g>
    </g>
    <g id="text_8">
     <!-- Time (h) -->
     <g transform="translate(113.480273 85.617891) scale(0.075 -0.075)">
      <defs>
       <path id="DejaVuSans-54" d="M -19 4666 
L 3928 4666 
L 3928 4134 
L 2272 4134 
L 2272 0 
L 1638 0 
L 1638 4134 
L -19 4134 
L -19 4666 
z
" transform="scale(0.015625)"/>
       <path id="DejaVuSans-69" d="M 603 3500 
L 1178 3500 
L 1178 0 
L 603 0 
L 603 3500 
z
M 603 4863 
L 1178 4863 
L 1178 4134 
L 603 4134 
L 603 4863 
z
" transform="scale(0.015625)"/>
       <path id="DejaVuSans-6d" d="M 3328 2828 
Q 3544 3216 3844 3400 
Q 4144 3584 4550 3584 
Q 5097 3584 5394 3201 
Q 5691 2819 5691 2113 
L 5691 0 
L 5113 0 
L 5113 2094 
Q 5113 2597 4934 2840 
Q 4756 3084 4391 3084 
Q 3944 3084 3684 2787 
Q 3425 2491 3425 1978 
L 3425 0 
L 2847 0 
L 2847 2094 
Q 2847 2600 2669 2842 
Q 2491 3084 2119 3084 
Q 1678 3084 1418 2786 
Q 1159 2488 1159 1978 
L 1159 0 
L 581 0 
L 581 3500 
L 1159 3500 
L 1159 2956 
Q 1356 3278 1631 3431 
Q 1906 3584 2284 3584 
Q 2666 3584 2933 3390 
Q 3200 3197 3328 2828 
z
" transform="scale(0.015625)"/>
       <path id="DejaVuSans-65" d="M 3597 1894 
L 3597 1613 
L 953 1613 
Q 991 1019 1311 708 
Q 1631 397 2203 397 
Q 2534 397 2845 478 
Q 3156 559 3463 722 
L 3463 178 
Q 3153 47 2828 -22 
Q 2503 -91 2169 -91 
Q 1331 -91 842 396 
Q 353 884 353 1716 
Q 353 2575 817 3079 
Q 1281 3584 2069 3584 
Q 2775 3584 3186 3129 
Q 3597 2675 3597 1894 
z
M 3022 2063 
Q 3016 2534 2758 2815 
Q 2500 3097 2075 3097 
Q 1594 3097 1305 2825 
Q 1016 2553 972 2059 
L 3022 2063 
z
" transform="scale(0.015625)"/>
       <path id="DejaVuSans-20" transform="scale(0.015625)"/>
       <path id="DejaVuSans-28" d="M 1984 4856 
Q 1566 4138 1362 3434 
Q 1159 2731 1159 2009 
Q 1159 1288 1364 580 
Q 1569 -128 1984 -844 
L 1484 -844 
Q 1016 -109 783 600 
Q 550 1309 550 2009 
Q 550 2706 781 3412 
Q 1013 4119 1484 4856 
L 1984 4856 
z
" transform="scale(0.015625)"/>
       <path id="DejaVuSans-68" d="M 3513 2113 
L 3513 0 
L 2938 0 
L 2938 2094 
Q 2938 2591 2744 2837 
Q 2550 3084 2163 3084 
Q 1697 3084 1428 2787 
Q 1159 2491 1159 1978 
L 1159 0 
L 581 0 
L 581 4863 
L 1159 4863 
L 1159 2956 
Q 1366 3272 1645 3428 
Q 1925 3584 2291 3584 
Q 2894 3584 3203 3211 
Q 3513 2838 3513 2113 
z
" transform="scale(0.015625)"/>
       <path id="DejaVuSans-29" d="M 513 4856 
L 1013 4856 
Q 1481 4119 1714 3412 
Q 1947 2706 1947 2009 
Q 1947 1309 1714 600 
Q 1481 -109 1013 -844 
L 513 -844 
Q 928 -128 1133 580 
Q 1338 1288 1338 2009 
Q 1338 2731 1133 3434 
Q 928 4138 513 4856 
z
" transform="scale(0.015625)"/>
      </defs>
      <use xlink:href="#DejaVuSans-54"/>
      <use xlink:href="#DejaVuSans-69" x="57.958984"/>
      <use xlink:href="#DejaVuSans-6d" x="85.742188"/>
      <use xlink:href="#DejaVuSans-65" x="183.154297"/>
      <use xlink:href="#DejaVuSans-20" x="244.677734"/>
      <use xlink:href="#DejaVuSans-28" x="276.464844"/>
      <use xlink:href="#DejaVuSans-68" x="315.478516"/>
      <use xlink:href="#DejaVuSans-29" x="378.857422"/>
     </g>
    </g>
   </g>
   <g id="matplotlib.axis_2">
    <g id="ytick_1">
     <g id="line2d_8">
      <defs>
       <path id="m39794f9d42" d="M 0 0 
L -3.5 0 
" style="stroke: #000000; stroke-width: 0.5"/>
      </defs>
      <g>
       <use xlink:href="#m39794f9d42" x="31.5" y="63.718228" style="stroke: #000000; stroke-width: 0.5"/>
      </g>
     </g>
     <g id="text_9">
      <!-- 0 -->
      <g transform="translate(21.31875 65.617837) scale(0.05 -0.05)">
       <use xlink:href="#DejaVuSans-30"/>
      </g>
     </g>
    </g>
    <g id="ytick_2">
     <g id="line2d_9">
      <g>
       <use xlink:href="#m39794f9d42" x="31.5" y="51.658011" style="stroke: #000000; stroke-width: 0.5"/>
      </g>
     </g>
     <g id="text_10">
      <!-- 1 -->
      <g transform="translate(21.31875 53.55762) scale(0.05 -0.05)">
       <use xlink:href="#DejaVuSans-31"/>
      </g>
     </g>
    </g>
    <g id="ytick_3">
     <g id="line2d_10">
      <g>
       <use xlink:href="#m39794f9d42" x="31.5" y="39.597794" style="stroke: #000000; stroke-width: 0.5"/>
      </g>
     </g>
     <g id="text_11">
      <!-- 2 -->
      <g transform="translate(21.31875 41.497403) scale(0.05 -0.05)">
       <use xlink:href="#DejaVuSans-32"/>
      </g>
     </g>
    </g>
    <g id="ytick_4">
     <g id="line2d_11">
      <g>
       <use xlink:href="#m39794f9d42" x="31.5" y="27.537577" style="stroke: #000000; stroke-width: 0.5"/>
      </g>
     </g>
     <g id="text_12">
      <!-- 3 -->
      <g transform="translate(21.31875 29.437186) scale(0.05 -0.05)">
       <use xlink:href="#DejaVuSans-33"/>
      </g>
     </g>
    </g>
    <g id="ytick_5">
     <g id="line2d_12">
      <g>
       <use xlink:href="#m39794f9d42" x="31.5" y="15.47736" style="stroke: #000000; stroke-width: 0.5"/>
      </g>
     </g>
     <g id="text_13">
      <!-- 4 -->
      <g transform="translate(21.31875 17.376969) scale(0.05 -0.05)">
       <use xlink:href="#DejaVuSans-34"/>
      </g>
     </g>
    </g>
    <g id="text_14">
     <!-- p53 (a.u.) -->
     <g transform="translate(15.758984 54.688711) rotate(-90) scale(0.075 -0.075)">
      <defs>
       <path id="DejaVuSans-70" d="M 1159 525 
L 1159 -1331 
L 581 -1331 
L 581 3500 
L 1159 3500 
L 1159 2969 
Q 1341 3281 1617 3432 
Q 1894 3584 2278 3584 
Q 2916 3584 3314 3078 
Q 3713 2572 3713 1747 
Q 3713 922 3314 415 
Q 2916 -91 2278 -91 
Q 1894 -91 1617 61 
Q 1341 213 1159 525 
z
M 3116 1747 
Q 3116 2381 2855 2742 
Q 2594 3103 2138 3103 
Q 1681 3103 1420 2742 
Q 1159 2381 1159 1747 
Q 1159 1113 1420 752 
Q 1681 391 2138 391 
Q 2594 391 2855 752 
Q 3116 1113 3116 1747 
z
" transform="scale(0.015625)"/>
       <path id="DejaVuSans-61" d="M 2194 1759 
Q 1497 1759 1228 1600 
Q 959 1441 959 1056 
Q 959 750 1161 570 
Q 1363 391 1709 391 
Q 2188 391 2477 730 
Q 2766 1069 2766 1631 
L 2766 1759 
L 2194 1759 
z
M 3341 1997 
L 3341 0 
L 2766 0 
L 2766 531 
Q 2569 213 2275 61 
Q 1981 -91 1556 -91 
Q 1019 -91 701 211 
Q 384 513 384 1019 
Q 384 1609 779 1909 
Q 1175 2209 1959 2209 
L 2766 2209 
L 2766 2266 
Q 2766 2663 2505 2880 
Q 2244 3097 1772 3097 
Q 1472 3097 1187 3025 
Q 903 2953 641 2809 
L 641 3341 
Q 956 3463 1253 3523 
Q 1550 3584 1831 3584 
Q 2591 3584 2966 3190 
Q 3341 2797 3341 1997 
z
" transform="scale(0.015625)"/>
       <path id="DejaVuSans-2e" d="M 684 794 
L 1344 794 
L 1344 0 
L 684 0 
L 684 794 
z
" transform="scale(0.015625)"/>
       <path id="DejaVuSans-75" d="M 544 1381 
L 544 3500 
L 1119 3500 
L 1119 1403 
Q 1119 906 1312 657 
Q 1506 409 1894 409 
Q 2359 409 2629 706 
Q 2900 1003 2900 1516 
L 2900 3500 
L 3475 3500 
L 3475 0 
L 2900 0 
L 2900 538 
Q 2691 219 2414 64 
Q 2138 -91 1772 -91 
Q 1169 -91 856 284 
Q 544 659 544 1381 
z
M 1991 3584 
L 1991 3584 
z
" transform="scale(0.015625)"/>
      </defs>
      <use xlink:href="#DejaVuSans-70"/>
      <use xlink:href="#DejaVuSans-35" x="63.476562"/>
      <use xlink:href="#DejaVuSans-33" x="127.099609"/>
      <use xlink:href="#DejaVuSans-20" x="190.722656"/>
      <use xlink:href="#DejaVuSans-28" x="222.509766"/>
      <use xlink:href="#DejaVuSans-61" x="261.523438"/>
      <use xlink:href="#DejaVuSans-2e" x="322.802734"/>
      <use xlink:href="#DejaVuSans-75" x="354.589844"/>
      <use xlink:href="#DejaVuSans-2e" x="417.96875"/>
      <use xlink:href="#DejaVuSans-29" x="449.755859"/>
     </g>
    </g>
   </g>
   <g id="line2d_13">
    <path d="M 40.377273 60.182187 
L 41.176241 59.291957 
L 41.924903 58.117945 
L 42.638056 56.568525 
L 43.34529 54.474566 
L 44.082116 51.558253 
L 44.889962 47.394369 
L 45.878314 41.028329 
L 48.068078 26.503508 
L 48.582969 24.629395 
L 48.92327 24.075084 
L 49.139287 24.056471 
L 49.343468 24.298934 
L 49.60979 25.018535 
L 49.958969 26.686796 
L 50.40284 30.01556 
L 50.970995 36.13156 
L 51.840982 48.30008 
L 52.631072 58.304958 
L 52.971374 60.24169 
L 53.252492 60.757956 
L 53.572079 60.892636 
L 54.184621 60.857624 
L 55.18481 60.578151 
L 56.173163 60.073951 
L 57.060905 59.371213 
L 57.862832 58.448154 
L 58.611495 57.236466 
L 59.336484 55.622366 
L 60.067392 53.425566 
L 60.836768 50.368794 
L 61.697878 45.974656 
L 62.831229 38.903519 
L 64.44396 28.964183 
L 65.035788 26.620715 
L 65.432313 25.815302 
L 65.689758 25.695825 
L 65.893939 25.852098 
L 66.148425 26.378971 
L 66.479849 27.6455 
L 66.903006 30.241774 
L 67.441569 35.076749 
L 68.190232 44.061987 
L 69.362051 58.021274 
L 69.720107 59.896403 
L 70.016021 60.444533 
L 70.335608 60.594502 
L 70.868254 60.559472 
L 71.764873 60.267768 
L 72.688125 59.73684 
L 73.534439 58.991896 
L 74.312693 58.004314 
L 75.049519 56.698739 
L 75.774508 54.942878 
L 76.517252 52.529743 
L 77.310302 49.151438 
L 78.224676 44.210972 
L 79.733838 34.556834 
L 80.742905 28.825783 
L 81.31106 26.725655 
L 81.689829 26.034125 
L 81.935438 25.951955 
L 82.142578 26.129985 
L 82.402982 26.695937 
L 82.743283 28.038031 
L 83.175318 30.747115 
L 83.725718 35.753501 
L 84.50989 45.193474 
L 85.584058 57.775276 
L 85.953951 59.785499 
L 86.252824 60.375035 
L 86.569452 60.540553 
L 87.075465 60.515948 
L 87.942493 60.237374 
L 88.859826 59.712474 
L 89.703181 58.972143 
L 90.481435 57.986487 
L 91.218261 56.682999 
L 91.94325 54.930037 
L 92.685995 52.521378 
L 93.479044 49.1501 
L 94.393418 44.220761 
L 95.90258 34.588598 
L 96.914606 28.854752 
L 97.482761 26.762149 
L 97.861531 26.074183 
L 98.107139 25.993465 
L 98.314279 26.172096 
L 98.574684 26.737895 
L 98.914985 28.078109 
L 99.347019 30.78184 
L 99.897419 35.776529 
L 100.681591 45.192137 
L 101.755759 57.7491 
L 102.125652 59.766633 
L 102.427484 60.365806 
L 102.732276 60.521519 
L 103.054822 60.436722 
L 103.415837 60.095698 
L 103.803484 59.400932 
L 104.205927 58.187082 
L 104.632044 56.135008 
L 105.111424 52.623882 
L 105.71213 46.389794 
L 107.626694 25.100736 
L 107.98475 23.64613 
L 108.191889 23.465123 
L 108.330969 23.63499 
L 108.53515 24.320952 
L 108.828104 26.215129 
L 109.230548 30.467185 
L 109.831253 39.523063 
L 110.90838 55.709586 
L 111.269395 58.136139 
L 111.52684 58.677523 
L 111.695511 58.647368 
L 111.902651 58.315094 
L 112.219279 57.324121 
L 112.654273 55.152856 
L 113.24906 50.911064 
L 114.628019 40.716766 
L 114.997912 39.542221 
L 115.222807 39.381019 
L 115.3826 39.538534 
L 115.604536 40.136181 
L 115.921164 41.721698 
L 116.382789 45.329362 
L 117.75879 56.837342 
L 118.072459 57.63931 
L 118.279598 57.709062 
L 118.468983 57.503586 
L 118.735306 56.829808 
L 119.090403 55.25698 
L 119.525396 52.214866 
L 120.055083 46.771162 
L 120.800786 36.482963 
L 122.123522 18.227442 
L 122.579229 14.777779 
L 122.857388 13.979047 
L 122.99055 14.004741 
L 122.993509 14.008484 
L 123.144425 14.387943 
L 123.372279 15.683628 
L 123.685948 18.931327 
L 124.109105 25.919613 
L 124.733483 40.478935 
L 125.585716 59.577367 
L 125.837243 61.225522 
L 126.032546 61.406612 
L 126.269277 61.28455 
L 126.680597 60.793261 
L 127.148142 59.870792 
L 127.671909 58.29761 
L 129.243213 53.136617 
L 129.462189 53.094792 
L 129.657493 53.31422 
L 129.923815 54.007962 
L 130.323299 55.773348 
L 131.237673 59.953102 
L 131.577975 60.492888 
L 131.90348 60.628135 
L 132.258577 60.531961 
L 132.646224 60.18398 
L 133.042749 59.507446 
L 133.442233 58.352391 
L 133.856513 56.41646 
L 134.306302 53.155168 
L 134.835988 47.514084 
L 135.560977 37.090538 
L 137.022793 15.741426 
L 137.472582 12.249216 
L 137.747782 11.456403 
L 137.877984 11.493838 
L 138.025941 11.881624 
L 138.250836 13.206985 
L 138.564505 16.584215 
L 138.984703 23.825494 
L 139.600204 38.852113 
L 140.482028 59.755073 
L 140.724677 61.341532 
L 140.917021 61.50248 
L 141.165589 61.367631 
L 141.603542 60.852051 
L 142.094759 59.910961 
L 142.686587 58.239625 
L 143.716368 55.300259 
L 144.012282 55.041949 
L 144.210544 55.129624 
L 144.444316 55.522701 
L 144.781658 56.599204 
L 145.917968 60.618222 
L 146.281942 60.956346 
L 146.681426 61.031624 
L 147.110502 60.886042 
L 147.533659 60.499471 
L 147.94202 59.807948 
L 148.347422 58.649276 
L 148.761702 56.735377 
L 149.21445 53.489948 
L 149.750055 47.866019 
L 150.513513 37.156718 
L 151.788902 19.429744 
L 152.262365 15.688505 
L 152.558279 14.737949 
L 152.694399 14.716867 
L 152.709195 14.731265 
L 152.857152 15.060394 
L 153.079087 16.202006 
L 153.389797 19.132298 
L 153.809995 25.466041 
L 154.434374 38.735593 
L 155.381299 58.358983 
L 155.671294 60.516948 
L 155.884352 60.835755 
L 156.070778 60.754994 
L 156.381488 60.323421 
L 156.8224 59.303185 
L 157.360963 57.439 
L 158.787269 52.149408 
L 159.041755 51.973203 
L 159.225222 52.109676 
L 159.458994 52.618188 
L 159.793377 53.957759 
L 160.506529 58.051603 
L 160.956319 59.860799 
L 161.284783 60.389937 
L 161.592534 60.503895 
L 161.929876 60.383081 
L 162.305687 59.997023 
L 162.699252 59.249036 
L 163.101695 57.963456 
L 163.521893 55.807196 
L 163.983519 52.166412 
L 164.536878 45.847942 
L 165.347683 33.640316 
L 166.534298 16.242331 
L 167.007761 12.219084 
L 167.300715 11.206826 
L 167.427958 11.181753 
L 167.445713 11.199499 
L 167.587752 11.535087 
L 167.803769 12.728029 
L 168.105602 15.822893 
L 168.511004 22.562318 
L 169.088036 36.374707 
L 170.082307 60.195706 
L 170.31312 61.451191 
L 170.499546 61.556634 
L 170.774746 61.391455 
L 171.230454 60.845158 
L 171.727589 59.881004 
L 172.34309 58.139764 
L 173.269301 55.561919 
L 173.574093 55.273789 
L 173.778273 55.349606 
L 174.012045 55.724285 
L 174.346428 56.754026 
L 175.488656 60.663325 
L 175.858549 60.995712 
L 176.26691 61.070256 
L 176.719659 60.922013 
L 177.601483 60.343614 
L 178.477388 59.512873 
L 179.258601 58.458806 
L 179.98655 57.090853 
L 180.699702 55.255955 
L 181.427651 52.735914 
L 182.205905 49.193514 
L 183.105483 43.987069 
L 184.576176 33.883143 
L 185.591161 27.662707 
L 186.156357 25.413455 
L 186.532168 24.680662 
L 186.771858 24.598706 
L 186.97012 24.781453 
L 187.224607 25.370322 
L 187.558989 26.779825 
L 187.985106 29.648404 
L 188.529587 34.991341 
L 189.298964 45.027642 
L 190.340581 58.228535 
L 190.686801 60.137744 
L 190.970878 60.659346 
L 191.290465 60.799067 
L 191.873416 60.763843 
L 192.841055 60.47973 
L 193.805734 59.968328 
L 194.678681 59.253746 
L 195.47173 58.312696 
L 196.217434 57.071119 
L 196.942423 55.413445 
L 197.67629 53.15268 
L 198.451585 50.004035 
L 199.32749 45.452661 
L 200.528901 37.87846 
L 201.958166 29.154364 
L 202.558871 26.745722 
L 202.961314 25.90786 
L 203.221719 25.775083 
L 203.425899 25.921516 
L 203.677426 26.425526 
L 204.005891 27.648992 
L 204.426089 30.173168 
L 204.958734 34.869164 
L 205.69556 43.588114 
L 206.920644 58.09639 
L 207.2787 59.911459 
L 207.574614 60.437317 
L 207.89716 60.58023 
L 208.438683 60.538176 
L 209.335302 60.23727 
L 210.252636 59.698321 
L 211.093032 58.945553 
L 211.868326 57.946466 
L 212.605152 56.621771 
L 213.330142 54.841443 
L 214.072886 52.397968 
L 214.868895 48.970068 
L 215.792146 43.937327 
L 217.922727 30.565472 
L 217.922727 30.565472 
" clip-path="url(#pd06da99f31)" style="fill: none; stroke: #000000; stroke-width: 0.75; stroke-linecap: square"/>
   </g>
   <g id="LineCollection_1">
    <path d="M 102.519218 61.56 
L 102.519218 11.16 
" clip-path="url(#pd06da99f31)" style="fill: none; stroke-dasharray: 2.59,1.12; stroke-dashoffset: 0; stroke: #808080; stroke-width: 0.7"/>
    <path d="M 109.917068 61.56 
L 109.917068 11.16 
" clip-path="url(#pd06da99f31)" style="fill: none; stroke-dasharray: 2.59,1.12; stroke-dashoffset: 0; stroke: #808080; stroke-width: 0.7"/>
    <path d="M 117.314919 61.56 
L 117.314919 11.16 
" clip-path="url(#pd06da99f31)" style="fill: none; stroke-dasharray: 2.59,1.12; stroke-dashoffset: 0; stroke: #808080; stroke-width: 0.7"/>
    <path d="M 124.712769 61.56 
L 124.712769 11.16 
" clip-path="url(#pd06da99f31)" style="fill: none; stroke-dasharray: 2.59,1.12; stroke-dashoffset: 0; stroke: #808080; stroke-width: 0.7"/>
    <path d="M 132.11062 61.56 
L 132.11062 11.16 
" clip-path="url(#pd06da99f31)" style="fill: none; stroke-dasharray: 2.59,1.12; stroke-dashoffset: 0; stroke: #808080; stroke-width: 0.7"/>
    <path d="M 139.50847 61.56 
L 139.50847 11.16 
" clip-path="url(#pd06da99f31)" style="fill: none; stroke-dasharray: 2.59,1.12; stroke-dashoffset: 0; stroke: #808080; stroke-width: 0.7"/>
    <path d="M 146.906321 61.56 
L 146.906321 11.16 
" clip-path="url(#pd06da99f31)" style="fill: none; stroke-dasharray: 2.59,1.12; stroke-dashoffset: 0; stroke: #808080; stroke-width: 0.7"/>
    <path d="M 154.304172 61.56 
L 154.304172 11.16 
" clip-path="url(#pd06da99f31)" style="fill: none; stroke-dasharray: 2.59,1.12; stroke-dashoffset: 0; stroke: #808080; stroke-width: 0.7"/>
    <path d="M 161.702022 61.56 
L 161.702022 11.16 
" clip-path="url(#pd06da99f31)" style="fill: none; stroke-dasharray: 2.59,1.12; stroke-dashoffset: 0; stroke: #808080; stroke-width: 0.7"/>
    <path d="M 169.099873 61.56 
L 169.099873 11.16 
" clip-path="url(#pd06da99f31)" style="fill: none; stroke-dasharray: 2.59,1.12; stroke-dashoffset: 0; stroke: #808080; stroke-width: 0.7"/>
   </g>
   <g id="patch_3">
    <path d="M 31.5 64.08 
L 31.5 8.64 
" style="fill: none; stroke: #000000; stroke-width: 0.5; stroke-linejoin: miter; stroke-linecap: square"/>
   </g>
   <g id="patch_4">
    <path d="M 31.5 64.08 
L 226.8 64.08 
" style="fill: none; stroke: #000000; stroke-width: 0.5; stroke-linejoin: miter; stroke-linecap: square"/>
   </g>
  </g>
 </g>
 <defs>
  <clipPath id="pd06da99f31">
   <rect x="31.5" y="8.64" width="195.3" height="55.44"/>
  </clipPath>
 </defs>
</svg>
