<?xml version="1.0" encoding="utf-8" standalone="no"?>
<!DOCTYPE svg PUBLIC "-//W3C//DTD SVG 1.1//EN"
  "http://www.w3.org/Graphics/SVG/1.1/DTD/svg11.dtd">
<svg xmlns:xlink="http://www.w3.org/1999/xlink" width="216pt" height="144pt" viewBox="0 0 216 144" xmlns="http://www.w3.org/2000/svg" version="1.1">
 <metadata>
  <rdf:RDF xmlns:dc="http://purl.org/dc/elements/1.1/" xmlns:cc="http://creativecommons.org/ns#" xmlns:rdf="http://www.w3.org/1999/02/22-rdf-syntax-ns#">
   <cc:Work>
    <dc:type rdf:resource="http://purl.org/dc/dcmitype/StillImage"/>
    <dc:date>2024-05-30T15:42:08.714857</dc:date>
    <dc:format>image/svg+xml</dc:format>
    <dc:creator>
     <cc:Agent>
      <dc:title>Matplotlib v3.8.3, https://matplotlib.org/</dc:title>
     </cc:Agent>
    </dc:creator>
   </cc:Work>
  </rdf:RDF>
 </metadata>
 <defs>
  <style type="text/css">*{stroke-linejoin: round; stroke-linecap: butt}</style>
 </defs>
 <g id="figure_1">
  <g id="patch_1">
   <path d="M 0 144 
L 216 144 
L 216 0 
L 0 0 
z
" style="fill: #ffffff"/>
  </g>
  <g id="axes_1">
   <g id="patch_2">
    <path d="M 27 128.16 
L 194.4 128.16 
L 194.4 17.28 
L 27 17.28 
z
" style="fill: #ffffff"/>
   </g>
   <g id="matplotlib.axis_1">
    <g id="xtick_1">
     <g id="line2d_1">
      <defs>
       <path id="m1f27f7aa86" d="M 0 0 
L 0 3.5 
" style="stroke: #000000; stroke-width: 0.8"/>
      </defs>
      <g>
       <use xlink:href="#m1f27f7aa86" x="38.659701" y="128.16" style="stroke: #000000; stroke-width: 0.8"/>
      </g>
     </g>
     <g id="text_1">
      <!-- 20 -->
      <g transform="translate(32.297201 142.758438) scale(0.1 -0.1)">
       <defs>
        <path id="DejaVuSans-32" d="M 1228 531 
L 3431 531 
L 3431 0 
L 469 0 
L 469 531 
Q 828 903 1448 1529 
Q 2069 2156 2228 2338 
Q 2531 2678 2651 2914 
Q 2772 3150 2772 3378 
Q 2772 3750 2511 3984 
Q 2250 4219 1831 4219 
Q 1534 4219 1204 4116 
Q 875 4013 500 3803 
L 500 4441 
Q 881 4594 1212 4672 
Q 1544 4750 1819 4750 
Q 2544 4750 2975 4387 
Q 3406 4025 3406 3419 
Q 3406 3131 3298 2873 
Q 3191 2616 2906 2266 
Q 2828 2175 2409 1742 
Q 1991 1309 1228 531 
z
" transform="scale(0.015625)"/>
        <path id="DejaVuSans-30" d="M 2034 4250 
Q 1547 4250 1301 3770 
Q 1056 3291 1056 2328 
Q 1056 1369 1301 889 
Q 1547 409 2034 409 
Q 2525 409 2770 889 
Q 3016 1369 3016 2328 
Q 3016 3291 2770 3770 
Q 2525 4250 2034 4250 
z
M 2034 4750 
Q 2819 4750 3233 4129 
Q 3647 3509 3647 2328 
Q 3647 1150 3233 529 
Q 2819 -91 2034 -91 
Q 1250 -91 836 529 
Q 422 1150 422 2328 
Q 422 3509 836 4129 
Q 1250 4750 2034 4750 
z
" transform="scale(0.015625)"/>
       </defs>
       <use xlink:href="#DejaVuSans-32"/>
       <use xlink:href="#DejaVuSans-30" x="63.623047"/>
      </g>
     </g>
    </g>
    <g id="xtick_2">
     <g id="line2d_2">
      <g>
       <use xlink:href="#m1f27f7aa86" x="88.629851" y="128.16" style="stroke: #000000; stroke-width: 0.8"/>
      </g>
     </g>
     <g id="text_2">
      <!-- 40 -->
      <g transform="translate(82.267351 142.758438) scale(0.1 -0.1)">
       <defs>
        <path id="DejaVuSans-34" d="M 2419 4116 
L 825 1625 
L 2419 1625 
L 2419 4116 
z
M 2253 4666 
L 3047 4666 
L 3047 1625 
L 3713 1625 
L 3713 1100 
L 3047 1100 
L 3047 0 
L 2419 0 
L 2419 1100 
L 313 1100 
L 313 1709 
L 2253 4666 
z
" transform="scale(0.015625)"/>
       </defs>
       <use xlink:href="#DejaVuSans-34"/>
       <use xlink:href="#DejaVuSans-30" x="63.623047"/>
      </g>
     </g>
    </g>
    <g id="xtick_3">
     <g id="line2d_3">
      <g>
       <use xlink:href="#m1f27f7aa86" x="138.6" y="128.16" style="stroke: #000000; stroke-width: 0.8"/>
      </g>
     </g>
     <g id="text_3">
      <!-- 60 -->
      <g transform="translate(132.2375 142.758438) scale(0.1 -0.1)">
       <defs>
        <path id="DejaVuSans-36" d="M 2113 2584 
Q 1688 2584 1439 2293 
Q 1191 2003 1191 1497 
Q 1191 994 1439 701 
Q 1688 409 2113 409 
Q 2538 409 2786 701 
Q 3034 994 3034 1497 
Q 3034 2003 2786 2293 
Q 2538 2584 2113 2584 
z
M 3366 4563 
L 3366 3988 
Q 3128 4100 2886 4159 
Q 2644 4219 2406 4219 
Q 1781 4219 1451 3797 
Q 1122 3375 1075 2522 
Q 1259 2794 1537 2939 
Q 1816 3084 2150 3084 
Q 2853 3084 3261 2657 
Q 3669 2231 3669 1497 
Q 3669 778 3244 343 
Q 2819 -91 2113 -91 
Q 1303 -91 875 529 
Q 447 1150 447 2328 
Q 447 3434 972 4092 
Q 1497 4750 2381 4750 
Q 2619 4750 2861 4703 
Q 3103 4656 3366 4563 
z
" transform="scale(0.015625)"/>
       </defs>
       <use xlink:href="#DejaVuSans-36"/>
       <use xlink:href="#DejaVuSans-30" x="63.623047"/>
      </g>
     </g>
    </g>
    <g id="xtick_4">
     <g id="line2d_4">
      <g>
       <use xlink:href="#m1f27f7aa86" x="188.570149" y="128.16" style="stroke: #000000; stroke-width: 0.8"/>
      </g>
     </g>
     <g id="text_4">
      <!-- 80 -->
      <g transform="translate(182.207649 142.758438) scale(0.1 -0.1)">
       <defs>
        <path id="DejaVuSans-38" d="M 2034 2216 
Q 1584 2216 1326 1975 
Q 1069 1734 1069 1313 
Q 1069 891 1326 650 
Q 1584 409 2034 409 
Q 2484 409 2743 651 
Q 3003 894 3003 1313 
Q 3003 1734 2745 1975 
Q 2488 2216 2034 2216 
z
M 1403 2484 
Q 997 2584 770 2862 
Q 544 3141 544 3541 
Q 544 4100 942 4425 
Q 1341 4750 2034 4750 
Q 2731 4750 3128 4425 
Q 3525 4100 3525 3541 
Q 3525 3141 3298 2862 
Q 3072 2584 2669 2484 
Q 3125 2378 3379 2068 
Q 3634 1759 3634 1313 
Q 3634 634 3220 271 
Q 2806 -91 2034 -91 
Q 1263 -91 848 271 
Q 434 634 434 1313 
Q 434 1759 690 2068 
Q 947 2378 1403 2484 
z
M 1172 3481 
Q 1172 3119 1398 2916 
Q 1625 2713 2034 2713 
Q 2441 2713 2670 2916 
Q 2900 3119 2900 3481 
Q 2900 3844 2670 4047 
Q 2441 4250 2034 4250 
Q 1625 4250 1398 4047 
Q 1172 3844 1172 3481 
z
" transform="scale(0.015625)"/>
       </defs>
       <use xlink:href="#DejaVuSans-38"/>
       <use xlink:href="#DejaVuSans-30" x="63.623047"/>
      </g>
     </g>
    </g>
    <g id="text_5">
     <!-- Time (h) -->
     <g transform="translate(89.807031 156.436563) scale(0.1 -0.1)">
      <defs>
       <path id="DejaVuSans-54" d="M -19 4666 
L 3928 4666 
L 3928 4134 
L 2272 4134 
L 2272 0 
L 1638 0 
L 1638 4134 
L -19 4134 
L -19 4666 
z
" transform="scale(0.015625)"/>
       <path id="DejaVuSans-69" d="M 603 3500 
L 1178 3500 
L 1178 0 
L 603 0 
L 603 3500 
z
M 603 4863 
L 1178 4863 
L 1178 4134 
L 603 4134 
L 603 4863 
z
" transform="scale(0.015625)"/>
       <path id="DejaVuSans-6d" d="M 3328 2828 
Q 3544 3216 3844 3400 
Q 4144 3584 4550 3584 
Q 5097 3584 5394 3201 
Q 5691 2819 5691 2113 
L 5691 0 
L 5113 0 
L 5113 2094 
Q 5113 2597 4934 2840 
Q 4756 3084 4391 3084 
Q 3944 3084 3684 2787 
Q 3425 2491 3425 1978 
L 3425 0 
L 2847 0 
L 2847 2094 
Q 2847 2600 2669 2842 
Q 2491 3084 2119 3084 
Q 1678 3084 1418 2786 
Q 1159 2488 1159 1978 
L 1159 0 
L 581 0 
L 581 3500 
L 1159 3500 
L 1159 2956 
Q 1356 3278 1631 3431 
Q 1906 3584 2284 3584 
Q 2666 3584 2933 3390 
Q 3200 3197 3328 2828 
z
" transform="scale(0.015625)"/>
       <path id="DejaVuSans-65" d="M 3597 1894 
L 3597 1613 
L 953 1613 
Q 991 1019 1311 708 
Q 1631 397 2203 397 
Q 2534 397 2845 478 
Q 3156 559 3463 722 
L 3463 178 
Q 3153 47 2828 -22 
Q 2503 -91 2169 -91 
Q 1331 -91 842 396 
Q 353 884 353 1716 
Q 353 2575 817 3079 
Q 1281 3584 2069 3584 
Q 2775 3584 3186 3129 
Q 3597 2675 3597 1894 
z
M 3022 2063 
Q 3016 2534 2758 2815 
Q 2500 3097 2075 3097 
Q 1594 3097 1305 2825 
Q 1016 2553 972 2059 
L 3022 2063 
z
" transform="scale(0.015625)"/>
       <path id="DejaVuSans-20" transform="scale(0.015625)"/>
       <path id="DejaVuSans-28" d="M 1984 4856 
Q 1566 4138 1362 3434 
Q 1159 2731 1159 2009 
Q 1159 1288 1364 580 
Q 1569 -128 1984 -844 
L 1484 -844 
Q 1016 -109 783 600 
Q 550 1309 550 2009 
Q 550 2706 781 3412 
Q 1013 4119 1484 4856 
L 1984 4856 
z
" transform="scale(0.015625)"/>
       <path id="DejaVuSans-68" d="M 3513 2113 
L 3513 0 
L 2938 0 
L 2938 2094 
Q 2938 2591 2744 2837 
Q 2550 3084 2163 3084 
Q 1697 3084 1428 2787 
Q 1159 2491 1159 1978 
L 1159 0 
L 581 0 
L 581 4863 
L 1159 4863 
L 1159 2956 
Q 1366 3272 1645 3428 
Q 1925 3584 2291 3584 
Q 2894 3584 3203 3211 
Q 3513 2838 3513 2113 
z
" transform="scale(0.015625)"/>
       <path id="DejaVuSans-29" d="M 513 4856 
L 1013 4856 
Q 1481 4119 1714 3412 
Q 1947 2706 1947 2009 
Q 1947 1309 1714 600 
Q 1481 -109 1013 -844 
L 513 -844 
Q 928 -128 1133 580 
Q 1338 1288 1338 2009 
Q 1338 2731 1133 3434 
Q 928 4138 513 4856 
z
" transform="scale(0.015625)"/>
      </defs>
      <use xlink:href="#DejaVuSans-54"/>
      <use xlink:href="#DejaVuSans-69" x="57.958984"/>
      <use xlink:href="#DejaVuSans-6d" x="85.742188"/>
      <use xlink:href="#DejaVuSans-65" x="183.154297"/>
      <use xlink:href="#DejaVuSans-20" x="244.677734"/>
      <use xlink:href="#DejaVuSans-28" x="276.464844"/>
      <use xlink:href="#DejaVuSans-68" x="315.478516"/>
      <use xlink:href="#DejaVuSans-29" x="378.857422"/>
     </g>
    </g>
   </g>
   <g id="matplotlib.axis_2">
    <g id="ytick_1">
     <g id="line2d_5">
      <defs>
       <path id="mdda2bfa23e" d="M 0 0 
L -3.5 0 
" style="stroke: #000000; stroke-width: 0.8"/>
      </defs>
      <g>
       <use xlink:href="#mdda2bfa23e" x="27" y="120.409182" style="stroke: #000000; stroke-width: 0.8"/>
      </g>
     </g>
     <g id="text_6">
      <!-- 1 -->
      <g transform="translate(13.6375 124.208401) scale(0.1 -0.1)">
       <defs>
        <path id="DejaVuSans-31" d="M 794 531 
L 1825 531 
L 1825 4091 
L 703 3866 
L 703 4441 
L 1819 4666 
L 2450 4666 
L 2450 531 
L 3481 531 
L 3481 0 
L 794 0 
L 794 531 
z
" transform="scale(0.015625)"/>
       </defs>
       <use xlink:href="#DejaVuSans-31"/>
      </g>
     </g>
    </g>
    <g id="ytick_2">
     <g id="line2d_6">
      <g>
       <use xlink:href="#mdda2bfa23e" x="27" y="80.49717" style="stroke: #000000; stroke-width: 0.8"/>
      </g>
     </g>
     <g id="text_7">
      <!-- 2 -->
      <g transform="translate(13.6375 84.296389) scale(0.1 -0.1)">
       <use xlink:href="#DejaVuSans-32"/>
      </g>
     </g>
    </g>
    <g id="ytick_3">
     <g id="line2d_7">
      <g>
       <use xlink:href="#mdda2bfa23e" x="27" y="40.585157" style="stroke: #000000; stroke-width: 0.8"/>
      </g>
     </g>
     <g id="text_8">
      <!-- 3 -->
      <g transform="translate(13.6375 44.384376) scale(0.1 -0.1)">
       <defs>
        <path id="DejaVuSans-33" d="M 2597 2516 
Q 3050 2419 3304 2112 
Q 3559 1806 3559 1356 
Q 3559 666 3084 287 
Q 2609 -91 1734 -91 
Q 1441 -91 1130 -33 
Q 819 25 488 141 
L 488 750 
Q 750 597 1062 519 
Q 1375 441 1716 441 
Q 2309 441 2620 675 
Q 2931 909 2931 1356 
Q 2931 1769 2642 2001 
Q 2353 2234 1838 2234 
L 1294 2234 
L 1294 2753 
L 1863 2753 
Q 2328 2753 2575 2939 
Q 2822 3125 2822 3475 
Q 2822 3834 2567 4026 
Q 2313 4219 1838 4219 
Q 1578 4219 1281 4162 
Q 984 4106 628 3988 
L 628 4550 
Q 988 4650 1302 4700 
Q 1616 4750 1894 4750 
Q 2613 4750 3031 4423 
Q 3450 4097 3450 3541 
Q 3450 3153 3228 2886 
Q 3006 2619 2597 2516 
z
" transform="scale(0.015625)"/>
       </defs>
       <use xlink:href="#DejaVuSans-33"/>
      </g>
     </g>
    </g>
    <g id="text_9">
     <!-- p53 level (F.C.) -->
     <g transform="translate(7.557812 109.966094) rotate(-90) scale(0.1 -0.1)">
      <defs>
       <path id="DejaVuSans-70" d="M 1159 525 
L 1159 -1331 
L 581 -1331 
L 581 3500 
L 1159 3500 
L 1159 2969 
Q 1341 3281 1617 3432 
Q 1894 3584 2278 3584 
Q 2916 3584 3314 3078 
Q 3713 2572 3713 1747 
Q 3713 922 3314 415 
Q 2916 -91 2278 -91 
Q 1894 -91 1617 61 
Q 1341 213 1159 525 
z
M 3116 1747 
Q 3116 2381 2855 2742 
Q 2594 3103 2138 3103 
Q 1681 3103 1420 2742 
Q 1159 2381 1159 1747 
Q 1159 1113 1420 752 
Q 1681 391 2138 391 
Q 2594 391 2855 752 
Q 3116 1113 3116 1747 
z
" transform="scale(0.015625)"/>
       <path id="DejaVuSans-35" d="M 691 4666 
L 3169 4666 
L 3169 4134 
L 1269 4134 
L 1269 2991 
Q 1406 3038 1543 3061 
Q 1681 3084 1819 3084 
Q 2600 3084 3056 2656 
Q 3513 2228 3513 1497 
Q 3513 744 3044 326 
Q 2575 -91 1722 -91 
Q 1428 -91 1123 -41 
Q 819 9 494 109 
L 494 744 
Q 775 591 1075 516 
Q 1375 441 1709 441 
Q 2250 441 2565 725 
Q 2881 1009 2881 1497 
Q 2881 1984 2565 2268 
Q 2250 2553 1709 2553 
Q 1456 2553 1204 2497 
Q 953 2441 691 2322 
L 691 4666 
z
" transform="scale(0.015625)"/>
       <path id="DejaVuSans-6c" d="M 603 4863 
L 1178 4863 
L 1178 0 
L 603 0 
L 603 4863 
z
" transform="scale(0.015625)"/>
       <path id="DejaVuSans-76" d="M 191 3500 
L 800 3500 
L 1894 563 
L 2988 3500 
L 3597 3500 
L 2284 0 
L 1503 0 
L 191 3500 
z
" transform="scale(0.015625)"/>
       <path id="DejaVuSans-46" d="M 628 4666 
L 3309 4666 
L 3309 4134 
L 1259 4134 
L 1259 2759 
L 3109 2759 
L 3109 2228 
L 1259 2228 
L 1259 0 
L 628 0 
L 628 4666 
z
" transform="scale(0.015625)"/>
       <path id="DejaVuSans-2e" d="M 684 794 
L 1344 794 
L 1344 0 
L 684 0 
L 684 794 
z
" transform="scale(0.015625)"/>
       <path id="DejaVuSans-43" d="M 4122 4306 
L 4122 3641 
Q 3803 3938 3442 4084 
Q 3081 4231 2675 4231 
Q 1875 4231 1450 3742 
Q 1025 3253 1025 2328 
Q 1025 1406 1450 917 
Q 1875 428 2675 428 
Q 3081 428 3442 575 
Q 3803 722 4122 1019 
L 4122 359 
Q 3791 134 3420 21 
Q 3050 -91 2638 -91 
Q 1578 -91 968 557 
Q 359 1206 359 2328 
Q 359 3453 968 4101 
Q 1578 4750 2638 4750 
Q 3056 4750 3426 4639 
Q 3797 4528 4122 4306 
z
" transform="scale(0.015625)"/>
      </defs>
      <use xlink:href="#DejaVuSans-70"/>
      <use xlink:href="#DejaVuSans-35" x="63.476562"/>
      <use xlink:href="#DejaVuSans-33" x="127.099609"/>
      <use xlink:href="#DejaVuSans-20" x="190.722656"/>
      <use xlink:href="#DejaVuSans-6c" x="222.509766"/>
      <use xlink:href="#DejaVuSans-65" x="250.292969"/>
      <use xlink:href="#DejaVuSans-76" x="311.816406"/>
      <use xlink:href="#DejaVuSans-65" x="370.996094"/>
      <use xlink:href="#DejaVuSans-6c" x="432.519531"/>
      <use xlink:href="#DejaVuSans-20" x="460.302734"/>
      <use xlink:href="#DejaVuSans-28" x="492.089844"/>
      <use xlink:href="#DejaVuSans-46" x="531.103516"/>
      <use xlink:href="#DejaVuSans-2e" x="572.498047"/>
      <use xlink:href="#DejaVuSans-43" x="604.285156"/>
      <use xlink:href="#DejaVuSans-2e" x="674.109375"/>
      <use xlink:href="#DejaVuSans-29" x="705.896484"/>
     </g>
    </g>
   </g>
   <g id="line2d_8">
    <path d="M 29.914925 91.175078 
L 30.331343 99.365764 
L 30.747761 97.928317 
L 31.164179 91.475325 
L 31.580597 92.036331 
L 31.997015 89.397894 
L 32.413433 88.281578 
L 33.246269 96.281371 
L 34.079104 100.910192 
L 34.495522 104.012052 
L 34.91194 108.45444 
L 35.744776 113.328927 
L 36.577612 110.173529 
L 36.99403 109.311327 
L 37.410448 109.015066 
L 37.826866 106.365049 
L 38.243284 106.017434 
L 38.659701 105.06847 
L 39.076119 102.118111 
L 40.325373 97.091554 
L 40.741791 100.585644 
L 41.158209 96.874082 
L 41.574627 100.418481 
L 41.991045 95.334116 
L 42.407463 97.525266 
L 42.823881 93.353129 
L 43.240299 93.96397 
L 43.656716 77.342722 
L 44.489552 110.773075 
L 44.90597 119.444461 
L 45.322388 118.733759 
L 45.738806 120.366086 
L 46.155224 119.657757 
L 46.571642 118.39687 
L 46.98806 120.294798 
L 47.404478 121.602862 
L 47.820896 121.697313 
L 48.237313 118.749801 
L 48.653731 118.826595 
L 49.070149 117.545204 
L 49.486567 113.625947 
L 49.902985 115.593644 
L 50.319403 112.468718 
L 50.735821 110.927802 
L 51.568657 104.195731 
L 53.234328 81.622884 
L 53.650746 78.113606 
L 54.067164 77.787255 
L 54.483582 79.093136 
L 54.9 84.448512 
L 55.316418 97.663002 
L 55.732836 106.064992 
L 56.149254 108.556105 
L 56.565672 114.013335 
L 56.98209 117.091938 
L 57.398507 107.601066 
L 57.814925 113.566524 
L 58.231343 107.45621 
L 58.647761 104.502528 
L 59.480597 97.643827 
L 61.146269 86.979019 
L 61.562687 82.23382 
L 61.979104 79.280992 
L 62.395522 78.391926 
L 62.81194 80.840798 
L 64.061194 91.222255 
L 64.477612 95.17673 
L 64.89403 97.020835 
L 65.310448 103.254551 
L 66.143284 107.762818 
L 66.559701 109.121477 
L 66.976119 111.310444 
L 67.808955 111.59446 
L 68.225373 110.333003 
L 68.641791 110.996718 
L 69.058209 110.896572 
L 69.891045 106.339514 
L 70.307463 105.46013 
L 70.723881 103.817835 
L 71.140299 91.058795 
L 71.973134 108.272184 
L 72.389552 112.704701 
L 72.80597 114.669835 
L 73.222388 112.567724 
L 73.638806 113.214732 
L 74.055224 113.566619 
L 74.471642 112.550258 
L 74.88806 113.064561 
L 75.304478 112.113699 
L 75.720896 109.386412 
L 76.137313 109.641191 
L 76.553731 108.843157 
L 76.970149 108.480355 
L 77.386567 106.422289 
L 78.219403 104.095206 
L 79.052239 97.753276 
L 79.468657 97.956225 
L 79.885075 95.746184 
L 80.301493 96.253653 
L 80.71791 96.48413 
L 81.134328 99.938066 
L 81.967164 109.135526 
L 82.8 112.203877 
L 83.216418 110.346293 
L 84.049254 110.736054 
L 84.465672 110.415873 
L 84.88209 94.746246 
L 85.298507 101.897221 
L 85.714925 93.085156 
L 86.131343 86.747592 
L 86.547761 75.867399 
L 87.380597 62.797195 
L 87.797015 55.717604 
L 88.213433 46.510367 
L 88.629851 46.531535 
L 89.046269 50.399629 
L 89.879104 65.486606 
L 90.71194 85.786098 
L 91.544776 98.191544 
L 91.961194 98.546563 
L 92.377612 98.466066 
L 92.79403 103.387256 
L 93.210448 103.05369 
L 93.626866 103.742085 
L 94.043284 101.861434 
L 94.459701 97.604908 
L 94.876119 98.792228 
L 95.292537 97.548333 
L 95.708955 95.367054 
L 96.125373 92.561455 
L 97.374627 75.595914 
L 97.791045 68.717089 
L 98.207463 56.920112 
L 98.623881 25.822443 
L 99.040299 42.79235 
L 99.456716 68.888998 
L 99.873134 79.55542 
L 101.122388 101.03274 
L 101.538806 104.938708 
L 102.78806 107.880619 
L 103.204478 107.982379 
L 103.620896 108.385809 
L 104.037313 104.633904 
L 104.453731 104.375709 
L 104.870149 103.561728 
L 105.286567 102.01806 
L 105.702985 100.919684 
L 106.119403 100.236605 
L 106.535821 97.529728 
L 107.368657 96.433725 
L 107.785075 92.330693 
L 108.201493 91.569396 
L 108.61791 84.77999 
L 109.450746 79.611236 
L 110.283582 68.140041 
L 110.7 65.166994 
L 111.116418 65.266665 
L 111.532836 64.587003 
L 111.949254 68.240946 
L 112.365672 56.850153 
L 112.78209 74.410588 
L 113.614925 64.999642 
L 114.031343 64.172562 
L 114.447761 65.893454 
L 114.864179 73.593 
L 115.280597 75.124992 
L 115.697015 81.427623 
L 116.113433 82.860799 
L 116.529851 86.437663 
L 116.946269 88.343089 
L 117.362687 92.393248 
L 117.779104 93.478619 
L 118.195522 95.515327 
L 118.61194 96.264854 
L 119.028358 97.606617 
L 119.444776 95.222674 
L 119.861194 96.033332 
L 120.277612 95.159834 
L 120.69403 95.156511 
L 121.526866 91.485577 
L 121.943284 90.435518 
L 122.359701 86.040307 
L 123.192537 82.478157 
L 124.025373 71.823221 
L 124.441791 70.353024 
L 124.858209 67.469207 
L 125.274627 68.757432 
L 125.691045 68.587517 
L 126.107463 47.963857 
L 126.940299 93.792251 
L 127.356716 96.50976 
L 128.189552 106.570656 
L 128.60597 109.859993 
L 129.022388 109.126888 
L 129.438806 107.94868 
L 129.855224 108.90258 
L 130.271642 108.198333 
L 131.104478 104.531765 
L 131.520896 106.050468 
L 131.937313 105.60622 
L 132.770149 103.435953 
L 133.186567 102.924687 
L 134.435821 98.522737 
L 134.852239 95.220016 
L 135.268657 90.517153 
L 136.101493 77.137684 
L 136.51791 73.584267 
L 136.934328 72.577209 
L 137.350746 69.769521 
L 137.767164 64.90073 
L 138.183582 66.376812 
L 138.6 63.560486 
L 139.432836 81.016219 
L 139.849254 71.729625 
L 140.265672 85.031161 
L 140.68209 83.525178 
L 141.098507 81.259701 
L 141.514925 81.095196 
L 141.931343 80.721667 
L 142.347761 81.530047 
L 142.764179 83.071722 
L 143.180597 81.681357 
L 143.597015 83.498884 
L 144.013433 82.37953 
L 144.429851 84.553024 
L 144.846269 84.648804 
L 145.262687 85.112891 
L 145.679104 85.409816 
L 146.095522 84.170857 
L 146.51194 85.205063 
L 146.928358 82.022707 
L 147.344776 80.150124 
L 147.761194 79.703123 
L 148.177612 78.643667 
L 148.59403 77.049214 
L 149.010448 73.652233 
L 149.426866 72.907832 
L 149.843284 67.264739 
L 150.259701 64.916013 
L 150.676119 61.670817 
L 151.508955 58.365628 
L 151.925373 60.497356 
L 152.341791 60.09962 
L 153.174627 65.126556 
L 153.591045 45.139462 
L 154.007463 72.566198 
L 154.423881 86.573025 
L 154.840299 93.446345 
L 156.089552 97.435182 
L 156.50597 96.466949 
L 156.922388 96.266562 
L 157.338806 96.445496 
L 157.755224 96.285642 
L 158.171642 95.679262 
L 158.58806 93.607717 
L 159.004478 94.36256 
L 159.420896 91.792754 
L 159.837313 92.407962 
L 160.253731 91.927357 
L 160.670149 89.16324 
L 161.086567 90.95713 
L 161.502985 87.689437 
L 161.919403 87.123969 
L 162.335821 85.199083 
L 162.752239 82.65766 
L 163.168657 82.207526 
L 164.001493 75.660558 
L 164.41791 68.750218 
L 164.834328 66.688165 
L 165.667164 57.312057 
L 166.5 50.090743 
L 166.916418 53.68251 
L 167.332836 42.425655 
L 167.749254 53.89761 
L 168.165672 51.327709 
L 168.58209 53.591097 
L 168.998507 54.132928 
L 169.831343 60.860823 
L 170.247761 61.419266 
L 170.664179 69.885804 
L 171.080597 71.901154 
L 171.497015 76.793202 
L 171.913433 79.03153 
L 172.329851 79.203344 
L 172.746269 82.39168 
L 173.162687 78.955305 
L 173.579104 81.705563 
L 173.995522 80.607852 
L 174.41194 81.156423 
L 174.828358 78.662272 
L 175.244776 81.694267 
L 175.661194 81.527674 
L 176.077612 75.643092 
L 176.49403 79.178284 
L 177.326866 73.138405 
L 177.743284 72.233961 
L 178.159701 66.670794 
L 178.576119 64.031029 
L 178.992537 56.621668 
L 179.408955 57.695648 
L 179.825373 54.06724 
L 180.241791 46.121365 
L 180.658209 42.713088 
L 181.074627 35.712094 
L 181.491045 33.653174 
L 181.907463 54.472 
L 182.740299 78.318739 
L 183.156716 84.707467 
L 183.573134 86.350047 
L 183.989552 86.851725 
L 184.40597 89.468708 
L 185.238806 91.983173 
L 185.655224 92.524909 
L 186.071642 90.316292 
L 186.48806 90.948397 
L 186.904478 94.098194 
L 187.320896 91.219502 
L 187.737313 91.439443 
L 188.153731 92.728998 
L 188.570149 88.638211 
L 188.986567 90.393182 
L 189.402985 90.410363 
L 189.819403 89.525758 
L 190.235821 86.044389 
L 190.652239 86.309704 
L 191.485075 82.563304 
L 191.901493 83.361053 
L 192.31791 78.99935 
L 192.734328 78.711443 
L 193.150746 74.721467 
L 193.567164 72.198269 
L 193.983582 66.740754 
L 194.4 64.543908 
L 194.816418 58.784247 
L 195.232836 50.184814 
L 195.649254 48.751258 
L 196.065672 48.444366 
L 196.898507 30.321027 
L 197.314925 24.142083 
L 197.731343 26.039631 
L 198.147761 22.32 
L 198.564179 25.821778 
L 198.980597 32.275435 
L 199.813433 49.859031 
L 200.229851 58.705839 
L 200.646269 64.45857 
L 201.479104 81.527294 
L 201.895522 81.168763 
L 202.31194 86.960319 
L 202.728358 84.96851 
L 203.561194 88.828725 
L 203.977612 87.147701 
L 204.39403 88.821036 
L 204.810448 89.911818 
L 205.226866 91.492506 
L 205.643284 88.187318 
L 206.059701 89.246489 
L 206.476119 86.931841 
L 206.892537 86.609287 
L 207.308955 83.21933 
L 207.725373 85.180668 
L 208.141791 83.620862 
L 208.558209 81.548842 
L 208.974627 82.36026 
L 209.807463 88.773858 
L 210.223881 88.091538 
L 210.640299 90.753991 
L 211.056716 90.332714 
L 211.473134 88.880079 
L 211.889552 88.090209 
L 212.30597 81.144178 
L 212.722388 84.763663 
L 213.138806 80.461003 
L 213.555224 79.261913 
L 213.971642 79.549535 
L 214.804478 74.789623 
L 215.220896 74.929352 
L 215.637313 69.435006 
L 216.053731 67.002746 
L 216.470149 68.225568 
L 217 61.66663 
L 217 61.66663 
" clip-path="url(#pab8dfea6d7)" style="fill: none; stroke: #008000; stroke-width: 1.5; stroke-linecap: square"/>
   </g>
   <g id="LineCollection_1">
    <path d="M 29.498507 121.697313 
L 29.498507 22.32 
" clip-path="url(#pab8dfea6d7)" style="fill: none; stroke-dasharray: 5.55,2.4; stroke-dashoffset: 0; stroke: #7f7f7f; stroke-width: 1.5"/>
    <path d="M 56.98209 121.697313 
L 56.98209 22.32 
" clip-path="url(#pab8dfea6d7)" style="fill: none; stroke-dasharray: 5.55,2.4; stroke-dashoffset: 0; stroke: #7f7f7f; stroke-width: 1.5"/>
    <path d="M 84.465672 121.697313 
L 84.465672 22.32 
" clip-path="url(#pab8dfea6d7)" style="fill: none; stroke-dasharray: 5.55,2.4; stroke-dashoffset: 0; stroke: #7f7f7f; stroke-width: 1.5"/>
    <path d="M 111.949254 121.697313 
L 111.949254 22.32 
" clip-path="url(#pab8dfea6d7)" style="fill: none; stroke-dasharray: 5.55,2.4; stroke-dashoffset: 0; stroke: #7f7f7f; stroke-width: 1.5"/>
    <path d="M 139.432836 121.697313 
L 139.432836 22.32 
" clip-path="url(#pab8dfea6d7)" style="fill: none; stroke-dasharray: 5.55,2.4; stroke-dashoffset: 0; stroke: #7f7f7f; stroke-width: 1.5"/>
    <path d="M 166.916418 121.697313 
L 166.916418 22.32 
" clip-path="url(#pab8dfea6d7)" style="fill: none; stroke-dasharray: 5.55,2.4; stroke-dashoffset: 0; stroke: #7f7f7f; stroke-width: 1.5"/>
    <path d="M 194.4 121.697313 
L 194.4 22.32 
" clip-path="url(#pab8dfea6d7)" style="fill: none; stroke-dasharray: 5.55,2.4; stroke-dashoffset: 0; stroke: #7f7f7f; stroke-width: 1.5"/>
   </g>
   <g id="line2d_9">
    <path d="M 29.914925 93.72598 
L 30.331343 96.527495 
L 30.747761 92.668549 
L 31.580597 82.419616 
L 31.997015 79.504248 
L 32.413433 77.743582 
L 32.829851 82.026289 
L 33.246269 87.80202 
L 33.662687 91.237205 
L 34.91194 108.976327 
L 35.328358 113.996041 
L 35.744776 116.416464 
L 36.161194 116.117779 
L 36.577612 117.625665 
L 36.99403 117.711914 
L 37.410448 118.832034 
L 37.826866 118.672277 
L 38.243284 117.804431 
L 38.659701 117.792803 
L 39.076119 120.181275 
L 39.908955 118.280164 
L 40.325373 118.454987 
L 40.741791 116.348416 
L 41.158209 113.375313 
L 41.574627 112.875415 
L 41.991045 113.846092 
L 42.407463 110.270158 
L 42.823881 108.837803 
L 43.240299 104.111415 
L 43.656716 89.166326 
L 44.90597 111.360653 
L 45.738806 120.994925 
L 46.155224 119.607262 
L 46.571642 122.024955 
L 46.98806 122.784004 
L 47.404478 122.255491 
L 47.820896 123.12 
L 48.237313 122.767927 
L 48.653731 121.15721 
L 49.070149 121.992195 
L 49.486567 120.672074 
L 49.902985 121.745683 
L 50.319403 121.904025 
L 50.735821 119.325563 
L 51.152239 119.184006 
L 51.568657 118.719598 
L 51.985075 118.44983 
L 52.401493 117.657718 
L 52.81791 115.274706 
L 53.234328 114.012623 
L 53.650746 107.806863 
L 54.067164 109.651756 
L 54.483582 105.22102 
L 55.732836 99.212024 
L 56.565672 96.791398 
L 56.98209 97.556818 
L 57.398507 88.415063 
L 57.814925 98.317788 
L 58.647761 82.965419 
L 59.064179 84.081192 
L 59.480597 83.134681 
L 59.897015 90.789885 
L 60.313433 95.633967 
L 60.729851 95.138214 
L 61.146269 102.667533 
L 61.562687 101.588261 
L 61.979104 102.809899 
L 62.395522 108.278652 
L 62.81194 108.675214 
L 63.228358 108.404234 
L 63.644776 108.776428 
L 64.061194 110.714445 
L 64.477612 110.372281 
L 64.89403 111.732746 
L 65.310448 114.357618 
L 65.726866 112.382998 
L 66.143284 114.252158 
L 66.976119 109.999885 
L 67.392537 109.970664 
L 67.808955 109.051756 
L 68.225373 106.373396 
L 68.641791 104.967026 
L 69.058209 104.037704 
L 69.474627 102.584318 
L 69.891045 97.975119 
L 70.307463 96.920013 
L 71.140299 75.79424 
L 71.556716 77.73711 
L 71.973134 82.562892 
L 72.389552 96.519103 
L 72.80597 106.72385 
L 73.222388 112.229813 
L 73.638806 114.729205 
L 74.471642 117.218587 
L 74.88806 115.295332 
L 75.304478 115.777638 
L 75.720896 114.962673 
L 76.137313 116.851449 
L 76.553731 114.952866 
L 76.970149 117.30524 
L 77.802985 119.757312 
L 78.219403 114.795636 
L 78.635821 114.774908 
L 79.468657 112.128196 
L 79.885075 114.972279 
L 80.301493 110.709389 
L 81.967164 103.815055 
L 82.383582 103.689878 
L 82.8 100.718596 
L 83.216418 95.061369 
L 84.049254 94.349842 
L 84.465672 90.565314 
L 84.88209 77.411226 
L 85.298507 88.7457 
L 86.131343 77.442571 
L 86.547761 78.621134 
L 86.964179 82.538827 
L 87.380597 82.914863 
L 87.797015 91.727397 
L 88.213433 95.201005 
L 88.629851 100.1917 
L 89.046269 101.823853 
L 89.462687 104.474812 
L 89.879104 109.661463 
L 90.295522 111.439116 
L 90.71194 111.924454 
L 91.128358 111.40676 
L 91.544776 114.571268 
L 91.961194 114.376223 
L 92.377612 112.849934 
L 92.79403 113.535374 
L 93.210448 116.063987 
L 93.626866 116.042552 
L 94.043284 114.234261 
L 94.459701 116.326272 
L 94.876119 113.595738 
L 95.292537 109.1285 
L 95.708955 112.950844 
L 96.541791 105.620413 
L 96.958209 105.213032 
L 97.374627 103.492103 
L 97.791045 102.675015 
L 98.207463 98.907575 
L 98.623881 93.383311 
L 99.040299 93.596152 
L 99.456716 98.529719 
L 99.873134 106.06015 
L 100.70597 112.157923 
L 101.122388 114.023038 
L 101.538806 113.943361 
L 101.955224 116.232036 
L 102.371642 114.19412 
L 102.78806 116.81515 
L 103.204478 117.163785 
L 103.620896 114.522835 
L 104.037313 114.381885 
L 104.453731 115.789367 
L 104.870149 113.128498 
L 105.286567 111.219399 
L 105.702985 108.072687 
L 106.119403 109.629815 
L 106.535821 109.544476 
L 106.952239 108.884416 
L 107.368657 109.539825 
L 107.785075 107.627996 
L 108.201493 107.742657 
L 108.61791 106.542961 
L 109.034328 106.12193 
L 109.450746 104.903831 
L 109.867164 102.907573 
L 110.283582 103.4282 
L 110.7 101.748726 
L 111.116418 99.252772 
L 111.532836 95.593118 
L 111.949254 94.5824 
L 112.365672 91.095344 
L 112.78209 90.261776 
L 113.198507 91.587356 
L 113.614925 85.725074 
L 114.031343 87.073304 
L 114.447761 86.221838 
L 114.864179 87.05298 
L 115.280597 90.230734 
L 116.113433 101.98998 
L 116.529851 105.30464 
L 116.946269 107.537702 
L 117.362687 107.431332 
L 117.779104 108.178046 
L 118.195522 110.757822 
L 118.61194 107.865407 
L 119.444776 109.204335 
L 119.861194 109.075518 
L 120.277612 112.198367 
L 120.69403 110.015962 
L 121.110448 108.846397 
L 121.526866 109.725264 
L 121.943284 111.569753 
L 122.359701 110.718186 
L 122.776119 109.427287 
L 123.192537 108.524962 
L 123.608955 107.059846 
L 124.025373 107.245084 
L 124.441791 108.358936 
L 124.858209 108.207571 
L 125.274627 106.150544 
L 125.691045 105.183507 
L 126.107463 105.297259 
L 126.523881 98.916271 
L 126.940299 104.356511 
L 127.773134 109.13578 
L 128.189552 110.01849 
L 128.60597 111.783909 
L 129.022388 110.560957 
L 129.438806 113.267427 
L 129.855224 113.097861 
L 130.271642 113.777032 
L 130.68806 115.267223 
L 131.104478 114.411005 
L 131.520896 110.352362 
L 131.937313 112.231229 
L 132.353731 109.773798 
L 132.770149 113.035576 
L 133.186567 111.495435 
L 133.602985 112.765405 
L 134.019403 111.765203 
L 134.435821 110.097661 
L 134.852239 110.391796 
L 135.268657 109.263991 
L 135.685075 109.7558 
L 136.51791 99.975219 
L 136.934328 95.712936 
L 137.350746 94.819104 
L 138.183582 88.866124 
L 138.6 84.88645 
L 139.016418 85.518805 
L 139.432836 83.795449 
L 139.849254 84.979068 
L 140.265672 83.1 
L 140.68209 85.112435 
L 141.514925 72.453291 
L 141.931343 72.306779 
L 142.347761 70.907387 
L 142.764179 79.222044 
L 143.180597 82.132255 
L 143.597015 87.478056 
L 144.013433 91.147013 
L 144.429851 92.318094 
L 144.846269 96.727394 
L 145.262687 99.242459 
L 145.679104 100.008687 
L 146.095522 101.290688 
L 146.51194 97.660963 
L 146.928358 101.854389 
L 147.344776 100.672488 
L 147.761194 101.507169 
L 148.59403 100.278151 
L 149.010448 100.023449 
L 149.426866 101.785228 
L 149.843284 98.309092 
L 150.259701 96.905251 
L 150.676119 94.572491 
L 151.092537 95.334068 
L 151.508955 90.752675 
L 151.925373 91.223454 
L 152.341791 91.320825 
L 152.758209 89.432049 
L 153.174627 89.267337 
L 153.591045 84.907683 
L 154.007463 81.836097 
L 154.423881 86.522546 
L 154.840299 93.557426 
L 155.673134 101.108585 
L 156.50597 105.816571 
L 156.922388 106.269351 
L 157.338806 106.124356 
L 157.755224 106.549432 
L 158.171642 107.610806 
L 158.58806 109.65944 
L 159.004478 108.458935 
L 159.420896 108.295639 
L 159.837313 106.635883 
L 160.253731 106.940736 
L 160.670149 106.540938 
L 161.086567 105.002618 
L 161.502985 108.355093 
L 161.919403 104.003427 
L 162.335821 105.291596 
L 162.752239 101.411922 
L 163.168657 101.812427 
L 163.585075 99.259142 
L 164.001493 98.253683 
L 164.41791 96.530124 
L 164.834328 94.251359 
L 165.250746 93.470369 
L 166.916418 82.801618 
L 167.332836 78.192216 
L 168.165672 64.484943 
L 168.58209 61.679586 
L 168.998507 53.923169 
L 169.414925 52.043999 
L 169.831343 45.482223 
L 170.247761 41.130961 
L 170.664179 46.681211 
L 171.080597 43.628634 
L 171.497015 57.118213 
L 171.913433 62.361891 
L 172.329851 77.836908 
L 173.162687 89.308692 
L 173.579104 93.303837 
L 173.995522 92.43407 
L 174.41194 95.058335 
L 174.828358 94.705959 
L 175.244776 98.22618 
L 175.661194 98.457828 
L 176.077612 101.344884 
L 176.49403 99.614956 
L 177.326866 103.392608 
L 177.743284 103.776531 
L 178.159701 102.583003 
L 178.576119 104.693518 
L 178.992537 105.049938 
L 179.408955 102.37997 
L 179.825373 103.886744 
L 180.241791 102.80909 
L 180.658209 103.701506 
L 181.074627 104.985631 
L 181.491045 97.315463 
L 181.907463 103.867027 
L 182.323881 106.693213 
L 182.740299 104.741344 
L 183.156716 108.195538 
L 183.573134 105.401202 
L 183.989552 106.054589 
L 184.40597 105.126581 
L 184.822388 105.650646 
L 185.238806 105.02739 
L 185.655224 105.125772 
L 186.071642 102.935379 
L 186.48806 102.287958 
L 187.320896 99.37987 
L 187.737313 100.008687 
L 188.153731 95.852572 
L 188.570149 96.28604 
L 189.402985 90.863798 
L 190.235821 81.683013 
L 190.652239 74.67695 
L 191.068657 74.73964 
L 191.485075 78.13347 
L 191.901493 75.38514 
L 192.31791 77.753187 
L 192.734328 86.262789 
L 193.150746 91.020117 
L 193.567164 93.818093 
L 193.983582 97.77977 
L 194.4 97.292207 
L 194.816418 99.959951 
L 195.232836 91.364303 
L 195.649254 96.536596 
L 196.065672 97.719911 
L 196.48209 93.982704 
L 196.898507 93.326688 
L 197.314925 90.98675 
L 197.731343 89.74671 
L 198.564179 91.660157 
L 198.980597 89.65672 
L 199.397015 90.690491 
L 200.229851 85.942465 
L 200.646269 87.857227 
L 201.062687 86.988066 
L 201.895522 82.119818 
L 202.31194 77.159052 
L 202.728358 74.646718 
L 203.144776 75.071996 
L 203.561194 68.668156 
L 203.977612 66.039846 
L 204.39403 65.027814 
L 204.810448 63.026804 
L 205.226866 62.68181 
L 206.059701 64.194953 
L 206.476119 67.322252 
L 207.308955 77.388577 
L 207.725373 86.684022 
L 208.141791 88.412029 
L 208.558209 89.075527 
L 208.974627 82.429727 
L 209.391045 91.104546 
L 209.807463 92.829317 
L 210.223881 93.385434 
L 210.640299 93.152876 
L 211.056716 91.867336 
L 211.473134 93.256516 
L 211.889552 92.65955 
L 212.30597 95.214554 
L 212.722388 90.589581 
L 213.138806 87.919613 
L 213.555224 90.797064 
L 213.971642 89.976235 
L 214.38806 91.440946 
L 214.804478 86.773203 
L 215.220896 92.40586 
L 215.637313 89.620017 
L 216.053731 85.737713 
L 216.470149 84.402122 
L 217 87.064442 
L 217 87.064442 
" clip-path="url(#pab8dfea6d7)" style="fill: none; stroke: #008000; stroke-width: 1.5; stroke-linecap: square"/>
   </g>
   <g id="LineCollection_2">
    <path d="M 29.498507 123.12 
L 29.498507 41.130961 
" clip-path="url(#pab8dfea6d7)" style="fill: none; stroke-dasharray: 5.55,2.4; stroke-dashoffset: 0; stroke: #7f7f7f; stroke-width: 1.5"/>
    <path d="M 56.98209 123.12 
L 56.98209 41.130961 
" clip-path="url(#pab8dfea6d7)" style="fill: none; stroke-dasharray: 5.55,2.4; stroke-dashoffset: 0; stroke: #7f7f7f; stroke-width: 1.5"/>
    <path d="M 84.465672 123.12 
L 84.465672 41.130961 
" clip-path="url(#pab8dfea6d7)" style="fill: none; stroke-dasharray: 5.55,2.4; stroke-dashoffset: 0; stroke: #7f7f7f; stroke-width: 1.5"/>
    <path d="M 111.949254 123.12 
L 111.949254 41.130961 
" clip-path="url(#pab8dfea6d7)" style="fill: none; stroke-dasharray: 5.55,2.4; stroke-dashoffset: 0; stroke: #7f7f7f; stroke-width: 1.5"/>
    <path d="M 139.432836 123.12 
L 139.432836 41.130961 
" clip-path="url(#pab8dfea6d7)" style="fill: none; stroke-dasharray: 5.55,2.4; stroke-dashoffset: 0; stroke: #7f7f7f; stroke-width: 1.5"/>
    <path d="M 166.916418 123.12 
L 166.916418 41.130961 
" clip-path="url(#pab8dfea6d7)" style="fill: none; stroke-dasharray: 5.55,2.4; stroke-dashoffset: 0; stroke: #7f7f7f; stroke-width: 1.5"/>
    <path d="M 194.4 123.12 
L 194.4 41.130961 
" clip-path="url(#pab8dfea6d7)" style="fill: none; stroke-dasharray: 5.55,2.4; stroke-dashoffset: 0; stroke: #7f7f7f; stroke-width: 1.5"/>
   </g>
   <g id="patch_3">
    <path d="M 27 128.16 
L 27 17.28 
" style="fill: none; stroke: #000000; stroke-width: 0.8; stroke-linejoin: miter; stroke-linecap: square"/>
   </g>
   <g id="patch_4">
    <path d="M 194.4 128.16 
L 194.4 17.28 
" style="fill: none; stroke: #000000; stroke-width: 0.8; stroke-linejoin: miter; stroke-linecap: square"/>
   </g>
   <g id="patch_5">
    <path d="M 27 128.16 
L 194.4 128.16 
" style="fill: none; stroke: #000000; stroke-width: 0.8; stroke-linejoin: miter; stroke-linecap: square"/>
   </g>
   <g id="patch_6">
    <path d="M 27 17.28 
L 194.4 17.28 
" style="fill: none; stroke: #000000; stroke-width: 0.8; stroke-linejoin: miter; stroke-linecap: square"/>
   </g>
  </g>
 </g>
 <defs>
  <clipPath id="pab8dfea6d7">
   <rect x="27" y="17.28" width="167.4" height="110.88"/>
  </clipPath>
 </defs>
</svg>
