<?xml version="1.0" encoding="utf-8" standalone="no"?>
<!DOCTYPE svg PUBLIC "-//W3C//DTD SVG 1.1//EN"
  "http://www.w3.org/Graphics/SVG/1.1/DTD/svg11.dtd">
<svg xmlns:xlink="http://www.w3.org/1999/xlink" width="1152pt" height="108pt" viewBox="0 0 1152 108" xmlns="http://www.w3.org/2000/svg" version="1.1">
 <metadata>
  <rdf:RDF xmlns:dc="http://purl.org/dc/elements/1.1/" xmlns:cc="http://creativecommons.org/ns#" xmlns:rdf="http://www.w3.org/1999/02/22-rdf-syntax-ns#">
   <cc:Work>
    <dc:type rdf:resource="http://purl.org/dc/dcmitype/StillImage"/>
    <dc:date>2024-07-10T09:15:18.498189</dc:date>
    <dc:format>image/svg+xml</dc:format>
    <dc:creator>
     <cc:Agent>
      <dc:title>Matplotlib v3.8.3, https://matplotlib.org/</dc:title>
     </cc:Agent>
    </dc:creator>
   </cc:Work>
  </rdf:RDF>
 </metadata>
 <defs>
  <style type="text/css">*{stroke-linejoin: round; stroke-linecap: butt}</style>
 </defs>
 <g id="figure_1">
  <g id="patch_1">
   <path d="M 0 108 
L 1152 108 
L 1152 0 
L 0 0 
z
" style="fill: #ffffff"/>
  </g>
  <g id="axes_1">
   <g id="patch_2">
    <path d="M 144 96.12 
L 271.542857 96.12 
L 271.542857 12.96 
L 144 12.96 
z
" style="fill: #fffdee"/>
   </g>
   <g id="matplotlib.axis_1">
    <g id="xtick_1">
     <g id="line2d_1">
      <defs>
       <path id="m78aa611f62" d="M 0 0 
L 0 3.5 
" style="stroke: #000000; stroke-width: 0.8"/>
      </defs>
      <g>
       <use xlink:href="#m78aa611f62" x="144" y="96.12" style="stroke: #000000; stroke-width: 0.8"/>
      </g>
     </g>
     <g id="text_1">
      <!-- 0 -->
      <g transform="translate(140.81875 110.718438) scale(0.1 -0.1)">
       <defs>
        <path id="DejaVuSans-30" d="M 2034 4250 
Q 1547 4250 1301 3770 
Q 1056 3291 1056 2328 
Q 1056 1369 1301 889 
Q 1547 409 2034 409 
Q 2525 409 2770 889 
Q 3016 1369 3016 2328 
Q 3016 3291 2770 3770 
Q 2525 4250 2034 4250 
z
M 2034 4750 
Q 2819 4750 3233 4129 
Q 3647 3509 3647 2328 
Q 3647 1150 3233 529 
Q 2819 -91 2034 -91 
Q 1250 -91 836 529 
Q 422 1150 422 2328 
Q 422 3509 836 4129 
Q 1250 4750 2034 4750 
z
" transform="scale(0.015625)"/>
       </defs>
       <use xlink:href="#DejaVuSans-30"/>
      </g>
     </g>
    </g>
    <g id="xtick_2">
     <g id="line2d_2">
      <g>
       <use xlink:href="#m78aa611f62" x="180.440816" y="96.12" style="stroke: #000000; stroke-width: 0.8"/>
      </g>
     </g>
     <g id="text_2">
      <!-- 20 -->
      <g transform="translate(174.078316 110.718438) scale(0.1 -0.1)">
       <defs>
        <path id="DejaVuSans-32" d="M 1228 531 
L 3431 531 
L 3431 0 
L 469 0 
L 469 531 
Q 828 903 1448 1529 
Q 2069 2156 2228 2338 
Q 2531 2678 2651 2914 
Q 2772 3150 2772 3378 
Q 2772 3750 2511 3984 
Q 2250 4219 1831 4219 
Q 1534 4219 1204 4116 
Q 875 4013 500 3803 
L 500 4441 
Q 881 4594 1212 4672 
Q 1544 4750 1819 4750 
Q 2544 4750 2975 4387 
Q 3406 4025 3406 3419 
Q 3406 3131 3298 2873 
Q 3191 2616 2906 2266 
Q 2828 2175 2409 1742 
Q 1991 1309 1228 531 
z
" transform="scale(0.015625)"/>
       </defs>
       <use xlink:href="#DejaVuSans-32"/>
       <use xlink:href="#DejaVuSans-30" x="63.623047"/>
      </g>
     </g>
    </g>
    <g id="xtick_3">
     <g id="line2d_3">
      <g>
       <use xlink:href="#m78aa611f62" x="216.881633" y="96.12" style="stroke: #000000; stroke-width: 0.8"/>
      </g>
     </g>
     <g id="text_3">
      <!-- 40 -->
      <g transform="translate(210.519133 110.718438) scale(0.1 -0.1)">
       <defs>
        <path id="DejaVuSans-34" d="M 2419 4116 
L 825 1625 
L 2419 1625 
L 2419 4116 
z
M 2253 4666 
L 3047 4666 
L 3047 1625 
L 3713 1625 
L 3713 1100 
L 3047 1100 
L 3047 0 
L 2419 0 
L 2419 1100 
L 313 1100 
L 313 1709 
L 2253 4666 
z
" transform="scale(0.015625)"/>
       </defs>
       <use xlink:href="#DejaVuSans-34"/>
       <use xlink:href="#DejaVuSans-30" x="63.623047"/>
      </g>
     </g>
    </g>
    <g id="xtick_4">
     <g id="line2d_4">
      <g>
       <use xlink:href="#m78aa611f62" x="253.322449" y="96.12" style="stroke: #000000; stroke-width: 0.8"/>
      </g>
     </g>
     <g id="text_4">
      <!-- 60 -->
      <g transform="translate(246.959949 110.718438) scale(0.1 -0.1)">
       <defs>
        <path id="DejaVuSans-36" d="M 2113 2584 
Q 1688 2584 1439 2293 
Q 1191 2003 1191 1497 
Q 1191 994 1439 701 
Q 1688 409 2113 409 
Q 2538 409 2786 701 
Q 3034 994 3034 1497 
Q 3034 2003 2786 2293 
Q 2538 2584 2113 2584 
z
M 3366 4563 
L 3366 3988 
Q 3128 4100 2886 4159 
Q 2644 4219 2406 4219 
Q 1781 4219 1451 3797 
Q 1122 3375 1075 2522 
Q 1259 2794 1537 2939 
Q 1816 3084 2150 3084 
Q 2853 3084 3261 2657 
Q 3669 2231 3669 1497 
Q 3669 778 3244 343 
Q 2819 -91 2113 -91 
Q 1303 -91 875 529 
Q 447 1150 447 2328 
Q 447 3434 972 4092 
Q 1497 4750 2381 4750 
Q 2619 4750 2861 4703 
Q 3103 4656 3366 4563 
z
" transform="scale(0.015625)"/>
       </defs>
       <use xlink:href="#DejaVuSans-36"/>
       <use xlink:href="#DejaVuSans-30" x="63.623047"/>
      </g>
     </g>
    </g>
   </g>
   <g id="matplotlib.axis_2">
    <g id="ytick_1">
     <g id="line2d_5">
      <defs>
       <path id="me1c956db4a" d="M 0 0 
L -3.5 0 
" style="stroke: #000000; stroke-width: 0.8"/>
      </defs>
      <g>
       <use xlink:href="#me1c956db4a" x="144" y="94.885314" style="stroke: #000000; stroke-width: 0.8"/>
      </g>
     </g>
     <g id="text_5">
      <!-- 0 -->
      <g transform="translate(130.6375 98.684532) scale(0.1 -0.1)">
       <use xlink:href="#DejaVuSans-30"/>
      </g>
     </g>
    </g>
    <g id="ytick_2">
     <g id="line2d_6">
      <g>
       <use xlink:href="#me1c956db4a" x="144" y="58.233627" style="stroke: #000000; stroke-width: 0.8"/>
      </g>
     </g>
     <g id="text_6">
      <!-- 2 -->
      <g transform="translate(130.6375 62.032846) scale(0.1 -0.1)">
       <use xlink:href="#DejaVuSans-32"/>
      </g>
     </g>
    </g>
    <g id="ytick_3">
     <g id="line2d_7">
      <g>
       <use xlink:href="#me1c956db4a" x="144" y="21.58194" style="stroke: #000000; stroke-width: 0.8"/>
      </g>
     </g>
     <g id="text_7">
      <!-- 4 -->
      <g transform="translate(130.6375 25.381159) scale(0.1 -0.1)">
       <use xlink:href="#DejaVuSans-34"/>
      </g>
     </g>
    </g>
   </g>
   <g id="LineCollection_1">
    <path d="M 182.262857 92.34 
L 182.262857 16.74 
" clip-path="url(#paf83931268)" style="fill: none; stroke-dasharray: 2.59,1.12; stroke-dashoffset: 0; stroke: #808080; stroke-width: 0.7"/>
    <path d="M 186.817959 92.34 
L 186.817959 16.74 
" clip-path="url(#paf83931268)" style="fill: none; stroke-dasharray: 2.59,1.12; stroke-dashoffset: 0; stroke: #808080; stroke-width: 0.7"/>
    <path d="M 191.373061 92.34 
L 191.373061 16.74 
" clip-path="url(#paf83931268)" style="fill: none; stroke-dasharray: 2.59,1.12; stroke-dashoffset: 0; stroke: #808080; stroke-width: 0.7"/>
    <path d="M 195.928163 92.34 
L 195.928163 16.74 
" clip-path="url(#paf83931268)" style="fill: none; stroke-dasharray: 2.59,1.12; stroke-dashoffset: 0; stroke: #808080; stroke-width: 0.7"/>
    <path d="M 200.483265 92.34 
L 200.483265 16.74 
" clip-path="url(#paf83931268)" style="fill: none; stroke-dasharray: 2.59,1.12; stroke-dashoffset: 0; stroke: #808080; stroke-width: 0.7"/>
    <path d="M 205.038367 92.34 
L 205.038367 16.74 
" clip-path="url(#paf83931268)" style="fill: none; stroke-dasharray: 2.59,1.12; stroke-dashoffset: 0; stroke: #808080; stroke-width: 0.7"/>
    <path d="M 209.593469 92.34 
L 209.593469 16.74 
" clip-path="url(#paf83931268)" style="fill: none; stroke-dasharray: 2.59,1.12; stroke-dashoffset: 0; stroke: #808080; stroke-width: 0.7"/>
    <path d="M 214.148571 92.34 
L 214.148571 16.74 
" clip-path="url(#paf83931268)" style="fill: none; stroke-dasharray: 2.59,1.12; stroke-dashoffset: 0; stroke: #808080; stroke-width: 0.7"/>
    <path d="M 218.703673 92.34 
L 218.703673 16.74 
" clip-path="url(#paf83931268)" style="fill: none; stroke-dasharray: 2.59,1.12; stroke-dashoffset: 0; stroke: #808080; stroke-width: 0.7"/>
    <path d="M 223.258776 92.34 
L 223.258776 16.74 
" clip-path="url(#paf83931268)" style="fill: none; stroke-dasharray: 2.59,1.12; stroke-dashoffset: 0; stroke: #808080; stroke-width: 0.7"/>
   </g>
   <g id="line2d_8">
    <path d="M 144 76.55947 
L 144.280594 91.388503 
L 144.400849 91.927032 
L 144.433646 91.908201 
L 144.604918 91.579601 
L 145.034919 90.251115 
L 145.466743 88.157043 
L 145.894922 84.887437 
L 146.346789 79.56884 
L 146.858782 70.663534 
L 147.512895 54.968334 
L 148.906756 20.47266 
L 149.214681 17.701501 
L 149.305783 17.55789 
L 149.353156 17.619566 
L 149.466122 18.162723 
L 149.653793 20.370651 
L 149.923455 26.57296 
L 150.291507 40.850692 
L 150.858162 72.981108 
L 151.268121 91.334284 
L 151.446681 92.180151 
L 151.709055 92.301278 
L 152.32126 92.32604 
L 153.079229 92.129298 
L 153.868173 91.694271 
L 154.593345 91.039093 
L 155.24017 90.149046 
L 155.828689 88.94653 
L 156.378945 87.289868 
L 156.910981 84.937467 
L 157.444839 81.49565 
L 158.006028 76.313768 
L 158.640098 68.216693 
L 159.540186 53.425142 
L 160.473071 39.153654 
L 160.870276 35.960799 
L 161.088921 35.48086 
L 161.090743 35.481269 
L 161.190955 35.622789 
L 161.349473 36.343192 
L 161.58816 38.640815 
L 161.916127 44.251175 
L 162.367993 56.302328 
L 163.537744 89.504243 
L 163.765499 90.337601 
L 163.98961 90.454089 
L 164.344908 90.344782 
L 164.862367 89.944858 
L 165.416268 89.224815 
L 165.968346 88.124648 
L 166.50767 86.527407 
L 167.041528 84.207188 
L 167.582674 80.794259 
L 168.154795 75.660456 
L 168.807086 67.6228 
L 169.781878 52.360632 
L 170.620016 40.585012 
L 171.013577 37.669497 
L 171.232222 37.234996 
L 171.336078 37.376494 
L 171.49824 38.081654 
L 171.740571 40.296762 
L 172.074005 45.684479 
L 172.533159 57.194266 
L 173.726596 89.012892 
L 173.963461 89.980734 
L 174.18575 90.126954 
L 174.495497 90.028026 
L 174.976516 89.624863 
L 175.514018 88.87221 
L 176.055164 87.712801 
L 176.590844 86.00892 
L 177.124702 83.520564 
L 177.671314 79.835587 
L 178.256189 74.259064 
L 178.937633 65.437679 
L 180.896327 38.416904 
L 181.164167 37.520531 
L 181.264379 37.549424 
L 181.278955 37.571381 
L 181.419252 38.022319 
L 181.636075 39.610734 
L 181.938534 43.711125 
L 182.350315 52.710944 
L 183.255869 73.387944 
L 183.514599 75.055461 
L 183.576549 75.084863 
L 183.6221 75.019567 
L 183.749642 74.464499 
L 183.973753 72.304127 
L 184.361848 66.000606 
L 185.152614 53.219603 
L 185.378547 52.277167 
L 185.380369 52.277396 
L 185.455073 52.402231 
L 185.588082 53.19899 
L 185.803082 56.080534 
L 186.127406 63.890028 
L 187.089443 89.027347 
L 187.258893 89.416813 
L 187.271647 89.412594 
L 187.386436 89.233758 
L 187.595971 88.400115 
L 187.882031 86.254943 
L 188.209998 81.926189 
L 188.607203 73.345287 
L 189.277714 52.889717 
L 189.904496 36.569874 
L 190.210599 33.182069 
L 190.305345 32.987492 
L 190.352718 33.054107 
L 190.463863 33.650661 
L 190.655177 36.143266 
L 190.944882 43.308874 
L 191.4259 61.783693 
L 192.063615 84.24963 
L 192.322344 87.166704 
L 192.422557 87.335074 
L 192.468108 87.286577 
L 192.595651 86.824584 
L 192.830694 84.986932 
L 193.18417 80.240597 
L 193.852859 67.417476 
L 194.339344 60.286615 
L 194.585319 59.103347 
L 194.649091 59.131573 
L 194.672777 59.17861 
L 194.80032 59.774153 
L 195.013499 62.027989 
L 195.356042 68.426901 
L 196.214224 85.153359 
L 196.438335 86.037869 
L 196.529437 85.950045 
L 196.677022 85.351839 
L 196.913887 83.307848 
L 197.2291 78.419425 
L 197.629949 68.303255 
L 198.274952 45.240479 
L 198.981904 22.549684 
L 199.291651 18.314658 
L 199.379109 18.096986 
L 199.428304 18.186652 
L 199.537626 18.958603 
L 199.723474 22.16665 
L 199.998602 31.384881 
L 200.412206 53.915499 
L 201.100937 90.65501 
L 201.275853 91.512131 
L 201.38882 91.407571 
L 201.638439 90.78917 
L 201.971873 89.329487 
L 202.372722 86.441389 
L 203.240013 79.894942 
L 203.351158 79.803437 
L 203.38942 79.840307 
L 203.515141 80.218323 
L 203.724676 81.703386 
L 204.17472 87.003868 
L 204.528196 89.775006 
L 204.783282 90.348697 
L 204.983706 90.371524 
L 205.189597 90.13543 
L 205.446504 89.455868 
L 205.734387 87.992565 
L 206.04049 85.148769 
L 206.375745 79.700241 
L 206.78206 68.997593 
L 207.447105 44.341893 
L 208.143125 21.467547 
L 208.456516 16.999227 
L 208.551262 16.740433 
L 208.598635 16.823879 
L 208.706136 17.563905 
L 208.890162 20.680373 
L 209.163468 29.686222 
L 209.575249 51.764657 
L 210.302243 90.32769 
L 210.480803 91.294066 
L 210.58466 91.198173 
L 210.816059 90.578759 
L 211.154958 88.993559 
L 211.592248 85.723778 
L 212.266403 80.842933 
L 212.423099 80.617635 
L 212.448607 80.633663 
L 212.561574 80.893127 
L 212.751066 82.017347 
L 213.095432 85.715123 
L 213.545476 89.797164 
L 213.813316 90.519494 
L 214.035605 90.611146 
L 214.243318 90.442274 
L 214.494759 89.909313 
L 214.778998 88.724731 
L 215.079634 86.412145 
L 215.402136 82.009831 
L 215.779298 73.436606 
L 216.313156 55.422795 
L 217.278838 23.029247 
L 217.58494 18.976599 
L 217.672398 18.767119 
L 217.721593 18.854688 
L 217.832738 19.620051 
L 218.020408 22.76659 
L 218.29918 31.764421 
L 218.72736 53.98102 
L 219.430668 89.488323 
L 219.621982 90.889311 
L 219.70033 90.86431 
L 219.724016 90.829884 
L 219.917153 90.293802 
L 220.239654 88.685391 
L 220.656901 85.320875 
L 221.438557 78.937885 
L 221.580676 78.735558 
L 221.613473 78.759429 
L 221.728261 79.062693 
L 221.921398 80.342256 
L 222.262119 84.418239 
L 222.741316 89.44726 
L 223.000046 90.214308 
L 223.20047 90.279209 
L 223.395429 90.07684 
L 223.645048 89.44888 
L 223.929287 88.064262 
L 224.233567 85.349708 
L 224.565179 80.160018 
L 224.964206 69.970237 
L 225.581878 47.412525 
L 225.687556 43.260067 
L 225.778658 43.970071 
L 226.751628 52.229958 
L 227.352901 60.069693 
L 228.927144 81.832804 
L 229.293375 83.712759 
L 229.566681 84.188745 
L 229.757995 84.172187 
L 229.980284 83.877383 
L 230.306429 83.017373 
L 230.745541 81.167025 
L 231.268467 77.925874 
L 231.864274 72.72851 
L 232.585802 64.292978 
L 234.340428 42.806842 
L 234.664751 41.394279 
L 234.80687 41.296519 
L 234.832379 41.31599 
L 234.963566 41.602473 
L 235.165812 42.682109 
L 235.453695 45.61358 
L 235.843611 52.167873 
L 236.417554 66.129457 
L 237.262981 86.028802 
L 237.561796 88.559187 
L 237.804127 89.100889 
L 238.02095 89.134804 
L 238.323409 88.916931 
L 238.775275 88.293384 
L 239.289091 87.1854 
L 239.81566 85.488177 
L 240.347696 82.974491 
L 240.897953 79.224932 
L 241.491938 73.525002 
L 242.193424 64.445831 
L 244.015464 39.568464 
L 244.314279 38.310296 
L 244.423602 38.26381 
L 244.456398 38.297007 
L 244.589407 38.664539 
L 244.79712 40.020594 
L 245.090469 43.633456 
L 245.487673 51.639105 
L 246.094413 69.100157 
L 246.775856 87.010859 
L 247.049162 89.416138 
L 247.27874 89.875371 
L 247.511961 89.897737 
L 247.883657 89.671039 
L 248.388362 89.091291 
L 248.92222 88.12385 
L 249.4579 86.666724 
L 249.989936 84.535274 
L 250.52926 81.393549 
L 251.095915 76.678509 
L 251.729985 69.379074 
L 252.580878 56.666962 
L 253.657704 41.158625 
L 254.058553 38.153128 
L 254.284487 37.678506 
L 254.388343 37.8078 
L 254.548682 38.472459 
L 254.78737 40.565491 
L 255.117159 45.695361 
L 255.569025 56.641078 
L 256.817123 89.035775 
L 257.053989 89.910672 
L 257.276278 90.036556 
L 257.589669 89.920491 
L 258.070687 89.48821 
L 258.604545 88.697138 
L 259.143869 87.479527 
L 259.677727 85.693048 
L 260.211585 83.080018 
L 260.761842 79.194743 
L 261.355827 73.287833 
L 262.062779 63.81606 
L 263.817404 39.108803 
L 264.127151 37.662029 
L 264.243762 37.587871 
L 264.276558 37.617889 
L 264.405923 37.964093 
L 264.60817 39.267707 
L 264.89423 42.774438 
L 265.282325 50.614941 
L 265.863556 67.561647 
L 266.586906 87.288248 
L 266.854746 89.598502 
L 267.080679 90.022354 
L 267.319367 90.038831 
L 267.711105 89.806367 
L 268.226743 89.231931 
L 268.766067 88.282422 
L 269.303569 86.861429 
L 269.835605 84.789583 
L 270.373107 81.743641 
L 270.936118 77.177008 
L 271.541035 70.396404 
L 271.541035 70.396404 
" clip-path="url(#paf83931268)" style="fill: none; stroke: #000000; stroke-width: 0.7; stroke-linecap: square"/>
   </g>
   <g id="patch_3">
    <path d="M 144 96.12 
L 144 12.96 
" style="fill: none; stroke: #000000; stroke-width: 0.8; stroke-linejoin: miter; stroke-linecap: square"/>
   </g>
   <g id="patch_4">
    <path d="M 271.542857 96.12 
L 271.542857 12.96 
" style="fill: none; stroke: #000000; stroke-width: 0.8; stroke-linejoin: miter; stroke-linecap: square"/>
   </g>
   <g id="patch_5">
    <path d="M 144 96.12 
L 271.542857 96.12 
" style="fill: none; stroke: #000000; stroke-width: 0.8; stroke-linejoin: miter; stroke-linecap: square"/>
   </g>
   <g id="patch_6">
    <path d="M 144 12.96 
L 271.542857 12.96 
" style="fill: none; stroke: #000000; stroke-width: 0.8; stroke-linejoin: miter; stroke-linecap: square"/>
   </g>
  </g>
  <g id="axes_2">
   <g id="patch_7">
    <path d="M 297.051429 96.12 
L 424.594286 96.12 
L 424.594286 12.96 
L 297.051429 12.96 
z
" style="fill: #fffdee"/>
   </g>
   <g id="matplotlib.axis_3">
    <g id="xtick_5">
     <g id="line2d_9">
      <g>
       <use xlink:href="#m78aa611f62" x="297.051429" y="96.12" style="stroke: #000000; stroke-width: 0.8"/>
      </g>
     </g>
     <g id="text_8">
      <!-- 0 -->
      <g transform="translate(293.870179 110.718438) scale(0.1 -0.1)">
       <use xlink:href="#DejaVuSans-30"/>
      </g>
     </g>
    </g>
    <g id="xtick_6">
     <g id="line2d_10">
      <g>
       <use xlink:href="#m78aa611f62" x="333.492245" y="96.12" style="stroke: #000000; stroke-width: 0.8"/>
      </g>
     </g>
     <g id="text_9">
      <!-- 20 -->
      <g transform="translate(327.129745 110.718438) scale(0.1 -0.1)">
       <use xlink:href="#DejaVuSans-32"/>
       <use xlink:href="#DejaVuSans-30" x="63.623047"/>
      </g>
     </g>
    </g>
    <g id="xtick_7">
     <g id="line2d_11">
      <g>
       <use xlink:href="#m78aa611f62" x="369.933061" y="96.12" style="stroke: #000000; stroke-width: 0.8"/>
      </g>
     </g>
     <g id="text_10">
      <!-- 40 -->
      <g transform="translate(363.570561 110.718438) scale(0.1 -0.1)">
       <use xlink:href="#DejaVuSans-34"/>
       <use xlink:href="#DejaVuSans-30" x="63.623047"/>
      </g>
     </g>
    </g>
    <g id="xtick_8">
     <g id="line2d_12">
      <g>
       <use xlink:href="#m78aa611f62" x="406.373878" y="96.12" style="stroke: #000000; stroke-width: 0.8"/>
      </g>
     </g>
     <g id="text_11">
      <!-- 60 -->
      <g transform="translate(400.011378 110.718438) scale(0.1 -0.1)">
       <use xlink:href="#DejaVuSans-36"/>
       <use xlink:href="#DejaVuSans-30" x="63.623047"/>
      </g>
     </g>
    </g>
   </g>
   <g id="matplotlib.axis_4">
    <g id="ytick_4">
     <g id="line2d_13">
      <g>
       <use xlink:href="#me1c956db4a" x="297.051429" y="94.913115" style="stroke: #000000; stroke-width: 0.8"/>
      </g>
     </g>
     <g id="text_12">
      <!-- 0 -->
      <g transform="translate(283.688929 98.712334) scale(0.1 -0.1)">
       <use xlink:href="#DejaVuSans-30"/>
      </g>
     </g>
    </g>
    <g id="ytick_5">
     <g id="line2d_14">
      <g>
       <use xlink:href="#me1c956db4a" x="297.051429" y="57.861094" style="stroke: #000000; stroke-width: 0.8"/>
      </g>
     </g>
     <g id="text_13">
      <!-- 2 -->
      <g transform="translate(283.688929 61.660313) scale(0.1 -0.1)">
       <use xlink:href="#DejaVuSans-32"/>
      </g>
     </g>
    </g>
    <g id="ytick_6">
     <g id="line2d_15">
      <g>
       <use xlink:href="#me1c956db4a" x="297.051429" y="20.809072" style="stroke: #000000; stroke-width: 0.8"/>
      </g>
     </g>
     <g id="text_14">
      <!-- 4 -->
      <g transform="translate(283.688929 24.608291) scale(0.1 -0.1)">
       <use xlink:href="#DejaVuSans-34"/>
      </g>
     </g>
    </g>
   </g>
   <g id="LineCollection_2">
    <path d="M 335.314286 92.34 
L 335.314286 16.74 
" clip-path="url(#p8e59b69333)" style="fill: none; stroke-dasharray: 2.59,1.12; stroke-dashoffset: 0; stroke: #808080; stroke-width: 0.7"/>
    <path d="M 342.602449 92.34 
L 342.602449 16.74 
" clip-path="url(#p8e59b69333)" style="fill: none; stroke-dasharray: 2.59,1.12; stroke-dashoffset: 0; stroke: #808080; stroke-width: 0.7"/>
    <path d="M 349.890612 92.34 
L 349.890612 16.74 
" clip-path="url(#p8e59b69333)" style="fill: none; stroke-dasharray: 2.59,1.12; stroke-dashoffset: 0; stroke: #808080; stroke-width: 0.7"/>
    <path d="M 357.178776 92.34 
L 357.178776 16.74 
" clip-path="url(#p8e59b69333)" style="fill: none; stroke-dasharray: 2.59,1.12; stroke-dashoffset: 0; stroke: #808080; stroke-width: 0.7"/>
    <path d="M 364.466939 92.34 
L 364.466939 16.74 
" clip-path="url(#p8e59b69333)" style="fill: none; stroke-dasharray: 2.59,1.12; stroke-dashoffset: 0; stroke: #808080; stroke-width: 0.7"/>
    <path d="M 371.755102 92.34 
L 371.755102 16.74 
" clip-path="url(#p8e59b69333)" style="fill: none; stroke-dasharray: 2.59,1.12; stroke-dashoffset: 0; stroke: #808080; stroke-width: 0.7"/>
   </g>
   <g id="line2d_16">
    <path d="M 297.051429 76.387105 
L 297.332023 91.37811 
L 297.452278 91.922522 
L 297.485074 91.903484 
L 297.656346 91.571296 
L 298.086348 90.228299 
L 298.518171 88.111354 
L 298.946351 84.806035 
L 299.398217 79.429345 
L 299.910211 70.426769 
L 300.564323 54.560135 
L 301.958184 19.687676 
L 302.266109 16.886248 
L 302.357211 16.741069 
L 302.404584 16.803418 
L 302.517551 17.352508 
L 302.705221 19.584553 
L 302.974883 25.854608 
L 303.342936 40.288291 
L 303.90959 72.769657 
L 304.319549 91.323299 
L 304.498109 92.178405 
L 304.758661 92.300436 
L 305.365401 92.326701 
L 306.117904 92.132121 
L 306.903203 91.699012 
L 307.628376 91.043341 
L 308.277022 90.149679 
L 308.865541 88.945708 
L 309.415798 87.287955 
L 309.947833 84.934556 
L 310.479869 81.504073 
L 311.039236 76.337749 
L 311.669662 68.275016 
L 312.547886 53.7678 
L 313.522678 38.593323 
L 313.919882 35.353283 
L 314.140349 34.859806 
L 314.23874 34.993874 
L 314.395435 35.695863 
L 314.630478 37.937809 
L 314.954802 43.452301 
L 315.401202 55.334291 
L 316.601927 89.562876 
L 316.82786 90.329993 
L 317.053793 90.433347 
L 317.416379 90.312058 
L 317.93566 89.896043 
L 318.489561 89.154888 
L 319.039817 88.029157 
L 319.579141 86.391012 
L 320.112999 84.011938 
L 320.654145 80.515119 
L 321.228088 75.244443 
L 321.884023 66.988918 
L 322.902544 50.794942 
L 323.687843 39.850289 
L 324.074116 37.035206 
L 324.283651 36.633101 
L 324.289117 36.634753 
L 324.392973 36.79031 
L 324.558779 37.547374 
L 324.804754 39.886212 
L 325.141832 45.512234 
L 325.608274 57.518163 
L 326.759804 88.827281 
L 327.000313 89.9298 
L 327.22078 90.101627 
L 327.517773 90.019085 
L 327.98786 89.638642 
L 328.521718 88.909637 
L 329.062864 87.775458 
L 329.598544 86.10666 
L 330.132402 83.667445 
L 330.677192 80.062273 
L 331.256601 74.628087 
L 331.92529 66.07747 
L 334.00606 37.516583 
L 334.244748 36.908349 
L 334.346782 37.003694 
L 334.498011 37.570125 
L 334.725767 39.43559 
L 335.042802 44.132231 
L 335.476447 54.300774 
L 336.606113 82.429333 
L 336.883063 84.358728 
L 337.001496 84.490042 
L 337.039758 84.459276 
L 337.170945 84.115905 
L 337.396878 82.773844 
L 337.72849 79.28763 
L 338.163958 72.091716 
L 338.777985 57.740867 
L 339.883964 31.881185 
L 340.215576 28.582179 
L 340.334008 28.335878 
L 340.374093 28.379412 
L 340.481593 28.832619 
L 340.661976 30.76458 
L 340.922527 36.344666 
L 341.276003 49.338403 
L 341.864522 80.972451 
L 342.170625 91.488917 
L 342.349185 92.127622 
L 342.607915 92.208086 
L 343.00512 92.104773 
L 343.405969 91.762103 
L 343.794064 91.120736 
L 344.169404 90.036697 
L 344.535634 88.236254 
L 344.907331 85.18224 
L 345.311824 79.824276 
L 345.805597 69.976148 
L 346.714795 46.16358 
L 347.352509 32.469303 
L 347.684121 29.173397 
L 347.804376 28.921437 
L 347.84446 28.963878 
L 347.951961 29.407765 
L 348.132343 31.295592 
L 348.394717 36.768322 
L 348.753659 49.558576 
L 349.385907 82.037815 
L 349.684722 91.257287 
L 349.866926 91.903148 
L 350.092859 91.94534 
L 350.455445 91.778168 
L 350.832607 91.347022 
L 351.206126 90.559305 
L 351.572356 89.226734 
L 351.936764 86.986885 
L 352.317571 83.121983 
L 352.747572 76.246136 
L 353.310583 63.213692 
L 354.688046 29.911577 
L 354.985038 27.44412 
L 355.06703 27.338076 
L 355.114403 27.403073 
L 355.229192 27.964339 
L 355.418684 30.220405 
L 355.690168 36.535809 
L 356.060042 51.017365 
L 357.029368 91.957023 
L 357.222504 92.099447 
L 357.574158 92.037717 
L 357.962253 91.740152 
L 358.346704 91.14774 
L 358.720222 90.133847 
L 359.086452 88.441281 
L 359.458149 85.567336 
L 359.858998 80.553931 
L 360.341838 71.402881 
L 361.145358 51.017336 
L 361.883285 34.565845 
L 362.234939 30.765955 
L 362.382524 30.387759 
L 362.415321 30.415628 
L 362.515533 30.768103 
L 362.686805 32.352918 
L 362.938247 37.070817 
L 363.284434 48.318244 
L 363.821936 74.323402 
L 364.246472 90.731034 
L 364.435964 91.750295 
L 364.636389 91.827545 
L 364.971644 91.689481 
L 365.341518 91.28642 
L 365.713215 90.526648 
L 366.077623 89.234853 
L 366.440209 87.059081 
L 366.817371 83.309233 
L 367.240085 76.641271 
L 367.779409 64.170102 
L 369.315389 26.332643 
L 369.575941 24.643653 
L 369.623314 24.631275 
L 369.665221 24.702851 
L 369.781832 25.328296 
L 369.973146 27.802098 
L 370.24463 34.627207 
L 370.616327 50.347509 
L 371.538279 92.16367 
L 371.73506 92.304473 
L 372.117688 92.269084 
L 372.525825 92.005679 
L 372.92303 91.471658 
L 373.305659 90.558269 
L 373.677355 89.044072 
L 374.049051 86.508228 
L 374.446256 82.107215 
L 374.918165 74.112053 
L 375.399184 63.360714 
L 375.459311 65.402149 
L 375.984059 79.130368 
L 376.353933 83.933283 
L 376.630883 85.209255 
L 376.818553 85.334014 
L 376.980715 85.132696 
L 377.250377 84.367937 
L 377.660336 82.458373 
L 378.174152 78.925917 
L 378.757205 73.256134 
L 379.455047 64.092649 
L 381.275265 38.863512 
L 381.57408 37.589529 
L 381.68158 37.543149 
L 381.714377 37.576314 
L 381.847386 37.94756 
L 382.053277 39.306074 
L 382.344803 42.932766 
L 382.740186 50.990797 
L 383.34146 68.526423 
L 384.030191 86.982108 
L 384.303497 89.417703 
L 384.533074 89.877421 
L 384.766296 89.899018 
L 385.139814 89.670829 
L 385.644519 89.090463 
L 386.178377 88.12207 
L 386.714057 86.663671 
L 387.246093 84.530234 
L 387.785417 81.38397 
L 388.35025 76.674402 
L 388.980676 69.395416 
L 389.816993 56.829497 
L 390.933904 40.520841 
L 391.332931 37.522868 
L 391.557042 37.059588 
L 391.660898 37.195088 
L 391.82306 37.886406 
L 392.063569 40.04839 
L 392.39518 45.321108 
L 392.850691 56.571984 
L 394.076924 88.933572 
L 394.315611 89.876929 
L 394.536078 90.015988 
L 394.840359 89.910627 
L 395.31409 89.493232 
L 395.846126 88.715917 
L 396.38545 87.513029 
L 396.919308 85.746841 
L 397.453166 83.161677 
L 398.0016 79.326662 
L 398.591941 73.50238 
L 399.287961 64.218628 
L 401.130044 38.239793 
L 401.421571 37.025677 
L 401.523605 36.99092 
L 401.556402 37.026467 
L 401.689411 37.413674 
L 401.897123 38.834768 
L 402.190472 42.614395 
L 402.587677 50.982041 
L 403.19806 69.316755 
L 403.855817 87.182244 
L 404.123657 89.556098 
L 404.34959 89.995648 
L 404.586456 90.016011 
L 404.972728 89.788504 
L 405.484722 89.219313 
L 406.024046 88.270558 
L 406.561548 86.849599 
L 407.093584 84.777221 
L 407.631086 81.729053 
L 408.192274 77.171732 
L 408.81359 70.160222 
L 409.615288 58.29201 
L 410.846988 40.201059 
L 411.236904 37.372797 
L 411.450083 36.966564 
L 411.451905 36.967077 
L 411.555762 37.114519 
L 411.719745 37.838976 
L 411.963899 40.094306 
L 412.299154 45.547571 
L 412.761953 57.190427 
L 413.946279 88.823497 
L 414.186789 89.872674 
L 414.407256 90.034672 
L 414.702426 89.945038 
L 415.168869 89.552422 
L 415.700904 88.802192 
L 416.240229 87.637312 
L 416.774087 85.925458 
L 417.307944 83.417613 
L 417.854557 79.703775 
L 418.439432 74.083632 
L 419.120875 65.19157 
L 421.085035 37.868834 
L 421.351053 36.976491 
L 421.451265 37.006068 
L 421.465842 37.028276 
L 421.606139 37.48367 
L 421.822962 39.086501 
L 422.12542 43.22276 
L 422.537202 52.30538 
L 423.211357 73.069811 
L 423.763435 87.332304 
L 424.029453 89.590765 
L 424.255386 90.00394 
L 424.495896 90.015713 
L 424.592464 89.976898 
L 424.592464 89.976898 
" clip-path="url(#p8e59b69333)" style="fill: none; stroke: #000000; stroke-width: 0.7; stroke-linecap: square"/>
   </g>
   <g id="patch_8">
    <path d="M 297.051429 96.12 
L 297.051429 12.96 
" style="fill: none; stroke: #000000; stroke-width: 0.8; stroke-linejoin: miter; stroke-linecap: square"/>
   </g>
   <g id="patch_9">
    <path d="M 424.594286 96.12 
L 424.594286 12.96 
" style="fill: none; stroke: #000000; stroke-width: 0.8; stroke-linejoin: miter; stroke-linecap: square"/>
   </g>
   <g id="patch_10">
    <path d="M 297.051429 96.12 
L 424.594286 96.12 
" style="fill: none; stroke: #000000; stroke-width: 0.8; stroke-linejoin: miter; stroke-linecap: square"/>
   </g>
   <g id="patch_11">
    <path d="M 297.051429 12.96 
L 424.594286 12.96 
" style="fill: none; stroke: #000000; stroke-width: 0.8; stroke-linejoin: miter; stroke-linecap: square"/>
   </g>
  </g>
  <g id="axes_3">
   <g id="patch_12">
    <path d="M 450.102857 96.12 
L 577.645714 96.12 
L 577.645714 12.96 
L 450.102857 12.96 
z
" style="fill: #fffdee"/>
   </g>
   <g id="matplotlib.axis_5">
    <g id="xtick_9">
     <g id="line2d_17">
      <g>
       <use xlink:href="#m78aa611f62" x="450.102857" y="96.12" style="stroke: #000000; stroke-width: 0.8"/>
      </g>
     </g>
     <g id="text_15">
      <!-- 0 -->
      <g transform="translate(446.921607 110.718438) scale(0.1 -0.1)">
       <use xlink:href="#DejaVuSans-30"/>
      </g>
     </g>
    </g>
    <g id="xtick_10">
     <g id="line2d_18">
      <g>
       <use xlink:href="#m78aa611f62" x="481.988571" y="96.12" style="stroke: #000000; stroke-width: 0.8"/>
      </g>
     </g>
     <g id="text_16">
      <!-- 20 -->
      <g transform="translate(475.626071 110.718438) scale(0.1 -0.1)">
       <use xlink:href="#DejaVuSans-32"/>
       <use xlink:href="#DejaVuSans-30" x="63.623047"/>
      </g>
     </g>
    </g>
    <g id="xtick_11">
     <g id="line2d_19">
      <g>
       <use xlink:href="#m78aa611f62" x="513.874286" y="96.12" style="stroke: #000000; stroke-width: 0.8"/>
      </g>
     </g>
     <g id="text_17">
      <!-- 40 -->
      <g transform="translate(507.511786 110.718438) scale(0.1 -0.1)">
       <use xlink:href="#DejaVuSans-34"/>
       <use xlink:href="#DejaVuSans-30" x="63.623047"/>
      </g>
     </g>
    </g>
    <g id="xtick_12">
     <g id="line2d_20">
      <g>
       <use xlink:href="#m78aa611f62" x="545.76" y="96.12" style="stroke: #000000; stroke-width: 0.8"/>
      </g>
     </g>
     <g id="text_18">
      <!-- 60 -->
      <g transform="translate(539.3975 110.718438) scale(0.1 -0.1)">
       <use xlink:href="#DejaVuSans-36"/>
       <use xlink:href="#DejaVuSans-30" x="63.623047"/>
      </g>
     </g>
    </g>
    <g id="xtick_13">
     <g id="line2d_21">
      <g>
       <use xlink:href="#m78aa611f62" x="577.645714" y="96.12" style="stroke: #000000; stroke-width: 0.8"/>
      </g>
     </g>
     <g id="text_19">
      <!-- 80 -->
      <g transform="translate(571.283214 110.718438) scale(0.1 -0.1)">
       <defs>
        <path id="DejaVuSans-38" d="M 2034 2216 
Q 1584 2216 1326 1975 
Q 1069 1734 1069 1313 
Q 1069 891 1326 650 
Q 1584 409 2034 409 
Q 2484 409 2743 651 
Q 3003 894 3003 1313 
Q 3003 1734 2745 1975 
Q 2488 2216 2034 2216 
z
M 1403 2484 
Q 997 2584 770 2862 
Q 544 3141 544 3541 
Q 544 4100 942 4425 
Q 1341 4750 2034 4750 
Q 2731 4750 3128 4425 
Q 3525 4100 3525 3541 
Q 3525 3141 3298 2862 
Q 3072 2584 2669 2484 
Q 3125 2378 3379 2068 
Q 3634 1759 3634 1313 
Q 3634 634 3220 271 
Q 2806 -91 2034 -91 
Q 1263 -91 848 271 
Q 434 634 434 1313 
Q 434 1759 690 2068 
Q 947 2378 1403 2484 
z
M 1172 3481 
Q 1172 3119 1398 2916 
Q 1625 2713 2034 2713 
Q 2441 2713 2670 2916 
Q 2900 3119 2900 3481 
Q 2900 3844 2670 4047 
Q 2441 4250 2034 4250 
Q 1625 4250 1398 4047 
Q 1172 3844 1172 3481 
z
" transform="scale(0.015625)"/>
       </defs>
       <use xlink:href="#DejaVuSans-38"/>
       <use xlink:href="#DejaVuSans-30" x="63.623047"/>
      </g>
     </g>
    </g>
   </g>
   <g id="matplotlib.axis_6">
    <g id="ytick_7">
     <g id="line2d_22">
      <g>
       <use xlink:href="#me1c956db4a" x="450.102857" y="93.313019" style="stroke: #000000; stroke-width: 0.8"/>
      </g>
     </g>
     <g id="text_20">
      <!-- 0 -->
      <g transform="translate(436.740357 97.112238) scale(0.1 -0.1)">
       <use xlink:href="#DejaVuSans-30"/>
      </g>
     </g>
    </g>
    <g id="ytick_8">
     <g id="line2d_23">
      <g>
       <use xlink:href="#me1c956db4a" x="450.102857" y="65.690814" style="stroke: #000000; stroke-width: 0.8"/>
      </g>
     </g>
     <g id="text_21">
      <!-- 2 -->
      <g transform="translate(436.740357 69.490033) scale(0.1 -0.1)">
       <use xlink:href="#DejaVuSans-32"/>
      </g>
     </g>
    </g>
    <g id="ytick_9">
     <g id="line2d_24">
      <g>
       <use xlink:href="#me1c956db4a" x="450.102857" y="38.068608" style="stroke: #000000; stroke-width: 0.8"/>
      </g>
     </g>
     <g id="text_22">
      <!-- 4 -->
      <g transform="translate(436.740357 41.867827) scale(0.1 -0.1)">
       <use xlink:href="#DejaVuSans-34"/>
      </g>
     </g>
    </g>
   </g>
   <g id="LineCollection_3">
    <path d="M 476.674286 92.34 
L 476.674286 16.74 
" clip-path="url(#paae2a34050)" style="fill: none; stroke-dasharray: 2.59,1.12; stroke-dashoffset: 0; stroke: #808080; stroke-width: 0.7"/>
    <path d="M 487.834286 92.34 
L 487.834286 16.74 
" clip-path="url(#paae2a34050)" style="fill: none; stroke-dasharray: 2.59,1.12; stroke-dashoffset: 0; stroke: #808080; stroke-width: 0.7"/>
    <path d="M 498.994286 92.34 
L 498.994286 16.74 
" clip-path="url(#paae2a34050)" style="fill: none; stroke-dasharray: 2.59,1.12; stroke-dashoffset: 0; stroke: #808080; stroke-width: 0.7"/>
    <path d="M 510.154286 92.34 
L 510.154286 16.74 
" clip-path="url(#paae2a34050)" style="fill: none; stroke-dasharray: 2.59,1.12; stroke-dashoffset: 0; stroke: #808080; stroke-width: 0.7"/>
    <path d="M 521.314286 92.34 
L 521.314286 16.74 
" clip-path="url(#paae2a34050)" style="fill: none; stroke-dasharray: 2.59,1.12; stroke-dashoffset: 0; stroke: #808080; stroke-width: 0.7"/>
    <path d="M 532.474286 92.34 
L 532.474286 16.74 
" clip-path="url(#paae2a34050)" style="fill: none; stroke-dasharray: 2.59,1.12; stroke-dashoffset: 0; stroke: #808080; stroke-width: 0.7"/>
    <path d="M 543.634286 92.34 
L 543.634286 16.74 
" clip-path="url(#paae2a34050)" style="fill: none; stroke-dasharray: 2.59,1.12; stroke-dashoffset: 0; stroke: #808080; stroke-width: 0.7"/>
    <path d="M 554.794286 92.34 
L 554.794286 16.74 
" clip-path="url(#paae2a34050)" style="fill: none; stroke-dasharray: 2.59,1.12; stroke-dashoffset: 0; stroke: #808080; stroke-width: 0.7"/>
   </g>
   <g id="line2d_25">
    <path d="M 450.102857 79.501917 
L 450.36432 90.825902 
L 450.455194 91.083384 
L 450.504617 91.045808 
L 450.742166 90.574262 
L 451.15668 89.285534 
L 451.555251 87.265398 
L 451.961794 83.948881 
L 452.408194 78.293485 
L 452.950251 68.282096 
L 454.597149 35.435021 
L 454.743823 35.035564 
L 454.777303 35.065264 
L 454.876149 35.43325 
L 455.046737 37.111266 
L 455.298634 42.161192 
L 455.647783 54.250965 
L 456.628269 91.282788 
L 456.916834 91.377215 
L 457.568897 91.359478 
L 458.35488 91.112745 
L 459.110571 90.644701 
L 459.767417 89.97499 
L 460.342954 89.061785 
L 460.867474 87.792665 
L 461.366486 85.967171 
L 461.863903 83.243131 
L 462.388423 79.03067 
L 462.989469 72.23546 
L 464.011406 57.507565 
L 464.631583 50.29971 
L 464.95044 48.646892 
L 465.068417 48.547472 
L 465.105086 48.579833 
L 465.22944 48.925077 
L 465.427131 50.261845 
L 465.70932 53.923174 
L 466.101514 62.303074 
L 467.274909 89.621523 
L 467.485354 89.952375 
L 467.753194 89.948043 
L 468.226697 89.695947 
L 468.762377 89.153837 
L 469.290086 88.290046 
L 469.800257 87.004336 
L 470.300863 85.098397 
L 470.807846 82.228244 
L 471.349903 77.779065 
L 471.989211 70.512795 
L 473.640891 50.630166 
L 473.897571 49.870077 
L 474.005983 49.940448 
L 474.149469 50.428861 
L 474.36948 52.106946 
L 474.678771 56.428469 
L 475.115606 66.093142 
L 476.09928 88.787654 
L 476.327263 89.625327 
L 476.544086 89.726581 
L 476.878886 89.595881 
L 477.263109 89.201217 
L 477.658491 88.454211 
L 478.05228 87.198708 
L 478.444474 85.143549 
L 478.847829 81.734478 
L 479.284663 75.959737 
L 479.79324 65.977577 
L 480.497914 47.144273 
L 481.502314 21.065335 
L 481.843491 17.065403 
L 481.967846 16.740321 
L 482.007703 16.784417 
L 482.109737 17.24737 
L 482.283514 19.274243 
L 482.535411 25.232659 
L 482.871806 39.15811 
L 483.334149 68.797304 
L 483.75504 91.737652 
L 483.924034 91.931184 
L 484.611171 92.184259 
L 485.6634 92.323283 
L 486.942017 92.270194 
L 488.011783 92.016449 
L 488.77704 91.615308 
L 489.347794 91.065533 
L 489.811731 90.299418 
L 490.219869 89.169576 
L 490.602497 87.40278 
L 490.985126 84.481992 
L 491.393263 79.479323 
L 491.86836 70.623126 
L 492.502886 54.096995 
L 493.708166 22.267353 
L 494.01108 19.265639 
L 494.087606 19.144657 
L 494.137029 19.222947 
L 494.248629 19.881593 
L 494.433566 22.568763 
L 494.695029 30.121198 
L 495.042583 47.443792 
L 495.8748 91.993458 
L 496.475846 92.225004 
L 497.413286 92.338127 
L 498.580303 92.256277 
L 499.562383 91.977509 
L 500.273434 91.552665 
L 500.815491 90.968372 
L 501.26508 90.142646 
L 501.66684 88.90681 
L 502.047874 86.955177 
L 502.435286 83.695438 
L 502.857771 78.0541 
L 503.361566 68.018342 
L 504.101314 48.120835 
L 504.987737 25.69153 
L 505.320943 21.872674 
L 505.430949 21.610541 
L 505.475589 21.669947 
L 505.582406 22.230004 
L 505.760966 24.591316 
L 506.016051 31.384021 
L 506.355634 47.137345 
L 506.87856 83.71179 
L 507.104949 91.819972 
L 507.288291 91.987867 
L 507.937166 92.207267 
L 508.895331 92.284433 
L 509.996983 92.154746 
L 510.883406 91.83809 
L 511.533874 91.37494 
L 512.042451 90.735598 
L 512.474503 89.817527 
L 512.868291 88.418794 
L 513.249326 86.16816 
L 513.64152 82.389819 
L 514.079949 75.781939 
L 514.618817 63.917146 
L 516.404417 21.242853 
L 516.53196 20.882185 
L 516.571817 20.930052 
L 516.673851 21.428452 
L 516.847629 23.620912 
L 517.097931 30.067456 
L 517.431137 45.156981 
L 517.914206 78.738823 
L 518.196394 91.806402 
L 518.366983 91.988715 
L 519.004697 92.213694 
L 519.95808 92.302205 
L 521.082051 92.186799 
L 521.995577 91.881783 
L 522.663583 91.43056 
L 523.181726 90.808844 
L 523.61856 89.921062 
L 524.013943 88.577914 
L 524.394977 86.424825 
L 524.785577 82.815334 
L 525.217629 76.54287 
L 525.743743 65.313298 
L 526.625383 40.676818 
L 527.30136 24.604121 
L 527.617029 21.270304 
L 527.709497 21.086754 
L 527.757326 21.155058 
L 527.867331 21.76483 
L 528.04908 24.271466 
L 528.307354 31.385229 
L 528.65172 47.822495 
L 529.507851 91.964462 
L 530.107303 92.193419 
L 531.027206 92.297019 
L 532.147989 92.201357 
L 533.083834 91.910741 
L 533.769377 91.471535 
L 534.297086 90.86653 
L 534.738703 90.007047 
L 535.137274 88.70919 
L 535.518309 86.643415 
L 535.907314 83.186841 
L 536.334583 77.195144 
L 536.849537 66.507092 
L 537.648274 44.452176 
L 538.42788 25.033788 
L 538.757897 21.280002 
L 538.864714 21.031244 
L 538.909354 21.091 
L 539.016171 21.654951 
L 539.194731 24.033118 
L 539.449817 30.874797 
L 539.7894 46.744889 
L 540.309137 83.411044 
L 540.53712 91.828619 
L 540.718869 91.99673 
L 541.369337 92.217721 
L 542.33388 92.298375 
L 543.451474 92.173052 
L 544.350651 91.860441 
L 545.009091 91.401636 
L 545.522451 90.76817 
L 545.956097 89.862718 
L 546.349886 88.489086 
L 546.73092 86.27934 
L 547.123114 82.564033 
L 547.558354 76.103443 
L 548.09244 64.495258 
L 549.071331 37.028918 
L 549.661217 23.893252 
L 549.957754 21.143555 
L 550.027903 21.046881 
L 550.07892 21.128384 
L 550.192114 21.79593 
L 550.378646 24.486289 
L 550.641703 31.998833 
L 550.992446 49.238656 
L 551.805531 91.953462 
L 552.369909 92.180793 
L 553.265897 92.296265 
L 554.38668 92.216948 
L 555.344846 91.938276 
L 556.044737 91.510823 
L 556.582011 90.919968 
L 557.028411 90.084469 
L 557.428577 88.831302 
L 557.809611 86.845004 
L 558.197023 83.529625 
L 558.619509 77.802755 
L 559.124897 67.602346 
L 559.872617 47.271609 
L 560.373223 33.247685 
L 560.42424 34.351804 
L 560.835566 45.991117 
L 561.35052 67.824484 
L 561.929246 90.395653 
L 562.107806 91.045325 
L 562.375646 91.114087 
L 563.000606 91.03578 
L 563.713251 90.720888 
L 564.387634 90.178785 
L 564.987086 89.40575 
L 565.529143 88.32913 
L 566.03772 86.795719 
L 566.533543 84.547568 
L 567.043714 81.120928 
L 567.601714 75.734758 
L 568.307983 66.505621 
L 569.506886 50.768615 
L 569.838497 48.945643 
L 569.970823 48.811986 
L 570.002709 48.837051 
L 570.123874 49.146521 
L 570.316783 50.375031 
L 570.594189 53.802298 
L 570.978411 61.686954 
L 572.217171 89.655233 
L 572.427617 89.915367 
L 572.712994 89.885358 
L 573.197657 89.593615 
L 573.730149 89.006903 
L 574.253074 88.085272 
L 574.760057 86.715125 
L 575.259069 84.684027 
L 575.76924 81.608856 
L 576.322457 76.80218 
L 576.993651 68.817916 
L 577.64412 59.80598 
L 577.64412 59.80598 
" clip-path="url(#paae2a34050)" style="fill: none; stroke: #000000; stroke-width: 0.7; stroke-linecap: square"/>
   </g>
   <g id="patch_13">
    <path d="M 450.102857 96.12 
L 450.102857 12.96 
" style="fill: none; stroke: #000000; stroke-width: 0.8; stroke-linejoin: miter; stroke-linecap: square"/>
   </g>
   <g id="patch_14">
    <path d="M 577.645714 96.12 
L 577.645714 12.96 
" style="fill: none; stroke: #000000; stroke-width: 0.8; stroke-linejoin: miter; stroke-linecap: square"/>
   </g>
   <g id="patch_15">
    <path d="M 450.102857 96.12 
L 577.645714 96.12 
" style="fill: none; stroke: #000000; stroke-width: 0.8; stroke-linejoin: miter; stroke-linecap: square"/>
   </g>
   <g id="patch_16">
    <path d="M 450.102857 12.96 
L 577.645714 12.96 
" style="fill: none; stroke: #000000; stroke-width: 0.8; stroke-linejoin: miter; stroke-linecap: square"/>
   </g>
  </g>
  <g id="axes_4">
   <g id="patch_17">
    <path d="M 603.154286 96.12 
L 730.697143 96.12 
L 730.697143 12.96 
L 603.154286 12.96 
z
" style="fill: #fffdee"/>
   </g>
   <g id="matplotlib.axis_7">
    <g id="xtick_14">
     <g id="line2d_26">
      <g>
       <use xlink:href="#m78aa611f62" x="603.154286" y="96.12" style="stroke: #000000; stroke-width: 0.8"/>
      </g>
     </g>
     <g id="text_23">
      <!-- 0 -->
      <g transform="translate(599.973036 110.718438) scale(0.1 -0.1)">
       <use xlink:href="#DejaVuSans-30"/>
      </g>
     </g>
    </g>
    <g id="xtick_15">
     <g id="line2d_27">
      <g>
       <use xlink:href="#m78aa611f62" x="635.04" y="96.12" style="stroke: #000000; stroke-width: 0.8"/>
      </g>
     </g>
     <g id="text_24">
      <!-- 20 -->
      <g transform="translate(628.6775 110.718438) scale(0.1 -0.1)">
       <use xlink:href="#DejaVuSans-32"/>
       <use xlink:href="#DejaVuSans-30" x="63.623047"/>
      </g>
     </g>
    </g>
    <g id="xtick_16">
     <g id="line2d_28">
      <g>
       <use xlink:href="#m78aa611f62" x="666.925714" y="96.12" style="stroke: #000000; stroke-width: 0.8"/>
      </g>
     </g>
     <g id="text_25">
      <!-- 40 -->
      <g transform="translate(660.563214 110.718438) scale(0.1 -0.1)">
       <use xlink:href="#DejaVuSans-34"/>
       <use xlink:href="#DejaVuSans-30" x="63.623047"/>
      </g>
     </g>
    </g>
    <g id="xtick_17">
     <g id="line2d_29">
      <g>
       <use xlink:href="#m78aa611f62" x="698.811429" y="96.12" style="stroke: #000000; stroke-width: 0.8"/>
      </g>
     </g>
     <g id="text_26">
      <!-- 60 -->
      <g transform="translate(692.448929 110.718438) scale(0.1 -0.1)">
       <use xlink:href="#DejaVuSans-36"/>
       <use xlink:href="#DejaVuSans-30" x="63.623047"/>
      </g>
     </g>
    </g>
    <g id="xtick_18">
     <g id="line2d_30">
      <g>
       <use xlink:href="#m78aa611f62" x="730.697143" y="96.12" style="stroke: #000000; stroke-width: 0.8"/>
      </g>
     </g>
     <g id="text_27">
      <!-- 80 -->
      <g transform="translate(724.334643 110.718438) scale(0.1 -0.1)">
       <use xlink:href="#DejaVuSans-38"/>
       <use xlink:href="#DejaVuSans-30" x="63.623047"/>
      </g>
     </g>
    </g>
   </g>
   <g id="matplotlib.axis_8">
    <g id="ytick_10">
     <g id="line2d_31">
      <g>
       <use xlink:href="#me1c956db4a" x="603.154286" y="93.261018" style="stroke: #000000; stroke-width: 0.8"/>
      </g>
     </g>
     <g id="text_28">
      <!-- 0 -->
      <g transform="translate(589.791786 97.060237) scale(0.1 -0.1)">
       <use xlink:href="#DejaVuSans-30"/>
      </g>
     </g>
    </g>
    <g id="ytick_11">
     <g id="line2d_32">
      <g>
       <use xlink:href="#me1c956db4a" x="603.154286" y="65.8264" style="stroke: #000000; stroke-width: 0.8"/>
      </g>
     </g>
     <g id="text_29">
      <!-- 2 -->
      <g transform="translate(589.791786 69.625619) scale(0.1 -0.1)">
       <use xlink:href="#DejaVuSans-32"/>
      </g>
     </g>
    </g>
    <g id="ytick_12">
     <g id="line2d_33">
      <g>
       <use xlink:href="#me1c956db4a" x="603.154286" y="38.391782" style="stroke: #000000; stroke-width: 0.8"/>
      </g>
     </g>
     <g id="text_30">
      <!-- 4 -->
      <g transform="translate(589.791786 42.191001) scale(0.1 -0.1)">
       <use xlink:href="#DejaVuSans-34"/>
      </g>
     </g>
    </g>
   </g>
   <g id="LineCollection_4">
    <path d="M 628.131429 92.34 
L 628.131429 16.74 
" clip-path="url(#p857a01b058)" style="fill: none; stroke-dasharray: 2.59,1.12; stroke-dashoffset: 0; stroke: #808080; stroke-width: 0.7"/>
    <path d="M 640.885714 92.34 
L 640.885714 16.74 
" clip-path="url(#p857a01b058)" style="fill: none; stroke-dasharray: 2.59,1.12; stroke-dashoffset: 0; stroke: #808080; stroke-width: 0.7"/>
    <path d="M 653.64 92.34 
L 653.64 16.74 
" clip-path="url(#p857a01b058)" style="fill: none; stroke-dasharray: 2.59,1.12; stroke-dashoffset: 0; stroke: #808080; stroke-width: 0.7"/>
    <path d="M 666.394286 92.34 
L 666.394286 16.74 
" clip-path="url(#p857a01b058)" style="fill: none; stroke-dasharray: 2.59,1.12; stroke-dashoffset: 0; stroke: #808080; stroke-width: 0.7"/>
    <path d="M 679.148571 92.34 
L 679.148571 16.74 
" clip-path="url(#p857a01b058)" style="fill: none; stroke-dasharray: 2.59,1.12; stroke-dashoffset: 0; stroke: #808080; stroke-width: 0.7"/>
    <path d="M 691.902857 92.34 
L 691.902857 16.74 
" clip-path="url(#p857a01b058)" style="fill: none; stroke-dasharray: 2.59,1.12; stroke-dashoffset: 0; stroke: #808080; stroke-width: 0.7"/>
   </g>
   <g id="line2d_34">
    <path d="M 603.154286 79.543709 
L 603.415749 90.790791 
L 603.506623 91.046524 
L 603.556046 91.009203 
L 603.793594 90.54086 
L 604.208109 89.260884 
L 604.60668 87.254467 
L 605.013223 83.960473 
L 605.459623 78.343484 
L 606.00168 68.400084 
L 607.648577 35.77608 
L 607.795251 35.379335 
L 607.828731 35.408833 
L 607.927577 35.774321 
L 608.098166 37.440941 
L 608.350063 42.456572 
L 608.699211 54.464241 
L 609.679697 91.244574 
L 609.968263 91.33836 
L 610.62192 91.320473 
L 611.409497 91.074234 
L 612.166783 90.606999 
L 612.825223 89.937566 
L 613.40076 89.026241 
L 613.92528 87.759339 
L 614.424291 85.936757 
L 614.921709 83.217537 
L 615.446229 79.015154 
L 616.048869 72.223587 
L 617.107474 57.075841 
L 617.700549 50.403538 
L 618.013029 48.876081 
L 618.123034 48.801064 
L 618.159703 48.835871 
L 618.287246 49.20211 
L 618.488126 50.591677 
L 618.773503 54.351545 
L 619.172074 62.952913 
L 620.310394 89.535751 
L 620.522434 89.916332 
L 620.780709 89.925358 
L 621.244646 89.693027 
L 621.780326 89.17244 
L 622.309629 88.335509 
L 622.821394 87.086853 
L 623.322 85.239673 
L 623.828983 82.453916 
L 624.367851 78.151195 
L 624.997594 71.16337 
L 626.728989 50.687155 
L 626.968131 50.107622 
L 627.07176 50.210978 
L 627.224811 50.794228 
L 627.455983 52.706931 
L 627.778029 57.489688 
L 628.240371 68.151147 
L 629.086937 87.781335 
L 629.327674 89.068869 
L 629.514206 89.188568 
L 629.724651 89.014302 
L 630.06264 88.408024 
L 630.451646 87.223462 
L 630.848623 85.241962 
L 631.258354 81.963107 
L 631.70316 76.433961 
L 632.221303 66.930091 
L 632.940326 49.068923 
L 633.941537 24.972362 
L 634.285903 21.168899 
L 634.418229 20.837123 
L 634.454897 20.873861 
L 634.556931 21.289807 
L 634.730709 23.131258 
L 634.982606 28.556164 
L 635.320594 41.289458 
L 635.786126 68.367655 
L 636.242091 91.523716 
L 636.407897 91.756347 
L 637.058366 91.992519 
L 638.09784 92.12424 
L 639.393994 92.065577 
L 640.505211 91.804929 
L 641.31192 91.396717 
L 641.917749 90.842916 
L 642.410383 90.081967 
L 642.84084 88.983249 
L 643.241006 87.303358 
L 643.634794 84.601303 
L 644.047714 80.069244 
L 644.511651 72.278882 
L 645.093566 58.340818 
L 646.670314 18.259635 
L 646.919023 16.74599 
L 646.965257 16.761231 
L 646.995549 16.825968 
L 647.113526 17.509281 
L 647.30484 20.171617 
L 647.575869 27.501553 
L 647.939366 44.141905 
L 648.495771 81.679216 
L 648.750857 91.65058 
L 648.919851 91.836059 
L 649.624526 92.069167 
L 650.754874 92.196034 
L 652.14828 92.131443 
L 653.304137 91.868661 
L 654.129977 91.462808 
L 654.743777 90.91611 
L 655.2396 90.168514 
L 655.671651 89.090542 
L 656.071817 87.445906 
L 656.464011 84.807336 
L 656.873743 80.39118 
L 657.334491 72.771767 
L 657.908434 59.178866 
L 659.5362 18.042261 
L 659.77056 16.787521 
L 659.839114 16.883711 
L 659.958686 17.607168 
L 660.153189 20.407947 
L 660.427406 28.055967 
L 660.794091 45.309581 
L 661.710806 91.830257 
L 662.346926 92.0598 
L 663.416691 92.201215 
L 664.800531 92.159768 
L 665.994651 91.914592 
L 666.850783 91.522002 
L 667.48212 90.990716 
L 667.985914 90.269588 
L 668.421154 89.238356 
L 668.822914 87.670791 
L 669.213514 85.174281 
L 669.620057 80.998446 
L 670.072834 73.82139 
L 670.62924 61.079502 
L 672.390926 17.520056 
L 672.567891 16.84403 
L 672.590211 16.859128 
L 672.676303 17.143317 
L 672.830949 18.606713 
L 673.06212 23.266768 
L 673.377789 34.760936 
L 673.803463 59.443328 
L 674.383783 91.724935 
L 674.576691 91.876162 
L 675.318034 92.104598 
L 676.475486 92.214102 
L 677.856137 92.125764 
L 678.973731 91.844569 
L 679.770874 91.423393 
L 680.367137 90.858279 
L 680.853394 90.080884 
L 681.279069 88.955779 
L 681.676046 87.228762 
L 682.06824 84.440322 
L 682.48116 79.75489 
L 682.94988 71.648707 
L 683.546143 57.027812 
L 685.027234 18.865948 
L 685.295074 16.897522 
L 685.344497 16.870908 
L 685.390731 16.950563 
L 685.507114 17.620675 
L 685.696834 20.256169 
L 685.966269 27.562948 
L 686.326577 44.161853 
L 686.876606 81.647809 
L 687.130097 91.674751 
L 687.299091 91.856664 
L 687.998983 92.089158 
L 689.114983 92.212333 
L 690.497229 92.143775 
L 691.646709 91.877382 
L 692.467766 91.46819 
L 693.078377 90.917245 
L 693.571011 90.165067 
L 694.001469 89.077513 
L 694.40004 87.418711 
L 694.792234 84.746813 
L 695.201966 80.27763 
L 695.664309 72.551976 
L 696.243034 58.734083 
L 697.835726 18.291172 
L 698.078057 16.878337 
L 698.130669 16.914414 
L 698.151394 16.965037 
L 698.269371 17.662309 
L 698.291691 18.765023 
L 698.766789 65.745177 
L 699.10956 92.182286 
L 699.331166 92.262915 
L 700.149034 92.339987 
L 701.437217 92.226147 
L 702.795549 91.892099 
L 703.858937 91.410724 
L 704.672023 90.803108 
L 705.328869 90.0328 
L 705.893246 89.01769 
L 706.406606 87.613732 
L 706.897646 85.582179 
L 707.393469 82.512106 
L 707.924366 77.715052 
L 708.557297 69.769741 
L 710.137234 48.847664 
L 710.397103 47.956927 
L 710.49276 48.003629 
L 710.502326 48.020321 
L 710.639434 48.510136 
L 710.853069 50.251308 
L 711.154389 54.808652 
L 711.578469 65.077262 
L 712.538229 89.378491 
L 712.750269 90.015629 
L 712.98144 90.083165 
L 713.415086 89.934308 
L 713.960331 89.511065 
L 714.503983 88.798127 
L 715.025314 87.73062 
L 715.529109 86.161898 
L 716.029714 83.825494 
L 716.549451 80.257898 
L 717.128177 74.609067 
L 717.903 64.564125 
L 718.889863 52.278261 
L 719.245389 50.192862 
L 719.406411 49.988729 
L 719.428731 50.002181 
L 719.545114 50.246855 
L 719.730051 51.267591 
L 719.997891 54.190784 
L 720.36936 61.027238 
L 720.98316 77.26824 
L 721.482171 88.071728 
L 721.722909 89.507106 
L 721.936543 89.719059 
L 722.226703 89.660962 
L 722.703394 89.322003 
L 723.224726 88.670033 
L 723.73968 87.651539 
L 724.24188 86.135434 
L 724.742486 83.868963 
L 725.262223 80.407159 
L 725.839354 74.93291 
L 726.59664 65.352446 
L 727.639303 52.511056 
L 727.993234 50.488926 
L 728.152663 50.295475 
L 728.176577 50.310436 
L 728.294554 50.562138 
L 728.48268 51.605506 
L 728.753709 54.564694 
L 729.128366 61.427507 
L 729.761297 77.972886 
L 730.242771 88.030979 
L 730.485103 89.44658 
L 730.695549 89.657197 
L 730.695549 89.657197 
" clip-path="url(#p857a01b058)" style="fill: none; stroke: #000000; stroke-width: 0.7; stroke-linecap: square"/>
   </g>
   <g id="patch_18">
    <path d="M 603.154286 96.12 
L 603.154286 12.96 
" style="fill: none; stroke: #000000; stroke-width: 0.8; stroke-linejoin: miter; stroke-linecap: square"/>
   </g>
   <g id="patch_19">
    <path d="M 730.697143 96.12 
L 730.697143 12.96 
" style="fill: none; stroke: #000000; stroke-width: 0.8; stroke-linejoin: miter; stroke-linecap: square"/>
   </g>
   <g id="patch_20">
    <path d="M 603.154286 96.12 
L 730.697143 96.12 
" style="fill: none; stroke: #000000; stroke-width: 0.8; stroke-linejoin: miter; stroke-linecap: square"/>
   </g>
   <g id="patch_21">
    <path d="M 603.154286 12.96 
L 730.697143 12.96 
" style="fill: none; stroke: #000000; stroke-width: 0.8; stroke-linejoin: miter; stroke-linecap: square"/>
   </g>
  </g>
  <g id="axes_5">
   <g id="patch_22">
    <path d="M 756.205714 96.12 
L 883.748571 96.12 
L 883.748571 12.96 
L 756.205714 12.96 
z
" style="fill: #fffdee"/>
   </g>
   <g id="matplotlib.axis_9">
    <g id="xtick_19">
     <g id="line2d_35">
      <g>
       <use xlink:href="#m78aa611f62" x="756.205714" y="96.12" style="stroke: #000000; stroke-width: 0.8"/>
      </g>
     </g>
     <g id="text_31">
      <!-- 0 -->
      <g transform="translate(753.024464 110.718438) scale(0.1 -0.1)">
       <use xlink:href="#DejaVuSans-30"/>
      </g>
     </g>
    </g>
    <g id="xtick_20">
     <g id="line2d_36">
      <g>
       <use xlink:href="#m78aa611f62" x="791.634286" y="96.12" style="stroke: #000000; stroke-width: 0.8"/>
      </g>
     </g>
     <g id="text_32">
      <!-- 25 -->
      <g transform="translate(785.271786 110.718438) scale(0.1 -0.1)">
       <defs>
        <path id="DejaVuSans-35" d="M 691 4666 
L 3169 4666 
L 3169 4134 
L 1269 4134 
L 1269 2991 
Q 1406 3038 1543 3061 
Q 1681 3084 1819 3084 
Q 2600 3084 3056 2656 
Q 3513 2228 3513 1497 
Q 3513 744 3044 326 
Q 2575 -91 1722 -91 
Q 1428 -91 1123 -41 
Q 819 9 494 109 
L 494 744 
Q 775 591 1075 516 
Q 1375 441 1709 441 
Q 2250 441 2565 725 
Q 2881 1009 2881 1497 
Q 2881 1984 2565 2268 
Q 2250 2553 1709 2553 
Q 1456 2553 1204 2497 
Q 953 2441 691 2322 
L 691 4666 
z
" transform="scale(0.015625)"/>
       </defs>
       <use xlink:href="#DejaVuSans-32"/>
       <use xlink:href="#DejaVuSans-35" x="63.623047"/>
      </g>
     </g>
    </g>
    <g id="xtick_21">
     <g id="line2d_37">
      <g>
       <use xlink:href="#m78aa611f62" x="827.062857" y="96.12" style="stroke: #000000; stroke-width: 0.8"/>
      </g>
     </g>
     <g id="text_33">
      <!-- 50 -->
      <g transform="translate(820.700357 110.718438) scale(0.1 -0.1)">
       <use xlink:href="#DejaVuSans-35"/>
       <use xlink:href="#DejaVuSans-30" x="63.623047"/>
      </g>
     </g>
    </g>
    <g id="xtick_22">
     <g id="line2d_38">
      <g>
       <use xlink:href="#m78aa611f62" x="862.491429" y="96.12" style="stroke: #000000; stroke-width: 0.8"/>
      </g>
     </g>
     <g id="text_34">
      <!-- 75 -->
      <g transform="translate(856.128929 110.718438) scale(0.1 -0.1)">
       <defs>
        <path id="DejaVuSans-37" d="M 525 4666 
L 3525 4666 
L 3525 4397 
L 1831 0 
L 1172 0 
L 2766 4134 
L 525 4134 
L 525 4666 
z
" transform="scale(0.015625)"/>
       </defs>
       <use xlink:href="#DejaVuSans-37"/>
       <use xlink:href="#DejaVuSans-35" x="63.623047"/>
      </g>
     </g>
    </g>
   </g>
   <g id="matplotlib.axis_10">
    <g id="ytick_13">
     <g id="line2d_39">
      <g>
       <use xlink:href="#me1c956db4a" x="756.205714" y="93.892433" style="stroke: #000000; stroke-width: 0.8"/>
      </g>
     </g>
     <g id="text_35">
      <!-- 0 -->
      <g transform="translate(742.843214 97.691651) scale(0.1 -0.1)">
       <use xlink:href="#DejaVuSans-30"/>
      </g>
     </g>
    </g>
    <g id="ytick_14">
     <g id="line2d_40">
      <g>
       <use xlink:href="#me1c956db4a" x="756.205714" y="64.102634" style="stroke: #000000; stroke-width: 0.8"/>
      </g>
     </g>
     <g id="text_36">
      <!-- 2 -->
      <g transform="translate(742.843214 67.901852) scale(0.1 -0.1)">
       <use xlink:href="#DejaVuSans-32"/>
      </g>
     </g>
    </g>
    <g id="ytick_15">
     <g id="line2d_41">
      <g>
       <use xlink:href="#me1c956db4a" x="756.205714" y="34.312835" style="stroke: #000000; stroke-width: 0.8"/>
      </g>
     </g>
     <g id="text_37">
      <!-- 4 -->
      <g transform="translate(742.843214 38.112053) scale(0.1 -0.1)">
       <use xlink:href="#DejaVuSans-34"/>
      </g>
     </g>
    </g>
   </g>
   <g id="LineCollection_5">
    <path d="M 778.407619 92.34 
L 778.407619 16.74 
" clip-path="url(#p1ee9f956f2)" style="fill: none; stroke-dasharray: 2.59,1.12; stroke-dashoffset: 0; stroke: #808080; stroke-width: 0.7"/>
    <path d="M 791.402819 92.34 
L 791.402819 16.74 
" clip-path="url(#p1ee9f956f2)" style="fill: none; stroke-dasharray: 2.59,1.12; stroke-dashoffset: 0; stroke: #808080; stroke-width: 0.7"/>
    <path d="M 804.398019 92.34 
L 804.398019 16.74 
" clip-path="url(#p1ee9f956f2)" style="fill: none; stroke-dasharray: 2.59,1.12; stroke-dashoffset: 0; stroke: #808080; stroke-width: 0.7"/>
    <path d="M 817.393219 92.34 
L 817.393219 16.74 
" clip-path="url(#p1ee9f956f2)" style="fill: none; stroke-dasharray: 2.59,1.12; stroke-dashoffset: 0; stroke: #808080; stroke-width: 0.7"/>
    <path d="M 830.388419 92.34 
L 830.388419 16.74 
" clip-path="url(#p1ee9f956f2)" style="fill: none; stroke-dasharray: 2.59,1.12; stroke-dashoffset: 0; stroke: #808080; stroke-width: 0.7"/>
    <path d="M 843.383619 92.34 
L 843.383619 16.74 
" clip-path="url(#p1ee9f956f2)" style="fill: none; stroke-dasharray: 2.59,1.12; stroke-dashoffset: 0; stroke: #808080; stroke-width: 0.7"/>
   </g>
   <g id="line2d_42">
    <path d="M 756.205714 78.997533 
L 756.452297 91.323237 
L 756.518903 91.487831 
L 756.578423 91.421867 
L 756.840594 90.734983 
L 757.223223 89.140724 
L 757.595931 86.547903 
L 757.984229 82.124464 
L 758.426377 74.26611 
L 759.01024 59.397534 
L 760.033417 33.246928 
L 760.297006 31.066186 
L 760.338103 31.044834 
L 760.383451 31.132437 
L 760.495406 31.873078 
L 760.682469 34.887614 
L 760.95456 43.452224 
L 761.348526 63.945173 
L 761.905463 91.43424 
L 762.072686 91.749025 
L 762.48224 91.823635 
L 763.100114 91.715422 
L 763.784594 91.36803 
L 764.420891 90.794203 
L 764.983497 89.979963 
L 765.490834 88.837433 
L 765.965577 87.187167 
L 766.428983 84.711091 
L 766.903726 80.864522 
L 767.426651 74.645937 
L 768.10688 63.555352 
L 769.09888 47.713823 
L 769.409234 45.707139 
L 769.504183 45.611893 
L 769.548114 45.660915 
L 769.667154 46.106224 
L 769.861303 47.866897 
L 770.141897 52.769662 
L 770.544366 64.280873 
L 771.398903 89.497152 
L 771.605806 90.228954 
L 771.814126 90.285178 
L 772.175497 90.107435 
L 772.643154 89.623447 
L 773.1264 88.786385 
L 773.601143 87.491621 
L 774.067383 85.529345 
L 774.539291 82.505937 
L 775.04096 77.728523 
L 775.630491 69.766316 
L 777.172343 47.601256 
L 777.383497 47.034744 
L 777.390583 47.036671 
L 777.48128 47.190424 
L 777.632914 48.006894 
L 777.863909 50.67377 
L 778.191269 57.41099 
L 778.708526 73.476265 
L 779.244206 87.895363 
L 779.476617 89.474957 
L 779.655177 89.60417 
L 779.854994 89.42265 
L 780.182354 88.788867 
L 780.55648 87.547587 
L 780.937691 85.444999 
L 781.328823 81.926904 
L 781.751131 75.917027 
L 782.24288 65.407989 
L 782.938697 45.045271 
L 783.811657 20.856537 
L 784.133349 16.980049 
L 784.233966 16.740468 
L 784.280731 16.809566 
L 784.388434 17.430417 
L 784.569829 20.023878 
L 784.833417 27.490333 
L 785.194789 44.927151 
L 786.100343 91.973838 
L 786.531154 92.166099 
L 787.404114 92.321271 
L 788.583177 92.30309 
L 789.661623 92.074944 
L 790.482149 91.682265 
L 791.109943 91.137504 
L 791.622949 90.390063 
L 792.067931 89.328338 
L 792.476069 87.738437 
L 792.868617 85.241231 
L 793.268251 81.13641 
L 793.703314 74.14907 
L 794.224823 61.805129 
L 795.906971 18.492618 
L 796.038766 18.086367 
L 796.077029 18.130411 
L 796.177646 18.612144 
L 796.351954 20.756064 
L 796.611291 27.133266 
L 796.976914 42.382622 
L 797.625966 80.988047 
L 797.912229 91.125283 
L 798.080869 91.548932 
L 798.473417 91.637255 
L 799.584457 91.649988 
L 801.083794 91.46798 
L 802.014857 91.140843 
L 802.710674 90.663983 
L 803.274697 90.004111 
L 803.763611 89.074729 
L 804.207177 87.724944 
L 804.629486 85.672874 
L 805.04896 82.435345 
L 805.489691 77.140383 
L 805.989943 68.174914 
L 806.67584 51.29814 
L 807.572891 30.200035 
L 807.900251 26.836943 
L 808.01504 26.593079 
L 808.057554 26.640085 
L 808.165257 27.104944 
L 808.349486 29.08653 
L 808.622994 34.816006 
L 809.019794 48.474231 
L 810.143589 90.057532 
L 810.329234 90.407256 
L 810.55456 90.349137 
L 811.168183 89.901469 
L 813.055817 88.132423 
L 814.050651 87.027375 
L 814.652937 86.006513 
L 815.178697 84.654926 
L 815.680366 82.711921 
L 816.182034 79.815461 
L 816.710629 75.355411 
L 817.317166 68.170586 
L 819.037577 46.328468 
L 819.268571 45.786827 
L 819.370606 45.897608 
L 819.527909 46.509883 
L 819.77024 48.504798 
L 820.12736 53.570736 
L 820.793417 66.960683 
L 821.422629 77.706103 
L 821.771246 80.485203 
L 821.995154 80.959335 
L 822.109943 80.856505 
L 822.285669 80.303518 
L 822.563429 78.574999 
L 822.960229 74.527338 
L 823.504411 66.428839 
L 825.059017 41.760228 
L 825.27584 41.096823 
L 825.280091 41.097839 
L 825.36512 41.241376 
L 825.509669 42.054348 
L 825.729326 44.782034 
L 826.032594 51.723154 
L 826.453486 67.184055 
L 827.106789 90.654922 
L 827.296686 91.225868 
L 827.635383 91.411913 
L 828.216411 91.487239 
L 828.868297 91.347376 
L 829.483337 90.989854 
L 830.019017 90.418016 
L 830.490926 89.57475 
L 830.92032 88.322283 
L 831.325623 86.402599 
L 831.726674 83.334969 
L 832.146149 78.250867 
L 832.618057 69.555188 
L 833.228846 53.676337 
L 834.36256 23.822207 
L 834.661577 20.908836 
L 834.742354 20.777721 
L 834.791954 20.849613 
L 834.905326 21.467196 
L 835.095223 23.972136 
L 835.372983 31.026637 
L 835.769783 47.569987 
L 836.75328 91.126623 
L 836.934674 91.29648 
L 837.485943 91.308336 
L 839.111406 91.083784 
L 840.2848 90.74999 
L 841.033051 90.308452 
L 841.626834 89.697231 
L 842.138423 88.839138 
L 842.601829 87.603558 
L 843.041143 85.753817 
L 843.473371 82.894485 
L 843.921189 78.312095 
L 844.417189 70.730574 
L 845.053486 57.168573 
L 846.151771 33.682142 
L 846.462126 31.089166 
L 846.561326 30.941753 
L 846.606674 30.995136 
L 846.721463 31.481088 
L 846.914194 33.459683 
L 847.19904 39.041105 
L 847.619931 52.308334 
L 848.705463 88.41028 
L 848.920869 89.430866 
L 849.085257 89.462799 
L 849.337509 89.191128 
L 849.851931 88.268338 
L 849.972389 88.005984 
L 849.975223 88.211957 
L 850.142446 92.239353 
L 850.311086 92.200045 
L 851.154286 91.747736 
L 851.854354 91.121648 
L 852.441051 90.292437 
L 852.956891 89.162398 
L 853.433051 87.551868 
L 853.893623 85.151248 
L 854.362697 81.426795 
L 854.875703 75.406943 
L 855.523337 64.866783 
L 856.627291 46.831891 
L 856.92064 45.068712 
L 857 45.009278 
L 857.045349 45.06477 
L 857.167223 45.553293 
L 857.364206 47.448406 
L 857.647634 52.66565 
L 858.055771 64.885654 
L 858.863543 89.535926 
L 859.069029 90.323035 
L 859.277349 90.38932 
L 859.645806 90.226617 
L 860.119131 89.769416 
L 860.606629 88.974751 
L 861.084206 87.746534 
L 861.551863 85.887771 
L 862.020937 83.043375 
L 862.51552 78.566216 
L 863.085211 71.18615 
L 864.799954 47.162543 
L 864.936 46.948154 
L 864.970011 46.975593 
L 865.080549 47.302552 
L 865.26336 48.683878 
L 865.529783 52.659715 
L 865.90816 62.108389 
L 866.931337 89.53491 
L 867.13824 90.015532 
L 867.353646 90.018831 
L 867.72352 89.76359 
L 868.184091 89.1655 
L 868.657417 88.164714 
L 869.125074 86.621505 
L 869.591314 84.260772 
L 870.073143 80.582083 
L 870.604571 74.657954 
L 871.29472 64.148871 
L 872.292389 49.280395 
L 872.606994 47.347719 
L 872.710446 47.245329 
L 872.751543 47.287595 
L 872.872 47.698359 
L 873.066149 49.309766 
L 873.346743 53.790427 
L 873.749211 64.310155 
L 874.660434 89.143492 
L 874.874423 89.916087 
L 875.075657 89.976434 
L 875.397349 89.792162 
L 875.843749 89.269992 
L 876.31424 88.358565 
L 876.781897 86.937461 
L 877.248137 84.757053 
L 877.725714 81.374776 
L 878.244389 75.970491 
L 878.88352 66.72043 
L 880.098011 48.775379 
L 880.384274 47.331299 
L 880.462217 47.29808 
L 880.503314 47.349446 
L 880.62944 47.818791 
L 880.830674 49.593613 
L 881.119771 54.426977 
L 881.537829 65.710757 
L 882.379611 88.913116 
L 882.597851 89.877041 
L 882.797669 89.970762 
L 883.09952 89.816693 
L 883.538834 89.330778 
L 883.747154 88.995659 
L 883.747154 88.995659 
" clip-path="url(#p1ee9f956f2)" style="fill: none; stroke: #000000; stroke-width: 0.7; stroke-linecap: square"/>
   </g>
   <g id="patch_23">
    <path d="M 756.205714 96.12 
L 756.205714 12.96 
" style="fill: none; stroke: #000000; stroke-width: 0.8; stroke-linejoin: miter; stroke-linecap: square"/>
   </g>
   <g id="patch_24">
    <path d="M 883.748571 96.12 
L 883.748571 12.96 
" style="fill: none; stroke: #000000; stroke-width: 0.8; stroke-linejoin: miter; stroke-linecap: square"/>
   </g>
   <g id="patch_25">
    <path d="M 756.205714 96.12 
L 883.748571 96.12 
" style="fill: none; stroke: #000000; stroke-width: 0.8; stroke-linejoin: miter; stroke-linecap: square"/>
   </g>
   <g id="patch_26">
    <path d="M 756.205714 12.96 
L 883.748571 12.96 
" style="fill: none; stroke: #000000; stroke-width: 0.8; stroke-linejoin: miter; stroke-linecap: square"/>
   </g>
  </g>
  <g id="axes_6">
   <g id="patch_27">
    <path d="M 909.257143 96.12 
L 1036.8 96.12 
L 1036.8 12.96 
L 909.257143 12.96 
z
" style="fill: #fffdee"/>
   </g>
   <g id="matplotlib.axis_11">
    <g id="xtick_23">
     <g id="line2d_43">
      <g>
       <use xlink:href="#m78aa611f62" x="909.257143" y="96.12" style="stroke: #000000; stroke-width: 0.8"/>
      </g>
     </g>
     <g id="text_38">
      <!-- 0 -->
      <g transform="translate(906.075893 110.718438) scale(0.1 -0.1)">
       <use xlink:href="#DejaVuSans-30"/>
      </g>
     </g>
    </g>
    <g id="xtick_24">
     <g id="line2d_44">
      <g>
       <use xlink:href="#m78aa611f62" x="967.231169" y="96.12" style="stroke: #000000; stroke-width: 0.8"/>
      </g>
     </g>
     <g id="text_39">
      <!-- 50 -->
      <g transform="translate(960.868669 110.718438) scale(0.1 -0.1)">
       <use xlink:href="#DejaVuSans-35"/>
       <use xlink:href="#DejaVuSans-30" x="63.623047"/>
      </g>
     </g>
    </g>
    <g id="xtick_25">
     <g id="line2d_45">
      <g>
       <use xlink:href="#m78aa611f62" x="1025.205195" y="96.12" style="stroke: #000000; stroke-width: 0.8"/>
      </g>
     </g>
     <g id="text_40">
      <!-- 100 -->
      <g transform="translate(1015.661445 110.718438) scale(0.1 -0.1)">
       <defs>
        <path id="DejaVuSans-31" d="M 794 531 
L 1825 531 
L 1825 4091 
L 703 3866 
L 703 4441 
L 1819 4666 
L 2450 4666 
L 2450 531 
L 3481 531 
L 3481 0 
L 794 0 
L 794 531 
z
" transform="scale(0.015625)"/>
       </defs>
       <use xlink:href="#DejaVuSans-31"/>
       <use xlink:href="#DejaVuSans-30" x="63.623047"/>
       <use xlink:href="#DejaVuSans-30" x="127.246094"/>
      </g>
     </g>
    </g>
   </g>
   <g id="matplotlib.axis_12">
    <g id="ytick_16">
     <g id="line2d_46">
      <g>
       <use xlink:href="#me1c956db4a" x="909.257143" y="94.531711" style="stroke: #000000; stroke-width: 0.8"/>
      </g>
     </g>
     <g id="text_41">
      <!-- 0 -->
      <g transform="translate(895.894643 98.33093) scale(0.1 -0.1)">
       <use xlink:href="#DejaVuSans-30"/>
      </g>
     </g>
    </g>
    <g id="ytick_17">
     <g id="line2d_47">
      <g>
       <use xlink:href="#me1c956db4a" x="909.257143" y="62.971786" style="stroke: #000000; stroke-width: 0.8"/>
      </g>
     </g>
     <g id="text_42">
      <!-- 2 -->
      <g transform="translate(895.894643 66.771005) scale(0.1 -0.1)">
       <use xlink:href="#DejaVuSans-32"/>
      </g>
     </g>
    </g>
    <g id="ytick_18">
     <g id="line2d_48">
      <g>
       <use xlink:href="#me1c956db4a" x="909.257143" y="31.411861" style="stroke: #000000; stroke-width: 0.8"/>
      </g>
     </g>
     <g id="text_43">
      <!-- 4 -->
      <g transform="translate(895.894643 35.21108) scale(0.1 -0.1)">
       <use xlink:href="#DejaVuSans-34"/>
      </g>
     </g>
    </g>
   </g>
   <g id="LineCollection_6">
    <path d="M 927.229091 92.34 
L 927.229091 16.74 
" clip-path="url(#pc217d79c59)" style="fill: none; stroke-dasharray: 2.59,1.12; stroke-dashoffset: 0; stroke: #808080; stroke-width: 0.7"/>
    <path d="M 939.983377 92.34 
L 939.983377 16.74 
" clip-path="url(#pc217d79c59)" style="fill: none; stroke-dasharray: 2.59,1.12; stroke-dashoffset: 0; stroke: #808080; stroke-width: 0.7"/>
    <path d="M 952.737662 92.34 
L 952.737662 16.74 
" clip-path="url(#pc217d79c59)" style="fill: none; stroke-dasharray: 2.59,1.12; stroke-dashoffset: 0; stroke: #808080; stroke-width: 0.7"/>
    <path d="M 965.491948 92.34 
L 965.491948 16.74 
" clip-path="url(#pc217d79c59)" style="fill: none; stroke-dasharray: 2.59,1.12; stroke-dashoffset: 0; stroke: #808080; stroke-width: 0.7"/>
    <path d="M 978.246234 92.34 
L 978.246234 16.74 
" clip-path="url(#pc217d79c59)" style="fill: none; stroke-dasharray: 2.59,1.12; stroke-dashoffset: 0; stroke: #808080; stroke-width: 0.7"/>
    <path d="M 991.000519 92.34 
L 991.000519 16.74 
" clip-path="url(#pc217d79c59)" style="fill: none; stroke-dasharray: 2.59,1.12; stroke-dashoffset: 0; stroke: #808080; stroke-width: 0.7"/>
    <path d="M 1003.754805 92.34 
L 1003.754805 16.74 
" clip-path="url(#pc217d79c59)" style="fill: none; stroke-dasharray: 2.59,1.12; stroke-dashoffset: 0; stroke: #808080; stroke-width: 0.7"/>
   </g>
   <g id="line2d_49">
    <path d="M 909.257143 78.751749 
L 909.479763 91.933821 
L 909.514548 91.983951 
L 909.578319 91.874756 
L 909.851956 90.855114 
L 910.189365 88.747631 
L 910.524455 85.099455 
L 910.889691 78.405854 
L 911.33841 65.581081 
L 912.555865 28.177665 
L 912.631231 27.94615 
L 912.683408 28.079672 
L 912.792399 29.192113 
L 912.975597 33.793286 
L 913.246915 47.120437 
L 914.075944 92.271659 
L 914.440021 92.339072 
L 914.940916 92.205961 
L 915.495148 91.823532 
L 916.022712 91.182516 
L 916.501577 90.235914 
L 916.94218 88.842895 
L 917.360752 86.726027 
L 917.775846 83.381105 
L 918.215289 77.862513 
L 918.737056 68.187661 
L 919.97654 43.897236 
L 920.129592 43.379394 
L 920.160898 43.408479 
L 920.254816 43.792935 
L 920.419462 45.605712 
L 920.667591 51.202527 
L 921.039784 65.439002 
L 921.689093 89.886792 
L 921.880407 90.676906 
L 922.065924 90.698498 
L 922.381303 90.463004 
L 922.780164 89.873402 
L 923.199896 88.829362 
L 923.617309 87.151753 
L 924.033563 84.483397 
L 924.464889 80.147391 
L 924.948393 72.8161 
L 925.656835 58.067254 
L 926.291071 46.590493 
L 926.553114 44.904672 
L 926.598334 44.897171 
L 926.640075 44.972846 
L 926.757182 45.629194 
L 926.949656 48.212252 
L 927.233729 55.501763 
L 927.713754 74.772907 
L 928.14624 88.644971 
L 928.352628 89.929511 
L 928.488287 89.958041 
L 928.499882 89.94941 
L 928.707429 89.640761 
L 929.027445 88.730939 
L 929.37413 87.021586 
L 929.727771 84.055662 
L 930.099965 78.859701 
L 930.518537 69.560951 
L 931.063493 51.835376 
L 932.059487 19.126779 
L 932.307616 16.748553 
L 932.335443 16.745952 
L 932.373706 16.837543 
L 932.480378 17.697418 
L 932.662417 21.332158 
L 932.931416 31.880835 
L 933.327958 57.5219 
L 933.887988 91.738509 
L 934.050315 92.047456 
L 934.483961 92.127699 
L 935.268929 92.041549 
L 936.259125 91.713157 
L 937.039456 91.229775 
L 937.645864 90.591413 
L 938.156035 89.719993 
L 938.610552 88.477606 
L 939.032603 86.630776 
L 939.443059 83.752441 
L 939.862791 79.08877 
L 940.327742 71.190466 
L 940.9585 56.113551 
L 941.724916 38.957828 
L 941.999713 36.716568 
L 942.05073 36.676472 
L 942.100588 36.762646 
L 942.217696 37.470441 
L 942.413648 40.289409 
L 942.709315 48.280591 
L 943.238038 69.962079 
L 943.727339 86.410676 
L 943.959235 88.497522 
L 944.062429 88.598584 
L 944.103011 88.565778 
L 944.257222 88.206732 
L 944.542454 86.893764 
L 944.904212 84.097796 
L 945.303073 79.107845 
L 945.764546 70.242188 
L 946.42661 52.539167 
L 947.173315 34.146651 
L 947.448112 31.633471 
L 947.493332 31.595951 
L 947.54203 31.69104 
L 947.6545 32.480904 
L 947.840017 35.668108 
L 948.106697 44.675833 
L 948.491645 66.36294 
L 948.980945 91.592439 
L 949.152549 92.010548 
L 949.55141 92.199617 
L 950.116077 92.226103 
L 950.751472 92.032241 
L 951.343967 91.619631 
L 951.856457 90.985924 
L 952.306336 90.058365 
L 952.714473 88.671713 
L 953.098261 86.517047 
L 953.477411 83.005848 
L 953.877432 77.015495 
L 954.338905 66.395603 
L 955.091408 42.758728 
L 955.636364 28.952347 
L 955.88913 26.750432 
L 955.922755 26.74058 
L 955.965656 26.832896 
L 956.076966 27.638805 
L 956.265962 30.944088 
L 956.551194 40.464497 
L 957.021943 65.03889 
L 957.546028 89.021913 
L 957.739661 90.459651 
L 957.867204 90.471932 
L 957.878799 90.46291 
L 958.128087 90.113358 
L 958.542022 89.132819 
L 959.001176 87.432461 
L 959.492796 84.688903 
L 960.04123 80.254633 
L 960.748513 72.499954 
L 961.834946 60.711781 
L 962.157282 59.263357 
L 962.280187 59.183696 
L 962.312652 59.212 
L 962.442514 59.54286 
L 962.645423 60.788976 
L 962.939931 64.199283 
L 963.395607 72.510337 
L 964.106369 84.915341 
L 964.39392 86.630888 
L 964.593351 86.849313 
L 964.742924 86.697655 
L 964.980617 86.070817 
L 965.312229 84.501094 
L 965.693698 81.524748 
L 966.109951 76.363068 
L 966.591136 67.334476 
L 967.379582 47.354985 
L 967.923379 36.363412 
L 968.181943 34.527575 
L 968.224844 34.517272 
L 968.267744 34.597737 
L 968.384852 35.29376 
L 968.580804 38.05956 
L 968.876472 45.89142 
L 969.385484 66.493634 
L 969.939715 85.945763 
L 970.180887 88.344439 
L 970.302633 88.499589 
L 970.337417 88.47732 
L 970.485831 88.179805 
L 970.772222 87.022876 
L 971.159489 84.461971 
L 971.594294 79.963239 
L 972.106784 72.105714 
L 973.057558 53.054024 
L 973.549178 45.862321 
L 973.79035 44.727239 
L 973.865716 44.82279 
L 973.989781 45.510716 
L 974.188052 48.095034 
L 974.472125 55.162176 
L 974.897654 72.231486 
L 975.395071 90.000283 
L 975.591023 90.970092 
L 975.827557 91.125325 
L 976.214824 91.102051 
L 976.649629 90.847998 
L 977.092551 90.32019 
L 977.519239 89.4458 
L 977.923898 88.074586 
L 978.313484 85.906499 
L 978.703069 82.363651 
L 979.114685 76.377862 
L 979.592391 65.83124 
L 981.070728 30.168189 
L 981.1345 30.069117 
L 981.186676 30.163434 
L 981.300305 30.93721 
L 981.49162 34.058326 
L 981.78033 42.978332 
L 982.267312 66.261516 
L 982.792557 88.01881 
L 983.002423 89.81724 
L 983.109095 89.875801 
L 983.14272 89.850808 
L 983.339832 89.509187 
L 983.70043 88.396741 
L 984.116684 86.342259 
L 984.561924 82.928061 
L 985.065139 77.183223 
L 985.743435 66.526918 
L 986.650149 52.831398 
L 986.949295 51.03335 
L 987.030458 50.97071 
L 987.075678 51.025709 
L 987.196264 51.50641 
L 987.391057 53.37864 
L 987.671651 58.569914 
L 988.089064 71.09213 
L 988.707067 88.719005 
L 988.929687 89.971541 
L 989.137234 90.13395 
L 989.406234 90.037315 
L 989.762194 89.656512 
L 990.15062 88.892305 
L 990.543684 87.591929 
L 990.93327 85.472413 
L 991.326334 81.994861 
L 991.743746 76.126134 
L 992.229569 65.808943 
L 993.688195 32.06959 
L 993.768199 31.917211 
L 993.819217 32.001969 
L 993.931686 32.710851 
L 994.121841 35.595497 
L 994.409392 43.879576 
L 994.891736 65.4397 
L 995.447127 87.328015 
L 995.667429 89.345631 
L 995.77526 89.434221 
L 995.812364 89.407637 
L 995.988605 89.074281 
L 996.321376 87.906781 
L 996.722556 85.635665 
L 997.157361 81.781326 
L 997.654778 75.186693 
L 998.357423 62.441652 
L 999.144711 49.223048 
L 999.439219 47.244091 
L 999.511106 47.1855 
L 999.558645 47.251496 
L 999.676912 47.80045 
L 999.869386 49.953344 
L 1000.146502 55.951417 
L 1000.554639 70.382232 
L 1001.13322 89.638941 
L 1001.337288 90.65596 
L 1001.561068 90.80305 
L 1001.906593 90.745068 
L 1002.308933 90.444821 
L 1002.727505 89.838699 
L 1003.137962 88.827777 
L 1003.534504 87.216032 
L 1003.92293 84.627492 
L 1004.318313 80.356789 
L 1004.749639 73.038827 
L 1005.285319 59.695279 
L 1006.358998 32.213829 
L 1006.593214 30.704463 
L 1006.655825 30.80583 
L 1006.771774 31.605467 
L 1006.966566 34.797949 
L 1007.259915 43.847846 
L 1007.764289 67.696751 
L 1008.268663 87.836554 
L 1008.480848 89.667565 
L 1008.586361 89.733011 
L 1008.622304 89.706278 
L 1008.812459 89.364026 
L 1009.164941 88.222223 
L 1009.576557 86.08214 
L 1010.018319 82.502371 
L 1010.131948 81.323645 
L 1010.144702 82.35064 
L 1010.371961 91.570976 
L 1010.456603 91.719277 
L 1010.50762 91.687943 
L 1010.828796 91.243711 
L 1011.30998 90.235221 
L 1011.749423 88.764314 
L 1012.165677 86.533671 
L 1012.580771 82.988534 
L 1013.023692 77.106747 
L 1013.560532 66.662223 
L 1014.687547 43.908112 
L 1014.88234 43.048094 
L 1014.897413 43.055229 
L 1014.973939 43.269161 
L 1015.115395 44.48729 
L 1015.336856 48.663838 
L 1015.661511 59.650621 
L 1016.512569 90.480372 
L 1016.694608 90.769971 
L 1016.923025 90.700229 
L 1017.288262 90.338279 
L 1017.702196 89.595469 
L 1018.123088 88.352792 
L 1018.539341 86.379089 
L 1018.957914 83.227844 
L 1019.401995 78.036156 
L 1019.923761 69.034225 
L 1021.22122 45.233637 
L 1021.360357 44.840931 
L 1021.396301 44.877269 
L 1021.496017 45.296708 
L 1021.66762 47.179319 
L 1021.925024 52.864028 
L 1022.31461 67.210693 
L 1022.93841 89.366675 
L 1023.139001 90.385153 
L 1023.315242 90.431352 
L 1023.592357 90.212435 
L 1023.977305 89.608123 
L 1024.39008 88.516589 
L 1024.805174 86.742085 
L 1025.222587 83.899414 
L 1025.659711 79.250944 
L 1026.158288 71.328152 
L 1027.667931 45.155551 
L 1027.722427 45.119693 
L 1027.769966 45.196808 
L 1027.887073 45.840693 
L 1028.079547 48.384526 
L 1028.36246 55.536551 
L 1028.825093 73.960904 
L 1029.280769 89.065418 
L 1029.485997 90.305574 
L 1029.662238 90.380416 
L 1029.923121 90.184496 
L 1030.301112 89.604346 
L 1030.711568 88.538613 
L 1031.125502 86.799865 
L 1031.542915 84.005715 
L 1031.97888 79.444484 
L 1032.475138 71.668303 
L 1033.330834 53.795728 
L 1033.816657 46.242327 
L 1034.047393 45.161755 
L 1034.118122 45.279976 
L 1034.244505 46.07901 
L 1034.448574 49.058353 
L 1034.747719 57.204459 
L 1035.300792 79.913531 
L 1035.643998 89.371353 
L 1035.844588 90.326613 
L 1036.01967 90.363779 
L 1036.295626 90.133243 
L 1036.679414 89.505643 
L 1036.798841 89.233338 
L 1036.798841 89.233338 
" clip-path="url(#pc217d79c59)" style="fill: none; stroke: #000000; stroke-width: 0.7; stroke-linecap: square"/>
   </g>
   <g id="patch_28">
    <path d="M 909.257143 96.12 
L 909.257143 12.96 
" style="fill: none; stroke: #000000; stroke-width: 0.8; stroke-linejoin: miter; stroke-linecap: square"/>
   </g>
   <g id="patch_29">
    <path d="M 1036.8 96.12 
L 1036.8 12.96 
" style="fill: none; stroke: #000000; stroke-width: 0.8; stroke-linejoin: miter; stroke-linecap: square"/>
   </g>
   <g id="patch_30">
    <path d="M 909.257143 96.12 
L 1036.8 96.12 
" style="fill: none; stroke: #000000; stroke-width: 0.8; stroke-linejoin: miter; stroke-linecap: square"/>
   </g>
   <g id="patch_31">
    <path d="M 909.257143 12.96 
L 1036.8 12.96 
" style="fill: none; stroke: #000000; stroke-width: 0.8; stroke-linejoin: miter; stroke-linecap: square"/>
   </g>
  </g>
 </g>
 <defs>
  <clipPath id="paf83931268">
   <rect x="144" y="12.96" width="127.542857" height="83.16"/>
  </clipPath>
  <clipPath id="p8e59b69333">
   <rect x="297.051429" y="12.96" width="127.542857" height="83.16"/>
  </clipPath>
  <clipPath id="paae2a34050">
   <rect x="450.102857" y="12.96" width="127.542857" height="83.16"/>
  </clipPath>
  <clipPath id="p857a01b058">
   <rect x="603.154286" y="12.96" width="127.542857" height="83.16"/>
  </clipPath>
  <clipPath id="p1ee9f956f2">
   <rect x="756.205714" y="12.96" width="127.542857" height="83.16"/>
  </clipPath>
  <clipPath id="pc217d79c59">
   <rect x="909.257143" y="12.96" width="127.542857" height="83.16"/>
  </clipPath>
 </defs>
</svg>
