<?xml version="1.0" encoding="utf-8" standalone="no"?>
<!DOCTYPE svg PUBLIC "-//W3C//DTD SVG 1.1//EN"
  "http://www.w3.org/Graphics/SVG/1.1/DTD/svg11.dtd">
<svg xmlns:xlink="http://www.w3.org/1999/xlink" width="432pt" height="144pt" viewBox="0 0 432 144" xmlns="http://www.w3.org/2000/svg" version="1.1">
 <metadata>
  <rdf:RDF xmlns:dc="http://purl.org/dc/elements/1.1/" xmlns:cc="http://creativecommons.org/ns#" xmlns:rdf="http://www.w3.org/1999/02/22-rdf-syntax-ns#">
   <cc:Work>
    <dc:type rdf:resource="http://purl.org/dc/dcmitype/StillImage"/>
    <dc:date>2024-05-30T14:02:05.391990</dc:date>
    <dc:format>image/svg+xml</dc:format>
    <dc:creator>
     <cc:Agent>
      <dc:title>Matplotlib v3.8.3, https://matplotlib.org/</dc:title>
     </cc:Agent>
    </dc:creator>
   </cc:Work>
  </rdf:RDF>
 </metadata>
 <defs>
  <style type="text/css">*{stroke-linejoin: round; stroke-linecap: butt}</style>
 </defs>
 <g id="figure_1">
  <g id="patch_1">
   <path d="M 0 144 
L 432 144 
L 432 0 
L 0 0 
z
" style="fill: #ffffff"/>
  </g>
  <g id="axes_1">
   <g id="patch_2">
    <path d="M 24.1 116.12 
L 129.84 116.12 
L 129.84 13.446411 
L 24.1 13.446411 
z
" style="fill: #f2f2f2"/>
   </g>
   <g id="matplotlib.axis_1">
    <g id="xtick_1">
     <g id="line2d_1">
      <defs>
       <path id="m6a6bd3b299" d="M 0 0 
L 0 3.5 
" style="stroke: #000000; stroke-width: 0.8"/>
      </defs>
      <g>
       <use xlink:href="#m6a6bd3b299" x="52.938182" y="116.12" style="stroke: #000000; stroke-width: 0.8"/>
      </g>
     </g>
     <g id="text_1">
      <!-- 30 -->
      <g transform="translate(46.575682 130.718437) scale(0.1 -0.1)">
       <defs>
        <path id="DejaVuSans-33" d="M 2597 2516 
Q 3050 2419 3304 2112 
Q 3559 1806 3559 1356 
Q 3559 666 3084 287 
Q 2609 -91 1734 -91 
Q 1441 -91 1130 -33 
Q 819 25 488 141 
L 488 750 
Q 750 597 1062 519 
Q 1375 441 1716 441 
Q 2309 441 2620 675 
Q 2931 909 2931 1356 
Q 2931 1769 2642 2001 
Q 2353 2234 1838 2234 
L 1294 2234 
L 1294 2753 
L 1863 2753 
Q 2328 2753 2575 2939 
Q 2822 3125 2822 3475 
Q 2822 3834 2567 4026 
Q 2313 4219 1838 4219 
Q 1578 4219 1281 4162 
Q 984 4106 628 3988 
L 628 4550 
Q 988 4650 1302 4700 
Q 1616 4750 1894 4750 
Q 2613 4750 3031 4423 
Q 3450 4097 3450 3541 
Q 3450 3153 3228 2886 
Q 3006 2619 2597 2516 
z
" transform="scale(0.015625)"/>
        <path id="DejaVuSans-30" d="M 2034 4250 
Q 1547 4250 1301 3770 
Q 1056 3291 1056 2328 
Q 1056 1369 1301 889 
Q 1547 409 2034 409 
Q 2525 409 2770 889 
Q 3016 1369 3016 2328 
Q 3016 3291 2770 3770 
Q 2525 4250 2034 4250 
z
M 2034 4750 
Q 2819 4750 3233 4129 
Q 3647 3509 3647 2328 
Q 3647 1150 3233 529 
Q 2819 -91 2034 -91 
Q 1250 -91 836 529 
Q 422 1150 422 2328 
Q 422 3509 836 4129 
Q 1250 4750 2034 4750 
z
" transform="scale(0.015625)"/>
       </defs>
       <use xlink:href="#DejaVuSans-33"/>
       <use xlink:href="#DejaVuSans-30" x="63.623047"/>
      </g>
     </g>
    </g>
    <g id="xtick_2">
     <g id="line2d_2">
      <g>
       <use xlink:href="#m6a6bd3b299" x="101.001818" y="116.12" style="stroke: #000000; stroke-width: 0.8"/>
      </g>
     </g>
     <g id="text_2">
      <!-- 40 -->
      <g transform="translate(94.639318 130.718437) scale(0.1 -0.1)">
       <defs>
        <path id="DejaVuSans-34" d="M 2419 4116 
L 825 1625 
L 2419 1625 
L 2419 4116 
z
M 2253 4666 
L 3047 4666 
L 3047 1625 
L 3713 1625 
L 3713 1100 
L 3047 1100 
L 3047 0 
L 2419 0 
L 2419 1100 
L 313 1100 
L 313 1709 
L 2253 4666 
z
" transform="scale(0.015625)"/>
       </defs>
       <use xlink:href="#DejaVuSans-34"/>
       <use xlink:href="#DejaVuSans-30" x="63.623047"/>
      </g>
     </g>
    </g>
   </g>
   <g id="matplotlib.axis_2">
    <g id="ytick_1">
     <g id="line2d_3">
      <defs>
       <path id="mf0c9fad85a" d="M 0 0 
L -3.5 0 
" style="stroke: #000000; stroke-width: 0.8"/>
      </defs>
      <g>
       <use xlink:href="#mf0c9fad85a" x="24.1" y="98.435444" style="stroke: #000000; stroke-width: 0.8"/>
      </g>
     </g>
     <g id="text_3">
      <!-- 2 -->
      <g transform="translate(10.7375 102.234663) scale(0.1 -0.1)">
       <defs>
        <path id="DejaVuSans-32" d="M 1228 531 
L 3431 531 
L 3431 0 
L 469 0 
L 469 531 
Q 828 903 1448 1529 
Q 2069 2156 2228 2338 
Q 2531 2678 2651 2914 
Q 2772 3150 2772 3378 
Q 2772 3750 2511 3984 
Q 2250 4219 1831 4219 
Q 1534 4219 1204 4116 
Q 875 4013 500 3803 
L 500 4441 
Q 881 4594 1212 4672 
Q 1544 4750 1819 4750 
Q 2544 4750 2975 4387 
Q 3406 4025 3406 3419 
Q 3406 3131 3298 2873 
Q 3191 2616 2906 2266 
Q 2828 2175 2409 1742 
Q 1991 1309 1228 531 
z
" transform="scale(0.015625)"/>
       </defs>
       <use xlink:href="#DejaVuSans-32"/>
      </g>
     </g>
    </g>
    <g id="ytick_2">
     <g id="line2d_4">
      <g>
       <use xlink:href="#mf0c9fad85a" x="24.1" y="73.209262" style="stroke: #000000; stroke-width: 0.8"/>
      </g>
     </g>
     <g id="text_4">
      <!-- 3 -->
      <g transform="translate(10.7375 77.008481) scale(0.1 -0.1)">
       <use xlink:href="#DejaVuSans-33"/>
      </g>
     </g>
    </g>
    <g id="ytick_3">
     <g id="line2d_5">
      <g>
       <use xlink:href="#mf0c9fad85a" x="24.1" y="47.983081" style="stroke: #000000; stroke-width: 0.8"/>
      </g>
     </g>
     <g id="text_5">
      <!-- 4 -->
      <g transform="translate(10.7375 51.782299) scale(0.1 -0.1)">
       <use xlink:href="#DejaVuSans-34"/>
      </g>
     </g>
    </g>
    <g id="ytick_4">
     <g id="line2d_6">
      <g>
       <use xlink:href="#mf0c9fad85a" x="24.1" y="22.756899" style="stroke: #000000; stroke-width: 0.8"/>
      </g>
     </g>
     <g id="text_6">
      <!-- 5 -->
      <g transform="translate(10.7375 26.556117) scale(0.1 -0.1)">
       <defs>
        <path id="DejaVuSans-35" d="M 691 4666 
L 3169 4666 
L 3169 4134 
L 1269 4134 
L 1269 2991 
Q 1406 3038 1543 3061 
Q 1681 3084 1819 3084 
Q 2600 3084 3056 2656 
Q 3513 2228 3513 1497 
Q 3513 744 3044 326 
Q 2575 -91 1722 -91 
Q 1428 -91 1123 -41 
Q 819 9 494 109 
L 494 744 
Q 775 591 1075 516 
Q 1375 441 1709 441 
Q 2250 441 2565 725 
Q 2881 1009 2881 1497 
Q 2881 1984 2565 2268 
Q 2250 2553 1709 2553 
Q 1456 2553 1204 2497 
Q 953 2441 691 2322 
L 691 4666 
z
" transform="scale(0.015625)"/>
       </defs>
       <use xlink:href="#DejaVuSans-35"/>
      </g>
     </g>
    </g>
   </g>
   <g id="line2d_7">
    <path d="M 28.906364 88.170759 
L 29.707424 82.734395 
L 30.508485 81.337302 
L 31.309545 79.526059 
L 32.110606 75.27825 
L 32.911667 72.654525 
L 33.712727 70.05804 
L 34.513788 71.119187 
L 35.314848 78.513532 
L 36.115909 87.116349 
L 36.91697 90.059033 
L 37.71803 99.199306 
L 38.519091 100.365601 
L 39.320152 107.018637 
L 40.121212 104.881992 
L 40.922273 106.673318 
L 41.723333 111.058786 
L 42.524394 109.272147 
L 43.325455 109.305243 
L 44.126515 108.943815 
L 44.927576 111.453019 
L 45.728636 109.261895 
L 46.529697 109.666086 
L 47.330758 108.441213 
L 48.131818 108.015055 
L 48.932879 103.613185 
L 49.733939 103.595904 
L 50.535 104.431232 
L 51.336061 99.584166 
L 52.137121 100.845943 
L 52.938182 94.651576 
L 53.739242 95.359495 
L 54.540303 90.433348 
L 55.341364 81.608812 
L 56.142424 78.121057 
L 56.943485 74.085009 
L 57.744545 69.842179 
L 58.545606 62.518713 
L 59.346667 57.522565 
L 60.147727 56.027939 
L 60.948788 42.337885 
L 61.749848 18.113393 
L 62.550909 30.104967 
L 63.35197 44.232894 
L 64.15303 58.021946 
L 64.954091 66.677483 
L 65.755152 85.532976 
L 66.556212 87.249615 
L 67.357273 92.002662 
L 68.158333 97.064711 
L 68.959394 101.165195 
L 69.760455 105.734893 
L 70.561515 104.322569 
L 71.362576 104.011518 
L 72.163636 101.604533 
L 72.964697 102.736853 
L 73.765758 102.524799 
L 74.566818 99.928314 
L 75.367879 102.057051 
L 76.168939 98.468541 
L 76.97 99.79827 
L 77.771061 97.062075 
L 78.572121 99.054617 
L 79.373182 99.531152 
" clip-path="url(#p7a6d141168)" style="fill: none; stroke: #a31621; stroke-width: 1.5; stroke-linecap: square"/>
   </g>
   <g id="line2d_8">
    <path d="M 79.373182 99.531152 
L 80.174242 93.881856 
L 80.975303 96.035782 
L 81.776364 91.725587 
L 82.577424 88.969182 
L 83.378485 83.598719 
L 84.179545 77.901096 
L 84.980606 78.4242 
L 85.781667 73.866512 
L 86.582727 70.111346 
L 87.383788 66.295259 
L 88.184848 60.985718 
L 88.985909 59.777539 
L 89.78697 59.342595 
L 90.58803 63.658648 
L 91.389091 68.69375 
L 92.190152 74.215638 
L 92.991212 75.336242 
L 93.792273 85.275817 
L 94.593333 82.408114 
L 95.394394 95.049615 
L 96.195455 92.692715 
L 96.996515 97.415595 
L 97.797576 95.766029 
L 98.598636 96.179006 
L 99.399697 98.387117 
L 100.200758 96.26043 
L 101.001818 100.292671 
L 101.802879 104.60023 
L 102.603939 102.571076 
L 103.405 101.182476 
L 104.206061 100.855023 
L 105.007121 94.119098 
L 105.808182 96.020259 
L 106.609242 97.835895 
L 107.410303 96.113105 
L 108.211364 99.216001 
L 109.012424 95.51502 
L 109.813485 95.554268 
L 110.614545 92.986486 
L 111.415606 92.504679 
L 112.216667 86.926848 
L 113.017727 91.07976 
L 113.818788 83.711482 
L 114.619848 84.253332 
L 115.420909 81.213994 
L 116.22197 79.41476 
L 117.02303 79.811336 
L 117.824091 73.972245 
L 118.625152 70.83186 
L 119.426212 66.764472 
L 120.227273 66.883972 
L 121.028333 63.049726 
L 121.829394 70.701523 
L 122.630455 75.408587 
L 123.431515 77.896995 
L 124.232576 82.784187 
L 125.033636 88.207957 
" clip-path="url(#p7a6d141168)" style="fill: none; stroke: #053c5e; stroke-width: 1.5; stroke-linecap: square"/>
   </g>
   <g id="LineCollection_1">
    <path d="M 79.373182 111.453019 
L 79.373182 18.113393 
" clip-path="url(#p7a6d141168)" style="fill: none; stroke-dasharray: 5.55,2.4; stroke-dashoffset: 0; stroke: #808080; stroke-width: 1.5"/>
   </g>
   <g id="patch_3">
    <path d="M 24.1 116.12 
L 24.1 13.446411 
" style="fill: none; stroke: #000000; stroke-width: 0.8; stroke-linejoin: miter; stroke-linecap: square"/>
   </g>
   <g id="patch_4">
    <path d="M 129.84 116.12 
L 129.84 13.446411 
" style="fill: none; stroke: #000000; stroke-width: 0.8; stroke-linejoin: miter; stroke-linecap: square"/>
   </g>
   <g id="patch_5">
    <path d="M 24.1 116.12 
L 129.84 116.12 
" style="fill: none; stroke: #000000; stroke-width: 0.8; stroke-linejoin: miter; stroke-linecap: square"/>
   </g>
   <g id="patch_6">
    <path d="M 24.1 13.446411 
L 129.84 13.446411 
" style="fill: none; stroke: #000000; stroke-width: 0.8; stroke-linejoin: miter; stroke-linecap: square"/>
   </g>
  </g>
  <g id="axes_2">
   <g id="patch_7">
    <path d="M 169.78 116.12 
L 275.52 116.12 
L 275.52 13.446411 
L 169.78 13.446411 
z
" style="fill: #f2f2f2"/>
   </g>
   <g id="matplotlib.axis_3">
    <g id="xtick_3">
     <g id="line2d_9">
      <g>
       <use xlink:href="#m6a6bd3b299" x="198.618182" y="116.12" style="stroke: #000000; stroke-width: 0.8"/>
      </g>
     </g>
     <g id="text_7">
      <!-- 30 -->
      <g transform="translate(192.255682 130.718437) scale(0.1 -0.1)">
       <use xlink:href="#DejaVuSans-33"/>
       <use xlink:href="#DejaVuSans-30" x="63.623047"/>
      </g>
     </g>
    </g>
    <g id="xtick_4">
     <g id="line2d_10">
      <g>
       <use xlink:href="#m6a6bd3b299" x="246.681818" y="116.12" style="stroke: #000000; stroke-width: 0.8"/>
      </g>
     </g>
     <g id="text_8">
      <!-- 40 -->
      <g transform="translate(240.319318 130.718437) scale(0.1 -0.1)">
       <use xlink:href="#DejaVuSans-34"/>
       <use xlink:href="#DejaVuSans-30" x="63.623047"/>
      </g>
     </g>
    </g>
   </g>
   <g id="matplotlib.axis_4">
    <g id="ytick_5">
     <g id="line2d_11">
      <g>
       <use xlink:href="#mf0c9fad85a" x="169.78" y="113.175928" style="stroke: #000000; stroke-width: 0.8"/>
      </g>
     </g>
     <g id="text_9">
      <!-- 0.25 -->
      <g transform="translate(140.514375 116.975147) scale(0.1 -0.1)">
       <defs>
        <path id="DejaVuSans-2e" d="M 684 794 
L 1344 794 
L 1344 0 
L 684 0 
L 684 794 
z
" transform="scale(0.015625)"/>
       </defs>
       <use xlink:href="#DejaVuSans-30"/>
       <use xlink:href="#DejaVuSans-2e" x="63.623047"/>
       <use xlink:href="#DejaVuSans-32" x="95.410156"/>
       <use xlink:href="#DejaVuSans-35" x="159.033203"/>
      </g>
     </g>
    </g>
    <g id="ytick_6">
     <g id="line2d_12">
      <g>
       <use xlink:href="#mf0c9fad85a" x="169.78" y="88.547641" style="stroke: #000000; stroke-width: 0.8"/>
      </g>
     </g>
     <g id="text_10">
      <!-- 0.50 -->
      <g transform="translate(140.514375 92.346859) scale(0.1 -0.1)">
       <use xlink:href="#DejaVuSans-30"/>
       <use xlink:href="#DejaVuSans-2e" x="63.623047"/>
       <use xlink:href="#DejaVuSans-35" x="95.410156"/>
       <use xlink:href="#DejaVuSans-30" x="159.033203"/>
      </g>
     </g>
    </g>
    <g id="ytick_7">
     <g id="line2d_13">
      <g>
       <use xlink:href="#mf0c9fad85a" x="169.78" y="63.919354" style="stroke: #000000; stroke-width: 0.8"/>
      </g>
     </g>
     <g id="text_11">
      <!-- 0.75 -->
      <g transform="translate(140.514375 67.718572) scale(0.1 -0.1)">
       <defs>
        <path id="DejaVuSans-37" d="M 525 4666 
L 3525 4666 
L 3525 4397 
L 1831 0 
L 1172 0 
L 2766 4134 
L 525 4134 
L 525 4666 
z
" transform="scale(0.015625)"/>
       </defs>
       <use xlink:href="#DejaVuSans-30"/>
       <use xlink:href="#DejaVuSans-2e" x="63.623047"/>
       <use xlink:href="#DejaVuSans-37" x="95.410156"/>
       <use xlink:href="#DejaVuSans-35" x="159.033203"/>
      </g>
     </g>
    </g>
    <g id="ytick_8">
     <g id="line2d_14">
      <g>
       <use xlink:href="#mf0c9fad85a" x="169.78" y="39.291066" style="stroke: #000000; stroke-width: 0.8"/>
      </g>
     </g>
     <g id="text_12">
      <!-- 1.00 -->
      <g transform="translate(140.514375 43.090285) scale(0.1 -0.1)">
       <defs>
        <path id="DejaVuSans-31" d="M 794 531 
L 1825 531 
L 1825 4091 
L 703 3866 
L 703 4441 
L 1819 4666 
L 2450 4666 
L 2450 531 
L 3481 531 
L 3481 0 
L 794 0 
L 794 531 
z
" transform="scale(0.015625)"/>
       </defs>
       <use xlink:href="#DejaVuSans-31"/>
       <use xlink:href="#DejaVuSans-2e" x="63.623047"/>
       <use xlink:href="#DejaVuSans-30" x="95.410156"/>
       <use xlink:href="#DejaVuSans-30" x="159.033203"/>
      </g>
     </g>
    </g>
    <g id="ytick_9">
     <g id="line2d_15">
      <g>
       <use xlink:href="#mf0c9fad85a" x="169.78" y="14.662779" style="stroke: #000000; stroke-width: 0.8"/>
      </g>
     </g>
     <g id="text_13">
      <!-- 1.25 -->
      <g transform="translate(140.514375 18.461998) scale(0.1 -0.1)">
       <use xlink:href="#DejaVuSans-31"/>
       <use xlink:href="#DejaVuSans-2e" x="63.623047"/>
       <use xlink:href="#DejaVuSans-32" x="95.410156"/>
       <use xlink:href="#DejaVuSans-35" x="159.033203"/>
      </g>
     </g>
    </g>
   </g>
   <g id="line2d_16">
    <path d="M 174.586364 67.212744 
L 175.387424 61.949712 
L 176.188485 56.179267 
L 176.989545 51.487584 
L 177.790606 62.484443 
L 178.591667 64.287998 
L 179.392727 84.068978 
L 180.193788 89.307598 
L 180.994848 97.304152 
L 181.795909 104.853159 
L 182.59697 107.541345 
L 183.39803 107.285604 
L 184.199091 108.674742 
L 185.000152 110.140603 
L 185.801212 111.453019 
L 186.602273 108.09235 
L 187.403333 110.034819 
L 188.204394 108.33821 
L 189.005455 101.361714 
L 189.806515 101.943525 
L 190.607576 102.896741 
L 191.408636 94.980397 
L 192.209697 88.118403 
L 193.010758 81.208748 
L 193.811818 73.946287 
L 194.612879 67.241225 
L 195.413939 62.94129 
L 196.215 52.004878 
L 197.016061 52.011853 
L 197.817121 35.563642 
L 198.618182 45.217862 
L 199.419242 57.39113 
L 200.220303 72.760579 
L 201.021364 81.877162 
L 201.822424 95.533146 
L 202.623485 103.825546 
L 203.424545 108.380059 
L 204.225606 102.424202 
L 205.026667 95.365752 
L 205.827727 93.483731 
L 206.628788 81.930635 
L 207.429848 67.182521 
L 208.230909 67.816061 
L 209.03197 75.514444 
L 209.83303 80.513598 
L 210.634091 77.22907 
L 211.435152 76.159608 
L 212.236212 77.984669 
L 213.037273 70.965743 
L 213.838333 68.769277 
L 214.639394 68.229896 
L 215.440455 66.789609 
L 216.241515 71.579521 
L 217.042576 69.479539 
L 217.843636 74.124143 
L 218.644697 70.707677 
L 219.445758 75.173843 
L 220.246818 75.738217 
L 221.047879 79.613855 
L 221.848939 75.051785 
L 222.65 73.283685 
L 223.451061 75.531299 
L 224.252121 82.232293 
L 225.053182 79.808566 
" clip-path="url(#p79349199d8)" style="fill: none; stroke: #a31621; stroke-width: 1.5; stroke-linecap: square"/>
   </g>
   <g id="line2d_17">
    <path d="M 225.053182 79.808566 
L 225.854242 79.030881 
L 226.655303 77.81495 
L 227.456364 80.591482 
L 228.257424 76.253186 
L 229.058485 77.795769 
L 229.859545 78.010824 
L 230.660606 76.754787 
L 231.461667 76.232843 
L 232.262727 75.946878 
L 233.063788 75.552805 
L 233.864848 74.318855 
L 234.665909 70.64781 
L 235.46697 66.650114 
L 236.26803 56.555323 
L 237.069091 60.707625 
L 237.870152 58.21822 
L 238.671212 53.505031 
L 239.472273 57.347538 
L 240.273333 54.784898 
L 241.074394 61.412075 
L 241.875455 66.978509 
L 242.676515 67.746894 
L 243.477576 70.350221 
L 244.278636 74.648993 
L 245.079697 76.508346 
L 245.880758 73.84399 
L 246.681818 79.224431 
L 247.482879 81.3279 
L 248.283939 81.755104 
L 249.085 82.904194 
L 249.886061 80.191597 
L 250.687121 78.471158 
L 251.488182 78.696675 
L 252.289242 73.412137 
L 253.090303 72.828002 
L 253.891364 71.759121 
L 254.692424 63.047074 
L 255.493485 57.057505 
L 256.294545 54.355951 
L 257.095606 46.017053 
L 257.896667 34.46105 
L 258.697727 30.7592 
L 259.498788 19.932059 
L 260.299848 18.452831 
L 261.100909 18.113393 
L 261.90197 25.425839 
L 262.70303 44.129801 
L 263.504091 50.700599 
L 264.305152 57.534113 
L 265.106212 62.36471 
L 265.907273 75.776578 
L 266.708333 73.577787 
L 267.509394 82.903032 
L 268.310455 81.565623 
L 269.111515 78.904173 
L 269.912576 84.088158 
L 270.713636 83.183184 
" clip-path="url(#p79349199d8)" style="fill: none; stroke: #053c5e; stroke-width: 1.5; stroke-linecap: square"/>
   </g>
   <g id="LineCollection_2">
    <path d="M 225.053182 111.453019 
L 225.053182 18.113393 
" clip-path="url(#p79349199d8)" style="fill: none; stroke-dasharray: 5.55,2.4; stroke-dashoffset: 0; stroke: #808080; stroke-width: 1.5"/>
   </g>
   <g id="patch_8">
    <path d="M 169.78 116.12 
L 169.78 13.446411 
" style="fill: none; stroke: #000000; stroke-width: 0.8; stroke-linejoin: miter; stroke-linecap: square"/>
   </g>
   <g id="patch_9">
    <path d="M 275.52 116.12 
L 275.52 13.446411 
" style="fill: none; stroke: #000000; stroke-width: 0.8; stroke-linejoin: miter; stroke-linecap: square"/>
   </g>
   <g id="patch_10">
    <path d="M 169.78 116.12 
L 275.52 116.12 
" style="fill: none; stroke: #000000; stroke-width: 0.8; stroke-linejoin: miter; stroke-linecap: square"/>
   </g>
   <g id="patch_11">
    <path d="M 169.78 13.446411 
L 275.52 13.446411 
" style="fill: none; stroke: #000000; stroke-width: 0.8; stroke-linejoin: miter; stroke-linecap: square"/>
   </g>
  </g>
  <g id="axes_3">
   <g id="patch_12">
    <path d="M 315.46 116.12 
L 421.2 116.12 
L 421.2 13.446411 
L 315.46 13.446411 
z
" style="fill: #f2f2f2"/>
   </g>
   <g id="matplotlib.axis_5">
    <g id="xtick_5">
     <g id="line2d_18">
      <g>
       <use xlink:href="#m6a6bd3b299" x="344.298182" y="116.12" style="stroke: #000000; stroke-width: 0.8"/>
      </g>
     </g>
     <g id="text_14">
      <!-- 30 -->
      <g transform="translate(337.935682 130.718437) scale(0.1 -0.1)">
       <use xlink:href="#DejaVuSans-33"/>
       <use xlink:href="#DejaVuSans-30" x="63.623047"/>
      </g>
     </g>
    </g>
    <g id="xtick_6">
     <g id="line2d_19">
      <g>
       <use xlink:href="#m6a6bd3b299" x="392.361818" y="116.12" style="stroke: #000000; stroke-width: 0.8"/>
      </g>
     </g>
     <g id="text_15">
      <!-- 40 -->
      <g transform="translate(385.999318 130.718437) scale(0.1 -0.1)">
       <use xlink:href="#DejaVuSans-34"/>
       <use xlink:href="#DejaVuSans-30" x="63.623047"/>
      </g>
     </g>
    </g>
   </g>
   <g id="matplotlib.axis_6">
    <g id="ytick_10">
     <g id="line2d_20">
      <g>
       <use xlink:href="#mf0c9fad85a" x="315.46" y="94.256462" style="stroke: #000000; stroke-width: 0.8"/>
      </g>
     </g>
     <g id="text_16">
      <!-- 1.5 -->
      <g transform="translate(292.556875 98.055681) scale(0.1 -0.1)">
       <use xlink:href="#DejaVuSans-31"/>
       <use xlink:href="#DejaVuSans-2e" x="63.623047"/>
       <use xlink:href="#DejaVuSans-35" x="95.410156"/>
      </g>
     </g>
    </g>
    <g id="ytick_11">
     <g id="line2d_21">
      <g>
       <use xlink:href="#mf0c9fad85a" x="315.46" y="70.248353" style="stroke: #000000; stroke-width: 0.8"/>
      </g>
     </g>
     <g id="text_17">
      <!-- 2.0 -->
      <g transform="translate(292.556875 74.047572) scale(0.1 -0.1)">
       <use xlink:href="#DejaVuSans-32"/>
       <use xlink:href="#DejaVuSans-2e" x="63.623047"/>
       <use xlink:href="#DejaVuSans-30" x="95.410156"/>
      </g>
     </g>
    </g>
    <g id="ytick_12">
     <g id="line2d_22">
      <g>
       <use xlink:href="#mf0c9fad85a" x="315.46" y="46.240244" style="stroke: #000000; stroke-width: 0.8"/>
      </g>
     </g>
     <g id="text_18">
      <!-- 2.5 -->
      <g transform="translate(292.556875 50.039463) scale(0.1 -0.1)">
       <use xlink:href="#DejaVuSans-32"/>
       <use xlink:href="#DejaVuSans-2e" x="63.623047"/>
       <use xlink:href="#DejaVuSans-35" x="95.410156"/>
      </g>
     </g>
    </g>
    <g id="ytick_13">
     <g id="line2d_23">
      <g>
       <use xlink:href="#mf0c9fad85a" x="315.46" y="22.232135" style="stroke: #000000; stroke-width: 0.8"/>
      </g>
     </g>
     <g id="text_19">
      <!-- 3.0 -->
      <g transform="translate(292.556875 26.031354) scale(0.1 -0.1)">
       <use xlink:href="#DejaVuSans-33"/>
       <use xlink:href="#DejaVuSans-2e" x="63.623047"/>
       <use xlink:href="#DejaVuSans-30" x="95.410156"/>
      </g>
     </g>
    </g>
   </g>
   <g id="line2d_24">
    <path d="M 320.266364 108.073381 
L 321.067424 107.814778 
L 321.868485 110.908562 
L 322.669545 103.910704 
L 323.470606 104.008027 
L 324.271667 104.457385 
L 325.072727 101.416434 
L 325.873788 99.844794 
L 326.674848 95.895117 
L 327.475909 95.029213 
L 328.27697 87.164339 
L 329.07803 88.055825 
L 329.879091 84.85137 
L 330.680152 71.757706 
L 331.481212 67.618943 
L 332.282273 65.944974 
L 333.083333 68.3447 
L 333.884394 67.836392 
L 334.685455 71.726006 
L 335.486515 83.829192 
L 336.287576 90.675781 
L 337.088636 100.285254 
L 337.889697 98.635754 
L 338.690758 103.709382 
L 339.491818 104.456829 
L 340.292879 100.184037 
L 341.093939 102.866836 
L 341.895 108.554994 
L 342.696061 108.254125 
L 343.497121 109.712869 
L 344.298182 111.453019 
L 345.099242 103.711051 
L 345.900303 105.441746 
L 346.701364 101.736768 
L 347.502424 102.335727 
L 348.303485 95.429631 
L 349.104545 100.507152 
L 349.905606 87.599794 
L 350.706667 84.066106 
L 351.507727 86.386861 
L 352.308788 69.81846 
L 353.109848 42.716289 
L 353.910909 43.034955 
L 354.71197 37.973562 
L 355.51303 29.584808 
L 356.314091 27.330233 
L 357.115152 18.113393 
L 357.916212 28.78286 
L 358.717273 34.008869 
L 359.518333 51.156208 
L 360.319394 64.036871 
L 361.120455 81.270967 
L 361.921515 85.177822 
L 362.722576 92.866957 
L 363.523636 91.918745 
L 364.324697 92.007171 
L 365.125758 93.727855 
L 365.926818 95.827824 
L 366.727879 97.755391 
L 367.528939 93.526534 
L 368.33 99.199676 
L 369.131061 90.769768 
L 369.932121 97.971728 
L 370.733182 94.472521 
" clip-path="url(#p580aab2c0b)" style="fill: none; stroke: #a31621; stroke-width: 1.5; stroke-linecap: square"/>
   </g>
   <g id="line2d_25">
    <path d="M 370.733182 94.472521 
L 371.534242 100.396481 
L 372.335303 93.009327 
L 373.136364 88.365037 
L 373.937424 90.92493 
L 374.738485 87.775532 
L 375.539545 89.738136 
L 376.340606 83.776359 
L 377.141667 81.129708 
L 377.942727 82.171351 
L 378.743788 77.804016 
L 379.544848 74.462751 
L 380.345909 68.33469 
L 381.14697 69.154434 
L 381.94803 65.441114 
L 382.749091 61.915213 
L 383.550152 64.806007 
L 384.351212 57.473355 
L 385.152273 57.465013 
L 385.953333 50.707406 
L 386.754394 59.090042 
L 387.555455 57.295392 
L 388.356515 66.246955 
L 389.157576 77.146663 
L 389.958636 80.362241 
L 390.759697 84.578863 
L 391.560758 85.800138 
L 392.361818 92.908111 
L 393.162879 90.319298 
L 393.963939 93.164489 
L 394.765 90.298721 
L 395.566061 92.492121 
L 396.367121 88.702611 
L 397.168182 90.581238 
L 397.969242 84.223492 
L 398.770303 82.786993 
L 399.571364 85.515396 
L 400.372424 83.620085 
L 401.173485 86.500869 
L 401.974545 81.590189 
L 402.775606 83.69127 
L 403.576667 72.158124 
L 404.377727 74.000046 
L 405.178788 72.759863 
L 405.979848 69.036533 
L 406.780909 68.05106 
L 407.58197 62.142116 
L 408.38303 66.473303 
L 409.184091 52.416968 
L 409.985152 53.615997 
L 410.786212 46.110386 
L 411.587273 47.608617 
L 412.388333 39.87944 
L 413.189394 40.756466 
L 413.990455 44.148339 
L 414.791515 45.959118 
L 415.592576 59.123411 
L 416.393636 62.063145 
" clip-path="url(#p580aab2c0b)" style="fill: none; stroke: #053c5e; stroke-width: 1.5; stroke-linecap: square"/>
   </g>
   <g id="LineCollection_3">
    <path d="M 370.733182 111.453019 
L 370.733182 18.113393 
" clip-path="url(#p580aab2c0b)" style="fill: none; stroke-dasharray: 5.55,2.4; stroke-dashoffset: 0; stroke: #808080; stroke-width: 1.5"/>
   </g>
   <g id="patch_13">
    <path d="M 315.46 116.12 
L 315.46 13.446411 
" style="fill: none; stroke: #000000; stroke-width: 0.8; stroke-linejoin: miter; stroke-linecap: square"/>
   </g>
   <g id="patch_14">
    <path d="M 421.2 116.12 
L 421.2 13.446411 
" style="fill: none; stroke: #000000; stroke-width: 0.8; stroke-linejoin: miter; stroke-linecap: square"/>
   </g>
   <g id="patch_15">
    <path d="M 315.46 116.12 
L 421.2 116.12 
" style="fill: none; stroke: #000000; stroke-width: 0.8; stroke-linejoin: miter; stroke-linecap: square"/>
   </g>
   <g id="patch_16">
    <path d="M 315.46 13.446411 
L 421.2 13.446411 
" style="fill: none; stroke: #000000; stroke-width: 0.8; stroke-linejoin: miter; stroke-linecap: square"/>
   </g>
  </g>
 </g>
 <defs>
  <clipPath id="p7a6d141168">
   <rect x="24.1" y="13.446411" width="105.74" height="102.673589"/>
  </clipPath>
  <clipPath id="p79349199d8">
   <rect x="169.78" y="13.446411" width="105.74" height="102.673589"/>
  </clipPath>
  <clipPath id="p580aab2c0b">
   <rect x="315.46" y="13.446411" width="105.74" height="102.673589"/>
  </clipPath>
 </defs>
</svg>
