<?xml version="1.0" encoding="utf-8" standalone="no"?>
<!DOCTYPE svg PUBLIC "-//W3C//DTD SVG 1.1//EN"
  "http://www.w3.org/Graphics/SVG/1.1/DTD/svg11.dtd">
<svg xmlns:xlink="http://www.w3.org/1999/xlink" width="288pt" height="144pt" viewBox="0 0 288 144" xmlns="http://www.w3.org/2000/svg" version="1.1">
 <metadata>
  <rdf:RDF xmlns:dc="http://purl.org/dc/elements/1.1/" xmlns:cc="http://creativecommons.org/ns#" xmlns:rdf="http://www.w3.org/1999/02/22-rdf-syntax-ns#">
   <cc:Work>
    <dc:type rdf:resource="http://purl.org/dc/dcmitype/StillImage"/>
    <dc:date>2024-07-10T10:17:51.445896</dc:date>
    <dc:format>image/svg+xml</dc:format>
    <dc:creator>
     <cc:Agent>
      <dc:title>Matplotlib v3.8.3, https://matplotlib.org/</dc:title>
     </cc:Agent>
    </dc:creator>
   </cc:Work>
  </rdf:RDF>
 </metadata>
 <defs>
  <style type="text/css">*{stroke-linejoin: round; stroke-linecap: butt}</style>
 </defs>
 <g id="figure_1">
  <g id="patch_1">
   <path d="M 0 144 
L 288 144 
L 288 0 
L 0 0 
z
" style="fill: #ffffff"/>
  </g>
  <g id="axes_1">
   <g id="patch_2">
    <path d="M 36 128.16 
L 259.2 128.16 
L 259.2 17.28 
L 36 17.28 
z
" style="fill: #f2f2f2"/>
   </g>
   <g id="PolyCollection_1">
    <path d="M 36 100.425324 
L 36 104.606096 
L 36.744 101.168589 
L 37.488 98.469614 
L 38.232 95.076107 
L 38.976 91.34974 
L 39.72 87.374443 
L 40.464 83.474134 
L 41.208 80.171851 
L 41.952 77.947301 
L 42.696 77.011416 
L 43.44 78.155166 
L 44.184 80.309932 
L 44.928 83.604879 
L 45.672 87.640552 
L 46.416 92.269412 
L 47.16 96.709089 
L 47.904 100.989131 
L 48.648 104.300374 
L 49.392 107.199132 
L 50.136 109.103699 
L 50.88 110.697084 
L 51.624 111.605732 
L 52.368 112.233219 
L 53.112 112.343484 
L 53.856 112.391827 
L 54.6 112.231651 
L 55.344 111.707732 
L 56.088 110.948749 
L 56.832 110.250242 
L 57.576 109.314403 
L 58.32 108.587688 
L 59.064 107.747556 
L 59.808 107.08382 
L 60.552 106.32475 
L 61.296 105.75592 
L 62.04 104.886512 
L 62.784 103.939297 
L 63.528 102.927323 
L 64.272 102.01831 
L 65.016 101.150637 
L 65.76 100.595168 
L 66.504 100.545689 
L 67.248 101.003523 
L 67.992 101.937321 
L 68.736 103.203015 
L 69.48 104.682434 
L 70.224 106.052039 
L 70.968 107.486713 
L 71.712 108.773558 
L 72.456 109.86165 
L 73.2 110.870364 
L 73.944 111.60263 
L 74.688 111.950248 
L 75.432 111.994611 
L 76.176 112.000333 
L 76.92 111.995912 
L 77.664 111.830953 
L 78.408 111.54493 
L 79.152 111.283418 
L 79.896 110.931164 
L 80.64 110.491432 
L 81.384 110.003903 
L 82.128 109.448541 
L 82.872 108.851995 
L 83.616 108.167409 
L 84.36 107.223476 
L 85.104 106.190297 
L 85.848 105.135938 
L 86.592 104.169654 
L 87.336 103.237344 
L 88.08 102.63214 
L 88.824 102.231598 
L 89.568 102.043019 
L 90.312 102.226644 
L 91.056 102.660573 
L 91.8 103.206663 
L 92.544 103.912685 
L 93.288 104.576858 
L 94.032 105.300379 
L 94.776 105.752036 
L 95.52 106.079064 
L 96.264 106.34538 
L 97.008 106.583459 
L 97.752 106.66676 
L 98.496 106.760265 
L 99.24 106.867203 
L 99.984 107.156164 
L 100.728 107.389986 
L 101.472 107.530436 
L 102.216 107.496581 
L 102.96 107.605168 
L 103.704 107.405267 
L 104.448 107.229731 
L 105.192 106.944314 
L 105.936 106.650358 
L 106.68 106.151418 
L 107.424 105.68265 
L 108.168 105.207774 
L 108.912 104.592663 
L 109.656 104.190962 
L 110.4 103.803534 
L 111.144 103.780823 
L 111.888 103.69422 
L 112.632 103.963379 
L 113.376 104.032907 
L 114.12 104.470495 
L 114.864 104.738051 
L 115.608 105.578246 
L 116.352 105.575259 
L 117.096 106.083681 
L 117.84 106.213353 
L 118.584 106.435965 
L 119.328 106.616653 
L 120.072 107.062043 
L 120.816 107.507669 
L 121.56 107.640499 
L 122.304 107.562358 
L 123.048 106.888395 
L 123.792 106.350669 
L 124.536 105.635834 
L 125.28 105.426825 
L 126.024 105.39682 
L 126.768 105.496056 
L 127.512 105.218139 
L 128.256 105.069048 
L 129 104.994315 
L 129.744 104.952159 
L 130.488 104.943889 
L 131.232 104.938841 
L 131.976 105.013385 
L 132.72 104.990231 
L 133.464 105.180583 
L 134.208 105.138594 
L 134.952 105.27882 
L 135.696 105.278283 
L 136.44 105.595858 
L 137.184 105.790467 
L 137.928 105.920315 
L 138.672 106.087878 
L 139.416 106.064418 
L 140.16 106.115524 
L 140.904 106.042337 
L 141.648 105.935584 
L 142.392 105.695675 
L 143.136 105.338301 
L 143.88 104.946837 
L 144.624 104.569806 
L 145.368 104.354264 
L 146.112 104.275349 
L 146.856 104.273993 
L 147.6 104.431455 
L 148.344 104.568305 
L 149.088 104.831777 
L 149.832 105.079986 
L 150.576 105.196206 
L 151.32 105.148968 
L 152.064 104.900868 
L 152.808 104.918444 
L 153.552 104.818524 
L 154.296 104.691322 
L 155.04 104.889208 
L 155.784 105.01795 
L 156.528 105.325325 
L 157.272 105.546804 
L 158.016 105.807635 
L 158.76 105.988864 
L 159.504 106.092416 
L 160.248 106.267244 
L 160.992 106.275123 
L 161.736 106.406175 
L 162.48 106.254901 
L 163.224 106.299869 
L 163.968 106.168044 
L 164.712 106.194593 
L 165.456 106.065654 
L 166.2 105.998282 
L 166.944 105.776032 
L 167.688 105.61717 
L 168.432 105.258484 
L 169.176 105.176444 
L 169.92 105.219242 
L 170.664 105.146188 
L 171.408 104.848659 
L 172.152 105.332038 
L 172.896 105.367739 
L 173.64 104.769682 
L 174.384 103.672795 
L 175.128 101.947925 
L 175.872 100.055723 
L 176.616 97.916002 
L 177.36 96.150305 
L 178.104 94.58804 
L 178.848 93.740018 
L 179.592 93.499136 
L 180.336 93.964566 
L 181.08 94.735648 
L 181.824 96.077368 
L 182.568 97.595924 
L 183.312 98.603334 
L 184.056 99.119871 
L 184.8 100.358854 
L 185.544 101.362416 
L 186.288 102.083311 
L 187.032 102.905629 
L 187.776 103.422969 
L 188.52 103.917637 
L 189.264 104.179051 
L 190.008 104.436062 
L 190.752 104.483551 
L 191.496 104.625397 
L 192.24 104.632726 
L 192.984 104.5553 
L 193.728 104.36959 
L 194.472 104.196291 
L 195.216 104.122117 
L 195.96 104.059307 
L 196.704 104.054928 
L 197.448 103.854442 
L 198.192 103.733277 
L 198.936 103.265064 
L 199.68 103.351542 
L 200.424 102.949375 
L 201.168 102.495624 
L 201.912 101.776697 
L 202.656 101.353313 
L 203.4 100.859346 
L 204.144 100.642792 
L 204.888 100.445138 
L 205.632 100.177684 
L 206.376 100.028912 
L 207.12 99.843903 
L 207.864 99.977856 
L 208.608 100.229834 
L 209.352 100.761443 
L 210.096 101.119773 
L 210.84 101.498758 
L 211.584 101.475152 
L 212.328 102.007811 
L 213.072 102.281319 
L 213.816 102.618112 
L 214.56 102.801656 
L 215.304 103.026766 
L 216.048 103.18311 
L 216.792 103.314598 
L 217.536 103.713336 
L 218.28 103.905249 
L 219.024 104.200186 
L 219.768 104.227223 
L 220.512 104.251371 
L 221.256 104.108612 
L 222 103.973109 
L 222.744 103.749448 
L 223.488 103.490972 
L 224.232 103.173274 
L 224.976 102.776926 
L 225.72 102.484221 
L 226.464 102.136272 
L 227.208 101.977652 
L 227.952 101.700968 
L 228.696 101.508181 
L 229.44 101.188897 
L 230.184 101.00702 
L 230.928 100.744624 
L 231.672 100.595289 
L 232.416 100.521958 
L 233.16 100.440397 
L 233.904 100.651627 
L 234.648 100.749431 
L 235.392 101.08475 
L 236.136 101.295652 
L 236.88 101.578935 
L 237.624 101.751798 
L 238.368 101.925859 
L 239.112 102.077056 
L 239.856 102.143271 
L 240.6 102.271502 
L 241.344 102.252384 
L 242.088 102.351686 
L 242.832 102.349393 
L 243.576 102.512817 
L 244.32 102.243493 
L 245.064 102.138592 
L 245.808 101.843326 
L 246.552 101.782844 
L 247.296 101.568651 
L 248.04 101.479217 
L 248.784 101.480522 
L 249.528 101.660317 
L 250.272 102.138026 
L 251.016 102.533692 
L 251.76 103.162524 
L 252.504 103.440248 
L 253.248 103.866234 
L 253.992 103.845655 
L 254.736 103.736103 
L 255.48 103.609524 
L 256.224 103.609402 
L 256.968 103.362978 
L 257.712 103.300852 
L 258.456 103.164187 
L 259.2 103.191308 
L 259.944 103.103353 
L 260.688 103.05663 
L 261.432 102.990045 
L 262.176 102.952766 
L 262.92 102.976183 
L 263.664 102.796331 
L 264.408 102.758524 
L 265.152 102.539571 
L 265.896 102.526793 
L 266.64 102.355736 
L 267.384 102.240118 
L 268.128 102.085851 
L 268.872 102.039773 
L 269.616 101.971819 
L 270.36 102.056209 
L 271.104 102.061577 
L 271.848 102.123369 
L 272.592 102.29818 
L 273.336 102.491136 
L 274.08 102.71509 
L 274.824 102.987289 
L 275.568 103.289408 
L 276.312 103.552296 
L 277.056 103.739472 
L 277.8 103.839272 
L 278.544 103.795519 
L 279.288 103.653726 
L 280.032 103.473336 
L 280.776 103.205642 
L 281.52 102.946131 
L 282.264 103.005615 
L 283.008 103.083906 
L 283.752 102.915527 
L 284.496 102.677921 
L 285.24 102.574934 
L 285.984 102.316593 
L 286.728 102.08332 
L 287.472 101.740759 
L 288.216 101.402725 
L 288.96 101.193774 
L 289.704 100.974105 
L 290.448 100.958623 
L 291.192 100.95583 
L 291.936 101.226429 
L 292.68 101.504684 
L 293.424 101.698563 
L 294.168 101.929013 
L 294.912 102.299963 
L 295.656 102.65029 
L 296.4 102.951068 
L 297.144 103.241012 
L 297.888 103.432698 
L 298.632 103.883193 
L 299.376 104.426346 
L 300.12 105.052621 
L 300.864 105.749274 
L 301.608 106.523509 
L 302.352 107.453019 
L 303.096 108.801055 
L 303.84 111.220509 
L 303.84 40.348072 
L 303.84 40.348072 
L 303.096 45.533041 
L 302.352 48.469025 
L 301.608 50.280635 
L 300.864 51.577502 
L 300.12 52.674779 
L 299.376 53.724613 
L 298.632 54.783103 
L 297.888 55.849866 
L 297.144 56.378112 
L 296.4 57.493567 
L 295.656 58.379732 
L 294.912 58.973244 
L 294.168 59.716779 
L 293.424 60.293484 
L 292.68 60.868158 
L 291.936 61.400623 
L 291.192 61.472626 
L 290.448 61.644196 
L 289.704 61.329891 
L 288.96 61.058404 
L 288.216 60.463305 
L 287.472 59.862191 
L 286.728 59.443172 
L 285.984 58.687036 
L 285.24 58.385784 
L 284.496 57.878718 
L 283.752 57.618046 
L 283.008 57.484396 
L 282.264 57.080284 
L 281.52 56.969612 
L 280.776 56.768364 
L 280.032 56.82636 
L 279.288 56.883514 
L 278.544 57.146121 
L 277.8 57.505286 
L 277.056 57.952949 
L 276.312 58.334743 
L 275.568 58.633065 
L 274.824 58.867029 
L 274.08 58.922249 
L 273.336 58.997745 
L 272.592 59.212719 
L 271.848 59.423511 
L 271.104 59.580353 
L 270.36 59.947951 
L 269.616 60.059107 
L 268.872 60.311238 
L 268.128 60.331992 
L 267.384 60.409621 
L 266.64 60.152139 
L 265.896 60.42011 
L 265.152 60.22529 
L 264.408 60.280864 
L 263.664 59.894324 
L 262.92 59.873706 
L 262.176 59.504981 
L 261.432 59.248462 
L 260.688 59.157724 
L 259.944 59.159334 
L 259.2 59.35186 
L 258.456 59.423571 
L 257.712 59.734746 
L 256.968 59.643203 
L 256.224 59.745051 
L 255.48 59.484183 
L 254.736 59.425373 
L 253.992 59.329749 
L 253.248 59.739206 
L 252.504 59.76372 
L 251.76 60.279316 
L 251.016 60.446372 
L 250.272 61.16771 
L 249.528 61.368776 
L 248.784 61.916483 
L 248.04 62.478572 
L 247.296 62.944178 
L 246.552 63.593995 
L 245.808 63.904501 
L 245.064 64.346584 
L 244.32 64.207227 
L 243.576 64.372924 
L 242.832 63.84888 
L 242.088 63.695585 
L 241.344 63.505413 
L 240.6 63.55527 
L 239.856 63.425453 
L 239.112 63.487105 
L 238.368 63.586028 
L 237.624 63.607284 
L 236.88 63.619114 
L 236.136 63.328847 
L 235.392 63.239585 
L 234.648 62.589614 
L 233.904 62.242506 
L 233.16 61.69697 
L 232.416 61.253573 
L 231.672 60.731565 
L 230.928 60.425018 
L 230.184 60.154373 
L 229.44 59.923546 
L 228.696 59.747118 
L 227.952 59.44324 
L 227.208 59.391053 
L 226.464 59.089347 
L 225.72 59.166064 
L 224.976 59.328292 
L 224.232 60.017546 
L 223.488 60.855956 
L 222.744 61.841318 
L 222 62.807389 
L 221.256 63.611858 
L 220.512 64.399228 
L 219.768 64.64871 
L 219.024 65.041459 
L 218.28 65.092675 
L 217.536 65.640539 
L 216.792 65.704453 
L 216.048 65.893187 
L 215.304 65.910499 
L 214.56 65.955017 
L 213.816 65.945854 
L 213.072 65.704208 
L 212.328 65.539413 
L 211.584 64.915966 
L 210.84 64.795689 
L 210.096 64.079903 
L 209.352 63.715175 
L 208.608 62.744293 
L 207.864 62.02807 
L 207.12 60.784369 
L 206.376 59.904461 
L 205.632 59.118583 
L 204.888 59.026147 
L 204.144 59.229393 
L 203.4 59.921633 
L 202.656 60.851823 
L 201.912 61.748891 
L 201.168 63.051109 
L 200.424 63.90113 
L 199.68 65.286882 
L 198.936 66.212606 
L 198.192 67.567396 
L 197.448 68.781474 
L 196.704 70.163942 
L 195.96 71.126046 
L 195.216 72.291606 
L 194.472 72.694798 
L 193.728 73.11594 
L 192.984 73.158183 
L 192.24 73.031812 
L 191.496 72.748376 
L 190.752 72.348763 
L 190.008 72.026437 
L 189.264 71.171488 
L 188.52 70.263283 
L 187.776 68.582144 
L 187.032 67.037212 
L 186.288 64.660859 
L 185.544 62.078494 
L 184.8 59.320795 
L 184.056 56.184844 
L 183.312 54.894787 
L 182.568 52.998517 
L 181.824 50.098861 
L 181.08 47.80472 
L 180.336 46.679642 
L 179.592 46.15443 
L 178.848 47.090842 
L 178.104 49.311884 
L 177.36 53.250947 
L 176.616 57.67788 
L 175.872 62.707189 
L 175.128 67.178319 
L 174.384 71.149138 
L 173.64 73.766649 
L 172.896 75.345727 
L 172.152 75.39132 
L 171.408 74.6396 
L 170.664 75.760253 
L 169.92 76.272305 
L 169.176 76.300429 
L 168.432 76.451861 
L 167.688 76.974551 
L 166.944 76.781425 
L 166.2 76.724428 
L 165.456 76.460915 
L 164.712 76.323533 
L 163.968 75.913585 
L 163.224 75.626031 
L 162.48 75.16707 
L 161.736 74.999088 
L 160.992 74.548536 
L 160.248 74.577537 
L 159.504 74.565565 
L 158.76 74.820172 
L 158.016 75.339342 
L 157.272 75.780147 
L 156.528 76.428168 
L 155.784 76.604324 
L 155.04 76.896814 
L 154.296 76.608602 
L 153.552 76.502248 
L 152.808 76.434583 
L 152.064 76.635556 
L 151.32 76.999699 
L 150.576 77.474395 
L 149.832 78.372686 
L 149.088 79.32585 
L 148.344 79.926506 
L 147.6 80.531024 
L 146.856 80.775214 
L 146.112 81.007971 
L 145.368 81.068883 
L 144.624 81.00819 
L 143.88 80.797679 
L 143.136 80.348356 
L 142.392 79.805242 
L 141.648 79.130696 
L 140.904 78.498841 
L 140.16 77.932556 
L 139.416 77.210379 
L 138.672 76.921332 
L 137.928 76.759335 
L 137.184 76.949335 
L 136.44 77.312422 
L 135.696 77.466854 
L 134.952 77.714694 
L 134.208 77.513753 
L 133.464 77.389465 
L 132.72 76.912801 
L 131.976 76.744869 
L 131.232 76.355296 
L 130.488 76.39559 
L 129.744 76.556183 
L 129 77.038364 
L 128.256 77.492242 
L 127.512 78.956964 
L 126.768 80.038276 
L 126.024 80.869268 
L 125.28 81.576662 
L 124.536 81.466743 
L 123.792 81.304292 
L 123.048 80.411757 
L 122.304 80.1807 
L 121.56 79.932598 
L 120.816 79.966377 
L 120.072 80.123922 
L 119.328 80.070936 
L 118.584 79.566642 
L 117.84 78.665411 
L 117.096 77.996293 
L 116.352 76.960262 
L 115.608 75.72711 
L 114.864 75.733619 
L 114.12 75.852036 
L 113.376 75.4279 
L 112.632 75.396469 
L 111.888 74.974294 
L 111.144 75.034044 
L 110.4 74.722379 
L 109.656 74.719096 
L 108.912 74.639669 
L 108.168 74.815411 
L 107.424 75.633541 
L 106.68 76.536395 
L 105.936 77.746187 
L 105.192 79.017064 
L 104.448 80.651018 
L 103.704 82.140508 
L 102.96 83.63144 
L 102.216 84.732836 
L 101.472 85.682045 
L 100.728 85.979722 
L 99.984 86.000456 
L 99.24 85.549197 
L 98.496 84.577562 
L 97.752 83.155892 
L 97.008 81.628701 
L 96.264 79.770609 
L 95.52 78.016821 
L 94.776 76.187916 
L 94.032 74.616446 
L 93.288 72.917571 
L 92.544 71.517685 
L 91.8 70.044031 
L 91.056 69.013871 
L 90.312 68.213109 
L 89.568 67.757222 
L 88.824 67.587089 
L 88.08 67.870306 
L 87.336 68.437784 
L 86.592 69.235226 
L 85.848 70.179629 
L 85.104 71.416626 
L 84.36 72.951756 
L 83.616 74.433776 
L 82.872 76.084657 
L 82.128 77.664875 
L 81.384 79.36663 
L 80.64 80.592218 
L 79.896 81.78039 
L 79.152 82.539686 
L 78.408 83.022818 
L 77.664 83.151648 
L 76.92 82.689689 
L 76.176 82.139445 
L 75.432 81.091453 
L 74.688 79.870465 
L 73.944 78.192114 
L 73.2 76.182945 
L 72.456 73.928017 
L 71.712 71.058348 
L 70.968 68.126612 
L 70.224 65.135574 
L 69.48 62.549051 
L 68.736 60.519116 
L 67.992 59.436677 
L 67.248 59.141847 
L 66.504 60.017918 
L 65.76 61.717304 
L 65.016 64.39036 
L 64.272 67.381676 
L 63.528 70.915874 
L 62.784 74.529569 
L 62.04 78.411917 
L 61.296 82.186285 
L 60.552 85.54708 
L 59.808 88.554255 
L 59.064 90.495063 
L 58.32 91.937679 
L 57.576 92.642736 
L 56.832 93.00884 
L 56.088 92.808179 
L 55.344 92.260355 
L 54.6 91.370165 
L 53.856 90.112649 
L 53.112 88.824275 
L 52.368 87.181977 
L 51.624 85.415449 
L 50.88 82.833073 
L 50.136 79.061385 
L 49.392 74.581985 
L 48.648 68.543358 
L 47.904 61.629818 
L 47.16 53.41676 
L 46.416 44.8367 
L 45.672 36.427685 
L 44.928 29.42307 
L 44.184 24.504954 
L 43.44 22.32 
L 42.696 23.36248 
L 41.952 30.193098 
L 41.208 37.220136 
L 40.464 45.496288 
L 39.72 54.653379 
L 38.976 64.376194 
L 38.232 74.240992 
L 37.488 83.755595 
L 36.744 92.958094 
L 36 100.425324 
z
" clip-path="url(#p5f3b5748aa)" style="fill: #808080; fill-opacity: 0.5"/>
   </g>
   <g id="matplotlib.axis_1">
    <g id="xtick_1">
     <g id="line2d_1">
      <defs>
       <path id="mb795adf67a" d="M 0 0 
L 0 3.5 
" style="stroke: #000000; stroke-width: 0.8"/>
      </defs>
      <g>
       <use xlink:href="#mb795adf67a" x="36" y="128.16" style="stroke: #000000; stroke-width: 0.8"/>
      </g>
     </g>
     <g id="text_1">
      <!-- 0 -->
      <g transform="translate(32.81875 142.758438) scale(0.1 -0.1)">
       <defs>
        <path id="DejaVuSans-30" d="M 2034 4250 
Q 1547 4250 1301 3770 
Q 1056 3291 1056 2328 
Q 1056 1369 1301 889 
Q 1547 409 2034 409 
Q 2525 409 2770 889 
Q 3016 1369 3016 2328 
Q 3016 3291 2770 3770 
Q 2525 4250 2034 4250 
z
M 2034 4750 
Q 2819 4750 3233 4129 
Q 3647 3509 3647 2328 
Q 3647 1150 3233 529 
Q 2819 -91 2034 -91 
Q 1250 -91 836 529 
Q 422 1150 422 2328 
Q 422 3509 836 4129 
Q 1250 4750 2034 4750 
z
" transform="scale(0.015625)"/>
       </defs>
       <use xlink:href="#DejaVuSans-30"/>
      </g>
     </g>
    </g>
    <g id="xtick_2">
     <g id="line2d_2">
      <g>
       <use xlink:href="#mb795adf67a" x="80.64" y="128.16" style="stroke: #000000; stroke-width: 0.8"/>
      </g>
     </g>
     <g id="text_2">
      <!-- 10 -->
      <g transform="translate(74.2775 142.758438) scale(0.1 -0.1)">
       <defs>
        <path id="DejaVuSans-31" d="M 794 531 
L 1825 531 
L 1825 4091 
L 703 3866 
L 703 4441 
L 1819 4666 
L 2450 4666 
L 2450 531 
L 3481 531 
L 3481 0 
L 794 0 
L 794 531 
z
" transform="scale(0.015625)"/>
       </defs>
       <use xlink:href="#DejaVuSans-31"/>
       <use xlink:href="#DejaVuSans-30" x="63.623047"/>
      </g>
     </g>
    </g>
    <g id="xtick_3">
     <g id="line2d_3">
      <g>
       <use xlink:href="#mb795adf67a" x="125.28" y="128.16" style="stroke: #000000; stroke-width: 0.8"/>
      </g>
     </g>
     <g id="text_3">
      <!-- 20 -->
      <g transform="translate(118.9175 142.758438) scale(0.1 -0.1)">
       <defs>
        <path id="DejaVuSans-32" d="M 1228 531 
L 3431 531 
L 3431 0 
L 469 0 
L 469 531 
Q 828 903 1448 1529 
Q 2069 2156 2228 2338 
Q 2531 2678 2651 2914 
Q 2772 3150 2772 3378 
Q 2772 3750 2511 3984 
Q 2250 4219 1831 4219 
Q 1534 4219 1204 4116 
Q 875 4013 500 3803 
L 500 4441 
Q 881 4594 1212 4672 
Q 1544 4750 1819 4750 
Q 2544 4750 2975 4387 
Q 3406 4025 3406 3419 
Q 3406 3131 3298 2873 
Q 3191 2616 2906 2266 
Q 2828 2175 2409 1742 
Q 1991 1309 1228 531 
z
" transform="scale(0.015625)"/>
       </defs>
       <use xlink:href="#DejaVuSans-32"/>
       <use xlink:href="#DejaVuSans-30" x="63.623047"/>
      </g>
     </g>
    </g>
    <g id="xtick_4">
     <g id="line2d_4">
      <g>
       <use xlink:href="#mb795adf67a" x="169.92" y="128.16" style="stroke: #000000; stroke-width: 0.8"/>
      </g>
     </g>
     <g id="text_4">
      <!-- 30 -->
      <g transform="translate(163.5575 142.758438) scale(0.1 -0.1)">
       <defs>
        <path id="DejaVuSans-33" d="M 2597 2516 
Q 3050 2419 3304 2112 
Q 3559 1806 3559 1356 
Q 3559 666 3084 287 
Q 2609 -91 1734 -91 
Q 1441 -91 1130 -33 
Q 819 25 488 141 
L 488 750 
Q 750 597 1062 519 
Q 1375 441 1716 441 
Q 2309 441 2620 675 
Q 2931 909 2931 1356 
Q 2931 1769 2642 2001 
Q 2353 2234 1838 2234 
L 1294 2234 
L 1294 2753 
L 1863 2753 
Q 2328 2753 2575 2939 
Q 2822 3125 2822 3475 
Q 2822 3834 2567 4026 
Q 2313 4219 1838 4219 
Q 1578 4219 1281 4162 
Q 984 4106 628 3988 
L 628 4550 
Q 988 4650 1302 4700 
Q 1616 4750 1894 4750 
Q 2613 4750 3031 4423 
Q 3450 4097 3450 3541 
Q 3450 3153 3228 2886 
Q 3006 2619 2597 2516 
z
" transform="scale(0.015625)"/>
       </defs>
       <use xlink:href="#DejaVuSans-33"/>
       <use xlink:href="#DejaVuSans-30" x="63.623047"/>
      </g>
     </g>
    </g>
    <g id="xtick_5">
     <g id="line2d_5">
      <g>
       <use xlink:href="#mb795adf67a" x="214.56" y="128.16" style="stroke: #000000; stroke-width: 0.8"/>
      </g>
     </g>
     <g id="text_5">
      <!-- 40 -->
      <g transform="translate(208.1975 142.758438) scale(0.1 -0.1)">
       <defs>
        <path id="DejaVuSans-34" d="M 2419 4116 
L 825 1625 
L 2419 1625 
L 2419 4116 
z
M 2253 4666 
L 3047 4666 
L 3047 1625 
L 3713 1625 
L 3713 1100 
L 3047 1100 
L 3047 0 
L 2419 0 
L 2419 1100 
L 313 1100 
L 313 1709 
L 2253 4666 
z
" transform="scale(0.015625)"/>
       </defs>
       <use xlink:href="#DejaVuSans-34"/>
       <use xlink:href="#DejaVuSans-30" x="63.623047"/>
      </g>
     </g>
    </g>
    <g id="xtick_6">
     <g id="line2d_6">
      <g>
       <use xlink:href="#mb795adf67a" x="259.2" y="128.16" style="stroke: #000000; stroke-width: 0.8"/>
      </g>
     </g>
     <g id="text_6">
      <!-- 50 -->
      <g transform="translate(252.8375 142.758438) scale(0.1 -0.1)">
       <defs>
        <path id="DejaVuSans-35" d="M 691 4666 
L 3169 4666 
L 3169 4134 
L 1269 4134 
L 1269 2991 
Q 1406 3038 1543 3061 
Q 1681 3084 1819 3084 
Q 2600 3084 3056 2656 
Q 3513 2228 3513 1497 
Q 3513 744 3044 326 
Q 2575 -91 1722 -91 
Q 1428 -91 1123 -41 
Q 819 9 494 109 
L 494 744 
Q 775 591 1075 516 
Q 1375 441 1709 441 
Q 2250 441 2565 725 
Q 2881 1009 2881 1497 
Q 2881 1984 2565 2268 
Q 2250 2553 1709 2553 
Q 1456 2553 1204 2497 
Q 953 2441 691 2322 
L 691 4666 
z
" transform="scale(0.015625)"/>
       </defs>
       <use xlink:href="#DejaVuSans-35"/>
       <use xlink:href="#DejaVuSans-30" x="63.623047"/>
      </g>
     </g>
    </g>
   </g>
   <g id="matplotlib.axis_2">
    <g id="ytick_1">
     <g id="line2d_7">
      <defs>
       <path id="m42e86a901e" d="M 0 0 
L -3.5 0 
" style="stroke: #000000; stroke-width: 0.8"/>
      </defs>
      <g>
       <use xlink:href="#m42e86a901e" x="36" y="123.12" style="stroke: #000000; stroke-width: 0.8"/>
      </g>
     </g>
     <g id="text_7">
      <!-- 0 -->
      <g transform="translate(22.6375 126.919219) scale(0.1 -0.1)">
       <use xlink:href="#DejaVuSans-30"/>
      </g>
     </g>
    </g>
    <g id="ytick_2">
     <g id="line2d_8">
      <g>
       <use xlink:href="#m42e86a901e" x="36" y="82.127439" style="stroke: #000000; stroke-width: 0.8"/>
      </g>
     </g>
     <g id="text_8">
      <!-- 2 -->
      <g transform="translate(22.6375 85.926658) scale(0.1 -0.1)">
       <use xlink:href="#DejaVuSans-32"/>
      </g>
     </g>
    </g>
    <g id="ytick_3">
     <g id="line2d_9">
      <g>
       <use xlink:href="#m42e86a901e" x="36" y="41.134878" style="stroke: #000000; stroke-width: 0.8"/>
      </g>
     </g>
     <g id="text_9">
      <!-- 4 -->
      <g transform="translate(22.6375 44.934097) scale(0.1 -0.1)">
       <use xlink:href="#DejaVuSans-34"/>
      </g>
     </g>
    </g>
   </g>
   <g id="line2d_10">
    <path d="M 36 102.51571 
L 37.488 91.112604 
L 41.208 58.695993 
L 41.952 54.070199 
L 42.696 50.186948 
L 43.44 50.237583 
L 44.184 52.407443 
L 44.928 56.513974 
L 45.672 62.034119 
L 47.904 81.309474 
L 49.392 90.890559 
L 50.136 94.082542 
L 50.88 96.765079 
L 51.624 98.51059 
L 52.368 99.707598 
L 53.112 100.583879 
L 54.6 101.800908 
L 55.344 101.984043 
L 56.088 101.878464 
L 56.832 101.629541 
L 58.32 100.262683 
L 59.808 97.819038 
L 61.296 93.971102 
L 64.272 84.699993 
L 65.016 82.770499 
L 65.76 81.156236 
L 66.504 80.281803 
L 67.248 80.072685 
L 67.992 80.686999 
L 68.736 81.861066 
L 70.224 85.593806 
L 72.456 91.894834 
L 73.944 94.897372 
L 74.688 95.910356 
L 76.176 97.069889 
L 76.92 97.342801 
L 77.664 97.491301 
L 78.408 97.283874 
L 79.152 96.911552 
L 79.896 96.355777 
L 81.384 94.685267 
L 84.36 90.087616 
L 85.848 87.657783 
L 87.336 85.837564 
L 88.08 85.251223 
L 88.824 84.909343 
L 89.568 84.90012 
L 90.312 85.219877 
L 91.056 85.837222 
L 91.8 86.625347 
L 97.008 94.10608 
L 98.496 95.668913 
L 99.24 96.2082 
L 99.984 96.57831 
L 100.728 96.684854 
L 101.472 96.60624 
L 102.96 95.618304 
L 107.424 90.658096 
L 108.168 90.011592 
L 108.912 89.616166 
L 110.4 89.262956 
L 111.144 89.407433 
L 111.888 89.334257 
L 112.632 89.679924 
L 113.376 89.730403 
L 114.12 90.161266 
L 114.864 90.235835 
L 115.608 90.652678 
L 116.352 91.267761 
L 117.096 92.039987 
L 117.84 92.439382 
L 118.584 93.001304 
L 120.072 93.592983 
L 121.56 93.786548 
L 122.304 93.871529 
L 123.048 93.650076 
L 123.792 93.82748 
L 124.536 93.551289 
L 125.28 93.501744 
L 126.768 92.767166 
L 128.256 91.280645 
L 129.744 90.754171 
L 131.232 90.647068 
L 131.976 90.879127 
L 132.72 90.951516 
L 133.464 91.285024 
L 134.208 91.326174 
L 134.952 91.496757 
L 135.696 91.372569 
L 136.44 91.45414 
L 137.928 91.339825 
L 139.416 91.637398 
L 140.16 92.02404 
L 142.392 92.750459 
L 143.88 92.872258 
L 147.6 92.481239 
L 149.832 91.726336 
L 150.576 91.3353 
L 152.064 90.768212 
L 153.552 90.660386 
L 154.296 90.649962 
L 155.04 90.893011 
L 155.784 90.811137 
L 156.528 90.876746 
L 157.272 90.663475 
L 159.504 90.328991 
L 162.48 90.710986 
L 163.224 90.96295 
L 163.968 91.040815 
L 164.712 91.259063 
L 167.688 91.29586 
L 168.432 90.855172 
L 169.176 90.738437 
L 169.92 90.745774 
L 170.664 90.453221 
L 171.408 89.744129 
L 172.152 90.361679 
L 172.896 90.356733 
L 173.64 89.268166 
L 174.384 87.410967 
L 174.384 87.410967 
" clip-path="url(#p5f3b5748aa)" style="fill: none; stroke: #a31621; stroke-width: 1.5; stroke-linecap: square"/>
   </g>
   <g id="line2d_11">
    <path d="M 175.128 84.563122 
L 178.104 71.949962 
L 178.848 70.41543 
L 179.592 69.826783 
L 180.336 70.322104 
L 181.08 71.270184 
L 181.824 73.088114 
L 182.568 75.29722 
L 183.312 76.749061 
L 184.056 77.652358 
L 185.544 81.720455 
L 187.032 84.97142 
L 188.52 87.09046 
L 190.008 88.231249 
L 192.984 88.856741 
L 193.728 88.742765 
L 195.216 88.206861 
L 198.192 85.650337 
L 198.936 84.738835 
L 199.68 84.319212 
L 200.424 83.425253 
L 201.168 82.773367 
L 201.912 81.762794 
L 203.4 80.390489 
L 204.144 79.936093 
L 205.632 79.648134 
L 207.12 80.314136 
L 207.864 81.002963 
L 208.608 81.487064 
L 209.352 82.238309 
L 210.096 82.599838 
L 210.84 83.147224 
L 211.584 83.195559 
L 212.328 83.773612 
L 214.56 84.378336 
L 216.048 84.538149 
L 216.792 84.509525 
L 217.536 84.676937 
L 218.28 84.498962 
L 219.024 84.620823 
L 220.512 84.3253 
L 222 83.390249 
L 224.976 81.052609 
L 226.464 80.612809 
L 227.208 80.684353 
L 227.952 80.572104 
L 228.696 80.627649 
L 230.184 80.580696 
L 231.672 80.663427 
L 234.648 81.669523 
L 235.392 82.162168 
L 236.136 82.312249 
L 236.88 82.599024 
L 239.112 82.78208 
L 239.856 82.784362 
L 240.6 82.913386 
L 241.344 82.878899 
L 242.832 83.099136 
L 243.576 83.442871 
L 244.32 83.22536 
L 245.064 83.242588 
L 245.808 82.873914 
L 246.552 82.688419 
L 247.296 82.256414 
L 249.528 81.514547 
L 250.272 81.652868 
L 251.016 81.490032 
L 251.76 81.72092 
L 252.504 81.601984 
L 253.248 81.80272 
L 253.992 81.587702 
L 257.712 81.517799 
L 258.456 81.293879 
L 259.2 81.271584 
L 259.944 81.131343 
L 261.432 81.119254 
L 264.408 81.519694 
L 265.152 81.38243 
L 265.896 81.473452 
L 266.64 81.253937 
L 267.384 81.324869 
L 269.616 81.015463 
L 270.36 81.00208 
L 271.104 80.820965 
L 273.336 80.744441 
L 276.312 80.94352 
L 277.8 80.672279 
L 280.032 80.149848 
L 280.776 79.987003 
L 281.52 79.957871 
L 282.264 80.04295 
L 283.008 80.284151 
L 284.496 80.27832 
L 285.24 80.480359 
L 285.984 80.501815 
L 286.728 80.763246 
L 288.216 80.933015 
L 289 81.127482 
L 289 81.127482 
" clip-path="url(#p5f3b5748aa)" style="fill: none; stroke: #053c5e; stroke-width: 1.5; stroke-linecap: square"/>
   </g>
   <g id="LineCollection_1">
    <path d="M 175.128 123.12 
L 175.128 22.32 
" clip-path="url(#p5f3b5748aa)" style="fill: none; stroke-dasharray: 5.55,2.4; stroke-dashoffset: 0; stroke: #808080; stroke-width: 1.5"/>
   </g>
   <g id="patch_3">
    <path d="M 36 128.16 
L 36 17.28 
" style="fill: none; stroke: #000000; stroke-width: 0.8; stroke-linejoin: miter; stroke-linecap: square"/>
   </g>
   <g id="patch_4">
    <path d="M 259.2 128.16 
L 259.2 17.28 
" style="fill: none; stroke: #000000; stroke-width: 0.8; stroke-linejoin: miter; stroke-linecap: square"/>
   </g>
   <g id="patch_5">
    <path d="M 36 128.16 
L 259.2 128.16 
" style="fill: none; stroke: #000000; stroke-width: 0.8; stroke-linejoin: miter; stroke-linecap: square"/>
   </g>
   <g id="patch_6">
    <path d="M 36 17.28 
L 259.2 17.28 
" style="fill: none; stroke: #000000; stroke-width: 0.8; stroke-linejoin: miter; stroke-linecap: square"/>
   </g>
  </g>
 </g>
 <defs>
  <clipPath id="p5f3b5748aa">
   <rect x="36" y="17.28" width="223.2" height="110.88"/>
  </clipPath>
 </defs>
</svg>
