<?xml version="1.0" encoding="utf-8" standalone="no"?>
<!DOCTYPE svg PUBLIC "-//W3C//DTD SVG 1.1//EN"
  "http://www.w3.org/Graphics/SVG/1.1/DTD/svg11.dtd">
<svg xmlns:xlink="http://www.w3.org/1999/xlink" width="432pt" height="108pt" viewBox="0 0 432 108" xmlns="http://www.w3.org/2000/svg" version="1.1">
 <metadata>
  <rdf:RDF xmlns:dc="http://purl.org/dc/elements/1.1/" xmlns:cc="http://creativecommons.org/ns#" xmlns:rdf="http://www.w3.org/1999/02/22-rdf-syntax-ns#">
   <cc:Work>
    <dc:type rdf:resource="http://purl.org/dc/dcmitype/StillImage"/>
    <dc:date>2024-05-02T14:35:19.812017</dc:date>
    <dc:format>image/svg+xml</dc:format>
    <dc:creator>
     <cc:Agent>
      <dc:title>Matplotlib v3.8.3, https://matplotlib.org/</dc:title>
     </cc:Agent>
    </dc:creator>
   </cc:Work>
  </rdf:RDF>
 </metadata>
 <defs>
  <style type="text/css">*{stroke-linejoin: round; stroke-linecap: butt}</style>
 </defs>
 <g id="figure_1">
  <g id="patch_1">
   <path d="M 0 108 
L 432 108 
L 432 0 
L 0 0 
z
" style="fill: #ffffff"/>
  </g>
  <g id="axes_1">
   <g id="patch_2">
    <path d="M 54 96.12 
L 152.470588 96.12 
L 152.470588 12.96 
L 54 12.96 
z
" style="fill: #fffdee"/>
   </g>
   <g id="matplotlib.axis_1">
    <g id="xtick_1">
     <g id="line2d_1">
      <defs>
       <path id="m8a9d97c237" d="M 0 0 
L 0 3.5 
" style="stroke: #000000; stroke-width: 0.8"/>
      </defs>
      <g>
       <use xlink:href="#m8a9d97c237" x="80.847859" y="96.12" style="stroke: #000000; stroke-width: 0.8"/>
      </g>
     </g>
     <g id="text_1">
      <!-- 30 -->
      <g transform="translate(74.485359 110.718438) scale(0.1 -0.1)">
       <defs>
        <path id="DejaVuSans-33" d="M 2597 2516 
Q 3050 2419 3304 2112 
Q 3559 1806 3559 1356 
Q 3559 666 3084 287 
Q 2609 -91 1734 -91 
Q 1441 -91 1130 -33 
Q 819 25 488 141 
L 488 750 
Q 750 597 1062 519 
Q 1375 441 1716 441 
Q 2309 441 2620 675 
Q 2931 909 2931 1356 
Q 2931 1769 2642 2001 
Q 2353 2234 1838 2234 
L 1294 2234 
L 1294 2753 
L 1863 2753 
Q 2328 2753 2575 2939 
Q 2822 3125 2822 3475 
Q 2822 3834 2567 4026 
Q 2313 4219 1838 4219 
Q 1578 4219 1281 4162 
Q 984 4106 628 3988 
L 628 4550 
Q 988 4650 1302 4700 
Q 1616 4750 1894 4750 
Q 2613 4750 3031 4423 
Q 3450 4097 3450 3541 
Q 3450 3153 3228 2886 
Q 3006 2619 2597 2516 
z
" transform="scale(0.015625)"/>
        <path id="DejaVuSans-30" d="M 2034 4250 
Q 1547 4250 1301 3770 
Q 1056 3291 1056 2328 
Q 1056 1369 1301 889 
Q 1547 409 2034 409 
Q 2525 409 2770 889 
Q 3016 1369 3016 2328 
Q 3016 3291 2770 3770 
Q 2525 4250 2034 4250 
z
M 2034 4750 
Q 2819 4750 3233 4129 
Q 3647 3509 3647 2328 
Q 3647 1150 3233 529 
Q 2819 -91 2034 -91 
Q 1250 -91 836 529 
Q 422 1150 422 2328 
Q 422 3509 836 4129 
Q 1250 4750 2034 4750 
z
" transform="scale(0.015625)"/>
       </defs>
       <use xlink:href="#DejaVuSans-33"/>
       <use xlink:href="#DejaVuSans-30" x="63.623047"/>
      </g>
     </g>
    </g>
    <g id="xtick_2">
     <g id="line2d_2">
      <g>
       <use xlink:href="#m8a9d97c237" x="125.61841" y="96.12" style="stroke: #000000; stroke-width: 0.8"/>
      </g>
     </g>
     <g id="text_2">
      <!-- 40 -->
      <g transform="translate(119.25591 110.718438) scale(0.1 -0.1)">
       <defs>
        <path id="DejaVuSans-34" d="M 2419 4116 
L 825 1625 
L 2419 1625 
L 2419 4116 
z
M 2253 4666 
L 3047 4666 
L 3047 1625 
L 3713 1625 
L 3713 1100 
L 3047 1100 
L 3047 0 
L 2419 0 
L 2419 1100 
L 313 1100 
L 313 1709 
L 2253 4666 
z
" transform="scale(0.015625)"/>
       </defs>
       <use xlink:href="#DejaVuSans-34"/>
       <use xlink:href="#DejaVuSans-30" x="63.623047"/>
      </g>
     </g>
    </g>
   </g>
   <g id="matplotlib.axis_2">
    <g id="ytick_1">
     <g id="line2d_3">
      <defs>
       <path id="m8ac4efd9ea" d="M 0 0 
L -3.5 0 
" style="stroke: #000000; stroke-width: 0.8"/>
      </defs>
      <g>
       <use xlink:href="#m8ac4efd9ea" x="54" y="95.307444" style="stroke: #000000; stroke-width: 0.8"/>
      </g>
     </g>
     <g id="text_3">
      <!-- 0 -->
      <g transform="translate(40.6375 99.106662) scale(0.1 -0.1)">
       <use xlink:href="#DejaVuSans-30"/>
      </g>
     </g>
    </g>
    <g id="ytick_2">
     <g id="line2d_4">
      <g>
       <use xlink:href="#m8ac4efd9ea" x="54" y="74.294721" style="stroke: #000000; stroke-width: 0.8"/>
      </g>
     </g>
     <g id="text_4">
      <!-- 1 -->
      <g transform="translate(40.6375 78.09394) scale(0.1 -0.1)">
       <defs>
        <path id="DejaVuSans-31" d="M 794 531 
L 1825 531 
L 1825 4091 
L 703 3866 
L 703 4441 
L 1819 4666 
L 2450 4666 
L 2450 531 
L 3481 531 
L 3481 0 
L 794 0 
L 794 531 
z
" transform="scale(0.015625)"/>
       </defs>
       <use xlink:href="#DejaVuSans-31"/>
      </g>
     </g>
    </g>
    <g id="ytick_3">
     <g id="line2d_5">
      <g>
       <use xlink:href="#m8ac4efd9ea" x="54" y="53.281999" style="stroke: #000000; stroke-width: 0.8"/>
      </g>
     </g>
     <g id="text_5">
      <!-- 2 -->
      <g transform="translate(40.6375 57.081218) scale(0.1 -0.1)">
       <defs>
        <path id="DejaVuSans-32" d="M 1228 531 
L 3431 531 
L 3431 0 
L 469 0 
L 469 531 
Q 828 903 1448 1529 
Q 2069 2156 2228 2338 
Q 2531 2678 2651 2914 
Q 2772 3150 2772 3378 
Q 2772 3750 2511 3984 
Q 2250 4219 1831 4219 
Q 1534 4219 1204 4116 
Q 875 4013 500 3803 
L 500 4441 
Q 881 4594 1212 4672 
Q 1544 4750 1819 4750 
Q 2544 4750 2975 4387 
Q 3406 4025 3406 3419 
Q 3406 3131 3298 2873 
Q 3191 2616 2906 2266 
Q 2828 2175 2409 1742 
Q 1991 1309 1228 531 
z
" transform="scale(0.015625)"/>
       </defs>
       <use xlink:href="#DejaVuSans-32"/>
      </g>
     </g>
    </g>
    <g id="ytick_4">
     <g id="line2d_6">
      <g>
       <use xlink:href="#m8ac4efd9ea" x="54" y="32.269277" style="stroke: #000000; stroke-width: 0.8"/>
      </g>
     </g>
     <g id="text_6">
      <!-- 3 -->
      <g transform="translate(40.6375 36.068496) scale(0.1 -0.1)">
       <use xlink:href="#DejaVuSans-33"/>
      </g>
     </g>
    </g>
   </g>
   <g id="line2d_7">
    <path d="M 58.475936 32.944484 
L 59.080338 30.702755 
L 59.528044 29.779292 
L 59.841438 29.562234 
L 60.087676 29.66117 
L 60.356299 30.054921 
L 60.692078 30.985652 
L 61.117398 32.890775 
L 61.63226 36.305112 
L 62.259047 42.06832 
L 63.042532 51.49492 
L 64.296107 69.79283 
L 65.303445 83.260829 
L 65.795921 87.305377 
L 66.176471 88.885194 
L 66.534635 89.518348 
L 66.915185 89.744276 
L 67.430046 89.7655 
L 68.280686 89.554673 
L 69.35518 89.05706 
L 70.407288 88.326553 
L 71.414625 87.353527 
L 72.354807 86.135486 
L 73.272603 84.571881 
L 74.168014 82.588735 
L 75.063425 80.038983 
L 75.981221 76.71504 
L 76.943788 72.342629 
L 77.995896 66.462617 
L 79.249471 58.084798 
L 82.719189 33.957025 
L 83.390747 31.145596 
L 83.883223 29.93397 
L 84.219003 29.593811 
L 84.465241 29.619309 
L 84.711479 29.891518 
L 85.024873 30.611534 
L 85.427807 32.177343 
L 85.920284 35.096515 
L 86.054595 36.085467 
L 86.054595 36.085467 
" clip-path="url(#pe501e044d4)" style="fill: none; stroke: #a31621; stroke-width: 1.5; stroke-linecap: square"/>
   </g>
   <g id="line2d_8">
    <path d="M 58.475936 75.361897 
L 59.25942 74.417772 
L 60.199602 72.908839 
L 61.565104 70.230084 
L 63.311155 66.888679 
L 64.206566 65.636573 
L 64.94528 64.954657 
L 65.616839 64.61633 
L 66.288397 64.519776 
L 67.027111 64.647118 
L 67.877752 65.034552 
L 68.907474 65.762073 
L 70.272976 67.022504 
L 72.354807 69.286213 
L 76.563238 73.896134 
L 78.130208 75.26409 
L 79.294242 75.999671 
L 80.212038 76.330258 
L 80.995523 76.384588 
L 81.711852 76.212704 
L 82.405795 75.817238 
L 83.144509 75.130707 
L 83.972765 74.036139 
L 84.980102 72.302997 
L 86.703768 68.796398 
L 87.800647 66.159078 
L 89.031837 62.550389 
L 90.889815 57.12019 
L 91.695685 55.464227 
L 92.344858 54.591349 
L 92.94926 54.127425 
L 93.531277 53.951388 
L 94.13568 54.003641 
L 94.807238 54.293605 
L 95.613108 54.899536 
L 96.620445 55.956363 
L 97.963562 57.718063 
L 100.000622 60.802955 
L 105.641711 69.49175 
L 107.880239 72.461303 
L 109.648676 74.45783 
L 110.991792 75.662855 
L 112.0439 76.327051 
L 112.89454 76.61636 
L 113.633255 76.639317 
L 114.304813 76.441488 
L 114.976371 76.009127 
L 115.6927 75.271496 
L 116.49857 74.101237 
L 117.483522 72.244086 
L 121.042781 65.092757 
L 121.781495 64.293534 
L 122.453053 63.873965 
L 123.102226 63.718835 
L 123.79617 63.781431 
L 124.579654 64.080765 
L 125.542221 64.703602 
L 126.751026 65.768555 
L 128.474692 67.61348 
L 134.720184 74.562481 
L 136.085686 75.645828 
L 137.137794 76.208963 
L 137.988434 76.423125 
L 138.727148 76.388322 
L 139.421092 76.135953 
L 140.137421 75.627356 
L 140.89852 74.797536 
L 141.771546 73.493225 
L 142.913195 71.341506 
L 145.442731 66.438968 
L 146.293371 65.331111 
L 147.0097 64.736234 
L 147.681259 64.454437 
L 147.994652 64.405788 
L 147.994652 64.405788 
" clip-path="url(#pe501e044d4)" style="fill: none; stroke: #bf8124; stroke-width: 1.5; stroke-linecap: square"/>
   </g>
   <g id="line2d_9">
    <path d="M 86.07698 35.659175 
L 86.748539 25.096559 
L 87.285785 19.706204 
L 87.711106 17.368672 
L 88.002114 16.76376 
L 88.158811 16.776248 
L 88.337893 17.082453 
L 88.584131 18.014466 
L 88.91991 20.241672 
L 89.367616 24.918303 
L 89.927248 33.424419 
L 90.621191 47.686963 
L 91.785226 77.273629 
L 92.367243 89.139406 
L 92.658251 91.442933 
L 92.904489 91.984555 
L 93.240269 92.171752 
L 94.113294 92.309684 
L 95.568337 92.318789 
L 97.292003 92.104432 
L 99.038055 91.664926 
L 100.605024 91.04306 
L 101.948141 90.273497 
L 103.112175 89.353285 
L 104.164283 88.233246 
L 105.12685 86.873916 
L 106.022261 85.21979 
L 106.895287 83.131855 
L 107.768312 80.449518 
L 108.663723 76.948972 
L 109.603905 72.336448 
L 110.633628 66.120344 
L 111.864818 57.236312 
L 115.26738 31.736761 
L 115.938938 28.721037 
L 116.409029 27.484118 
L 116.744808 27.120225 
L 116.968661 27.141302 
L 117.214899 27.422908 
L 117.528293 28.191438 
L 117.931227 29.883703 
L 118.423704 33.060412 
L 119.005721 38.383724 
L 119.722049 47.108382 
L 120.729387 62.45962 
L 122.162045 84.110138 
L 122.632135 88.094828 
L 122.9903 89.509396 
L 123.326079 90.033253 
L 123.706629 90.217507 
L 124.311031 90.219979 
L 125.318368 89.983842 
L 126.482403 89.482138 
L 127.601666 88.753611 
L 128.631389 87.818051 
L 129.593956 86.643496 
L 130.511752 85.169166 
L 131.407163 83.298318 
L 132.302574 80.886098 
L 133.197985 77.811482 
L 134.138167 73.751653 
L 135.145504 68.373237 
L 136.309539 60.875749 
L 138.033205 48.079422 
L 139.66733 36.496661 
L 140.495585 32.118614 
L 141.077602 30.103336 
L 141.502923 29.331227 
L 141.793931 29.190503 
L 142.017784 29.313218 
L 142.286407 29.739442 
L 142.644572 30.802127 
L 143.092277 32.955024 
L 143.629524 36.768793 
L 144.278697 43.116899 
L 145.106952 53.627893 
L 147.569332 86.714358 
L 147.972267 88.73088 
L 147.994652 88.802021 
L 147.994652 88.802021 
" clip-path="url(#pe501e044d4)" style="fill: none; stroke: #053c5e; stroke-width: 1.5; stroke-linecap: square"/>
   </g>
   <g id="LineCollection_1">
    <path d="M 86.07109 92.34 
L 86.07109 16.74 
" clip-path="url(#pe501e044d4)" style="fill: none; stroke-dasharray: 5.55,2.4; stroke-dashoffset: 0; stroke: #808080; stroke-width: 1.5"/>
   </g>
   <g id="patch_3">
    <path d="M 54 96.12 
L 54 12.96 
" style="fill: none; stroke: #000000; stroke-width: 0.8; stroke-linejoin: miter; stroke-linecap: square"/>
   </g>
   <g id="patch_4">
    <path d="M 152.470588 96.12 
L 152.470588 12.96 
" style="fill: none; stroke: #000000; stroke-width: 0.8; stroke-linejoin: miter; stroke-linecap: square"/>
   </g>
   <g id="patch_5">
    <path d="M 54 96.12 
L 152.470588 96.12 
" style="fill: none; stroke: #000000; stroke-width: 0.8; stroke-linejoin: miter; stroke-linecap: square"/>
   </g>
   <g id="patch_6">
    <path d="M 54 12.96 
L 152.470588 12.96 
" style="fill: none; stroke: #000000; stroke-width: 0.8; stroke-linejoin: miter; stroke-linecap: square"/>
   </g>
  </g>
  <g id="axes_2">
   <g id="patch_7">
    <path d="M 172.164706 96.12 
L 270.635294 96.12 
L 270.635294 12.96 
L 172.164706 12.96 
z
" style="fill: #fffdee"/>
   </g>
   <g id="matplotlib.axis_3">
    <g id="xtick_3">
     <g id="line2d_10">
      <g>
       <use xlink:href="#m8a9d97c237" x="199.023168" y="96.12" style="stroke: #000000; stroke-width: 0.8"/>
      </g>
     </g>
     <g id="text_7">
      <!-- 30 -->
      <g transform="translate(192.660668 110.718438) scale(0.1 -0.1)">
       <use xlink:href="#DejaVuSans-33"/>
       <use xlink:href="#DejaVuSans-30" x="63.623047"/>
      </g>
     </g>
    </g>
    <g id="xtick_4">
     <g id="line2d_11">
      <g>
       <use xlink:href="#m8a9d97c237" x="243.793719" y="96.12" style="stroke: #000000; stroke-width: 0.8"/>
      </g>
     </g>
     <g id="text_8">
      <!-- 40 -->
      <g transform="translate(237.431219 110.718438) scale(0.1 -0.1)">
       <use xlink:href="#DejaVuSans-34"/>
       <use xlink:href="#DejaVuSans-30" x="63.623047"/>
      </g>
     </g>
    </g>
   </g>
   <g id="matplotlib.axis_4">
    <g id="ytick_5">
     <g id="line2d_12">
      <g>
       <use xlink:href="#m8ac4efd9ea" x="172.164706" y="72.895752" style="stroke: #000000; stroke-width: 0.8"/>
      </g>
     </g>
     <g id="text_9">
      <!-- 1 -->
      <g transform="translate(158.802206 76.694971) scale(0.1 -0.1)">
       <use xlink:href="#DejaVuSans-31"/>
      </g>
     </g>
    </g>
    <g id="ytick_6">
     <g id="line2d_13">
      <g>
       <use xlink:href="#m8ac4efd9ea" x="172.164706" y="46.509344" style="stroke: #000000; stroke-width: 0.8"/>
      </g>
     </g>
     <g id="text_10">
      <!-- 2 -->
      <g transform="translate(158.802206 50.308562) scale(0.1 -0.1)">
       <use xlink:href="#DejaVuSans-32"/>
      </g>
     </g>
    </g>
    <g id="ytick_7">
     <g id="line2d_14">
      <g>
       <use xlink:href="#m8ac4efd9ea" x="172.164706" y="20.122935" style="stroke: #000000; stroke-width: 0.8"/>
      </g>
     </g>
     <g id="text_11">
      <!-- 3 -->
      <g transform="translate(158.802206 23.922154) scale(0.1 -0.1)">
       <use xlink:href="#DejaVuSans-33"/>
      </g>
     </g>
    </g>
   </g>
   <g id="line2d_15">
    <path d="M 176.640642 78.833237 
L 177.267429 87.289788 
L 177.69275 90.470102 
L 178.050914 91.707709 
L 178.386693 92.17459 
L 178.767243 92.331554 
L 179.304489 92.289102 
L 180.132745 91.985626 
L 181.117697 91.384272 
L 182.102649 90.516013 
L 183.04283 89.387829 
L 183.960627 87.929352 
L 184.856038 86.069689 
L 185.729064 83.726098 
L 186.602089 80.727271 
L 187.4975 76.827222 
L 188.437682 71.693013 
L 189.467405 64.751219 
L 190.653824 55.124053 
L 192.556573 37.483418 
L 193.966845 25.340712 
L 194.772715 20.171266 
L 195.332347 17.825606 
L 195.735282 16.92573 
L 196.003905 16.74 
L 196.205372 16.833959 
L 196.45161 17.233626 
L 196.765004 18.214519 
L 197.167939 20.28302 
L 197.660415 24.07568 
L 198.264818 30.615596 
L 199.003532 41.205584 
L 200.05564 59.895361 
L 201.443527 84.042884 
L 201.936003 89.167962 
L 202.316553 91.184432 
L 202.652332 91.966533 
L 203.010496 92.272546 
L 203.435816 92.334093 
L 204.107375 92.182567 
L 204.241686 92.132584 
L 204.241686 92.132584 
" clip-path="url(#p50bf5ab6d1)" style="fill: none; stroke: #a31621; stroke-width: 1.5; stroke-linecap: square"/>
   </g>
   <g id="line2d_16">
    <path d="M 176.640642 61.167107 
L 177.267429 60.760644 
L 177.871832 60.62213 
L 178.49862 60.70369 
L 179.214948 61.028176 
L 180.087974 61.686543 
L 181.184853 62.814289 
L 182.684666 64.70328 
L 185.594752 68.816088 
L 188.169059 72.285398 
L 189.691257 73.983951 
L 190.810521 74.920296 
L 191.683547 75.381037 
L 192.422261 75.530062 
L 193.071434 75.44107 
L 193.698222 75.13196 
L 194.347395 74.559046 
L 195.063723 73.615584 
L 195.891979 72.130515 
L 196.944087 69.743651 
L 199.876558 62.798307 
L 200.660042 61.623425 
L 201.331601 60.984016 
L 201.958388 60.683632 
L 202.562791 60.633984 
L 203.234349 60.811133 
L 203.995448 61.251491 
L 204.958015 62.081294 
L 208.897824 65.760977 
L 210.800572 67.044738 
L 217.717622 71.219881 
L 219.486059 72.054591 
L 220.829175 72.452584 
L 221.970825 72.566591 
L 223.022932 72.4537 
L 224.07504 72.116279 
L 225.216689 71.507005 
L 226.649347 70.467902 
L 229.604203 68.261661 
L 230.656311 67.792966 
L 231.596493 67.614407 
L 232.491904 67.669049 
L 233.432086 67.950737 
L 234.506579 68.514333 
L 235.849695 69.489322 
L 238.043452 71.407765 
L 240.304365 73.289816 
L 241.535555 74.03603 
L 242.498122 74.373181 
L 243.326377 74.432529 
L 244.087477 74.260852 
L 244.826191 73.861762 
L 245.609675 73.174568 
L 246.482701 72.09728 
L 247.57958 70.35722 
L 250.825445 64.942463 
L 251.631315 64.140173 
L 252.347643 63.727071 
L 253.019202 63.594009 
L 253.713145 63.690589 
L 254.474244 64.027678 
L 255.392041 64.687848 
L 256.57846 65.836566 
L 258.279741 67.829136 
L 262.913493 73.407779 
L 264.167069 74.508301 
L 265.129636 75.07555 
L 265.91312 75.294452 
L 266.159358 75.309531 
L 266.159358 75.309531 
" clip-path="url(#p50bf5ab6d1)" style="fill: none; stroke: #bf8124; stroke-width: 1.5; stroke-linecap: square"/>
   </g>
   <g id="line2d_17">
    <path d="M 204.264072 91.483421 
L 204.756548 80.683769 
L 205.36095 72.021509 
L 205.965353 66.26449 
L 206.54737 62.630499 
L 207.107002 60.440562 
L 207.599478 59.318893 
L 208.047183 58.808452 
L 208.427733 58.678337 
L 208.830668 58.783943 
L 209.300759 59.154575 
L 209.949932 59.977609 
L 211.069195 61.825089 
L 212.569009 64.209172 
L 213.397264 65.123828 
L 214.046437 65.539246 
L 214.606069 65.655527 
L 215.143316 65.543996 
L 215.702947 65.18998 
L 216.329735 64.505818 
L 217.046064 63.3617 
L 217.874319 61.586348 
L 218.859271 58.91731 
L 220.157617 54.698511 
L 223.2244 44.461611 
L 224.052655 42.56658 
L 224.679443 41.642221 
L 225.149534 41.296892 
L 225.530083 41.260714 
L 225.910633 41.457492 
L 226.313568 41.931511 
L 226.806044 42.892687 
L 227.388061 44.572277 
L 228.082005 47.313767 
L 228.95503 51.760736 
L 230.230991 59.582733 
L 232.088969 70.806922 
L 232.93961 74.624142 
L 233.611168 76.723761 
L 234.1708 77.826602 
L 234.64089 78.318852 
L 235.043825 78.449157 
L 235.424375 78.345058 
L 235.849695 77.98843 
L 236.364557 77.244171 
L 236.991344 75.910135 
L 237.730058 73.768846 
L 238.580699 70.565827 
L 239.543266 66.01326 
L 240.66253 59.562401 
L 242.117572 49.746136 
L 244.512797 33.522226 
L 245.341052 29.4067 
L 245.945455 27.390441 
L 246.39316 26.570635 
L 246.706554 26.384077 
L 246.952792 26.478637 
L 247.243801 26.878228 
L 247.601965 27.816101 
L 248.04967 29.704003 
L 248.586917 33.033273 
L 249.23609 38.560249 
L 250.064345 47.721341 
L 251.362691 65.026267 
L 252.571496 80.130825 
L 253.198284 85.449848 
L 253.69076 87.917 
L 254.11608 89.018145 
L 254.49663 89.454738 
L 254.877179 89.571396 
L 255.324885 89.462689 
L 255.929287 89.060282 
L 256.690387 88.264433 
L 257.518642 87.068893 
L 258.369282 85.445902 
L 259.242308 83.280567 
L 260.115334 80.49897 
L 261.010745 76.878861 
L 261.950927 72.112332 
L 262.958264 65.813121 
L 264.122298 57.038465 
L 265.778809 42.610227 
L 266.159358 39.201194 
L 266.159358 39.201194 
" clip-path="url(#p50bf5ab6d1)" style="fill: none; stroke: #053c5e; stroke-width: 1.5; stroke-linecap: square"/>
   </g>
   <g id="LineCollection_2">
    <path d="M 204.246399 92.34 
L 204.246399 16.74 
" clip-path="url(#p50bf5ab6d1)" style="fill: none; stroke-dasharray: 5.55,2.4; stroke-dashoffset: 0; stroke: #808080; stroke-width: 1.5"/>
   </g>
   <g id="patch_8">
    <path d="M 172.164706 96.12 
L 172.164706 12.96 
" style="fill: none; stroke: #000000; stroke-width: 0.8; stroke-linejoin: miter; stroke-linecap: square"/>
   </g>
   <g id="patch_9">
    <path d="M 270.635294 96.12 
L 270.635294 12.96 
" style="fill: none; stroke: #000000; stroke-width: 0.8; stroke-linejoin: miter; stroke-linecap: square"/>
   </g>
   <g id="patch_10">
    <path d="M 172.164706 96.12 
L 270.635294 96.12 
" style="fill: none; stroke: #000000; stroke-width: 0.8; stroke-linejoin: miter; stroke-linecap: square"/>
   </g>
   <g id="patch_11">
    <path d="M 172.164706 12.96 
L 270.635294 12.96 
" style="fill: none; stroke: #000000; stroke-width: 0.8; stroke-linejoin: miter; stroke-linecap: square"/>
   </g>
  </g>
  <g id="axes_3">
   <g id="patch_12">
    <path d="M 290.329412 96.12 
L 388.8 96.12 
L 388.8 12.96 
L 290.329412 12.96 
z
" style="fill: #fffdee"/>
   </g>
   <g id="matplotlib.axis_5">
    <g id="xtick_5">
     <g id="line2d_18">
      <g>
       <use xlink:href="#m8a9d97c237" x="317.169023" y="96.12" style="stroke: #000000; stroke-width: 0.8"/>
      </g>
     </g>
     <g id="text_12">
      <!-- 30 -->
      <g transform="translate(310.806523 110.718438) scale(0.1 -0.1)">
       <use xlink:href="#DejaVuSans-33"/>
       <use xlink:href="#DejaVuSans-30" x="63.623047"/>
      </g>
     </g>
    </g>
    <g id="xtick_6">
     <g id="line2d_19">
      <g>
       <use xlink:href="#m8a9d97c237" x="361.939574" y="96.12" style="stroke: #000000; stroke-width: 0.8"/>
      </g>
     </g>
     <g id="text_13">
      <!-- 40 -->
      <g transform="translate(355.577074 110.718438) scale(0.1 -0.1)">
       <use xlink:href="#DejaVuSans-34"/>
       <use xlink:href="#DejaVuSans-30" x="63.623047"/>
      </g>
     </g>
    </g>
   </g>
   <g id="matplotlib.axis_6">
    <g id="ytick_8">
     <g id="line2d_20">
      <g>
       <use xlink:href="#m8ac4efd9ea" x="290.329412" y="93.981631" style="stroke: #000000; stroke-width: 0.8"/>
      </g>
     </g>
     <g id="text_14">
      <!-- 0 -->
      <g transform="translate(276.966912 97.780849) scale(0.1 -0.1)">
       <use xlink:href="#DejaVuSans-30"/>
      </g>
     </g>
    </g>
    <g id="ytick_9">
     <g id="line2d_21">
      <g>
       <use xlink:href="#m8ac4efd9ea" x="290.329412" y="61.883081" style="stroke: #000000; stroke-width: 0.8"/>
      </g>
     </g>
     <g id="text_15">
      <!-- 2 -->
      <g transform="translate(276.966912 65.6823) scale(0.1 -0.1)">
       <use xlink:href="#DejaVuSans-32"/>
      </g>
     </g>
    </g>
    <g id="ytick_10">
     <g id="line2d_22">
      <g>
       <use xlink:href="#m8ac4efd9ea" x="290.329412" y="29.784531" style="stroke: #000000; stroke-width: 0.8"/>
      </g>
     </g>
     <g id="text_16">
      <!-- 4 -->
      <g transform="translate(276.966912 33.58375) scale(0.1 -0.1)">
       <use xlink:href="#DejaVuSans-34"/>
      </g>
     </g>
    </g>
   </g>
   <g id="line2d_23">
    <path d="M 294.805348 82.084044 
L 295.723144 79.481611 
L 296.708096 75.979772 
L 297.782589 71.281933 
L 299.080935 64.522278 
L 302.214874 47.708012 
L 302.931203 45.237912 
L 303.446064 44.150946 
L 303.826614 43.792622 
L 304.117622 43.802558 
L 304.408631 44.076134 
L 304.74441 44.736587 
L 305.16973 46.12564 
L 305.684591 48.652815 
L 306.311379 52.960967 
L 307.094864 60.063016 
L 308.281283 73.208902 
L 309.378162 84.59943 
L 309.893023 87.869744 
L 310.273573 89.076391 
L 310.631737 89.559986 
L 311.034672 89.736853 
L 311.66146 89.73416 
L 312.713568 89.488386 
L 313.922373 88.98282 
L 315.064022 88.265367 
L 316.11613 87.338655 
L 317.101082 86.165203 
L 318.041264 84.682941 
L 318.95906 82.800365 
L 319.876856 80.389799 
L 320.839423 77.200801 
L 321.869146 72.978523 
L 322.384007 70.557674 
L 322.384007 70.557674 
" clip-path="url(#p758252d6d1)" style="fill: none; stroke: #a31621; stroke-width: 1.5; stroke-linecap: square"/>
   </g>
   <g id="line2d_24">
    <path d="M 294.805348 76.520335 
L 296.976719 78.173166 
L 298.431762 79.018934 
L 299.551026 79.426113 
L 300.468822 79.536209 
L 301.297077 79.416199 
L 302.080562 79.079271 
L 302.886432 78.487139 
L 303.781843 77.540403 
L 304.901107 76.003552 
L 307.855963 71.755822 
L 308.706604 71.003933 
L 309.467703 70.612031 
L 310.228802 70.468557 
L 311.057058 70.548047 
L 311.997239 70.869556 
L 313.161273 71.514604 
L 314.728243 72.659384 
L 317.459246 74.984245 
L 320.660341 77.627919 
L 322.339236 78.736256 
L 323.346574 79.173068 
L 323.973362 79.213285 
L 324.510608 79.021428 
L 325.025469 78.590375 
L 325.585101 77.804811 
L 326.211889 76.501442 
L 326.950603 74.39828 
L 327.91317 70.912339 
L 330.218853 62.284373 
L 330.979953 60.391719 
L 331.673896 59.228127 
L 332.323069 58.550238 
L 332.949857 58.207283 
L 333.576645 58.118 
L 334.248203 58.253947 
L 335.031688 58.656127 
L 335.971869 59.405302 
L 337.180674 60.672089 
L 338.90434 62.834678 
L 347.43313 73.999533 
L 349.671658 76.364691 
L 351.529636 78.024767 
L 352.984679 79.045526 
L 354.126328 79.587072 
L 355.044124 79.789275 
L 355.849994 79.746011 
L 356.611093 79.478945 
L 357.372193 78.966486 
L 358.178062 78.146424 
L 359.118244 76.856365 
L 360.506131 74.515881 
L 362.229797 71.692786 
L 363.147594 70.609619 
L 363.908693 70.031696 
L 364.647407 69.744708 
L 365.408506 69.691574 
L 366.259147 69.864803 
L 367.266484 70.310855 
L 368.542445 71.138826 
L 370.310882 72.576153 
L 377.071235 78.320434 
L 378.459122 79.110073 
L 379.556 79.488659 
L 380.451412 79.574069 
L 381.257281 79.435393 
L 382.040766 79.073901 
L 382.846636 78.450961 
L 383.742047 77.465826 
L 384.324064 76.681464 
L 384.324064 76.681464 
" clip-path="url(#p758252d6d1)" style="fill: none; stroke: #bf8124; stroke-width: 1.5; stroke-linecap: square"/>
   </g>
   <g id="line2d_25">
    <path d="M 322.406392 70.099296 
L 323.525656 49.542923 
L 324.600149 33.581584 
L 325.45079 23.948937 
L 326.055192 19.274043 
L 326.502898 17.28158 
L 326.793906 16.765129 
L 326.972988 16.780477 
L 327.152071 17.064012 
L 327.420694 18.01595 
L 327.756473 20.138124 
L 328.181793 24.381807 
L 328.696655 31.903151 
L 329.345828 45.006213 
L 330.196468 67.223016 
L 331.114264 90.261976 
L 331.360502 91.884652 
L 331.584355 92.121633 
L 332.188758 92.23919 
L 333.867653 92.33921 
L 336.240492 92.247974 
L 338.85957 91.92733 
L 341.120483 91.433994 
L 342.93369 90.817 
L 344.388733 90.094176 
L 345.619923 89.236476 
L 346.694416 88.21361 
L 347.656983 86.98819 
L 348.574779 85.448785 
L 349.47019 83.491412 
L 350.365601 80.974009 
L 351.283398 77.710763 
L 352.290735 73.26155 
L 353.454769 67.030433 
L 355.200821 56.256619 
L 356.745405 47.228696 
L 357.551275 43.721287 
L 358.133292 42.077865 
L 358.536227 41.491502 
L 358.827235 41.386962 
L 359.073473 41.523961 
L 359.364482 41.96717 
L 359.722646 42.950328 
L 360.170352 44.883327 
L 360.707599 48.249529 
L 361.379157 54.004346 
L 362.229797 63.393359 
L 364.289243 87.158332 
L 364.692178 89.147138 
L 365.027957 89.855789 
L 365.386121 90.123331 
L 365.900982 90.197712 
L 366.90832 90.08094 
L 368.229051 89.709139 
L 369.505012 89.120829 
L 370.669046 88.336529 
L 371.721154 87.354155 
L 372.683721 86.148827 
L 373.601517 84.64033 
L 374.519314 82.684769 
L 375.43711 80.182296 
L 376.399677 76.876357 
L 377.429399 72.511009 
L 378.638204 66.362817 
L 382.443701 46.120288 
L 383.070489 44.297578 
L 383.518194 43.57875 
L 383.853973 43.40845 
L 384.122597 43.520302 
L 384.324064 43.756873 
L 384.324064 43.756873 
" clip-path="url(#p758252d6d1)" style="fill: none; stroke: #053c5e; stroke-width: 1.5; stroke-linecap: square"/>
   </g>
   <g id="LineCollection_3">
    <path d="M 322.392254 92.34 
L 322.392254 16.74 
" clip-path="url(#p758252d6d1)" style="fill: none; stroke-dasharray: 5.55,2.4; stroke-dashoffset: 0; stroke: #808080; stroke-width: 1.5"/>
   </g>
   <g id="patch_13">
    <path d="M 290.329412 96.12 
L 290.329412 12.96 
" style="fill: none; stroke: #000000; stroke-width: 0.8; stroke-linejoin: miter; stroke-linecap: square"/>
   </g>
   <g id="patch_14">
    <path d="M 388.8 96.12 
L 388.8 12.96 
" style="fill: none; stroke: #000000; stroke-width: 0.8; stroke-linejoin: miter; stroke-linecap: square"/>
   </g>
   <g id="patch_15">
    <path d="M 290.329412 96.12 
L 388.8 96.12 
" style="fill: none; stroke: #000000; stroke-width: 0.8; stroke-linejoin: miter; stroke-linecap: square"/>
   </g>
   <g id="patch_16">
    <path d="M 290.329412 12.96 
L 388.8 12.96 
" style="fill: none; stroke: #000000; stroke-width: 0.8; stroke-linejoin: miter; stroke-linecap: square"/>
   </g>
  </g>
 </g>
 <defs>
  <clipPath id="pe501e044d4">
   <rect x="54" y="12.96" width="98.470588" height="83.16"/>
  </clipPath>
  <clipPath id="p50bf5ab6d1">
   <rect x="172.164706" y="12.96" width="98.470588" height="83.16"/>
  </clipPath>
  <clipPath id="p758252d6d1">
   <rect x="290.329412" y="12.96" width="98.470588" height="83.16"/>
  </clipPath>
 </defs>
</svg>
