<?xml version="1.0" encoding="utf-8" standalone="no"?>
<!DOCTYPE svg PUBLIC "-//W3C//DTD SVG 1.1//EN"
  "http://www.w3.org/Graphics/SVG/1.1/DTD/svg11.dtd">
<svg xmlns:xlink="http://www.w3.org/1999/xlink" width="432pt" height="108pt" viewBox="0 0 432 108" xmlns="http://www.w3.org/2000/svg" version="1.1">
 <metadata>
  <rdf:RDF xmlns:dc="http://purl.org/dc/elements/1.1/" xmlns:cc="http://creativecommons.org/ns#" xmlns:rdf="http://www.w3.org/1999/02/22-rdf-syntax-ns#">
   <cc:Work>
    <dc:type rdf:resource="http://purl.org/dc/dcmitype/StillImage"/>
    <dc:date>2024-05-02T14:35:19.712907</dc:date>
    <dc:format>image/svg+xml</dc:format>
    <dc:creator>
     <cc:Agent>
      <dc:title>Matplotlib v3.8.3, https://matplotlib.org/</dc:title>
     </cc:Agent>
    </dc:creator>
   </cc:Work>
  </rdf:RDF>
 </metadata>
 <defs>
  <style type="text/css">*{stroke-linejoin: round; stroke-linecap: butt}</style>
 </defs>
 <g id="figure_1">
  <g id="patch_1">
   <path d="M 0 108 
L 432 108 
L 432 0 
L 0 0 
z
" style="fill: #ffffff"/>
  </g>
  <g id="axes_1">
   <g id="patch_2">
    <path d="M 54 96.12 
L 152.470588 96.12 
L 152.470588 12.96 
L 54 12.96 
z
" style="fill: #fffdee"/>
   </g>
   <g id="matplotlib.axis_1">
    <g id="xtick_1">
     <g id="line2d_1">
      <defs>
       <path id="m3f2dd01985" d="M 0 0 
L 0 3.5 
" style="stroke: #000000; stroke-width: 0.8"/>
      </defs>
      <g>
       <use xlink:href="#m3f2dd01985" x="80.847859" y="96.12" style="stroke: #000000; stroke-width: 0.8"/>
      </g>
     </g>
     <g id="text_1">
      <!-- 30 -->
      <g transform="translate(74.485359 110.718438) scale(0.1 -0.1)">
       <defs>
        <path id="DejaVuSans-33" d="M 2597 2516 
Q 3050 2419 3304 2112 
Q 3559 1806 3559 1356 
Q 3559 666 3084 287 
Q 2609 -91 1734 -91 
Q 1441 -91 1130 -33 
Q 819 25 488 141 
L 488 750 
Q 750 597 1062 519 
Q 1375 441 1716 441 
Q 2309 441 2620 675 
Q 2931 909 2931 1356 
Q 2931 1769 2642 2001 
Q 2353 2234 1838 2234 
L 1294 2234 
L 1294 2753 
L 1863 2753 
Q 2328 2753 2575 2939 
Q 2822 3125 2822 3475 
Q 2822 3834 2567 4026 
Q 2313 4219 1838 4219 
Q 1578 4219 1281 4162 
Q 984 4106 628 3988 
L 628 4550 
Q 988 4650 1302 4700 
Q 1616 4750 1894 4750 
Q 2613 4750 3031 4423 
Q 3450 4097 3450 3541 
Q 3450 3153 3228 2886 
Q 3006 2619 2597 2516 
z
" transform="scale(0.015625)"/>
        <path id="DejaVuSans-30" d="M 2034 4250 
Q 1547 4250 1301 3770 
Q 1056 3291 1056 2328 
Q 1056 1369 1301 889 
Q 1547 409 2034 409 
Q 2525 409 2770 889 
Q 3016 1369 3016 2328 
Q 3016 3291 2770 3770 
Q 2525 4250 2034 4250 
z
M 2034 4750 
Q 2819 4750 3233 4129 
Q 3647 3509 3647 2328 
Q 3647 1150 3233 529 
Q 2819 -91 2034 -91 
Q 1250 -91 836 529 
Q 422 1150 422 2328 
Q 422 3509 836 4129 
Q 1250 4750 2034 4750 
z
" transform="scale(0.015625)"/>
       </defs>
       <use xlink:href="#DejaVuSans-33"/>
       <use xlink:href="#DejaVuSans-30" x="63.623047"/>
      </g>
     </g>
    </g>
    <g id="xtick_2">
     <g id="line2d_2">
      <g>
       <use xlink:href="#m3f2dd01985" x="125.61841" y="96.12" style="stroke: #000000; stroke-width: 0.8"/>
      </g>
     </g>
     <g id="text_2">
      <!-- 40 -->
      <g transform="translate(119.25591 110.718438) scale(0.1 -0.1)">
       <defs>
        <path id="DejaVuSans-34" d="M 2419 4116 
L 825 1625 
L 2419 1625 
L 2419 4116 
z
M 2253 4666 
L 3047 4666 
L 3047 1625 
L 3713 1625 
L 3713 1100 
L 3047 1100 
L 3047 0 
L 2419 0 
L 2419 1100 
L 313 1100 
L 313 1709 
L 2253 4666 
z
" transform="scale(0.015625)"/>
       </defs>
       <use xlink:href="#DejaVuSans-34"/>
       <use xlink:href="#DejaVuSans-30" x="63.623047"/>
      </g>
     </g>
    </g>
   </g>
   <g id="matplotlib.axis_2">
    <g id="ytick_1">
     <g id="line2d_3">
      <defs>
       <path id="m50889de5a7" d="M 0 0 
L -3.5 0 
" style="stroke: #000000; stroke-width: 0.8"/>
      </defs>
      <g>
       <use xlink:href="#m50889de5a7" x="54" y="72.044518" style="stroke: #000000; stroke-width: 0.8"/>
      </g>
     </g>
     <g id="text_3">
      <!-- 1 -->
      <g transform="translate(40.6375 75.843737) scale(0.1 -0.1)">
       <defs>
        <path id="DejaVuSans-31" d="M 794 531 
L 1825 531 
L 1825 4091 
L 703 3866 
L 703 4441 
L 1819 4666 
L 2450 4666 
L 2450 531 
L 3481 531 
L 3481 0 
L 794 0 
L 794 531 
z
" transform="scale(0.015625)"/>
       </defs>
       <use xlink:href="#DejaVuSans-31"/>
      </g>
     </g>
    </g>
    <g id="ytick_2">
     <g id="line2d_4">
      <g>
       <use xlink:href="#m50889de5a7" x="54" y="46.864416" style="stroke: #000000; stroke-width: 0.8"/>
      </g>
     </g>
     <g id="text_4">
      <!-- 2 -->
      <g transform="translate(40.6375 50.663635) scale(0.1 -0.1)">
       <defs>
        <path id="DejaVuSans-32" d="M 1228 531 
L 3431 531 
L 3431 0 
L 469 0 
L 469 531 
Q 828 903 1448 1529 
Q 2069 2156 2228 2338 
Q 2531 2678 2651 2914 
Q 2772 3150 2772 3378 
Q 2772 3750 2511 3984 
Q 2250 4219 1831 4219 
Q 1534 4219 1204 4116 
Q 875 4013 500 3803 
L 500 4441 
Q 881 4594 1212 4672 
Q 1544 4750 1819 4750 
Q 2544 4750 2975 4387 
Q 3406 4025 3406 3419 
Q 3406 3131 3298 2873 
Q 3191 2616 2906 2266 
Q 2828 2175 2409 1742 
Q 1991 1309 1228 531 
z
" transform="scale(0.015625)"/>
       </defs>
       <use xlink:href="#DejaVuSans-32"/>
      </g>
     </g>
    </g>
    <g id="ytick_3">
     <g id="line2d_5">
      <g>
       <use xlink:href="#m50889de5a7" x="54" y="21.684315" style="stroke: #000000; stroke-width: 0.8"/>
      </g>
     </g>
     <g id="text_5">
      <!-- 3 -->
      <g transform="translate(40.6375 25.483533) scale(0.1 -0.1)">
       <use xlink:href="#DejaVuSans-33"/>
      </g>
     </g>
    </g>
   </g>
   <g id="line2d_6">
    <path d="M 58.475936 22.493433 
L 59.080338 19.80711 
L 59.528044 18.700499 
L 59.819052 18.444008 
L 60.042905 18.51548 
L 60.289143 18.878458 
L 60.602537 19.79033 
L 61.005472 21.732489 
L 61.497948 25.313028 
L 62.10235 31.509076 
L 62.841065 41.569278 
L 63.893172 59.373193 
L 65.28106 82.504654 
L 65.795921 87.635531 
L 66.176471 89.528668 
L 66.51225 90.258604 
L 66.870414 90.542342 
L 67.31812 90.595623 
L 68.034448 90.427003 
L 68.997015 89.965013 
L 70.004353 89.231605 
L 70.989305 88.229869 
L 71.929486 86.944625 
L 72.824897 85.336746 
L 73.697923 83.306792 
L 74.570949 80.701072 
L 75.46636 77.293739 
L 76.384156 72.889951 
L 77.369108 67.022322 
L 78.465987 59.082474 
L 79.898644 46.912933 
L 82.271484 26.663551 
L 83.077354 21.730436 
L 83.636985 19.492013 
L 84.03992 18.633277 
L 84.308544 18.456037 
L 84.532396 18.56785 
L 84.778634 18.977001 
L 85.114414 20.03918 
L 85.539734 22.252092 
L 86.054595 26.257357 
L 86.054595 26.257357 
" clip-path="url(#peebaa95764)" style="fill: none; stroke: #a31621; stroke-width: 1.5; stroke-linecap: square"/>
   </g>
   <g id="line2d_7">
    <path d="M 58.475936 73.323343 
L 59.237035 72.229323 
L 60.132446 70.52706 
L 61.408407 67.559024 
L 63.333541 63.126032 
L 64.206566 61.669229 
L 64.922895 60.871016 
L 65.572068 60.46419 
L 66.198856 60.331243 
L 66.848029 60.422779 
L 67.586743 60.758887 
L 68.482154 61.42503 
L 69.623803 62.572486 
L 71.213158 64.516621 
L 77.682502 72.781241 
L 78.891307 73.824072 
L 79.831489 74.357172 
L 80.592588 74.550331 
L 81.264146 74.503444 
L 81.913319 74.234265 
L 82.584878 73.700125 
L 83.301206 72.829063 
L 84.129462 71.443118 
L 85.159184 69.245983 
L 87.151474 64.324867 
L 90.374953 56.21724 
L 91.113667 55.083433 
L 91.740455 54.489694 
L 92.322472 54.227074 
L 92.904489 54.206524 
L 93.531277 54.41127 
L 94.269991 54.898752 
L 95.187788 55.793034 
L 96.374207 57.288233 
L 98.053103 59.799721 
L 105.283547 71.035738 
L 106.828131 72.874976 
L 107.992165 73.941307 
L 108.909961 74.501108 
L 109.671061 74.71737 
L 110.342619 74.679574 
L 110.969407 74.420565 
L 111.61858 73.900383 
L 112.312523 73.04491 
L 113.118393 71.667842 
L 114.103345 69.502534 
L 117.528293 61.50368 
L 118.267007 60.52911 
L 118.91618 60.013153 
L 119.542967 59.794399 
L 120.169755 59.811559 
L 120.863699 60.057787 
L 121.691954 60.600568 
L 122.721676 61.5587 
L 124.087178 63.154582 
L 126.280935 66.109049 
L 130.041661 71.1606 
L 131.631016 72.922935 
L 132.79505 73.907128 
L 133.712847 74.410162 
L 134.473946 74.585492 
L 135.145504 74.517867 
L 135.794677 74.224169 
L 136.466236 73.660509 
L 137.182564 72.754581 
L 138.01082 71.326999 
L 139.062927 69.030458 
L 141.995399 62.342281 
L 142.801268 61.184814 
L 143.472827 60.57952 
L 144.099614 60.298542 
L 144.726402 60.258972 
L 145.420346 60.450299 
L 146.226216 60.921122 
L 147.211168 61.771949 
L 147.994652 62.607156 
L 147.994652 62.607156 
" clip-path="url(#peebaa95764)" style="fill: none; stroke: #bf8124; stroke-width: 1.5; stroke-linecap: square"/>
   </g>
   <g id="line2d_8">
    <path d="M 86.07698 25.985856 
L 86.614227 20.909397 
L 87.017162 18.887364 
L 87.285785 18.376674 
L 87.442482 18.38541 
L 87.621564 18.670164 
L 87.890188 19.642285 
L 88.248352 21.940891 
L 88.718443 26.644823 
L 89.30046 34.955006 
L 90.06156 49.364574 
L 92.053849 89.279427 
L 92.389628 91.345867 
L 92.680637 91.988121 
L 93.016416 92.231595 
L 93.598433 92.334187 
L 94.650541 92.27846 
L 95.881731 91.990604 
L 97.135307 91.467755 
L 98.321726 90.729714 
L 99.396219 89.801893 
L 100.403557 88.63444 
L 101.343738 87.196535 
L 102.239149 85.4113 
L 103.112175 83.161089 
L 103.985201 80.271636 
L 104.880612 76.493636 
L 105.798408 71.621392 
L 106.805746 65.003435 
L 107.96978 55.751075 
L 109.671061 40.138384 
L 111.305186 25.785898 
L 112.111056 20.476156 
L 112.693073 17.93148 
L 113.118393 16.938603 
L 113.387017 16.740575 
L 113.588484 16.826729 
L 113.834722 17.218911 
L 114.148116 18.194187 
L 114.551051 20.263087 
L 115.043527 24.069655 
L 115.647929 30.648525 
L 116.386643 41.316862 
L 117.438751 60.141479 
L 118.759483 83.161242 
L 119.251959 88.16897 
L 119.632508 90.003934 
L 119.968288 90.657275 
L 120.326452 90.891535 
L 120.818928 90.921242 
L 121.624798 90.724423 
L 122.654521 90.241078 
L 123.684243 89.510967 
L 124.669195 88.540266 
L 125.609377 87.299955 
L 126.527173 85.706995 
L 127.422584 83.682218 
L 128.29561 81.138266 
L 129.191021 77.805462 
L 130.108817 73.48538 
L 131.093769 67.706299 
L 132.190648 59.845053 
L 133.55615 48.303838 
L 136.175227 25.851484 
L 136.936326 21.282627 
L 137.495958 19.108589 
L 137.898893 18.312694 
L 138.167516 18.185065 
L 138.391369 18.342853 
L 138.659993 18.865035 
L 138.995772 20.050234 
L 139.421092 22.431748 
L 139.958339 26.87155 
L 140.607512 34.315083 
L 141.413381 46.343097 
L 143.987688 87.236991 
L 144.390623 89.458789 
L 144.726402 90.262306 
L 145.084567 90.580051 
L 145.509887 90.651293 
L 146.20383 90.510567 
L 147.166397 90.076853 
L 147.994652 89.521241 
L 147.994652 89.521241 
" clip-path="url(#peebaa95764)" style="fill: none; stroke: #053c5e; stroke-width: 1.5; stroke-linecap: square"/>
   </g>
   <g id="LineCollection_1">
    <path d="M 86.07109 92.34 
L 86.07109 16.74 
" clip-path="url(#peebaa95764)" style="fill: none; stroke-dasharray: 5.55,2.4; stroke-dashoffset: 0; stroke: #808080; stroke-width: 1.5"/>
   </g>
   <g id="patch_3">
    <path d="M 54 96.12 
L 54 12.96 
" style="fill: none; stroke: #000000; stroke-width: 0.8; stroke-linejoin: miter; stroke-linecap: square"/>
   </g>
   <g id="patch_4">
    <path d="M 152.470588 96.12 
L 152.470588 12.96 
" style="fill: none; stroke: #000000; stroke-width: 0.8; stroke-linejoin: miter; stroke-linecap: square"/>
   </g>
   <g id="patch_5">
    <path d="M 54 96.12 
L 152.470588 96.12 
" style="fill: none; stroke: #000000; stroke-width: 0.8; stroke-linejoin: miter; stroke-linecap: square"/>
   </g>
   <g id="patch_6">
    <path d="M 54 12.96 
L 152.470588 12.96 
" style="fill: none; stroke: #000000; stroke-width: 0.8; stroke-linejoin: miter; stroke-linecap: square"/>
   </g>
  </g>
  <g id="axes_2">
   <g id="patch_7">
    <path d="M 172.164706 96.12 
L 270.635294 96.12 
L 270.635294 12.96 
L 172.164706 12.96 
z
" style="fill: #fffdee"/>
   </g>
   <g id="matplotlib.axis_3">
    <g id="xtick_3">
     <g id="line2d_9">
      <g>
       <use xlink:href="#m3f2dd01985" x="199.023168" y="96.12" style="stroke: #000000; stroke-width: 0.8"/>
      </g>
     </g>
     <g id="text_6">
      <!-- 30 -->
      <g transform="translate(192.660668 110.718438) scale(0.1 -0.1)">
       <use xlink:href="#DejaVuSans-33"/>
       <use xlink:href="#DejaVuSans-30" x="63.623047"/>
      </g>
     </g>
    </g>
    <g id="xtick_4">
     <g id="line2d_10">
      <g>
       <use xlink:href="#m3f2dd01985" x="243.793719" y="96.12" style="stroke: #000000; stroke-width: 0.8"/>
      </g>
     </g>
     <g id="text_7">
      <!-- 40 -->
      <g transform="translate(237.431219 110.718438) scale(0.1 -0.1)">
       <use xlink:href="#DejaVuSans-34"/>
       <use xlink:href="#DejaVuSans-30" x="63.623047"/>
      </g>
     </g>
    </g>
   </g>
   <g id="matplotlib.axis_4">
    <g id="ytick_4">
     <g id="line2d_11">
      <g>
       <use xlink:href="#m50889de5a7" x="172.164706" y="72.895752" style="stroke: #000000; stroke-width: 0.8"/>
      </g>
     </g>
     <g id="text_8">
      <!-- 1 -->
      <g transform="translate(158.802206 76.694971) scale(0.1 -0.1)">
       <use xlink:href="#DejaVuSans-31"/>
      </g>
     </g>
    </g>
    <g id="ytick_5">
     <g id="line2d_12">
      <g>
       <use xlink:href="#m50889de5a7" x="172.164706" y="46.509344" style="stroke: #000000; stroke-width: 0.8"/>
      </g>
     </g>
     <g id="text_9">
      <!-- 2 -->
      <g transform="translate(158.802206 50.308562) scale(0.1 -0.1)">
       <use xlink:href="#DejaVuSans-32"/>
      </g>
     </g>
    </g>
    <g id="ytick_6">
     <g id="line2d_13">
      <g>
       <use xlink:href="#m50889de5a7" x="172.164706" y="20.122935" style="stroke: #000000; stroke-width: 0.8"/>
      </g>
     </g>
     <g id="text_10">
      <!-- 3 -->
      <g transform="translate(158.802206 23.922154) scale(0.1 -0.1)">
       <use xlink:href="#DejaVuSans-33"/>
      </g>
     </g>
    </g>
   </g>
   <g id="line2d_14">
    <path d="M 176.640642 78.833237 
L 177.267429 87.289788 
L 177.69275 90.470102 
L 178.050914 91.707709 
L 178.386693 92.17459 
L 178.767243 92.331554 
L 179.304489 92.289102 
L 180.132745 91.985626 
L 181.117697 91.384272 
L 182.102649 90.516013 
L 183.04283 89.387829 
L 183.960627 87.929352 
L 184.856038 86.069689 
L 185.729064 83.726098 
L 186.602089 80.727271 
L 187.4975 76.827222 
L 188.437682 71.693013 
L 189.467405 64.751219 
L 190.653824 55.124053 
L 192.556573 37.483418 
L 193.966845 25.340712 
L 194.772715 20.171266 
L 195.332347 17.825606 
L 195.735282 16.92573 
L 196.003905 16.74 
L 196.205372 16.833959 
L 196.45161 17.233626 
L 196.765004 18.214519 
L 197.167939 20.28302 
L 197.660415 24.07568 
L 198.264818 30.615596 
L 199.003532 41.205584 
L 200.05564 59.895361 
L 201.443527 84.042884 
L 201.936003 89.167962 
L 202.316553 91.184432 
L 202.652332 91.966533 
L 203.010496 92.272546 
L 203.435816 92.334093 
L 204.107375 92.182567 
L 204.241686 92.132584 
L 204.241686 92.132584 
" clip-path="url(#p37fb2055fe)" style="fill: none; stroke: #a31621; stroke-width: 1.5; stroke-linecap: square"/>
   </g>
   <g id="line2d_15">
    <path d="M 176.640642 61.167107 
L 177.267429 60.760644 
L 177.871832 60.62213 
L 178.49862 60.70369 
L 179.214948 61.028176 
L 180.087974 61.686543 
L 181.184853 62.814289 
L 182.684666 64.70328 
L 185.594752 68.816088 
L 188.169059 72.285398 
L 189.691257 73.983951 
L 190.810521 74.920296 
L 191.683547 75.381037 
L 192.422261 75.530062 
L 193.071434 75.44107 
L 193.698222 75.13196 
L 194.347395 74.559046 
L 195.063723 73.615584 
L 195.891979 72.130515 
L 196.944087 69.743651 
L 199.876558 62.798307 
L 200.660042 61.623425 
L 201.331601 60.984016 
L 201.958388 60.683632 
L 202.562791 60.633984 
L 203.234349 60.811133 
L 203.995448 61.251491 
L 204.958015 62.084583 
L 206.413058 63.676403 
L 213.307723 71.577575 
L 214.673225 72.66365 
L 215.770103 73.263386 
L 216.6879 73.523065 
L 217.516155 73.531196 
L 218.299639 73.317416 
L 219.105509 72.859613 
L 219.978535 72.094752 
L 221.008258 70.878299 
L 222.664768 68.511889 
L 224.209352 66.44764 
L 225.149534 65.542526 
L 225.933018 65.078939 
L 226.649347 64.903107 
L 227.365676 64.954389 
L 228.149161 65.240426 
L 229.066957 65.824888 
L 230.230991 66.85107 
L 231.865116 68.619112 
L 236.342171 73.610828 
L 237.528591 74.541464 
L 238.446387 75.001231 
L 239.229872 75.153778 
L 239.923815 75.063935 
L 240.595374 74.746169 
L 241.289317 74.157644 
L 242.050417 73.198409 
L 242.923442 71.716236 
L 244.087477 69.254613 
L 246.505086 64.039911 
L 247.355727 62.775233 
L 248.072056 62.084432 
L 248.721229 61.758508 
L 249.348016 61.690949 
L 250.019575 61.848795 
L 250.803059 62.277778 
L 251.743241 63.060466 
L 252.974431 64.396043 
L 254.787638 66.731243 
L 259.488546 72.919754 
L 260.854048 74.301419 
L 261.883771 75.050208 
L 262.712026 75.394603 
L 263.428355 75.456786 
L 264.077528 75.289346 
L 264.726701 74.882159 
L 265.398259 74.189473 
L 266.159358 73.064908 
L 266.159358 73.064908 
" clip-path="url(#p37fb2055fe)" style="fill: none; stroke: #bf8124; stroke-width: 1.5; stroke-linecap: square"/>
   </g>
   <g id="line2d_16">
    <path d="M 204.264072 91.698872 
L 204.689392 85.805779 
L 205.181868 81.798868 
L 205.696729 79.250722 
L 206.211591 77.716388 
L 206.748837 76.781605 
L 207.330854 76.205995 
L 208.382962 75.558292 
L 209.211218 74.912982 
L 209.905161 74.075319 
L 210.62149 72.834389 
L 211.382589 71.042217 
L 212.23323 68.425736 
L 213.173411 64.771638 
L 214.27029 59.556137 
L 215.702947 51.542653 
L 218.277254 36.982546 
L 219.105509 33.585936 
L 219.709912 31.922374 
L 220.157617 31.241354 
L 220.493396 31.078901 
L 220.76202 31.180444 
L 221.075414 31.572651 
L 221.455963 32.461409 
L 221.926054 34.202683 
L 222.485686 37.208996 
L 223.179629 42.288197 
L 224.052655 50.504857 
L 225.619624 67.914408 
L 226.694118 78.610096 
L 227.365676 83.294189 
L 227.902923 85.630329 
L 228.350628 86.72186 
L 228.753563 87.196632 
L 229.134113 87.326469 
L 229.537048 87.22275 
L 230.029524 86.851877 
L 230.656311 86.084791 
L 231.395025 84.817812 
L 232.223281 82.930162 
L 233.073921 80.418222 
L 233.969332 77.047198 
L 234.909514 72.589984 
L 235.916851 66.676852 
L 237.0585 58.566519 
L 238.580699 45.973925 
L 240.684915 28.724785 
L 241.51317 23.685559 
L 242.117572 21.237081 
L 242.542893 20.300656 
L 242.833901 20.086061 
L 243.057754 20.174788 
L 243.303992 20.540249 
L 243.639771 21.510224 
L 244.065091 23.549736 
L 244.579953 27.258521 
L 245.20674 33.5791 
L 245.990225 44.004221 
L 247.131874 62.635538 
L 248.407835 82.62287 
L 248.945081 87.968938 
L 249.370402 90.243369 
L 249.728566 91.132705 
L 250.086731 91.487732 
L 250.489665 91.572433 
L 251.049297 91.442629 
L 251.855167 91.011563 
L 252.772964 90.264321 
L 253.69076 89.228513 
L 254.586171 87.8814 
L 255.481582 86.116009 
L 256.354608 83.885493 
L 257.227633 81.027404 
L 258.123044 77.304981 
L 259.063226 72.393192 
L 260.070563 65.885813 
L 261.234598 56.801251 
L 262.891108 41.844438 
L 264.63716 26.590718 
L 265.465415 21.156132 
L 266.047432 18.603603 
L 266.159358 18.259476 
L 266.159358 18.259476 
" clip-path="url(#p37fb2055fe)" style="fill: none; stroke: #053c5e; stroke-width: 1.5; stroke-linecap: square"/>
   </g>
   <g id="LineCollection_2">
    <path d="M 204.246399 92.34 
L 204.246399 16.74 
" clip-path="url(#p37fb2055fe)" style="fill: none; stroke-dasharray: 5.55,2.4; stroke-dashoffset: 0; stroke: #808080; stroke-width: 1.5"/>
   </g>
   <g id="patch_8">
    <path d="M 172.164706 96.12 
L 172.164706 12.96 
" style="fill: none; stroke: #000000; stroke-width: 0.8; stroke-linejoin: miter; stroke-linecap: square"/>
   </g>
   <g id="patch_9">
    <path d="M 270.635294 96.12 
L 270.635294 12.96 
" style="fill: none; stroke: #000000; stroke-width: 0.8; stroke-linejoin: miter; stroke-linecap: square"/>
   </g>
   <g id="patch_10">
    <path d="M 172.164706 96.12 
L 270.635294 96.12 
" style="fill: none; stroke: #000000; stroke-width: 0.8; stroke-linejoin: miter; stroke-linecap: square"/>
   </g>
   <g id="patch_11">
    <path d="M 172.164706 12.96 
L 270.635294 12.96 
" style="fill: none; stroke: #000000; stroke-width: 0.8; stroke-linejoin: miter; stroke-linecap: square"/>
   </g>
  </g>
  <g id="axes_3">
   <g id="patch_12">
    <path d="M 290.329412 96.12 
L 388.8 96.12 
L 388.8 12.96 
L 290.329412 12.96 
z
" style="fill: #fffdee"/>
   </g>
   <g id="matplotlib.axis_5">
    <g id="xtick_5">
     <g id="line2d_17">
      <g>
       <use xlink:href="#m3f2dd01985" x="317.169023" y="96.12" style="stroke: #000000; stroke-width: 0.8"/>
      </g>
     </g>
     <g id="text_11">
      <!-- 30 -->
      <g transform="translate(310.806523 110.718438) scale(0.1 -0.1)">
       <use xlink:href="#DejaVuSans-33"/>
       <use xlink:href="#DejaVuSans-30" x="63.623047"/>
      </g>
     </g>
    </g>
    <g id="xtick_6">
     <g id="line2d_18">
      <g>
       <use xlink:href="#m3f2dd01985" x="361.939574" y="96.12" style="stroke: #000000; stroke-width: 0.8"/>
      </g>
     </g>
     <g id="text_12">
      <!-- 40 -->
      <g transform="translate(355.577074 110.718438) scale(0.1 -0.1)">
       <use xlink:href="#DejaVuSans-34"/>
       <use xlink:href="#DejaVuSans-30" x="63.623047"/>
      </g>
     </g>
    </g>
   </g>
   <g id="matplotlib.axis_6">
    <g id="ytick_7">
     <g id="line2d_19">
      <g>
       <use xlink:href="#m50889de5a7" x="290.329412" y="94.899119" style="stroke: #000000; stroke-width: 0.8"/>
      </g>
     </g>
     <g id="text_13">
      <!-- 0 -->
      <g transform="translate(276.966912 98.698338) scale(0.1 -0.1)">
       <use xlink:href="#DejaVuSans-30"/>
      </g>
     </g>
    </g>
    <g id="ytick_8">
     <g id="line2d_20">
      <g>
       <use xlink:href="#m50889de5a7" x="290.329412" y="57.525567" style="stroke: #000000; stroke-width: 0.8"/>
      </g>
     </g>
     <g id="text_14">
      <!-- 2 -->
      <g transform="translate(276.966912 61.324786) scale(0.1 -0.1)">
       <use xlink:href="#DejaVuSans-32"/>
      </g>
     </g>
    </g>
    <g id="ytick_9">
     <g id="line2d_21">
      <g>
       <use xlink:href="#m50889de5a7" x="290.329412" y="20.152014" style="stroke: #000000; stroke-width: 0.8"/>
      </g>
     </g>
     <g id="text_15">
      <!-- 4 -->
      <g transform="translate(276.966912 23.951233) scale(0.1 -0.1)">
       <use xlink:href="#DejaVuSans-34"/>
      </g>
     </g>
    </g>
   </g>
   <g id="line2d_22">
    <path d="M 294.805348 81.046311 
L 295.723144 78.0162 
L 296.685711 74.041516 
L 297.760204 68.593503 
L 299.036165 60.887771 
L 302.237259 40.914591 
L 302.953588 38.074668 
L 303.468449 36.841988 
L 303.826614 36.462163 
L 304.095237 36.462161 
L 304.36386 36.722626 
L 304.677254 37.372171 
L 305.080189 38.777275 
L 305.572665 41.389501 
L 306.177068 45.934208 
L 306.915782 53.343122 
L 307.945504 66.210413 
L 309.400547 84.185971 
L 309.893023 87.782819 
L 310.273573 89.187763 
L 310.631737 89.750832 
L 311.012287 89.951751 
L 311.571919 89.965657 
L 312.5121 89.739356 
L 313.65375 89.23375 
L 314.750628 88.503653 
L 315.780351 87.546459 
L 316.742918 86.341283 
L 317.660714 84.827583 
L 318.556125 82.911732 
L 319.451536 80.457716 
L 320.369332 77.277956 
L 321.354284 73.025572 
L 322.384007 67.625722 
L 322.384007 67.625722 
" clip-path="url(#p9537fde194)" style="fill: none; stroke: #a31621; stroke-width: 1.5; stroke-linecap: square"/>
   </g>
   <g id="line2d_23">
    <path d="M 294.805348 74.568274 
L 296.887178 76.422111 
L 298.297451 77.401675 
L 299.371944 77.896817 
L 300.267355 78.075202 
L 301.050839 78.009583 
L 301.789554 77.724721 
L 302.550653 77.181339 
L 303.356523 76.321773 
L 304.31909 74.94411 
L 305.729362 72.474968 
L 307.430643 69.593714 
L 308.348439 68.467483 
L 309.109539 67.865572 
L 309.825867 67.576899 
L 310.542196 67.526702 
L 311.348066 67.703357 
L 312.288248 68.150961 
L 313.452282 68.96482 
L 315.041637 70.367775 
L 318.242731 73.570466 
L 320.817038 75.992209 
L 322.384007 77.177347 
L 323.368959 77.683316 
L 324.040517 77.791834 
L 324.600149 77.663041 
L 325.137396 77.307847 
L 325.697028 76.663219 
L 326.323815 75.584607 
L 327.06253 73.834371 
L 328.002711 70.977432 
L 330.7561 62.191941 
L 331.494814 60.728907 
L 332.166372 59.861352 
L 332.79316 59.39318 
L 333.419948 59.198772 
L 334.069121 59.235997 
L 334.78545 59.506507 
L 335.63609 60.074394 
L 336.710583 61.075846 
L 338.143241 62.737422 
L 340.47131 65.82811 
L 345.172217 72.088355 
L 347.477901 74.764972 
L 349.268723 76.521182 
L 350.611839 77.549717 
L 351.663947 78.09499 
L 352.536973 78.307685 
L 353.298072 78.268252 
L 354.014401 78.004862 
L 354.73073 77.49695 
L 355.491829 76.6769 
L 356.38724 75.360057 
L 357.57366 73.170729 
L 359.834573 68.934328 
L 360.707599 67.798291 
L 361.446313 67.178621 
L 362.140256 66.876705 
L 362.856585 66.812302 
L 363.64007 66.975647 
L 364.557866 67.408168 
L 365.699515 68.210407 
L 367.221714 69.572773 
L 369.907947 72.332036 
L 373.131426 75.555524 
L 374.832707 76.952786 
L 376.063898 77.696297 
L 377.04885 78.044724 
L 377.877105 78.110969 
L 378.638204 77.948096 
L 379.376918 77.555538 
L 380.138018 76.891706 
L 380.988658 75.841628 
L 382.040766 74.162925 
L 384.324064 70.07812 
L 384.324064 70.07812 
" clip-path="url(#p9537fde194)" style="fill: none; stroke: #bf8124; stroke-width: 1.5; stroke-linecap: square"/>
   </g>
   <g id="line2d_24">
    <path d="M 322.406392 67.227409 
L 323.615197 47.751958 
L 324.779231 32.313864 
L 325.652257 23.427561 
L 326.279045 19.064306 
L 326.72675 17.263731 
L 327.040144 16.760327 
L 327.219226 16.777621 
L 327.420694 17.077042 
L 327.689317 17.957957 
L 328.047482 20.028241 
L 328.495187 24.113668 
L 329.032434 31.24902 
L 329.703992 43.454934 
L 330.599403 64.310537 
L 331.673896 88.86466 
L 331.964905 91.456397 
L 332.211143 92.045075 
L 332.524537 92.211335 
L 333.419948 92.322174 
L 335.031688 92.304347 
L 336.934436 92.058697 
L 338.792414 91.597981 
L 340.404154 90.972924 
L 341.769656 90.20667 
L 342.93369 89.301774 
L 343.963413 88.22375 
L 344.925979 86.887189 
L 345.82139 85.258794 
L 346.694416 83.205739 
L 347.589827 80.503263 
L 348.507623 76.986553 
L 349.492576 72.2751 
L 350.589454 65.880475 
L 352.044497 55.929957 
L 354.238254 40.945715 
L 355.044124 36.940958 
L 355.626141 35.059501 
L 356.029076 34.382872 
L 356.320085 34.256101 
L 356.566323 34.404609 
L 356.857331 34.899219 
L 357.215496 36.004444 
L 357.663201 38.184717 
L 358.200448 41.988864 
L 358.872006 48.501591 
L 359.722646 59.143536 
L 361.849248 86.976878 
L 362.252183 89.193502 
L 362.587962 89.996106 
L 362.946126 90.306288 
L 363.416217 90.392574 
L 364.266857 90.290611 
L 365.453277 89.9279 
L 366.639697 89.336971 
L 367.75896 88.527902 
L 368.788683 87.501647 
L 369.75125 86.217217 
L 370.669046 84.607728 
L 371.564457 82.573552 
L 372.459868 79.972953 
L 373.40005 76.522607 
L 374.407387 71.920038 
L 375.526651 65.710842 
L 377.026464 56.006702 
L 379.108295 42.657797 
L 379.93655 38.747332 
L 380.518567 36.938664 
L 380.943888 36.237754 
L 381.234896 36.101857 
L 381.481134 36.222437 
L 381.772143 36.658679 
L 382.130307 37.652479 
L 382.578013 39.62982 
L 383.115259 43.096636 
L 383.764432 48.827002 
L 384.324064 54.97755 
L 384.324064 54.97755 
" clip-path="url(#p9537fde194)" style="fill: none; stroke: #053c5e; stroke-width: 1.5; stroke-linecap: square"/>
   </g>
   <g id="LineCollection_3">
    <path d="M 322.392254 92.34 
L 322.392254 16.74 
" clip-path="url(#p9537fde194)" style="fill: none; stroke-dasharray: 5.55,2.4; stroke-dashoffset: 0; stroke: #808080; stroke-width: 1.5"/>
   </g>
   <g id="patch_13">
    <path d="M 290.329412 96.12 
L 290.329412 12.96 
" style="fill: none; stroke: #000000; stroke-width: 0.8; stroke-linejoin: miter; stroke-linecap: square"/>
   </g>
   <g id="patch_14">
    <path d="M 388.8 96.12 
L 388.8 12.96 
" style="fill: none; stroke: #000000; stroke-width: 0.8; stroke-linejoin: miter; stroke-linecap: square"/>
   </g>
   <g id="patch_15">
    <path d="M 290.329412 96.12 
L 388.8 96.12 
" style="fill: none; stroke: #000000; stroke-width: 0.8; stroke-linejoin: miter; stroke-linecap: square"/>
   </g>
   <g id="patch_16">
    <path d="M 290.329412 12.96 
L 388.8 12.96 
" style="fill: none; stroke: #000000; stroke-width: 0.8; stroke-linejoin: miter; stroke-linecap: square"/>
   </g>
  </g>
 </g>
 <defs>
  <clipPath id="peebaa95764">
   <rect x="54" y="12.96" width="98.470588" height="83.16"/>
  </clipPath>
  <clipPath id="p37fb2055fe">
   <rect x="172.164706" y="12.96" width="98.470588" height="83.16"/>
  </clipPath>
  <clipPath id="p9537fde194">
   <rect x="290.329412" y="12.96" width="98.470588" height="83.16"/>
  </clipPath>
 </defs>
</svg>
