<?xml version="1.0" encoding="utf-8" standalone="no"?>
<!DOCTYPE svg PUBLIC "-//W3C//DTD SVG 1.1//EN"
  "http://www.w3.org/Graphics/SVG/1.1/DTD/svg11.dtd">
<svg xmlns:xlink="http://www.w3.org/1999/xlink" width="216pt" height="144pt" viewBox="0 0 216 144" xmlns="http://www.w3.org/2000/svg" version="1.1">
 <metadata>
  <rdf:RDF xmlns:dc="http://purl.org/dc/elements/1.1/" xmlns:cc="http://creativecommons.org/ns#" xmlns:rdf="http://www.w3.org/1999/02/22-rdf-syntax-ns#">
   <cc:Work>
    <dc:type rdf:resource="http://purl.org/dc/dcmitype/StillImage"/>
    <dc:date>2024-07-09T19:56:58.552877</dc:date>
    <dc:format>image/svg+xml</dc:format>
    <dc:creator>
     <cc:Agent>
      <dc:title>Matplotlib v3.8.3, https://matplotlib.org/</dc:title>
     </cc:Agent>
    </dc:creator>
   </cc:Work>
  </rdf:RDF>
 </metadata>
 <defs>
  <style type="text/css">*{stroke-linejoin: round; stroke-linecap: butt}</style>
 </defs>
 <g id="figure_1">
  <g id="patch_1">
   <path d="M 0 144 
L 216 144 
L 216 0 
L 0 0 
z
" style="fill: #ffffff"/>
  </g>
  <g id="axes_1">
   <g id="patch_2">
    <path d="M 27 128.16 
L 194.4 128.16 
L 194.4 17.28 
L 27 17.28 
z
" style="fill: #f2f2f2"/>
   </g>
   <g id="matplotlib.axis_1">
    <g id="xtick_1">
     <g id="line2d_1">
      <defs>
       <path id="m6d0ac41d52" d="M 0 0 
L 0 3.5 
" style="stroke: #000000; stroke-width: 0.8"/>
      </defs>
      <g>
       <use xlink:href="#m6d0ac41d52" x="34.609091" y="128.16" style="stroke: #000000; stroke-width: 0.8"/>
      </g>
     </g>
     <g id="text_1">
      <!-- 0 -->
      <g transform="translate(31.828622 142.317813) scale(0.1 -0.1)">
       <defs>
        <path id="ArialMT-30" d="M 266 2259 
Q 266 3072 433 3567 
Q 600 4063 929 4331 
Q 1259 4600 1759 4600 
Q 2128 4600 2406 4451 
Q 2684 4303 2865 4023 
Q 3047 3744 3150 3342 
Q 3253 2941 3253 2259 
Q 3253 1453 3087 958 
Q 2922 463 2592 192 
Q 2263 -78 1759 -78 
Q 1097 -78 719 397 
Q 266 969 266 2259 
z
M 844 2259 
Q 844 1131 1108 757 
Q 1372 384 1759 384 
Q 2147 384 2411 759 
Q 2675 1134 2675 2259 
Q 2675 3391 2411 3762 
Q 2147 4134 1753 4134 
Q 1366 4134 1134 3806 
Q 844 3388 844 2259 
z
" transform="scale(0.015625)"/>
       </defs>
       <use xlink:href="#ArialMT-30"/>
      </g>
     </g>
    </g>
    <g id="xtick_2">
     <g id="line2d_2">
      <g>
       <use xlink:href="#m6d0ac41d52" x="74.482056" y="128.16" style="stroke: #000000; stroke-width: 0.8"/>
      </g>
     </g>
     <g id="text_2">
      <!-- 20 -->
      <g transform="translate(68.921119 142.317813) scale(0.1 -0.1)">
       <defs>
        <path id="ArialMT-32" d="M 3222 541 
L 3222 0 
L 194 0 
Q 188 203 259 391 
Q 375 700 629 1000 
Q 884 1300 1366 1694 
Q 2113 2306 2375 2664 
Q 2638 3022 2638 3341 
Q 2638 3675 2398 3904 
Q 2159 4134 1775 4134 
Q 1369 4134 1125 3890 
Q 881 3647 878 3216 
L 300 3275 
Q 359 3922 746 4261 
Q 1134 4600 1788 4600 
Q 2447 4600 2831 4234 
Q 3216 3869 3216 3328 
Q 3216 3053 3103 2787 
Q 2991 2522 2730 2228 
Q 2469 1934 1863 1422 
Q 1356 997 1212 845 
Q 1069 694 975 541 
L 3222 541 
z
" transform="scale(0.015625)"/>
       </defs>
       <use xlink:href="#ArialMT-32"/>
       <use xlink:href="#ArialMT-30" x="55.615234"/>
      </g>
     </g>
    </g>
    <g id="xtick_3">
     <g id="line2d_3">
      <g>
       <use xlink:href="#m6d0ac41d52" x="114.355022" y="128.16" style="stroke: #000000; stroke-width: 0.8"/>
      </g>
     </g>
     <g id="text_3">
      <!-- 40 -->
      <g transform="translate(108.794084 142.317813) scale(0.1 -0.1)">
       <defs>
        <path id="ArialMT-34" d="M 2069 0 
L 2069 1097 
L 81 1097 
L 81 1613 
L 2172 4581 
L 2631 4581 
L 2631 1613 
L 3250 1613 
L 3250 1097 
L 2631 1097 
L 2631 0 
L 2069 0 
z
M 2069 1613 
L 2069 3678 
L 634 1613 
L 2069 1613 
z
" transform="scale(0.015625)"/>
       </defs>
       <use xlink:href="#ArialMT-34"/>
       <use xlink:href="#ArialMT-30" x="55.615234"/>
      </g>
     </g>
    </g>
    <g id="xtick_4">
     <g id="line2d_4">
      <g>
       <use xlink:href="#m6d0ac41d52" x="154.227987" y="128.16" style="stroke: #000000; stroke-width: 0.8"/>
      </g>
     </g>
     <g id="text_4">
      <!-- 60 -->
      <g transform="translate(148.66705 142.317813) scale(0.1 -0.1)">
       <defs>
        <path id="ArialMT-36" d="M 3184 3459 
L 2625 3416 
Q 2550 3747 2413 3897 
Q 2184 4138 1850 4138 
Q 1581 4138 1378 3988 
Q 1113 3794 959 3422 
Q 806 3050 800 2363 
Q 1003 2672 1297 2822 
Q 1591 2972 1913 2972 
Q 2475 2972 2870 2558 
Q 3266 2144 3266 1488 
Q 3266 1056 3080 686 
Q 2894 316 2569 119 
Q 2244 -78 1831 -78 
Q 1128 -78 684 439 
Q 241 956 241 2144 
Q 241 3472 731 4075 
Q 1159 4600 1884 4600 
Q 2425 4600 2770 4297 
Q 3116 3994 3184 3459 
z
M 888 1484 
Q 888 1194 1011 928 
Q 1134 663 1356 523 
Q 1578 384 1822 384 
Q 2178 384 2434 671 
Q 2691 959 2691 1453 
Q 2691 1928 2437 2201 
Q 2184 2475 1800 2475 
Q 1419 2475 1153 2201 
Q 888 1928 888 1484 
z
" transform="scale(0.015625)"/>
       </defs>
       <use xlink:href="#ArialMT-36"/>
       <use xlink:href="#ArialMT-30" x="55.615234"/>
      </g>
     </g>
    </g>
    <g id="xtick_5">
     <g id="line2d_5">
      <g>
       <use xlink:href="#m6d0ac41d52" x="194.100953" y="128.16" style="stroke: #000000; stroke-width: 0.8"/>
      </g>
     </g>
     <g id="text_5">
      <!-- 80 -->
      <g transform="translate(188.540015 142.317813) scale(0.1 -0.1)">
       <defs>
        <path id="ArialMT-38" d="M 1131 2484 
Q 781 2613 612 2850 
Q 444 3088 444 3419 
Q 444 3919 803 4259 
Q 1163 4600 1759 4600 
Q 2359 4600 2725 4251 
Q 3091 3903 3091 3403 
Q 3091 3084 2923 2848 
Q 2756 2613 2416 2484 
Q 2838 2347 3058 2040 
Q 3278 1734 3278 1309 
Q 3278 722 2862 322 
Q 2447 -78 1769 -78 
Q 1091 -78 675 323 
Q 259 725 259 1325 
Q 259 1772 486 2073 
Q 713 2375 1131 2484 
z
M 1019 3438 
Q 1019 3113 1228 2906 
Q 1438 2700 1772 2700 
Q 2097 2700 2305 2904 
Q 2513 3109 2513 3406 
Q 2513 3716 2298 3927 
Q 2084 4138 1766 4138 
Q 1444 4138 1231 3931 
Q 1019 3725 1019 3438 
z
M 838 1322 
Q 838 1081 952 856 
Q 1066 631 1291 507 
Q 1516 384 1775 384 
Q 2178 384 2440 643 
Q 2703 903 2703 1303 
Q 2703 1709 2433 1975 
Q 2163 2241 1756 2241 
Q 1359 2241 1098 1978 
Q 838 1716 838 1322 
z
" transform="scale(0.015625)"/>
       </defs>
       <use xlink:href="#ArialMT-38"/>
       <use xlink:href="#ArialMT-30" x="55.615234"/>
      </g>
     </g>
    </g>
    <g id="text_6">
     <!-- Time (h) -->
     <g transform="translate(92.278125 155.585) scale(0.1 -0.1)">
      <defs>
       <path id="ArialMT-54" d="M 1659 0 
L 1659 4041 
L 150 4041 
L 150 4581 
L 3781 4581 
L 3781 4041 
L 2266 4041 
L 2266 0 
L 1659 0 
z
" transform="scale(0.015625)"/>
       <path id="ArialMT-69" d="M 425 3934 
L 425 4581 
L 988 4581 
L 988 3934 
L 425 3934 
z
M 425 0 
L 425 3319 
L 988 3319 
L 988 0 
L 425 0 
z
" transform="scale(0.015625)"/>
       <path id="ArialMT-6d" d="M 422 0 
L 422 3319 
L 925 3319 
L 925 2853 
Q 1081 3097 1340 3245 
Q 1600 3394 1931 3394 
Q 2300 3394 2536 3241 
Q 2772 3088 2869 2813 
Q 3263 3394 3894 3394 
Q 4388 3394 4653 3120 
Q 4919 2847 4919 2278 
L 4919 0 
L 4359 0 
L 4359 2091 
Q 4359 2428 4304 2576 
Q 4250 2725 4106 2815 
Q 3963 2906 3769 2906 
Q 3419 2906 3187 2673 
Q 2956 2441 2956 1928 
L 2956 0 
L 2394 0 
L 2394 2156 
Q 2394 2531 2256 2718 
Q 2119 2906 1806 2906 
Q 1569 2906 1367 2781 
Q 1166 2656 1075 2415 
Q 984 2175 984 1722 
L 984 0 
L 422 0 
z
" transform="scale(0.015625)"/>
       <path id="ArialMT-65" d="M 2694 1069 
L 3275 997 
Q 3138 488 2766 206 
Q 2394 -75 1816 -75 
Q 1088 -75 661 373 
Q 234 822 234 1631 
Q 234 2469 665 2931 
Q 1097 3394 1784 3394 
Q 2450 3394 2872 2941 
Q 3294 2488 3294 1666 
Q 3294 1616 3291 1516 
L 816 1516 
Q 847 969 1125 678 
Q 1403 388 1819 388 
Q 2128 388 2347 550 
Q 2566 713 2694 1069 
z
M 847 1978 
L 2700 1978 
Q 2663 2397 2488 2606 
Q 2219 2931 1791 2931 
Q 1403 2931 1139 2672 
Q 875 2413 847 1978 
z
" transform="scale(0.015625)"/>
       <path id="ArialMT-20" transform="scale(0.015625)"/>
       <path id="ArialMT-28" d="M 1497 -1347 
Q 1031 -759 709 28 
Q 388 816 388 1659 
Q 388 2403 628 3084 
Q 909 3875 1497 4659 
L 1900 4659 
Q 1522 4009 1400 3731 
Q 1209 3300 1100 2831 
Q 966 2247 966 1656 
Q 966 153 1900 -1347 
L 1497 -1347 
z
" transform="scale(0.015625)"/>
       <path id="ArialMT-68" d="M 422 0 
L 422 4581 
L 984 4581 
L 984 2938 
Q 1378 3394 1978 3394 
Q 2347 3394 2619 3248 
Q 2891 3103 3008 2847 
Q 3125 2591 3125 2103 
L 3125 0 
L 2563 0 
L 2563 2103 
Q 2563 2525 2380 2717 
Q 2197 2909 1863 2909 
Q 1613 2909 1392 2779 
Q 1172 2650 1078 2428 
Q 984 2206 984 1816 
L 984 0 
L 422 0 
z
" transform="scale(0.015625)"/>
       <path id="ArialMT-29" d="M 791 -1347 
L 388 -1347 
Q 1322 153 1322 1656 
Q 1322 2244 1188 2822 
Q 1081 3291 891 3722 
Q 769 4003 388 4659 
L 791 4659 
Q 1378 3875 1659 3084 
Q 1900 2403 1900 1659 
Q 1900 816 1576 28 
Q 1253 -759 791 -1347 
z
" transform="scale(0.015625)"/>
      </defs>
      <use xlink:href="#ArialMT-54"/>
      <use xlink:href="#ArialMT-69" x="57.333984"/>
      <use xlink:href="#ArialMT-6d" x="79.550781"/>
      <use xlink:href="#ArialMT-65" x="162.851562"/>
      <use xlink:href="#ArialMT-20" x="218.466797"/>
      <use xlink:href="#ArialMT-28" x="246.25"/>
      <use xlink:href="#ArialMT-68" x="279.550781"/>
      <use xlink:href="#ArialMT-29" x="335.166016"/>
     </g>
    </g>
   </g>
   <g id="matplotlib.axis_2">
    <g id="ytick_1">
     <g id="line2d_6">
      <defs>
       <path id="m02f8794df0" d="M 0 0 
L -3.5 0 
" style="stroke: #000000; stroke-width: 0.8"/>
      </defs>
      <g>
       <use xlink:href="#m02f8794df0" x="27" y="125.478599" style="stroke: #000000; stroke-width: 0.8"/>
      </g>
     </g>
     <g id="text_7">
      <!-- −6 -->
      <g transform="translate(8.598437 129.057505) scale(0.1 -0.1)">
       <defs>
        <path id="ArialMT-2212" d="M 3381 1997 
L 356 1997 
L 356 2522 
L 3381 2522 
L 3381 1997 
z
" transform="scale(0.015625)"/>
       </defs>
       <use xlink:href="#ArialMT-2212"/>
       <use xlink:href="#ArialMT-36" x="58.398438"/>
      </g>
     </g>
    </g>
    <g id="ytick_2">
     <g id="line2d_7">
      <g>
       <use xlink:href="#m02f8794df0" x="27" y="102.218606" style="stroke: #000000; stroke-width: 0.8"/>
      </g>
     </g>
     <g id="text_8">
      <!-- −4 -->
      <g transform="translate(8.598437 105.797513) scale(0.1 -0.1)">
       <use xlink:href="#ArialMT-2212"/>
       <use xlink:href="#ArialMT-34" x="58.398438"/>
      </g>
     </g>
    </g>
    <g id="ytick_3">
     <g id="line2d_8">
      <g>
       <use xlink:href="#m02f8794df0" x="27" y="78.958614" style="stroke: #000000; stroke-width: 0.8"/>
      </g>
     </g>
     <g id="text_9">
      <!-- −2 -->
      <g transform="translate(8.598437 82.53752) scale(0.1 -0.1)">
       <use xlink:href="#ArialMT-2212"/>
       <use xlink:href="#ArialMT-32" x="58.398438"/>
      </g>
     </g>
    </g>
    <g id="ytick_4">
     <g id="line2d_9">
      <g>
       <use xlink:href="#m02f8794df0" x="27" y="55.698621" style="stroke: #000000; stroke-width: 0.8"/>
      </g>
     </g>
     <g id="text_10">
      <!-- 0 -->
      <g transform="translate(14.439062 59.277527) scale(0.1 -0.1)">
       <use xlink:href="#ArialMT-30"/>
      </g>
     </g>
    </g>
    <g id="ytick_5">
     <g id="line2d_10">
      <g>
       <use xlink:href="#m02f8794df0" x="27" y="32.438628" style="stroke: #000000; stroke-width: 0.8"/>
      </g>
     </g>
     <g id="text_11">
      <!-- 2 -->
      <g transform="translate(14.439062 36.017535) scale(0.1 -0.1)">
       <use xlink:href="#ArialMT-32"/>
      </g>
     </g>
    </g>
    <g id="text_12">
     <!-- Log($\delta$Z(t)/$\delta$Z(0)) -->
     <g transform="translate(2.398437 108.87) rotate(-90) scale(0.1 -0.1)">
      <defs>
       <path id="ArialMT-4c" d="M 469 0 
L 469 4581 
L 1075 4581 
L 1075 541 
L 3331 541 
L 3331 0 
L 469 0 
z
" transform="scale(0.015625)"/>
       <path id="ArialMT-6f" d="M 213 1659 
Q 213 2581 725 3025 
Q 1153 3394 1769 3394 
Q 2453 3394 2887 2945 
Q 3322 2497 3322 1706 
Q 3322 1066 3130 698 
Q 2938 331 2570 128 
Q 2203 -75 1769 -75 
Q 1072 -75 642 372 
Q 213 819 213 1659 
z
M 791 1659 
Q 791 1022 1069 705 
Q 1347 388 1769 388 
Q 2188 388 2466 706 
Q 2744 1025 2744 1678 
Q 2744 2294 2464 2611 
Q 2184 2928 1769 2928 
Q 1347 2928 1069 2612 
Q 791 2297 791 1659 
z
" transform="scale(0.015625)"/>
       <path id="ArialMT-67" d="M 319 -275 
L 866 -356 
Q 900 -609 1056 -725 
Q 1266 -881 1628 -881 
Q 2019 -881 2231 -725 
Q 2444 -569 2519 -288 
Q 2563 -116 2559 434 
Q 2191 0 1641 0 
Q 956 0 581 494 
Q 206 988 206 1678 
Q 206 2153 378 2554 
Q 550 2956 876 3175 
Q 1203 3394 1644 3394 
Q 2231 3394 2613 2919 
L 2613 3319 
L 3131 3319 
L 3131 450 
Q 3131 -325 2973 -648 
Q 2816 -972 2473 -1159 
Q 2131 -1347 1631 -1347 
Q 1038 -1347 672 -1080 
Q 306 -813 319 -275 
z
M 784 1719 
Q 784 1066 1043 766 
Q 1303 466 1694 466 
Q 2081 466 2343 764 
Q 2606 1063 2606 1700 
Q 2606 2309 2336 2618 
Q 2066 2928 1684 2928 
Q 1309 2928 1046 2623 
Q 784 2319 784 1719 
z
" transform="scale(0.015625)"/>
       <path id="DejaVuSans-Oblique-3b4" d="M 3472 4053 
Q 3197 4272 2450 4272 
Q 1659 4272 1588 3906 
Q 1531 3619 2328 3469 
Q 2953 3353 3253 3003 
Q 3616 2581 3447 1716 
Q 3284 888 2763 400 
Q 2238 -91 1488 -91 
Q 741 -91 406 400 
Q 72 888 241 1747 
Q 363 2384 891 2900 
Q 1097 3100 1353 3213 
Q 913 3459 1000 3900 
Q 1166 4750 2544 4750 
Q 3234 4750 3566 4531 
L 3472 4053 
z
M 1753 3056 
Q 1525 2966 1306 2738 
Q 969 2384 847 1747 
Q 722 1113 919 756 
Q 1119 397 1584 397 
Q 2044 397 2381 759 
Q 2722 1122 2838 1716 
Q 2956 2338 2731 2638 
Q 2491 2959 2103 2994 
Q 1906 3013 1753 3056 
z
" transform="scale(0.015625)"/>
       <path id="ArialMT-5a" d="M 128 0 
L 128 563 
L 2475 3497 
Q 2725 3809 2950 4041 
L 394 4041 
L 394 4581 
L 3675 4581 
L 3675 4041 
L 1103 863 
L 825 541 
L 3750 541 
L 3750 0 
L 128 0 
z
" transform="scale(0.015625)"/>
       <path id="ArialMT-74" d="M 1650 503 
L 1731 6 
Q 1494 -44 1306 -44 
Q 1000 -44 831 53 
Q 663 150 594 308 
Q 525 466 525 972 
L 525 2881 
L 113 2881 
L 113 3319 
L 525 3319 
L 525 4141 
L 1084 4478 
L 1084 3319 
L 1650 3319 
L 1650 2881 
L 1084 2881 
L 1084 941 
Q 1084 700 1114 631 
Q 1144 563 1211 522 
Q 1278 481 1403 481 
Q 1497 481 1650 503 
z
" transform="scale(0.015625)"/>
       <path id="ArialMT-2f" d="M 0 -78 
L 1328 4659 
L 1778 4659 
L 453 -78 
L 0 -78 
z
" transform="scale(0.015625)"/>
      </defs>
      <use xlink:href="#ArialMT-4c" transform="translate(0 0.78125)"/>
      <use xlink:href="#ArialMT-6f" transform="translate(55.615234 0.78125)"/>
      <use xlink:href="#ArialMT-67" transform="translate(111.230469 0.78125)"/>
      <use xlink:href="#ArialMT-28" transform="translate(166.845703 0.78125)"/>
      <use xlink:href="#DejaVuSans-Oblique-3b4" transform="translate(200.146484 0.78125)"/>
      <use xlink:href="#ArialMT-5a" transform="translate(261.328125 0.78125)"/>
      <use xlink:href="#ArialMT-28" transform="translate(322.412109 0.78125)"/>
      <use xlink:href="#ArialMT-74" transform="translate(355.712891 0.78125)"/>
      <use xlink:href="#ArialMT-29" transform="translate(383.496094 0.78125)"/>
      <use xlink:href="#ArialMT-2f" transform="translate(416.796875 0.78125)"/>
      <use xlink:href="#DejaVuSans-Oblique-3b4" transform="translate(444.580078 0.78125)"/>
      <use xlink:href="#ArialMT-5a" transform="translate(505.761719 0.78125)"/>
      <use xlink:href="#ArialMT-28" transform="translate(566.845703 0.78125)"/>
      <use xlink:href="#ArialMT-30" transform="translate(600.146484 0.78125)"/>
      <use xlink:href="#ArialMT-29" transform="translate(655.761719 0.78125)"/>
      <use xlink:href="#ArialMT-29" transform="translate(689.0625 0.78125)"/>
     </g>
    </g>
   </g>
   <g id="line2d_11">
    <path d="M 34.609091 55.698621 
L 34.941366 53.076717 
L 35.27364 57.568972 
L 35.605915 46.532432 
L 35.93819 80.883098 
L 36.270464 58.897033 
L 36.602739 58.982572 
L 37.267289 45.756193 
L 37.599563 60.129336 
L 37.931838 55.499273 
L 38.264113 48.919198 
L 38.596387 53.068891 
L 38.928662 61.251296 
L 39.260937 85.827506 
L 39.593212 49.997033 
L 39.925486 47.523858 
L 40.257761 52.680381 
L 40.590036 55.791185 
L 40.92231 110.726284 
L 41.254585 47.720991 
L 41.58686 54.295885 
L 41.919135 43.124423 
L 42.251409 52.868014 
L 42.583684 55.881004 
L 42.915959 50.683714 
L 43.248233 85.652225 
L 43.580508 65.663725 
L 43.912783 93.439715 
L 44.245058 53.367229 
L 44.577332 48.612808 
L 44.909607 55.482894 
L 45.241882 48.977384 
L 45.574156 60.459138 
L 45.906431 49.925467 
L 46.238706 72.289034 
L 46.570981 123.12 
L 46.903255 66.422706 
L 47.567805 64.539211 
L 47.900079 115.303552 
L 48.232354 63.550453 
L 48.564629 66.068083 
L 48.896904 105.91835 
L 49.229178 76.872604 
L 49.561453 63.280983 
L 50.226002 49.301584 
L 50.558277 45.752022 
L 51.555101 39.64624 
L 51.887376 37.923544 
L 52.219651 38.481952 
L 52.8842 31.479834 
L 53.216475 31.422586 
L 53.54875 31.837875 
L 53.881024 42.022864 
L 54.213299 63.161124 
L 54.545574 42.394454 
L 55.210123 32.079045 
L 55.542398 32.499146 
L 55.874672 30.734008 
L 56.206947 30.341524 
L 56.539222 29.731781 
L 56.871497 31.648637 
L 57.203771 31.229343 
L 57.536046 32.980588 
L 57.868321 32.083551 
L 58.53287 34.675346 
L 58.865145 37.135085 
L 59.529694 57.448643 
L 59.861969 62.198739 
L 60.526518 35.589261 
L 60.858793 32.058922 
L 61.523343 30.029581 
L 61.855617 29.665656 
L 62.187892 30.761727 
L 62.520167 30.215741 
L 63.184716 31.68665 
L 63.516991 33.321889 
L 63.849266 37.133793 
L 64.18154 39.276474 
L 64.84609 44.854487 
L 65.178364 57.461761 
L 65.510639 58.411458 
L 65.842914 49.672994 
L 66.175189 46.6573 
L 66.507463 48.727501 
L 66.839738 43.491965 
L 67.172013 42.325918 
L 67.504287 40.385242 
L 67.836562 46.078928 
L 68.168837 45.900802 
L 68.501112 46.709029 
L 68.833386 51.008429 
L 69.165661 48.698453 
L 69.83021 52.95368 
L 70.162485 52.779541 
L 70.49476 57.157603 
L 70.827035 48.797189 
L 71.159309 58.542231 
L 71.491584 60.227371 
L 71.823859 69.495849 
L 72.156133 53.452219 
L 72.488408 49.248797 
L 72.820683 49.891485 
L 73.152958 41.529175 
L 73.485232 39.650187 
L 73.817507 35.821827 
L 74.149782 36.821596 
L 74.482056 35.740613 
L 74.814331 36.810186 
L 75.146606 36.240676 
L 75.811155 40.403658 
L 76.14343 54.729874 
L 76.475705 43.028507 
L 77.140254 33.200295 
L 77.472529 32.429437 
L 77.804803 29.292299 
L 78.137078 28.124883 
L 78.469353 26.047357 
L 78.801628 26.452437 
L 79.133902 27.249635 
L 79.466177 26.829119 
L 79.798452 25.144206 
L 80.463001 25.067892 
L 80.795276 24.667398 
L 81.127551 22.72876 
L 81.459825 22.424259 
L 81.7921 22.32 
L 82.456649 24.315073 
L 82.788924 27.074912 
L 83.121199 27.433193 
L 83.453474 28.278133 
L 84.118023 32.212365 
L 84.450298 31.593701 
L 84.782572 34.290117 
L 85.114847 35.600492 
L 85.447122 34.806645 
L 86.111671 42.054986 
L 86.776221 45.283277 
L 87.108495 38.649201 
L 87.44077 37.241621 
L 87.773045 38.212801 
L 88.10532 33.81743 
L 88.437594 33.401862 
L 88.769869 31.712435 
L 89.102144 32.270375 
L 89.434418 29.30603 
L 90.098968 35.183931 
L 90.431243 35.849826 
L 90.763517 36.976059 
L 91.095792 37.326791 
L 91.428067 38.355315 
L 91.760341 41.253024 
L 92.092616 41.966712 
L 92.424891 45.804895 
L 92.757166 42.745095 
L 93.08944 42.298461 
L 93.421715 43.693366 
L 93.75399 42.379154 
L 94.086264 44.347067 
L 94.750814 31.683912 
L 95.083089 42.344881 
L 95.415363 42.392892 
L 95.747638 41.090035 
L 96.079913 41.952566 
L 96.412187 40.98826 
L 97.076737 42.823932 
L 97.409012 49.194005 
L 97.741286 50.60243 
L 98.073561 44.228672 
L 98.405836 43.891385 
L 98.73811 41.297719 
L 99.40266 34.901814 
L 99.734934 32.273188 
L 100.067209 34.00811 
L 100.399484 31.590184 
L 101.064033 37.569793 
L 101.396308 36.680718 
L 101.728583 36.153023 
L 102.060857 33.383922 
L 102.393132 34.937386 
L 102.725407 35.248231 
L 103.057682 36.119458 
L 103.389956 34.453125 
L 104.054506 37.185486 
L 104.38678 38.27852 
L 104.719055 41.15066 
L 105.05133 42.107603 
L 105.383605 49.810215 
L 105.715879 60.552558 
L 106.048154 84.303189 
L 106.712703 54.972431 
L 107.044978 46.262003 
L 107.377253 50.72585 
L 108.041802 45.109741 
L 108.374077 47.193263 
L 108.706352 60.976313 
L 109.038626 64.864651 
L 109.370901 48.136065 
L 109.703176 47.081458 
L 110.035451 40.012354 
L 110.7 36.008508 
L 111.032275 35.950465 
L 111.364549 34.397461 
L 111.696824 33.710842 
L 112.361374 39.831365 
L 112.693648 43.292304 
L 113.690472 49.025082 
L 114.022747 52.20886 
L 114.355022 50.657934 
L 114.687297 53.518302 
L 115.019571 52.50094 
L 115.351846 50.841869 
L 115.684121 52.166072 
L 116.016395 56.904636 
L 116.34867 55.513261 
L 116.680945 56.843868 
L 117.01322 79.102549 
L 117.345494 53.090033 
L 117.677769 54.7973 
L 118.010044 62.228794 
L 118.342318 59.96257 
L 118.674593 80.254746 
L 119.006868 54.074576 
L 119.339143 53.760688 
L 119.671417 56.621428 
L 120.003692 53.308783 
L 120.335967 51.148853 
L 120.668241 45.681551 
L 121.000516 45.270867 
L 122.329615 31.914453 
L 122.66189 30.400806 
L 122.994164 31.249338 
L 123.326439 31.522573 
L 123.658714 30.513647 
L 123.990988 30.679852 
L 124.323263 30.228906 
L 124.655538 30.927461 
L 124.987813 29.618638 
L 125.320087 32.863594 
L 125.652362 32.322957 
L 126.316911 40.540048 
L 127.313736 69.528016 
L 127.64601 52.687192 
L 127.978285 44.095004 
L 128.642834 40.997261 
L 128.975109 37.879487 
L 129.307384 38.292016 
L 129.971933 38.11313 
L 130.304208 38.72006 
L 130.968757 42.686957 
L 131.301032 44.093377 
L 131.633307 44.132313 
L 131.965582 46.791957 
L 132.297856 54.632818 
L 132.630131 55.623342 
L 132.962406 68.543352 
L 133.29468 55.689307 
L 133.626955 48.812913 
L 133.95923 56.279299 
L 134.291505 52.016827 
L 134.623779 52.754767 
L 134.956054 52.092109 
L 135.288329 47.282584 
L 135.620603 54.349475 
L 135.952878 49.670365 
L 136.285153 56.305103 
L 136.617428 49.626059 
L 136.949702 47.414616 
L 137.614252 39.256657 
L 137.946526 40.057502 
L 138.278801 37.815347 
L 138.611076 34.740365 
L 138.943351 36.828855 
L 139.275625 34.767416 
L 139.6079 33.900144 
L 139.940175 34.052478 
L 140.272449 32.290344 
L 140.936999 30.913133 
L 141.269274 29.38498 
L 141.601548 29.673398 
L 141.933823 30.693667 
L 142.598372 35.195871 
L 142.930647 39.720607 
L 143.262922 58.092624 
L 144.259746 36.255964 
L 144.592021 48.031089 
L 145.25657 37.227988 
L 145.588845 40.456567 
L 145.921119 37.625227 
L 146.253394 37.489695 
L 146.585669 35.902807 
L 146.917944 37.335888 
L 147.250218 36.700425 
L 147.582493 37.568864 
L 147.914768 38.807982 
L 148.247042 43.715397 
L 148.579317 43.811349 
L 148.911592 53.06068 
L 149.243867 65.688011 
L 149.576141 66.970606 
L 149.908416 61.311531 
L 150.240691 42.979284 
L 150.572965 40.45194 
L 150.90524 35.302611 
L 151.902064 29.445213 
L 152.234339 30.089948 
L 152.566614 28.52968 
L 152.898888 27.84343 
L 153.895713 27.361343 
L 154.227987 27.277153 
L 154.560262 28.188953 
L 154.892537 31.283602 
L 155.224811 32.659564 
L 155.557086 32.8991 
L 155.889361 39.340695 
L 156.55391 56.704011 
L 156.886185 50.406024 
L 157.21846 49.919498 
L 157.550734 57.286743 
L 157.883009 55.103086 
L 158.215284 51.804732 
L 158.547559 70.731725 
L 158.879833 48.180171 
L 159.212108 51.247432 
L 159.544383 46.444023 
L 159.876657 44.133946 
L 160.208932 45.162938 
L 160.541207 42.309157 
L 160.873482 40.512509 
L 161.205756 46.042956 
L 161.538031 45.375971 
L 161.870306 41.465108 
L 162.86713 48.631222 
L 163.199405 48.541297 
L 163.531679 45.553352 
L 163.863954 45.843919 
L 164.528503 40.957845 
L 164.860778 38.473028 
L 165.193053 39.717132 
L 165.525328 40.132239 
L 166.189877 35.621242 
L 166.522152 39.532214 
L 166.854426 42.012881 
L 167.186701 39.904154 
L 167.518976 42.847298 
L 167.85125 54.660594 
L 168.183525 55.925424 
L 168.5158 55.794151 
L 168.848075 45.783968 
L 169.180349 41.117438 
L 169.512624 39.922707 
L 169.844899 40.342866 
L 170.177173 36.414065 
L 170.509448 45.115267 
L 170.841723 46.96817 
L 171.173998 67.433415 
L 171.506272 63.727109 
L 171.838547 51.366436 
L 172.503096 40.998092 
L 172.835371 40.777142 
L 173.499921 36.610107 
L 173.832195 36.428179 
L 174.16447 35.85392 
L 174.496745 37.832747 
L 175.161294 39.703861 
L 175.493569 39.905794 
L 175.825844 39.559483 
L 176.490393 43.454084 
L 176.822668 44.410435 
L 177.154942 43.106472 
L 177.487217 45.168092 
L 177.819492 43.631519 
L 178.151767 39.832869 
L 178.816316 49.575836 
L 179.148591 51.253454 
L 179.480865 62.390703 
L 180.145415 66.586634 
L 180.47769 82.950598 
L 180.809964 63.395435 
L 181.142239 59.791186 
L 181.474514 60.658748 
L 181.806788 57.72962 
L 182.139063 47.111417 
L 182.471338 44.51176 
L 182.803613 43.216105 
L 183.800437 36.223663 
L 184.132711 31.99435 
L 184.464986 33.195336 
L 184.797261 32.326638 
L 185.129536 32.033704 
L 185.46181 32.497145 
L 185.794085 32.652802 
L 186.12636 32.038127 
L 186.458634 33.613736 
L 186.790909 38.354984 
L 186.790909 38.354984 
" clip-path="url(#p8cdf9ea597)" style="fill: none; stroke: #808080; stroke-opacity: 0.5; stroke-width: 1.5; stroke-linecap: square"/>
   </g>
   <g id="line2d_12">
    <path d="M 34.609091 55.698621 
L 34.941366 76.953866 
L 35.27364 76.373812 
L 35.605915 120.303371 
L 35.93819 59.328206 
L 36.270464 59.094286 
L 36.602739 57.896888 
L 36.935014 58.084576 
L 37.599563 65.000212 
L 37.931838 85.623491 
L 38.264113 61.012973 
L 38.596387 62.589422 
L 38.928662 56.677545 
L 39.260937 57.299029 
L 39.593212 54.603394 
L 39.925486 50.836868 
L 40.590036 48.451759 
L 40.92231 46.308732 
L 41.254585 46.680297 
L 41.58686 45.945789 
L 41.919135 42.55248 
L 42.583684 41.717367 
L 42.915959 40.766512 
L 43.248233 43.786583 
L 43.580508 43.220527 
L 43.912783 45.920391 
L 44.245058 42.08779 
L 44.577332 45.586496 
L 44.909607 43.672758 
L 45.241882 47.34699 
L 45.574156 45.317337 
L 46.238706 63.437052 
L 46.570981 58.770862 
L 46.903255 81.223713 
L 47.23553 64.778059 
L 47.567805 67.312817 
L 47.900079 56.908183 
L 48.232354 59.481501 
L 48.564629 64.984281 
L 48.896904 62.477868 
L 49.229178 56.255742 
L 49.561453 59.625862 
L 50.226002 51.542398 
L 50.558277 52.784873 
L 50.890552 49.000694 
L 51.222827 49.902909 
L 51.555101 46.631296 
L 51.887376 44.693266 
L 52.219651 41.328752 
L 52.8842 37.519018 
L 53.216475 36.26832 
L 53.54875 37.05957 
L 53.881024 36.353948 
L 54.213299 38.330737 
L 54.545574 41.687911 
L 55.210123 64.482158 
L 55.874672 47.565319 
L 56.206947 45.670113 
L 56.539222 46.363629 
L 56.871497 49.332564 
L 57.203771 48.954421 
L 57.536046 44.875978 
L 57.868321 48.862886 
L 58.200595 51.163677 
L 58.53287 109.698717 
L 58.865145 55.557198 
L 59.19742 51.296195 
L 59.529694 43.315447 
L 60.526518 37.001542 
L 60.858793 37.755733 
L 61.855617 41.466519 
L 62.187892 43.914289 
L 62.520167 44.281234 
L 62.852441 47.069043 
L 63.184716 51.53203 
L 63.516991 51.745437 
L 63.849266 56.920576 
L 64.18154 71.058855 
L 64.513815 72.525034 
L 64.84609 83.736891 
L 65.178364 82.551721 
L 65.510639 66.390204 
L 65.842914 63.408242 
L 66.175189 67.160495 
L 66.507463 60.071961 
L 66.839738 59.79121 
L 67.172013 48.242258 
L 67.504287 50.805321 
L 67.836562 45.181785 
L 68.168837 42.310382 
L 68.501112 48.52202 
L 68.833386 59.776769 
L 69.165661 66.556412 
L 69.497936 60.715535 
L 69.83021 58.485158 
L 70.162485 54.562675 
L 70.49476 59.005828 
L 71.491584 51.063816 
L 71.823859 52.28568 
L 72.488408 46.428769 
L 72.820683 44.829752 
L 73.152958 47.433601 
L 73.485232 44.995904 
L 73.817507 43.819473 
L 74.149782 44.658265 
L 74.482056 41.741628 
L 74.814331 44.409218 
L 75.146606 45.796214 
L 75.478881 50.624167 
L 75.811155 62.56444 
L 76.14343 70.456791 
L 77.140254 49.499332 
L 77.804803 48.457925 
L 78.137078 45.753698 
L 78.469353 48.540822 
L 78.801628 52.436233 
L 79.133902 59.27506 
L 79.466177 60.908719 
L 79.798452 53.871601 
L 80.130726 44.409975 
L 80.463001 40.323462 
L 80.795276 34.729279 
L 81.127551 31.587971 
L 81.459825 30.601264 
L 81.7921 31.084949 
L 82.456649 32.846012 
L 83.121199 38.489405 
L 83.785748 43.337989 
L 84.118023 43.668967 
L 84.450298 44.544882 
L 84.782572 47.850782 
L 85.114847 45.65226 
L 85.447122 46.18867 
L 85.779397 46.047724 
L 86.111671 42.056454 
L 86.776221 46.421263 
L 87.108495 42.573428 
L 87.44077 43.216368 
L 87.773045 41.86243 
L 88.437594 37.614408 
L 89.102144 33.228461 
L 89.434418 28.008959 
L 89.766693 31.109703 
L 90.098968 36.878913 
L 90.431243 38.203115 
L 91.095792 42.395104 
L 91.760341 48.945095 
L 92.092616 47.884176 
L 92.424891 50.551055 
L 92.757166 49.189078 
L 93.08944 48.965062 
L 93.421715 52.215696 
L 93.75399 48.261931 
L 94.086264 46.884167 
L 94.418539 48.359116 
L 94.750814 48.593613 
L 95.083089 50.51163 
L 95.747638 46.102277 
L 96.079913 46.106074 
L 96.412187 45.291638 
L 96.744462 43.743709 
L 97.076737 43.210503 
L 97.409012 40.230513 
L 97.741286 39.232147 
L 98.073561 38.656923 
L 98.73811 35.152734 
L 99.070385 34.741229 
L 99.734934 36.353316 
L 100.067209 37.994784 
L 100.399484 35.239536 
L 100.731759 42.770524 
L 101.064033 39.509527 
L 101.396308 40.121308 
L 101.728583 39.196655 
L 102.060857 40.319554 
L 102.393132 44.112607 
L 102.725407 43.208055 
L 103.057682 43.49982 
L 103.389956 41.378643 
L 103.722231 41.619386 
L 104.054506 41.51991 
L 104.38678 43.899963 
L 104.719055 44.147174 
L 105.05133 43.899419 
L 105.383605 46.344307 
L 105.715879 46.834535 
L 106.048154 44.666005 
L 106.380429 45.317132 
L 106.712703 42.860391 
L 107.044978 44.116299 
L 107.377253 43.680521 
L 108.374077 39.057234 
L 109.038626 38.442948 
L 109.703176 35.182728 
L 110.367725 33.700141 
L 110.7 34.585337 
L 111.032275 34.798097 
L 111.364549 29.938831 
L 111.696824 37.179045 
L 112.029099 47.008038 
L 112.361374 47.486849 
L 112.693648 50.786849 
L 113.025923 55.875569 
L 113.358198 59.222382 
L 113.690472 60.252939 
L 114.022747 53.222665 
L 114.355022 54.919728 
L 114.687297 52.902574 
L 115.019571 49.159984 
L 115.351846 48.142646 
L 115.684121 54.477461 
L 116.016395 51.425854 
L 116.34867 52.925392 
L 116.680945 48.323184 
L 117.01322 49.227505 
L 117.345494 46.769563 
L 117.677769 46.078939 
L 118.010044 46.4724 
L 119.006868 38.203522 
L 119.339143 37.889101 
L 119.671417 38.102721 
L 120.003692 39.322067 
L 120.668241 37.626201 
L 121.000516 39.420124 
L 121.332791 39.825345 
L 121.665066 44.909203 
L 121.99734 54.316722 
L 122.329615 44.166938 
L 122.66189 65.740641 
L 122.994164 56.491277 
L 123.326439 66.442545 
L 123.658714 63.929596 
L 123.990988 64.802088 
L 124.323263 58.626811 
L 124.655538 76.445996 
L 124.987813 58.43804 
L 125.652362 47.860289 
L 125.984637 48.863164 
L 126.316911 45.467613 
L 126.649186 44.162179 
L 126.981461 43.890422 
L 127.313736 42.432585 
L 127.64601 45.236752 
L 127.978285 41.02004 
L 128.31056 40.647019 
L 128.642834 40.06952 
L 128.975109 39.853124 
L 129.307384 39.40226 
L 129.971933 37.21877 
L 130.304208 36.395953 
L 130.968757 35.719662 
L 131.301032 34.993091 
L 131.965582 36.357516 
L 132.297856 36.195895 
L 132.962406 38.736247 
L 133.29468 33.580129 
L 133.95923 60.288238 
L 134.291505 61.010606 
L 134.623779 55.534177 
L 134.956054 52.606373 
L 135.288329 51.374391 
L 135.620603 48.14604 
L 135.952878 47.586284 
L 136.285153 47.864876 
L 136.617428 47.375137 
L 136.949702 46.075296 
L 137.281977 43.354636 
L 137.614252 44.557532 
L 137.946526 43.034438 
L 138.278801 44.394963 
L 138.611076 43.896581 
L 138.943351 42.46821 
L 139.275625 44.449872 
L 139.6079 40.805337 
L 139.940175 42.66281 
L 140.272449 40.994978 
L 140.604724 41.553929 
L 141.269274 40.681598 
L 141.601548 39.625696 
L 141.933823 37.500152 
L 142.266098 37.52855 
L 142.598372 36.118627 
L 142.930647 35.484869 
L 143.262922 35.31841 
L 143.595197 34.801274 
L 143.927471 36.726517 
L 144.259746 34.56128 
L 144.592021 41.104336 
L 144.924295 43.433935 
L 145.25657 46.895729 
L 145.588845 56.283566 
L 145.921119 82.001551 
L 146.253394 53.007326 
L 146.585669 47.865386 
L 147.250218 42.210485 
L 147.582493 47.543235 
L 147.914768 50.152036 
L 148.247042 62.535011 
L 148.579317 55.642111 
L 148.911592 46.432299 
L 149.243867 45.666526 
L 149.576141 45.460081 
L 150.240691 42.816499 
L 150.90524 42.441747 
L 151.237515 38.405449 
L 151.56979 40.657117 
L 152.234339 36.7695 
L 152.566614 36.341451 
L 153.563438 31.780547 
L 153.895713 32.613407 
L 155.224811 27.847349 
L 155.557086 28.700939 
L 156.886185 39.500088 
L 157.21846 41.526509 
L 157.550734 41.468675 
L 157.883009 43.425581 
L 158.215284 43.847164 
L 158.547559 45.138966 
L 158.879833 45.461532 
L 159.212108 45.351233 
L 159.544383 46.281417 
L 159.876657 50.489146 
L 160.208932 48.899135 
L 160.541207 48.542353 
L 160.873482 54.946716 
L 161.205756 49.219676 
L 161.870306 59.68369 
L 162.20258 77.257242 
L 162.534855 86.959511 
L 162.86713 56.116919 
L 163.199405 60.356922 
L 163.531679 83.642586 
L 163.863954 65.806412 
L 164.196229 62.145426 
L 164.528503 48.711242 
L 164.860778 42.541187 
L 165.193053 39.939183 
L 165.525328 36.386926 
L 165.857602 35.820826 
L 166.189877 33.453369 
L 166.522152 33.316857 
L 166.854426 31.807961 
L 167.186701 31.49325 
L 167.85125 28.772218 
L 168.183525 28.101767 
L 168.5158 28.613773 
L 168.848075 27.867788 
L 169.180349 28.274413 
L 169.844899 31.619199 
L 170.177173 34.041155 
L 170.509448 37.461818 
L 170.841723 39.00711 
L 171.173998 44.209978 
L 171.506272 54.227264 
L 172.170822 59.662352 
L 172.503096 58.790624 
L 172.835371 55.372188 
L 173.167646 46.548997 
L 173.499921 45.936861 
L 174.16447 42.321347 
L 174.496745 41.308526 
L 174.829019 43.544674 
L 175.161294 43.344035 
L 175.493569 47.066505 
L 175.825844 52.167756 
L 176.158118 80.945845 
L 176.490393 56.834652 
L 176.822668 51.892477 
L 177.154942 48.9022 
L 177.487217 59.361488 
L 177.819492 51.556742 
L 178.151767 53.240589 
L 178.484041 51.644121 
L 178.816316 55.90572 
L 179.148591 57.401576 
L 179.480865 52.82905 
L 179.81314 52.518583 
L 180.145415 44.040906 
L 180.47769 50.804336 
L 180.809964 48.8996 
L 181.142239 45.599843 
L 181.474514 46.406641 
L 181.806788 43.692799 
L 182.139063 45.099117 
L 182.471338 41.938171 
L 182.803613 40.485061 
L 183.135887 41.075064 
L 183.468162 42.382107 
L 184.132711 36.087233 
L 184.464986 36.988531 
L 184.797261 35.696007 
L 185.46181 37.512145 
L 185.794085 36.955633 
L 186.12636 46.850796 
L 186.458634 51.201757 
L 186.790909 79.659904 
L 186.790909 79.659904 
" clip-path="url(#p8cdf9ea597)" style="fill: none; stroke: #808080; stroke-opacity: 0.5; stroke-width: 1.5; stroke-linecap: square"/>
   </g>
   <g id="line2d_13">
    <path d="M 34.609091 55.698621 
L 34.941366 65.015291 
L 35.27364 66.971392 
L 35.605915 83.417901 
L 36.270464 58.99566 
L 36.602739 58.43973 
L 36.935014 55.52591 
L 37.267289 53.601989 
L 37.931838 70.561382 
L 38.264113 54.966086 
L 38.596387 57.829157 
L 38.928662 58.964421 
L 39.260937 71.563267 
L 39.593212 52.300214 
L 39.925486 49.180363 
L 40.257761 51.237741 
L 40.590036 52.121472 
L 40.92231 78.517508 
L 41.254585 47.200644 
L 41.58686 50.120837 
L 41.919135 42.838451 
L 42.251409 47.482634 
L 42.583684 48.799185 
L 42.915959 45.725113 
L 43.248233 64.719404 
L 43.580508 54.442126 
L 43.912783 69.680053 
L 44.245058 47.72751 
L 44.577332 47.099652 
L 44.909607 49.577826 
L 45.241882 48.162187 
L 45.574156 52.888237 
L 45.906431 52.421039 
L 46.238706 67.863043 
L 46.570981 90.945431 
L 46.903255 73.823209 
L 47.23553 65.141151 
L 47.567805 65.926014 
L 47.900079 86.105867 
L 48.232354 61.515977 
L 48.564629 65.526182 
L 48.896904 84.198109 
L 49.229178 66.564173 
L 50.226002 50.421991 
L 50.558277 49.268447 
L 50.890552 46.297804 
L 51.222827 45.489564 
L 51.887376 41.308405 
L 52.219651 39.905352 
L 52.8842 34.499426 
L 53.216475 33.845453 
L 53.54875 34.448723 
L 53.881024 39.188406 
L 54.213299 50.74593 
L 54.545574 42.041182 
L 54.877848 46.162252 
L 55.210123 48.280602 
L 55.874672 39.149664 
L 56.206947 38.005818 
L 56.539222 38.047705 
L 56.871497 40.4906 
L 57.203771 40.091882 
L 57.536046 38.928283 
L 58.200595 42.230837 
L 58.53287 72.187032 
L 58.865145 46.346141 
L 59.19742 49.506864 
L 59.529694 50.382045 
L 59.861969 51.725035 
L 60.526518 36.295402 
L 60.858793 34.907327 
L 61.855617 35.566088 
L 62.187892 37.338008 
L 62.520167 37.248488 
L 62.852441 39.081903 
L 63.184716 41.60934 
L 63.516991 42.533663 
L 63.849266 47.027185 
L 64.18154 55.167665 
L 64.513815 57.504281 
L 65.178364 70.006741 
L 65.842914 56.540618 
L 66.175189 56.908897 
L 66.839738 51.641587 
L 67.172013 45.284088 
L 67.504287 45.595281 
L 67.836562 45.630357 
L 68.168837 44.105592 
L 68.501112 47.615524 
L 68.833386 55.392599 
L 69.165661 57.627433 
L 69.497936 55.634197 
L 69.83021 55.719419 
L 70.162485 53.671108 
L 70.49476 58.081716 
L 70.827035 52.459127 
L 71.159309 55.774382 
L 71.491584 55.645594 
L 71.823859 60.890764 
L 72.156133 51.39109 
L 72.488408 47.838783 
L 72.820683 47.360619 
L 73.485232 42.323046 
L 73.817507 39.82065 
L 74.149782 40.739931 
L 74.482056 38.74112 
L 74.814331 40.609702 
L 75.146606 41.018445 
L 75.478881 44.621421 
L 75.811155 51.484049 
L 76.14343 62.593333 
L 76.807979 45.744034 
L 77.140254 41.349814 
L 77.472529 40.746859 
L 78.137078 36.93929 
L 78.469353 37.29409 
L 78.801628 39.444335 
L 79.133902 43.262347 
L 79.466177 43.868919 
L 80.130726 34.76224 
L 80.463001 32.695677 
L 81.127551 27.158366 
L 81.459825 26.512762 
L 81.7921 26.702475 
L 82.456649 28.580543 
L 82.788924 31.218118 
L 84.118023 37.940666 
L 84.450298 38.069292 
L 84.782572 41.07045 
L 85.114847 40.626376 
L 85.447122 40.497657 
L 85.779397 42.182784 
L 86.111671 42.05572 
L 86.776221 45.85227 
L 87.108495 40.611314 
L 87.44077 40.228995 
L 87.773045 40.037616 
L 88.10532 36.567834 
L 88.437594 35.508135 
L 88.769869 33.628453 
L 89.102144 32.749418 
L 89.434418 28.657494 
L 90.098968 36.031422 
L 90.431243 37.02647 
L 91.428067 41.965112 
L 91.760341 45.099059 
L 92.092616 44.925444 
L 92.424891 48.177975 
L 92.757166 45.967086 
L 93.08944 45.631762 
L 93.421715 47.954531 
L 93.75399 45.320542 
L 94.086264 45.615617 
L 94.750814 40.138762 
L 95.083089 46.428255 
L 95.415363 45.35711 
L 95.747638 43.596156 
L 96.079913 44.02932 
L 96.412187 43.139949 
L 96.744462 42.912791 
L 97.076737 43.017217 
L 97.409012 44.712259 
L 97.741286 44.917288 
L 98.073561 41.442798 
L 98.405836 40.405449 
L 99.070385 36.272916 
L 99.734934 34.313252 
L 100.067209 36.001447 
L 100.399484 33.41486 
L 100.731759 38.583718 
L 101.396308 38.401013 
L 102.060857 36.851738 
L 102.393132 39.524996 
L 102.725407 39.228143 
L 103.057682 39.809639 
L 103.389956 37.915884 
L 103.722231 38.844248 
L 104.054506 39.352698 
L 104.719055 42.648917 
L 105.05133 43.003511 
L 105.715879 53.693546 
L 106.048154 64.484597 
L 106.712703 48.916411 
L 107.044978 45.189151 
L 107.377253 47.203185 
L 108.041802 42.891617 
L 108.374077 43.125249 
L 108.706352 49.892431 
L 109.038626 51.653799 
L 109.370901 42.503906 
L 109.703176 41.132093 
L 110.035451 37.23101 
L 110.367725 35.678411 
L 110.7 35.296922 
L 111.032275 35.374281 
L 111.364549 32.168146 
L 111.696824 35.444943 
L 112.029099 41.685047 
L 112.361374 43.659107 
L 113.358198 52.858151 
L 113.690472 54.63901 
L 114.022747 52.715763 
L 114.355022 52.788831 
L 114.687297 53.210438 
L 115.019571 50.830462 
L 115.351846 49.492258 
L 115.684121 53.321766 
L 116.016395 54.165245 
L 116.34867 54.219326 
L 116.680945 52.583526 
L 117.01322 64.165027 
L 117.345494 49.929798 
L 117.677769 50.438119 
L 118.010044 54.350597 
L 118.342318 51.946389 
L 118.674593 61.032636 
L 119.006868 46.139049 
L 119.339143 45.824894 
L 119.671417 47.362075 
L 120.003692 46.315425 
L 120.335967 44.827538 
L 120.668241 41.653876 
L 121.000516 42.345495 
L 121.332791 40.792527 
L 121.665066 41.443827 
L 121.99734 44.508315 
L 122.329615 38.040696 
L 122.66189 48.070724 
L 122.994164 43.870308 
L 123.326439 48.982559 
L 123.658714 47.221622 
L 123.990988 47.74097 
L 124.323263 44.427858 
L 124.655538 53.686728 
L 124.987813 44.028339 
L 125.320087 42.876341 
L 125.652362 40.091623 
L 125.984637 42.411709 
L 126.316911 43.003831 
L 127.313736 55.9803 
L 127.978285 42.557522 
L 128.642834 40.533391 
L 128.975109 38.866306 
L 129.307384 38.847138 
L 129.971933 37.66595 
L 130.304208 37.558007 
L 130.968757 39.20331 
L 131.633307 39.97039 
L 131.965582 41.574736 
L 132.297856 45.414357 
L 132.630131 46.67323 
L 132.962406 53.639799 
L 133.29468 44.634718 
L 133.626955 47.875776 
L 133.95923 58.283769 
L 134.623779 54.144472 
L 134.956054 52.349241 
L 135.288329 49.328487 
L 135.620603 51.247757 
L 135.952878 48.628325 
L 136.285153 52.08499 
L 136.617428 48.500598 
L 136.949702 46.744956 
L 137.281977 43.224246 
L 137.614252 41.907095 
L 138.278801 41.105155 
L 138.611076 39.318473 
L 138.943351 39.648532 
L 139.275625 39.608644 
L 139.6079 37.35274 
L 139.940175 38.357644 
L 140.272449 36.642661 
L 140.604724 36.524557 
L 140.936999 36.02255 
L 141.269274 35.033289 
L 141.933823 34.09691 
L 142.266098 35.165245 
L 142.598372 35.657249 
L 142.930647 37.602738 
L 143.262922 46.705517 
L 143.927471 37.914685 
L 144.259746 35.408622 
L 144.592021 44.567713 
L 145.25657 42.061858 
L 145.588845 48.370067 
L 145.921119 59.813389 
L 146.253394 45.248511 
L 146.585669 41.884096 
L 146.917944 41.300467 
L 147.250218 39.455455 
L 147.582493 42.55605 
L 147.914768 44.480009 
L 148.247042 53.125204 
L 148.579317 49.72673 
L 148.911592 49.746489 
L 149.243867 55.677269 
L 149.576141 56.215343 
L 149.908416 52.727625 
L 150.240691 42.897891 
L 150.572965 41.555664 
L 151.237515 35.945262 
L 151.56979 36.212808 
L 151.902064 33.929513 
L 152.234339 33.429724 
L 153.563438 29.663835 
L 153.895713 29.987375 
L 154.227987 29.366989 
L 154.560262 29.111354 
L 154.892537 30.262392 
L 155.224811 30.253457 
L 155.557086 30.800019 
L 155.889361 35.445146 
L 156.55391 47.453841 
L 156.886185 44.953056 
L 157.21846 45.723003 
L 157.550734 49.377709 
L 157.883009 49.264333 
L 158.215284 47.825948 
L 158.547559 57.935346 
L 158.879833 46.820851 
L 159.212108 48.299333 
L 159.544383 46.36272 
L 159.876657 47.311546 
L 160.208932 47.031036 
L 160.541207 45.425755 
L 160.873482 47.729612 
L 161.205756 47.631316 
L 161.538031 50.027411 
L 161.870306 50.574399 
L 162.20258 60.491134 
L 162.534855 66.547812 
L 162.86713 52.37407 
L 163.199405 54.44911 
L 163.531679 64.597969 
L 163.863954 55.825166 
L 164.196229 52.91992 
L 164.528503 44.834543 
L 164.860778 40.507108 
L 165.193053 39.828157 
L 165.857602 36.732468 
L 166.189877 34.537305 
L 166.522152 36.424535 
L 166.854426 36.910421 
L 167.186701 35.698702 
L 167.518976 36.471607 
L 167.85125 41.716406 
L 168.5158 42.203962 
L 168.848075 36.825878 
L 169.180349 34.695926 
L 169.512624 34.835283 
L 169.844899 35.981032 
L 170.177173 35.22761 
L 170.509448 41.288542 
L 170.841723 42.98764 
L 171.173998 55.821696 
L 171.506272 58.977187 
L 171.838547 54.370904 
L 172.170822 52.906241 
L 172.503096 49.894358 
L 172.835371 48.074665 
L 173.167646 42.728802 
L 173.832195 40.264398 
L 174.16447 39.087634 
L 174.496745 39.570637 
L 174.829019 41.224847 
L 175.161294 41.523948 
L 175.825844 45.863619 
L 176.158118 61.312313 
L 176.490393 50.144368 
L 177.154942 46.004336 
L 177.487217 52.26479 
L 177.819492 47.59413 
L 178.151767 46.536729 
L 178.484041 48.421595 
L 178.816316 52.740778 
L 179.148591 54.327515 
L 179.480865 57.609877 
L 179.81314 58.512664 
L 180.145415 55.31377 
L 180.47769 66.877467 
L 180.809964 56.147517 
L 181.142239 52.695515 
L 181.474514 53.532694 
L 181.806788 50.711209 
L 182.139063 46.105267 
L 182.471338 43.224966 
L 183.135887 40.911847 
L 183.468162 40.458874 
L 184.132711 34.040791 
L 184.464986 35.091933 
L 184.797261 34.011322 
L 185.129536 34.411984 
L 185.46181 35.004645 
L 185.794085 34.804217 
L 186.12636 39.444462 
L 186.458634 42.407747 
L 186.790909 59.007444 
L 186.790909 59.007444 
" clip-path="url(#p8cdf9ea597)" style="fill: none; stroke: #000000; stroke-width: 1.5; stroke-linecap: square"/>
   </g>
   <g id="line2d_14">
    <path d="M 34.609091 60.91644 
L 84.118023 37.742028 
L 84.118023 37.742028 
" clip-path="url(#p8cdf9ea597)" style="fill: none; stroke: #ffff00; stroke-width: 1.5; stroke-linecap: square"/>
   </g>
   <g id="line2d_15">
    <path d="M 34.609091 55.698621 
L 186.790909 55.698621 
L 186.790909 55.698621 
" clip-path="url(#p8cdf9ea597)" style="fill: none; stroke-dasharray: 5.55,2.4; stroke-dashoffset: 0; stroke: #7f7f7f; stroke-width: 1.5"/>
   </g>
   <g id="patch_3">
    <path d="M 27 128.16 
L 27 17.28 
" style="fill: none; stroke: #000000; stroke-width: 0.8; stroke-linejoin: miter; stroke-linecap: square"/>
   </g>
   <g id="patch_4">
    <path d="M 194.4 128.16 
L 194.4 17.28 
" style="fill: none; stroke: #000000; stroke-width: 0.8; stroke-linejoin: miter; stroke-linecap: square"/>
   </g>
   <g id="patch_5">
    <path d="M 27 128.16 
L 194.4 128.16 
" style="fill: none; stroke: #000000; stroke-width: 0.8; stroke-linejoin: miter; stroke-linecap: square"/>
   </g>
   <g id="patch_6">
    <path d="M 27 17.28 
L 194.4 17.28 
" style="fill: none; stroke: #000000; stroke-width: 0.8; stroke-linejoin: miter; stroke-linecap: square"/>
   </g>
  </g>
 </g>
 <defs>
  <clipPath id="p8cdf9ea597">
   <rect x="27" y="17.28" width="167.4" height="110.88"/>
  </clipPath>
 </defs>
</svg>
