<?xml version="1.0" encoding="utf-8" standalone="no"?>
<!DOCTYPE svg PUBLIC "-//W3C//DTD SVG 1.1//EN"
  "http://www.w3.org/Graphics/SVG/1.1/DTD/svg11.dtd">
<svg xmlns:xlink="http://www.w3.org/1999/xlink" width="216pt" height="144pt" viewBox="0 0 216 144" xmlns="http://www.w3.org/2000/svg" version="1.1">
 <metadata>
  <rdf:RDF xmlns:dc="http://purl.org/dc/elements/1.1/" xmlns:cc="http://creativecommons.org/ns#" xmlns:rdf="http://www.w3.org/1999/02/22-rdf-syntax-ns#">
   <cc:Work>
    <dc:type rdf:resource="http://purl.org/dc/dcmitype/StillImage"/>
    <dc:date>2024-07-09T19:56:33.802696</dc:date>
    <dc:format>image/svg+xml</dc:format>
    <dc:creator>
     <cc:Agent>
      <dc:title>Matplotlib v3.8.3, https://matplotlib.org/</dc:title>
     </cc:Agent>
    </dc:creator>
   </cc:Work>
  </rdf:RDF>
 </metadata>
 <defs>
  <style type="text/css">*{stroke-linejoin: round; stroke-linecap: butt}</style>
 </defs>
 <g id="figure_1">
  <g id="patch_1">
   <path d="M 0 144 
L 216 144 
L 216 0 
L 0 0 
z
" style="fill: #ffffff"/>
  </g>
  <g id="axes_1">
   <g id="patch_2">
    <path d="M 27 128.16 
L 194.4 128.16 
L 194.4 17.28 
L 27 17.28 
z
" style="fill: #f2f2f2"/>
   </g>
   <g id="PolyCollection_1">
    <path d="M 34.996322 104.702065 
L 34.996322 115.204417 
L 35.383553 113.540022 
L 35.770784 111.871412 
L 36.158015 108.311206 
L 36.545246 105.91398 
L 36.932477 102.457999 
L 37.319709 100.451129 
L 37.70694 98.024866 
L 38.094171 96.555744 
L 38.481402 93.337968 
L 38.868633 92.200189 
L 39.255864 88.384066 
L 39.643095 88.053103 
L 40.030326 87.723909 
L 40.417557 85.288378 
L 40.804788 84.562823 
L 41.192019 82.472947 
L 41.579251 80.484347 
L 41.966482 81.818272 
L 42.353713 79.393573 
L 42.740944 79.870762 
L 43.128175 78.43854 
L 43.515406 81.296579 
L 43.902637 78.638758 
L 44.289868 80.916013 
L 44.677099 79.900301 
L 45.06433 81.996419 
L 45.451561 80.701721 
L 45.838793 80.728218 
L 46.226024 81.025493 
L 46.613255 79.925991 
L 47.000486 79.538269 
L 47.387717 90.705 
L 47.774948 101.863719 
L 48.162179 108.986598 
L 48.54941 114.06446 
L 48.936641 116.293303 
L 49.323872 117.251854 
L 49.711103 118.136327 
L 50.098334 118.720584 
L 50.485566 118.726435 
L 50.872797 118.662992 
L 51.260028 118.93535 
L 51.647259 118.680709 
L 52.03449 118.619364 
L 52.421721 118.796051 
L 52.808952 118.649142 
L 53.196183 118.370824 
L 53.583414 118.488356 
L 53.970645 118.225378 
L 54.357876 118.163456 
L 54.745108 117.499588 
L 55.132339 116.926574 
L 55.51957 117.017054 
L 55.906801 115.944807 
L 56.294032 115.515388 
L 56.681263 115.245638 
L 57.068494 114.021709 
L 57.455725 112.899572 
L 57.842956 112.544254 
L 58.230187 110.859121 
L 58.617418 110.142787 
L 59.00465 109.807346 
L 59.391881 108.413161 
L 59.779112 105.238092 
L 60.166343 105.203658 
L 60.553574 103.142091 
L 60.940805 100.128581 
L 61.328036 99.182457 
L 61.715267 96.24398 
L 62.102498 94.743441 
L 62.489729 93.598405 
L 62.87696 89.907114 
L 63.264192 89.777194 
L 63.651423 88.038298 
L 64.038654 86.21043 
L 64.425885 87.709447 
L 64.813116 87.037199 
L 65.200347 86.60602 
L 65.587578 87.872363 
L 65.974809 88.779017 
L 66.36204 88.621645 
L 66.749271 90.36491 
L 67.136502 90.990209 
L 67.523734 92.134297 
L 67.910965 94.812152 
L 68.298196 94.934534 
L 68.685427 95.963882 
L 69.072658 98.963166 
L 69.459889 98.616898 
L 69.84712 100.484827 
L 70.234351 101.107717 
L 70.621582 102.0698 
L 71.008813 103.023216 
L 71.396044 104.340582 
L 71.783276 104.679529 
L 72.170507 104.873751 
L 72.557738 99.27933 
L 72.944969 103.958798 
L 73.3322 112.023602 
L 73.719431 115.86549 
L 74.106662 118.153788 
L 74.493893 118.38675 
L 74.881124 118.782938 
L 75.268355 119.518423 
L 75.655586 119.434255 
L 76.042817 119.481658 
L 76.430049 119.363384 
L 76.81728 119.448397 
L 77.204511 119.306437 
L 77.591742 119.52725 
L 77.978973 119.057932 
L 78.366204 119.137956 
L 78.753435 119.209537 
L 79.140666 118.273249 
L 79.527897 118.673815 
L 79.915128 118.401265 
L 80.302359 117.584318 
L 80.689591 117.615034 
L 81.076822 117.297038 
L 81.464053 117.129239 
L 81.851284 116.293171 
L 82.238515 115.833915 
L 82.625746 115.41613 
L 83.012977 114.106375 
L 83.400208 113.871212 
L 83.787439 113.207736 
L 84.17467 112.262054 
L 84.561901 112.506732 
L 84.949133 111.958961 
L 85.336364 108.729746 
L 85.723595 108.968692 
L 86.110826 106.474839 
L 86.498057 105.259538 
L 86.885288 102.236006 
L 87.272519 100.52894 
L 87.65975 98.873463 
L 88.046981 96.213216 
L 88.434212 95.656579 
L 88.821443 93.685546 
L 89.208675 92.765513 
L 89.595906 93.556527 
L 89.983137 92.070014 
L 90.370368 94.369073 
L 90.757599 95.573541 
L 91.14483 97.659939 
L 91.532061 99.825622 
L 91.919292 99.886817 
L 92.306523 101.933521 
L 92.693754 103.460393 
L 93.080985 104.258725 
L 93.468217 103.833243 
L 93.855448 106.589651 
L 94.242679 106.855137 
L 94.62991 108.061264 
L 95.017141 108.294341 
L 95.404372 108.240333 
L 95.791603 108.925106 
L 96.178834 109.476626 
L 96.566065 109.895925 
L 96.953296 110.754522 
L 97.340527 111.390207 
L 97.727759 111.368824 
L 98.11499 106.298328 
L 98.502221 110.270225 
L 98.889452 113.749546 
L 99.276683 115.472879 
L 99.663914 117.540201 
L 100.051145 118.018073 
L 100.438376 118.965836 
L 100.825607 121.104518 
L 101.212838 119.73336 
L 101.600069 120.104897 
L 101.9873 120.345627 
L 102.374532 120.631711 
L 102.761763 120.503567 
L 103.148994 121.105278 
L 103.536225 121.115371 
L 103.923456 120.999016 
L 104.310687 121.026415 
L 104.697918 120.897079 
L 105.085149 120.488706 
L 105.47238 120.283932 
L 105.859611 119.714403 
L 106.246842 119.60073 
L 106.634074 118.91831 
L 107.021305 117.612515 
L 107.408536 116.613335 
L 107.795767 116.029179 
L 108.182998 115.104074 
L 108.570229 114.072408 
L 108.95746 113.577633 
L 109.344691 112.742359 
L 109.731922 112.445905 
L 110.119153 112.233494 
L 110.506384 111.774373 
L 110.893616 106.160328 
L 111.280847 108.239983 
L 111.668078 105.864976 
L 112.055309 104.363074 
L 112.44254 102.396461 
L 112.829771 99.263734 
L 113.217002 97.210231 
L 113.604233 95.297024 
L 113.991464 92.926273 
L 114.378695 92.963346 
L 114.765926 92.013334 
L 115.153158 90.478363 
L 115.540389 91.41625 
L 115.92762 93.54703 
L 116.314851 93.580755 
L 116.702082 95.288437 
L 117.089313 96.275236 
L 117.476544 98.503889 
L 117.863775 101.371776 
L 118.251006 101.910294 
L 118.638237 103.113593 
L 119.025468 104.771773 
L 119.4127 105.384557 
L 119.799931 106.255823 
L 120.187162 107.757356 
L 120.574393 108.274994 
L 120.961624 108.520948 
L 121.348855 110.995681 
L 121.736086 111.890306 
L 122.123317 112.31445 
L 122.510548 112.29293 
L 122.897779 112.448429 
L 123.28501 111.879628 
L 123.672241 111.520911 
L 124.059473 111.90804 
L 124.446704 114.322382 
L 124.833935 116.05541 
L 125.221166 117.102894 
L 125.608397 117.506011 
L 125.995628 117.815313 
L 126.382859 117.941261 
L 126.77009 118.337286 
L 127.157321 118.635815 
L 127.544552 118.363196 
L 127.931783 118.811146 
L 128.319015 118.2619 
L 128.706246 117.929785 
L 129.093477 118.216873 
L 129.480708 118.462424 
L 129.867939 117.737081 
L 130.25517 117.826831 
L 130.642401 117.715707 
L 131.029632 117.311287 
L 131.416863 116.398303 
L 131.804094 116.584816 
L 132.191325 116.087623 
L 132.578557 115.196107 
L 132.965788 115.421914 
L 133.353019 114.707217 
L 133.74025 114.498442 
L 134.127481 114.024115 
L 134.514712 113.499045 
L 134.901943 112.317426 
L 135.289174 112.778385 
L 135.676405 112.228985 
L 136.063636 112.726136 
L 136.450867 107.34024 
L 136.838099 107.637521 
L 137.22533 107.074334 
L 137.612561 105.464252 
L 137.999792 102.307901 
L 138.387023 101.555923 
L 138.774254 99.419891 
L 139.161485 97.651882 
L 139.548716 98.101055 
L 139.935947 95.490601 
L 140.323178 95.723137 
L 140.710409 94.066528 
L 141.097641 94.003458 
L 141.484872 95.056989 
L 141.872103 96.164344 
L 142.259334 96.74375 
L 142.646565 98.763758 
L 143.033796 99.563308 
L 143.421027 101.055105 
L 143.808258 102.700281 
L 144.195489 103.38096 
L 144.58272 105.485313 
L 144.969951 105.820676 
L 145.357183 106.645065 
L 145.744414 107.173276 
L 146.131645 108.225429 
L 146.518876 109.847404 
L 146.906107 110.400313 
L 147.293338 110.553556 
L 147.680569 111.313461 
L 148.0678 111.065785 
L 148.455031 111.363932 
L 148.842262 111.680398 
L 149.229493 110.79831 
L 149.616724 113.584119 
L 150.003956 114.809695 
L 150.391187 115.718383 
L 150.778418 116.541345 
L 151.165649 117.211513 
L 151.55288 117.281727 
L 151.940111 117.631746 
L 152.327342 117.23941 
L 152.714573 117.664221 
L 153.101804 117.567577 
L 153.489035 117.443017 
L 153.876266 117.359413 
L 154.263498 117.155661 
L 154.650729 117.093471 
L 155.03796 116.929116 
L 155.425191 116.605523 
L 155.812422 116.816886 
L 156.199653 115.839177 
L 156.586884 115.973224 
L 156.974115 115.465355 
L 157.361346 114.836187 
L 157.748577 114.494353 
L 158.135808 114.123746 
L 158.52304 113.038139 
L 158.910271 112.508739 
L 159.297502 112.782684 
L 159.684733 111.719926 
L 160.071964 110.219325 
L 160.459195 109.435647 
L 160.846426 108.62456 
L 161.233657 108.451038 
L 161.620888 111.232701 
L 162.008119 104.519278 
L 162.39535 104.978869 
L 162.782582 103.280199 
L 163.169813 101.017156 
L 163.557044 99.366389 
L 163.944275 98.063588 
L 164.331506 95.576049 
L 164.718737 95.21312 
L 165.105968 93.714896 
L 165.493199 92.799485 
L 165.88043 93.112431 
L 166.267661 91.852052 
L 166.654892 92.253024 
L 167.042124 93.502566 
L 167.429355 93.279996 
L 167.816586 93.421203 
L 168.203817 96.410932 
L 168.591048 98.068561 
L 168.978279 98.162078 
L 169.36551 99.831221 
L 169.752741 102.31384 
L 170.139972 103.267988 
L 170.527203 104.08439 
L 170.914434 106.21993 
L 171.301666 107.257212 
L 171.688897 107.744841 
L 172.076128 108.785742 
L 172.463359 109.364989 
L 172.85059 109.808469 
L 173.237821 110.233758 
L 173.625052 110.330319 
L 174.012283 110.55421 
L 174.399514 110.468468 
L 174.786745 107.97456 
L 175.173976 110.014201 
L 175.561207 111.698982 
L 175.948439 112.97143 
L 176.33567 114.827857 
L 176.722901 116.113037 
L 177.110132 115.301507 
L 177.497363 115.965543 
L 177.884594 116.20352 
L 178.271825 115.946222 
L 178.659056 116.356649 
L 179.046287 116.350893 
L 179.433518 116.27849 
L 179.820749 116.352348 
L 180.207981 116.225442 
L 180.595212 115.833599 
L 180.982443 117.618542 
L 181.369674 115.506183 
L 181.756905 115.280333 
L 182.144136 114.991794 
L 182.531367 114.639877 
L 182.918598 114.664708 
L 183.305829 114.743174 
L 183.69306 113.854136 
L 184.080291 113.965782 
L 184.467523 113.5901 
L 184.854754 113.21137 
L 185.241985 111.563363 
L 185.629216 111.338714 
L 186.016447 110.900034 
L 186.403678 110.889748 
L 186.790909 111.114647 
L 186.790909 87.108243 
L 186.790909 87.108243 
L 186.403678 87.284856 
L 186.016447 88.84437 
L 185.629216 91.960917 
L 185.241985 92.480215 
L 184.854754 95.560714 
L 184.467523 97.308356 
L 184.080291 98.61503 
L 183.69306 99.658706 
L 183.305829 102.35869 
L 182.918598 102.811098 
L 182.531367 102.675156 
L 182.144136 103.688876 
L 181.756905 104.730017 
L 181.369674 105.617628 
L 180.982443 101.190926 
L 180.595212 106.326539 
L 180.207981 107.136343 
L 179.820749 107.689626 
L 179.433518 107.595122 
L 179.046287 107.839976 
L 178.659056 107.884599 
L 178.271825 107.301191 
L 177.884594 107.214481 
L 177.497363 107.264583 
L 177.110132 105.537556 
L 176.722901 102.820048 
L 176.33567 102.571857 
L 175.948439 99.741585 
L 175.561207 95.663864 
L 175.173976 89.280455 
L 174.786745 82.320736 
L 174.399514 89.569033 
L 174.012283 88.360685 
L 173.625052 87.138616 
L 173.237821 86.281849 
L 172.85059 85.70468 
L 172.463359 83.712378 
L 172.076128 82.881643 
L 171.688897 79.767722 
L 171.301666 80.78113 
L 170.914434 78.275995 
L 170.527203 74.899937 
L 170.139972 74.187357 
L 169.752741 73.485382 
L 169.36551 68.761389 
L 168.978279 66.747909 
L 168.591048 67.649304 
L 168.203817 63.40332 
L 167.816586 59.571009 
L 167.429355 60.601795 
L 167.042124 62.595656 
L 166.654892 59.876717 
L 166.267661 58.85048 
L 165.88043 62.050718 
L 165.493199 61.509879 
L 165.105968 62.607668 
L 164.718737 66.586292 
L 164.331506 67.30769 
L 163.944275 70.148059 
L 163.557044 73.37429 
L 163.169813 76.860888 
L 162.782582 80.795431 
L 162.39535 81.102818 
L 162.008119 74.491217 
L 161.620888 81.561854 
L 161.233657 88.689078 
L 160.846426 92.081605 
L 160.459195 94.113905 
L 160.071964 93.895672 
L 159.684733 93.01822 
L 159.297502 95.849292 
L 158.910271 100.687701 
L 158.52304 102.023323 
L 158.135808 104.222556 
L 157.748577 105.00103 
L 157.361346 105.906863 
L 156.974115 107.189547 
L 156.586884 108.474778 
L 156.199653 108.867462 
L 155.812422 110.095826 
L 155.425191 109.904002 
L 155.03796 110.873894 
L 154.650729 111.034332 
L 154.263498 110.850647 
L 153.876266 111.286707 
L 153.489035 111.435222 
L 153.101804 111.050599 
L 152.714573 111.054365 
L 152.327342 110.444825 
L 151.940111 110.074446 
L 151.55288 107.883568 
L 151.165649 106.787067 
L 150.778418 105.4554 
L 150.391187 100.734603 
L 150.003956 94.234191 
L 149.616724 82.690403 
L 149.229493 78.368115 
L 148.842262 83.117348 
L 148.455031 83.715642 
L 148.0678 82.692024 
L 147.680569 82.32284 
L 147.293338 80.616983 
L 146.906107 81.854031 
L 146.518876 81.614259 
L 146.131645 79.386004 
L 145.744414 78.32741 
L 145.357183 77.544343 
L 144.969951 74.275108 
L 144.58272 74.350331 
L 144.195489 71.324964 
L 143.808258 72.735155 
L 143.421027 69.812323 
L 143.033796 69.06605 
L 142.646565 69.025293 
L 142.259334 65.784186 
L 141.872103 65.196571 
L 141.484872 65.910409 
L 141.097641 64.749478 
L 140.710409 63.555692 
L 140.323178 67.095013 
L 139.935947 66.874985 
L 139.548716 69.95616 
L 139.161485 70.134023 
L 138.774254 74.444339 
L 138.387023 78.438651 
L 137.999792 79.427539 
L 137.612561 85.136499 
L 137.22533 87.326681 
L 136.838099 87.6454 
L 136.450867 85.947482 
L 136.063636 97.37306 
L 135.676405 96.072651 
L 135.289174 97.660245 
L 134.901943 97.479084 
L 134.514712 99.155974 
L 134.127481 101.517102 
L 133.74025 102.702086 
L 133.353019 103.970517 
L 132.965788 106.158872 
L 132.578557 105.980166 
L 132.191325 107.872529 
L 131.804094 109.407929 
L 131.416863 109.360923 
L 131.029632 110.835816 
L 130.642401 111.398881 
L 130.25517 111.646942 
L 129.867939 111.285751 
L 129.480708 112.541914 
L 129.093477 112.666962 
L 128.706246 111.772472 
L 128.319015 112.017104 
L 127.931783 112.077588 
L 127.544552 111.795047 
L 127.157321 112.174152 
L 126.77009 111.070053 
L 126.382859 109.809381 
L 125.995628 109.180912 
L 125.608397 107.738895 
L 125.221166 102.978317 
L 124.833935 97.053909 
L 124.446704 85.842575 
L 124.059473 74.909523 
L 123.672241 56.749665 
L 123.28501 78.136722 
L 122.897779 78.537622 
L 122.510548 75.38751 
L 122.123317 76.124928 
L 121.736086 75.972188 
L 121.348855 76.010312 
L 120.961624 75.495553 
L 120.574393 75.440788 
L 120.187162 75.056215 
L 119.799931 72.102963 
L 119.4127 72.155071 
L 119.025468 72.01204 
L 118.638237 68.476428 
L 118.251006 67.752631 
L 117.863775 69.391242 
L 117.476544 65.244245 
L 117.089313 63.591107 
L 116.702082 65.031531 
L 116.314851 62.508437 
L 115.92762 64.820446 
L 115.540389 63.013886 
L 115.153158 62.456329 
L 114.765926 64.42723 
L 114.378695 66.914455 
L 113.991464 66.829092 
L 113.604233 70.226187 
L 113.217002 73.643639 
L 112.829771 77.360532 
L 112.44254 80.501169 
L 112.055309 84.414055 
L 111.668078 86.85804 
L 111.280847 89.916282 
L 110.893616 86.867182 
L 110.506384 98.337363 
L 110.119153 99.506541 
L 109.731922 99.549645 
L 109.344691 100.230586 
L 108.95746 102.462348 
L 108.570229 102.590626 
L 108.182998 103.900154 
L 107.795767 104.35355 
L 107.408536 104.580175 
L 107.021305 103.966557 
L 106.634074 104.325192 
L 106.246842 104.018701 
L 105.859611 105.060412 
L 105.47238 105.075695 
L 105.085149 104.982324 
L 104.697918 106.090612 
L 104.310687 105.862231 
L 103.923456 106.362211 
L 103.536225 107.573543 
L 103.148994 107.139277 
L 102.761763 108.156143 
L 102.374532 108.905048 
L 101.9873 109.776689 
L 101.600069 109.512953 
L 101.212838 110.341822 
L 100.825607 105.612378 
L 100.438376 109.706202 
L 100.051145 107.634262 
L 99.663914 104.068931 
L 99.276683 97.782477 
L 98.889452 90.375156 
L 98.502221 77.597233 
L 98.11499 71.568735 
L 97.727759 85.050524 
L 97.340527 82.203114 
L 96.953296 85.151313 
L 96.566065 80.648001 
L 96.178834 83.397402 
L 95.791603 81.976672 
L 95.404372 82.446677 
L 95.017141 82.222498 
L 94.62991 81.791625 
L 94.242679 80.610398 
L 93.855448 81.108454 
L 93.468217 76.494021 
L 93.080985 78.123331 
L 92.693754 76.702821 
L 92.306523 75.570908 
L 91.919292 71.331037 
L 91.532061 73.164558 
L 91.14483 69.208559 
L 90.757599 65.965354 
L 90.370368 65.323424 
L 89.983137 61.281379 
L 89.595906 65.342088 
L 89.208675 65.137851 
L 88.821443 65.960119 
L 88.434212 69.350327 
L 88.046981 69.200542 
L 87.65975 73.173424 
L 87.272519 75.447767 
L 86.885288 78.635789 
L 86.498057 83.153035 
L 86.110826 85.648032 
L 85.723595 89.271499 
L 85.336364 88.625231 
L 84.949133 96.355682 
L 84.561901 96.343451 
L 84.17467 95.288801 
L 83.787439 97.633987 
L 83.400208 99.099111 
L 83.012977 98.064528 
L 82.625746 100.746866 
L 82.238515 102.811771 
L 81.851284 103.058628 
L 81.464053 105.639067 
L 81.076822 106.676461 
L 80.689591 108.3112 
L 80.302359 108.343256 
L 79.915128 109.25045 
L 79.527897 110.172801 
L 79.140666 110.318887 
L 78.753435 110.783842 
L 78.366204 112.284177 
L 77.978973 111.862649 
L 77.591742 112.489299 
L 77.204511 112.506517 
L 76.81728 113.541637 
L 76.430049 112.627466 
L 76.042817 112.76323 
L 75.655586 111.398455 
L 75.268355 110.618794 
L 74.881124 108.06739 
L 74.493893 103.82949 
L 74.106662 99.003565 
L 73.719431 88.783462 
L 73.3322 71.277339 
L 72.944969 51.096992 
L 72.557738 30.74334 
L 72.170507 53.080213 
L 71.783276 43.722442 
L 71.396044 39.803312 
L 71.008813 44.580154 
L 70.621582 40.051634 
L 70.234351 41.779297 
L 69.84712 46.244383 
L 69.459889 43.758264 
L 69.072658 43.982947 
L 68.685427 43.33556 
L 68.298196 43.554654 
L 67.910965 45.016509 
L 67.523734 43.313074 
L 67.136502 42.371778 
L 66.749271 46.429911 
L 66.36204 43.868695 
L 65.974809 43.033201 
L 65.587578 46.621011 
L 65.200347 47.845026 
L 64.813116 47.985008 
L 64.425885 49.462969 
L 64.038654 48.297031 
L 63.651423 51.719029 
L 63.264192 54.40173 
L 62.87696 52.689636 
L 62.489729 61.163939 
L 62.102498 62.042074 
L 61.715267 64.10679 
L 61.328036 71.618932 
L 60.940805 74.577952 
L 60.553574 79.09922 
L 60.166343 83.445041 
L 59.779112 81.769672 
L 59.391881 87.8051 
L 59.00465 89.687843 
L 58.617418 90.680305 
L 58.230187 92.669662 
L 57.842956 96.669834 
L 57.455725 97.773916 
L 57.068494 100.318743 
L 56.681263 103.772524 
L 56.294032 104.762202 
L 55.906801 106.128412 
L 55.51957 108.703122 
L 55.132339 108.930308 
L 54.745108 109.459027 
L 54.357876 110.645497 
L 53.970645 110.952054 
L 53.583414 111.979994 
L 53.196183 112.128662 
L 52.808952 111.811323 
L 52.421721 112.416275 
L 52.03449 111.934402 
L 51.647259 111.09661 
L 51.260028 110.595501 
L 50.872797 109.590716 
L 50.485566 108.229584 
L 50.098334 106.63394 
L 49.711103 104.495258 
L 49.323872 101.124704 
L 48.936641 97.772085 
L 48.54941 91.419973 
L 48.162179 80.106531 
L 47.774948 66.463393 
L 47.387717 46.710927 
L 47.000486 22.224541 
L 46.613255 28.912875 
L 46.226024 31.153215 
L 45.838793 30.501943 
L 45.451561 32.50968 
L 45.06433 34.330391 
L 44.677099 33.28942 
L 44.289868 36.245744 
L 43.902637 32.544507 
L 43.515406 37.749887 
L 43.128175 33.504457 
L 42.740944 38.631845 
L 42.353713 39.024672 
L 41.966482 43.634559 
L 41.579251 42.760184 
L 41.192019 46.652637 
L 40.804788 49.98892 
L 40.417557 50.60592 
L 40.030326 59.318699 
L 39.643095 59.462967 
L 39.255864 60.381898 
L 38.868633 67.571757 
L 38.481402 67.6237 
L 38.094171 74.863041 
L 37.70694 78.003718 
L 37.319709 81.250648 
L 36.932477 85.680144 
L 36.545246 90.17182 
L 36.158015 93.768499 
L 35.770784 99.59646 
L 35.383553 102.258164 
L 34.996322 104.702065 
z
" clip-path="url(#p4d0eb6c8dc)" style="fill: #808080; fill-opacity: 0.5"/>
   </g>
   <g id="matplotlib.axis_1">
    <g id="xtick_1">
     <g id="line2d_1">
      <defs>
       <path id="me4b7615798" d="M 0 0 
L 0 3.5 
" style="stroke: #000000; stroke-width: 0.8"/>
      </defs>
      <g>
       <use xlink:href="#me4b7615798" x="34.996322" y="128.16" style="stroke: #000000; stroke-width: 0.8"/>
      </g>
     </g>
     <g id="text_1">
      <!-- 0 -->
      <g transform="translate(32.215853 142.317813) scale(0.1 -0.1)">
       <defs>
        <path id="ArialMT-30" d="M 266 2259 
Q 266 3072 433 3567 
Q 600 4063 929 4331 
Q 1259 4600 1759 4600 
Q 2128 4600 2406 4451 
Q 2684 4303 2865 4023 
Q 3047 3744 3150 3342 
Q 3253 2941 3253 2259 
Q 3253 1453 3087 958 
Q 2922 463 2592 192 
Q 2263 -78 1759 -78 
Q 1097 -78 719 397 
Q 266 969 266 2259 
z
M 844 2259 
Q 844 1131 1108 757 
Q 1372 384 1759 384 
Q 2147 384 2411 759 
Q 2675 1134 2675 2259 
Q 2675 3391 2411 3762 
Q 2147 4134 1753 4134 
Q 1366 4134 1134 3806 
Q 844 3388 844 2259 
z
" transform="scale(0.015625)"/>
       </defs>
       <use xlink:href="#ArialMT-30"/>
      </g>
     </g>
    </g>
    <g id="xtick_2">
     <g id="line2d_2">
      <g>
       <use xlink:href="#me4b7615798" x="81.464053" y="128.16" style="stroke: #000000; stroke-width: 0.8"/>
      </g>
     </g>
     <g id="text_2">
      <!-- 20 -->
      <g transform="translate(75.903115 142.317813) scale(0.1 -0.1)">
       <defs>
        <path id="ArialMT-32" d="M 3222 541 
L 3222 0 
L 194 0 
Q 188 203 259 391 
Q 375 700 629 1000 
Q 884 1300 1366 1694 
Q 2113 2306 2375 2664 
Q 2638 3022 2638 3341 
Q 2638 3675 2398 3904 
Q 2159 4134 1775 4134 
Q 1369 4134 1125 3890 
Q 881 3647 878 3216 
L 300 3275 
Q 359 3922 746 4261 
Q 1134 4600 1788 4600 
Q 2447 4600 2831 4234 
Q 3216 3869 3216 3328 
Q 3216 3053 3103 2787 
Q 2991 2522 2730 2228 
Q 2469 1934 1863 1422 
Q 1356 997 1212 845 
Q 1069 694 975 541 
L 3222 541 
z
" transform="scale(0.015625)"/>
       </defs>
       <use xlink:href="#ArialMT-32"/>
       <use xlink:href="#ArialMT-30" x="55.615234"/>
      </g>
     </g>
    </g>
    <g id="xtick_3">
     <g id="line2d_3">
      <g>
       <use xlink:href="#me4b7615798" x="127.931783" y="128.16" style="stroke: #000000; stroke-width: 0.8"/>
      </g>
     </g>
     <g id="text_3">
      <!-- 40 -->
      <g transform="translate(122.370846 142.317813) scale(0.1 -0.1)">
       <defs>
        <path id="ArialMT-34" d="M 2069 0 
L 2069 1097 
L 81 1097 
L 81 1613 
L 2172 4581 
L 2631 4581 
L 2631 1613 
L 3250 1613 
L 3250 1097 
L 2631 1097 
L 2631 0 
L 2069 0 
z
M 2069 1613 
L 2069 3678 
L 634 1613 
L 2069 1613 
z
" transform="scale(0.015625)"/>
       </defs>
       <use xlink:href="#ArialMT-34"/>
       <use xlink:href="#ArialMT-30" x="55.615234"/>
      </g>
     </g>
    </g>
    <g id="xtick_4">
     <g id="line2d_4">
      <g>
       <use xlink:href="#me4b7615798" x="174.399514" y="128.16" style="stroke: #000000; stroke-width: 0.8"/>
      </g>
     </g>
     <g id="text_4">
      <!-- 60 -->
      <g transform="translate(168.838577 142.317813) scale(0.1 -0.1)">
       <defs>
        <path id="ArialMT-36" d="M 3184 3459 
L 2625 3416 
Q 2550 3747 2413 3897 
Q 2184 4138 1850 4138 
Q 1581 4138 1378 3988 
Q 1113 3794 959 3422 
Q 806 3050 800 2363 
Q 1003 2672 1297 2822 
Q 1591 2972 1913 2972 
Q 2475 2972 2870 2558 
Q 3266 2144 3266 1488 
Q 3266 1056 3080 686 
Q 2894 316 2569 119 
Q 2244 -78 1831 -78 
Q 1128 -78 684 439 
Q 241 956 241 2144 
Q 241 3472 731 4075 
Q 1159 4600 1884 4600 
Q 2425 4600 2770 4297 
Q 3116 3994 3184 3459 
z
M 888 1484 
Q 888 1194 1011 928 
Q 1134 663 1356 523 
Q 1578 384 1822 384 
Q 2178 384 2434 671 
Q 2691 959 2691 1453 
Q 2691 1928 2437 2201 
Q 2184 2475 1800 2475 
Q 1419 2475 1153 2201 
Q 888 1928 888 1484 
z
" transform="scale(0.015625)"/>
       </defs>
       <use xlink:href="#ArialMT-36"/>
       <use xlink:href="#ArialMT-30" x="55.615234"/>
      </g>
     </g>
    </g>
    <g id="text_5">
     <!-- Time from start of external stimulus (h) -->
     <g transform="translate(25.317188 155.585) scale(0.1 -0.1)">
      <defs>
       <path id="ArialMT-54" d="M 1659 0 
L 1659 4041 
L 150 4041 
L 150 4581 
L 3781 4581 
L 3781 4041 
L 2266 4041 
L 2266 0 
L 1659 0 
z
" transform="scale(0.015625)"/>
       <path id="ArialMT-69" d="M 425 3934 
L 425 4581 
L 988 4581 
L 988 3934 
L 425 3934 
z
M 425 0 
L 425 3319 
L 988 3319 
L 988 0 
L 425 0 
z
" transform="scale(0.015625)"/>
       <path id="ArialMT-6d" d="M 422 0 
L 422 3319 
L 925 3319 
L 925 2853 
Q 1081 3097 1340 3245 
Q 1600 3394 1931 3394 
Q 2300 3394 2536 3241 
Q 2772 3088 2869 2813 
Q 3263 3394 3894 3394 
Q 4388 3394 4653 3120 
Q 4919 2847 4919 2278 
L 4919 0 
L 4359 0 
L 4359 2091 
Q 4359 2428 4304 2576 
Q 4250 2725 4106 2815 
Q 3963 2906 3769 2906 
Q 3419 2906 3187 2673 
Q 2956 2441 2956 1928 
L 2956 0 
L 2394 0 
L 2394 2156 
Q 2394 2531 2256 2718 
Q 2119 2906 1806 2906 
Q 1569 2906 1367 2781 
Q 1166 2656 1075 2415 
Q 984 2175 984 1722 
L 984 0 
L 422 0 
z
" transform="scale(0.015625)"/>
       <path id="ArialMT-65" d="M 2694 1069 
L 3275 997 
Q 3138 488 2766 206 
Q 2394 -75 1816 -75 
Q 1088 -75 661 373 
Q 234 822 234 1631 
Q 234 2469 665 2931 
Q 1097 3394 1784 3394 
Q 2450 3394 2872 2941 
Q 3294 2488 3294 1666 
Q 3294 1616 3291 1516 
L 816 1516 
Q 847 969 1125 678 
Q 1403 388 1819 388 
Q 2128 388 2347 550 
Q 2566 713 2694 1069 
z
M 847 1978 
L 2700 1978 
Q 2663 2397 2488 2606 
Q 2219 2931 1791 2931 
Q 1403 2931 1139 2672 
Q 875 2413 847 1978 
z
" transform="scale(0.015625)"/>
       <path id="ArialMT-20" transform="scale(0.015625)"/>
       <path id="ArialMT-66" d="M 556 0 
L 556 2881 
L 59 2881 
L 59 3319 
L 556 3319 
L 556 3672 
Q 556 4006 616 4169 
Q 697 4388 901 4523 
Q 1106 4659 1475 4659 
Q 1713 4659 2000 4603 
L 1916 4113 
Q 1741 4144 1584 4144 
Q 1328 4144 1222 4034 
Q 1116 3925 1116 3625 
L 1116 3319 
L 1763 3319 
L 1763 2881 
L 1116 2881 
L 1116 0 
L 556 0 
z
" transform="scale(0.015625)"/>
       <path id="ArialMT-72" d="M 416 0 
L 416 3319 
L 922 3319 
L 922 2816 
Q 1116 3169 1280 3281 
Q 1444 3394 1641 3394 
Q 1925 3394 2219 3213 
L 2025 2691 
Q 1819 2813 1613 2813 
Q 1428 2813 1281 2702 
Q 1134 2591 1072 2394 
Q 978 2094 978 1738 
L 978 0 
L 416 0 
z
" transform="scale(0.015625)"/>
       <path id="ArialMT-6f" d="M 213 1659 
Q 213 2581 725 3025 
Q 1153 3394 1769 3394 
Q 2453 3394 2887 2945 
Q 3322 2497 3322 1706 
Q 3322 1066 3130 698 
Q 2938 331 2570 128 
Q 2203 -75 1769 -75 
Q 1072 -75 642 372 
Q 213 819 213 1659 
z
M 791 1659 
Q 791 1022 1069 705 
Q 1347 388 1769 388 
Q 2188 388 2466 706 
Q 2744 1025 2744 1678 
Q 2744 2294 2464 2611 
Q 2184 2928 1769 2928 
Q 1347 2928 1069 2612 
Q 791 2297 791 1659 
z
" transform="scale(0.015625)"/>
       <path id="ArialMT-73" d="M 197 991 
L 753 1078 
Q 800 744 1014 566 
Q 1228 388 1613 388 
Q 2000 388 2187 545 
Q 2375 703 2375 916 
Q 2375 1106 2209 1216 
Q 2094 1291 1634 1406 
Q 1016 1563 777 1677 
Q 538 1791 414 1992 
Q 291 2194 291 2438 
Q 291 2659 392 2848 
Q 494 3038 669 3163 
Q 800 3259 1026 3326 
Q 1253 3394 1513 3394 
Q 1903 3394 2198 3281 
Q 2494 3169 2634 2976 
Q 2775 2784 2828 2463 
L 2278 2388 
Q 2241 2644 2061 2787 
Q 1881 2931 1553 2931 
Q 1166 2931 1000 2803 
Q 834 2675 834 2503 
Q 834 2394 903 2306 
Q 972 2216 1119 2156 
Q 1203 2125 1616 2013 
Q 2213 1853 2448 1751 
Q 2684 1650 2818 1456 
Q 2953 1263 2953 975 
Q 2953 694 2789 445 
Q 2625 197 2315 61 
Q 2006 -75 1616 -75 
Q 969 -75 630 194 
Q 291 463 197 991 
z
" transform="scale(0.015625)"/>
       <path id="ArialMT-74" d="M 1650 503 
L 1731 6 
Q 1494 -44 1306 -44 
Q 1000 -44 831 53 
Q 663 150 594 308 
Q 525 466 525 972 
L 525 2881 
L 113 2881 
L 113 3319 
L 525 3319 
L 525 4141 
L 1084 4478 
L 1084 3319 
L 1650 3319 
L 1650 2881 
L 1084 2881 
L 1084 941 
Q 1084 700 1114 631 
Q 1144 563 1211 522 
Q 1278 481 1403 481 
Q 1497 481 1650 503 
z
" transform="scale(0.015625)"/>
       <path id="ArialMT-61" d="M 2588 409 
Q 2275 144 1986 34 
Q 1697 -75 1366 -75 
Q 819 -75 525 192 
Q 231 459 231 875 
Q 231 1119 342 1320 
Q 453 1522 633 1644 
Q 813 1766 1038 1828 
Q 1203 1872 1538 1913 
Q 2219 1994 2541 2106 
Q 2544 2222 2544 2253 
Q 2544 2597 2384 2738 
Q 2169 2928 1744 2928 
Q 1347 2928 1158 2789 
Q 969 2650 878 2297 
L 328 2372 
Q 403 2725 575 2942 
Q 747 3159 1072 3276 
Q 1397 3394 1825 3394 
Q 2250 3394 2515 3294 
Q 2781 3194 2906 3042 
Q 3031 2891 3081 2659 
Q 3109 2516 3109 2141 
L 3109 1391 
Q 3109 606 3145 398 
Q 3181 191 3288 0 
L 2700 0 
Q 2613 175 2588 409 
z
M 2541 1666 
Q 2234 1541 1622 1453 
Q 1275 1403 1131 1340 
Q 988 1278 909 1158 
Q 831 1038 831 891 
Q 831 666 1001 516 
Q 1172 366 1500 366 
Q 1825 366 2078 508 
Q 2331 650 2450 897 
Q 2541 1088 2541 1459 
L 2541 1666 
z
" transform="scale(0.015625)"/>
       <path id="ArialMT-78" d="M 47 0 
L 1259 1725 
L 138 3319 
L 841 3319 
L 1350 2541 
Q 1494 2319 1581 2169 
Q 1719 2375 1834 2534 
L 2394 3319 
L 3066 3319 
L 1919 1756 
L 3153 0 
L 2463 0 
L 1781 1031 
L 1600 1309 
L 728 0 
L 47 0 
z
" transform="scale(0.015625)"/>
       <path id="ArialMT-6e" d="M 422 0 
L 422 3319 
L 928 3319 
L 928 2847 
Q 1294 3394 1984 3394 
Q 2284 3394 2536 3286 
Q 2788 3178 2913 3003 
Q 3038 2828 3088 2588 
Q 3119 2431 3119 2041 
L 3119 0 
L 2556 0 
L 2556 2019 
Q 2556 2363 2490 2533 
Q 2425 2703 2258 2804 
Q 2091 2906 1866 2906 
Q 1506 2906 1245 2678 
Q 984 2450 984 1813 
L 984 0 
L 422 0 
z
" transform="scale(0.015625)"/>
       <path id="ArialMT-6c" d="M 409 0 
L 409 4581 
L 972 4581 
L 972 0 
L 409 0 
z
" transform="scale(0.015625)"/>
       <path id="ArialMT-75" d="M 2597 0 
L 2597 488 
Q 2209 -75 1544 -75 
Q 1250 -75 995 37 
Q 741 150 617 320 
Q 494 491 444 738 
Q 409 903 409 1263 
L 409 3319 
L 972 3319 
L 972 1478 
Q 972 1038 1006 884 
Q 1059 663 1231 536 
Q 1403 409 1656 409 
Q 1909 409 2131 539 
Q 2353 669 2445 892 
Q 2538 1116 2538 1541 
L 2538 3319 
L 3100 3319 
L 3100 0 
L 2597 0 
z
" transform="scale(0.015625)"/>
       <path id="ArialMT-28" d="M 1497 -1347 
Q 1031 -759 709 28 
Q 388 816 388 1659 
Q 388 2403 628 3084 
Q 909 3875 1497 4659 
L 1900 4659 
Q 1522 4009 1400 3731 
Q 1209 3300 1100 2831 
Q 966 2247 966 1656 
Q 966 153 1900 -1347 
L 1497 -1347 
z
" transform="scale(0.015625)"/>
       <path id="ArialMT-68" d="M 422 0 
L 422 4581 
L 984 4581 
L 984 2938 
Q 1378 3394 1978 3394 
Q 2347 3394 2619 3248 
Q 2891 3103 3008 2847 
Q 3125 2591 3125 2103 
L 3125 0 
L 2563 0 
L 2563 2103 
Q 2563 2525 2380 2717 
Q 2197 2909 1863 2909 
Q 1613 2909 1392 2779 
Q 1172 2650 1078 2428 
Q 984 2206 984 1816 
L 984 0 
L 422 0 
z
" transform="scale(0.015625)"/>
       <path id="ArialMT-29" d="M 791 -1347 
L 388 -1347 
Q 1322 153 1322 1656 
Q 1322 2244 1188 2822 
Q 1081 3291 891 3722 
Q 769 4003 388 4659 
L 791 4659 
Q 1378 3875 1659 3084 
Q 1900 2403 1900 1659 
Q 1900 816 1576 28 
Q 1253 -759 791 -1347 
z
" transform="scale(0.015625)"/>
      </defs>
      <use xlink:href="#ArialMT-54"/>
      <use xlink:href="#ArialMT-69" x="57.333984"/>
      <use xlink:href="#ArialMT-6d" x="79.550781"/>
      <use xlink:href="#ArialMT-65" x="162.851562"/>
      <use xlink:href="#ArialMT-20" x="218.466797"/>
      <use xlink:href="#ArialMT-66" x="246.25"/>
      <use xlink:href="#ArialMT-72" x="274.033203"/>
      <use xlink:href="#ArialMT-6f" x="307.333984"/>
      <use xlink:href="#ArialMT-6d" x="362.949219"/>
      <use xlink:href="#ArialMT-20" x="446.25"/>
      <use xlink:href="#ArialMT-73" x="474.033203"/>
      <use xlink:href="#ArialMT-74" x="524.033203"/>
      <use xlink:href="#ArialMT-61" x="551.816406"/>
      <use xlink:href="#ArialMT-72" x="607.431641"/>
      <use xlink:href="#ArialMT-74" x="640.732422"/>
      <use xlink:href="#ArialMT-20" x="668.515625"/>
      <use xlink:href="#ArialMT-6f" x="696.298828"/>
      <use xlink:href="#ArialMT-66" x="751.914062"/>
      <use xlink:href="#ArialMT-20" x="779.697266"/>
      <use xlink:href="#ArialMT-65" x="807.480469"/>
      <use xlink:href="#ArialMT-78" x="863.095703"/>
      <use xlink:href="#ArialMT-74" x="913.095703"/>
      <use xlink:href="#ArialMT-65" x="940.878906"/>
      <use xlink:href="#ArialMT-72" x="996.494141"/>
      <use xlink:href="#ArialMT-6e" x="1029.794922"/>
      <use xlink:href="#ArialMT-61" x="1085.410156"/>
      <use xlink:href="#ArialMT-6c" x="1141.025391"/>
      <use xlink:href="#ArialMT-20" x="1163.242188"/>
      <use xlink:href="#ArialMT-73" x="1191.025391"/>
      <use xlink:href="#ArialMT-74" x="1241.025391"/>
      <use xlink:href="#ArialMT-69" x="1268.808594"/>
      <use xlink:href="#ArialMT-6d" x="1291.025391"/>
      <use xlink:href="#ArialMT-75" x="1374.326172"/>
      <use xlink:href="#ArialMT-6c" x="1429.941406"/>
      <use xlink:href="#ArialMT-75" x="1452.158203"/>
      <use xlink:href="#ArialMT-73" x="1507.773438"/>
      <use xlink:href="#ArialMT-20" x="1557.773438"/>
      <use xlink:href="#ArialMT-28" x="1585.556641"/>
      <use xlink:href="#ArialMT-68" x="1618.857422"/>
      <use xlink:href="#ArialMT-29" x="1674.472656"/>
     </g>
    </g>
   </g>
   <g id="matplotlib.axis_2">
    <g id="ytick_1">
     <g id="line2d_5">
      <defs>
       <path id="m6df23490bd" d="M 0 0 
L -3.5 0 
" style="stroke: #000000; stroke-width: 0.8"/>
      </defs>
      <g>
       <use xlink:href="#m6df23490bd" x="27" y="126.233846" style="stroke: #000000; stroke-width: 0.8"/>
      </g>
     </g>
     <g id="text_6">
      <!-- 0.0 -->
      <g transform="translate(6.1 129.812752) scale(0.1 -0.1)">
       <defs>
        <path id="ArialMT-2e" d="M 581 0 
L 581 641 
L 1222 641 
L 1222 0 
L 581 0 
z
" transform="scale(0.015625)"/>
       </defs>
       <use xlink:href="#ArialMT-30"/>
       <use xlink:href="#ArialMT-2e" x="55.615234"/>
       <use xlink:href="#ArialMT-30" x="83.398438"/>
      </g>
     </g>
    </g>
    <g id="ytick_2">
     <g id="line2d_6">
      <g>
       <use xlink:href="#m6df23490bd" x="27" y="102.156917" style="stroke: #000000; stroke-width: 0.8"/>
      </g>
     </g>
     <g id="text_7">
      <!-- 2.5 -->
      <g transform="translate(6.1 105.735823) scale(0.1 -0.1)">
       <defs>
        <path id="ArialMT-35" d="M 266 1200 
L 856 1250 
Q 922 819 1161 601 
Q 1400 384 1738 384 
Q 2144 384 2425 690 
Q 2706 997 2706 1503 
Q 2706 1984 2436 2262 
Q 2166 2541 1728 2541 
Q 1456 2541 1237 2417 
Q 1019 2294 894 2097 
L 366 2166 
L 809 4519 
L 3088 4519 
L 3088 3981 
L 1259 3981 
L 1013 2750 
Q 1425 3038 1878 3038 
Q 2478 3038 2890 2622 
Q 3303 2206 3303 1553 
Q 3303 931 2941 478 
Q 2500 -78 1738 -78 
Q 1113 -78 717 272 
Q 322 622 266 1200 
z
" transform="scale(0.015625)"/>
       </defs>
       <use xlink:href="#ArialMT-32"/>
       <use xlink:href="#ArialMT-2e" x="55.615234"/>
       <use xlink:href="#ArialMT-35" x="83.398438"/>
      </g>
     </g>
    </g>
    <g id="ytick_3">
     <g id="line2d_7">
      <g>
       <use xlink:href="#m6df23490bd" x="27" y="78.079988" style="stroke: #000000; stroke-width: 0.8"/>
      </g>
     </g>
     <g id="text_8">
      <!-- 5.0 -->
      <g transform="translate(6.1 81.658894) scale(0.1 -0.1)">
       <use xlink:href="#ArialMT-35"/>
       <use xlink:href="#ArialMT-2e" x="55.615234"/>
       <use xlink:href="#ArialMT-30" x="83.398438"/>
      </g>
     </g>
    </g>
    <g id="ytick_4">
     <g id="line2d_8">
      <g>
       <use xlink:href="#m6df23490bd" x="27" y="54.003059" style="stroke: #000000; stroke-width: 0.8"/>
      </g>
     </g>
     <g id="text_9">
      <!-- 7.5 -->
      <g transform="translate(6.1 57.581965) scale(0.1 -0.1)">
       <defs>
        <path id="ArialMT-37" d="M 303 3981 
L 303 4522 
L 3269 4522 
L 3269 4084 
Q 2831 3619 2401 2847 
Q 1972 2075 1738 1259 
Q 1569 684 1522 0 
L 944 0 
Q 953 541 1156 1306 
Q 1359 2072 1739 2783 
Q 2119 3494 2547 3981 
L 303 3981 
z
" transform="scale(0.015625)"/>
       </defs>
       <use xlink:href="#ArialMT-37"/>
       <use xlink:href="#ArialMT-2e" x="55.615234"/>
       <use xlink:href="#ArialMT-35" x="83.398438"/>
      </g>
     </g>
    </g>
    <g id="ytick_5">
     <g id="line2d_9">
      <g>
       <use xlink:href="#m6df23490bd" x="27" y="29.92613" style="stroke: #000000; stroke-width: 0.8"/>
      </g>
     </g>
     <g id="text_10">
      <!-- 10.0 -->
      <g transform="translate(0.539062 33.505037) scale(0.1 -0.1)">
       <defs>
        <path id="ArialMT-31" d="M 2384 0 
L 1822 0 
L 1822 3584 
Q 1619 3391 1289 3197 
Q 959 3003 697 2906 
L 697 3450 
Q 1169 3672 1522 3987 
Q 1875 4303 2022 4600 
L 2384 4600 
L 2384 0 
z
" transform="scale(0.015625)"/>
       </defs>
       <use xlink:href="#ArialMT-31"/>
       <use xlink:href="#ArialMT-30" x="55.615234"/>
       <use xlink:href="#ArialMT-2e" x="111.230469"/>
       <use xlink:href="#ArialMT-30" x="139.013672"/>
      </g>
     </g>
    </g>
    <g id="text_11">
     <!-- Mean p53 level (FC) -->
     <g transform="translate(-5.565625 118.012188) rotate(-90) scale(0.1 -0.1)">
      <defs>
       <path id="ArialMT-4d" d="M 475 0 
L 475 4581 
L 1388 4581 
L 2472 1338 
Q 2622 884 2691 659 
Q 2769 909 2934 1394 
L 4031 4581 
L 4847 4581 
L 4847 0 
L 4263 0 
L 4263 3834 
L 2931 0 
L 2384 0 
L 1059 3900 
L 1059 0 
L 475 0 
z
" transform="scale(0.015625)"/>
       <path id="ArialMT-70" d="M 422 -1272 
L 422 3319 
L 934 3319 
L 934 2888 
Q 1116 3141 1344 3267 
Q 1572 3394 1897 3394 
Q 2322 3394 2647 3175 
Q 2972 2956 3137 2557 
Q 3303 2159 3303 1684 
Q 3303 1175 3120 767 
Q 2938 359 2589 142 
Q 2241 -75 1856 -75 
Q 1575 -75 1351 44 
Q 1128 163 984 344 
L 984 -1272 
L 422 -1272 
z
M 931 1641 
Q 931 1000 1190 694 
Q 1450 388 1819 388 
Q 2194 388 2461 705 
Q 2728 1022 2728 1688 
Q 2728 2322 2467 2637 
Q 2206 2953 1844 2953 
Q 1484 2953 1207 2617 
Q 931 2281 931 1641 
z
" transform="scale(0.015625)"/>
       <path id="ArialMT-33" d="M 269 1209 
L 831 1284 
Q 928 806 1161 595 
Q 1394 384 1728 384 
Q 2125 384 2398 659 
Q 2672 934 2672 1341 
Q 2672 1728 2419 1979 
Q 2166 2231 1775 2231 
Q 1616 2231 1378 2169 
L 1441 2663 
Q 1497 2656 1531 2656 
Q 1891 2656 2178 2843 
Q 2466 3031 2466 3422 
Q 2466 3731 2256 3934 
Q 2047 4138 1716 4138 
Q 1388 4138 1169 3931 
Q 950 3725 888 3313 
L 325 3413 
Q 428 3978 793 4289 
Q 1159 4600 1703 4600 
Q 2078 4600 2393 4439 
Q 2709 4278 2876 4000 
Q 3044 3722 3044 3409 
Q 3044 3113 2884 2869 
Q 2725 2625 2413 2481 
Q 2819 2388 3044 2092 
Q 3269 1797 3269 1353 
Q 3269 753 2831 336 
Q 2394 -81 1725 -81 
Q 1122 -81 723 278 
Q 325 638 269 1209 
z
" transform="scale(0.015625)"/>
       <path id="ArialMT-76" d="M 1344 0 
L 81 3319 
L 675 3319 
L 1388 1331 
Q 1503 1009 1600 663 
Q 1675 925 1809 1294 
L 2547 3319 
L 3125 3319 
L 1869 0 
L 1344 0 
z
" transform="scale(0.015625)"/>
       <path id="ArialMT-46" d="M 525 0 
L 525 4581 
L 3616 4581 
L 3616 4041 
L 1131 4041 
L 1131 2622 
L 3281 2622 
L 3281 2081 
L 1131 2081 
L 1131 0 
L 525 0 
z
" transform="scale(0.015625)"/>
       <path id="ArialMT-43" d="M 3763 1606 
L 4369 1453 
Q 4178 706 3683 314 
Q 3188 -78 2472 -78 
Q 1731 -78 1267 223 
Q 803 525 561 1097 
Q 319 1669 319 2325 
Q 319 3041 592 3573 
Q 866 4106 1370 4382 
Q 1875 4659 2481 4659 
Q 3169 4659 3637 4309 
Q 4106 3959 4291 3325 
L 3694 3184 
Q 3534 3684 3231 3912 
Q 2928 4141 2469 4141 
Q 1941 4141 1586 3887 
Q 1231 3634 1087 3207 
Q 944 2781 944 2328 
Q 944 1744 1114 1308 
Q 1284 872 1643 656 
Q 2003 441 2422 441 
Q 2931 441 3284 734 
Q 3638 1028 3763 1606 
z
" transform="scale(0.015625)"/>
      </defs>
      <use xlink:href="#ArialMT-4d"/>
      <use xlink:href="#ArialMT-65" x="83.300781"/>
      <use xlink:href="#ArialMT-61" x="138.916016"/>
      <use xlink:href="#ArialMT-6e" x="194.53125"/>
      <use xlink:href="#ArialMT-20" x="250.146484"/>
      <use xlink:href="#ArialMT-70" x="277.929688"/>
      <use xlink:href="#ArialMT-35" x="333.544922"/>
      <use xlink:href="#ArialMT-33" x="389.160156"/>
      <use xlink:href="#ArialMT-20" x="444.775391"/>
      <use xlink:href="#ArialMT-6c" x="472.558594"/>
      <use xlink:href="#ArialMT-65" x="494.775391"/>
      <use xlink:href="#ArialMT-76" x="550.390625"/>
      <use xlink:href="#ArialMT-65" x="600.390625"/>
      <use xlink:href="#ArialMT-6c" x="656.005859"/>
      <use xlink:href="#ArialMT-20" x="678.222656"/>
      <use xlink:href="#ArialMT-28" x="706.005859"/>
      <use xlink:href="#ArialMT-46" x="739.306641"/>
      <use xlink:href="#ArialMT-43" x="800.390625"/>
      <use xlink:href="#ArialMT-29" x="872.607422"/>
     </g>
    </g>
   </g>
   <g id="LineCollection_1">
    <path d="M 34.609091 121.115371 
L 34.609091 22.224541 
" clip-path="url(#p4d0eb6c8dc)" style="fill: none; stroke-dasharray: 5.55,2.4; stroke-dashoffset: 0; stroke: #7f7f7f; stroke-width: 1.5"/>
    <path d="M 60.166343 121.115371 
L 60.166343 22.224541 
" clip-path="url(#p4d0eb6c8dc)" style="fill: none; stroke-dasharray: 5.55,2.4; stroke-dashoffset: 0; stroke: #7f7f7f; stroke-width: 1.5"/>
    <path d="M 85.723595 121.115371 
L 85.723595 22.224541 
" clip-path="url(#p4d0eb6c8dc)" style="fill: none; stroke-dasharray: 5.55,2.4; stroke-dashoffset: 0; stroke: #7f7f7f; stroke-width: 1.5"/>
    <path d="M 111.280847 121.115371 
L 111.280847 22.224541 
" clip-path="url(#p4d0eb6c8dc)" style="fill: none; stroke-dasharray: 5.55,2.4; stroke-dashoffset: 0; stroke: #7f7f7f; stroke-width: 1.5"/>
    <path d="M 136.838099 121.115371 
L 136.838099 22.224541 
" clip-path="url(#p4d0eb6c8dc)" style="fill: none; stroke-dasharray: 5.55,2.4; stroke-dashoffset: 0; stroke: #7f7f7f; stroke-width: 1.5"/>
    <path d="M 162.39535 121.115371 
L 162.39535 22.224541 
" clip-path="url(#p4d0eb6c8dc)" style="fill: none; stroke-dasharray: 5.55,2.4; stroke-dashoffset: 0; stroke: #7f7f7f; stroke-width: 1.5"/>
   </g>
   <g id="line2d_10">
    <path d="M 34.996322 109.953241 
L 35.770784 105.733936 
L 36.158015 101.039853 
L 36.545246 98.0429 
L 37.319709 90.850889 
L 38.094171 85.709393 
L 38.481402 80.480834 
L 38.868633 79.885973 
L 39.255864 74.382982 
L 39.643095 73.758035 
L 40.030326 73.521304 
L 40.417557 67.947149 
L 40.804788 67.275872 
L 41.579251 61.622266 
L 41.966482 62.726415 
L 42.353713 59.209123 
L 42.740944 59.251303 
L 43.128175 55.971498 
L 43.515406 59.523233 
L 43.902637 55.591633 
L 44.289868 58.580878 
L 44.677099 56.594861 
L 45.06433 58.163405 
L 45.451561 56.6057 
L 45.838793 55.615081 
L 46.226024 56.089354 
L 46.613255 54.419433 
L 47.000486 50.881405 
L 47.774948 84.163556 
L 48.54941 102.742217 
L 48.936641 107.032694 
L 49.711103 111.315792 
L 50.098334 112.677262 
L 50.872797 114.126854 
L 51.260028 114.765425 
L 51.647259 114.88866 
L 52.421721 115.606163 
L 52.808952 115.230232 
L 53.583414 115.234175 
L 53.970645 114.588716 
L 54.357876 114.404477 
L 54.745108 113.479307 
L 55.132339 112.928441 
L 55.51957 112.860088 
L 55.906801 111.036609 
L 56.681263 109.509081 
L 57.455725 105.336744 
L 57.842956 104.607044 
L 58.230187 101.764391 
L 58.617418 100.411546 
L 59.00465 99.747595 
L 59.391881 98.109131 
L 59.779112 93.503882 
L 60.166343 94.324349 
L 61.328036 85.400695 
L 61.715267 80.175385 
L 62.102498 78.392757 
L 62.489729 77.381172 
L 62.87696 71.298375 
L 63.264192 72.089462 
L 64.038654 67.253731 
L 64.425885 68.586208 
L 64.813116 67.511103 
L 65.200347 67.225523 
L 65.587578 67.246687 
L 65.974809 65.906109 
L 66.36204 66.24517 
L 66.749271 68.397411 
L 67.136502 66.680994 
L 67.523734 67.723685 
L 67.910965 69.91433 
L 68.298196 69.244594 
L 68.685427 69.649721 
L 69.072658 71.473057 
L 69.459889 71.187581 
L 69.84712 73.364605 
L 70.234351 71.443507 
L 70.621582 71.060717 
L 71.008813 73.801685 
L 71.396044 72.071947 
L 71.783276 74.200986 
L 72.170507 78.976982 
L 72.557738 65.011335 
L 73.719431 102.324476 
L 74.106662 108.578676 
L 74.881124 113.425164 
L 75.268355 115.068609 
L 75.655586 115.416355 
L 76.042817 116.122444 
L 76.430049 115.995425 
L 76.81728 116.495017 
L 77.204511 115.906477 
L 77.591742 116.008274 
L 77.978973 115.460291 
L 78.366204 115.711066 
L 79.140666 114.296068 
L 79.527897 114.423308 
L 79.915128 113.825857 
L 80.302359 112.963787 
L 80.689591 112.963117 
L 81.076822 111.98675 
L 81.464053 111.384153 
L 81.851284 109.6759 
L 82.238515 109.322843 
L 82.625746 108.081498 
L 83.012977 106.085451 
L 83.400208 106.485161 
L 83.787439 105.420862 
L 84.17467 103.775427 
L 84.561901 104.425092 
L 84.949133 104.157321 
L 85.336364 98.677488 
L 85.723595 99.120096 
L 86.110826 96.061436 
L 86.498057 94.206286 
L 86.885288 90.435898 
L 88.046981 82.706879 
L 88.434212 82.503453 
L 88.821443 79.822833 
L 89.208675 78.951682 
L 89.595906 79.449308 
L 89.983137 76.675697 
L 90.370368 79.846249 
L 90.757599 80.769448 
L 91.532061 86.49509 
L 91.919292 85.608927 
L 92.306523 88.752215 
L 93.080985 91.191028 
L 93.468217 90.163632 
L 93.855448 93.849053 
L 94.242679 93.732768 
L 94.62991 94.926445 
L 95.017141 95.25842 
L 95.791603 95.450889 
L 96.178834 96.437014 
L 96.566065 95.271963 
L 96.953296 97.952917 
L 97.340527 96.79666 
L 97.727759 98.209674 
L 98.11499 88.933532 
L 98.502221 93.933729 
L 98.889452 102.062351 
L 99.663914 110.804566 
L 100.438376 114.336019 
L 100.825607 113.358448 
L 101.212838 115.037591 
L 101.600069 114.808925 
L 101.9873 115.061158 
L 102.374532 114.768379 
L 102.761763 114.329855 
L 103.148994 114.122277 
L 103.536225 114.344457 
L 103.923456 113.680613 
L 104.310687 113.444323 
L 104.697918 113.493846 
L 105.085149 112.735515 
L 105.47238 112.679814 
L 105.859611 112.387407 
L 106.246842 111.809715 
L 106.634074 111.621751 
L 107.021305 110.789536 
L 107.408536 110.596755 
L 107.795767 110.191365 
L 108.182998 109.502114 
L 108.570229 108.331517 
L 108.95746 108.019991 
L 109.344691 106.486472 
L 109.731922 105.997775 
L 110.119153 105.870018 
L 110.506384 105.055868 
L 110.893616 96.513755 
L 111.280847 99.078133 
L 113.991464 79.877682 
L 114.378695 79.938901 
L 115.153158 76.467346 
L 115.540389 77.215068 
L 115.92762 79.183738 
L 116.314851 78.044596 
L 116.702082 80.159984 
L 117.089313 79.933171 
L 117.476544 81.874067 
L 117.863775 85.381509 
L 118.251006 84.831462 
L 118.638237 85.795011 
L 119.025468 88.391906 
L 119.799931 89.179393 
L 120.187162 91.406786 
L 120.574393 91.857891 
L 120.961624 92.008251 
L 121.348855 93.502996 
L 122.123317 94.219689 
L 122.510548 93.84022 
L 122.897779 95.493026 
L 123.28501 95.008175 
L 123.672241 84.135288 
L 124.446704 100.082479 
L 124.833935 106.554659 
L 125.608397 112.622453 
L 125.995628 113.498113 
L 126.382859 113.875321 
L 127.157321 115.404984 
L 127.544552 115.079121 
L 127.931783 115.444367 
L 128.706246 114.851128 
L 129.093477 115.441917 
L 129.480708 115.502169 
L 129.867939 114.511416 
L 130.25517 114.736887 
L 130.642401 114.557294 
L 131.029632 114.073552 
L 131.416863 112.879613 
L 131.804094 112.996372 
L 132.191325 111.980076 
L 132.578557 110.588136 
L 132.965788 110.790393 
L 133.353019 109.338867 
L 134.127481 107.770609 
L 134.901943 104.898255 
L 135.289174 105.219315 
L 135.676405 104.150818 
L 136.063636 105.049598 
L 136.450867 96.643861 
L 136.838099 97.64146 
L 137.22533 97.200508 
L 137.612561 95.300375 
L 137.999792 90.86772 
L 138.387023 89.997287 
L 139.161485 83.892953 
L 139.548716 84.028607 
L 139.935947 81.182793 
L 140.323178 81.409075 
L 140.710409 78.81111 
L 141.097641 79.376468 
L 141.484872 80.483699 
L 141.872103 80.680457 
L 142.259334 81.263968 
L 142.646565 83.894525 
L 143.033796 84.314679 
L 143.421027 85.433714 
L 143.808258 87.717718 
L 144.195489 87.352962 
L 144.58272 89.917822 
L 144.969951 90.047892 
L 145.357183 92.094704 
L 145.744414 92.750343 
L 146.131645 93.805716 
L 146.518876 95.730832 
L 146.906107 96.127172 
L 147.293338 95.58527 
L 147.680569 96.818151 
L 148.0678 96.878904 
L 148.455031 97.539787 
L 148.842262 97.398873 
L 149.229493 94.583213 
L 149.616724 98.137261 
L 150.003956 104.521943 
L 150.778418 110.998372 
L 151.165649 111.99929 
L 151.55288 112.582647 
L 151.940111 113.853096 
L 152.327342 113.842117 
L 152.714573 114.359293 
L 153.101804 114.309088 
L 153.489035 114.43912 
L 153.876266 114.32306 
L 154.263498 114.003154 
L 154.650729 114.063902 
L 155.03796 113.901505 
L 155.425191 113.254763 
L 155.812422 113.456356 
L 156.199653 112.35332 
L 156.586884 112.224001 
L 157.748577 109.747691 
L 158.135808 109.173151 
L 158.52304 107.530731 
L 158.910271 106.59822 
L 159.684733 102.369073 
L 160.459195 101.774776 
L 161.233657 98.570058 
L 161.620888 96.397277 
L 162.008119 89.505248 
L 162.39535 93.040844 
L 162.782582 92.037815 
L 163.557044 86.37034 
L 164.331506 81.44187 
L 164.718737 80.899706 
L 165.105968 78.161282 
L 165.493199 77.154682 
L 165.88043 77.581574 
L 166.267661 75.351266 
L 166.654892 76.064871 
L 167.042124 78.049111 
L 167.429355 76.940896 
L 167.816586 76.496106 
L 168.591048 82.858932 
L 168.978279 82.454994 
L 169.36551 84.296305 
L 169.752741 87.899611 
L 170.527203 89.492164 
L 170.914434 92.247963 
L 171.301666 94.019171 
L 171.688897 93.756281 
L 172.076128 95.833692 
L 172.463359 96.538683 
L 172.85059 97.756574 
L 173.625052 98.734468 
L 174.399514 100.018751 
L 174.786745 95.147648 
L 175.561207 103.681423 
L 176.33567 108.699857 
L 177.110132 110.419531 
L 177.497363 111.615063 
L 177.884594 111.709 
L 178.271825 111.623707 
L 178.659056 112.120624 
L 179.046287 112.095435 
L 179.433518 111.936806 
L 179.820749 112.020987 
L 180.207981 111.680892 
L 180.595212 111.080069 
L 180.982443 109.404734 
L 181.369674 110.561906 
L 182.144136 109.340335 
L 182.531367 108.657516 
L 182.918598 108.737903 
L 183.305829 108.550932 
L 183.69306 106.756421 
L 184.080291 106.290406 
L 184.854754 104.386042 
L 185.241985 102.021789 
L 185.629216 101.649815 
L 186.016447 99.872202 
L 186.403678 99.087302 
L 186.790909 99.111445 
L 186.790909 99.111445 
" clip-path="url(#p4d0eb6c8dc)" style="fill: none; stroke: #4d4d4d; stroke-width: 1.5; stroke-linecap: square"/>
   </g>
   <g id="patch_3">
    <path d="M 27 128.16 
L 27 17.28 
" style="fill: none; stroke: #000000; stroke-width: 0.8; stroke-linejoin: miter; stroke-linecap: square"/>
   </g>
   <g id="patch_4">
    <path d="M 194.4 128.16 
L 194.4 17.28 
" style="fill: none; stroke: #000000; stroke-width: 0.8; stroke-linejoin: miter; stroke-linecap: square"/>
   </g>
   <g id="patch_5">
    <path d="M 27 128.16 
L 194.4 128.16 
" style="fill: none; stroke: #000000; stroke-width: 0.8; stroke-linejoin: miter; stroke-linecap: square"/>
   </g>
   <g id="patch_6">
    <path d="M 27 17.28 
L 194.4 17.28 
" style="fill: none; stroke: #000000; stroke-width: 0.8; stroke-linejoin: miter; stroke-linecap: square"/>
   </g>
  </g>
 </g>
 <defs>
  <clipPath id="p4d0eb6c8dc">
   <rect x="27" y="17.28" width="167.4" height="110.88"/>
  </clipPath>
 </defs>
</svg>
