<?xml version="1.0" encoding="utf-8" standalone="no"?>
<!DOCTYPE svg PUBLIC "-//W3C//DTD SVG 1.1//EN"
  "http://www.w3.org/Graphics/SVG/1.1/DTD/svg11.dtd">
<svg xmlns:xlink="http://www.w3.org/1999/xlink" width="216pt" height="144pt" viewBox="0 0 216 144" xmlns="http://www.w3.org/2000/svg" version="1.1">
 <metadata>
  <rdf:RDF xmlns:dc="http://purl.org/dc/elements/1.1/" xmlns:cc="http://creativecommons.org/ns#" xmlns:rdf="http://www.w3.org/1999/02/22-rdf-syntax-ns#">
   <cc:Work>
    <dc:type rdf:resource="http://purl.org/dc/dcmitype/StillImage"/>
    <dc:date>2024-06-11T16:43:36.324284</dc:date>
    <dc:format>image/svg+xml</dc:format>
    <dc:creator>
     <cc:Agent>
      <dc:title>Matplotlib v3.8.3, https://matplotlib.org/</dc:title>
     </cc:Agent>
    </dc:creator>
   </cc:Work>
  </rdf:RDF>
 </metadata>
 <defs>
  <style type="text/css">*{stroke-linejoin: round; stroke-linecap: butt}</style>
 </defs>
 <g id="figure_1">
  <g id="patch_1">
   <path d="M 0 144 
L 216 144 
L 216 0 
L 0 0 
z
" style="fill: #ffffff"/>
  </g>
  <g id="axes_1">
   <g id="patch_2">
    <path d="M 27 128.16 
L 194.4 128.16 
L 194.4 17.28 
L 27 17.28 
z
" style="fill: #f2f2f2"/>
   </g>
   <g id="PolyCollection_1">
    <path d="M 35.673299 83.610054 
L 35.673299 109.930805 
L 36.737508 109.807436 
L 37.801716 110.192674 
L 38.865925 108.808444 
L 39.930134 108.837756 
L 40.994342 107.36836 
L 42.058551 107.221541 
L 43.122759 104.909793 
L 44.186968 105.541075 
L 45.251176 104.610529 
L 46.315385 106.269534 
L 47.379593 105.887101 
L 48.443802 104.571882 
L 49.50801 107.415712 
L 50.572219 109.94749 
L 51.636427 112.447147 
L 52.700636 113.427205 
L 53.764844 113.789652 
L 54.829053 113.857936 
L 55.893261 114.16632 
L 56.95747 114.367847 
L 58.021678 114.134902 
L 59.085887 114.098291 
L 60.150095 114.156036 
L 61.214304 111.171058 
L 62.278512 112.325856 
L 63.342721 111.812118 
L 64.406929 110.438664 
L 65.471138 109.716387 
L 66.535346 108.485224 
L 67.599555 107.671955 
L 68.663764 106.589528 
L 69.727972 105.363316 
L 70.792181 105.014066 
L 71.856389 103.735254 
L 72.920598 103.342603 
L 73.984806 100.54095 
L 75.049015 102.337008 
L 76.113223 106.920748 
L 77.177432 110.160085 
L 78.24164 112.271945 
L 79.305849 113.957377 
L 80.370057 114.86834 
L 81.434266 115.599247 
L 82.498474 115.878592 
L 83.562683 115.975092 
L 84.626891 116.437903 
L 85.6911 116.390555 
L 86.755308 114.206953 
L 87.819517 115.384877 
L 88.883725 114.099556 
L 89.947934 113.010478 
L 91.012142 112.566221 
L 92.076351 111.556931 
L 93.140559 110.800996 
L 94.204768 109.955652 
L 95.268976 108.851927 
L 96.333185 108.139964 
L 97.397394 106.412781 
L 98.461602 105.317516 
L 99.525811 104.194932 
L 100.590019 106.941942 
L 101.654228 110.746757 
L 102.718436 112.964015 
L 103.782645 114.872505 
L 104.846853 115.055647 
L 105.911062 114.735822 
L 106.97527 114.744922 
L 108.039479 114.569217 
L 109.103687 114.635541 
L 110.167896 114.684358 
L 111.232104 114.366559 
L 112.296313 111.72279 
L 113.360521 112.350974 
L 114.42473 111.664648 
L 115.488938 110.826818 
L 116.553147 109.883254 
L 117.617355 108.66693 
L 118.681564 107.693419 
L 119.745772 106.720923 
L 120.809981 105.710397 
L 121.874189 105.02287 
L 122.938398 103.768937 
L 124.002606 103.631321 
L 125.066815 99.632346 
L 126.131024 104.802568 
L 127.195232 108.200839 
L 128.259441 112.18376 
L 129.323649 113.196458 
L 130.387858 114.1541 
L 131.452066 113.832468 
L 132.516275 114.292723 
L 133.580483 113.802527 
L 134.644692 115.040184 
L 135.7089 114.664015 
L 136.773109 115.476321 
L 137.837317 112.645506 
L 138.901526 113.438094 
L 139.965734 113.093813 
L 141.029943 112.045215 
L 142.094151 123.12 
L 143.15836 109.95956 
L 144.222568 108.002806 
L 145.286777 106.895452 
L 146.350985 106.160574 
L 147.415194 104.618402 
L 148.479402 104.044672 
L 149.543611 103.411502 
L 150.607819 103.81693 
L 151.672028 106.107277 
L 152.736236 111.400075 
L 153.800445 113.56501 
L 154.864654 115.470997 
L 155.928862 115.113909 
L 156.993071 115.603807 
L 158.057279 114.557883 
L 159.121488 114.923488 
L 160.185696 114.425742 
L 161.249905 114.796579 
L 162.314113 114.210037 
L 163.378322 113.465528 
L 164.44253 114.271465 
L 165.506739 114.266382 
L 166.570947 112.430337 
L 167.635156 112.542029 
L 168.699364 114.740838 
L 169.763573 114.91344 
L 170.827781 111.016125 
L 171.89199 111.248868 
L 172.956198 110.588284 
L 174.020407 110.402307 
L 175.084615 108.209287 
L 176.148824 103.474867 
L 177.213032 107.427993 
L 178.277241 108.627291 
L 179.341449 111.529711 
L 180.405658 112.975627 
L 181.469866 113.814226 
L 182.534075 113.445656 
L 183.598284 114.161815 
L 184.662492 113.396492 
L 185.726701 113.765925 
L 186.790909 113.193188 
L 186.790909 87.631126 
L 186.790909 87.631126 
L 185.726701 88.571517 
L 184.662492 86.585942 
L 183.598284 86.857084 
L 182.534075 82.850139 
L 181.469866 80.837381 
L 180.405658 72.205572 
L 179.341449 66.039627 
L 178.277241 48.830466 
L 177.213032 32.393974 
L 176.148824 22.32 
L 175.084615 39.883597 
L 174.020407 40.82494 
L 172.956198 46.402281 
L 171.89199 51.822283 
L 170.827781 56.828671 
L 169.763573 58.419312 
L 168.699364 61.353585 
L 167.635156 71.330314 
L 166.570947 73.486824 
L 165.506739 78.890951 
L 164.44253 79.069124 
L 163.378322 80.276668 
L 162.314113 87.21484 
L 161.249905 89.411043 
L 160.185696 87.27123 
L 159.121488 88.963361 
L 158.057279 85.696293 
L 156.993071 85.110655 
L 155.928862 80.021291 
L 154.864654 76.570207 
L 153.800445 65.844448 
L 152.736236 53.967402 
L 151.672028 34.447173 
L 150.607819 25.184039 
L 149.543611 44.573477 
L 148.479402 50.141838 
L 147.415194 52.523506 
L 146.350985 58.663127 
L 145.286777 60.674284 
L 144.222568 67.640157 
L 143.15836 69.040757 
L 142.094151 57.889073 
L 141.029943 76.803279 
L 139.965734 80.288495 
L 138.901526 82.706659 
L 137.837317 79.763314 
L 136.773109 89.157905 
L 135.7089 88.678241 
L 134.644692 89.377584 
L 133.580483 89.378087 
L 132.516275 89.277117 
L 131.452066 86.335736 
L 130.387858 85.533745 
L 129.323649 78.826974 
L 128.259441 73.481761 
L 127.195232 58.363246 
L 126.131024 45.539261 
L 125.066815 30.907188 
L 124.002606 49.827576 
L 122.938398 48.348351 
L 121.874189 55.454918 
L 120.809981 59.381006 
L 119.745772 63.809579 
L 118.681564 69.300749 
L 117.617355 72.130745 
L 116.553147 76.338281 
L 115.488938 79.905636 
L 114.42473 82.791058 
L 113.360521 85.544199 
L 112.296313 83.423592 
L 111.232104 90.632895 
L 110.167896 90.86644 
L 109.103687 90.969352 
L 108.039479 89.357634 
L 106.97527 89.157589 
L 105.911062 86.98878 
L 104.846853 83.842381 
L 103.782645 79.27836 
L 102.718436 72.381769 
L 101.654228 59.740726 
L 100.590019 41.337513 
L 99.525811 31.245446 
L 98.461602 47.58449 
L 97.397394 48.481497 
L 96.333185 52.846433 
L 95.268976 55.991483 
L 94.204768 62.3472 
L 93.140559 66.92924 
L 92.076351 70.573362 
L 91.012142 75.778185 
L 89.947934 79.764947 
L 88.883725 83.424768 
L 87.819517 86.234412 
L 86.755308 82.294779 
L 85.6911 92.122931 
L 84.626891 92.380575 
L 83.562683 92.306131 
L 82.498474 93.501405 
L 81.434266 92.252371 
L 80.370057 91.769858 
L 79.305849 90.616729 
L 78.24164 87.190947 
L 77.177432 81.424793 
L 76.113223 68.917944 
L 75.049015 49.294542 
L 73.984806 34.055871 
L 72.920598 47.324429 
L 71.856389 50.761145 
L 70.792181 56.19513 
L 69.727972 60.718913 
L 68.663764 66.591278 
L 67.599555 71.711261 
L 66.535346 75.940184 
L 65.471138 81.331377 
L 64.406929 85.039203 
L 63.342721 88.620176 
L 62.278512 92.054776 
L 61.214304 88.498201 
L 60.150095 96.676812 
L 59.085887 97.040702 
L 58.021678 97.18152 
L 56.95747 97.043298 
L 55.893261 96.584197 
L 54.829053 96.725936 
L 53.764844 95.294867 
L 52.700636 92.307897 
L 51.636427 88.814668 
L 50.572219 79.853898 
L 49.50801 66.0565 
L 48.443802 51.391947 
L 47.379593 60.779527 
L 46.315385 62.316071 
L 45.251176 60.387767 
L 44.186968 65.750858 
L 43.122759 65.086797 
L 42.058551 71.200462 
L 40.994342 71.186261 
L 39.930134 76.946311 
L 38.865925 76.792437 
L 37.801716 81.915045 
L 36.737508 80.896926 
L 35.673299 83.610054 
z
" clip-path="url(#pa222b512ab)" style="fill: #808080; fill-opacity: 0.5"/>
   </g>
   <g id="matplotlib.axis_1">
    <g id="xtick_1">
     <g id="line2d_1">
      <defs>
       <path id="mc64f391403" d="M 0 0 
L 0 3.5 
" style="stroke: #000000; stroke-width: 0.8"/>
      </defs>
      <g>
       <use xlink:href="#mc64f391403" x="28.22384" y="128.16" style="stroke: #000000; stroke-width: 0.8"/>
      </g>
     </g>
     <g id="text_1">
      <!-- 20 -->
      <g transform="translate(22.662902 142.317813) scale(0.1 -0.1)">
       <defs>
        <path id="ArialMT-32" d="M 3222 541 
L 3222 0 
L 194 0 
Q 188 203 259 391 
Q 375 700 629 1000 
Q 884 1300 1366 1694 
Q 2113 2306 2375 2664 
Q 2638 3022 2638 3341 
Q 2638 3675 2398 3904 
Q 2159 4134 1775 4134 
Q 1369 4134 1125 3890 
Q 881 3647 878 3216 
L 300 3275 
Q 359 3922 746 4261 
Q 1134 4600 1788 4600 
Q 2447 4600 2831 4234 
Q 3216 3869 3216 3328 
Q 3216 3053 3103 2787 
Q 2991 2522 2730 2228 
Q 2469 1934 1863 1422 
Q 1356 997 1212 845 
Q 1069 694 975 541 
L 3222 541 
z
" transform="scale(0.015625)"/>
        <path id="ArialMT-30" d="M 266 2259 
Q 266 3072 433 3567 
Q 600 4063 929 4331 
Q 1259 4600 1759 4600 
Q 2128 4600 2406 4451 
Q 2684 4303 2865 4023 
Q 3047 3744 3150 3342 
Q 3253 2941 3253 2259 
Q 3253 1453 3087 958 
Q 2922 463 2592 192 
Q 2263 -78 1759 -78 
Q 1097 -78 719 397 
Q 266 969 266 2259 
z
M 844 2259 
Q 844 1131 1108 757 
Q 1372 384 1759 384 
Q 2147 384 2411 759 
Q 2675 1134 2675 2259 
Q 2675 3391 2411 3762 
Q 2147 4134 1753 4134 
Q 1366 4134 1134 3806 
Q 844 3388 844 2259 
z
" transform="scale(0.015625)"/>
       </defs>
       <use xlink:href="#ArialMT-32"/>
       <use xlink:href="#ArialMT-30" x="55.615234"/>
      </g>
     </g>
    </g>
    <g id="xtick_2">
     <g id="line2d_2">
      <g>
       <use xlink:href="#mc64f391403" x="92.076351" y="128.16" style="stroke: #000000; stroke-width: 0.8"/>
      </g>
     </g>
     <g id="text_2">
      <!-- 30 -->
      <g transform="translate(86.515413 142.317813) scale(0.1 -0.1)">
       <defs>
        <path id="ArialMT-33" d="M 269 1209 
L 831 1284 
Q 928 806 1161 595 
Q 1394 384 1728 384 
Q 2125 384 2398 659 
Q 2672 934 2672 1341 
Q 2672 1728 2419 1979 
Q 2166 2231 1775 2231 
Q 1616 2231 1378 2169 
L 1441 2663 
Q 1497 2656 1531 2656 
Q 1891 2656 2178 2843 
Q 2466 3031 2466 3422 
Q 2466 3731 2256 3934 
Q 2047 4138 1716 4138 
Q 1388 4138 1169 3931 
Q 950 3725 888 3313 
L 325 3413 
Q 428 3978 793 4289 
Q 1159 4600 1703 4600 
Q 2078 4600 2393 4439 
Q 2709 4278 2876 4000 
Q 3044 3722 3044 3409 
Q 3044 3113 2884 2869 
Q 2725 2625 2413 2481 
Q 2819 2388 3044 2092 
Q 3269 1797 3269 1353 
Q 3269 753 2831 336 
Q 2394 -81 1725 -81 
Q 1122 -81 723 278 
Q 325 638 269 1209 
z
" transform="scale(0.015625)"/>
       </defs>
       <use xlink:href="#ArialMT-33"/>
       <use xlink:href="#ArialMT-30" x="55.615234"/>
      </g>
     </g>
    </g>
    <g id="xtick_3">
     <g id="line2d_3">
      <g>
       <use xlink:href="#mc64f391403" x="155.928862" y="128.16" style="stroke: #000000; stroke-width: 0.8"/>
      </g>
     </g>
     <g id="text_3">
      <!-- 40 -->
      <g transform="translate(150.367925 142.317813) scale(0.1 -0.1)">
       <defs>
        <path id="ArialMT-34" d="M 2069 0 
L 2069 1097 
L 81 1097 
L 81 1613 
L 2172 4581 
L 2631 4581 
L 2631 1613 
L 3250 1613 
L 3250 1097 
L 2631 1097 
L 2631 0 
L 2069 0 
z
M 2069 1613 
L 2069 3678 
L 634 1613 
L 2069 1613 
z
" transform="scale(0.015625)"/>
       </defs>
       <use xlink:href="#ArialMT-34"/>
       <use xlink:href="#ArialMT-30" x="55.615234"/>
      </g>
     </g>
    </g>
    <g id="text_4">
     <!-- Time (h) -->
     <g transform="translate(92.278125 155.585) scale(0.1 -0.1)">
      <defs>
       <path id="ArialMT-54" d="M 1659 0 
L 1659 4041 
L 150 4041 
L 150 4581 
L 3781 4581 
L 3781 4041 
L 2266 4041 
L 2266 0 
L 1659 0 
z
" transform="scale(0.015625)"/>
       <path id="ArialMT-69" d="M 425 3934 
L 425 4581 
L 988 4581 
L 988 3934 
L 425 3934 
z
M 425 0 
L 425 3319 
L 988 3319 
L 988 0 
L 425 0 
z
" transform="scale(0.015625)"/>
       <path id="ArialMT-6d" d="M 422 0 
L 422 3319 
L 925 3319 
L 925 2853 
Q 1081 3097 1340 3245 
Q 1600 3394 1931 3394 
Q 2300 3394 2536 3241 
Q 2772 3088 2869 2813 
Q 3263 3394 3894 3394 
Q 4388 3394 4653 3120 
Q 4919 2847 4919 2278 
L 4919 0 
L 4359 0 
L 4359 2091 
Q 4359 2428 4304 2576 
Q 4250 2725 4106 2815 
Q 3963 2906 3769 2906 
Q 3419 2906 3187 2673 
Q 2956 2441 2956 1928 
L 2956 0 
L 2394 0 
L 2394 2156 
Q 2394 2531 2256 2718 
Q 2119 2906 1806 2906 
Q 1569 2906 1367 2781 
Q 1166 2656 1075 2415 
Q 984 2175 984 1722 
L 984 0 
L 422 0 
z
" transform="scale(0.015625)"/>
       <path id="ArialMT-65" d="M 2694 1069 
L 3275 997 
Q 3138 488 2766 206 
Q 2394 -75 1816 -75 
Q 1088 -75 661 373 
Q 234 822 234 1631 
Q 234 2469 665 2931 
Q 1097 3394 1784 3394 
Q 2450 3394 2872 2941 
Q 3294 2488 3294 1666 
Q 3294 1616 3291 1516 
L 816 1516 
Q 847 969 1125 678 
Q 1403 388 1819 388 
Q 2128 388 2347 550 
Q 2566 713 2694 1069 
z
M 847 1978 
L 2700 1978 
Q 2663 2397 2488 2606 
Q 2219 2931 1791 2931 
Q 1403 2931 1139 2672 
Q 875 2413 847 1978 
z
" transform="scale(0.015625)"/>
       <path id="ArialMT-20" transform="scale(0.015625)"/>
       <path id="ArialMT-28" d="M 1497 -1347 
Q 1031 -759 709 28 
Q 388 816 388 1659 
Q 388 2403 628 3084 
Q 909 3875 1497 4659 
L 1900 4659 
Q 1522 4009 1400 3731 
Q 1209 3300 1100 2831 
Q 966 2247 966 1656 
Q 966 153 1900 -1347 
L 1497 -1347 
z
" transform="scale(0.015625)"/>
       <path id="ArialMT-68" d="M 422 0 
L 422 4581 
L 984 4581 
L 984 2938 
Q 1378 3394 1978 3394 
Q 2347 3394 2619 3248 
Q 2891 3103 3008 2847 
Q 3125 2591 3125 2103 
L 3125 0 
L 2563 0 
L 2563 2103 
Q 2563 2525 2380 2717 
Q 2197 2909 1863 2909 
Q 1613 2909 1392 2779 
Q 1172 2650 1078 2428 
Q 984 2206 984 1816 
L 984 0 
L 422 0 
z
" transform="scale(0.015625)"/>
       <path id="ArialMT-29" d="M 791 -1347 
L 388 -1347 
Q 1322 153 1322 1656 
Q 1322 2244 1188 2822 
Q 1081 3291 891 3722 
Q 769 4003 388 4659 
L 791 4659 
Q 1378 3875 1659 3084 
Q 1900 2403 1900 1659 
Q 1900 816 1576 28 
Q 1253 -759 791 -1347 
z
" transform="scale(0.015625)"/>
      </defs>
      <use xlink:href="#ArialMT-54"/>
      <use xlink:href="#ArialMT-69" x="57.333984"/>
      <use xlink:href="#ArialMT-6d" x="79.550781"/>
      <use xlink:href="#ArialMT-65" x="162.851562"/>
      <use xlink:href="#ArialMT-20" x="218.466797"/>
      <use xlink:href="#ArialMT-28" x="246.25"/>
      <use xlink:href="#ArialMT-68" x="279.550781"/>
      <use xlink:href="#ArialMT-29" x="335.166016"/>
     </g>
    </g>
   </g>
   <g id="matplotlib.axis_2">
    <g id="ytick_1">
     <g id="line2d_4">
      <defs>
       <path id="mb3422a7cdd" d="M 0 0 
L -3.5 0 
" style="stroke: #000000; stroke-width: 0.8"/>
      </defs>
      <g>
       <use xlink:href="#mb3422a7cdd" x="27" y="126.498868" style="stroke: #000000; stroke-width: 0.8"/>
      </g>
     </g>
     <g id="text_5">
      <!-- 0 -->
      <g transform="translate(14.439062 130.077774) scale(0.1 -0.1)">
       <use xlink:href="#ArialMT-30"/>
      </g>
     </g>
    </g>
    <g id="ytick_2">
     <g id="line2d_5">
      <g>
       <use xlink:href="#mb3422a7cdd" x="27" y="95.642213" style="stroke: #000000; stroke-width: 0.8"/>
      </g>
     </g>
     <g id="text_6">
      <!-- 2 -->
      <g transform="translate(14.439062 99.22112) scale(0.1 -0.1)">
       <use xlink:href="#ArialMT-32"/>
      </g>
     </g>
    </g>
    <g id="ytick_3">
     <g id="line2d_6">
      <g>
       <use xlink:href="#mb3422a7cdd" x="27" y="64.785559" style="stroke: #000000; stroke-width: 0.8"/>
      </g>
     </g>
     <g id="text_7">
      <!-- 4 -->
      <g transform="translate(14.439062 68.364466) scale(0.1 -0.1)">
       <use xlink:href="#ArialMT-34"/>
      </g>
     </g>
    </g>
    <g id="ytick_4">
     <g id="line2d_7">
      <g>
       <use xlink:href="#mb3422a7cdd" x="27" y="33.928905" style="stroke: #000000; stroke-width: 0.8"/>
      </g>
     </g>
     <g id="text_8">
      <!-- 6 -->
      <g transform="translate(14.439062 37.507812) scale(0.1 -0.1)">
       <defs>
        <path id="ArialMT-36" d="M 3184 3459 
L 2625 3416 
Q 2550 3747 2413 3897 
Q 2184 4138 1850 4138 
Q 1581 4138 1378 3988 
Q 1113 3794 959 3422 
Q 806 3050 800 2363 
Q 1003 2672 1297 2822 
Q 1591 2972 1913 2972 
Q 2475 2972 2870 2558 
Q 3266 2144 3266 1488 
Q 3266 1056 3080 686 
Q 2894 316 2569 119 
Q 2244 -78 1831 -78 
Q 1128 -78 684 439 
Q 241 956 241 2144 
Q 241 3472 731 4075 
Q 1159 4600 1884 4600 
Q 2425 4600 2770 4297 
Q 3116 3994 3184 3459 
z
M 888 1484 
Q 888 1194 1011 928 
Q 1134 663 1356 523 
Q 1578 384 1822 384 
Q 2178 384 2434 671 
Q 2691 959 2691 1453 
Q 2691 1928 2437 2201 
Q 2184 2475 1800 2475 
Q 1419 2475 1153 2201 
Q 888 1928 888 1484 
z
" transform="scale(0.015625)"/>
       </defs>
       <use xlink:href="#ArialMT-36"/>
      </g>
     </g>
    </g>
    <g id="text_9">
     <!-- Mean p53 level (FC) -->
     <g transform="translate(8.334375 118.012188) rotate(-90) scale(0.1 -0.1)">
      <defs>
       <path id="ArialMT-4d" d="M 475 0 
L 475 4581 
L 1388 4581 
L 2472 1338 
Q 2622 884 2691 659 
Q 2769 909 2934 1394 
L 4031 4581 
L 4847 4581 
L 4847 0 
L 4263 0 
L 4263 3834 
L 2931 0 
L 2384 0 
L 1059 3900 
L 1059 0 
L 475 0 
z
" transform="scale(0.015625)"/>
       <path id="ArialMT-61" d="M 2588 409 
Q 2275 144 1986 34 
Q 1697 -75 1366 -75 
Q 819 -75 525 192 
Q 231 459 231 875 
Q 231 1119 342 1320 
Q 453 1522 633 1644 
Q 813 1766 1038 1828 
Q 1203 1872 1538 1913 
Q 2219 1994 2541 2106 
Q 2544 2222 2544 2253 
Q 2544 2597 2384 2738 
Q 2169 2928 1744 2928 
Q 1347 2928 1158 2789 
Q 969 2650 878 2297 
L 328 2372 
Q 403 2725 575 2942 
Q 747 3159 1072 3276 
Q 1397 3394 1825 3394 
Q 2250 3394 2515 3294 
Q 2781 3194 2906 3042 
Q 3031 2891 3081 2659 
Q 3109 2516 3109 2141 
L 3109 1391 
Q 3109 606 3145 398 
Q 3181 191 3288 0 
L 2700 0 
Q 2613 175 2588 409 
z
M 2541 1666 
Q 2234 1541 1622 1453 
Q 1275 1403 1131 1340 
Q 988 1278 909 1158 
Q 831 1038 831 891 
Q 831 666 1001 516 
Q 1172 366 1500 366 
Q 1825 366 2078 508 
Q 2331 650 2450 897 
Q 2541 1088 2541 1459 
L 2541 1666 
z
" transform="scale(0.015625)"/>
       <path id="ArialMT-6e" d="M 422 0 
L 422 3319 
L 928 3319 
L 928 2847 
Q 1294 3394 1984 3394 
Q 2284 3394 2536 3286 
Q 2788 3178 2913 3003 
Q 3038 2828 3088 2588 
Q 3119 2431 3119 2041 
L 3119 0 
L 2556 0 
L 2556 2019 
Q 2556 2363 2490 2533 
Q 2425 2703 2258 2804 
Q 2091 2906 1866 2906 
Q 1506 2906 1245 2678 
Q 984 2450 984 1813 
L 984 0 
L 422 0 
z
" transform="scale(0.015625)"/>
       <path id="ArialMT-70" d="M 422 -1272 
L 422 3319 
L 934 3319 
L 934 2888 
Q 1116 3141 1344 3267 
Q 1572 3394 1897 3394 
Q 2322 3394 2647 3175 
Q 2972 2956 3137 2557 
Q 3303 2159 3303 1684 
Q 3303 1175 3120 767 
Q 2938 359 2589 142 
Q 2241 -75 1856 -75 
Q 1575 -75 1351 44 
Q 1128 163 984 344 
L 984 -1272 
L 422 -1272 
z
M 931 1641 
Q 931 1000 1190 694 
Q 1450 388 1819 388 
Q 2194 388 2461 705 
Q 2728 1022 2728 1688 
Q 2728 2322 2467 2637 
Q 2206 2953 1844 2953 
Q 1484 2953 1207 2617 
Q 931 2281 931 1641 
z
" transform="scale(0.015625)"/>
       <path id="ArialMT-35" d="M 266 1200 
L 856 1250 
Q 922 819 1161 601 
Q 1400 384 1738 384 
Q 2144 384 2425 690 
Q 2706 997 2706 1503 
Q 2706 1984 2436 2262 
Q 2166 2541 1728 2541 
Q 1456 2541 1237 2417 
Q 1019 2294 894 2097 
L 366 2166 
L 809 4519 
L 3088 4519 
L 3088 3981 
L 1259 3981 
L 1013 2750 
Q 1425 3038 1878 3038 
Q 2478 3038 2890 2622 
Q 3303 2206 3303 1553 
Q 3303 931 2941 478 
Q 2500 -78 1738 -78 
Q 1113 -78 717 272 
Q 322 622 266 1200 
z
" transform="scale(0.015625)"/>
       <path id="ArialMT-6c" d="M 409 0 
L 409 4581 
L 972 4581 
L 972 0 
L 409 0 
z
" transform="scale(0.015625)"/>
       <path id="ArialMT-76" d="M 1344 0 
L 81 3319 
L 675 3319 
L 1388 1331 
Q 1503 1009 1600 663 
Q 1675 925 1809 1294 
L 2547 3319 
L 3125 3319 
L 1869 0 
L 1344 0 
z
" transform="scale(0.015625)"/>
       <path id="ArialMT-46" d="M 525 0 
L 525 4581 
L 3616 4581 
L 3616 4041 
L 1131 4041 
L 1131 2622 
L 3281 2622 
L 3281 2081 
L 1131 2081 
L 1131 0 
L 525 0 
z
" transform="scale(0.015625)"/>
       <path id="ArialMT-43" d="M 3763 1606 
L 4369 1453 
Q 4178 706 3683 314 
Q 3188 -78 2472 -78 
Q 1731 -78 1267 223 
Q 803 525 561 1097 
Q 319 1669 319 2325 
Q 319 3041 592 3573 
Q 866 4106 1370 4382 
Q 1875 4659 2481 4659 
Q 3169 4659 3637 4309 
Q 4106 3959 4291 3325 
L 3694 3184 
Q 3534 3684 3231 3912 
Q 2928 4141 2469 4141 
Q 1941 4141 1586 3887 
Q 1231 3634 1087 3207 
Q 944 2781 944 2328 
Q 944 1744 1114 1308 
Q 1284 872 1643 656 
Q 2003 441 2422 441 
Q 2931 441 3284 734 
Q 3638 1028 3763 1606 
z
" transform="scale(0.015625)"/>
      </defs>
      <use xlink:href="#ArialMT-4d"/>
      <use xlink:href="#ArialMT-65" x="83.300781"/>
      <use xlink:href="#ArialMT-61" x="138.916016"/>
      <use xlink:href="#ArialMT-6e" x="194.53125"/>
      <use xlink:href="#ArialMT-20" x="250.146484"/>
      <use xlink:href="#ArialMT-70" x="277.929688"/>
      <use xlink:href="#ArialMT-35" x="333.544922"/>
      <use xlink:href="#ArialMT-33" x="389.160156"/>
      <use xlink:href="#ArialMT-20" x="444.775391"/>
      <use xlink:href="#ArialMT-6c" x="472.558594"/>
      <use xlink:href="#ArialMT-65" x="494.775391"/>
      <use xlink:href="#ArialMT-76" x="550.390625"/>
      <use xlink:href="#ArialMT-65" x="600.390625"/>
      <use xlink:href="#ArialMT-6c" x="656.005859"/>
      <use xlink:href="#ArialMT-20" x="678.222656"/>
      <use xlink:href="#ArialMT-28" x="706.005859"/>
      <use xlink:href="#ArialMT-46" x="739.306641"/>
      <use xlink:href="#ArialMT-43" x="800.390625"/>
      <use xlink:href="#ArialMT-29" x="872.607422"/>
     </g>
    </g>
   </g>
   <g id="line2d_8">
    <path d="M 35.673299 96.770429 
L 36.737508 95.352181 
L 37.801716 96.05386 
L 38.865925 92.800441 
L 39.930134 92.892034 
L 40.994342 89.277311 
L 42.058551 89.211002 
L 43.122759 84.998295 
L 44.186968 85.645967 
L 45.251176 82.499148 
L 46.315385 84.292803 
L 47.379593 83.333314 
L 48.443802 77.981915 
L 50.572219 94.900694 
L 51.636427 100.630907 
L 52.700636 102.867551 
L 53.764844 104.542259 
L 54.829053 105.291936 
L 55.893261 105.375258 
L 56.95747 105.705572 
L 59.085887 105.569496 
L 60.150095 105.416424 
L 61.214304 99.83463 
L 62.278512 102.190316 
L 63.342721 100.216147 
L 65.471138 95.523882 
L 66.535346 92.212704 
L 67.599555 89.691608 
L 68.663764 86.590403 
L 69.727972 83.041115 
L 70.792181 80.604598 
L 71.856389 77.248199 
L 72.920598 75.333516 
L 73.984806 67.29841 
L 75.049015 75.815775 
L 76.113223 87.919346 
L 77.177432 95.792439 
L 78.24164 99.731446 
L 79.305849 102.287053 
L 80.370057 103.319099 
L 81.434266 103.925809 
L 82.498474 104.689999 
L 83.562683 104.140611 
L 84.626891 104.409239 
L 85.6911 104.256743 
L 86.755308 98.250866 
L 87.819517 100.809645 
L 88.883725 98.762162 
L 91.012142 94.172203 
L 92.076351 91.065146 
L 93.140559 88.865118 
L 94.204768 86.151426 
L 95.268976 82.421705 
L 96.333185 80.493198 
L 97.397394 77.447139 
L 98.461602 76.451003 
L 99.525811 67.720189 
L 100.590019 74.139728 
L 101.654228 85.243741 
L 102.718436 92.672892 
L 103.782645 97.075433 
L 104.846853 99.449014 
L 105.911062 100.862301 
L 106.97527 101.951255 
L 108.039479 101.963426 
L 109.103687 102.802446 
L 110.167896 102.775399 
L 111.232104 102.499727 
L 112.296313 97.573191 
L 113.360521 98.947587 
L 115.488938 95.366227 
L 116.553147 93.110767 
L 117.617355 90.398837 
L 118.681564 88.497084 
L 119.745772 85.265251 
L 120.809981 82.545701 
L 121.874189 80.238894 
L 122.938398 76.058644 
L 124.002606 76.729449 
L 125.066815 65.269767 
L 126.131024 75.170914 
L 127.195232 83.282043 
L 128.259441 92.832761 
L 129.323649 96.011716 
L 130.387858 99.843923 
L 131.452066 100.084102 
L 132.516275 101.78492 
L 133.580483 101.590307 
L 134.644692 102.208884 
L 135.7089 101.671128 
L 136.773109 102.317113 
L 137.837317 96.20441 
L 138.901526 98.072377 
L 139.965734 96.691154 
L 141.029943 94.424247 
L 142.094151 90.504536 
L 143.15836 89.500159 
L 144.222568 87.821482 
L 145.286777 83.784868 
L 146.350985 82.41185 
L 147.415194 78.570954 
L 148.479402 77.093255 
L 149.543611 73.992489 
L 150.607819 64.500485 
L 151.672028 70.277225 
L 152.736236 82.683738 
L 154.864654 96.020602 
L 155.928862 97.5676 
L 156.993071 100.357231 
L 158.057279 100.127088 
L 159.121488 101.943424 
L 160.185696 100.848486 
L 161.249905 102.103811 
L 162.314113 100.712439 
L 163.378322 96.871098 
L 165.506739 96.578666 
L 166.570947 92.95858 
L 167.635156 91.936171 
L 168.699364 88.047212 
L 169.763573 86.666376 
L 170.827781 83.922398 
L 171.89199 81.535575 
L 174.020407 75.613623 
L 175.084615 74.046442 
L 176.148824 62.897434 
L 177.213032 69.910983 
L 178.277241 78.728878 
L 179.341449 88.784669 
L 180.405658 92.5906 
L 181.469866 97.325804 
L 182.534075 98.147898 
L 183.598284 100.50945 
L 184.662492 99.991217 
L 185.726701 101.168721 
L 186.790909 100.412157 
L 186.790909 100.412157 
" clip-path="url(#pa222b512ab)" style="fill: none; stroke: #4d4d4d; stroke-width: 1.5; stroke-linecap: square"/>
   </g>
   <g id="LineCollection_1">
    <path d="M 34.609091 123.12 
L 34.609091 22.32 
" clip-path="url(#pa222b512ab)" style="fill: none; stroke-dasharray: 5.55,2.4; stroke-dashoffset: 0; stroke: #7f7f7f; stroke-width: 1.5"/>
    <path d="M 60.150095 123.12 
L 60.150095 22.32 
" clip-path="url(#pa222b512ab)" style="fill: none; stroke-dasharray: 5.55,2.4; stroke-dashoffset: 0; stroke: #7f7f7f; stroke-width: 1.5"/>
    <path d="M 85.6911 123.12 
L 85.6911 22.32 
" clip-path="url(#pa222b512ab)" style="fill: none; stroke-dasharray: 5.55,2.4; stroke-dashoffset: 0; stroke: #7f7f7f; stroke-width: 1.5"/>
    <path d="M 111.232104 123.12 
L 111.232104 22.32 
" clip-path="url(#pa222b512ab)" style="fill: none; stroke-dasharray: 5.55,2.4; stroke-dashoffset: 0; stroke: #7f7f7f; stroke-width: 1.5"/>
    <path d="M 136.773109 123.12 
L 136.773109 22.32 
" clip-path="url(#pa222b512ab)" style="fill: none; stroke-dasharray: 5.55,2.4; stroke-dashoffset: 0; stroke: #7f7f7f; stroke-width: 1.5"/>
    <path d="M 162.314113 123.12 
L 162.314113 22.32 
" clip-path="url(#pa222b512ab)" style="fill: none; stroke-dasharray: 5.55,2.4; stroke-dashoffset: 0; stroke: #7f7f7f; stroke-width: 1.5"/>
   </g>
   <g id="patch_3">
    <path d="M 27 128.16 
L 27 17.28 
" style="fill: none; stroke: #000000; stroke-width: 0.8; stroke-linejoin: miter; stroke-linecap: square"/>
   </g>
   <g id="patch_4">
    <path d="M 194.4 128.16 
L 194.4 17.28 
" style="fill: none; stroke: #000000; stroke-width: 0.8; stroke-linejoin: miter; stroke-linecap: square"/>
   </g>
   <g id="patch_5">
    <path d="M 27 128.16 
L 194.4 128.16 
" style="fill: none; stroke: #000000; stroke-width: 0.8; stroke-linejoin: miter; stroke-linecap: square"/>
   </g>
   <g id="patch_6">
    <path d="M 27 17.28 
L 194.4 17.28 
" style="fill: none; stroke: #000000; stroke-width: 0.8; stroke-linejoin: miter; stroke-linecap: square"/>
   </g>
  </g>
 </g>
 <defs>
  <clipPath id="pa222b512ab">
   <rect x="27" y="17.28" width="167.4" height="110.88"/>
  </clipPath>
 </defs>
</svg>
