<?xml version="1.0" encoding="utf-8" standalone="no"?>
<!DOCTYPE svg PUBLIC "-//W3C//DTD SVG 1.1//EN"
  "http://www.w3.org/Graphics/SVG/1.1/DTD/svg11.dtd">
<svg xmlns:xlink="http://www.w3.org/1999/xlink" width="158.4pt" height="144pt" viewBox="0 0 158.4 144" xmlns="http://www.w3.org/2000/svg" version="1.1">
 <metadata>
  <rdf:RDF xmlns:dc="http://purl.org/dc/elements/1.1/" xmlns:cc="http://creativecommons.org/ns#" xmlns:rdf="http://www.w3.org/1999/02/22-rdf-syntax-ns#">
   <cc:Work>
    <dc:type rdf:resource="http://purl.org/dc/dcmitype/StillImage"/>
    <dc:date>2024-07-09T19:54:39.470274</dc:date>
    <dc:format>image/svg+xml</dc:format>
    <dc:creator>
     <cc:Agent>
      <dc:title>Matplotlib v3.8.3, https://matplotlib.org/</dc:title>
     </cc:Agent>
    </dc:creator>
   </cc:Work>
  </rdf:RDF>
 </metadata>
 <defs>
  <style type="text/css">*{stroke-linejoin: round; stroke-linecap: butt}</style>
 </defs>
 <g id="figure_1">
  <g id="patch_1">
   <path d="M 0 144 
L 158.4 144 
L 158.4 0 
L 0 0 
z
" style="fill: #ffffff"/>
  </g>
  <g id="axes_1">
   <g id="patch_2">
    <path d="M 19.8 128.16 
L 142.56 128.16 
L 142.56 17.28 
L 19.8 17.28 
z
" style="fill: #f2f2f2"/>
   </g>
   <g id="PolyCollection_1">
    <path d="M 19.8 72.33444 
L 19.8 98.586778 
L 20.086822 98.541203 
L 20.373645 96.731528 
L 20.660467 94.652318 
L 20.94729 91.739785 
L 21.234112 90.424359 
L 21.520935 88.489589 
L 21.807757 88.047104 
L 22.094579 87.223912 
L 22.381402 88.274358 
L 22.668224 88.802161 
L 22.955047 90.588966 
L 23.241869 91.599645 
L 23.528692 94.242447 
L 23.815514 95.169311 
L 24.102336 97.1539 
L 24.389159 97.295425 
L 24.675981 98.821428 
L 24.962804 98.892841 
L 25.249626 100.400989 
L 25.536449 100.034321 
L 25.823271 100.654426 
L 26.110093 100.510919 
L 26.396916 101.391661 
L 26.683738 100.437543 
L 26.970561 100.55263 
L 27.257383 99.820641 
L 27.544206 99.630712 
L 27.831028 99.003226 
L 28.11785 98.312103 
L 28.404673 97.172158 
L 28.691495 96.582398 
L 28.978318 96.339603 
L 29.26514 90.881281 
L 29.551963 92.852128 
L 29.838785 97.503747 
L 30.125607 100.033638 
L 30.41243 102.287822 
L 30.699252 103.124774 
L 30.986075 103.880015 
L 31.272897 103.963469 
L 31.55972 104.256951 
L 31.846542 104.266638 
L 32.133364 104.242427 
L 32.420187 103.279707 
L 32.707009 103.182812 
L 32.993832 102.586964 
L 33.280654 102.669393 
L 33.567477 101.400514 
L 33.854299 101.649659 
L 34.141121 100.176129 
L 34.427944 99.950794 
L 34.714766 97.279743 
L 35.001589 96.522763 
L 35.288411 94.170625 
L 35.575234 93.874385 
L 35.862056 91.639297 
L 36.148879 92.289227 
L 36.435701 91.015842 
L 36.722523 92.749896 
L 37.009346 93.437215 
L 37.296168 95.882945 
L 37.582991 97.460115 
L 37.869813 99.498321 
L 38.156636 100.813784 
L 38.443458 101.970279 
L 38.73028 96.530142 
L 39.017103 98.235961 
L 39.303925 97.360871 
L 39.590748 96.311707 
L 39.87757 94.417491 
L 40.164393 93.621743 
L 40.451215 91.464183 
L 40.738037 91.539684 
L 41.02486 88.703947 
L 41.311682 88.992552 
L 41.598505 86.731815 
L 41.885327 88.139869 
L 42.17215 86.390253 
L 42.458972 88.042175 
L 42.745794 87.367359 
L 43.032617 89.00846 
L 43.319439 88.900486 
L 43.606262 91.258985 
L 43.893084 91.538031 
L 44.179907 93.3515 
L 44.466729 93.660852 
L 44.753551 95.976559 
L 45.040374 95.612004 
L 45.327196 97.167877 
L 45.614019 96.651116 
L 45.900841 97.229004 
L 46.187664 96.931587 
L 46.474486 97.665767 
L 46.761308 97.145153 
L 47.048131 97.544898 
L 47.334953 96.487979 
L 47.621776 96.625135 
L 47.908598 95.706436 
L 48.195421 89.042537 
L 48.482243 92.389267 
L 48.769065 96.439959 
L 49.055888 98.608904 
L 49.34271 99.837418 
L 49.629533 100.63916 
L 49.916355 100.750721 
L 50.203178 101.057364 
L 50.49 100.814046 
L 50.776822 100.748789 
L 51.063645 99.955741 
L 51.350467 100.196838 
L 51.63729 99.134019 
L 51.924112 99.169246 
L 52.210935 97.662016 
L 52.497757 97.425295 
L 52.784579 96.115383 
L 53.071402 95.676764 
L 53.358224 93.868663 
L 53.645047 93.990171 
L 53.931869 92.021499 
L 54.218692 93.023574 
L 54.505514 91.52197 
L 54.792336 93.033578 
L 55.079159 91.950865 
L 55.365981 93.789174 
L 55.652804 93.447324 
L 55.939626 95.521829 
L 56.226449 95.388684 
L 56.513271 97.416893 
L 56.800093 97.592207 
L 57.086916 99.828915 
L 57.373738 99.64372 
L 57.660561 96.519169 
L 57.947383 95.617024 
L 58.234206 96.373574 
L 58.521028 93.816613 
L 58.80785 93.155804 
L 59.094673 90.209996 
L 59.381495 89.731922 
L 59.668318 87.001245 
L 59.95514 85.883039 
L 60.241963 84.346318 
L 60.528785 83.907006 
L 60.815607 83.642734 
L 61.10243 84.352704 
L 61.389252 85.168213 
L 61.676075 86.325155 
L 61.962897 87.34525 
L 62.24972 88.822461 
L 62.536542 90.175593 
L 62.823364 91.18184 
L 63.110187 92.839389 
L 63.397009 94.077592 
L 63.683832 94.39915 
L 63.970654 95.064012 
L 64.257477 96.64487 
L 64.544299 96.089049 
L 64.831121 97.650922 
L 65.117944 96.598813 
L 65.404766 97.433989 
L 65.691589 96.216789 
L 65.978411 96.941771 
L 66.265234 95.556871 
L 66.552056 95.898064 
L 66.838879 94.264484 
L 67.125701 91.352041 
L 67.412523 88.875967 
L 67.699346 94.519817 
L 67.986168 96.231913 
L 68.272991 98.020218 
L 68.559813 98.636443 
L 68.846636 98.727994 
L 69.133458 98.810042 
L 69.42028 98.84883 
L 69.707103 98.915297 
L 69.993925 98.60459 
L 70.280748 98.610294 
L 70.56757 97.857725 
L 70.854393 97.756653 
L 71.141215 97.301916 
L 71.428037 97.239322 
L 71.71486 95.875058 
L 72.001682 95.950025 
L 72.288505 94.358168 
L 72.575327 94.970302 
L 72.86215 92.303638 
L 73.148972 93.013805 
L 73.435794 91.061659 
L 73.722617 91.253116 
L 74.009439 90.565477 
L 74.296262 90.881207 
L 74.583084 91.084392 
L 74.869907 92.315821 
L 75.156729 93.380213 
L 75.443551 94.358038 
L 75.730374 95.782899 
L 76.017196 96.087252 
L 76.304019 97.448301 
L 76.590841 93.647252 
L 76.877664 93.679928 
L 77.164486 92.940572 
L 77.451308 93.247409 
L 77.738131 91.018654 
L 78.024953 91.586281 
L 78.311776 89.461156 
L 78.598598 89.879943 
L 78.885421 87.929348 
L 79.172243 88.163919 
L 79.459065 87.534889 
L 79.745888 86.798414 
L 80.03271 86.575221 
L 80.319533 87.112632 
L 80.606355 87.53735 
L 80.893178 89.026295 
L 81.18 89.992826 
L 81.466822 91.295981 
L 81.753645 91.964613 
L 82.040467 92.745606 
L 82.32729 93.744558 
L 82.614112 94.02792 
L 82.900935 95.030251 
L 83.187757 94.42813 
L 83.474579 95.207114 
L 83.761402 94.431419 
L 84.048224 95.269926 
L 84.335047 93.972431 
L 84.621869 95.597143 
L 84.908692 93.639695 
L 85.195514 94.360041 
L 85.482336 93.011676 
L 85.769159 93.348742 
L 86.055981 90.98648 
L 86.342804 88.686419 
L 86.629626 92.345768 
L 86.916449 94.551198 
L 87.203271 95.993472 
L 87.490093 96.587774 
L 87.776916 97.449466 
L 88.063738 97.505303 
L 88.350561 98.231135 
L 88.637383 97.198604 
L 88.924206 98.276054 
L 89.211028 96.942548 
L 89.49785 98.062555 
L 89.784673 96.229502 
L 90.071495 96.958223 
L 90.358318 94.935076 
L 90.64514 95.3991 
L 90.931963 93.532869 
L 91.218785 93.889906 
L 91.505607 91.189893 
L 91.79243 91.488231 
L 92.079252 90.612565 
L 92.366075 90.105602 
L 92.652897 89.81051 
L 92.93972 89.885099 
L 93.226542 90.176762 
L 93.513364 90.737976 
L 93.800187 92.139486 
L 94.087009 92.57545 
L 94.373832 94.474389 
L 94.660654 93.719413 
L 94.947477 94.98304 
L 95.234299 94.809661 
L 95.521121 96.460903 
L 95.807944 91.324288 
L 96.094766 92.279493 
L 96.381589 89.865755 
L 96.668411 90.621679 
L 96.955234 87.544265 
L 97.242056 88.478904 
L 97.528879 86.133324 
L 97.815701 86.717132 
L 98.102523 84.76792 
L 98.389346 85.937436 
L 98.676168 83.967729 
L 98.962991 85.477726 
L 99.249813 84.457224 
L 99.536636 86.741068 
L 99.823458 85.824654 
L 100.11028 88.200351 
L 100.397103 87.431888 
L 100.683925 89.370626 
L 100.970748 88.911421 
L 101.25757 90.854091 
L 101.544393 90.053234 
L 101.831215 91.791128 
L 102.118037 90.999207 
L 102.40486 92.919835 
L 102.691682 91.874937 
L 102.978505 93.063505 
L 103.265327 92.708848 
L 103.55215 92.963295 
L 103.838972 92.39023 
L 104.125794 93.042687 
L 104.412617 92.102655 
L 104.699439 92.531093 
L 104.986262 90.392015 
L 105.273084 87.524877 
L 105.559907 90.599027 
L 105.846729 94.266511 
L 106.133551 95.315398 
L 106.420374 96.418199 
L 106.707196 95.546955 
L 106.994019 96.426846 
L 107.280841 95.617436 
L 107.567664 96.468346 
L 107.854486 95.537974 
L 108.141308 95.840045 
L 108.428131 94.931614 
L 108.714953 95.583421 
L 109.001776 94.426744 
L 109.288598 94.743429 
L 109.575421 93.255684 
L 109.862243 93.017773 
L 110.149065 91.146334 
L 110.435888 90.732284 
L 110.72271 89.191647 
L 111.009533 88.721896 
L 111.296355 87.267673 
L 111.583178 87.112849 
L 111.87 86.143486 
L 112.156822 86.929759 
L 112.443645 86.318588 
L 112.730467 87.696185 
L 113.01729 86.955274 
L 113.304112 88.800891 
L 113.590935 88.524582 
L 113.877757 90.088063 
L 114.164579 90.02125 
L 114.451402 91.751504 
L 114.738224 85.53632 
L 115.025047 87.767037 
L 115.311869 86.069006 
L 115.598692 86.328228 
L 115.885514 85.13477 
L 116.172336 84.723989 
L 116.459159 84.642952 
L 116.745981 84.544229 
L 117.032804 84.810041 
L 117.319626 85.61485 
L 117.606449 84.986882 
L 117.893271 85.700283 
L 118.180093 85.206733 
L 118.466916 86.056119 
L 118.753738 85.524375 
L 119.040561 87.092881 
L 119.327383 87.758662 
L 119.614206 89.166237 
L 119.901028 88.39067 
L 120.18785 89.66924 
L 120.474673 89.074993 
L 120.761495 90.598266 
L 121.048318 89.465515 
L 121.33514 91.199933 
L 121.621963 90.153872 
L 121.908785 91.514914 
L 122.195607 90.072299 
L 122.48243 91.31 
L 122.769252 89.495198 
L 123.056075 90.189164 
L 123.342897 88.529327 
L 123.62972 88.565425 
L 123.916542 87.320075 
L 124.203364 82.641013 
L 124.490187 86.275563 
L 124.777009 90.912091 
L 125.063832 92.225619 
L 125.350654 93.958796 
L 125.637477 93.83749 
L 125.924299 94.949806 
L 126.211121 94.457766 
L 126.497944 95.168214 
L 126.784766 94.420125 
L 127.071589 94.986934 
L 127.358411 94.211643 
L 127.645234 94.16218 
L 127.932056 93.216957 
L 128.218879 93.322526 
L 128.505701 92.072289 
L 128.792523 92.461804 
L 129.079346 91.123571 
L 129.366168 90.33984 
L 129.652991 89.353473 
L 129.939813 88.798426 
L 130.226636 88.286645 
L 130.513458 87.829926 
L 130.80028 86.875553 
L 131.087103 86.392348 
L 131.373925 85.859292 
L 131.660748 86.418179 
L 131.94757 86.43314 
L 132.234393 87.313207 
L 132.521215 87.611734 
L 132.808037 89.144907 
L 133.09486 89.358382 
L 133.381682 90.79878 
L 133.668505 83.599983 
L 133.955327 85.256467 
L 134.24215 84.08972 
L 134.528972 83.876402 
L 134.815794 82.174828 
L 135.102617 82.402087 
L 135.389439 81.038991 
L 135.676262 82.038788 
L 135.963084 81.179286 
L 136.249907 82.763365 
L 136.536729 81.728045 
L 136.823551 84.155346 
L 137.110374 82.893676 
L 137.397196 84.897741 
L 137.684019 83.94532 
L 137.970841 86.202213 
L 138.257664 85.303377 
L 138.544486 87.511461 
L 138.831308 86.556341 
L 139.118131 88.771367 
L 139.404953 87.874272 
L 139.691776 89.905712 
L 139.978598 89.064391 
L 140.265421 90.680557 
L 140.552243 89.54899 
L 140.839065 91.181551 
L 141.125888 89.965696 
L 141.41271 91.131906 
L 141.699533 90.149707 
L 141.986355 91.120789 
L 142.273178 90.106976 
L 142.56 91.262103 
L 142.846822 89.642189 
L 143.133645 85.006939 
L 143.420467 87.749698 
L 143.70729 91.714023 
L 143.994112 91.708806 
L 144.280935 93.398995 
L 144.567757 92.803419 
L 144.854579 94.058706 
L 145.141402 93.190254 
L 145.428224 94.472904 
L 145.715047 93.199499 
L 146.001869 94.19894 
L 146.288692 92.813405 
L 146.575514 93.492744 
L 146.862336 92.292821 
L 147.149159 92.705005 
L 147.435981 91.40421 
L 147.722804 91.191681 
L 148.009626 89.642874 
L 148.296449 89.899367 
L 148.583271 87.773336 
L 148.870093 88.256248 
L 149.156916 86.480719 
L 149.443738 87.144177 
L 149.730561 85.444605 
L 150.017383 87.265309 
L 150.304206 85.204145 
L 150.591028 86.63256 
L 150.87785 85.368132 
L 151.164673 87.437702 
L 151.164673 32.321254 
L 151.164673 32.321254 
L 150.87785 28.301969 
L 150.591028 30.854721 
L 150.304206 28.376786 
L 150.017383 30.308538 
L 149.730561 30.148996 
L 149.443738 34.242551 
L 149.156916 32.818679 
L 148.870093 37.209943 
L 148.583271 36.971398 
L 148.296449 41.185047 
L 148.009626 41.068928 
L 147.722804 45.57918 
L 147.435981 45.324358 
L 147.149159 49.226785 
L 146.862336 48.677609 
L 146.575514 51.992447 
L 146.288692 51.55698 
L 146.001869 54.736232 
L 145.715047 52.342274 
L 145.428224 54.870803 
L 145.141402 52.001841 
L 144.854579 54.343732 
L 144.567757 50.20042 
L 144.280935 50.170833 
L 143.994112 44.85106 
L 143.70729 40.463915 
L 143.420467 29.134724 
L 143.133645 22.38669 
L 142.846822 37.709305 
L 142.56 40.354115 
L 142.273178 39.405649 
L 141.986355 42.104984 
L 141.699533 41.009705 
L 141.41271 43.623985 
L 141.125888 41.783315 
L 140.839065 44.094178 
L 140.552243 41.205974 
L 140.265421 43.862256 
L 139.978598 41.213704 
L 139.691776 43.627835 
L 139.404953 40.258669 
L 139.118131 42.490904 
L 138.831308 38.087868 
L 138.544486 39.937426 
L 138.257664 34.705944 
L 137.970841 36.675808 
L 137.684019 31.451592 
L 137.397196 33.774615 
L 137.110374 29.721072 
L 136.823551 33.206539 
L 136.536729 29.454191 
L 136.249907 32.78791 
L 135.963084 29.746564 
L 135.676262 33.370539 
L 135.389439 31.166214 
L 135.102617 34.072495 
L 134.815794 32.613769 
L 134.528972 35.120344 
L 134.24215 34.365722 
L 133.955327 35.381467 
L 133.668505 31.567948 
L 133.381682 46.556109 
L 133.09486 42.577929 
L 132.808037 42.329526 
L 132.521215 40.295097 
L 132.234393 40.288774 
L 131.94757 38.987915 
L 131.660748 39.195531 
L 131.373925 37.76638 
L 131.087103 37.835571 
L 130.80028 37.031081 
L 130.513458 38.609728 
L 130.226636 36.996548 
L 129.939813 41.690052 
L 129.652991 43.06148 
L 129.366168 45.964446 
L 129.079346 46.953311 
L 128.792523 52.324823 
L 128.505701 51.259955 
L 128.218879 54.381057 
L 127.932056 54.528149 
L 127.645234 56.886063 
L 127.358411 56.77984 
L 127.071589 59.34948 
L 126.784766 58.221045 
L 126.497944 59.582943 
L 126.211121 58.140207 
L 125.924299 59.45173 
L 125.637477 56.183269 
L 125.350654 56.445438 
L 125.063832 51.522923 
L 124.777009 49.871954 
L 124.490187 41.25303 
L 124.203364 35.046545 
L 123.916542 47.314817 
L 123.62972 50.502802 
L 123.342897 49.761548 
L 123.056075 52.251444 
L 122.769252 50.8024 
L 122.48243 54.372522 
L 122.195607 51.478142 
L 121.908785 53.025535 
L 121.621963 50.149636 
L 121.33514 52.651493 
L 121.048318 47.920492 
L 120.761495 49.655473 
L 120.474673 46.003137 
L 120.18785 47.375511 
L 119.901028 42.79738 
L 119.614206 43.335826 
L 119.327383 37.344386 
L 119.040561 39.479775 
L 118.753738 36.033763 
L 118.466916 35.217998 
L 118.180093 30.618766 
L 117.893271 30.187344 
L 117.606449 27.897304 
L 117.319626 30.079249 
L 117.032804 28.540965 
L 116.745981 33.481782 
L 116.459159 33.573566 
L 116.172336 37.747897 
L 115.885514 37.802966 
L 115.598692 41.393385 
L 115.311869 42.577023 
L 115.025047 45.317074 
L 114.738224 40.750672 
L 114.451402 55.240749 
L 114.164579 51.717251 
L 113.877757 52.939847 
L 113.590935 49.621632 
L 113.304112 50.233203 
L 113.01729 47.217734 
L 112.730467 48.12609 
L 112.443645 45.935032 
L 112.156822 47.191514 
L 111.87 44.741963 
L 111.583178 45.997769 
L 111.296355 45.401791 
L 111.009533 46.47548 
L 110.72271 47.02636 
L 110.435888 50.18824 
L 110.149065 50.26706 
L 109.862243 53.609279 
L 109.575421 54.539714 
L 109.288598 58.20689 
L 109.001776 59.20932 
L 108.714953 62.982362 
L 108.428131 62.987639 
L 108.141308 65.383629 
L 107.854486 65.238121 
L 107.567664 66.695982 
L 107.280841 64.70452 
L 106.994019 66.205761 
L 106.707196 63.448644 
L 106.420374 61.781142 
L 106.133551 58.247469 
L 105.846729 58.13081 
L 105.559907 49.249839 
L 105.273084 42.595927 
L 104.986262 51.321836 
L 104.699439 55.770453 
L 104.412617 54.773673 
L 104.125794 58.213779 
L 103.838972 56.732848 
L 103.55215 58.110901 
L 103.265327 56.260497 
L 102.978505 58.426266 
L 102.691682 55.787913 
L 102.40486 56.836953 
L 102.118037 52.993886 
L 101.831215 54.937701 
L 101.544393 50.873023 
L 101.25757 51.26924 
L 100.970748 47.547568 
L 100.683925 49.08459 
L 100.397103 45.639002 
L 100.11028 46.094066 
L 99.823458 41.125321 
L 99.536636 43.932928 
L 99.249813 39.937769 
L 98.962991 42.726935 
L 98.676168 39.405006 
L 98.389346 42.444135 
L 98.102523 39.634454 
L 97.815701 43.994379 
L 97.528879 42.31661 
L 97.242056 45.961861 
L 96.955234 46.041189 
L 96.668411 49.276195 
L 96.381589 48.506205 
L 96.094766 52.748272 
L 95.807944 49.493531 
L 95.521121 61.799459 
L 95.234299 58.196897 
L 94.947477 58.741774 
L 94.660654 53.371149 
L 94.373832 50.942027 
L 94.087009 51.018676 
L 93.800187 50.64985 
L 93.513364 48.994947 
L 93.226542 49.096828 
L 92.93972 47.524706 
L 92.652897 47.592148 
L 92.366075 49.689779 
L 92.079252 50.329165 
L 91.79243 53.695193 
L 91.505607 54.597312 
L 91.218785 58.005023 
L 90.931963 58.163302 
L 90.64514 63.403774 
L 90.358318 62.325233 
L 90.071495 66.659453 
L 89.784673 65.78109 
L 89.49785 69.631334 
L 89.211028 67.861503 
L 88.924206 70.779003 
L 88.637383 68.872004 
L 88.350561 69.810198 
L 88.063738 67.945013 
L 87.776916 68.398258 
L 87.490093 66.612711 
L 87.203271 65.069851 
L 86.916449 60.151485 
L 86.629626 51.990512 
L 86.342804 45.107577 
L 86.055981 54.262893 
L 85.769159 60.337608 
L 85.482336 60.451718 
L 85.195514 63.098466 
L 84.908692 62.431467 
L 84.621869 64.106584 
L 84.335047 62.09401 
L 84.048224 64.994431 
L 83.761402 61.834177 
L 83.474579 62.167918 
L 83.187757 60.167075 
L 82.900935 58.98858 
L 82.614112 56.613325 
L 82.32729 56.04335 
L 82.040467 53.461001 
L 81.753645 51.733835 
L 81.466822 49.584047 
L 81.18 47.923968 
L 80.893178 46.040519 
L 80.606355 43.623671 
L 80.319533 41.63262 
L 80.03271 38.859681 
L 79.745888 39.327495 
L 79.459065 35.895806 
L 79.172243 40.038324 
L 78.885421 40.46992 
L 78.598598 46.914099 
L 78.311776 46.443662 
L 78.024953 52.511798 
L 77.738131 51.776402 
L 77.451308 56.605312 
L 77.164486 56.0089 
L 76.877664 58.662102 
L 76.590841 57.874448 
L 76.304019 66.646688 
L 76.017196 63.607816 
L 75.730374 62.75292 
L 75.443551 59.554635 
L 75.156729 58.575829 
L 74.869907 56.346717 
L 74.583084 55.18307 
L 74.296262 55.507838 
L 74.009439 54.657948 
L 73.722617 56.921107 
L 73.435794 56.010669 
L 73.148972 59.838215 
L 72.86215 57.923775 
L 72.575327 61.676924 
L 72.288505 61.439751 
L 72.001682 65.943034 
L 71.71486 66.173155 
L 71.428037 67.766889 
L 71.141215 69.423738 
L 70.854393 70.310616 
L 70.56757 72.045076 
L 70.280748 72.265215 
L 69.993925 73.356035 
L 69.707103 73.557273 
L 69.42028 73.799603 
L 69.133458 73.294409 
L 68.846636 71.971824 
L 68.559813 70.521622 
L 68.272991 67.863698 
L 67.986168 63.445588 
L 67.699346 58.970255 
L 67.412523 48.642382 
L 67.125701 52.521748 
L 66.838879 60.786573 
L 66.552056 64.354258 
L 66.265234 63.235563 
L 65.978411 65.916065 
L 65.691589 64.763754 
L 65.404766 67.308557 
L 65.117944 64.490839 
L 64.831121 66.993402 
L 64.544299 63.342368 
L 64.257477 64.552688 
L 63.970654 59.862303 
L 63.683832 59.704741 
L 63.397009 57.495584 
L 63.110187 57.063072 
L 62.823364 53.836197 
L 62.536542 51.759601 
L 62.24972 48.758123 
L 61.962897 46.484022 
L 61.676075 43.697336 
L 61.389252 42.033474 
L 61.10243 40.571042 
L 60.815607 40.689725 
L 60.528785 42.235215 
L 60.241963 43.275858 
L 59.95514 47.288065 
L 59.668318 49.083345 
L 59.381495 54.415729 
L 59.094673 54.596199 
L 58.80785 58.730787 
L 58.521028 59.111486 
L 58.234206 64.013354 
L 57.947383 62.707142 
L 57.660561 64.051657 
L 57.373738 70.053148 
L 57.086916 71.044624 
L 56.800093 66.763126 
L 56.513271 67.294913 
L 56.226449 62.897281 
L 55.939626 62.387352 
L 55.652804 58.692756 
L 55.365981 59.783517 
L 55.079159 58.031372 
L 54.792336 60.828888 
L 54.505514 60.062967 
L 54.218692 64.094958 
L 53.931869 62.718661 
L 53.645047 66.61796 
L 53.358224 65.663538 
L 53.071402 69.202837 
L 52.784579 69.475797 
L 52.497757 72.720915 
L 52.210935 73.488554 
L 51.924112 76.968113 
L 51.63729 76.72068 
L 51.350467 78.387969 
L 51.063645 78.574681 
L 50.776822 79.729276 
L 50.49 78.888374 
L 50.203178 79.271593 
L 49.916355 78.481364 
L 49.629533 76.654772 
L 49.34271 73.551107 
L 49.055888 69.433028 
L 48.769065 62.255562 
L 48.482243 53.738723 
L 48.195421 50.907095 
L 47.908598 63.937964 
L 47.621776 66.899535 
L 47.334953 67.64317 
L 47.048131 69.485575 
L 46.761308 68.789136 
L 46.474486 71.489675 
L 46.187664 71.696694 
L 45.900841 73.389039 
L 45.614019 73.016572 
L 45.327196 73.12059 
L 45.040374 70.886153 
L 44.753551 70.780593 
L 44.466729 68.676558 
L 44.179907 68.019034 
L 43.893084 62.954867 
L 43.606262 61.451515 
L 43.319439 57.500225 
L 43.032617 55.532678 
L 42.745794 52.455299 
L 42.458972 51.817284 
L 42.17215 47.479986 
L 41.885327 50.409172 
L 41.598505 48.377051 
L 41.311682 53.032571 
L 41.02486 51.910249 
L 40.738037 57.412306 
L 40.451215 58.002145 
L 40.164393 62.672713 
L 39.87757 64.97534 
L 39.590748 68.292609 
L 39.303925 69.729089 
L 39.017103 72.310119 
L 38.73028 69.471966 
L 38.443458 77.460305 
L 38.156636 75.202859 
L 37.869813 73.427777 
L 37.582991 70.976568 
L 37.296168 69.846463 
L 37.009346 66.462226 
L 36.722523 66.353032 
L 36.435701 63.753244 
L 36.148879 65.762359 
L 35.862056 64.353816 
L 35.575234 66.886128 
L 35.288411 69.213874 
L 35.001589 73.345448 
L 34.714766 73.765357 
L 34.427944 76.995919 
L 34.141121 77.04118 
L 33.854299 80.564557 
L 33.567477 80.501674 
L 33.280654 83.165454 
L 32.993832 83.529447 
L 32.707009 85.358629 
L 32.420187 85.722161 
L 32.133364 86.144403 
L 31.846542 86.041264 
L 31.55972 86.797699 
L 31.272897 86.352996 
L 30.986075 86.375184 
L 30.699252 84.618578 
L 30.41243 83.072051 
L 30.125607 78.885943 
L 29.838785 73.156023 
L 29.551963 63.656969 
L 29.26514 59.582886 
L 28.978318 67.910348 
L 28.691495 71.968247 
L 28.404673 73.520505 
L 28.11785 75.85281 
L 27.831028 77.331229 
L 27.544206 79.884247 
L 27.257383 80.626799 
L 26.970561 82.662165 
L 26.683738 82.543767 
L 26.396916 84.772554 
L 26.110093 82.582416 
L 25.823271 83.516976 
L 25.536449 82.367624 
L 25.249626 82.351972 
L 24.962804 79.332994 
L 24.675981 78.354329 
L 24.389159 75.133866 
L 24.102336 73.236573 
L 23.815514 68.14002 
L 23.528692 65.671812 
L 23.241869 59.846007 
L 22.955047 57.14782 
L 22.668224 53.730387 
L 22.381402 52.763659 
L 22.094579 50.572332 
L 21.807757 51.61221 
L 21.520935 52.421261 
L 21.234112 55.10852 
L 20.94729 58.30455 
L 20.660467 63.193349 
L 20.373645 66.19746 
L 20.086822 70.92155 
L 19.8 72.33444 
z
" clip-path="url(#pe3e0347b8b)" style="fill: #808080; fill-opacity: 0.5"/>
   </g>
   <g id="matplotlib.axis_1">
    <g id="xtick_1">
     <g id="line2d_1">
      <defs>
       <path id="m10a9abf2fc" d="M 0 0 
L 0 3.5 
" style="stroke: #000000; stroke-width: 0.8"/>
      </defs>
      <g>
       <use xlink:href="#m10a9abf2fc" x="19.8" y="128.16" style="stroke: #000000; stroke-width: 0.8"/>
      </g>
     </g>
     <g id="text_1">
      <!-- 0 -->
      <g transform="translate(17.019531 142.317813) scale(0.1 -0.1)">
       <defs>
        <path id="ArialMT-30" d="M 266 2259 
Q 266 3072 433 3567 
Q 600 4063 929 4331 
Q 1259 4600 1759 4600 
Q 2128 4600 2406 4451 
Q 2684 4303 2865 4023 
Q 3047 3744 3150 3342 
Q 3253 2941 3253 2259 
Q 3253 1453 3087 958 
Q 2922 463 2592 192 
Q 2263 -78 1759 -78 
Q 1097 -78 719 397 
Q 266 969 266 2259 
z
M 844 2259 
Q 844 1131 1108 757 
Q 1372 384 1759 384 
Q 2147 384 2411 759 
Q 2675 1134 2675 2259 
Q 2675 3391 2411 3762 
Q 2147 4134 1753 4134 
Q 1366 4134 1134 3806 
Q 844 3388 844 2259 
z
" transform="scale(0.015625)"/>
       </defs>
       <use xlink:href="#ArialMT-30"/>
      </g>
     </g>
    </g>
    <g id="xtick_2">
     <g id="line2d_2">
      <g>
       <use xlink:href="#m10a9abf2fc" x="54.218692" y="128.16" style="stroke: #000000; stroke-width: 0.8"/>
      </g>
     </g>
     <g id="text_2">
      <!-- 20 -->
      <g transform="translate(48.657754 142.317813) scale(0.1 -0.1)">
       <defs>
        <path id="ArialMT-32" d="M 3222 541 
L 3222 0 
L 194 0 
Q 188 203 259 391 
Q 375 700 629 1000 
Q 884 1300 1366 1694 
Q 2113 2306 2375 2664 
Q 2638 3022 2638 3341 
Q 2638 3675 2398 3904 
Q 2159 4134 1775 4134 
Q 1369 4134 1125 3890 
Q 881 3647 878 3216 
L 300 3275 
Q 359 3922 746 4261 
Q 1134 4600 1788 4600 
Q 2447 4600 2831 4234 
Q 3216 3869 3216 3328 
Q 3216 3053 3103 2787 
Q 2991 2522 2730 2228 
Q 2469 1934 1863 1422 
Q 1356 997 1212 845 
Q 1069 694 975 541 
L 3222 541 
z
" transform="scale(0.015625)"/>
       </defs>
       <use xlink:href="#ArialMT-32"/>
       <use xlink:href="#ArialMT-30" x="55.615234"/>
      </g>
     </g>
    </g>
    <g id="xtick_3">
     <g id="line2d_3">
      <g>
       <use xlink:href="#m10a9abf2fc" x="88.637383" y="128.16" style="stroke: #000000; stroke-width: 0.8"/>
      </g>
     </g>
     <g id="text_3">
      <!-- 40 -->
      <g transform="translate(83.076446 142.317813) scale(0.1 -0.1)">
       <defs>
        <path id="ArialMT-34" d="M 2069 0 
L 2069 1097 
L 81 1097 
L 81 1613 
L 2172 4581 
L 2631 4581 
L 2631 1613 
L 3250 1613 
L 3250 1097 
L 2631 1097 
L 2631 0 
L 2069 0 
z
M 2069 1613 
L 2069 3678 
L 634 1613 
L 2069 1613 
z
" transform="scale(0.015625)"/>
       </defs>
       <use xlink:href="#ArialMT-34"/>
       <use xlink:href="#ArialMT-30" x="55.615234"/>
      </g>
     </g>
    </g>
    <g id="xtick_4">
     <g id="line2d_4">
      <g>
       <use xlink:href="#m10a9abf2fc" x="123.056075" y="128.16" style="stroke: #000000; stroke-width: 0.8"/>
      </g>
     </g>
     <g id="text_4">
      <!-- 60 -->
      <g transform="translate(117.495137 142.317813) scale(0.1 -0.1)">
       <defs>
        <path id="ArialMT-36" d="M 3184 3459 
L 2625 3416 
Q 2550 3747 2413 3897 
Q 2184 4138 1850 4138 
Q 1581 4138 1378 3988 
Q 1113 3794 959 3422 
Q 806 3050 800 2363 
Q 1003 2672 1297 2822 
Q 1591 2972 1913 2972 
Q 2475 2972 2870 2558 
Q 3266 2144 3266 1488 
Q 3266 1056 3080 686 
Q 2894 316 2569 119 
Q 2244 -78 1831 -78 
Q 1128 -78 684 439 
Q 241 956 241 2144 
Q 241 3472 731 4075 
Q 1159 4600 1884 4600 
Q 2425 4600 2770 4297 
Q 3116 3994 3184 3459 
z
M 888 1484 
Q 888 1194 1011 928 
Q 1134 663 1356 523 
Q 1578 384 1822 384 
Q 2178 384 2434 671 
Q 2691 959 2691 1453 
Q 2691 1928 2437 2201 
Q 2184 2475 1800 2475 
Q 1419 2475 1153 2201 
Q 888 1928 888 1484 
z
" transform="scale(0.015625)"/>
       </defs>
       <use xlink:href="#ArialMT-36"/>
       <use xlink:href="#ArialMT-30" x="55.615234"/>
      </g>
     </g>
    </g>
    <g id="text_5">
     <!-- Time from start of external stimulus (h) -->
     <g transform="translate(-4.202812 155.585) scale(0.1 -0.1)">
      <defs>
       <path id="ArialMT-54" d="M 1659 0 
L 1659 4041 
L 150 4041 
L 150 4581 
L 3781 4581 
L 3781 4041 
L 2266 4041 
L 2266 0 
L 1659 0 
z
" transform="scale(0.015625)"/>
       <path id="ArialMT-69" d="M 425 3934 
L 425 4581 
L 988 4581 
L 988 3934 
L 425 3934 
z
M 425 0 
L 425 3319 
L 988 3319 
L 988 0 
L 425 0 
z
" transform="scale(0.015625)"/>
       <path id="ArialMT-6d" d="M 422 0 
L 422 3319 
L 925 3319 
L 925 2853 
Q 1081 3097 1340 3245 
Q 1600 3394 1931 3394 
Q 2300 3394 2536 3241 
Q 2772 3088 2869 2813 
Q 3263 3394 3894 3394 
Q 4388 3394 4653 3120 
Q 4919 2847 4919 2278 
L 4919 0 
L 4359 0 
L 4359 2091 
Q 4359 2428 4304 2576 
Q 4250 2725 4106 2815 
Q 3963 2906 3769 2906 
Q 3419 2906 3187 2673 
Q 2956 2441 2956 1928 
L 2956 0 
L 2394 0 
L 2394 2156 
Q 2394 2531 2256 2718 
Q 2119 2906 1806 2906 
Q 1569 2906 1367 2781 
Q 1166 2656 1075 2415 
Q 984 2175 984 1722 
L 984 0 
L 422 0 
z
" transform="scale(0.015625)"/>
       <path id="ArialMT-65" d="M 2694 1069 
L 3275 997 
Q 3138 488 2766 206 
Q 2394 -75 1816 -75 
Q 1088 -75 661 373 
Q 234 822 234 1631 
Q 234 2469 665 2931 
Q 1097 3394 1784 3394 
Q 2450 3394 2872 2941 
Q 3294 2488 3294 1666 
Q 3294 1616 3291 1516 
L 816 1516 
Q 847 969 1125 678 
Q 1403 388 1819 388 
Q 2128 388 2347 550 
Q 2566 713 2694 1069 
z
M 847 1978 
L 2700 1978 
Q 2663 2397 2488 2606 
Q 2219 2931 1791 2931 
Q 1403 2931 1139 2672 
Q 875 2413 847 1978 
z
" transform="scale(0.015625)"/>
       <path id="ArialMT-20" transform="scale(0.015625)"/>
       <path id="ArialMT-66" d="M 556 0 
L 556 2881 
L 59 2881 
L 59 3319 
L 556 3319 
L 556 3672 
Q 556 4006 616 4169 
Q 697 4388 901 4523 
Q 1106 4659 1475 4659 
Q 1713 4659 2000 4603 
L 1916 4113 
Q 1741 4144 1584 4144 
Q 1328 4144 1222 4034 
Q 1116 3925 1116 3625 
L 1116 3319 
L 1763 3319 
L 1763 2881 
L 1116 2881 
L 1116 0 
L 556 0 
z
" transform="scale(0.015625)"/>
       <path id="ArialMT-72" d="M 416 0 
L 416 3319 
L 922 3319 
L 922 2816 
Q 1116 3169 1280 3281 
Q 1444 3394 1641 3394 
Q 1925 3394 2219 3213 
L 2025 2691 
Q 1819 2813 1613 2813 
Q 1428 2813 1281 2702 
Q 1134 2591 1072 2394 
Q 978 2094 978 1738 
L 978 0 
L 416 0 
z
" transform="scale(0.015625)"/>
       <path id="ArialMT-6f" d="M 213 1659 
Q 213 2581 725 3025 
Q 1153 3394 1769 3394 
Q 2453 3394 2887 2945 
Q 3322 2497 3322 1706 
Q 3322 1066 3130 698 
Q 2938 331 2570 128 
Q 2203 -75 1769 -75 
Q 1072 -75 642 372 
Q 213 819 213 1659 
z
M 791 1659 
Q 791 1022 1069 705 
Q 1347 388 1769 388 
Q 2188 388 2466 706 
Q 2744 1025 2744 1678 
Q 2744 2294 2464 2611 
Q 2184 2928 1769 2928 
Q 1347 2928 1069 2612 
Q 791 2297 791 1659 
z
" transform="scale(0.015625)"/>
       <path id="ArialMT-73" d="M 197 991 
L 753 1078 
Q 800 744 1014 566 
Q 1228 388 1613 388 
Q 2000 388 2187 545 
Q 2375 703 2375 916 
Q 2375 1106 2209 1216 
Q 2094 1291 1634 1406 
Q 1016 1563 777 1677 
Q 538 1791 414 1992 
Q 291 2194 291 2438 
Q 291 2659 392 2848 
Q 494 3038 669 3163 
Q 800 3259 1026 3326 
Q 1253 3394 1513 3394 
Q 1903 3394 2198 3281 
Q 2494 3169 2634 2976 
Q 2775 2784 2828 2463 
L 2278 2388 
Q 2241 2644 2061 2787 
Q 1881 2931 1553 2931 
Q 1166 2931 1000 2803 
Q 834 2675 834 2503 
Q 834 2394 903 2306 
Q 972 2216 1119 2156 
Q 1203 2125 1616 2013 
Q 2213 1853 2448 1751 
Q 2684 1650 2818 1456 
Q 2953 1263 2953 975 
Q 2953 694 2789 445 
Q 2625 197 2315 61 
Q 2006 -75 1616 -75 
Q 969 -75 630 194 
Q 291 463 197 991 
z
" transform="scale(0.015625)"/>
       <path id="ArialMT-74" d="M 1650 503 
L 1731 6 
Q 1494 -44 1306 -44 
Q 1000 -44 831 53 
Q 663 150 594 308 
Q 525 466 525 972 
L 525 2881 
L 113 2881 
L 113 3319 
L 525 3319 
L 525 4141 
L 1084 4478 
L 1084 3319 
L 1650 3319 
L 1650 2881 
L 1084 2881 
L 1084 941 
Q 1084 700 1114 631 
Q 1144 563 1211 522 
Q 1278 481 1403 481 
Q 1497 481 1650 503 
z
" transform="scale(0.015625)"/>
       <path id="ArialMT-61" d="M 2588 409 
Q 2275 144 1986 34 
Q 1697 -75 1366 -75 
Q 819 -75 525 192 
Q 231 459 231 875 
Q 231 1119 342 1320 
Q 453 1522 633 1644 
Q 813 1766 1038 1828 
Q 1203 1872 1538 1913 
Q 2219 1994 2541 2106 
Q 2544 2222 2544 2253 
Q 2544 2597 2384 2738 
Q 2169 2928 1744 2928 
Q 1347 2928 1158 2789 
Q 969 2650 878 2297 
L 328 2372 
Q 403 2725 575 2942 
Q 747 3159 1072 3276 
Q 1397 3394 1825 3394 
Q 2250 3394 2515 3294 
Q 2781 3194 2906 3042 
Q 3031 2891 3081 2659 
Q 3109 2516 3109 2141 
L 3109 1391 
Q 3109 606 3145 398 
Q 3181 191 3288 0 
L 2700 0 
Q 2613 175 2588 409 
z
M 2541 1666 
Q 2234 1541 1622 1453 
Q 1275 1403 1131 1340 
Q 988 1278 909 1158 
Q 831 1038 831 891 
Q 831 666 1001 516 
Q 1172 366 1500 366 
Q 1825 366 2078 508 
Q 2331 650 2450 897 
Q 2541 1088 2541 1459 
L 2541 1666 
z
" transform="scale(0.015625)"/>
       <path id="ArialMT-78" d="M 47 0 
L 1259 1725 
L 138 3319 
L 841 3319 
L 1350 2541 
Q 1494 2319 1581 2169 
Q 1719 2375 1834 2534 
L 2394 3319 
L 3066 3319 
L 1919 1756 
L 3153 0 
L 2463 0 
L 1781 1031 
L 1600 1309 
L 728 0 
L 47 0 
z
" transform="scale(0.015625)"/>
       <path id="ArialMT-6e" d="M 422 0 
L 422 3319 
L 928 3319 
L 928 2847 
Q 1294 3394 1984 3394 
Q 2284 3394 2536 3286 
Q 2788 3178 2913 3003 
Q 3038 2828 3088 2588 
Q 3119 2431 3119 2041 
L 3119 0 
L 2556 0 
L 2556 2019 
Q 2556 2363 2490 2533 
Q 2425 2703 2258 2804 
Q 2091 2906 1866 2906 
Q 1506 2906 1245 2678 
Q 984 2450 984 1813 
L 984 0 
L 422 0 
z
" transform="scale(0.015625)"/>
       <path id="ArialMT-6c" d="M 409 0 
L 409 4581 
L 972 4581 
L 972 0 
L 409 0 
z
" transform="scale(0.015625)"/>
       <path id="ArialMT-75" d="M 2597 0 
L 2597 488 
Q 2209 -75 1544 -75 
Q 1250 -75 995 37 
Q 741 150 617 320 
Q 494 491 444 738 
Q 409 903 409 1263 
L 409 3319 
L 972 3319 
L 972 1478 
Q 972 1038 1006 884 
Q 1059 663 1231 536 
Q 1403 409 1656 409 
Q 1909 409 2131 539 
Q 2353 669 2445 892 
Q 2538 1116 2538 1541 
L 2538 3319 
L 3100 3319 
L 3100 0 
L 2597 0 
z
" transform="scale(0.015625)"/>
       <path id="ArialMT-28" d="M 1497 -1347 
Q 1031 -759 709 28 
Q 388 816 388 1659 
Q 388 2403 628 3084 
Q 909 3875 1497 4659 
L 1900 4659 
Q 1522 4009 1400 3731 
Q 1209 3300 1100 2831 
Q 966 2247 966 1656 
Q 966 153 1900 -1347 
L 1497 -1347 
z
" transform="scale(0.015625)"/>
       <path id="ArialMT-68" d="M 422 0 
L 422 4581 
L 984 4581 
L 984 2938 
Q 1378 3394 1978 3394 
Q 2347 3394 2619 3248 
Q 2891 3103 3008 2847 
Q 3125 2591 3125 2103 
L 3125 0 
L 2563 0 
L 2563 2103 
Q 2563 2525 2380 2717 
Q 2197 2909 1863 2909 
Q 1613 2909 1392 2779 
Q 1172 2650 1078 2428 
Q 984 2206 984 1816 
L 984 0 
L 422 0 
z
" transform="scale(0.015625)"/>
       <path id="ArialMT-29" d="M 791 -1347 
L 388 -1347 
Q 1322 153 1322 1656 
Q 1322 2244 1188 2822 
Q 1081 3291 891 3722 
Q 769 4003 388 4659 
L 791 4659 
Q 1378 3875 1659 3084 
Q 1900 2403 1900 1659 
Q 1900 816 1576 28 
Q 1253 -759 791 -1347 
z
" transform="scale(0.015625)"/>
      </defs>
      <use xlink:href="#ArialMT-54"/>
      <use xlink:href="#ArialMT-69" x="57.333984"/>
      <use xlink:href="#ArialMT-6d" x="79.550781"/>
      <use xlink:href="#ArialMT-65" x="162.851562"/>
      <use xlink:href="#ArialMT-20" x="218.466797"/>
      <use xlink:href="#ArialMT-66" x="246.25"/>
      <use xlink:href="#ArialMT-72" x="274.033203"/>
      <use xlink:href="#ArialMT-6f" x="307.333984"/>
      <use xlink:href="#ArialMT-6d" x="362.949219"/>
      <use xlink:href="#ArialMT-20" x="446.25"/>
      <use xlink:href="#ArialMT-73" x="474.033203"/>
      <use xlink:href="#ArialMT-74" x="524.033203"/>
      <use xlink:href="#ArialMT-61" x="551.816406"/>
      <use xlink:href="#ArialMT-72" x="607.431641"/>
      <use xlink:href="#ArialMT-74" x="640.732422"/>
      <use xlink:href="#ArialMT-20" x="668.515625"/>
      <use xlink:href="#ArialMT-6f" x="696.298828"/>
      <use xlink:href="#ArialMT-66" x="751.914062"/>
      <use xlink:href="#ArialMT-20" x="779.697266"/>
      <use xlink:href="#ArialMT-65" x="807.480469"/>
      <use xlink:href="#ArialMT-78" x="863.095703"/>
      <use xlink:href="#ArialMT-74" x="913.095703"/>
      <use xlink:href="#ArialMT-65" x="940.878906"/>
      <use xlink:href="#ArialMT-72" x="996.494141"/>
      <use xlink:href="#ArialMT-6e" x="1029.794922"/>
      <use xlink:href="#ArialMT-61" x="1085.410156"/>
      <use xlink:href="#ArialMT-6c" x="1141.025391"/>
      <use xlink:href="#ArialMT-20" x="1163.242188"/>
      <use xlink:href="#ArialMT-73" x="1191.025391"/>
      <use xlink:href="#ArialMT-74" x="1241.025391"/>
      <use xlink:href="#ArialMT-69" x="1268.808594"/>
      <use xlink:href="#ArialMT-6d" x="1291.025391"/>
      <use xlink:href="#ArialMT-75" x="1374.326172"/>
      <use xlink:href="#ArialMT-6c" x="1429.941406"/>
      <use xlink:href="#ArialMT-75" x="1452.158203"/>
      <use xlink:href="#ArialMT-73" x="1507.773438"/>
      <use xlink:href="#ArialMT-20" x="1557.773438"/>
      <use xlink:href="#ArialMT-28" x="1585.556641"/>
      <use xlink:href="#ArialMT-68" x="1618.857422"/>
      <use xlink:href="#ArialMT-29" x="1674.472656"/>
     </g>
    </g>
   </g>
   <g id="matplotlib.axis_2">
    <g id="ytick_1">
     <g id="line2d_5">
      <defs>
       <path id="m29c3e7181a" d="M 0 0 
L -3.5 0 
" style="stroke: #000000; stroke-width: 0.8"/>
      </defs>
      <g>
       <use xlink:href="#m29c3e7181a" x="19.8" y="124.520491" style="stroke: #000000; stroke-width: 0.8"/>
      </g>
     </g>
     <g id="text_6">
      <!-- 0 -->
      <g transform="translate(7.239063 128.099397) scale(0.1 -0.1)">
       <use xlink:href="#ArialMT-30"/>
      </g>
     </g>
    </g>
    <g id="ytick_2">
     <g id="line2d_6">
      <g>
       <use xlink:href="#m29c3e7181a" x="19.8" y="88.125399" style="stroke: #000000; stroke-width: 0.8"/>
      </g>
     </g>
     <g id="text_7">
      <!-- 2 -->
      <g transform="translate(7.239063 91.704305) scale(0.1 -0.1)">
       <use xlink:href="#ArialMT-32"/>
      </g>
     </g>
    </g>
    <g id="ytick_3">
     <g id="line2d_7">
      <g>
       <use xlink:href="#m29c3e7181a" x="19.8" y="51.730307" style="stroke: #000000; stroke-width: 0.8"/>
      </g>
     </g>
     <g id="text_8">
      <!-- 4 -->
      <g transform="translate(7.239063 55.309213) scale(0.1 -0.1)">
       <use xlink:href="#ArialMT-34"/>
      </g>
     </g>
    </g>
    <g id="text_9">
     <!-- Mean p53 level (FC) -->
     <g transform="translate(1.134375 118.012188) rotate(-90) scale(0.1 -0.1)">
      <defs>
       <path id="ArialMT-4d" d="M 475 0 
L 475 4581 
L 1388 4581 
L 2472 1338 
Q 2622 884 2691 659 
Q 2769 909 2934 1394 
L 4031 4581 
L 4847 4581 
L 4847 0 
L 4263 0 
L 4263 3834 
L 2931 0 
L 2384 0 
L 1059 3900 
L 1059 0 
L 475 0 
z
" transform="scale(0.015625)"/>
       <path id="ArialMT-70" d="M 422 -1272 
L 422 3319 
L 934 3319 
L 934 2888 
Q 1116 3141 1344 3267 
Q 1572 3394 1897 3394 
Q 2322 3394 2647 3175 
Q 2972 2956 3137 2557 
Q 3303 2159 3303 1684 
Q 3303 1175 3120 767 
Q 2938 359 2589 142 
Q 2241 -75 1856 -75 
Q 1575 -75 1351 44 
Q 1128 163 984 344 
L 984 -1272 
L 422 -1272 
z
M 931 1641 
Q 931 1000 1190 694 
Q 1450 388 1819 388 
Q 2194 388 2461 705 
Q 2728 1022 2728 1688 
Q 2728 2322 2467 2637 
Q 2206 2953 1844 2953 
Q 1484 2953 1207 2617 
Q 931 2281 931 1641 
z
" transform="scale(0.015625)"/>
       <path id="ArialMT-35" d="M 266 1200 
L 856 1250 
Q 922 819 1161 601 
Q 1400 384 1738 384 
Q 2144 384 2425 690 
Q 2706 997 2706 1503 
Q 2706 1984 2436 2262 
Q 2166 2541 1728 2541 
Q 1456 2541 1237 2417 
Q 1019 2294 894 2097 
L 366 2166 
L 809 4519 
L 3088 4519 
L 3088 3981 
L 1259 3981 
L 1013 2750 
Q 1425 3038 1878 3038 
Q 2478 3038 2890 2622 
Q 3303 2206 3303 1553 
Q 3303 931 2941 478 
Q 2500 -78 1738 -78 
Q 1113 -78 717 272 
Q 322 622 266 1200 
z
" transform="scale(0.015625)"/>
       <path id="ArialMT-33" d="M 269 1209 
L 831 1284 
Q 928 806 1161 595 
Q 1394 384 1728 384 
Q 2125 384 2398 659 
Q 2672 934 2672 1341 
Q 2672 1728 2419 1979 
Q 2166 2231 1775 2231 
Q 1616 2231 1378 2169 
L 1441 2663 
Q 1497 2656 1531 2656 
Q 1891 2656 2178 2843 
Q 2466 3031 2466 3422 
Q 2466 3731 2256 3934 
Q 2047 4138 1716 4138 
Q 1388 4138 1169 3931 
Q 950 3725 888 3313 
L 325 3413 
Q 428 3978 793 4289 
Q 1159 4600 1703 4600 
Q 2078 4600 2393 4439 
Q 2709 4278 2876 4000 
Q 3044 3722 3044 3409 
Q 3044 3113 2884 2869 
Q 2725 2625 2413 2481 
Q 2819 2388 3044 2092 
Q 3269 1797 3269 1353 
Q 3269 753 2831 336 
Q 2394 -81 1725 -81 
Q 1122 -81 723 278 
Q 325 638 269 1209 
z
" transform="scale(0.015625)"/>
       <path id="ArialMT-76" d="M 1344 0 
L 81 3319 
L 675 3319 
L 1388 1331 
Q 1503 1009 1600 663 
Q 1675 925 1809 1294 
L 2547 3319 
L 3125 3319 
L 1869 0 
L 1344 0 
z
" transform="scale(0.015625)"/>
       <path id="ArialMT-46" d="M 525 0 
L 525 4581 
L 3616 4581 
L 3616 4041 
L 1131 4041 
L 1131 2622 
L 3281 2622 
L 3281 2081 
L 1131 2081 
L 1131 0 
L 525 0 
z
" transform="scale(0.015625)"/>
       <path id="ArialMT-43" d="M 3763 1606 
L 4369 1453 
Q 4178 706 3683 314 
Q 3188 -78 2472 -78 
Q 1731 -78 1267 223 
Q 803 525 561 1097 
Q 319 1669 319 2325 
Q 319 3041 592 3573 
Q 866 4106 1370 4382 
Q 1875 4659 2481 4659 
Q 3169 4659 3637 4309 
Q 4106 3959 4291 3325 
L 3694 3184 
Q 3534 3684 3231 3912 
Q 2928 4141 2469 4141 
Q 1941 4141 1586 3887 
Q 1231 3634 1087 3207 
Q 944 2781 944 2328 
Q 944 1744 1114 1308 
Q 1284 872 1643 656 
Q 2003 441 2422 441 
Q 2931 441 3284 734 
Q 3638 1028 3763 1606 
z
" transform="scale(0.015625)"/>
      </defs>
      <use xlink:href="#ArialMT-4d"/>
      <use xlink:href="#ArialMT-65" x="83.300781"/>
      <use xlink:href="#ArialMT-61" x="138.916016"/>
      <use xlink:href="#ArialMT-6e" x="194.53125"/>
      <use xlink:href="#ArialMT-20" x="250.146484"/>
      <use xlink:href="#ArialMT-70" x="277.929688"/>
      <use xlink:href="#ArialMT-35" x="333.544922"/>
      <use xlink:href="#ArialMT-33" x="389.160156"/>
      <use xlink:href="#ArialMT-20" x="444.775391"/>
      <use xlink:href="#ArialMT-6c" x="472.558594"/>
      <use xlink:href="#ArialMT-65" x="494.775391"/>
      <use xlink:href="#ArialMT-76" x="550.390625"/>
      <use xlink:href="#ArialMT-65" x="600.390625"/>
      <use xlink:href="#ArialMT-6c" x="656.005859"/>
      <use xlink:href="#ArialMT-20" x="678.222656"/>
      <use xlink:href="#ArialMT-28" x="706.005859"/>
      <use xlink:href="#ArialMT-46" x="739.306641"/>
      <use xlink:href="#ArialMT-43" x="800.390625"/>
      <use xlink:href="#ArialMT-29" x="872.607422"/>
     </g>
    </g>
   </g>
   <g id="line2d_8">
    <path d="M -1 124.520491 
L 19.513178 124.520491 
L 19.513178 118.454642 
L 28.978318 118.454642 
L 28.978318 124.520491 
L 38.443458 124.520491 
L 38.443458 118.454642 
L 47.908598 118.454642 
L 47.908598 124.520491 
L 57.373738 124.520491 
L 57.373738 118.454642 
L 66.838879 118.454642 
L 66.838879 124.520491 
L 76.304019 124.520491 
L 76.304019 118.454642 
L 85.769159 118.454642 
L 85.769159 124.520491 
L 95.234299 124.520491 
L 95.234299 118.454642 
L 104.699439 118.454642 
L 104.699439 124.520491 
L 114.164579 124.520491 
L 114.164579 118.454642 
L 123.62972 118.454642 
L 123.62972 124.520491 
L 133.09486 124.520491 
L 133.09486 118.454642 
L 142.56 118.454642 
L 142.56 124.520491 
L 159.4 124.520491 
" clip-path="url(#pe3e0347b8b)" style="fill: none; stroke: #000000; stroke-width: 1.5; stroke-linecap: square"/>
   </g>
   <g id="line2d_9">
    <path d="M 19.8 85.460609 
L 20.086822 84.731377 
L 21.234112 72.766439 
L 21.520935 70.455425 
L 21.807757 69.829657 
L 22.094579 68.898122 
L 22.381402 70.519009 
L 22.668224 71.266274 
L 24.675981 88.587878 
L 24.962804 89.112918 
L 25.249626 91.376481 
L 25.536449 91.200973 
L 25.823271 92.085701 
L 26.110093 91.546667 
L 26.396916 93.082108 
L 26.683738 91.490655 
L 26.970561 91.607398 
L 27.257383 90.22372 
L 27.544206 89.75748 
L 28.404673 85.346332 
L 28.691495 84.275323 
L 28.978318 82.124976 
L 29.26514 75.232084 
L 29.551963 78.254549 
L 29.838785 85.329885 
L 30.41243 92.679936 
L 30.986075 95.127599 
L 31.272897 95.158232 
L 31.55972 95.527325 
L 31.846542 95.153951 
L 32.133364 95.193415 
L 32.420187 94.500934 
L 32.707009 94.27072 
L 32.993832 93.058205 
L 33.280654 92.917423 
L 33.567477 90.951094 
L 33.854299 91.107108 
L 34.141121 88.608655 
L 34.427944 88.473357 
L 34.714766 85.52255 
L 35.001589 84.934106 
L 35.288411 81.69225 
L 35.575234 80.380256 
L 35.862056 77.996557 
L 36.148879 79.025793 
L 36.435701 77.384543 
L 36.722523 79.551464 
L 37.009346 79.94972 
L 37.296168 82.864704 
L 37.582991 84.218341 
L 38.156636 88.008322 
L 38.443458 89.715292 
L 38.73028 83.001054 
L 39.017103 85.27304 
L 40.164393 78.147228 
L 40.451215 74.733164 
L 40.738037 74.475995 
L 41.02486 70.307098 
L 41.311682 71.012562 
L 41.598505 67.554433 
L 41.885327 69.274521 
L 42.17215 66.93512 
L 42.458972 69.92973 
L 42.745794 69.911329 
L 43.032617 72.270569 
L 43.319439 73.200356 
L 43.606262 76.35525 
L 43.893084 77.246449 
L 44.179907 80.685267 
L 44.466729 81.168705 
L 44.753551 83.378576 
L 45.040374 83.249078 
L 45.327196 85.144233 
L 45.614019 84.833844 
L 45.900841 85.309022 
L 46.187664 84.314141 
L 46.474486 84.577721 
L 46.761308 82.967144 
L 47.048131 83.515236 
L 47.334953 82.065574 
L 47.621776 81.762335 
L 47.908598 79.8222 
L 48.195421 69.974816 
L 48.482243 73.063995 
L 49.055888 84.020966 
L 49.629533 88.646966 
L 49.916355 89.616042 
L 50.203178 90.164478 
L 50.49 89.85121 
L 50.776822 90.239033 
L 51.063645 89.265211 
L 51.350467 89.292403 
L 51.63729 87.92735 
L 51.924112 88.068679 
L 52.210935 85.575285 
L 52.497757 85.073105 
L 52.784579 82.79559 
L 53.071402 82.439801 
L 53.358224 79.7661 
L 53.645047 80.304066 
L 53.931869 77.37008 
L 54.218692 78.559266 
L 54.505514 75.792468 
L 54.792336 76.931233 
L 55.079159 74.991119 
L 55.365981 76.786346 
L 55.652804 76.07004 
L 55.939626 78.954591 
L 56.226449 79.142982 
L 56.513271 82.355903 
L 56.800093 82.177667 
L 57.086916 85.43677 
L 57.373738 84.848434 
L 57.660561 80.285413 
L 57.947383 79.162083 
L 58.234206 80.193464 
L 58.521028 76.46405 
L 58.80785 75.943296 
L 59.094673 72.403098 
L 59.381495 72.073825 
L 59.668318 68.042295 
L 59.95514 66.585552 
L 60.241963 63.811088 
L 60.815607 62.16623 
L 61.10243 62.461873 
L 61.676075 65.011245 
L 63.397009 75.786588 
L 63.683832 77.051946 
L 63.970654 77.463157 
L 64.257477 80.598779 
L 64.544299 79.715709 
L 64.831121 82.322162 
L 65.117944 80.544826 
L 65.404766 82.371273 
L 65.691589 80.490271 
L 65.978411 81.428918 
L 66.265234 79.396217 
L 66.552056 80.126161 
L 66.838879 77.525528 
L 67.125701 71.936895 
L 67.412523 68.759175 
L 67.699346 76.745036 
L 68.272991 82.941958 
L 68.559813 84.579032 
L 69.133458 86.052226 
L 69.42028 86.324217 
L 69.707103 86.236285 
L 69.993925 85.980313 
L 70.56757 84.951401 
L 71.71486 81.024107 
L 72.001682 80.946529 
L 72.288505 77.898959 
L 72.575327 78.323613 
L 72.86215 75.113707 
L 73.148972 76.42601 
L 73.435794 73.536164 
L 73.722617 74.087111 
L 74.009439 72.611712 
L 74.296262 73.194523 
L 74.583084 73.133731 
L 75.443551 76.956337 
L 75.730374 79.26791 
L 76.017196 79.847534 
L 76.304019 82.047495 
L 76.590841 75.76085 
L 76.877664 76.171015 
L 77.164486 74.474736 
L 77.451308 74.92636 
L 77.738131 71.397528 
L 78.024953 72.049039 
L 78.311776 67.952409 
L 78.598598 68.397021 
L 78.885421 64.199634 
L 79.172243 64.101122 
L 79.459065 61.715348 
L 79.745888 63.062954 
L 80.03271 62.717451 
L 81.466822 70.440014 
L 82.32729 74.893954 
L 82.614112 75.320622 
L 82.900935 77.009415 
L 83.187757 77.297603 
L 83.474579 78.687516 
L 83.761402 78.132798 
L 84.048224 80.132178 
L 84.335047 78.03322 
L 84.621869 79.851864 
L 84.908692 78.035581 
L 85.195514 78.729254 
L 85.482336 76.731697 
L 85.769159 76.843175 
L 86.342804 66.896998 
L 86.916449 77.351341 
L 87.203271 80.531661 
L 87.776916 82.923862 
L 88.063738 82.725158 
L 88.350561 84.020666 
L 88.637383 83.035304 
L 88.924206 84.527529 
L 89.211028 82.402025 
L 89.49785 83.846944 
L 89.784673 81.005296 
L 90.071495 81.808838 
L 90.358318 78.630155 
L 90.64514 79.401437 
L 90.931963 75.848086 
L 91.218785 75.947465 
L 91.505607 72.893603 
L 91.79243 72.591712 
L 92.079252 70.470865 
L 92.366075 69.897691 
L 92.652897 68.701329 
L 92.93972 68.704902 
L 93.226542 69.636795 
L 93.513364 69.866462 
L 93.800187 71.394668 
L 94.087009 71.797063 
L 94.660654 73.545281 
L 94.947477 76.862407 
L 95.234299 76.503279 
L 95.521121 79.130181 
L 95.807944 70.408909 
L 96.094766 72.513883 
L 96.381589 69.18598 
L 96.668411 69.948937 
L 96.955234 66.792727 
L 97.242056 67.220382 
L 97.528879 64.224967 
L 97.815701 65.355756 
L 98.102523 62.201187 
L 98.389346 64.190786 
L 98.676168 61.686367 
L 98.962991 64.10233 
L 99.249813 62.197497 
L 99.536636 65.336998 
L 99.823458 63.474987 
L 100.11028 67.147209 
L 100.397103 66.535445 
L 100.683925 69.227608 
L 100.970748 68.229495 
L 101.25757 71.061666 
L 101.544393 70.463129 
L 101.831215 73.364414 
L 102.118037 71.996546 
L 102.40486 74.878394 
L 102.691682 73.831425 
L 102.978505 75.744886 
L 103.265327 74.484672 
L 103.55215 75.537098 
L 103.838972 74.561539 
L 104.125794 75.628233 
L 104.412617 73.438164 
L 104.699439 74.150773 
L 104.986262 70.856925 
L 105.273084 65.060402 
L 105.846729 76.198661 
L 106.133551 76.781434 
L 106.420374 79.099671 
L 106.707196 79.4978 
L 106.994019 81.316303 
L 107.280841 80.160978 
L 107.567664 81.582164 
L 107.854486 80.388047 
L 108.141308 80.611837 
L 108.428131 78.959626 
L 108.714953 79.282892 
L 109.001776 76.818032 
L 109.288598 76.475159 
L 109.575421 73.897699 
L 109.862243 73.313526 
L 110.149065 70.706697 
L 110.435888 70.460262 
L 110.72271 68.109003 
L 111.009533 67.598688 
L 111.296355 66.334732 
L 111.583178 66.555309 
L 111.87 65.442724 
L 112.156822 67.060636 
L 112.443645 66.12681 
L 112.730467 67.911138 
L 113.01729 67.086504 
L 113.304112 69.517047 
L 113.590935 69.073107 
L 113.877757 71.513955 
L 114.164579 70.86925 
L 114.451402 73.496127 
L 114.738224 63.143496 
L 115.025047 66.542055 
L 115.311869 64.323015 
L 115.598692 63.860806 
L 115.885514 61.468868 
L 116.172336 61.235943 
L 116.459159 59.108259 
L 116.745981 59.013006 
L 117.032804 56.675503 
L 117.319626 57.84705 
L 117.606449 56.442093 
L 117.893271 57.943814 
L 118.180093 57.91275 
L 118.466916 60.637058 
L 118.753738 60.779069 
L 119.040561 63.286328 
L 119.327383 62.551524 
L 119.614206 66.251032 
L 119.901028 65.594025 
L 120.18785 68.522375 
L 120.474673 67.539065 
L 120.761495 70.12687 
L 121.048318 68.693003 
L 121.33514 71.925713 
L 121.621963 70.151754 
L 121.908785 72.270224 
L 122.195607 70.775221 
L 122.48243 72.841261 
L 122.769252 70.148799 
L 123.056075 71.220304 
L 123.342897 69.145437 
L 123.62972 69.534114 
L 123.916542 67.317446 
L 124.203364 58.843779 
L 125.063832 71.874271 
L 125.350654 75.202117 
L 125.637477 75.01038 
L 125.924299 77.200768 
L 126.211121 76.298986 
L 126.497944 77.375578 
L 126.784766 76.320585 
L 127.071589 77.168207 
L 127.358411 75.495742 
L 127.645234 75.524122 
L 127.932056 73.872553 
L 128.218879 73.851792 
L 128.505701 71.666122 
L 128.792523 72.393313 
L 129.079346 69.038441 
L 129.366168 68.152143 
L 129.652991 66.207477 
L 129.939813 65.244239 
L 130.226636 62.641596 
L 130.513458 63.219827 
L 130.80028 61.953317 
L 131.087103 62.11396 
L 131.373925 61.812836 
L 131.660748 62.806855 
L 131.94757 62.710528 
L 132.234393 63.80099 
L 132.521215 63.953416 
L 132.808037 65.737217 
L 133.09486 65.968156 
L 133.381682 68.677444 
L 133.668505 57.583966 
L 133.955327 60.318967 
L 134.24215 59.227721 
L 134.528972 59.498373 
L 134.815794 57.394299 
L 135.102617 58.237291 
L 135.389439 56.102602 
L 135.676262 57.704663 
L 135.963084 55.462925 
L 136.249907 57.775638 
L 136.536729 55.591118 
L 136.823551 58.680942 
L 137.110374 56.307374 
L 137.397196 59.336178 
L 137.684019 57.698456 
L 137.970841 61.439011 
L 138.257664 60.004661 
L 138.544486 63.724444 
L 138.831308 62.322105 
L 139.118131 65.631135 
L 139.404953 64.06647 
L 139.691776 66.766773 
L 139.978598 65.139048 
L 140.265421 67.271406 
L 140.552243 65.377482 
L 140.839065 67.637864 
L 141.125888 65.874505 
L 141.41271 67.377946 
L 141.699533 65.579706 
L 141.986355 66.612887 
L 142.273178 64.756313 
L 142.56 65.808109 
L 142.846822 63.675747 
L 143.133645 53.696814 
L 143.420467 58.442211 
L 143.70729 66.088969 
L 143.994112 68.279933 
L 144.280935 71.784914 
L 144.567757 71.50192 
L 144.854579 74.201219 
L 145.141402 72.596048 
L 145.428224 74.671854 
L 145.715047 72.770886 
L 146.001869 74.467586 
L 146.288692 72.185192 
L 146.575514 72.742596 
L 146.862336 70.485215 
L 147.149159 70.965895 
L 147.435981 68.364284 
L 147.722804 68.38543 
L 148.009626 65.355901 
L 148.296449 65.542207 
L 148.583271 62.372367 
L 148.870093 62.733095 
L 149.156916 59.649699 
L 149.443738 60.693364 
L 149.730561 57.7968 
L 150.017383 58.786924 
L 150.304206 56.790466 
L 150.591028 58.74364 
L 150.87785 56.835051 
L 151.164673 59.879478 
L 151.164673 59.879478 
" clip-path="url(#pe3e0347b8b)" style="fill: none; stroke: #4d4d4d; stroke-width: 1.5; stroke-linecap: square"/>
   </g>
   <g id="patch_3">
    <path d="M 19.8 128.16 
L 19.8 17.28 
" style="fill: none; stroke: #000000; stroke-width: 0.8; stroke-linejoin: miter; stroke-linecap: square"/>
   </g>
   <g id="patch_4">
    <path d="M 142.56 128.16 
L 142.56 17.28 
" style="fill: none; stroke: #000000; stroke-width: 0.8; stroke-linejoin: miter; stroke-linecap: square"/>
   </g>
   <g id="patch_5">
    <path d="M 19.8 128.16 
L 142.56 128.16 
" style="fill: none; stroke: #000000; stroke-width: 0.8; stroke-linejoin: miter; stroke-linecap: square"/>
   </g>
   <g id="patch_6">
    <path d="M 19.8 17.28 
L 142.56 17.28 
" style="fill: none; stroke: #000000; stroke-width: 0.8; stroke-linejoin: miter; stroke-linecap: square"/>
   </g>
  </g>
 </g>
 <defs>
  <clipPath id="pe3e0347b8b">
   <rect x="19.8" y="17.28" width="122.76" height="110.88"/>
  </clipPath>
 </defs>
</svg>
