<?xml version="1.0" encoding="utf-8" standalone="no"?>
<!DOCTYPE svg PUBLIC "-//W3C//DTD SVG 1.1//EN"
  "http://www.w3.org/Graphics/SVG/1.1/DTD/svg11.dtd">
<svg xmlns:xlink="http://www.w3.org/1999/xlink" width="158.4pt" height="144pt" viewBox="0 0 158.4 144" xmlns="http://www.w3.org/2000/svg" version="1.1">
 <metadata>
  <rdf:RDF xmlns:dc="http://purl.org/dc/elements/1.1/" xmlns:cc="http://creativecommons.org/ns#" xmlns:rdf="http://www.w3.org/1999/02/22-rdf-syntax-ns#">
   <cc:Work>
    <dc:type rdf:resource="http://purl.org/dc/dcmitype/StillImage"/>
    <dc:date>2024-07-09T19:54:36.509819</dc:date>
    <dc:format>image/svg+xml</dc:format>
    <dc:creator>
     <cc:Agent>
      <dc:title>Matplotlib v3.8.3, https://matplotlib.org/</dc:title>
     </cc:Agent>
    </dc:creator>
   </cc:Work>
  </rdf:RDF>
 </metadata>
 <defs>
  <style type="text/css">*{stroke-linejoin: round; stroke-linecap: butt}</style>
 </defs>
 <g id="figure_1">
  <g id="patch_1">
   <path d="M 0 144 
L 158.4 144 
L 158.4 0 
L 0 0 
z
" style="fill: #ffffff"/>
  </g>
  <g id="axes_1">
   <g id="patch_2">
    <path d="M 19.8 128.16 
L 142.56 128.16 
L 142.56 17.28 
L 19.8 17.28 
z
" style="fill: #f2f2f2"/>
   </g>
   <g id="PolyCollection_1">
    <path d="M 19.8 81.279339 
L 19.8 101.242715 
L 20.737099 100.630036 
L 21.674198 101.179055 
L 22.611298 98.938348 
L 23.548397 98.994105 
L 24.485496 96.556559 
L 25.422595 96.420931 
L 26.359695 93.125616 
L 27.296794 93.841482 
L 28.233893 91.983897 
L 29.170992 93.898708 
L 30.108092 93.257454 
L 31.045191 90.301187 
L 31.98229 95.662342 
L 32.919389 100.57101 
L 33.856489 104.564284 
L 34.793588 106.12628 
L 35.730687 107.01416 
L 36.667786 107.340349 
L 37.604885 107.604744 
L 38.541985 107.878497 
L 39.479084 107.684481 
L 40.416183 107.624241 
L 41.353282 107.612011 
L 42.290382 103.304962 
L 43.227481 105.043064 
L 44.16458 103.930826 
L 45.101679 101.9824 
L 46.038779 100.623825 
L 46.975878 98.478073 
L 47.912977 96.938466 
L 48.850076 94.98238 
L 49.787176 92.75323 
L 50.724275 91.596523 
L 51.661374 89.398079 
L 52.598473 88.399454 
L 53.535573 83.333489 
L 54.472672 87.813263 
L 55.409771 95.720018 
L 56.34687 101.058651 
L 57.283969 104.102179 
L 58.221069 106.315924 
L 59.158168 107.384607 
L 60.095267 108.161042 
L 61.032366 108.652625 
L 61.969466 108.52473 
L 62.906565 108.974078 
L 63.843664 108.882351 
L 64.780763 105.027894 
L 65.717863 106.857872 
L 66.654962 105.133582 
L 67.592061 103.438457 
L 68.52916 102.290583 
L 69.46626 100.387827 
L 70.403359 99.009223 
L 71.340458 97.374794 
L 72.277557 95.172504 
L 73.214656 93.926633 
L 74.151756 91.501707 
L 75.088855 90.30638 
L 76.025954 86.259288 
L 76.963053 90.692478 
L 77.900153 97.642588 
L 78.837252 102.043518 
L 79.774351 105.10246 
L 80.71145 106.110145 
L 81.64855 106.38486 
L 82.585649 106.79034 
L 83.522748 106.661529 
L 84.459847 107.018931 
L 85.396947 107.046058 
L 86.334046 106.704117 
L 87.271145 102.8957 
L 88.208244 103.875212 
L 89.145344 102.7252 
L 90.082443 101.408343 
L 91.019542 99.86714 
L 91.956641 97.95198 
L 92.89374 96.517526 
L 93.83084 94.597007 
L 94.767939 92.835148 
L 95.705038 91.469345 
L 96.642137 88.988226 
L 97.579237 89.129377 
L 98.516336 81.901822 
L 99.453435 89.447272 
L 100.390534 94.993577 
L 101.327634 101.510238 
L 102.264733 103.441894 
L 103.201832 105.570897 
L 104.138931 105.41486 
L 105.076031 106.386481 
L 106.01313 105.943453 
L 106.950229 107.108584 
L 107.887328 106.626443 
L 108.824427 107.478992 
L 109.761527 103.094547 
L 110.698626 104.37941 
L 111.635725 103.612729 
L 112.572824 101.987672 
L 113.509924 108.952819 
L 114.447023 98.60346 
L 115.384122 96.504901 
L 116.321221 94.18753 
L 117.258321 93.127599 
L 118.19542 90.552071 
L 119.132519 89.576049 
L 120.069618 87.96087 
L 121.006718 84.79411 
L 121.943817 88.64566 
L 122.880916 97.201095 
L 123.818015 101.412945 
L 124.755115 105.170306 
L 125.692214 105.4657 
L 126.629313 106.85833 
L 127.566412 105.980797 
L 128.503511 106.92291 
L 129.440611 106.144618 
L 130.37771 106.885359 
L 131.314809 105.931217 
L 132.251908 103.960526 
L 133.189008 104.498303 
L 134.126107 104.46091 
L 135.063206 101.74331 
L 136.000305 101.453802 
L 136.937405 101.698086 
L 137.874504 101.323585 
L 138.811603 97.363257 
L 139.748702 96.666159 
L 140.685802 95.052322 
L 141.622901 93.85652 
L 142.56 91.619571 
L 143.497099 83.947919 
L 144.434198 89.513326 
L 145.371298 93.650477 
L 146.308397 99.532482 
L 147.245496 102.022206 
L 148.182595 104.391433 
L 149.119695 104.412788 
L 150.056794 105.820345 
L 150.993893 105.050191 
L 151.930992 105.761383 
L 152.868092 105.050063 
L 152.868092 85.662128 
L 152.868092 85.662128 
L 151.930992 86.6523 
L 150.993893 84.71532 
L 150.056794 85.110655 
L 149.119695 81.207152 
L 148.182595 79.379642 
L 147.245496 71.099536 
L 146.308397 65.029834 
L 145.371298 48.296664 
L 144.434198 32.60263 
L 143.497099 22.394772 
L 142.56 39.796909 
L 141.622901 41.084505 
L 140.685802 46.369469 
L 139.748702 51.59316 
L 138.811603 56.263956 
L 137.874504 58.474752 
L 136.937405 61.20571 
L 136.000305 70.196149 
L 135.063206 72.206009 
L 134.126107 77.629875 
L 133.189008 77.79855 
L 132.251908 78.787929 
L 131.314809 85.456299 
L 130.37771 87.631312 
L 129.440611 85.548864 
L 128.503511 87.233056 
L 127.566412 84.090283 
L 126.629313 83.730334 
L 125.692214 78.849168 
L 124.755115 75.665409 
L 123.818015 65.218558 
L 122.880916 53.640409 
L 121.943817 34.293962 
L 121.006718 25.153795 
L 120.069618 43.334272 
L 119.132519 48.692623 
L 118.19542 51.039902 
L 117.258321 57.102436 
L 116.321221 59.130381 
L 115.384122 65.891235 
L 114.447023 67.56797 
L 113.509924 59.477427 
L 112.572824 75.257888 
L 111.635725 78.731036 
L 110.698626 81.070685 
L 109.761527 78.154547 
L 108.824427 87.517389 
L 107.887328 86.917137 
L 106.950229 87.644394 
L 106.01313 87.418364 
L 105.076031 87.413013 
L 104.138931 84.559545 
L 103.201832 83.863353 
L 102.264733 77.373835 
L 101.327634 72.156116 
L 100.390534 57.193495 
L 99.453435 44.498114 
L 98.516336 29.776178 
L 97.579237 48.321106 
L 96.642137 46.953637 
L 95.705038 53.873776 
L 94.767939 57.695915 
L 93.83084 62.050243 
L 92.89374 67.39802 
L 91.956641 70.240553 
L 91.019542 74.424443 
L 90.082443 77.955701 
L 89.145344 80.825586 
L 88.208244 83.543204 
L 87.271145 81.431741 
L 86.334046 88.702957 
L 85.396947 88.980995 
L 84.459847 89.06895 
L 83.522748 87.539419 
L 82.585649 87.383238 
L 81.64855 85.339693 
L 80.71145 82.435967 
L 79.774351 78.105537 
L 78.837252 71.263295 
L 77.900153 58.956286 
L 76.963053 40.933799 
L 76.025954 30.929637 
L 75.088855 46.517887 
L 74.151756 47.562841 
L 73.214656 51.988411 
L 72.277557 55.079695 
L 71.340458 61.265437 
L 70.403359 65.73402 
L 69.46626 69.303215 
L 68.52916 74.388137 
L 67.592061 78.222878 
L 66.654962 81.867821 
L 65.717863 84.748257 
L 64.780763 80.823619 
L 63.843664 90.476201 
L 62.906565 90.727431 
L 61.969466 90.572645 
L 61.032366 91.680306 
L 60.095267 90.453248 
L 59.158168 89.865211 
L 58.221069 88.612853 
L 57.283969 85.079114 
L 56.34687 79.263931 
L 55.409771 66.896212 
L 54.472672 47.582395 
L 53.535573 32.906868 
L 52.598473 45.911616 
L 51.661374 49.219058 
L 50.724275 54.569056 
L 49.787176 58.892002 
L 48.850076 64.645097 
L 47.912977 69.663529 
L 46.975878 73.793792 
L 46.038779 79.094781 
L 45.101679 82.717791 
L 44.16458 86.340545 
L 43.227481 89.668154 
L 42.290382 86.108388 
L 41.353282 94.354627 
L 40.416183 94.686654 
L 39.479084 94.82593 
L 38.541985 94.738429 
L 37.604885 94.269315 
L 36.667786 94.346322 
L 35.730687 92.986509 
L 34.793588 90.108019 
L 33.856489 86.63987 
L 32.919389 77.746065 
L 31.98229 64.292816 
L 31.045191 49.966055 
L 30.108092 59.044927 
L 29.170992 60.561534 
L 28.233893 58.442468 
L 27.296794 63.661985 
L 26.359695 62.921257 
L 25.422595 69.100194 
L 24.485496 69.113694 
L 23.548397 74.805552 
L 22.611298 74.655319 
L 21.674198 79.731456 
L 20.737099 78.702419 
L 19.8 81.279339 
z
" clip-path="url(#p8dc25d5691)" style="fill: #808080; fill-opacity: 0.5"/>
   </g>
   <g id="matplotlib.axis_1">
    <g id="xtick_1">
     <g id="line2d_1">
      <defs>
       <path id="m17e7e2cb82" d="M 0 0 
L 0 3.5 
" style="stroke: #000000; stroke-width: 0.8"/>
      </defs>
      <g>
       <use xlink:href="#m17e7e2cb82" x="19.8" y="128.16" style="stroke: #000000; stroke-width: 0.8"/>
      </g>
     </g>
     <g id="text_1">
      <!-- 0 -->
      <g transform="translate(17.019531 142.317813) scale(0.1 -0.1)">
       <defs>
        <path id="ArialMT-30" d="M 266 2259 
Q 266 3072 433 3567 
Q 600 4063 929 4331 
Q 1259 4600 1759 4600 
Q 2128 4600 2406 4451 
Q 2684 4303 2865 4023 
Q 3047 3744 3150 3342 
Q 3253 2941 3253 2259 
Q 3253 1453 3087 958 
Q 2922 463 2592 192 
Q 2263 -78 1759 -78 
Q 1097 -78 719 397 
Q 266 969 266 2259 
z
M 844 2259 
Q 844 1131 1108 757 
Q 1372 384 1759 384 
Q 2147 384 2411 759 
Q 2675 1134 2675 2259 
Q 2675 3391 2411 3762 
Q 2147 4134 1753 4134 
Q 1366 4134 1134 3806 
Q 844 3388 844 2259 
z
" transform="scale(0.015625)"/>
       </defs>
       <use xlink:href="#ArialMT-30"/>
      </g>
     </g>
    </g>
    <g id="xtick_2">
     <g id="line2d_2">
      <g>
       <use xlink:href="#m17e7e2cb82" x="76.025954" y="128.16" style="stroke: #000000; stroke-width: 0.8"/>
      </g>
     </g>
     <g id="text_2">
      <!-- 10 -->
      <g transform="translate(70.465017 142.317813) scale(0.1 -0.1)">
       <defs>
        <path id="ArialMT-31" d="M 2384 0 
L 1822 0 
L 1822 3584 
Q 1619 3391 1289 3197 
Q 959 3003 697 2906 
L 697 3450 
Q 1169 3672 1522 3987 
Q 1875 4303 2022 4600 
L 2384 4600 
L 2384 0 
z
" transform="scale(0.015625)"/>
       </defs>
       <use xlink:href="#ArialMT-31"/>
       <use xlink:href="#ArialMT-30" x="55.615234"/>
      </g>
     </g>
    </g>
    <g id="xtick_3">
     <g id="line2d_3">
      <g>
       <use xlink:href="#m17e7e2cb82" x="132.251908" y="128.16" style="stroke: #000000; stroke-width: 0.8"/>
      </g>
     </g>
     <g id="text_3">
      <!-- 20 -->
      <g transform="translate(126.690971 142.317813) scale(0.1 -0.1)">
       <defs>
        <path id="ArialMT-32" d="M 3222 541 
L 3222 0 
L 194 0 
Q 188 203 259 391 
Q 375 700 629 1000 
Q 884 1300 1366 1694 
Q 2113 2306 2375 2664 
Q 2638 3022 2638 3341 
Q 2638 3675 2398 3904 
Q 2159 4134 1775 4134 
Q 1369 4134 1125 3890 
Q 881 3647 878 3216 
L 300 3275 
Q 359 3922 746 4261 
Q 1134 4600 1788 4600 
Q 2447 4600 2831 4234 
Q 3216 3869 3216 3328 
Q 3216 3053 3103 2787 
Q 2991 2522 2730 2228 
Q 2469 1934 1863 1422 
Q 1356 997 1212 845 
Q 1069 694 975 541 
L 3222 541 
z
" transform="scale(0.015625)"/>
       </defs>
       <use xlink:href="#ArialMT-32"/>
       <use xlink:href="#ArialMT-30" x="55.615234"/>
      </g>
     </g>
    </g>
    <g id="text_4">
     <!-- Time from start of external stimulus (h) -->
     <g transform="translate(-4.202812 155.585) scale(0.1 -0.1)">
      <defs>
       <path id="ArialMT-54" d="M 1659 0 
L 1659 4041 
L 150 4041 
L 150 4581 
L 3781 4581 
L 3781 4041 
L 2266 4041 
L 2266 0 
L 1659 0 
z
" transform="scale(0.015625)"/>
       <path id="ArialMT-69" d="M 425 3934 
L 425 4581 
L 988 4581 
L 988 3934 
L 425 3934 
z
M 425 0 
L 425 3319 
L 988 3319 
L 988 0 
L 425 0 
z
" transform="scale(0.015625)"/>
       <path id="ArialMT-6d" d="M 422 0 
L 422 3319 
L 925 3319 
L 925 2853 
Q 1081 3097 1340 3245 
Q 1600 3394 1931 3394 
Q 2300 3394 2536 3241 
Q 2772 3088 2869 2813 
Q 3263 3394 3894 3394 
Q 4388 3394 4653 3120 
Q 4919 2847 4919 2278 
L 4919 0 
L 4359 0 
L 4359 2091 
Q 4359 2428 4304 2576 
Q 4250 2725 4106 2815 
Q 3963 2906 3769 2906 
Q 3419 2906 3187 2673 
Q 2956 2441 2956 1928 
L 2956 0 
L 2394 0 
L 2394 2156 
Q 2394 2531 2256 2718 
Q 2119 2906 1806 2906 
Q 1569 2906 1367 2781 
Q 1166 2656 1075 2415 
Q 984 2175 984 1722 
L 984 0 
L 422 0 
z
" transform="scale(0.015625)"/>
       <path id="ArialMT-65" d="M 2694 1069 
L 3275 997 
Q 3138 488 2766 206 
Q 2394 -75 1816 -75 
Q 1088 -75 661 373 
Q 234 822 234 1631 
Q 234 2469 665 2931 
Q 1097 3394 1784 3394 
Q 2450 3394 2872 2941 
Q 3294 2488 3294 1666 
Q 3294 1616 3291 1516 
L 816 1516 
Q 847 969 1125 678 
Q 1403 388 1819 388 
Q 2128 388 2347 550 
Q 2566 713 2694 1069 
z
M 847 1978 
L 2700 1978 
Q 2663 2397 2488 2606 
Q 2219 2931 1791 2931 
Q 1403 2931 1139 2672 
Q 875 2413 847 1978 
z
" transform="scale(0.015625)"/>
       <path id="ArialMT-20" transform="scale(0.015625)"/>
       <path id="ArialMT-66" d="M 556 0 
L 556 2881 
L 59 2881 
L 59 3319 
L 556 3319 
L 556 3672 
Q 556 4006 616 4169 
Q 697 4388 901 4523 
Q 1106 4659 1475 4659 
Q 1713 4659 2000 4603 
L 1916 4113 
Q 1741 4144 1584 4144 
Q 1328 4144 1222 4034 
Q 1116 3925 1116 3625 
L 1116 3319 
L 1763 3319 
L 1763 2881 
L 1116 2881 
L 1116 0 
L 556 0 
z
" transform="scale(0.015625)"/>
       <path id="ArialMT-72" d="M 416 0 
L 416 3319 
L 922 3319 
L 922 2816 
Q 1116 3169 1280 3281 
Q 1444 3394 1641 3394 
Q 1925 3394 2219 3213 
L 2025 2691 
Q 1819 2813 1613 2813 
Q 1428 2813 1281 2702 
Q 1134 2591 1072 2394 
Q 978 2094 978 1738 
L 978 0 
L 416 0 
z
" transform="scale(0.015625)"/>
       <path id="ArialMT-6f" d="M 213 1659 
Q 213 2581 725 3025 
Q 1153 3394 1769 3394 
Q 2453 3394 2887 2945 
Q 3322 2497 3322 1706 
Q 3322 1066 3130 698 
Q 2938 331 2570 128 
Q 2203 -75 1769 -75 
Q 1072 -75 642 372 
Q 213 819 213 1659 
z
M 791 1659 
Q 791 1022 1069 705 
Q 1347 388 1769 388 
Q 2188 388 2466 706 
Q 2744 1025 2744 1678 
Q 2744 2294 2464 2611 
Q 2184 2928 1769 2928 
Q 1347 2928 1069 2612 
Q 791 2297 791 1659 
z
" transform="scale(0.015625)"/>
       <path id="ArialMT-73" d="M 197 991 
L 753 1078 
Q 800 744 1014 566 
Q 1228 388 1613 388 
Q 2000 388 2187 545 
Q 2375 703 2375 916 
Q 2375 1106 2209 1216 
Q 2094 1291 1634 1406 
Q 1016 1563 777 1677 
Q 538 1791 414 1992 
Q 291 2194 291 2438 
Q 291 2659 392 2848 
Q 494 3038 669 3163 
Q 800 3259 1026 3326 
Q 1253 3394 1513 3394 
Q 1903 3394 2198 3281 
Q 2494 3169 2634 2976 
Q 2775 2784 2828 2463 
L 2278 2388 
Q 2241 2644 2061 2787 
Q 1881 2931 1553 2931 
Q 1166 2931 1000 2803 
Q 834 2675 834 2503 
Q 834 2394 903 2306 
Q 972 2216 1119 2156 
Q 1203 2125 1616 2013 
Q 2213 1853 2448 1751 
Q 2684 1650 2818 1456 
Q 2953 1263 2953 975 
Q 2953 694 2789 445 
Q 2625 197 2315 61 
Q 2006 -75 1616 -75 
Q 969 -75 630 194 
Q 291 463 197 991 
z
" transform="scale(0.015625)"/>
       <path id="ArialMT-74" d="M 1650 503 
L 1731 6 
Q 1494 -44 1306 -44 
Q 1000 -44 831 53 
Q 663 150 594 308 
Q 525 466 525 972 
L 525 2881 
L 113 2881 
L 113 3319 
L 525 3319 
L 525 4141 
L 1084 4478 
L 1084 3319 
L 1650 3319 
L 1650 2881 
L 1084 2881 
L 1084 941 
Q 1084 700 1114 631 
Q 1144 563 1211 522 
Q 1278 481 1403 481 
Q 1497 481 1650 503 
z
" transform="scale(0.015625)"/>
       <path id="ArialMT-61" d="M 2588 409 
Q 2275 144 1986 34 
Q 1697 -75 1366 -75 
Q 819 -75 525 192 
Q 231 459 231 875 
Q 231 1119 342 1320 
Q 453 1522 633 1644 
Q 813 1766 1038 1828 
Q 1203 1872 1538 1913 
Q 2219 1994 2541 2106 
Q 2544 2222 2544 2253 
Q 2544 2597 2384 2738 
Q 2169 2928 1744 2928 
Q 1347 2928 1158 2789 
Q 969 2650 878 2297 
L 328 2372 
Q 403 2725 575 2942 
Q 747 3159 1072 3276 
Q 1397 3394 1825 3394 
Q 2250 3394 2515 3294 
Q 2781 3194 2906 3042 
Q 3031 2891 3081 2659 
Q 3109 2516 3109 2141 
L 3109 1391 
Q 3109 606 3145 398 
Q 3181 191 3288 0 
L 2700 0 
Q 2613 175 2588 409 
z
M 2541 1666 
Q 2234 1541 1622 1453 
Q 1275 1403 1131 1340 
Q 988 1278 909 1158 
Q 831 1038 831 891 
Q 831 666 1001 516 
Q 1172 366 1500 366 
Q 1825 366 2078 508 
Q 2331 650 2450 897 
Q 2541 1088 2541 1459 
L 2541 1666 
z
" transform="scale(0.015625)"/>
       <path id="ArialMT-78" d="M 47 0 
L 1259 1725 
L 138 3319 
L 841 3319 
L 1350 2541 
Q 1494 2319 1581 2169 
Q 1719 2375 1834 2534 
L 2394 3319 
L 3066 3319 
L 1919 1756 
L 3153 0 
L 2463 0 
L 1781 1031 
L 1600 1309 
L 728 0 
L 47 0 
z
" transform="scale(0.015625)"/>
       <path id="ArialMT-6e" d="M 422 0 
L 422 3319 
L 928 3319 
L 928 2847 
Q 1294 3394 1984 3394 
Q 2284 3394 2536 3286 
Q 2788 3178 2913 3003 
Q 3038 2828 3088 2588 
Q 3119 2431 3119 2041 
L 3119 0 
L 2556 0 
L 2556 2019 
Q 2556 2363 2490 2533 
Q 2425 2703 2258 2804 
Q 2091 2906 1866 2906 
Q 1506 2906 1245 2678 
Q 984 2450 984 1813 
L 984 0 
L 422 0 
z
" transform="scale(0.015625)"/>
       <path id="ArialMT-6c" d="M 409 0 
L 409 4581 
L 972 4581 
L 972 0 
L 409 0 
z
" transform="scale(0.015625)"/>
       <path id="ArialMT-75" d="M 2597 0 
L 2597 488 
Q 2209 -75 1544 -75 
Q 1250 -75 995 37 
Q 741 150 617 320 
Q 494 491 444 738 
Q 409 903 409 1263 
L 409 3319 
L 972 3319 
L 972 1478 
Q 972 1038 1006 884 
Q 1059 663 1231 536 
Q 1403 409 1656 409 
Q 1909 409 2131 539 
Q 2353 669 2445 892 
Q 2538 1116 2538 1541 
L 2538 3319 
L 3100 3319 
L 3100 0 
L 2597 0 
z
" transform="scale(0.015625)"/>
       <path id="ArialMT-28" d="M 1497 -1347 
Q 1031 -759 709 28 
Q 388 816 388 1659 
Q 388 2403 628 3084 
Q 909 3875 1497 4659 
L 1900 4659 
Q 1522 4009 1400 3731 
Q 1209 3300 1100 2831 
Q 966 2247 966 1656 
Q 966 153 1900 -1347 
L 1497 -1347 
z
" transform="scale(0.015625)"/>
       <path id="ArialMT-68" d="M 422 0 
L 422 4581 
L 984 4581 
L 984 2938 
Q 1378 3394 1978 3394 
Q 2347 3394 2619 3248 
Q 2891 3103 3008 2847 
Q 3125 2591 3125 2103 
L 3125 0 
L 2563 0 
L 2563 2103 
Q 2563 2525 2380 2717 
Q 2197 2909 1863 2909 
Q 1613 2909 1392 2779 
Q 1172 2650 1078 2428 
Q 984 2206 984 1816 
L 984 0 
L 422 0 
z
" transform="scale(0.015625)"/>
       <path id="ArialMT-29" d="M 791 -1347 
L 388 -1347 
Q 1322 153 1322 1656 
Q 1322 2244 1188 2822 
Q 1081 3291 891 3722 
Q 769 4003 388 4659 
L 791 4659 
Q 1378 3875 1659 3084 
Q 1900 2403 1900 1659 
Q 1900 816 1576 28 
Q 1253 -759 791 -1347 
z
" transform="scale(0.015625)"/>
      </defs>
      <use xlink:href="#ArialMT-54"/>
      <use xlink:href="#ArialMT-69" x="57.333984"/>
      <use xlink:href="#ArialMT-6d" x="79.550781"/>
      <use xlink:href="#ArialMT-65" x="162.851562"/>
      <use xlink:href="#ArialMT-20" x="218.466797"/>
      <use xlink:href="#ArialMT-66" x="246.25"/>
      <use xlink:href="#ArialMT-72" x="274.033203"/>
      <use xlink:href="#ArialMT-6f" x="307.333984"/>
      <use xlink:href="#ArialMT-6d" x="362.949219"/>
      <use xlink:href="#ArialMT-20" x="446.25"/>
      <use xlink:href="#ArialMT-73" x="474.033203"/>
      <use xlink:href="#ArialMT-74" x="524.033203"/>
      <use xlink:href="#ArialMT-61" x="551.816406"/>
      <use xlink:href="#ArialMT-72" x="607.431641"/>
      <use xlink:href="#ArialMT-74" x="640.732422"/>
      <use xlink:href="#ArialMT-20" x="668.515625"/>
      <use xlink:href="#ArialMT-6f" x="696.298828"/>
      <use xlink:href="#ArialMT-66" x="751.914062"/>
      <use xlink:href="#ArialMT-20" x="779.697266"/>
      <use xlink:href="#ArialMT-65" x="807.480469"/>
      <use xlink:href="#ArialMT-78" x="863.095703"/>
      <use xlink:href="#ArialMT-74" x="913.095703"/>
      <use xlink:href="#ArialMT-65" x="940.878906"/>
      <use xlink:href="#ArialMT-72" x="996.494141"/>
      <use xlink:href="#ArialMT-6e" x="1029.794922"/>
      <use xlink:href="#ArialMT-61" x="1085.410156"/>
      <use xlink:href="#ArialMT-6c" x="1141.025391"/>
      <use xlink:href="#ArialMT-20" x="1163.242188"/>
      <use xlink:href="#ArialMT-73" x="1191.025391"/>
      <use xlink:href="#ArialMT-74" x="1241.025391"/>
      <use xlink:href="#ArialMT-69" x="1268.808594"/>
      <use xlink:href="#ArialMT-6d" x="1291.025391"/>
      <use xlink:href="#ArialMT-75" x="1374.326172"/>
      <use xlink:href="#ArialMT-6c" x="1429.941406"/>
      <use xlink:href="#ArialMT-75" x="1452.158203"/>
      <use xlink:href="#ArialMT-73" x="1507.773438"/>
      <use xlink:href="#ArialMT-20" x="1557.773438"/>
      <use xlink:href="#ArialMT-28" x="1585.556641"/>
      <use xlink:href="#ArialMT-68" x="1618.857422"/>
      <use xlink:href="#ArialMT-29" x="1674.472656"/>
     </g>
    </g>
   </g>
   <g id="matplotlib.axis_2">
    <g id="ytick_1">
     <g id="line2d_4">
      <defs>
       <path id="m414b476783" d="M 0 0 
L -3.5 0 
" style="stroke: #000000; stroke-width: 0.8"/>
      </defs>
      <g>
       <use xlink:href="#m414b476783" x="19.8" y="124.690215" style="stroke: #000000; stroke-width: 0.8"/>
      </g>
     </g>
     <g id="text_5">
      <!-- 0 -->
      <g transform="translate(7.239063 128.269121) scale(0.1 -0.1)">
       <use xlink:href="#ArialMT-30"/>
      </g>
     </g>
    </g>
    <g id="ytick_2">
     <g id="line2d_5">
      <g>
       <use xlink:href="#m414b476783" x="19.8" y="89.992365" style="stroke: #000000; stroke-width: 0.8"/>
      </g>
     </g>
     <g id="text_6">
      <!-- 2 -->
      <g transform="translate(7.239063 93.571271) scale(0.1 -0.1)">
       <use xlink:href="#ArialMT-32"/>
      </g>
     </g>
    </g>
    <g id="ytick_3">
     <g id="line2d_6">
      <g>
       <use xlink:href="#m414b476783" x="19.8" y="55.294515" style="stroke: #000000; stroke-width: 0.8"/>
      </g>
     </g>
     <g id="text_7">
      <!-- 4 -->
      <g transform="translate(7.239063 58.873421) scale(0.1 -0.1)">
       <defs>
        <path id="ArialMT-34" d="M 2069 0 
L 2069 1097 
L 81 1097 
L 81 1613 
L 2172 4581 
L 2631 4581 
L 2631 1613 
L 3250 1613 
L 3250 1097 
L 2631 1097 
L 2631 0 
L 2069 0 
z
M 2069 1613 
L 2069 3678 
L 634 1613 
L 2069 1613 
z
" transform="scale(0.015625)"/>
       </defs>
       <use xlink:href="#ArialMT-34"/>
      </g>
     </g>
    </g>
    <g id="ytick_4">
     <g id="line2d_7">
      <g>
       <use xlink:href="#m414b476783" x="19.8" y="20.596665" style="stroke: #000000; stroke-width: 0.8"/>
      </g>
     </g>
     <g id="text_8">
      <!-- 6 -->
      <g transform="translate(7.239063 24.175571) scale(0.1 -0.1)">
       <defs>
        <path id="ArialMT-36" d="M 3184 3459 
L 2625 3416 
Q 2550 3747 2413 3897 
Q 2184 4138 1850 4138 
Q 1581 4138 1378 3988 
Q 1113 3794 959 3422 
Q 806 3050 800 2363 
Q 1003 2672 1297 2822 
Q 1591 2972 1913 2972 
Q 2475 2972 2870 2558 
Q 3266 2144 3266 1488 
Q 3266 1056 3080 686 
Q 2894 316 2569 119 
Q 2244 -78 1831 -78 
Q 1128 -78 684 439 
Q 241 956 241 2144 
Q 241 3472 731 4075 
Q 1159 4600 1884 4600 
Q 2425 4600 2770 4297 
Q 3116 3994 3184 3459 
z
M 888 1484 
Q 888 1194 1011 928 
Q 1134 663 1356 523 
Q 1578 384 1822 384 
Q 2178 384 2434 671 
Q 2691 959 2691 1453 
Q 2691 1928 2437 2201 
Q 2184 2475 1800 2475 
Q 1419 2475 1153 2201 
Q 888 1928 888 1484 
z
" transform="scale(0.015625)"/>
       </defs>
       <use xlink:href="#ArialMT-36"/>
      </g>
     </g>
    </g>
    <g id="text_9">
     <!-- Mean p53 level (FC) -->
     <g transform="translate(1.134375 118.012188) rotate(-90) scale(0.1 -0.1)">
      <defs>
       <path id="ArialMT-4d" d="M 475 0 
L 475 4581 
L 1388 4581 
L 2472 1338 
Q 2622 884 2691 659 
Q 2769 909 2934 1394 
L 4031 4581 
L 4847 4581 
L 4847 0 
L 4263 0 
L 4263 3834 
L 2931 0 
L 2384 0 
L 1059 3900 
L 1059 0 
L 475 0 
z
" transform="scale(0.015625)"/>
       <path id="ArialMT-70" d="M 422 -1272 
L 422 3319 
L 934 3319 
L 934 2888 
Q 1116 3141 1344 3267 
Q 1572 3394 1897 3394 
Q 2322 3394 2647 3175 
Q 2972 2956 3137 2557 
Q 3303 2159 3303 1684 
Q 3303 1175 3120 767 
Q 2938 359 2589 142 
Q 2241 -75 1856 -75 
Q 1575 -75 1351 44 
Q 1128 163 984 344 
L 984 -1272 
L 422 -1272 
z
M 931 1641 
Q 931 1000 1190 694 
Q 1450 388 1819 388 
Q 2194 388 2461 705 
Q 2728 1022 2728 1688 
Q 2728 2322 2467 2637 
Q 2206 2953 1844 2953 
Q 1484 2953 1207 2617 
Q 931 2281 931 1641 
z
" transform="scale(0.015625)"/>
       <path id="ArialMT-35" d="M 266 1200 
L 856 1250 
Q 922 819 1161 601 
Q 1400 384 1738 384 
Q 2144 384 2425 690 
Q 2706 997 2706 1503 
Q 2706 1984 2436 2262 
Q 2166 2541 1728 2541 
Q 1456 2541 1237 2417 
Q 1019 2294 894 2097 
L 366 2166 
L 809 4519 
L 3088 4519 
L 3088 3981 
L 1259 3981 
L 1013 2750 
Q 1425 3038 1878 3038 
Q 2478 3038 2890 2622 
Q 3303 2206 3303 1553 
Q 3303 931 2941 478 
Q 2500 -78 1738 -78 
Q 1113 -78 717 272 
Q 322 622 266 1200 
z
" transform="scale(0.015625)"/>
       <path id="ArialMT-33" d="M 269 1209 
L 831 1284 
Q 928 806 1161 595 
Q 1394 384 1728 384 
Q 2125 384 2398 659 
Q 2672 934 2672 1341 
Q 2672 1728 2419 1979 
Q 2166 2231 1775 2231 
Q 1616 2231 1378 2169 
L 1441 2663 
Q 1497 2656 1531 2656 
Q 1891 2656 2178 2843 
Q 2466 3031 2466 3422 
Q 2466 3731 2256 3934 
Q 2047 4138 1716 4138 
Q 1388 4138 1169 3931 
Q 950 3725 888 3313 
L 325 3413 
Q 428 3978 793 4289 
Q 1159 4600 1703 4600 
Q 2078 4600 2393 4439 
Q 2709 4278 2876 4000 
Q 3044 3722 3044 3409 
Q 3044 3113 2884 2869 
Q 2725 2625 2413 2481 
Q 2819 2388 3044 2092 
Q 3269 1797 3269 1353 
Q 3269 753 2831 336 
Q 2394 -81 1725 -81 
Q 1122 -81 723 278 
Q 325 638 269 1209 
z
" transform="scale(0.015625)"/>
       <path id="ArialMT-76" d="M 1344 0 
L 81 3319 
L 675 3319 
L 1388 1331 
Q 1503 1009 1600 663 
Q 1675 925 1809 1294 
L 2547 3319 
L 3125 3319 
L 1869 0 
L 1344 0 
z
" transform="scale(0.015625)"/>
       <path id="ArialMT-46" d="M 525 0 
L 525 4581 
L 3616 4581 
L 3616 4041 
L 1131 4041 
L 1131 2622 
L 3281 2622 
L 3281 2081 
L 1131 2081 
L 1131 0 
L 525 0 
z
" transform="scale(0.015625)"/>
       <path id="ArialMT-43" d="M 3763 1606 
L 4369 1453 
Q 4178 706 3683 314 
Q 3188 -78 2472 -78 
Q 1731 -78 1267 223 
Q 803 525 561 1097 
Q 319 1669 319 2325 
Q 319 3041 592 3573 
Q 866 4106 1370 4382 
Q 1875 4659 2481 4659 
Q 3169 4659 3637 4309 
Q 4106 3959 4291 3325 
L 3694 3184 
Q 3534 3684 3231 3912 
Q 2928 4141 2469 4141 
Q 1941 4141 1586 3887 
Q 1231 3634 1087 3207 
Q 944 2781 944 2328 
Q 944 1744 1114 1308 
Q 1284 872 1643 656 
Q 2003 441 2422 441 
Q 2931 441 3284 734 
Q 3638 1028 3763 1606 
z
" transform="scale(0.015625)"/>
      </defs>
      <use xlink:href="#ArialMT-4d"/>
      <use xlink:href="#ArialMT-65" x="83.300781"/>
      <use xlink:href="#ArialMT-61" x="138.916016"/>
      <use xlink:href="#ArialMT-6e" x="194.53125"/>
      <use xlink:href="#ArialMT-20" x="250.146484"/>
      <use xlink:href="#ArialMT-70" x="277.929688"/>
      <use xlink:href="#ArialMT-35" x="333.544922"/>
      <use xlink:href="#ArialMT-33" x="389.160156"/>
      <use xlink:href="#ArialMT-20" x="444.775391"/>
      <use xlink:href="#ArialMT-6c" x="472.558594"/>
      <use xlink:href="#ArialMT-65" x="494.775391"/>
      <use xlink:href="#ArialMT-76" x="550.390625"/>
      <use xlink:href="#ArialMT-65" x="600.390625"/>
      <use xlink:href="#ArialMT-6c" x="656.005859"/>
      <use xlink:href="#ArialMT-20" x="678.222656"/>
      <use xlink:href="#ArialMT-28" x="706.005859"/>
      <use xlink:href="#ArialMT-46" x="739.306641"/>
      <use xlink:href="#ArialMT-43" x="800.390625"/>
      <use xlink:href="#ArialMT-29" x="872.607422"/>
     </g>
    </g>
   </g>
   <g id="line2d_8">
    <path d="M -1 124.690215 
L 18.862901 124.690215 
L 18.862901 118.90724 
L 30.108092 118.90724 
L 30.108092 124.690215 
L 41.353282 124.690215 
L 41.353282 118.90724 
L 52.598473 118.90724 
L 52.598473 124.690215 
L 63.843664 124.690215 
L 63.843664 118.90724 
L 75.088855 118.90724 
L 75.088855 124.690215 
L 86.334046 124.690215 
L 86.334046 118.90724 
L 97.579237 118.90724 
L 97.579237 124.690215 
L 108.824427 124.690215 
L 108.824427 118.90724 
L 120.069618 118.90724 
L 120.069618 124.690215 
L 131.314809 124.690215 
L 131.314809 118.90724 
L 142.56 118.90724 
L 142.56 124.690215 
L 159.4 124.690215 
" clip-path="url(#p8dc25d5691)" style="fill: none; stroke: #000000; stroke-width: 1.5; stroke-linecap: square"/>
   </g>
   <g id="line2d_9">
    <path d="M 19.8 91.261027 
L 20.737099 89.666228 
L 21.674198 90.455255 
L 22.611298 86.796833 
L 23.548397 86.899829 
L 24.485496 82.835126 
L 25.422595 82.760563 
L 26.359695 78.023436 
L 27.296794 78.751734 
L 28.233893 75.213183 
L 29.170992 77.230121 
L 30.108092 76.15119 
L 31.045191 70.133621 
L 32.919389 89.158537 
L 33.856489 95.602077 
L 34.793588 98.11715 
L 35.730687 100.000335 
L 36.667786 100.843335 
L 37.604885 100.93703 
L 38.541985 101.308463 
L 40.416183 101.155448 
L 41.353282 100.983319 
L 42.290382 94.706675 
L 43.227481 97.355609 
L 44.16458 95.135685 
L 46.038779 89.859303 
L 46.975878 86.135932 
L 47.912977 83.300998 
L 48.850076 79.813739 
L 49.787176 75.822616 
L 50.724275 73.08279 
L 51.661374 69.308569 
L 52.598473 67.155535 
L 53.535573 58.120179 
L 54.472672 67.697829 
L 55.409771 81.308115 
L 56.34687 90.161291 
L 57.283969 94.590647 
L 58.221069 97.464388 
L 59.158168 98.624909 
L 60.095267 99.307145 
L 61.032366 100.166465 
L 61.969466 99.548687 
L 62.906565 99.850755 
L 63.843664 99.679276 
L 64.780763 92.925756 
L 65.717863 95.803065 
L 66.654962 93.500701 
L 68.52916 88.33936 
L 69.46626 84.845521 
L 70.403359 82.371622 
L 71.340458 79.320115 
L 72.277557 75.126099 
L 73.214656 72.957522 
L 74.151756 69.532274 
L 75.088855 68.412134 
L 76.025954 58.594462 
L 76.963053 65.813139 
L 77.900153 78.299437 
L 78.837252 86.653407 
L 79.774351 91.603999 
L 80.71145 94.273056 
L 81.64855 95.862276 
L 82.585649 97.086789 
L 83.522748 97.100474 
L 84.459847 98.043941 
L 85.396947 98.013526 
L 86.334046 97.703537 
L 87.271145 92.16372 
L 88.208244 93.709208 
L 90.082443 89.682022 
L 91.019542 87.145792 
L 91.956641 84.096266 
L 92.89374 81.957773 
L 93.83084 78.323625 
L 94.767939 75.265531 
L 95.705038 72.671561 
L 96.642137 67.970931 
L 97.579237 68.725241 
L 98.516336 55.839 
L 99.453435 66.972693 
L 100.390534 76.093536 
L 101.327634 86.833177 
L 102.264733 90.407865 
L 103.201832 94.717125 
L 104.138931 94.987203 
L 105.076031 96.899747 
L 106.01313 96.680908 
L 106.950229 97.376489 
L 107.887328 96.77179 
L 108.824427 97.49819 
L 109.761527 90.624547 
L 110.698626 92.725048 
L 111.635725 91.171883 
L 112.572824 88.62278 
L 113.509924 84.215123 
L 114.447023 83.085715 
L 115.384122 81.198068 
L 116.321221 76.658956 
L 117.258321 75.115018 
L 118.19542 70.795987 
L 119.132519 69.134336 
L 120.069618 65.647571 
L 121.006718 54.973953 
L 121.943817 61.469811 
L 122.880916 75.420752 
L 124.755115 90.417857 
L 125.692214 92.157434 
L 126.629313 95.294332 
L 127.566412 95.03554 
L 128.503511 97.077983 
L 129.440611 95.846741 
L 130.37771 97.258335 
L 131.314809 95.693758 
L 132.251908 91.374228 
L 133.189008 91.148427 
L 134.126107 91.045392 
L 135.063206 86.974659 
L 136.000305 85.824976 
L 136.937405 81.451898 
L 137.874504 79.899169 
L 138.811603 76.813606 
L 139.748702 74.129659 
L 141.622901 67.470512 
L 142.56 65.70824 
L 143.497099 53.171345 
L 144.434198 61.057978 
L 145.371298 70.97357 
L 146.308397 82.281158 
L 147.245496 86.560871 
L 148.182595 91.885537 
L 149.119695 92.80997 
L 150.056794 95.4655 
L 150.993893 94.882755 
L 151.930992 96.206841 
L 152.868092 95.356096 
L 152.868092 95.356096 
" clip-path="url(#p8dc25d5691)" style="fill: none; stroke: #4d4d4d; stroke-width: 1.5; stroke-linecap: square"/>
   </g>
   <g id="patch_3">
    <path d="M 19.8 128.16 
L 19.8 17.28 
" style="fill: none; stroke: #000000; stroke-width: 0.8; stroke-linejoin: miter; stroke-linecap: square"/>
   </g>
   <g id="patch_4">
    <path d="M 142.56 128.16 
L 142.56 17.28 
" style="fill: none; stroke: #000000; stroke-width: 0.8; stroke-linejoin: miter; stroke-linecap: square"/>
   </g>
   <g id="patch_5">
    <path d="M 19.8 128.16 
L 142.56 128.16 
" style="fill: none; stroke: #000000; stroke-width: 0.8; stroke-linejoin: miter; stroke-linecap: square"/>
   </g>
   <g id="patch_6">
    <path d="M 19.8 17.28 
L 142.56 17.28 
" style="fill: none; stroke: #000000; stroke-width: 0.8; stroke-linejoin: miter; stroke-linecap: square"/>
   </g>
  </g>
 </g>
 <defs>
  <clipPath id="p8dc25d5691">
   <rect x="19.8" y="17.28" width="122.76" height="110.88"/>
  </clipPath>
 </defs>
</svg>
