<?xml version="1.0" encoding="utf-8" standalone="no"?>
<!DOCTYPE svg PUBLIC "-//W3C//DTD SVG 1.1//EN"
  "http://www.w3.org/Graphics/SVG/1.1/DTD/svg11.dtd">
<svg xmlns:xlink="http://www.w3.org/1999/xlink" width="158.4pt" height="144pt" viewBox="0 0 158.4 144" xmlns="http://www.w3.org/2000/svg" version="1.1">
 <metadata>
  <rdf:RDF xmlns:dc="http://purl.org/dc/elements/1.1/" xmlns:cc="http://creativecommons.org/ns#" xmlns:rdf="http://www.w3.org/1999/02/22-rdf-syntax-ns#">
   <cc:Work>
    <dc:type rdf:resource="http://purl.org/dc/dcmitype/StillImage"/>
    <dc:date>2024-07-09T19:54:36.532709</dc:date>
    <dc:format>image/svg+xml</dc:format>
    <dc:creator>
     <cc:Agent>
      <dc:title>Matplotlib v3.8.3, https://matplotlib.org/</dc:title>
     </cc:Agent>
    </dc:creator>
   </cc:Work>
  </rdf:RDF>
 </metadata>
 <defs>
  <style type="text/css">*{stroke-linejoin: round; stroke-linecap: butt}</style>
 </defs>
 <g id="figure_1">
  <g id="patch_1">
   <path d="M 0 144 
L 158.4 144 
L 158.4 0 
L 0 0 
z
" style="fill: #ffffff"/>
  </g>
  <g id="axes_1">
   <g id="patch_2">
    <path d="M 19.8 128.16 
L 142.56 128.16 
L 142.56 17.28 
L 19.8 17.28 
z
" style="fill: #f2f2f2"/>
   </g>
   <g id="PolyCollection_1">
    <path d="M 19.8 66.106244 
L 19.8 94.231469 
L 20.20649 96.684466 
L 20.61298 94.408822 
L 21.01947 91.495055 
L 21.42596 89.485412 
L 21.83245 87.50959 
L 22.23894 85.368004 
L 22.64543 84.340742 
L 23.051921 83.174802 
L 23.458411 82.910206 
L 23.864901 82.910291 
L 24.271391 83.560626 
L 24.677881 85.103131 
L 25.084371 86.495023 
L 25.490861 89.018684 
L 25.897351 90.75795 
L 26.303841 92.569444 
L 26.710331 93.944579 
L 27.116821 95.712329 
L 27.523311 96.316004 
L 27.929801 97.660752 
L 28.336291 97.699461 
L 28.742781 98.631936 
L 29.149272 98.258103 
L 29.555762 99.353425 
L 29.962252 98.329357 
L 30.368742 98.233648 
L 30.775232 96.939474 
L 31.181722 93.650921 
L 31.588212 97.931043 
L 31.994702 99.652876 
L 32.401192 100.606227 
L 32.807682 100.12435 
L 33.214172 99.931261 
L 33.620662 99.814624 
L 34.027152 99.331728 
L 34.433642 99.492858 
L 34.840132 98.697421 
L 35.246623 98.652176 
L 35.653113 97.671994 
L 36.059603 96.750644 
L 36.466093 95.965452 
L 36.872583 94.359081 
L 37.279073 93.874327 
L 37.685563 92.137069 
L 38.092053 91.891552 
L 38.498543 90.986492 
L 38.905033 90.067372 
L 39.311523 90.716547 
L 39.718013 90.325578 
L 40.124503 91.466451 
L 40.530993 91.671165 
L 40.937483 92.596193 
L 41.343974 93.806757 
L 41.750464 94.223972 
L 42.156954 90.437327 
L 42.563444 92.627962 
L 42.969934 92.40559 
L 43.376424 89.652504 
L 43.782914 88.525382 
L 44.189404 87.070919 
L 44.595894 85.322312 
L 45.002384 85.37797 
L 45.408874 83.642128 
L 45.815364 83.730835 
L 46.221854 83.089349 
L 46.628344 82.52374 
L 47.034834 83.326048 
L 47.441325 82.919202 
L 47.847815 84.481823 
L 48.254305 85.032837 
L 48.660795 87.268705 
L 49.067285 88.020427 
L 49.473775 89.426227 
L 49.880265 90.457451 
L 50.286755 91.020178 
L 50.693245 92.882498 
L 51.099735 92.796579 
L 51.506225 93.936443 
L 51.912715 93.938309 
L 52.319205 94.248419 
L 52.725695 94.321801 
L 53.132185 93.555358 
L 53.538675 89.979028 
L 53.945166 94.008897 
L 54.351656 97.394403 
L 54.758146 98.922939 
L 55.164636 99.119761 
L 55.571126 99.629355 
L 55.977616 98.932027 
L 56.384106 99.150267 
L 56.790596 98.678087 
L 57.197086 98.352283 
L 57.603576 98.233366 
L 58.010066 97.451896 
L 58.416556 96.832854 
L 58.823046 96.236607 
L 59.229536 94.806844 
L 59.636026 94.312011 
L 60.042517 92.271292 
L 60.449007 91.930382 
L 60.855497 90.233699 
L 61.261987 90.603964 
L 61.668477 89.516925 
L 62.074967 90.649095 
L 62.481457 89.88009 
L 62.887947 91.778007 
L 63.294437 91.240918 
L 63.700927 93.294781 
L 64.107417 92.755653 
L 64.513907 89.436869 
L 64.920397 91.600258 
L 65.326887 91.197148 
L 65.733377 88.831141 
L 66.139868 88.315498 
L 66.546358 86.177639 
L 66.952848 86.138403 
L 67.359338 84.860837 
L 67.765828 85.085926 
L 68.172318 84.280244 
L 68.578808 85.338418 
L 68.985298 84.479137 
L 69.391788 85.26396 
L 69.798278 85.306903 
L 70.204768 86.427102 
L 70.611258 86.824377 
L 71.017748 87.670001 
L 71.424238 88.46124 
L 71.830728 89.310961 
L 72.237219 90.164892 
L 72.643709 90.264053 
L 73.050199 91.001483 
L 73.456689 90.632579 
L 73.863179 91.465662 
L 74.269669 90.877761 
L 74.676159 91.742215 
L 75.082649 90.809771 
L 75.489139 92.138951 
L 75.895629 86.691013 
L 76.302119 92.817491 
L 76.708609 94.970337 
L 77.115099 97.790846 
L 77.521589 97.326255 
L 77.928079 98.613603 
L 78.33457 98.06583 
L 78.74106 98.76412 
L 79.14755 97.449067 
L 79.55404 97.965772 
L 79.96053 96.427402 
L 80.36702 97.202346 
L 80.77351 95.63426 
L 81.18 95.87203 
L 81.58649 94.039652 
L 81.99298 93.960667 
L 82.39947 91.924615 
L 82.80596 91.277495 
L 83.21245 89.842263 
L 83.61894 89.284577 
L 84.02543 88.428768 
L 84.431921 88.132587 
L 84.838411 88.031082 
L 85.244901 88.311595 
L 85.651391 88.575154 
L 86.057881 88.951798 
L 86.464371 90.602097 
L 86.870861 85.272684 
L 87.277351 88.656599 
L 87.683841 86.688053 
L 88.090331 86.05189 
L 88.496821 83.937213 
L 88.903311 83.245065 
L 89.309801 82.498127 
L 89.716291 81.447615 
L 90.122781 82.335679 
L 90.529272 81.483086 
L 90.935762 81.224585 
L 91.342252 81.860974 
L 91.748742 81.577788 
L 92.155232 83.087877 
L 92.561722 83.45048 
L 92.968212 84.72256 
L 93.374702 85.400365 
L 93.781192 86.083654 
L 94.187682 87.396557 
L 94.594172 87.240726 
L 95.000662 87.947691 
L 95.407152 88.297348 
L 95.813642 89.111641 
L 96.220132 89.173234 
L 96.626623 89.050292 
L 97.033113 89.471385 
L 97.439603 88.928929 
L 97.846093 89.307025 
L 98.252583 84.243471 
L 98.659073 89.194074 
L 99.065563 93.029297 
L 99.472053 93.809788 
L 99.878543 95.263074 
L 100.285033 95.707288 
L 100.691523 95.860792 
L 101.098013 95.784726 
L 101.504503 95.690966 
L 101.910993 95.923749 
L 102.317483 94.703074 
L 102.723974 94.734966 
L 103.130464 94.369832 
L 103.536954 93.368371 
L 103.943444 93.062246 
L 104.349934 91.200907 
L 104.756424 91.002751 
L 105.162914 89.440654 
L 105.569404 89.075676 
L 105.975894 87.722906 
L 106.382384 86.769673 
L 106.788874 86.664553 
L 107.195364 85.850775 
L 107.601854 86.050284 
L 108.008344 85.552661 
L 108.414834 86.941532 
L 108.821325 87.14344 
L 109.227815 84.360314 
L 109.634305 85.951664 
L 110.040795 84.623504 
L 110.447285 83.003701 
L 110.853775 81.077888 
L 111.260265 80.394249 
L 111.666755 78.659427 
L 112.073245 78.857671 
L 112.479735 78.142097 
L 112.886225 77.289349 
L 113.292715 77.999086 
L 113.699205 78.125643 
L 114.105695 79.63522 
L 114.512185 79.471778 
L 114.918675 81.043526 
L 115.325166 81.231888 
L 115.731656 84.44445 
L 116.138146 83.900819 
L 116.544636 86.656595 
L 116.951126 86.0324 
L 117.357616 88.41152 
L 117.764106 88.015569 
L 118.170596 89.524241 
L 118.577086 88.751027 
L 118.983576 89.899888 
L 119.390066 89.094625 
L 119.796556 90.024096 
L 120.203046 89.084923 
L 120.609536 85.25012 
L 121.016026 89.448369 
L 121.422517 91.811639 
L 121.829007 93.538914 
L 122.235497 93.517345 
L 122.641987 94.564081 
L 123.048477 94.222579 
L 123.454967 94.543419 
L 123.861457 93.688041 
L 124.267947 94.396936 
L 124.674437 93.360041 
L 125.080927 93.999511 
L 125.487417 92.614005 
L 125.893907 93.313717 
L 126.300397 91.638823 
L 126.706887 91.890487 
L 127.113377 89.96164 
L 127.519868 90.445482 
L 127.926358 88.096878 
L 128.332848 88.739281 
L 128.739338 86.164824 
L 129.145828 86.315616 
L 129.552318 84.332959 
L 129.958808 84.967582 
L 130.365298 84.027914 
L 130.771788 85.193546 
L 131.178278 85.103685 
L 131.584768 85.140928 
L 131.991258 84.064131 
L 132.397748 83.677086 
L 132.804238 82.291245 
L 133.210728 81.754982 
L 133.617219 81.009662 
L 134.023709 81.519331 
L 134.430199 80.945803 
L 134.836689 82.430594 
L 135.243179 82.238283 
L 135.649669 83.747204 
L 136.056159 83.906142 
L 136.462649 84.6288 
L 136.869139 84.632939 
L 137.275629 85.428285 
L 137.682119 85.286532 
L 138.088609 86.047126 
L 138.495099 85.403272 
L 138.901589 85.80143 
L 139.308079 85.621034 
L 139.71457 86.096028 
L 140.12106 85.811074 
L 140.52755 86.355467 
L 140.93404 86.052555 
L 141.34053 86.437449 
L 141.74702 86.067825 
L 142.15351 86.331382 
L 142.56 86.098255 
L 142.96649 82.173175 
L 143.37298 86.119462 
L 143.77947 87.530935 
L 144.18596 88.633031 
L 144.59245 88.696694 
L 144.99894 89.349896 
L 145.40543 89.011854 
L 145.811921 89.940214 
L 146.218411 89.458989 
L 146.624901 90.580601 
L 147.031391 90.228164 
L 147.437881 90.194128 
L 147.844371 90.035529 
L 148.250861 89.565004 
L 148.657351 89.905883 
L 149.063841 88.4118 
L 149.470331 88.437762 
L 149.876821 87.109465 
L 150.283311 85.718389 
L 150.689801 85.048959 
L 151.096291 83.877517 
L 151.502781 83.980068 
L 151.909272 82.894742 
L 152.315762 83.217956 
L 152.722252 82.980442 
L 152.722252 31.542534 
L 152.722252 31.542534 
L 152.315762 32.9108 
L 151.909272 31.875487 
L 151.502781 34.56779 
L 151.096291 33.078506 
L 150.689801 35.690742 
L 150.283311 35.98101 
L 149.876821 35.236747 
L 149.470331 37.223026 
L 149.063841 36.33883 
L 148.657351 38.724746 
L 148.250861 38.385924 
L 147.844371 40.746024 
L 147.437881 40.141172 
L 147.031391 41.684427 
L 146.624901 43.529827 
L 146.218411 42.504265 
L 145.811921 45.250801 
L 145.40543 43.390194 
L 144.99894 45.124884 
L 144.59245 44.03155 
L 144.18596 44.272551 
L 143.77947 41.858277 
L 143.37298 38.690294 
L 142.96649 31.765239 
L 142.56 40.400693 
L 142.15351 41.355125 
L 141.74702 40.656885 
L 141.34053 41.907696 
L 140.93404 40.631917 
L 140.52755 40.928833 
L 140.12106 38.166856 
L 139.71457 38.705734 
L 139.308079 36.696601 
L 138.901589 36.266379 
L 138.495099 33.846118 
L 138.088609 34.165655 
L 137.682119 31.160137 
L 137.275629 30.987372 
L 136.869139 29.466087 
L 136.462649 30.189148 
L 136.056159 28.752523 
L 135.649669 30.097238 
L 135.243179 28.104018 
L 134.836689 30.277649 
L 134.430199 27.456847 
L 134.023709 29.566541 
L 133.617219 28.135649 
L 133.210728 30.004117 
L 132.804238 32.01243 
L 132.397748 35.958059 
L 131.991258 37.453361 
L 131.584768 40.278329 
L 131.178278 39.857207 
L 130.771788 41.566375 
L 130.365298 37.98547 
L 129.958808 39.295561 
L 129.552318 35.931539 
L 129.145828 38.683351 
L 128.739338 36.791088 
L 128.332848 41.492091 
L 127.926358 39.840041 
L 127.519868 44.441114 
L 127.113377 44.34292 
L 126.706887 49.21602 
L 126.300397 48.725327 
L 125.893907 53.324249 
L 125.487417 52.448148 
L 125.080927 55.645535 
L 124.674437 55.172747 
L 124.267947 57.814815 
L 123.861457 57.427869 
L 123.454967 59.158123 
L 123.048477 58.134044 
L 122.641987 58.94921 
L 122.235497 57.731014 
L 121.829007 57.99794 
L 121.422517 54.95226 
L 121.016026 51.149497 
L 120.609536 42.370434 
L 120.203046 51.441508 
L 119.796556 52.949686 
L 119.390066 50.983047 
L 118.983576 52.599441 
L 118.577086 49.7963 
L 118.170596 51.272872 
L 117.764106 47.888456 
L 117.357616 50.058591 
L 116.951126 44.779502 
L 116.544636 45.275942 
L 116.138146 39.264946 
L 115.731656 40.179973 
L 115.325166 33.334445 
L 114.918675 32.307948 
L 114.512185 27.949225 
L 114.105695 27.029149 
L 113.699205 23.899453 
L 113.292715 24.462074 
L 112.886225 22.317714 
L 112.479735 22.311678 
L 112.073245 23.535031 
L 111.666755 23.211604 
L 111.260265 27.23877 
L 110.853775 29.032461 
L 110.447285 34.861937 
L 110.040795 38.172247 
L 109.634305 41.64959 
L 109.227815 40.53646 
L 108.821325 45.261671 
L 108.414834 45.184255 
L 108.008344 43.828006 
L 107.601854 44.800326 
L 107.195364 42.779144 
L 106.788874 45.860226 
L 106.382384 46.220441 
L 105.975894 48.896365 
L 105.569404 51.374237 
L 105.162914 52.611524 
L 104.756424 55.817834 
L 104.349934 56.224183 
L 103.943444 58.857215 
L 103.536954 59.63173 
L 103.130464 61.414397 
L 102.723974 62.260873 
L 102.317483 62.749513 
L 101.910993 64.788235 
L 101.504503 63.874515 
L 101.098013 65.134613 
L 100.691523 65.141326 
L 100.285033 64.18286 
L 99.878543 65.012476 
L 99.472053 61.747993 
L 99.065563 58.93767 
L 98.659073 51.56027 
L 98.252583 41.895428 
L 97.846093 52.375373 
L 97.439603 50.861295 
L 97.033113 52.689607 
L 96.626623 51.289703 
L 96.220132 50.927131 
L 95.813642 49.395005 
L 95.407152 48.555032 
L 95.000662 47.581988 
L 94.594172 43.966572 
L 94.187682 43.901066 
L 93.781192 41.173818 
L 93.374702 39.830176 
L 92.968212 38.474764 
L 92.561722 35.997422 
L 92.155232 34.938879 
L 91.748742 31.125295 
L 91.342252 32.14534 
L 90.935762 29.848896 
L 90.529272 29.452607 
L 90.122781 31.598915 
L 89.716291 30.105144 
L 89.309801 33.080576 
L 88.903311 34.943306 
L 88.496821 37.015516 
L 88.090331 44.043951 
L 87.683841 46.01283 
L 87.277351 50.115393 
L 86.870861 43.316113 
L 86.464371 50.878344 
L 86.057881 51.378514 
L 85.651391 50.768485 
L 85.244901 49.625753 
L 84.838411 51.969881 
L 84.431921 52.502329 
L 84.02543 53.32761 
L 83.61894 55.930424 
L 83.21245 56.513951 
L 82.80596 60.103085 
L 82.39947 61.409368 
L 81.99298 65.589714 
L 81.58649 65.527899 
L 81.18 69.731285 
L 80.77351 67.640243 
L 80.36702 72.195958 
L 79.96053 70.609834 
L 79.55404 73.030015 
L 79.14755 71.53665 
L 78.74106 73.474973 
L 78.33457 71.591684 
L 77.928079 74.345319 
L 77.521589 72.416526 
L 77.115099 73.177278 
L 76.708609 67.915148 
L 76.302119 62.81896 
L 75.895629 51.61605 
L 75.489139 61.329325 
L 75.082649 58.99565 
L 74.676159 60.793551 
L 74.269669 59.020818 
L 73.863179 59.478418 
L 73.456689 57.329315 
L 73.050199 56.751767 
L 72.643709 53.980269 
L 72.237219 52.821711 
L 71.830728 50.45593 
L 71.424238 48.021332 
L 71.017748 45.845888 
L 70.611258 43.204988 
L 70.204768 42.128725 
L 69.798278 38.584775 
L 69.391788 38.551179 
L 68.985298 35.831311 
L 68.578808 36.979437 
L 68.172318 35.222048 
L 67.765828 37.394996 
L 67.359338 38.412245 
L 66.952848 42.967894 
L 66.546358 43.336105 
L 66.139868 48.541442 
L 65.733377 50.563287 
L 65.326887 56.607957 
L 64.920397 58.290248 
L 64.513907 54.567498 
L 64.107417 60.717905 
L 63.700927 61.616469 
L 63.294437 58.017457 
L 62.887947 60.109435 
L 62.481457 57.282354 
L 62.074967 59.833232 
L 61.668477 58.172185 
L 61.261987 61.020523 
L 60.855497 60.881258 
L 60.449007 63.503074 
L 60.042517 63.545917 
L 59.636026 66.360201 
L 59.229536 67.478391 
L 58.823046 70.114822 
L 58.416556 71.133769 
L 58.010066 72.983188 
L 57.603576 74.79722 
L 57.197086 75.222199 
L 56.790596 75.960174 
L 56.384106 76.766988 
L 55.977616 76.636742 
L 55.571126 77.548801 
L 55.164636 75.363601 
L 54.758146 74.88224 
L 54.351656 71.103929 
L 53.945166 62.049707 
L 53.538675 53.084509 
L 53.132185 59.508186 
L 52.725695 61.936656 
L 52.319205 61.900038 
L 51.912715 61.59968 
L 51.506225 61.246236 
L 51.099735 59.372531 
L 50.693245 59.303847 
L 50.286755 56.602174 
L 49.880265 56.488194 
L 49.473775 53.813731 
L 49.067285 51.397264 
L 48.660795 49.627809 
L 48.254305 45.014003 
L 47.847815 43.769244 
L 47.441325 39.220111 
L 47.034834 38.796535 
L 46.628344 36.315374 
L 46.221854 36.772761 
L 45.815364 38.448049 
L 45.408874 37.513248 
L 45.002384 41.722926 
L 44.595894 42.423172 
L 44.189404 45.950906 
L 43.782914 48.46808 
L 43.376424 51.655848 
L 42.969934 55.895937 
L 42.563444 60.615052 
L 42.156954 55.957505 
L 41.750464 63.552506 
L 41.343974 62.947352 
L 40.937483 60.992706 
L 40.530993 60.03867 
L 40.124503 60.279441 
L 39.718013 58.885987 
L 39.311523 60.81232 
L 38.905033 60.533315 
L 38.498543 63.250768 
L 38.092053 64.815486 
L 37.685563 65.316263 
L 37.279073 68.008409 
L 36.872583 69.18896 
L 36.466093 71.505028 
L 36.059603 72.69955 
L 35.653113 74.760517 
L 35.246623 76.872721 
L 34.840132 77.403489 
L 34.433642 79.162923 
L 34.027152 78.931942 
L 33.620662 79.975935 
L 33.214172 80.255355 
L 32.807682 80.371734 
L 32.401192 80.771058 
L 31.994702 77.031813 
L 31.588212 70.703612 
L 31.181722 61.553617 
L 30.775232 67.111223 
L 30.368742 68.69231 
L 29.962252 67.471452 
L 29.555762 69.672574 
L 29.149272 66.968007 
L 28.742781 67.880639 
L 28.336291 64.124306 
L 27.929801 63.51307 
L 27.523311 59.577991 
L 27.116821 57.82522 
L 26.710331 53.652146 
L 26.303841 50.775917 
L 25.897351 46.704397 
L 25.490861 43.271855 
L 25.084371 41.024703 
L 24.677881 39.54605 
L 24.271391 37.370596 
L 23.864901 37.249543 
L 23.458411 38.787063 
L 23.051921 41.010421 
L 22.64543 43.803992 
L 22.23894 47.649057 
L 21.83245 51.755534 
L 21.42596 56.196753 
L 21.01947 60.275344 
L 20.61298 65.91549 
L 20.20649 66.489381 
L 19.8 66.106244 
z
" clip-path="url(#p4504584292)" style="fill: #808080; fill-opacity: 0.5"/>
   </g>
   <g id="matplotlib.axis_1">
    <g id="xtick_1">
     <g id="line2d_1">
      <defs>
       <path id="mf3c8e52c44" d="M 0 0 
L 0 3.5 
" style="stroke: #000000; stroke-width: 0.8"/>
      </defs>
      <g>
       <use xlink:href="#mf3c8e52c44" x="19.8" y="128.16" style="stroke: #000000; stroke-width: 0.8"/>
      </g>
     </g>
     <g id="text_1">
      <!-- 0 -->
      <g transform="translate(17.019531 142.317813) scale(0.1 -0.1)">
       <defs>
        <path id="ArialMT-30" d="M 266 2259 
Q 266 3072 433 3567 
Q 600 4063 929 4331 
Q 1259 4600 1759 4600 
Q 2128 4600 2406 4451 
Q 2684 4303 2865 4023 
Q 3047 3744 3150 3342 
Q 3253 2941 3253 2259 
Q 3253 1453 3087 958 
Q 2922 463 2592 192 
Q 2263 -78 1759 -78 
Q 1097 -78 719 397 
Q 266 969 266 2259 
z
M 844 2259 
Q 844 1131 1108 757 
Q 1372 384 1759 384 
Q 2147 384 2411 759 
Q 2675 1134 2675 2259 
Q 2675 3391 2411 3762 
Q 2147 4134 1753 4134 
Q 1366 4134 1134 3806 
Q 844 3388 844 2259 
z
" transform="scale(0.015625)"/>
       </defs>
       <use xlink:href="#ArialMT-30"/>
      </g>
     </g>
    </g>
    <g id="xtick_2">
     <g id="line2d_2">
      <g>
       <use xlink:href="#mf3c8e52c44" x="68.578808" y="128.16" style="stroke: #000000; stroke-width: 0.8"/>
      </g>
     </g>
     <g id="text_2">
      <!-- 20 -->
      <g transform="translate(63.01787 142.317813) scale(0.1 -0.1)">
       <defs>
        <path id="ArialMT-32" d="M 3222 541 
L 3222 0 
L 194 0 
Q 188 203 259 391 
Q 375 700 629 1000 
Q 884 1300 1366 1694 
Q 2113 2306 2375 2664 
Q 2638 3022 2638 3341 
Q 2638 3675 2398 3904 
Q 2159 4134 1775 4134 
Q 1369 4134 1125 3890 
Q 881 3647 878 3216 
L 300 3275 
Q 359 3922 746 4261 
Q 1134 4600 1788 4600 
Q 2447 4600 2831 4234 
Q 3216 3869 3216 3328 
Q 3216 3053 3103 2787 
Q 2991 2522 2730 2228 
Q 2469 1934 1863 1422 
Q 1356 997 1212 845 
Q 1069 694 975 541 
L 3222 541 
z
" transform="scale(0.015625)"/>
       </defs>
       <use xlink:href="#ArialMT-32"/>
       <use xlink:href="#ArialMT-30" x="55.615234"/>
      </g>
     </g>
    </g>
    <g id="xtick_3">
     <g id="line2d_3">
      <g>
       <use xlink:href="#mf3c8e52c44" x="117.357616" y="128.16" style="stroke: #000000; stroke-width: 0.8"/>
      </g>
     </g>
     <g id="text_3">
      <!-- 40 -->
      <g transform="translate(111.796678 142.317813) scale(0.1 -0.1)">
       <defs>
        <path id="ArialMT-34" d="M 2069 0 
L 2069 1097 
L 81 1097 
L 81 1613 
L 2172 4581 
L 2631 4581 
L 2631 1613 
L 3250 1613 
L 3250 1097 
L 2631 1097 
L 2631 0 
L 2069 0 
z
M 2069 1613 
L 2069 3678 
L 634 1613 
L 2069 1613 
z
" transform="scale(0.015625)"/>
       </defs>
       <use xlink:href="#ArialMT-34"/>
       <use xlink:href="#ArialMT-30" x="55.615234"/>
      </g>
     </g>
    </g>
    <g id="text_4">
     <!-- Time from start of external stimulus (h) -->
     <g transform="translate(-4.202812 155.585) scale(0.1 -0.1)">
      <defs>
       <path id="ArialMT-54" d="M 1659 0 
L 1659 4041 
L 150 4041 
L 150 4581 
L 3781 4581 
L 3781 4041 
L 2266 4041 
L 2266 0 
L 1659 0 
z
" transform="scale(0.015625)"/>
       <path id="ArialMT-69" d="M 425 3934 
L 425 4581 
L 988 4581 
L 988 3934 
L 425 3934 
z
M 425 0 
L 425 3319 
L 988 3319 
L 988 0 
L 425 0 
z
" transform="scale(0.015625)"/>
       <path id="ArialMT-6d" d="M 422 0 
L 422 3319 
L 925 3319 
L 925 2853 
Q 1081 3097 1340 3245 
Q 1600 3394 1931 3394 
Q 2300 3394 2536 3241 
Q 2772 3088 2869 2813 
Q 3263 3394 3894 3394 
Q 4388 3394 4653 3120 
Q 4919 2847 4919 2278 
L 4919 0 
L 4359 0 
L 4359 2091 
Q 4359 2428 4304 2576 
Q 4250 2725 4106 2815 
Q 3963 2906 3769 2906 
Q 3419 2906 3187 2673 
Q 2956 2441 2956 1928 
L 2956 0 
L 2394 0 
L 2394 2156 
Q 2394 2531 2256 2718 
Q 2119 2906 1806 2906 
Q 1569 2906 1367 2781 
Q 1166 2656 1075 2415 
Q 984 2175 984 1722 
L 984 0 
L 422 0 
z
" transform="scale(0.015625)"/>
       <path id="ArialMT-65" d="M 2694 1069 
L 3275 997 
Q 3138 488 2766 206 
Q 2394 -75 1816 -75 
Q 1088 -75 661 373 
Q 234 822 234 1631 
Q 234 2469 665 2931 
Q 1097 3394 1784 3394 
Q 2450 3394 2872 2941 
Q 3294 2488 3294 1666 
Q 3294 1616 3291 1516 
L 816 1516 
Q 847 969 1125 678 
Q 1403 388 1819 388 
Q 2128 388 2347 550 
Q 2566 713 2694 1069 
z
M 847 1978 
L 2700 1978 
Q 2663 2397 2488 2606 
Q 2219 2931 1791 2931 
Q 1403 2931 1139 2672 
Q 875 2413 847 1978 
z
" transform="scale(0.015625)"/>
       <path id="ArialMT-20" transform="scale(0.015625)"/>
       <path id="ArialMT-66" d="M 556 0 
L 556 2881 
L 59 2881 
L 59 3319 
L 556 3319 
L 556 3672 
Q 556 4006 616 4169 
Q 697 4388 901 4523 
Q 1106 4659 1475 4659 
Q 1713 4659 2000 4603 
L 1916 4113 
Q 1741 4144 1584 4144 
Q 1328 4144 1222 4034 
Q 1116 3925 1116 3625 
L 1116 3319 
L 1763 3319 
L 1763 2881 
L 1116 2881 
L 1116 0 
L 556 0 
z
" transform="scale(0.015625)"/>
       <path id="ArialMT-72" d="M 416 0 
L 416 3319 
L 922 3319 
L 922 2816 
Q 1116 3169 1280 3281 
Q 1444 3394 1641 3394 
Q 1925 3394 2219 3213 
L 2025 2691 
Q 1819 2813 1613 2813 
Q 1428 2813 1281 2702 
Q 1134 2591 1072 2394 
Q 978 2094 978 1738 
L 978 0 
L 416 0 
z
" transform="scale(0.015625)"/>
       <path id="ArialMT-6f" d="M 213 1659 
Q 213 2581 725 3025 
Q 1153 3394 1769 3394 
Q 2453 3394 2887 2945 
Q 3322 2497 3322 1706 
Q 3322 1066 3130 698 
Q 2938 331 2570 128 
Q 2203 -75 1769 -75 
Q 1072 -75 642 372 
Q 213 819 213 1659 
z
M 791 1659 
Q 791 1022 1069 705 
Q 1347 388 1769 388 
Q 2188 388 2466 706 
Q 2744 1025 2744 1678 
Q 2744 2294 2464 2611 
Q 2184 2928 1769 2928 
Q 1347 2928 1069 2612 
Q 791 2297 791 1659 
z
" transform="scale(0.015625)"/>
       <path id="ArialMT-73" d="M 197 991 
L 753 1078 
Q 800 744 1014 566 
Q 1228 388 1613 388 
Q 2000 388 2187 545 
Q 2375 703 2375 916 
Q 2375 1106 2209 1216 
Q 2094 1291 1634 1406 
Q 1016 1563 777 1677 
Q 538 1791 414 1992 
Q 291 2194 291 2438 
Q 291 2659 392 2848 
Q 494 3038 669 3163 
Q 800 3259 1026 3326 
Q 1253 3394 1513 3394 
Q 1903 3394 2198 3281 
Q 2494 3169 2634 2976 
Q 2775 2784 2828 2463 
L 2278 2388 
Q 2241 2644 2061 2787 
Q 1881 2931 1553 2931 
Q 1166 2931 1000 2803 
Q 834 2675 834 2503 
Q 834 2394 903 2306 
Q 972 2216 1119 2156 
Q 1203 2125 1616 2013 
Q 2213 1853 2448 1751 
Q 2684 1650 2818 1456 
Q 2953 1263 2953 975 
Q 2953 694 2789 445 
Q 2625 197 2315 61 
Q 2006 -75 1616 -75 
Q 969 -75 630 194 
Q 291 463 197 991 
z
" transform="scale(0.015625)"/>
       <path id="ArialMT-74" d="M 1650 503 
L 1731 6 
Q 1494 -44 1306 -44 
Q 1000 -44 831 53 
Q 663 150 594 308 
Q 525 466 525 972 
L 525 2881 
L 113 2881 
L 113 3319 
L 525 3319 
L 525 4141 
L 1084 4478 
L 1084 3319 
L 1650 3319 
L 1650 2881 
L 1084 2881 
L 1084 941 
Q 1084 700 1114 631 
Q 1144 563 1211 522 
Q 1278 481 1403 481 
Q 1497 481 1650 503 
z
" transform="scale(0.015625)"/>
       <path id="ArialMT-61" d="M 2588 409 
Q 2275 144 1986 34 
Q 1697 -75 1366 -75 
Q 819 -75 525 192 
Q 231 459 231 875 
Q 231 1119 342 1320 
Q 453 1522 633 1644 
Q 813 1766 1038 1828 
Q 1203 1872 1538 1913 
Q 2219 1994 2541 2106 
Q 2544 2222 2544 2253 
Q 2544 2597 2384 2738 
Q 2169 2928 1744 2928 
Q 1347 2928 1158 2789 
Q 969 2650 878 2297 
L 328 2372 
Q 403 2725 575 2942 
Q 747 3159 1072 3276 
Q 1397 3394 1825 3394 
Q 2250 3394 2515 3294 
Q 2781 3194 2906 3042 
Q 3031 2891 3081 2659 
Q 3109 2516 3109 2141 
L 3109 1391 
Q 3109 606 3145 398 
Q 3181 191 3288 0 
L 2700 0 
Q 2613 175 2588 409 
z
M 2541 1666 
Q 2234 1541 1622 1453 
Q 1275 1403 1131 1340 
Q 988 1278 909 1158 
Q 831 1038 831 891 
Q 831 666 1001 516 
Q 1172 366 1500 366 
Q 1825 366 2078 508 
Q 2331 650 2450 897 
Q 2541 1088 2541 1459 
L 2541 1666 
z
" transform="scale(0.015625)"/>
       <path id="ArialMT-78" d="M 47 0 
L 1259 1725 
L 138 3319 
L 841 3319 
L 1350 2541 
Q 1494 2319 1581 2169 
Q 1719 2375 1834 2534 
L 2394 3319 
L 3066 3319 
L 1919 1756 
L 3153 0 
L 2463 0 
L 1781 1031 
L 1600 1309 
L 728 0 
L 47 0 
z
" transform="scale(0.015625)"/>
       <path id="ArialMT-6e" d="M 422 0 
L 422 3319 
L 928 3319 
L 928 2847 
Q 1294 3394 1984 3394 
Q 2284 3394 2536 3286 
Q 2788 3178 2913 3003 
Q 3038 2828 3088 2588 
Q 3119 2431 3119 2041 
L 3119 0 
L 2556 0 
L 2556 2019 
Q 2556 2363 2490 2533 
Q 2425 2703 2258 2804 
Q 2091 2906 1866 2906 
Q 1506 2906 1245 2678 
Q 984 2450 984 1813 
L 984 0 
L 422 0 
z
" transform="scale(0.015625)"/>
       <path id="ArialMT-6c" d="M 409 0 
L 409 4581 
L 972 4581 
L 972 0 
L 409 0 
z
" transform="scale(0.015625)"/>
       <path id="ArialMT-75" d="M 2597 0 
L 2597 488 
Q 2209 -75 1544 -75 
Q 1250 -75 995 37 
Q 741 150 617 320 
Q 494 491 444 738 
Q 409 903 409 1263 
L 409 3319 
L 972 3319 
L 972 1478 
Q 972 1038 1006 884 
Q 1059 663 1231 536 
Q 1403 409 1656 409 
Q 1909 409 2131 539 
Q 2353 669 2445 892 
Q 2538 1116 2538 1541 
L 2538 3319 
L 3100 3319 
L 3100 0 
L 2597 0 
z
" transform="scale(0.015625)"/>
       <path id="ArialMT-28" d="M 1497 -1347 
Q 1031 -759 709 28 
Q 388 816 388 1659 
Q 388 2403 628 3084 
Q 909 3875 1497 4659 
L 1900 4659 
Q 1522 4009 1400 3731 
Q 1209 3300 1100 2831 
Q 966 2247 966 1656 
Q 966 153 1900 -1347 
L 1497 -1347 
z
" transform="scale(0.015625)"/>
       <path id="ArialMT-68" d="M 422 0 
L 422 4581 
L 984 4581 
L 984 2938 
Q 1378 3394 1978 3394 
Q 2347 3394 2619 3248 
Q 2891 3103 3008 2847 
Q 3125 2591 3125 2103 
L 3125 0 
L 2563 0 
L 2563 2103 
Q 2563 2525 2380 2717 
Q 2197 2909 1863 2909 
Q 1613 2909 1392 2779 
Q 1172 2650 1078 2428 
Q 984 2206 984 1816 
L 984 0 
L 422 0 
z
" transform="scale(0.015625)"/>
       <path id="ArialMT-29" d="M 791 -1347 
L 388 -1347 
Q 1322 153 1322 1656 
Q 1322 2244 1188 2822 
Q 1081 3291 891 3722 
Q 769 4003 388 4659 
L 791 4659 
Q 1378 3875 1659 3084 
Q 1900 2403 1900 1659 
Q 1900 816 1576 28 
Q 1253 -759 791 -1347 
z
" transform="scale(0.015625)"/>
      </defs>
      <use xlink:href="#ArialMT-54"/>
      <use xlink:href="#ArialMT-69" x="57.333984"/>
      <use xlink:href="#ArialMT-6d" x="79.550781"/>
      <use xlink:href="#ArialMT-65" x="162.851562"/>
      <use xlink:href="#ArialMT-20" x="218.466797"/>
      <use xlink:href="#ArialMT-66" x="246.25"/>
      <use xlink:href="#ArialMT-72" x="274.033203"/>
      <use xlink:href="#ArialMT-6f" x="307.333984"/>
      <use xlink:href="#ArialMT-6d" x="362.949219"/>
      <use xlink:href="#ArialMT-20" x="446.25"/>
      <use xlink:href="#ArialMT-73" x="474.033203"/>
      <use xlink:href="#ArialMT-74" x="524.033203"/>
      <use xlink:href="#ArialMT-61" x="551.816406"/>
      <use xlink:href="#ArialMT-72" x="607.431641"/>
      <use xlink:href="#ArialMT-74" x="640.732422"/>
      <use xlink:href="#ArialMT-20" x="668.515625"/>
      <use xlink:href="#ArialMT-6f" x="696.298828"/>
      <use xlink:href="#ArialMT-66" x="751.914062"/>
      <use xlink:href="#ArialMT-20" x="779.697266"/>
      <use xlink:href="#ArialMT-65" x="807.480469"/>
      <use xlink:href="#ArialMT-78" x="863.095703"/>
      <use xlink:href="#ArialMT-74" x="913.095703"/>
      <use xlink:href="#ArialMT-65" x="940.878906"/>
      <use xlink:href="#ArialMT-72" x="996.494141"/>
      <use xlink:href="#ArialMT-6e" x="1029.794922"/>
      <use xlink:href="#ArialMT-61" x="1085.410156"/>
      <use xlink:href="#ArialMT-6c" x="1141.025391"/>
      <use xlink:href="#ArialMT-20" x="1163.242188"/>
      <use xlink:href="#ArialMT-73" x="1191.025391"/>
      <use xlink:href="#ArialMT-74" x="1241.025391"/>
      <use xlink:href="#ArialMT-69" x="1268.808594"/>
      <use xlink:href="#ArialMT-6d" x="1291.025391"/>
      <use xlink:href="#ArialMT-75" x="1374.326172"/>
      <use xlink:href="#ArialMT-6c" x="1429.941406"/>
      <use xlink:href="#ArialMT-75" x="1452.158203"/>
      <use xlink:href="#ArialMT-73" x="1507.773438"/>
      <use xlink:href="#ArialMT-20" x="1557.773438"/>
      <use xlink:href="#ArialMT-28" x="1585.556641"/>
      <use xlink:href="#ArialMT-68" x="1618.857422"/>
      <use xlink:href="#ArialMT-29" x="1674.472656"/>
     </g>
    </g>
   </g>
   <g id="matplotlib.axis_2">
    <g id="ytick_1">
     <g id="line2d_4">
      <defs>
       <path id="mddc7850910" d="M 0 0 
L -3.5 0 
" style="stroke: #000000; stroke-width: 0.8"/>
      </defs>
      <g>
       <use xlink:href="#mddc7850910" x="19.8" y="122.945228" style="stroke: #000000; stroke-width: 0.8"/>
      </g>
     </g>
     <g id="text_5">
      <!-- 0 -->
      <g transform="translate(7.239063 126.524134) scale(0.1 -0.1)">
       <use xlink:href="#ArialMT-30"/>
      </g>
     </g>
    </g>
    <g id="ytick_2">
     <g id="line2d_5">
      <g>
       <use xlink:href="#mddc7850910" x="19.8" y="96.871366" style="stroke: #000000; stroke-width: 0.8"/>
      </g>
     </g>
     <g id="text_6">
      <!-- 1 -->
      <g transform="translate(7.239063 100.450272) scale(0.1 -0.1)">
       <defs>
        <path id="ArialMT-31" d="M 2384 0 
L 1822 0 
L 1822 3584 
Q 1619 3391 1289 3197 
Q 959 3003 697 2906 
L 697 3450 
Q 1169 3672 1522 3987 
Q 1875 4303 2022 4600 
L 2384 4600 
L 2384 0 
z
" transform="scale(0.015625)"/>
       </defs>
       <use xlink:href="#ArialMT-31"/>
      </g>
     </g>
    </g>
    <g id="ytick_3">
     <g id="line2d_6">
      <g>
       <use xlink:href="#mddc7850910" x="19.8" y="70.797504" style="stroke: #000000; stroke-width: 0.8"/>
      </g>
     </g>
     <g id="text_7">
      <!-- 2 -->
      <g transform="translate(7.239063 74.37641) scale(0.1 -0.1)">
       <use xlink:href="#ArialMT-32"/>
      </g>
     </g>
    </g>
    <g id="ytick_4">
     <g id="line2d_7">
      <g>
       <use xlink:href="#mddc7850910" x="19.8" y="44.723642" style="stroke: #000000; stroke-width: 0.8"/>
      </g>
     </g>
     <g id="text_8">
      <!-- 3 -->
      <g transform="translate(7.239063 48.302548) scale(0.1 -0.1)">
       <defs>
        <path id="ArialMT-33" d="M 269 1209 
L 831 1284 
Q 928 806 1161 595 
Q 1394 384 1728 384 
Q 2125 384 2398 659 
Q 2672 934 2672 1341 
Q 2672 1728 2419 1979 
Q 2166 2231 1775 2231 
Q 1616 2231 1378 2169 
L 1441 2663 
Q 1497 2656 1531 2656 
Q 1891 2656 2178 2843 
Q 2466 3031 2466 3422 
Q 2466 3731 2256 3934 
Q 2047 4138 1716 4138 
Q 1388 4138 1169 3931 
Q 950 3725 888 3313 
L 325 3413 
Q 428 3978 793 4289 
Q 1159 4600 1703 4600 
Q 2078 4600 2393 4439 
Q 2709 4278 2876 4000 
Q 3044 3722 3044 3409 
Q 3044 3113 2884 2869 
Q 2725 2625 2413 2481 
Q 2819 2388 3044 2092 
Q 3269 1797 3269 1353 
Q 3269 753 2831 336 
Q 2394 -81 1725 -81 
Q 1122 -81 723 278 
Q 325 638 269 1209 
z
" transform="scale(0.015625)"/>
       </defs>
       <use xlink:href="#ArialMT-33"/>
      </g>
     </g>
    </g>
    <g id="ytick_5">
     <g id="line2d_8">
      <g>
       <use xlink:href="#mddc7850910" x="19.8" y="18.64978" style="stroke: #000000; stroke-width: 0.8"/>
      </g>
     </g>
     <g id="text_9">
      <!-- 4 -->
      <g transform="translate(7.239063 22.228687) scale(0.1 -0.1)">
       <use xlink:href="#ArialMT-34"/>
      </g>
     </g>
    </g>
    <g id="text_10">
     <!-- Mean p53 level (FC) -->
     <g transform="translate(1.134375 118.012188) rotate(-90) scale(0.1 -0.1)">
      <defs>
       <path id="ArialMT-4d" d="M 475 0 
L 475 4581 
L 1388 4581 
L 2472 1338 
Q 2622 884 2691 659 
Q 2769 909 2934 1394 
L 4031 4581 
L 4847 4581 
L 4847 0 
L 4263 0 
L 4263 3834 
L 2931 0 
L 2384 0 
L 1059 3900 
L 1059 0 
L 475 0 
z
" transform="scale(0.015625)"/>
       <path id="ArialMT-70" d="M 422 -1272 
L 422 3319 
L 934 3319 
L 934 2888 
Q 1116 3141 1344 3267 
Q 1572 3394 1897 3394 
Q 2322 3394 2647 3175 
Q 2972 2956 3137 2557 
Q 3303 2159 3303 1684 
Q 3303 1175 3120 767 
Q 2938 359 2589 142 
Q 2241 -75 1856 -75 
Q 1575 -75 1351 44 
Q 1128 163 984 344 
L 984 -1272 
L 422 -1272 
z
M 931 1641 
Q 931 1000 1190 694 
Q 1450 388 1819 388 
Q 2194 388 2461 705 
Q 2728 1022 2728 1688 
Q 2728 2322 2467 2637 
Q 2206 2953 1844 2953 
Q 1484 2953 1207 2617 
Q 931 2281 931 1641 
z
" transform="scale(0.015625)"/>
       <path id="ArialMT-35" d="M 266 1200 
L 856 1250 
Q 922 819 1161 601 
Q 1400 384 1738 384 
Q 2144 384 2425 690 
Q 2706 997 2706 1503 
Q 2706 1984 2436 2262 
Q 2166 2541 1728 2541 
Q 1456 2541 1237 2417 
Q 1019 2294 894 2097 
L 366 2166 
L 809 4519 
L 3088 4519 
L 3088 3981 
L 1259 3981 
L 1013 2750 
Q 1425 3038 1878 3038 
Q 2478 3038 2890 2622 
Q 3303 2206 3303 1553 
Q 3303 931 2941 478 
Q 2500 -78 1738 -78 
Q 1113 -78 717 272 
Q 322 622 266 1200 
z
" transform="scale(0.015625)"/>
       <path id="ArialMT-76" d="M 1344 0 
L 81 3319 
L 675 3319 
L 1388 1331 
Q 1503 1009 1600 663 
Q 1675 925 1809 1294 
L 2547 3319 
L 3125 3319 
L 1869 0 
L 1344 0 
z
" transform="scale(0.015625)"/>
       <path id="ArialMT-46" d="M 525 0 
L 525 4581 
L 3616 4581 
L 3616 4041 
L 1131 4041 
L 1131 2622 
L 3281 2622 
L 3281 2081 
L 1131 2081 
L 1131 0 
L 525 0 
z
" transform="scale(0.015625)"/>
       <path id="ArialMT-43" d="M 3763 1606 
L 4369 1453 
Q 4178 706 3683 314 
Q 3188 -78 2472 -78 
Q 1731 -78 1267 223 
Q 803 525 561 1097 
Q 319 1669 319 2325 
Q 319 3041 592 3573 
Q 866 4106 1370 4382 
Q 1875 4659 2481 4659 
Q 3169 4659 3637 4309 
Q 4106 3959 4291 3325 
L 3694 3184 
Q 3534 3684 3231 3912 
Q 2928 4141 2469 4141 
Q 1941 4141 1586 3887 
Q 1231 3634 1087 3207 
Q 944 2781 944 2328 
Q 944 1744 1114 1308 
Q 1284 872 1643 656 
Q 2003 441 2422 441 
Q 2931 441 3284 734 
Q 3638 1028 3763 1606 
z
" transform="scale(0.015625)"/>
      </defs>
      <use xlink:href="#ArialMT-4d"/>
      <use xlink:href="#ArialMT-65" x="83.300781"/>
      <use xlink:href="#ArialMT-61" x="138.916016"/>
      <use xlink:href="#ArialMT-6e" x="194.53125"/>
      <use xlink:href="#ArialMT-20" x="250.146484"/>
      <use xlink:href="#ArialMT-70" x="277.929688"/>
      <use xlink:href="#ArialMT-35" x="333.544922"/>
      <use xlink:href="#ArialMT-33" x="389.160156"/>
      <use xlink:href="#ArialMT-20" x="444.775391"/>
      <use xlink:href="#ArialMT-6c" x="472.558594"/>
      <use xlink:href="#ArialMT-65" x="494.775391"/>
      <use xlink:href="#ArialMT-76" x="550.390625"/>
      <use xlink:href="#ArialMT-65" x="600.390625"/>
      <use xlink:href="#ArialMT-6c" x="656.005859"/>
      <use xlink:href="#ArialMT-20" x="678.222656"/>
      <use xlink:href="#ArialMT-28" x="706.005859"/>
      <use xlink:href="#ArialMT-46" x="739.306641"/>
      <use xlink:href="#ArialMT-43" x="800.390625"/>
      <use xlink:href="#ArialMT-29" x="872.607422"/>
     </g>
    </g>
   </g>
   <g id="line2d_9">
    <path d="M -1 122.945228 
L 19.39351 122.945228 
L 19.39351 114.25394 
L 30.576052 114.25394 
L 30.576052 122.945228 
L 41.758593 122.945228 
L 41.758593 114.25394 
L 52.941135 114.25394 
L 52.941135 122.945228 
L 64.123677 122.945228 
L 64.123677 114.25394 
L 75.306219 114.25394 
L 75.306219 122.945228 
L 86.48876 122.945228 
L 86.48876 114.25394 
L 97.671302 114.25394 
L 97.671302 122.945228 
L 108.853844 122.945228 
L 108.853844 114.25394 
L 120.036385 114.25394 
L 120.036385 122.945228 
L 131.218927 122.945228 
L 131.218927 114.25394 
L 142.401469 114.25394 
L 142.401469 122.945228 
L 159.4 122.945228 
" clip-path="url(#p4504584292)" style="fill: none; stroke: #000000; stroke-width: 1.5; stroke-linecap: square"/>
   </g>
   <g id="line2d_10">
    <path d="M 19.8 80.168857 
L 20.20649 81.586923 
L 20.61298 80.162156 
L 21.01947 75.885199 
L 22.64543 64.072367 
L 23.051921 62.092611 
L 23.458411 60.848634 
L 23.864901 60.079917 
L 24.271391 60.465611 
L 25.490861 66.145269 
L 27.116821 76.768775 
L 27.523311 77.946998 
L 27.929801 80.586911 
L 28.336291 80.911883 
L 28.742781 83.256287 
L 29.149272 82.613055 
L 29.555762 84.512999 
L 29.962252 82.900405 
L 30.368742 83.462979 
L 30.775232 82.025348 
L 31.181722 77.602269 
L 31.588212 84.317328 
L 31.994702 88.342344 
L 32.401192 90.688643 
L 32.807682 90.248042 
L 33.620662 89.89528 
L 34.027152 89.131835 
L 34.433642 89.32789 
L 34.840132 88.050455 
L 35.246623 87.762448 
L 36.059603 84.725097 
L 36.466093 83.73524 
L 36.872583 81.774021 
L 37.279073 80.941368 
L 37.685563 78.726666 
L 38.092053 78.353519 
L 38.498543 77.11863 
L 38.905033 75.300344 
L 39.311523 75.764434 
L 39.718013 74.605783 
L 40.124503 75.872946 
L 40.530993 75.854917 
L 40.937483 76.794449 
L 41.343974 78.377054 
L 41.750464 78.888239 
L 42.156954 73.197416 
L 42.563444 76.621507 
L 42.969934 74.150763 
L 43.376424 70.654176 
L 44.595894 63.872742 
L 45.002384 63.550448 
L 45.408874 60.577688 
L 45.815364 61.089442 
L 46.221854 59.931055 
L 46.628344 59.419557 
L 47.034834 61.061292 
L 47.441325 61.069657 
L 47.847815 64.125534 
L 48.254305 65.02342 
L 48.660795 68.448257 
L 49.067285 69.708845 
L 49.880265 73.472822 
L 50.286755 73.811176 
L 50.693245 76.093172 
L 51.099735 76.084555 
L 51.506225 77.591339 
L 51.912715 77.768995 
L 52.319205 78.074229 
L 52.725695 78.129229 
L 53.132185 76.531772 
L 53.538675 71.531769 
L 54.351656 84.249166 
L 54.758146 86.90259 
L 55.164636 87.241681 
L 55.571126 88.589078 
L 55.977616 87.784385 
L 56.384106 87.958627 
L 57.197086 86.787241 
L 57.603576 86.515293 
L 58.416556 83.983311 
L 58.823046 83.175715 
L 59.229536 81.142618 
L 59.636026 80.336106 
L 60.042517 77.908604 
L 60.449007 77.716728 
L 60.855497 75.557478 
L 61.261987 75.812243 
L 61.668477 73.844555 
L 62.074967 75.241163 
L 62.481457 73.581222 
L 62.887947 75.943721 
L 63.294437 74.629188 
L 63.700927 77.455625 
L 64.107417 76.736779 
L 64.513907 72.002184 
L 64.920397 74.945253 
L 65.326887 73.902553 
L 65.733377 69.697214 
L 66.139868 68.42847 
L 66.546358 64.756872 
L 66.952848 64.553148 
L 67.359338 61.636541 
L 67.765828 61.240461 
L 68.172318 59.751146 
L 68.578808 61.158928 
L 68.985298 60.155224 
L 69.391788 61.907569 
L 69.798278 61.945839 
L 70.204768 64.277914 
L 70.611258 65.014683 
L 71.830728 69.883445 
L 72.237219 71.493302 
L 72.643709 72.122161 
L 73.050199 73.876625 
L 73.456689 73.980947 
L 73.863179 75.47204 
L 74.269669 74.949289 
L 74.676159 76.267883 
L 75.082649 74.902711 
L 75.489139 76.734138 
L 75.895629 69.153531 
L 76.302119 77.818226 
L 77.115099 85.484062 
L 77.521589 84.871391 
L 77.928079 86.479461 
L 78.33457 84.828757 
L 78.74106 86.119546 
L 79.14755 84.492859 
L 79.55404 85.497894 
L 79.96053 83.518618 
L 80.36702 84.699152 
L 80.77351 81.637251 
L 81.18 82.801658 
L 81.58649 79.783775 
L 81.99298 79.77519 
L 82.39947 76.666991 
L 82.80596 75.69029 
L 83.21245 73.178107 
L 83.61894 72.6075 
L 84.02543 70.878189 
L 84.431921 70.317458 
L 84.838411 70.000481 
L 85.244901 68.968674 
L 86.057881 70.165156 
L 86.464371 70.74022 
L 86.870861 64.294398 
L 87.277351 69.385996 
L 87.683841 66.350441 
L 88.090331 65.04792 
L 88.496821 60.476364 
L 89.309801 57.789352 
L 89.716291 55.776379 
L 90.122781 56.967297 
L 90.529272 55.467847 
L 90.935762 55.53674 
L 91.342252 57.003157 
L 91.748742 56.351542 
L 92.155232 59.013378 
L 92.561722 59.723951 
L 92.968212 61.598662 
L 93.781192 63.628736 
L 94.187682 65.648811 
L 94.594172 65.603649 
L 95.000662 67.76484 
L 95.813642 69.253323 
L 96.220132 70.050182 
L 96.626623 70.169998 
L 97.033113 71.080496 
L 97.439603 69.895112 
L 97.846093 70.841199 
L 98.252583 63.06945 
L 99.065563 75.983483 
L 99.472053 77.77889 
L 99.878543 80.137775 
L 100.285033 79.945074 
L 100.691523 80.501059 
L 101.098013 80.459669 
L 101.504503 79.78274 
L 101.910993 80.355992 
L 102.317483 78.726294 
L 102.723974 78.49792 
L 103.130464 77.892114 
L 103.536954 76.500051 
L 103.943444 75.959731 
L 104.349934 73.712545 
L 104.756424 73.410292 
L 105.162914 71.026089 
L 105.569404 70.224957 
L 106.382384 66.495057 
L 106.788874 66.26239 
L 107.195364 64.31496 
L 107.601854 65.425305 
L 108.008344 64.690334 
L 108.414834 66.062893 
L 108.821325 66.202556 
L 109.227815 62.448387 
L 109.634305 63.800627 
L 110.447285 58.932819 
L 110.853775 55.055174 
L 111.260265 53.816509 
L 111.666755 50.935516 
L 112.073245 51.196351 
L 112.479735 50.226887 
L 112.886225 49.803532 
L 113.292715 51.23058 
L 113.699205 51.012548 
L 114.105695 53.332185 
L 114.512185 53.710501 
L 114.918675 56.675737 
L 115.325166 57.283166 
L 115.731656 62.312211 
L 116.138146 61.582883 
L 116.544636 65.966268 
L 116.951126 65.405951 
L 117.357616 69.235055 
L 117.764106 67.952012 
L 118.170596 70.398556 
L 118.577086 69.273664 
L 118.983576 71.249664 
L 119.390066 70.038836 
L 119.796556 71.486891 
L 120.203046 70.263216 
L 120.609536 63.810277 
L 121.016026 70.298933 
L 121.829007 75.768427 
L 122.235497 75.62418 
L 122.641987 76.756645 
L 123.048477 76.178311 
L 123.454967 76.850771 
L 123.861457 75.557955 
L 124.267947 76.105875 
L 124.674437 74.266394 
L 125.080927 74.822523 
L 125.487417 72.531077 
L 125.893907 73.318983 
L 126.300397 70.182075 
L 126.706887 70.553254 
L 127.113377 67.15228 
L 127.519868 67.443298 
L 127.926358 63.96846 
L 128.332848 65.115686 
L 128.739338 61.477956 
L 129.145828 62.499484 
L 129.552318 60.132249 
L 129.958808 62.131571 
L 130.365298 61.006692 
L 130.771788 63.37996 
L 131.178278 62.480446 
L 131.584768 62.709628 
L 131.991258 60.758746 
L 132.397748 59.817573 
L 132.804238 57.151838 
L 133.617219 54.572656 
L 134.023709 55.542936 
L 134.430199 54.201325 
L 134.836689 56.354121 
L 135.243179 55.171151 
L 135.649669 56.922221 
L 136.056159 56.329333 
L 136.462649 57.408974 
L 136.869139 57.049513 
L 137.275629 58.207828 
L 137.682119 58.223334 
L 138.088609 60.10639 
L 138.495099 59.624695 
L 138.901589 61.033905 
L 139.308079 61.158818 
L 139.71457 62.400881 
L 140.12106 61.988965 
L 140.52755 63.64215 
L 140.93404 63.342236 
L 141.34053 64.172572 
L 141.74702 63.362355 
L 142.15351 63.843253 
L 142.56 63.249474 
L 142.96649 56.969207 
L 143.37298 62.404878 
L 144.18596 66.452791 
L 144.59245 66.364122 
L 144.99894 67.23739 
L 145.40543 66.201024 
L 145.811921 67.595507 
L 146.218411 65.981627 
L 146.624901 67.055214 
L 147.437881 65.16765 
L 147.844371 65.390776 
L 148.250861 63.975464 
L 148.657351 64.315314 
L 149.063841 62.375315 
L 149.470331 62.830394 
L 149.876821 61.173106 
L 150.283311 60.849699 
L 150.689801 60.36985 
L 151.096291 58.478011 
L 151.502781 59.273929 
L 151.909272 57.385114 
L 152.315762 58.064378 
L 152.722252 57.261488 
L 152.722252 57.261488 
" clip-path="url(#p4504584292)" style="fill: none; stroke: #4d4d4d; stroke-width: 1.5; stroke-linecap: square"/>
   </g>
   <g id="patch_3">
    <path d="M 19.8 128.16 
L 19.8 17.28 
" style="fill: none; stroke: #000000; stroke-width: 0.8; stroke-linejoin: miter; stroke-linecap: square"/>
   </g>
   <g id="patch_4">
    <path d="M 142.56 128.16 
L 142.56 17.28 
" style="fill: none; stroke: #000000; stroke-width: 0.8; stroke-linejoin: miter; stroke-linecap: square"/>
   </g>
   <g id="patch_5">
    <path d="M 19.8 128.16 
L 142.56 128.16 
" style="fill: none; stroke: #000000; stroke-width: 0.8; stroke-linejoin: miter; stroke-linecap: square"/>
   </g>
   <g id="patch_6">
    <path d="M 19.8 17.28 
L 142.56 17.28 
" style="fill: none; stroke: #000000; stroke-width: 0.8; stroke-linejoin: miter; stroke-linecap: square"/>
   </g>
  </g>
 </g>
 <defs>
  <clipPath id="p4504584292">
   <rect x="19.8" y="17.28" width="122.76" height="110.88"/>
  </clipPath>
 </defs>
</svg>
