<?xml version="1.0" encoding="utf-8" standalone="no"?>
<!DOCTYPE svg PUBLIC "-//W3C//DTD SVG 1.1//EN"
  "http://www.w3.org/Graphics/SVG/1.1/DTD/svg11.dtd">
<svg xmlns:xlink="http://www.w3.org/1999/xlink" width="158.4pt" height="144pt" viewBox="0 0 158.4 144" xmlns="http://www.w3.org/2000/svg" version="1.1">
 <metadata>
  <rdf:RDF xmlns:dc="http://purl.org/dc/elements/1.1/" xmlns:cc="http://creativecommons.org/ns#" xmlns:rdf="http://www.w3.org/1999/02/22-rdf-syntax-ns#">
   <cc:Work>
    <dc:type rdf:resource="http://purl.org/dc/dcmitype/StillImage"/>
    <dc:date>2024-07-09T19:54:39.495838</dc:date>
    <dc:format>image/svg+xml</dc:format>
    <dc:creator>
     <cc:Agent>
      <dc:title>Matplotlib v3.8.3, https://matplotlib.org/</dc:title>
     </cc:Agent>
    </dc:creator>
   </cc:Work>
  </rdf:RDF>
 </metadata>
 <defs>
  <style type="text/css">*{stroke-linejoin: round; stroke-linecap: butt}</style>
 </defs>
 <g id="figure_1">
  <g id="patch_1">
   <path d="M 0 144 
L 158.4 144 
L 158.4 0 
L 0 0 
z
" style="fill: #ffffff"/>
  </g>
  <g id="axes_1">
   <g id="patch_2">
    <path d="M 19.8 128.16 
L 142.56 128.16 
L 142.56 17.28 
L 19.8 17.28 
z
" style="fill: #f2f2f2"/>
   </g>
   <g id="PolyCollection_1">
    <path d="M 19.8 96.19599 
L 19.8 111.077533 
L 20.086822 110.218726 
L 20.373645 109.692922 
L 20.660467 107.840991 
L 20.94729 106.467986 
L 21.234112 103.703281 
L 21.520935 102.600041 
L 21.807757 100.153703 
L 22.094579 99.885996 
L 22.381402 98.472869 
L 22.668224 98.585452 
L 22.955047 97.83386 
L 23.241869 98.191666 
L 23.528692 98.822199 
L 23.815514 99.945789 
L 24.102336 101.330653 
L 24.389159 100.738154 
L 24.675981 101.602345 
L 24.962804 101.068763 
L 25.249626 102.502036 
L 25.536449 103.396253 
L 25.823271 104.48099 
L 26.110093 104.20773 
L 26.396916 104.558072 
L 26.683738 104.789999 
L 26.970561 105.568814 
L 27.257383 105.858139 
L 27.544206 106.190433 
L 27.831028 106.665377 
L 28.11785 106.599927 
L 28.404673 107.000978 
L 28.691495 106.96226 
L 28.978318 106.969612 
L 29.26514 102.064927 
L 29.551963 106.574885 
L 29.838785 110.614087 
L 30.125607 113.498768 
L 30.41243 114.202754 
L 30.699252 115.123535 
L 30.986075 115.230072 
L 31.272897 115.984306 
L 31.55972 116.077879 
L 31.846542 116.636457 
L 32.133364 116.971082 
L 32.420187 117.215792 
L 32.707009 117.981324 
L 32.993832 118.305713 
L 33.280654 118.733279 
L 33.567477 118.818184 
L 33.854299 119.299697 
L 34.141121 119.166827 
L 34.427944 118.481144 
L 34.714766 116.683557 
L 35.001589 115.098959 
L 35.288411 113.037631 
L 35.575234 111.716699 
L 35.862056 110.333698 
L 36.148879 109.330563 
L 36.435701 107.903965 
L 36.722523 107.954758 
L 37.009346 107.295388 
L 37.296168 107.780659 
L 37.582991 107.878133 
L 37.869813 108.943478 
L 38.156636 109.880153 
L 38.443458 111.103642 
L 38.73028 108.663374 
L 39.017103 109.778788 
L 39.303925 108.328315 
L 39.590748 108.090208 
L 39.87757 106.983568 
L 40.164393 106.794707 
L 40.451215 104.962755 
L 40.738037 105.48847 
L 41.02486 103.805906 
L 41.311682 104.617199 
L 41.598505 103.630908 
L 41.885327 104.62073 
L 42.17215 103.31923 
L 42.458972 103.3339 
L 42.745794 101.78647 
L 43.032617 101.740932 
L 43.319439 101.035494 
L 43.606262 102.439189 
L 43.893084 101.950265 
L 44.179907 103.628391 
L 44.466729 103.328098 
L 44.753551 105.081941 
L 45.040374 103.44127 
L 45.327196 104.94674 
L 45.614019 104.73959 
L 45.900841 105.778597 
L 46.187664 105.653102 
L 46.474486 106.685297 
L 46.761308 106.016359 
L 47.048131 106.803618 
L 47.334953 106.200995 
L 47.621776 106.781832 
L 47.908598 106.378951 
L 48.195421 102.387506 
L 48.482243 106.096583 
L 48.769065 111.119155 
L 49.055888 113.08494 
L 49.34271 114.923513 
L 49.629533 115.045576 
L 49.916355 115.931023 
L 50.203178 115.728965 
L 50.49 116.526198 
L 50.776822 116.005602 
L 51.063645 116.434221 
L 51.350467 116.024758 
L 51.63729 116.334836 
L 51.924112 115.950826 
L 52.210935 116.165663 
L 52.497757 116.117096 
L 52.784579 116.535425 
L 53.071402 115.800626 
L 53.358224 116.169428 
L 53.645047 115.160026 
L 53.931869 115.441898 
L 54.218692 114.746139 
L 54.505514 113.96377 
L 54.792336 111.802073 
L 55.079159 110.756333 
L 55.365981 109.142462 
L 55.652804 108.829849 
L 55.939626 108.167401 
L 56.226449 108.611969 
L 56.513271 108.542593 
L 56.800093 109.892648 
L 57.086916 109.881562 
L 57.373738 111.767417 
L 57.660561 109.324967 
L 57.947383 110.982983 
L 58.234206 109.28819 
L 58.521028 108.60856 
L 58.80785 107.438227 
L 59.094673 107.272265 
L 59.381495 105.30133 
L 59.668318 105.636893 
L 59.95514 105.149942 
L 60.241963 105.29242 
L 60.528785 105.268752 
L 60.815607 106.192587 
L 61.10243 105.721268 
L 61.389252 105.645121 
L 61.676075 104.997063 
L 61.962897 105.674198 
L 62.24972 105.089161 
L 62.536542 105.674933 
L 62.823364 105.902936 
L 63.110187 106.989087 
L 63.397009 106.864655 
L 63.683832 108.079625 
L 63.970654 108.388836 
L 64.257477 109.663596 
L 64.544299 109.635458 
L 64.831121 110.016342 
L 65.117944 110.560952 
L 65.404766 110.453675 
L 65.691589 111.502915 
L 65.978411 111.655187 
L 66.265234 111.871352 
L 66.552056 112.190172 
L 66.838879 112.321095 
L 67.125701 110.497327 
L 67.412523 112.464731 
L 67.699346 114.132865 
L 67.986168 115.869397 
L 68.272991 116.071115 
L 68.559813 116.754212 
L 68.846636 116.767877 
L 69.133458 117.205852 
L 69.42028 117.254687 
L 69.707103 117.264341 
L 69.993925 116.834486 
L 70.280748 116.93428 
L 70.56757 116.605656 
L 70.854393 116.510968 
L 71.141215 116.653665 
L 71.428037 116.488488 
L 71.71486 116.385718 
L 72.001682 116.230551 
L 72.288505 115.925464 
L 72.575327 115.895309 
L 72.86215 116.042483 
L 73.148972 115.489899 
L 73.435794 115.253313 
L 73.722617 114.703547 
L 74.009439 114.794041 
L 74.296262 115.093682 
L 74.583084 114.139973 
L 74.869907 113.904641 
L 75.156729 112.404738 
L 75.443551 112.255028 
L 75.730374 112.305169 
L 76.017196 112.483873 
L 76.304019 113.36702 
L 76.590841 111.506702 
L 76.877664 112.208707 
L 77.164486 111.116406 
L 77.451308 111.136599 
L 77.738131 109.870267 
L 78.024953 110.612876 
L 78.311776 109.456232 
L 78.598598 109.509609 
L 78.885421 108.115076 
L 79.172243 110.107324 
L 79.459065 109.147192 
L 79.745888 110.550244 
L 80.03271 110.800087 
L 80.319533 111.679762 
L 80.606355 112.652043 
L 80.893178 113.367744 
L 81.18 113.296986 
L 81.466822 113.74152 
L 81.753645 114.202783 
L 82.040467 113.274001 
L 82.32729 113.621326 
L 82.614112 113.670757 
L 82.900935 113.983272 
L 83.187757 113.581967 
L 83.474579 113.584373 
L 83.761402 113.23749 
L 84.048224 113.444558 
L 84.335047 113.675849 
L 84.621869 113.006505 
L 84.908692 113.040603 
L 85.195514 112.934033 
L 85.482336 113.154619 
L 85.769159 112.690017 
L 86.055981 112.234265 
L 86.342804 111.469917 
L 86.629626 114.422334 
L 86.916449 115.612846 
L 87.203271 117.119669 
L 87.490093 117.113455 
L 87.776916 117.65986 
L 88.063738 118.171241 
L 88.350561 118.268474 
L 88.637383 118.047737 
L 88.924206 117.822025 
L 89.211028 117.51815 
L 89.49785 117.524413 
L 89.784673 116.727942 
L 90.071495 117.045057 
L 90.358318 117.105437 
L 90.64514 117.141851 
L 90.931963 117.36792 
L 91.218785 117.045171 
L 91.505607 116.35165 
L 91.79243 117.186345 
L 92.079252 117.71988 
L 92.366075 117.302819 
L 92.652897 117.778316 
L 92.93972 117.665002 
L 93.226542 115.128099 
L 93.513364 114.248323 
L 93.800187 113.112602 
L 94.087009 112.690729 
L 94.373832 112.222173 
L 94.660654 112.640235 
L 94.947477 113.344767 
L 95.234299 113.498145 
L 95.521121 111.865562 
L 95.807944 112.130725 
L 96.094766 111.733157 
L 96.381589 110.869396 
L 96.668411 110.569354 
L 96.955234 109.25242 
L 97.242056 109.623301 
L 97.528879 109.251106 
L 97.815701 109.661352 
L 98.102523 109.684932 
L 98.389346 111.011131 
L 98.676168 114.062971 
L 98.962991 115.087798 
L 99.249813 114.976984 
L 99.536636 115.064491 
L 99.823458 115.547947 
L 100.11028 115.403487 
L 100.397103 115.179316 
L 100.683925 114.871381 
L 100.970748 114.2338 
L 101.25757 114.460351 
L 101.544393 113.952178 
L 101.831215 114.182125 
L 102.118037 114.32586 
L 102.40486 114.746429 
L 102.691682 115.045598 
L 102.978505 114.703165 
L 103.265327 114.70097 
L 103.55215 115.43026 
L 103.838972 115.666454 
L 104.125794 115.718198 
L 104.412617 116.130124 
L 104.699439 116.023973 
L 104.986262 112.709523 
L 105.273084 113.979526 
L 105.559907 121.987439 
L 105.846729 116.503704 
L 106.133551 117.064131 
L 106.420374 117.569478 
L 106.707196 118.237442 
L 106.994019 118.622962 
L 107.280841 118.606823 
L 107.567664 118.766577 
L 107.854486 118.326124 
L 108.141308 119.208908 
L 108.428131 118.649641 
L 108.714953 119.379099 
L 109.001776 119.164198 
L 109.288598 119.702204 
L 109.575421 119.296734 
L 109.862243 119.223341 
L 110.149065 119.261674 
L 110.435888 118.505477 
L 110.72271 117.810898 
L 111.009533 117.746248 
L 111.296355 116.538066 
L 111.583178 116.171914 
L 111.87 114.064758 
L 112.156822 113.587654 
L 112.443645 113.652879 
L 112.730467 113.07464 
L 113.01729 113.620897 
L 113.304112 113.967931 
L 113.590935 114.334319 
L 113.877757 114.240336 
L 114.164579 114.735076 
L 114.451402 113.701314 
L 114.738224 114.326203 
L 115.025047 113.421115 
L 115.311869 112.625091 
L 115.598692 112.070249 
L 115.885514 110.76068 
L 116.172336 110.830903 
L 116.459159 109.139468 
L 116.745981 110.62984 
L 117.032804 111.458466 
L 117.319626 113.259411 
L 117.606449 114.392694 
L 117.893271 115.630687 
L 118.180093 117.437445 
L 118.466916 116.064857 
L 118.753738 116.459106 
L 119.040561 116.880188 
L 119.327383 116.915165 
L 119.614206 115.821383 
L 119.901028 116.428539 
L 120.18785 116.290209 
L 120.474673 115.895131 
L 120.761495 116.288436 
L 121.048318 116.407813 
L 121.33514 115.705866 
L 121.621963 116.496036 
L 121.908785 115.246879 
L 122.195607 115.467192 
L 122.48243 115.668964 
L 122.769252 115.570734 
L 123.056075 115.706523 
L 123.342897 114.813766 
L 123.62972 115.571022 
L 123.916542 113.245802 
L 124.203364 113.489137 
L 124.490187 114.422963 
L 124.777009 116.757617 
L 125.063832 117.939161 
L 125.350654 117.726342 
L 125.637477 118.548538 
L 125.924299 118.726937 
L 126.211121 118.416431 
L 126.497944 118.772921 
L 126.784766 119.369586 
L 127.071589 119.106305 
L 127.358411 120.335625 
L 127.645234 121.040108 
L 127.932056 120.725411 
L 128.218879 120.283692 
L 128.505701 121.106591 
L 128.792523 120.438803 
L 129.079346 120.331287 
L 129.366168 120.109537 
L 129.652991 121.866435 
L 129.939813 122.16299 
L 130.226636 122.781108 
L 130.513458 122.790206 
L 130.80028 122.182319 
L 131.087103 121.569391 
L 131.373925 119.513358 
L 131.660748 118.310037 
L 131.94757 116.10708 
L 132.234393 114.723653 
L 132.521215 113.241255 
L 132.808037 113.737088 
L 133.09486 112.496596 
L 133.381682 111.361762 
L 133.668505 111.09775 
L 133.955327 110.800119 
L 134.24215 109.061847 
L 134.528972 109.626879 
L 134.815794 109.369387 
L 135.102617 110.650124 
L 135.389439 110.35662 
L 135.676262 111.625537 
L 135.963084 112.619534 
L 136.249907 115.715055 
L 136.536729 120.417129 
L 136.823551 121.294583 
L 137.110374 124.632497 
L 137.397196 125.550306 
L 137.684019 128.232098 
L 137.970841 125.384252 
L 138.257664 123.467694 
L 138.544486 123.43427 
L 138.831308 122.684958 
L 139.118131 121.279636 
L 139.404953 120.955754 
L 139.691776 121.877009 
L 139.978598 120.901494 
L 140.265421 120.289317 
L 140.552243 120.130951 
L 140.839065 118.627255 
L 141.125888 119.454832 
L 141.41271 119.152023 
L 141.699533 118.717787 
L 141.986355 119.328177 
L 142.273178 118.935419 
L 142.56 119.255011 
L 142.846822 117.624895 
L 143.133645 115.076834 
L 143.420467 116.413564 
L 143.70729 117.105094 
L 143.994112 117.466261 
L 144.280935 118.775585 
L 144.567757 118.512101 
L 144.854579 119.823125 
L 145.141402 119.989746 
L 145.428224 120.553621 
L 145.715047 120.625378 
L 146.001869 121.416332 
L 146.288692 121.480123 
L 146.575514 121.800902 
L 146.862336 121.972307 
L 147.149159 121.495908 
L 147.435981 122.654523 
L 147.722804 123.291624 
L 148.009626 124.1281 
L 148.296449 124.746866 
L 148.583271 126.214883 
L 148.870093 126.16262 
L 149.156916 128.141478 
L 149.443738 127.37501 
L 149.730561 129.216189 
L 150.017383 128.775496 
L 150.304206 127.601925 
L 150.591028 125.137242 
L 150.87785 123.062107 
L 151.164673 121.044027 
L 151.164673 47.966866 
L 151.164673 47.966866 
L 150.87785 47.02479 
L 150.591028 43.685276 
L 150.304206 43.038982 
L 150.017383 42.728699 
L 149.730561 44.659749 
L 149.443738 47.458475 
L 149.156916 48.759539 
L 148.870093 52.674235 
L 148.583271 54.413268 
L 148.296449 57.241728 
L 148.009626 59.065017 
L 147.722804 62.111993 
L 147.435981 62.545876 
L 147.149159 67.072203 
L 146.862336 65.094393 
L 146.575514 68.403948 
L 146.288692 66.22692 
L 146.001869 69.603938 
L 145.715047 68.242812 
L 145.428224 71.064622 
L 145.141402 68.430406 
L 144.854579 70.697898 
L 144.567757 67.51603 
L 144.280935 67.327405 
L 143.994112 61.417083 
L 143.70729 58.945452 
L 143.420467 49.73435 
L 143.133645 44.186445 
L 142.846822 38.606196 
L 142.56 56.455559 
L 142.273178 58.018592 
L 141.986355 57.388479 
L 141.699533 58.580195 
L 141.41271 56.886023 
L 141.125888 58.671603 
L 140.839065 57.010494 
L 140.552243 57.714859 
L 140.265421 53.150759 
L 139.978598 54.49756 
L 139.691776 48.373353 
L 139.404953 51.321957 
L 139.118131 44.925117 
L 138.831308 44.912038 
L 138.544486 38.029909 
L 138.257664 37.710172 
L 137.970841 29.769144 
L 137.684019 25.333249 
L 137.397196 22.925392 
L 137.110374 22.610295 
L 136.823551 24.071074 
L 136.536729 23.44112 
L 136.249907 30.838707 
L 135.963084 32.318731 
L 135.676262 38.393247 
L 135.389439 38.748957 
L 135.102617 45.727517 
L 134.815794 46.078959 
L 134.528972 53.56278 
L 134.24215 53.691642 
L 133.955327 59.269524 
L 133.668505 55.918051 
L 133.381682 54.193002 
L 133.09486 65.475199 
L 132.808037 65.460325 
L 132.521215 62.628642 
L 132.234393 62.505304 
L 131.94757 58.713801 
L 131.660748 56.933494 
L 131.373925 55.897439 
L 131.087103 53.88213 
L 130.80028 56.994179 
L 130.513458 56.303996 
L 130.226636 60.855259 
L 129.939813 61.516114 
L 129.652991 66.029145 
L 129.366168 67.561394 
L 129.079346 71.685135 
L 128.792523 70.443292 
L 128.505701 73.480208 
L 128.218879 72.780585 
L 127.932056 75.159244 
L 127.645234 74.109645 
L 127.358411 76.38872 
L 127.071589 77.531344 
L 126.784766 77.499731 
L 126.497944 78.571609 
L 126.211121 77.813599 
L 125.924299 78.494897 
L 125.637477 76.021868 
L 125.350654 76.932282 
L 125.063832 72.108209 
L 124.777009 70.342154 
L 124.490187 61.367109 
L 124.203364 53.649574 
L 123.916542 45.731954 
L 123.62972 66.93341 
L 123.342897 65.038786 
L 123.056075 65.819496 
L 122.769252 65.386237 
L 122.48243 63.835067 
L 122.195607 65.369748 
L 121.908785 63.287085 
L 121.621963 61.971281 
L 121.33514 60.078263 
L 121.048318 58.952592 
L 120.761495 55.30626 
L 120.474673 54.631518 
L 120.18785 49.896529 
L 119.901028 48.805384 
L 119.614206 44.473185 
L 119.327383 41.484899 
L 119.040561 37.250978 
L 118.753738 34.946227 
L 118.466916 31.833645 
L 118.180093 27.866728 
L 117.893271 28.72825 
L 117.606449 29.277091 
L 117.319626 33.576154 
L 117.032804 36.168697 
L 116.745981 42.382023 
L 116.459159 46.065147 
L 116.172336 50.966618 
L 115.885514 52.919678 
L 115.598692 57.105813 
L 115.311869 59.371643 
L 115.025047 62.146643 
L 114.738224 62.97261 
L 114.451402 58.954633 
L 114.164579 73.854611 
L 113.877757 70.81737 
L 113.590935 70.724241 
L 113.304112 68.308012 
L 113.01729 70.025536 
L 112.730467 67.141373 
L 112.443645 67.578942 
L 112.156822 67.924398 
L 111.87 66.717879 
L 111.583178 66.811302 
L 111.296355 66.385967 
L 111.009533 68.920626 
L 110.72271 68.543344 
L 110.435888 72.159111 
L 110.149065 70.799811 
L 109.862243 74.364063 
L 109.575421 74.055923 
L 109.288598 76.637568 
L 109.001776 76.534458 
L 108.714953 79.098975 
L 108.428131 79.232735 
L 108.141308 80.276616 
L 107.854486 80.857897 
L 107.567664 81.365814 
L 107.280841 80.788718 
L 106.994019 80.860583 
L 106.707196 79.764717 
L 106.420374 79.008994 
L 106.133551 77.778178 
L 105.846729 73.794959 
L 105.559907 54.679773 
L 105.273084 54.543144 
L 104.986262 51.811319 
L 104.699439 67.940699 
L 104.412617 68.45315 
L 104.125794 69.091406 
L 103.838972 68.636821 
L 103.55215 67.491329 
L 103.265327 68.431802 
L 102.978505 67.529314 
L 102.691682 66.668862 
L 102.40486 65.424964 
L 102.118037 65.461384 
L 101.831215 62.77239 
L 101.544393 61.358077 
L 101.25757 58.525847 
L 100.970748 55.880898 
L 100.683925 52.465131 
L 100.397103 48.807811 
L 100.11028 46.590686 
L 99.823458 41.648528 
L 99.536636 41.150029 
L 99.249813 36.773368 
L 98.962991 37.918224 
L 98.676168 35.666129 
L 98.389346 43.178055 
L 98.102523 44.585998 
L 97.815701 50.20123 
L 97.528879 50.450513 
L 97.242056 56.518361 
L 96.955234 59.377521 
L 96.668411 62.994708 
L 96.381589 64.915021 
L 96.094766 68.348091 
L 95.807944 70.719917 
L 95.521121 67.654234 
L 95.234299 77.127041 
L 94.947477 74.81077 
L 94.660654 74.562948 
L 94.373832 72.25699 
L 94.087009 71.461502 
L 93.800187 68.940875 
L 93.513364 68.545485 
L 93.226542 67.121873 
L 92.93972 66.339704 
L 92.652897 66.526244 
L 92.366075 71.696402 
L 92.079252 70.910767 
L 91.79243 76.241444 
L 91.505607 76.72791 
L 91.218785 79.944827 
L 90.931963 78.942622 
L 90.64514 82.521413 
L 90.358318 82.145331 
L 90.071495 85.102421 
L 89.784673 84.354027 
L 89.49785 85.242514 
L 89.211028 84.328701 
L 88.924206 85.796695 
L 88.637383 84.782035 
L 88.350561 86.083186 
L 88.063738 84.070921 
L 87.776916 85.194971 
L 87.490093 83.443736 
L 87.203271 83.599148 
L 86.916449 78.110815 
L 86.629626 73.765107 
L 86.342804 61.728847 
L 86.055981 55.097484 
L 85.769159 71.580929 
L 85.482336 73.25899 
L 85.195514 71.883971 
L 84.908692 72.924546 
L 84.621869 71.57212 
L 84.335047 72.649825 
L 84.048224 70.609518 
L 83.761402 70.117301 
L 83.474579 68.993269 
L 83.187757 66.219609 
L 82.900935 65.538764 
L 82.614112 62.853361 
L 82.32729 60.344587 
L 82.040467 59.423552 
L 81.753645 54.963208 
L 81.466822 54.154578 
L 81.18 50.752321 
L 80.893178 50.164918 
L 80.606355 46.986166 
L 80.319533 48.820141 
L 80.03271 46.772546 
L 79.745888 49.431006 
L 79.459065 48.707101 
L 79.172243 52.183176 
L 78.885421 53.453682 
L 78.598598 57.034052 
L 78.311776 58.980417 
L 78.024953 64.239221 
L 77.738131 65.983804 
L 77.451308 69.61315 
L 77.164486 72.18906 
L 76.877664 75.201185 
L 76.590841 71.170344 
L 76.304019 79.672038 
L 76.017196 78.794499 
L 75.730374 76.135558 
L 75.443551 74.687411 
L 75.156729 72.306567 
L 74.869907 71.014191 
L 74.583084 69.464871 
L 74.296262 70.738172 
L 74.009439 71.680932 
L 73.722617 73.853146 
L 73.435794 75.642839 
L 73.148972 77.041966 
L 72.86215 80.526737 
L 72.575327 80.758592 
L 72.288505 83.204302 
L 72.001682 83.278575 
L 71.71486 85.552924 
L 71.428037 86.028906 
L 71.141215 86.710561 
L 70.854393 88.0553 
L 70.56757 87.664982 
L 70.280748 88.830115 
L 69.993925 88.486118 
L 69.707103 89.768481 
L 69.42028 88.587161 
L 69.133458 89.572721 
L 68.846636 88.338622 
L 68.559813 88.450114 
L 68.272991 85.626049 
L 67.986168 83.168874 
L 67.699346 75.903309 
L 67.412523 66.020652 
L 67.125701 58.26364 
L 66.838879 75.472248 
L 66.552056 76.297472 
L 66.265234 77.217566 
L 65.978411 78.108747 
L 65.691589 77.333286 
L 65.404766 78.222397 
L 65.117944 77.068684 
L 64.831121 77.475329 
L 64.544299 76.067206 
L 64.257477 76.04491 
L 63.970654 73.884489 
L 63.683832 74.064065 
L 63.397009 70.800483 
L 63.110187 70.20497 
L 62.823364 66.258262 
L 62.536542 66.273612 
L 62.24972 60.465521 
L 61.962897 60.282891 
L 61.676075 55.57296 
L 61.389252 55.933001 
L 61.10243 52.035379 
L 60.815607 54.569707 
L 60.528785 52.916704 
L 60.241963 57.500372 
L 59.95514 58.901628 
L 59.668318 64.243056 
L 59.381495 66.224044 
L 59.094673 71.352143 
L 58.80785 72.622846 
L 58.521028 77.639499 
L 58.234206 78.650553 
L 57.947383 82.322438 
L 57.660561 78.740522 
L 57.373738 87.78523 
L 57.086916 85.174528 
L 56.800093 85.689155 
L 56.513271 83.490583 
L 56.226449 83.364472 
L 55.939626 82.474801 
L 55.652804 82.847862 
L 55.365981 81.729266 
L 55.079159 82.62676 
L 54.792336 81.205558 
L 54.505514 82.134125 
L 54.218692 82.23071 
L 53.931869 85.221502 
L 53.645047 85.881594 
L 53.358224 87.743387 
L 53.071402 88.248005 
L 52.784579 90.220882 
L 52.497757 90.473546 
L 52.210935 92.89712 
L 51.924112 92.647113 
L 51.63729 94.131603 
L 51.350467 93.858165 
L 51.063645 95.166064 
L 50.776822 94.49387 
L 50.49 95.78402 
L 50.203178 95.155373 
L 49.916355 96.186131 
L 49.629533 94.282121 
L 49.34271 93.984484 
L 49.055888 90.636601 
L 48.769065 86.386902 
L 48.482243 76.1751 
L 48.195421 70.790032 
L 47.908598 80.277909 
L 47.621776 82.310196 
L 47.334953 80.792451 
L 47.048131 82.327871 
L 46.761308 80.875991 
L 46.474486 82.062851 
L 46.187664 80.187053 
L 45.900841 81.191465 
L 45.614019 78.998994 
L 45.327196 79.31199 
L 45.040374 76.719426 
L 44.753551 74.880309 
L 44.466729 71.585825 
L 44.179907 71.971305 
L 43.893084 67.856315 
L 43.606262 66.479864 
L 43.319439 63.603587 
L 43.032617 62.636493 
L 42.745794 57.599983 
L 42.458972 57.548638 
L 42.17215 52.887796 
L 41.885327 54.589572 
L 41.598505 52.808293 
L 41.311682 56.585162 
L 41.02486 59.741661 
L 40.738037 65.437635 
L 40.451215 67.36123 
L 40.164393 73.657775 
L 39.87757 76.19806 
L 39.590748 81.600466 
L 39.303925 84.496614 
L 39.017103 88.445502 
L 38.73028 86.727652 
L 38.443458 92.659625 
L 38.156636 90.887721 
L 37.869813 89.867607 
L 37.582991 88.7257 
L 37.296168 88.337647 
L 37.009346 87.486769 
L 36.722523 87.654257 
L 36.435701 87.969012 
L 36.148879 89.232102 
L 35.862056 89.135737 
L 35.575234 90.28947 
L 35.288411 90.154337 
L 35.001589 90.028601 
L 34.714766 89.885789 
L 34.427944 89.586216 
L 34.141121 90.391578 
L 33.854299 91.772741 
L 33.567477 93.971148 
L 33.280654 94.916751 
L 32.993832 97.482219 
L 32.707009 97.84936 
L 32.420187 100.483754 
L 32.133364 100.385373 
L 31.846542 102.276792 
L 31.55972 102.022373 
L 31.272897 103.266978 
L 30.986075 102.268333 
L 30.699252 102.483424 
L 30.41243 100.265127 
L 30.125607 98.381482 
L 29.838785 91.698416 
L 29.551963 83.452743 
L 29.26514 73.866999 
L 28.978318 83.797296 
L 28.691495 83.837589 
L 28.404673 83.673766 
L 28.11785 83.406086 
L 27.831028 82.644641 
L 27.544206 82.298738 
L 27.257383 81.479585 
L 26.970561 80.79628 
L 26.683738 79.042724 
L 26.396916 78.187906 
L 26.110093 75.506682 
L 25.823271 75.183447 
L 25.536449 71.406984 
L 25.249626 72.068514 
L 24.962804 69.010803 
L 24.675981 67.818236 
L 24.389159 62.515863 
L 24.102336 61.382078 
L 23.815514 58.249128 
L 23.528692 58.316777 
L 23.241869 59.493144 
L 22.955047 58.634137 
L 22.668224 61.118602 
L 22.381402 62.230541 
L 22.094579 68.602786 
L 21.807757 70.659183 
L 21.520935 76.694053 
L 21.234112 78.587609 
L 20.94729 84.2736 
L 20.660467 86.495412 
L 20.373645 92.337102 
L 20.086822 94.810404 
L 19.8 96.19599 
z
" clip-path="url(#pd03e063995)" style="fill: #808080; fill-opacity: 0.5"/>
   </g>
   <g id="matplotlib.axis_1">
    <g id="xtick_1">
     <g id="line2d_1">
      <defs>
       <path id="maa9a05cb3f" d="M 0 0 
L 0 3.5 
" style="stroke: #000000; stroke-width: 0.8"/>
      </defs>
      <g>
       <use xlink:href="#maa9a05cb3f" x="19.8" y="128.16" style="stroke: #000000; stroke-width: 0.8"/>
      </g>
     </g>
     <g id="text_1">
      <!-- 0 -->
      <g transform="translate(17.019531 142.317813) scale(0.1 -0.1)">
       <defs>
        <path id="ArialMT-30" d="M 266 2259 
Q 266 3072 433 3567 
Q 600 4063 929 4331 
Q 1259 4600 1759 4600 
Q 2128 4600 2406 4451 
Q 2684 4303 2865 4023 
Q 3047 3744 3150 3342 
Q 3253 2941 3253 2259 
Q 3253 1453 3087 958 
Q 2922 463 2592 192 
Q 2263 -78 1759 -78 
Q 1097 -78 719 397 
Q 266 969 266 2259 
z
M 844 2259 
Q 844 1131 1108 757 
Q 1372 384 1759 384 
Q 2147 384 2411 759 
Q 2675 1134 2675 2259 
Q 2675 3391 2411 3762 
Q 2147 4134 1753 4134 
Q 1366 4134 1134 3806 
Q 844 3388 844 2259 
z
" transform="scale(0.015625)"/>
       </defs>
       <use xlink:href="#ArialMT-30"/>
      </g>
     </g>
    </g>
    <g id="xtick_2">
     <g id="line2d_2">
      <g>
       <use xlink:href="#maa9a05cb3f" x="54.218692" y="128.16" style="stroke: #000000; stroke-width: 0.8"/>
      </g>
     </g>
     <g id="text_2">
      <!-- 20 -->
      <g transform="translate(48.657754 142.317813) scale(0.1 -0.1)">
       <defs>
        <path id="ArialMT-32" d="M 3222 541 
L 3222 0 
L 194 0 
Q 188 203 259 391 
Q 375 700 629 1000 
Q 884 1300 1366 1694 
Q 2113 2306 2375 2664 
Q 2638 3022 2638 3341 
Q 2638 3675 2398 3904 
Q 2159 4134 1775 4134 
Q 1369 4134 1125 3890 
Q 881 3647 878 3216 
L 300 3275 
Q 359 3922 746 4261 
Q 1134 4600 1788 4600 
Q 2447 4600 2831 4234 
Q 3216 3869 3216 3328 
Q 3216 3053 3103 2787 
Q 2991 2522 2730 2228 
Q 2469 1934 1863 1422 
Q 1356 997 1212 845 
Q 1069 694 975 541 
L 3222 541 
z
" transform="scale(0.015625)"/>
       </defs>
       <use xlink:href="#ArialMT-32"/>
       <use xlink:href="#ArialMT-30" x="55.615234"/>
      </g>
     </g>
    </g>
    <g id="xtick_3">
     <g id="line2d_3">
      <g>
       <use xlink:href="#maa9a05cb3f" x="88.637383" y="128.16" style="stroke: #000000; stroke-width: 0.8"/>
      </g>
     </g>
     <g id="text_3">
      <!-- 40 -->
      <g transform="translate(83.076446 142.317813) scale(0.1 -0.1)">
       <defs>
        <path id="ArialMT-34" d="M 2069 0 
L 2069 1097 
L 81 1097 
L 81 1613 
L 2172 4581 
L 2631 4581 
L 2631 1613 
L 3250 1613 
L 3250 1097 
L 2631 1097 
L 2631 0 
L 2069 0 
z
M 2069 1613 
L 2069 3678 
L 634 1613 
L 2069 1613 
z
" transform="scale(0.015625)"/>
       </defs>
       <use xlink:href="#ArialMT-34"/>
       <use xlink:href="#ArialMT-30" x="55.615234"/>
      </g>
     </g>
    </g>
    <g id="xtick_4">
     <g id="line2d_4">
      <g>
       <use xlink:href="#maa9a05cb3f" x="123.056075" y="128.16" style="stroke: #000000; stroke-width: 0.8"/>
      </g>
     </g>
     <g id="text_4">
      <!-- 60 -->
      <g transform="translate(117.495137 142.317813) scale(0.1 -0.1)">
       <defs>
        <path id="ArialMT-36" d="M 3184 3459 
L 2625 3416 
Q 2550 3747 2413 3897 
Q 2184 4138 1850 4138 
Q 1581 4138 1378 3988 
Q 1113 3794 959 3422 
Q 806 3050 800 2363 
Q 1003 2672 1297 2822 
Q 1591 2972 1913 2972 
Q 2475 2972 2870 2558 
Q 3266 2144 3266 1488 
Q 3266 1056 3080 686 
Q 2894 316 2569 119 
Q 2244 -78 1831 -78 
Q 1128 -78 684 439 
Q 241 956 241 2144 
Q 241 3472 731 4075 
Q 1159 4600 1884 4600 
Q 2425 4600 2770 4297 
Q 3116 3994 3184 3459 
z
M 888 1484 
Q 888 1194 1011 928 
Q 1134 663 1356 523 
Q 1578 384 1822 384 
Q 2178 384 2434 671 
Q 2691 959 2691 1453 
Q 2691 1928 2437 2201 
Q 2184 2475 1800 2475 
Q 1419 2475 1153 2201 
Q 888 1928 888 1484 
z
" transform="scale(0.015625)"/>
       </defs>
       <use xlink:href="#ArialMT-36"/>
       <use xlink:href="#ArialMT-30" x="55.615234"/>
      </g>
     </g>
    </g>
    <g id="text_5">
     <!-- Time from start of external stimulus (h) -->
     <g transform="translate(-4.202812 155.585) scale(0.1 -0.1)">
      <defs>
       <path id="ArialMT-54" d="M 1659 0 
L 1659 4041 
L 150 4041 
L 150 4581 
L 3781 4581 
L 3781 4041 
L 2266 4041 
L 2266 0 
L 1659 0 
z
" transform="scale(0.015625)"/>
       <path id="ArialMT-69" d="M 425 3934 
L 425 4581 
L 988 4581 
L 988 3934 
L 425 3934 
z
M 425 0 
L 425 3319 
L 988 3319 
L 988 0 
L 425 0 
z
" transform="scale(0.015625)"/>
       <path id="ArialMT-6d" d="M 422 0 
L 422 3319 
L 925 3319 
L 925 2853 
Q 1081 3097 1340 3245 
Q 1600 3394 1931 3394 
Q 2300 3394 2536 3241 
Q 2772 3088 2869 2813 
Q 3263 3394 3894 3394 
Q 4388 3394 4653 3120 
Q 4919 2847 4919 2278 
L 4919 0 
L 4359 0 
L 4359 2091 
Q 4359 2428 4304 2576 
Q 4250 2725 4106 2815 
Q 3963 2906 3769 2906 
Q 3419 2906 3187 2673 
Q 2956 2441 2956 1928 
L 2956 0 
L 2394 0 
L 2394 2156 
Q 2394 2531 2256 2718 
Q 2119 2906 1806 2906 
Q 1569 2906 1367 2781 
Q 1166 2656 1075 2415 
Q 984 2175 984 1722 
L 984 0 
L 422 0 
z
" transform="scale(0.015625)"/>
       <path id="ArialMT-65" d="M 2694 1069 
L 3275 997 
Q 3138 488 2766 206 
Q 2394 -75 1816 -75 
Q 1088 -75 661 373 
Q 234 822 234 1631 
Q 234 2469 665 2931 
Q 1097 3394 1784 3394 
Q 2450 3394 2872 2941 
Q 3294 2488 3294 1666 
Q 3294 1616 3291 1516 
L 816 1516 
Q 847 969 1125 678 
Q 1403 388 1819 388 
Q 2128 388 2347 550 
Q 2566 713 2694 1069 
z
M 847 1978 
L 2700 1978 
Q 2663 2397 2488 2606 
Q 2219 2931 1791 2931 
Q 1403 2931 1139 2672 
Q 875 2413 847 1978 
z
" transform="scale(0.015625)"/>
       <path id="ArialMT-20" transform="scale(0.015625)"/>
       <path id="ArialMT-66" d="M 556 0 
L 556 2881 
L 59 2881 
L 59 3319 
L 556 3319 
L 556 3672 
Q 556 4006 616 4169 
Q 697 4388 901 4523 
Q 1106 4659 1475 4659 
Q 1713 4659 2000 4603 
L 1916 4113 
Q 1741 4144 1584 4144 
Q 1328 4144 1222 4034 
Q 1116 3925 1116 3625 
L 1116 3319 
L 1763 3319 
L 1763 2881 
L 1116 2881 
L 1116 0 
L 556 0 
z
" transform="scale(0.015625)"/>
       <path id="ArialMT-72" d="M 416 0 
L 416 3319 
L 922 3319 
L 922 2816 
Q 1116 3169 1280 3281 
Q 1444 3394 1641 3394 
Q 1925 3394 2219 3213 
L 2025 2691 
Q 1819 2813 1613 2813 
Q 1428 2813 1281 2702 
Q 1134 2591 1072 2394 
Q 978 2094 978 1738 
L 978 0 
L 416 0 
z
" transform="scale(0.015625)"/>
       <path id="ArialMT-6f" d="M 213 1659 
Q 213 2581 725 3025 
Q 1153 3394 1769 3394 
Q 2453 3394 2887 2945 
Q 3322 2497 3322 1706 
Q 3322 1066 3130 698 
Q 2938 331 2570 128 
Q 2203 -75 1769 -75 
Q 1072 -75 642 372 
Q 213 819 213 1659 
z
M 791 1659 
Q 791 1022 1069 705 
Q 1347 388 1769 388 
Q 2188 388 2466 706 
Q 2744 1025 2744 1678 
Q 2744 2294 2464 2611 
Q 2184 2928 1769 2928 
Q 1347 2928 1069 2612 
Q 791 2297 791 1659 
z
" transform="scale(0.015625)"/>
       <path id="ArialMT-73" d="M 197 991 
L 753 1078 
Q 800 744 1014 566 
Q 1228 388 1613 388 
Q 2000 388 2187 545 
Q 2375 703 2375 916 
Q 2375 1106 2209 1216 
Q 2094 1291 1634 1406 
Q 1016 1563 777 1677 
Q 538 1791 414 1992 
Q 291 2194 291 2438 
Q 291 2659 392 2848 
Q 494 3038 669 3163 
Q 800 3259 1026 3326 
Q 1253 3394 1513 3394 
Q 1903 3394 2198 3281 
Q 2494 3169 2634 2976 
Q 2775 2784 2828 2463 
L 2278 2388 
Q 2241 2644 2061 2787 
Q 1881 2931 1553 2931 
Q 1166 2931 1000 2803 
Q 834 2675 834 2503 
Q 834 2394 903 2306 
Q 972 2216 1119 2156 
Q 1203 2125 1616 2013 
Q 2213 1853 2448 1751 
Q 2684 1650 2818 1456 
Q 2953 1263 2953 975 
Q 2953 694 2789 445 
Q 2625 197 2315 61 
Q 2006 -75 1616 -75 
Q 969 -75 630 194 
Q 291 463 197 991 
z
" transform="scale(0.015625)"/>
       <path id="ArialMT-74" d="M 1650 503 
L 1731 6 
Q 1494 -44 1306 -44 
Q 1000 -44 831 53 
Q 663 150 594 308 
Q 525 466 525 972 
L 525 2881 
L 113 2881 
L 113 3319 
L 525 3319 
L 525 4141 
L 1084 4478 
L 1084 3319 
L 1650 3319 
L 1650 2881 
L 1084 2881 
L 1084 941 
Q 1084 700 1114 631 
Q 1144 563 1211 522 
Q 1278 481 1403 481 
Q 1497 481 1650 503 
z
" transform="scale(0.015625)"/>
       <path id="ArialMT-61" d="M 2588 409 
Q 2275 144 1986 34 
Q 1697 -75 1366 -75 
Q 819 -75 525 192 
Q 231 459 231 875 
Q 231 1119 342 1320 
Q 453 1522 633 1644 
Q 813 1766 1038 1828 
Q 1203 1872 1538 1913 
Q 2219 1994 2541 2106 
Q 2544 2222 2544 2253 
Q 2544 2597 2384 2738 
Q 2169 2928 1744 2928 
Q 1347 2928 1158 2789 
Q 969 2650 878 2297 
L 328 2372 
Q 403 2725 575 2942 
Q 747 3159 1072 3276 
Q 1397 3394 1825 3394 
Q 2250 3394 2515 3294 
Q 2781 3194 2906 3042 
Q 3031 2891 3081 2659 
Q 3109 2516 3109 2141 
L 3109 1391 
Q 3109 606 3145 398 
Q 3181 191 3288 0 
L 2700 0 
Q 2613 175 2588 409 
z
M 2541 1666 
Q 2234 1541 1622 1453 
Q 1275 1403 1131 1340 
Q 988 1278 909 1158 
Q 831 1038 831 891 
Q 831 666 1001 516 
Q 1172 366 1500 366 
Q 1825 366 2078 508 
Q 2331 650 2450 897 
Q 2541 1088 2541 1459 
L 2541 1666 
z
" transform="scale(0.015625)"/>
       <path id="ArialMT-78" d="M 47 0 
L 1259 1725 
L 138 3319 
L 841 3319 
L 1350 2541 
Q 1494 2319 1581 2169 
Q 1719 2375 1834 2534 
L 2394 3319 
L 3066 3319 
L 1919 1756 
L 3153 0 
L 2463 0 
L 1781 1031 
L 1600 1309 
L 728 0 
L 47 0 
z
" transform="scale(0.015625)"/>
       <path id="ArialMT-6e" d="M 422 0 
L 422 3319 
L 928 3319 
L 928 2847 
Q 1294 3394 1984 3394 
Q 2284 3394 2536 3286 
Q 2788 3178 2913 3003 
Q 3038 2828 3088 2588 
Q 3119 2431 3119 2041 
L 3119 0 
L 2556 0 
L 2556 2019 
Q 2556 2363 2490 2533 
Q 2425 2703 2258 2804 
Q 2091 2906 1866 2906 
Q 1506 2906 1245 2678 
Q 984 2450 984 1813 
L 984 0 
L 422 0 
z
" transform="scale(0.015625)"/>
       <path id="ArialMT-6c" d="M 409 0 
L 409 4581 
L 972 4581 
L 972 0 
L 409 0 
z
" transform="scale(0.015625)"/>
       <path id="ArialMT-75" d="M 2597 0 
L 2597 488 
Q 2209 -75 1544 -75 
Q 1250 -75 995 37 
Q 741 150 617 320 
Q 494 491 444 738 
Q 409 903 409 1263 
L 409 3319 
L 972 3319 
L 972 1478 
Q 972 1038 1006 884 
Q 1059 663 1231 536 
Q 1403 409 1656 409 
Q 1909 409 2131 539 
Q 2353 669 2445 892 
Q 2538 1116 2538 1541 
L 2538 3319 
L 3100 3319 
L 3100 0 
L 2597 0 
z
" transform="scale(0.015625)"/>
       <path id="ArialMT-28" d="M 1497 -1347 
Q 1031 -759 709 28 
Q 388 816 388 1659 
Q 388 2403 628 3084 
Q 909 3875 1497 4659 
L 1900 4659 
Q 1522 4009 1400 3731 
Q 1209 3300 1100 2831 
Q 966 2247 966 1656 
Q 966 153 1900 -1347 
L 1497 -1347 
z
" transform="scale(0.015625)"/>
       <path id="ArialMT-68" d="M 422 0 
L 422 4581 
L 984 4581 
L 984 2938 
Q 1378 3394 1978 3394 
Q 2347 3394 2619 3248 
Q 2891 3103 3008 2847 
Q 3125 2591 3125 2103 
L 3125 0 
L 2563 0 
L 2563 2103 
Q 2563 2525 2380 2717 
Q 2197 2909 1863 2909 
Q 1613 2909 1392 2779 
Q 1172 2650 1078 2428 
Q 984 2206 984 1816 
L 984 0 
L 422 0 
z
" transform="scale(0.015625)"/>
       <path id="ArialMT-29" d="M 791 -1347 
L 388 -1347 
Q 1322 153 1322 1656 
Q 1322 2244 1188 2822 
Q 1081 3291 891 3722 
Q 769 4003 388 4659 
L 791 4659 
Q 1378 3875 1659 3084 
Q 1900 2403 1900 1659 
Q 1900 816 1576 28 
Q 1253 -759 791 -1347 
z
" transform="scale(0.015625)"/>
      </defs>
      <use xlink:href="#ArialMT-54"/>
      <use xlink:href="#ArialMT-69" x="57.333984"/>
      <use xlink:href="#ArialMT-6d" x="79.550781"/>
      <use xlink:href="#ArialMT-65" x="162.851562"/>
      <use xlink:href="#ArialMT-20" x="218.466797"/>
      <use xlink:href="#ArialMT-66" x="246.25"/>
      <use xlink:href="#ArialMT-72" x="274.033203"/>
      <use xlink:href="#ArialMT-6f" x="307.333984"/>
      <use xlink:href="#ArialMT-6d" x="362.949219"/>
      <use xlink:href="#ArialMT-20" x="446.25"/>
      <use xlink:href="#ArialMT-73" x="474.033203"/>
      <use xlink:href="#ArialMT-74" x="524.033203"/>
      <use xlink:href="#ArialMT-61" x="551.816406"/>
      <use xlink:href="#ArialMT-72" x="607.431641"/>
      <use xlink:href="#ArialMT-74" x="640.732422"/>
      <use xlink:href="#ArialMT-20" x="668.515625"/>
      <use xlink:href="#ArialMT-6f" x="696.298828"/>
      <use xlink:href="#ArialMT-66" x="751.914062"/>
      <use xlink:href="#ArialMT-20" x="779.697266"/>
      <use xlink:href="#ArialMT-65" x="807.480469"/>
      <use xlink:href="#ArialMT-78" x="863.095703"/>
      <use xlink:href="#ArialMT-74" x="913.095703"/>
      <use xlink:href="#ArialMT-65" x="940.878906"/>
      <use xlink:href="#ArialMT-72" x="996.494141"/>
      <use xlink:href="#ArialMT-6e" x="1029.794922"/>
      <use xlink:href="#ArialMT-61" x="1085.410156"/>
      <use xlink:href="#ArialMT-6c" x="1141.025391"/>
      <use xlink:href="#ArialMT-20" x="1163.242188"/>
      <use xlink:href="#ArialMT-73" x="1191.025391"/>
      <use xlink:href="#ArialMT-74" x="1241.025391"/>
      <use xlink:href="#ArialMT-69" x="1268.808594"/>
      <use xlink:href="#ArialMT-6d" x="1291.025391"/>
      <use xlink:href="#ArialMT-75" x="1374.326172"/>
      <use xlink:href="#ArialMT-6c" x="1429.941406"/>
      <use xlink:href="#ArialMT-75" x="1452.158203"/>
      <use xlink:href="#ArialMT-73" x="1507.773438"/>
      <use xlink:href="#ArialMT-20" x="1557.773438"/>
      <use xlink:href="#ArialMT-28" x="1585.556641"/>
      <use xlink:href="#ArialMT-68" x="1618.857422"/>
      <use xlink:href="#ArialMT-29" x="1674.472656"/>
     </g>
    </g>
   </g>
   <g id="matplotlib.axis_2">
    <g id="ytick_1">
     <g id="line2d_5">
      <defs>
       <path id="mc1f220f0b0" d="M 0 0 
L -3.5 0 
" style="stroke: #000000; stroke-width: 0.8"/>
      </defs>
      <g>
       <use xlink:href="#mc1f220f0b0" x="19.8" y="125.897348" style="stroke: #000000; stroke-width: 0.8"/>
      </g>
     </g>
     <g id="text_6">
      <!-- 0 -->
      <g transform="translate(7.239063 129.476254) scale(0.1 -0.1)">
       <use xlink:href="#ArialMT-30"/>
      </g>
     </g>
    </g>
    <g id="ytick_2">
     <g id="line2d_6">
      <g>
       <use xlink:href="#mc1f220f0b0" x="19.8" y="103.270826" style="stroke: #000000; stroke-width: 0.8"/>
      </g>
     </g>
     <g id="text_7">
      <!-- 2 -->
      <g transform="translate(7.239063 106.849732) scale(0.1 -0.1)">
       <use xlink:href="#ArialMT-32"/>
      </g>
     </g>
    </g>
    <g id="ytick_3">
     <g id="line2d_7">
      <g>
       <use xlink:href="#mc1f220f0b0" x="19.8" y="80.644304" style="stroke: #000000; stroke-width: 0.8"/>
      </g>
     </g>
     <g id="text_8">
      <!-- 4 -->
      <g transform="translate(7.239063 84.223211) scale(0.1 -0.1)">
       <use xlink:href="#ArialMT-34"/>
      </g>
     </g>
    </g>
    <g id="ytick_4">
     <g id="line2d_8">
      <g>
       <use xlink:href="#mc1f220f0b0" x="19.8" y="58.017783" style="stroke: #000000; stroke-width: 0.8"/>
      </g>
     </g>
     <g id="text_9">
      <!-- 6 -->
      <g transform="translate(7.239063 61.596689) scale(0.1 -0.1)">
       <use xlink:href="#ArialMT-36"/>
      </g>
     </g>
    </g>
    <g id="ytick_5">
     <g id="line2d_9">
      <g>
       <use xlink:href="#mc1f220f0b0" x="19.8" y="35.391261" style="stroke: #000000; stroke-width: 0.8"/>
      </g>
     </g>
     <g id="text_10">
      <!-- 8 -->
      <g transform="translate(7.239063 38.970167) scale(0.1 -0.1)">
       <defs>
        <path id="ArialMT-38" d="M 1131 2484 
Q 781 2613 612 2850 
Q 444 3088 444 3419 
Q 444 3919 803 4259 
Q 1163 4600 1759 4600 
Q 2359 4600 2725 4251 
Q 3091 3903 3091 3403 
Q 3091 3084 2923 2848 
Q 2756 2613 2416 2484 
Q 2838 2347 3058 2040 
Q 3278 1734 3278 1309 
Q 3278 722 2862 322 
Q 2447 -78 1769 -78 
Q 1091 -78 675 323 
Q 259 725 259 1325 
Q 259 1772 486 2073 
Q 713 2375 1131 2484 
z
M 1019 3438 
Q 1019 3113 1228 2906 
Q 1438 2700 1772 2700 
Q 2097 2700 2305 2904 
Q 2513 3109 2513 3406 
Q 2513 3716 2298 3927 
Q 2084 4138 1766 4138 
Q 1444 4138 1231 3931 
Q 1019 3725 1019 3438 
z
M 838 1322 
Q 838 1081 952 856 
Q 1066 631 1291 507 
Q 1516 384 1775 384 
Q 2178 384 2440 643 
Q 2703 903 2703 1303 
Q 2703 1709 2433 1975 
Q 2163 2241 1756 2241 
Q 1359 2241 1098 1978 
Q 838 1716 838 1322 
z
" transform="scale(0.015625)"/>
       </defs>
       <use xlink:href="#ArialMT-38"/>
      </g>
     </g>
    </g>
    <g id="text_11">
     <!-- Mean p53 level (FC) -->
     <g transform="translate(1.134375 118.012188) rotate(-90) scale(0.1 -0.1)">
      <defs>
       <path id="ArialMT-4d" d="M 475 0 
L 475 4581 
L 1388 4581 
L 2472 1338 
Q 2622 884 2691 659 
Q 2769 909 2934 1394 
L 4031 4581 
L 4847 4581 
L 4847 0 
L 4263 0 
L 4263 3834 
L 2931 0 
L 2384 0 
L 1059 3900 
L 1059 0 
L 475 0 
z
" transform="scale(0.015625)"/>
       <path id="ArialMT-70" d="M 422 -1272 
L 422 3319 
L 934 3319 
L 934 2888 
Q 1116 3141 1344 3267 
Q 1572 3394 1897 3394 
Q 2322 3394 2647 3175 
Q 2972 2956 3137 2557 
Q 3303 2159 3303 1684 
Q 3303 1175 3120 767 
Q 2938 359 2589 142 
Q 2241 -75 1856 -75 
Q 1575 -75 1351 44 
Q 1128 163 984 344 
L 984 -1272 
L 422 -1272 
z
M 931 1641 
Q 931 1000 1190 694 
Q 1450 388 1819 388 
Q 2194 388 2461 705 
Q 2728 1022 2728 1688 
Q 2728 2322 2467 2637 
Q 2206 2953 1844 2953 
Q 1484 2953 1207 2617 
Q 931 2281 931 1641 
z
" transform="scale(0.015625)"/>
       <path id="ArialMT-35" d="M 266 1200 
L 856 1250 
Q 922 819 1161 601 
Q 1400 384 1738 384 
Q 2144 384 2425 690 
Q 2706 997 2706 1503 
Q 2706 1984 2436 2262 
Q 2166 2541 1728 2541 
Q 1456 2541 1237 2417 
Q 1019 2294 894 2097 
L 366 2166 
L 809 4519 
L 3088 4519 
L 3088 3981 
L 1259 3981 
L 1013 2750 
Q 1425 3038 1878 3038 
Q 2478 3038 2890 2622 
Q 3303 2206 3303 1553 
Q 3303 931 2941 478 
Q 2500 -78 1738 -78 
Q 1113 -78 717 272 
Q 322 622 266 1200 
z
" transform="scale(0.015625)"/>
       <path id="ArialMT-33" d="M 269 1209 
L 831 1284 
Q 928 806 1161 595 
Q 1394 384 1728 384 
Q 2125 384 2398 659 
Q 2672 934 2672 1341 
Q 2672 1728 2419 1979 
Q 2166 2231 1775 2231 
Q 1616 2231 1378 2169 
L 1441 2663 
Q 1497 2656 1531 2656 
Q 1891 2656 2178 2843 
Q 2466 3031 2466 3422 
Q 2466 3731 2256 3934 
Q 2047 4138 1716 4138 
Q 1388 4138 1169 3931 
Q 950 3725 888 3313 
L 325 3413 
Q 428 3978 793 4289 
Q 1159 4600 1703 4600 
Q 2078 4600 2393 4439 
Q 2709 4278 2876 4000 
Q 3044 3722 3044 3409 
Q 3044 3113 2884 2869 
Q 2725 2625 2413 2481 
Q 2819 2388 3044 2092 
Q 3269 1797 3269 1353 
Q 3269 753 2831 336 
Q 2394 -81 1725 -81 
Q 1122 -81 723 278 
Q 325 638 269 1209 
z
" transform="scale(0.015625)"/>
       <path id="ArialMT-76" d="M 1344 0 
L 81 3319 
L 675 3319 
L 1388 1331 
Q 1503 1009 1600 663 
Q 1675 925 1809 1294 
L 2547 3319 
L 3125 3319 
L 1869 0 
L 1344 0 
z
" transform="scale(0.015625)"/>
       <path id="ArialMT-46" d="M 525 0 
L 525 4581 
L 3616 4581 
L 3616 4041 
L 1131 4041 
L 1131 2622 
L 3281 2622 
L 3281 2081 
L 1131 2081 
L 1131 0 
L 525 0 
z
" transform="scale(0.015625)"/>
       <path id="ArialMT-43" d="M 3763 1606 
L 4369 1453 
Q 4178 706 3683 314 
Q 3188 -78 2472 -78 
Q 1731 -78 1267 223 
Q 803 525 561 1097 
Q 319 1669 319 2325 
Q 319 3041 592 3573 
Q 866 4106 1370 4382 
Q 1875 4659 2481 4659 
Q 3169 4659 3637 4309 
Q 4106 3959 4291 3325 
L 3694 3184 
Q 3534 3684 3231 3912 
Q 2928 4141 2469 4141 
Q 1941 4141 1586 3887 
Q 1231 3634 1087 3207 
Q 944 2781 944 2328 
Q 944 1744 1114 1308 
Q 1284 872 1643 656 
Q 2003 441 2422 441 
Q 2931 441 3284 734 
Q 3638 1028 3763 1606 
z
" transform="scale(0.015625)"/>
      </defs>
      <use xlink:href="#ArialMT-4d"/>
      <use xlink:href="#ArialMT-65" x="83.300781"/>
      <use xlink:href="#ArialMT-61" x="138.916016"/>
      <use xlink:href="#ArialMT-6e" x="194.53125"/>
      <use xlink:href="#ArialMT-20" x="250.146484"/>
      <use xlink:href="#ArialMT-70" x="277.929688"/>
      <use xlink:href="#ArialMT-35" x="333.544922"/>
      <use xlink:href="#ArialMT-33" x="389.160156"/>
      <use xlink:href="#ArialMT-20" x="444.775391"/>
      <use xlink:href="#ArialMT-6c" x="472.558594"/>
      <use xlink:href="#ArialMT-65" x="494.775391"/>
      <use xlink:href="#ArialMT-76" x="550.390625"/>
      <use xlink:href="#ArialMT-65" x="600.390625"/>
      <use xlink:href="#ArialMT-6c" x="656.005859"/>
      <use xlink:href="#ArialMT-20" x="678.222656"/>
      <use xlink:href="#ArialMT-28" x="706.005859"/>
      <use xlink:href="#ArialMT-46" x="739.306641"/>
      <use xlink:href="#ArialMT-43" x="800.390625"/>
      <use xlink:href="#ArialMT-29" x="872.607422"/>
     </g>
    </g>
   </g>
   <g id="line2d_10">
    <path d="M -1 125.897348 
L 19.513178 125.897348 
L 19.513178 122.126261 
L 28.978318 122.126261 
L 28.978318 125.897348 
L 38.443458 125.897348 
L 38.443458 122.126261 
L 47.908598 122.126261 
L 47.908598 125.897348 
L 57.373738 125.897348 
L 57.373738 122.126261 
L 66.838879 122.126261 
L 66.838879 125.897348 
L 76.304019 125.897348 
L 76.304019 122.126261 
L 85.769159 122.126261 
L 85.769159 125.897348 
L 95.234299 125.897348 
L 95.234299 122.126261 
L 104.699439 122.126261 
L 104.699439 125.897348 
L 114.164579 125.897348 
L 114.164579 122.126261 
L 123.62972 122.126261 
L 123.62972 125.897348 
L 133.09486 125.897348 
L 133.09486 122.126261 
L 142.56 122.126261 
L 142.56 125.897348 
L 159.4 125.897348 
" clip-path="url(#pd03e063995)" style="fill: none; stroke: #000000; stroke-width: 1.5; stroke-linecap: square"/>
   </g>
   <g id="line2d_11">
    <path d="M 19.8 103.636761 
L 20.373645 101.015012 
L 20.660467 97.168202 
L 20.94729 95.370793 
L 21.234112 91.145445 
L 21.520935 89.647047 
L 21.807757 85.406443 
L 22.094579 84.244391 
L 22.381402 80.351705 
L 22.668224 79.852027 
L 22.955047 78.233999 
L 23.241869 78.842405 
L 23.528692 78.569488 
L 23.815514 79.097458 
L 24.102336 81.356366 
L 24.389159 81.627008 
L 24.675981 84.71029 
L 24.962804 85.039783 
L 25.249626 87.285275 
L 25.536449 87.401618 
L 25.823271 89.832219 
L 26.110093 89.857206 
L 26.396916 91.372989 
L 26.683738 91.916361 
L 26.970561 93.182547 
L 28.11785 95.003007 
L 28.404673 95.337372 
L 28.978318 95.383454 
L 29.26514 87.965963 
L 29.838785 101.156252 
L 30.125607 105.940125 
L 30.699252 108.803479 
L 30.986075 108.749203 
L 31.272897 109.625642 
L 31.55972 109.050126 
L 31.846542 109.456624 
L 32.133364 108.678227 
L 32.420187 108.849773 
L 32.707009 107.915342 
L 32.993832 107.893966 
L 33.280654 106.825015 
L 33.567477 106.394666 
L 34.714766 103.284673 
L 35.575234 101.003085 
L 35.862056 99.734718 
L 36.148879 99.281333 
L 36.435701 97.936489 
L 36.722523 97.804508 
L 37.009346 97.391078 
L 37.296168 98.059153 
L 37.582991 98.301916 
L 38.443458 101.881634 
L 38.73028 97.695513 
L 39.017103 99.112145 
L 39.303925 96.412465 
L 39.590748 94.845337 
L 39.87757 91.590814 
L 40.164393 90.226241 
L 40.451215 86.161992 
L 40.738037 85.463053 
L 41.02486 81.773784 
L 41.311682 80.60118 
L 41.598505 78.219601 
L 41.885327 79.605151 
L 42.17215 78.103513 
L 42.458972 80.441269 
L 42.745794 79.693226 
L 43.032617 82.188713 
L 43.319439 82.31954 
L 43.606262 84.459526 
L 43.893084 84.90329 
L 44.179907 87.799848 
L 44.466729 87.456961 
L 44.753551 89.981125 
L 45.040374 90.080348 
L 45.327196 92.129365 
L 45.614019 91.869292 
L 45.900841 93.485031 
L 46.187664 92.920077 
L 46.474486 94.374074 
L 46.761308 93.446175 
L 47.048131 94.565744 
L 47.334953 93.496723 
L 47.621776 94.546014 
L 47.908598 93.32843 
L 48.195421 86.588769 
L 48.482243 91.135841 
L 48.769065 98.753028 
L 49.34271 104.453999 
L 49.629533 104.663849 
L 49.916355 106.058577 
L 50.203178 105.442169 
L 50.49 106.155109 
L 50.776822 105.249736 
L 51.063645 105.800142 
L 51.350467 104.941462 
L 51.63729 105.23322 
L 51.924112 104.29897 
L 52.210935 104.531391 
L 52.497757 103.295321 
L 52.784579 103.378153 
L 53.071402 102.024315 
L 53.358224 101.956408 
L 53.645047 100.52081 
L 53.931869 100.3317 
L 54.218692 98.488424 
L 54.505514 98.048948 
L 54.792336 96.503815 
L 55.079159 96.691547 
L 55.365981 95.435864 
L 55.652804 95.838855 
L 55.939626 95.321101 
L 56.226449 95.988221 
L 56.513271 96.016588 
L 56.800093 97.790901 
L 57.086916 97.528045 
L 57.373738 99.776323 
L 57.660561 94.032744 
L 57.947383 96.65271 
L 58.234206 93.969372 
L 58.521028 93.124029 
L 58.80785 90.030537 
L 59.094673 89.312204 
L 59.381495 85.762687 
L 59.668318 84.939975 
L 59.95514 82.025785 
L 60.241963 81.396396 
L 60.528785 79.092728 
L 60.815607 80.381147 
L 61.10243 78.878323 
L 61.389252 80.789061 
L 61.676075 80.285011 
L 61.962897 82.978545 
L 62.24972 82.777341 
L 62.536542 85.974273 
L 62.823364 86.080599 
L 63.110187 88.597029 
L 63.397009 88.832569 
L 63.683832 91.071845 
L 63.970654 91.136662 
L 64.257477 92.854253 
L 64.544299 92.851332 
L 64.831121 93.745835 
L 65.117944 93.814818 
L 65.404766 94.338036 
L 65.691589 94.418101 
L 65.978411 94.881967 
L 66.838879 93.896671 
L 67.125701 84.380484 
L 67.986168 99.519135 
L 68.559813 102.602163 
L 68.846636 102.553249 
L 69.133458 103.389287 
L 69.42028 102.920924 
L 69.707103 103.516411 
L 69.993925 102.660302 
L 70.280748 102.882198 
L 70.56757 102.135319 
L 70.854393 102.283134 
L 71.428037 101.258697 
L 71.71486 100.969321 
L 72.001682 99.754563 
L 72.288505 99.564883 
L 72.575327 98.32695 
L 72.86215 98.28461 
L 73.148972 96.265933 
L 73.435794 95.448076 
L 74.009439 93.237486 
L 74.296262 92.915927 
L 74.583084 91.802422 
L 74.869907 92.459416 
L 75.156729 92.355653 
L 76.304019 96.519529 
L 76.590841 91.338523 
L 76.877664 93.704946 
L 77.738131 87.927036 
L 78.024953 87.426049 
L 78.311776 84.218324 
L 78.598598 83.271831 
L 78.885421 80.784379 
L 79.172243 81.14525 
L 79.459065 78.927146 
L 79.745888 79.990625 
L 80.03271 78.786316 
L 80.319533 80.249952 
L 80.606355 79.819105 
L 80.893178 81.766331 
L 81.18 82.024653 
L 81.466822 83.948049 
L 81.753645 84.582995 
L 82.040467 86.348776 
L 82.32729 86.982956 
L 82.900935 89.761018 
L 83.187757 89.900788 
L 83.474579 91.288821 
L 84.048224 92.027038 
L 84.335047 93.162837 
L 84.621869 92.289312 
L 84.908692 92.982575 
L 85.195514 92.409002 
L 85.482336 93.206804 
L 85.769159 92.135473 
L 86.055981 83.665875 
L 86.342804 86.599382 
L 86.629626 94.093721 
L 87.203271 100.359408 
L 87.490093 100.278595 
L 87.776916 101.427416 
L 88.063738 101.121081 
L 88.350561 102.17583 
L 88.637383 101.414886 
L 88.924206 101.80936 
L 89.211028 100.923425 
L 89.49785 101.383463 
L 89.784673 100.540984 
L 90.071495 101.073739 
L 90.358318 99.625384 
L 90.64514 99.831632 
L 90.931963 98.155271 
L 91.218785 98.494999 
L 91.505607 96.53978 
L 91.79243 96.713895 
L 92.079252 94.315324 
L 92.366075 94.499611 
L 92.652897 92.15228 
L 92.93972 92.002353 
L 93.226542 91.124986 
L 93.513364 91.396904 
L 93.800187 91.026738 
L 94.087009 92.076115 
L 94.373832 92.239581 
L 94.660654 93.601592 
L 94.947477 94.077769 
L 95.234299 95.312593 
L 95.521121 89.759898 
L 95.807944 91.425321 
L 96.094766 90.040624 
L 96.381589 87.892208 
L 96.668411 86.782031 
L 96.955234 84.31497 
L 97.242056 83.070831 
L 97.528879 79.85081 
L 97.815701 79.931291 
L 98.102523 77.135465 
L 98.389346 77.094593 
L 98.676168 74.86455 
L 98.962991 76.503011 
L 99.249813 75.875176 
L 99.536636 78.10726 
L 99.823458 78.598238 
L 100.11028 80.997087 
L 100.397103 81.993564 
L 101.25757 86.493099 
L 102.118037 89.893622 
L 102.40486 90.085696 
L 102.691682 90.85723 
L 102.978505 91.116239 
L 103.265327 91.566386 
L 103.55215 91.460794 
L 103.838972 92.151637 
L 104.125794 92.404802 
L 104.412617 92.291637 
L 104.699439 91.982336 
L 104.986262 82.260421 
L 105.273084 84.261335 
L 105.559907 88.333606 
L 105.846729 95.149331 
L 106.133551 97.421154 
L 106.994019 99.741773 
L 107.280841 99.69777 
L 107.567664 100.066195 
L 107.854486 99.59201 
L 108.141308 99.742762 
L 108.428131 98.941188 
L 108.714953 99.239037 
L 109.001776 97.849328 
L 109.288598 98.169886 
L 109.575421 96.676328 
L 109.862243 96.793702 
L 110.149065 95.030742 
L 110.435888 95.332294 
L 110.72271 93.177121 
L 111.009533 93.333437 
L 111.296355 91.462016 
L 111.583178 91.491608 
L 111.87 90.391318 
L 112.156822 90.756026 
L 112.443645 90.61591 
L 112.730467 90.108006 
L 113.01729 91.823216 
L 113.304112 91.137972 
L 113.590935 92.52928 
L 113.877757 92.528853 
L 114.164579 94.294843 
L 114.451402 86.327973 
L 114.738224 88.649406 
L 115.025047 87.783879 
L 116.172336 80.89876 
L 116.459159 77.602307 
L 116.745981 76.505931 
L 117.032804 73.813581 
L 117.319626 73.417782 
L 117.606449 71.834893 
L 118.180093 72.652087 
L 118.753738 75.702666 
L 119.040561 77.065583 
L 119.327383 79.200032 
L 119.614206 80.147284 
L 119.901028 82.616961 
L 120.18785 83.093369 
L 120.474673 85.263324 
L 120.761495 85.797348 
L 121.048318 87.680203 
L 121.33514 87.892065 
L 121.621963 89.233659 
L 121.908785 89.266982 
L 122.195607 90.41847 
L 122.48243 89.752015 
L 122.769252 90.478485 
L 123.056075 90.76301 
L 123.342897 89.926276 
L 123.62972 91.252216 
L 123.916542 79.488878 
L 124.490187 87.895036 
L 124.777009 93.549885 
L 125.063832 95.023685 
L 125.350654 97.329312 
L 125.637477 97.285203 
L 125.924299 98.610917 
L 126.211121 98.115015 
L 126.497944 98.672265 
L 127.071589 98.318825 
L 127.358411 98.362173 
L 127.645234 97.574877 
L 127.932056 97.942327 
L 128.218879 96.532139 
L 128.505701 97.2934 
L 128.792523 95.441048 
L 129.079346 96.008211 
L 129.366168 93.835466 
L 129.652991 93.94779 
L 129.939813 91.839552 
L 130.226636 91.818184 
L 130.513458 89.547101 
L 130.80028 89.588249 
L 131.087103 87.725761 
L 131.660748 87.621765 
L 131.94757 87.41044 
L 132.234393 88.614479 
L 132.521215 87.934949 
L 132.808037 89.598707 
L 133.09486 88.985897 
L 133.381682 82.777382 
L 133.668505 83.5079 
L 133.955327 85.034821 
L 134.24215 81.376745 
L 134.528972 81.59483 
L 134.815794 77.724173 
L 135.102617 78.18882 
L 135.389439 74.552788 
L 135.676262 75.009392 
L 135.963084 72.469133 
L 136.249907 73.276881 
L 136.536729 71.929125 
L 137.397196 74.237849 
L 137.684019 76.782674 
L 137.970841 77.576698 
L 138.257664 80.588933 
L 138.544486 80.73209 
L 138.831308 83.798498 
L 139.118131 83.102377 
L 139.404953 86.138855 
L 139.691776 85.125181 
L 139.978598 87.699527 
L 140.265421 86.720038 
L 140.552243 88.922905 
L 140.839065 87.818874 
L 141.125888 89.063218 
L 141.41271 88.019023 
L 141.699533 88.648991 
L 141.986355 88.358328 
L 142.273178 88.477006 
L 142.56 87.855285 
L 142.846822 78.115545 
L 143.133645 79.63164 
L 143.420467 83.073957 
L 143.70729 88.025273 
L 143.994112 89.441672 
L 144.280935 93.051495 
L 144.567757 93.014065 
L 144.854579 95.260511 
L 145.141402 94.210076 
L 145.428224 95.809121 
L 145.715047 94.434095 
L 146.001869 95.510135 
L 146.288692 93.853521 
L 146.575514 95.102425 
L 146.862336 93.53335 
L 147.149159 94.284055 
L 147.435981 92.6002 
L 147.722804 92.701808 
L 148.009626 91.596558 
L 148.583271 90.314076 
L 150.017383 85.752098 
L 150.304206 85.320453 
L 150.591028 84.411259 
L 150.87785 85.043448 
L 151.164673 84.505447 
L 151.164673 84.505447 
" clip-path="url(#pd03e063995)" style="fill: none; stroke: #4d4d4d; stroke-width: 1.5; stroke-linecap: square"/>
   </g>
   <g id="patch_3">
    <path d="M 19.8 128.16 
L 19.8 17.28 
" style="fill: none; stroke: #000000; stroke-width: 0.8; stroke-linejoin: miter; stroke-linecap: square"/>
   </g>
   <g id="patch_4">
    <path d="M 142.56 128.16 
L 142.56 17.28 
" style="fill: none; stroke: #000000; stroke-width: 0.8; stroke-linejoin: miter; stroke-linecap: square"/>
   </g>
   <g id="patch_5">
    <path d="M 19.8 128.16 
L 142.56 128.16 
" style="fill: none; stroke: #000000; stroke-width: 0.8; stroke-linejoin: miter; stroke-linecap: square"/>
   </g>
   <g id="patch_6">
    <path d="M 19.8 17.28 
L 142.56 17.28 
" style="fill: none; stroke: #000000; stroke-width: 0.8; stroke-linejoin: miter; stroke-linecap: square"/>
   </g>
  </g>
 </g>
 <defs>
  <clipPath id="pd03e063995">
   <rect x="19.8" y="17.28" width="122.76" height="110.88"/>
  </clipPath>
 </defs>
</svg>
