<?xml version="1.0" encoding="utf-8" standalone="no"?>
<!DOCTYPE svg PUBLIC "-//W3C//DTD SVG 1.1//EN"
  "http://www.w3.org/Graphics/SVG/1.1/DTD/svg11.dtd">
<svg xmlns:xlink="http://www.w3.org/1999/xlink" width="252pt" height="72pt" viewBox="0 0 252 72" xmlns="http://www.w3.org/2000/svg" version="1.1">
 <metadata>
  <rdf:RDF xmlns:dc="http://purl.org/dc/elements/1.1/" xmlns:cc="http://creativecommons.org/ns#" xmlns:rdf="http://www.w3.org/1999/02/22-rdf-syntax-ns#">
   <cc:Work>
    <dc:type rdf:resource="http://purl.org/dc/dcmitype/StillImage"/>
    <dc:date>2024-07-09T19:54:46.845606</dc:date>
    <dc:format>image/svg+xml</dc:format>
    <dc:creator>
     <cc:Agent>
      <dc:title>Matplotlib v3.8.3, https://matplotlib.org/</dc:title>
     </cc:Agent>
    </dc:creator>
   </cc:Work>
  </rdf:RDF>
 </metadata>
 <defs>
  <style type="text/css">*{stroke-linejoin: round; stroke-linecap: butt}</style>
 </defs>
 <g id="figure_1">
  <g id="patch_1">
   <path d="M 0 72 
L 252 72 
L 252 0 
L 0 0 
z
" style="fill: #ffffff"/>
  </g>
  <g id="axes_1">
   <g id="patch_2">
    <path d="M 31.5 64.08 
L 226.8 64.08 
L 226.8 8.64 
L 31.5 8.64 
z
" style="fill: #f2f2f2"/>
   </g>
   <g id="matplotlib.axis_1">
    <g id="xtick_1">
     <g id="line2d_1">
      <defs>
       <path id="m650cd7a475" d="M 0 0 
L 0 3.5 
" style="stroke: #000000; stroke-width: 0.5"/>
      </defs>
      <g>
       <use xlink:href="#m650cd7a475" x="40.377273" y="64.08" style="stroke: #000000; stroke-width: 0.5"/>
      </g>
     </g>
     <g id="text_1">
      <!-- 0 -->
      <g transform="translate(38.987038 74.658906) scale(0.05 -0.05)">
       <defs>
        <path id="ArialMT-30" d="M 266 2259 
Q 266 3072 433 3567 
Q 600 4063 929 4331 
Q 1259 4600 1759 4600 
Q 2128 4600 2406 4451 
Q 2684 4303 2865 4023 
Q 3047 3744 3150 3342 
Q 3253 2941 3253 2259 
Q 3253 1453 3087 958 
Q 2922 463 2592 192 
Q 2263 -78 1759 -78 
Q 1097 -78 719 397 
Q 266 969 266 2259 
z
M 844 2259 
Q 844 1131 1108 757 
Q 1372 384 1759 384 
Q 2147 384 2411 759 
Q 2675 1134 2675 2259 
Q 2675 3391 2411 3762 
Q 2147 4134 1753 4134 
Q 1366 4134 1134 3806 
Q 844 3388 844 2259 
z
" transform="scale(0.015625)"/>
       </defs>
       <use xlink:href="#ArialMT-30"/>
      </g>
     </g>
    </g>
    <g id="xtick_2">
     <g id="line2d_2">
      <g>
       <use xlink:href="#m650cd7a475" x="64.262311" y="64.08" style="stroke: #000000; stroke-width: 0.5"/>
      </g>
     </g>
     <g id="text_2">
      <!-- 10 -->
      <g transform="translate(61.481843 74.658906) scale(0.05 -0.05)">
       <defs>
        <path id="ArialMT-31" d="M 2384 0 
L 1822 0 
L 1822 3584 
Q 1619 3391 1289 3197 
Q 959 3003 697 2906 
L 697 3450 
Q 1169 3672 1522 3987 
Q 1875 4303 2022 4600 
L 2384 4600 
L 2384 0 
z
" transform="scale(0.015625)"/>
       </defs>
       <use xlink:href="#ArialMT-31"/>
       <use xlink:href="#ArialMT-30" x="55.615234"/>
      </g>
     </g>
    </g>
    <g id="xtick_3">
     <g id="line2d_3">
      <g>
       <use xlink:href="#m650cd7a475" x="88.14735" y="64.08" style="stroke: #000000; stroke-width: 0.5"/>
      </g>
     </g>
     <g id="text_3">
      <!-- 20 -->
      <g transform="translate(85.366881 74.658906) scale(0.05 -0.05)">
       <defs>
        <path id="ArialMT-32" d="M 3222 541 
L 3222 0 
L 194 0 
Q 188 203 259 391 
Q 375 700 629 1000 
Q 884 1300 1366 1694 
Q 2113 2306 2375 2664 
Q 2638 3022 2638 3341 
Q 2638 3675 2398 3904 
Q 2159 4134 1775 4134 
Q 1369 4134 1125 3890 
Q 881 3647 878 3216 
L 300 3275 
Q 359 3922 746 4261 
Q 1134 4600 1788 4600 
Q 2447 4600 2831 4234 
Q 3216 3869 3216 3328 
Q 3216 3053 3103 2787 
Q 2991 2522 2730 2228 
Q 2469 1934 1863 1422 
Q 1356 997 1212 845 
Q 1069 694 975 541 
L 3222 541 
z
" transform="scale(0.015625)"/>
       </defs>
       <use xlink:href="#ArialMT-32"/>
       <use xlink:href="#ArialMT-30" x="55.615234"/>
      </g>
     </g>
    </g>
    <g id="xtick_4">
     <g id="line2d_4">
      <g>
       <use xlink:href="#m650cd7a475" x="112.032389" y="64.08" style="stroke: #000000; stroke-width: 0.5"/>
      </g>
     </g>
     <g id="text_4">
      <!-- 30 -->
      <g transform="translate(109.25192 74.658906) scale(0.05 -0.05)">
       <defs>
        <path id="ArialMT-33" d="M 269 1209 
L 831 1284 
Q 928 806 1161 595 
Q 1394 384 1728 384 
Q 2125 384 2398 659 
Q 2672 934 2672 1341 
Q 2672 1728 2419 1979 
Q 2166 2231 1775 2231 
Q 1616 2231 1378 2169 
L 1441 2663 
Q 1497 2656 1531 2656 
Q 1891 2656 2178 2843 
Q 2466 3031 2466 3422 
Q 2466 3731 2256 3934 
Q 2047 4138 1716 4138 
Q 1388 4138 1169 3931 
Q 950 3725 888 3313 
L 325 3413 
Q 428 3978 793 4289 
Q 1159 4600 1703 4600 
Q 2078 4600 2393 4439 
Q 2709 4278 2876 4000 
Q 3044 3722 3044 3409 
Q 3044 3113 2884 2869 
Q 2725 2625 2413 2481 
Q 2819 2388 3044 2092 
Q 3269 1797 3269 1353 
Q 3269 753 2831 336 
Q 2394 -81 1725 -81 
Q 1122 -81 723 278 
Q 325 638 269 1209 
z
" transform="scale(0.015625)"/>
       </defs>
       <use xlink:href="#ArialMT-33"/>
       <use xlink:href="#ArialMT-30" x="55.615234"/>
      </g>
     </g>
    </g>
    <g id="xtick_5">
     <g id="line2d_5">
      <g>
       <use xlink:href="#m650cd7a475" x="135.917428" y="64.08" style="stroke: #000000; stroke-width: 0.5"/>
      </g>
     </g>
     <g id="text_5">
      <!-- 40 -->
      <g transform="translate(133.136959 74.658906) scale(0.05 -0.05)">
       <defs>
        <path id="ArialMT-34" d="M 2069 0 
L 2069 1097 
L 81 1097 
L 81 1613 
L 2172 4581 
L 2631 4581 
L 2631 1613 
L 3250 1613 
L 3250 1097 
L 2631 1097 
L 2631 0 
L 2069 0 
z
M 2069 1613 
L 2069 3678 
L 634 1613 
L 2069 1613 
z
" transform="scale(0.015625)"/>
       </defs>
       <use xlink:href="#ArialMT-34"/>
       <use xlink:href="#ArialMT-30" x="55.615234"/>
      </g>
     </g>
    </g>
    <g id="xtick_6">
     <g id="line2d_6">
      <g>
       <use xlink:href="#m650cd7a475" x="159.802466" y="64.08" style="stroke: #000000; stroke-width: 0.5"/>
      </g>
     </g>
     <g id="text_6">
      <!-- 50 -->
      <g transform="translate(157.021998 74.658906) scale(0.05 -0.05)">
       <defs>
        <path id="ArialMT-35" d="M 266 1200 
L 856 1250 
Q 922 819 1161 601 
Q 1400 384 1738 384 
Q 2144 384 2425 690 
Q 2706 997 2706 1503 
Q 2706 1984 2436 2262 
Q 2166 2541 1728 2541 
Q 1456 2541 1237 2417 
Q 1019 2294 894 2097 
L 366 2166 
L 809 4519 
L 3088 4519 
L 3088 3981 
L 1259 3981 
L 1013 2750 
Q 1425 3038 1878 3038 
Q 2478 3038 2890 2622 
Q 3303 2206 3303 1553 
Q 3303 931 2941 478 
Q 2500 -78 1738 -78 
Q 1113 -78 717 272 
Q 322 622 266 1200 
z
" transform="scale(0.015625)"/>
       </defs>
       <use xlink:href="#ArialMT-35"/>
       <use xlink:href="#ArialMT-30" x="55.615234"/>
      </g>
     </g>
    </g>
    <g id="xtick_7">
     <g id="line2d_7">
      <g>
       <use xlink:href="#m650cd7a475" x="183.687505" y="64.08" style="stroke: #000000; stroke-width: 0.5"/>
      </g>
     </g>
     <g id="text_7">
      <!-- 60 -->
      <g transform="translate(180.907036 74.658906) scale(0.05 -0.05)">
       <defs>
        <path id="ArialMT-36" d="M 3184 3459 
L 2625 3416 
Q 2550 3747 2413 3897 
Q 2184 4138 1850 4138 
Q 1581 4138 1378 3988 
Q 1113 3794 959 3422 
Q 806 3050 800 2363 
Q 1003 2672 1297 2822 
Q 1591 2972 1913 2972 
Q 2475 2972 2870 2558 
Q 3266 2144 3266 1488 
Q 3266 1056 3080 686 
Q 2894 316 2569 119 
Q 2244 -78 1831 -78 
Q 1128 -78 684 439 
Q 241 956 241 2144 
Q 241 3472 731 4075 
Q 1159 4600 1884 4600 
Q 2425 4600 2770 4297 
Q 3116 3994 3184 3459 
z
M 888 1484 
Q 888 1194 1011 928 
Q 1134 663 1356 523 
Q 1578 384 1822 384 
Q 2178 384 2434 671 
Q 2691 959 2691 1453 
Q 2691 1928 2437 2201 
Q 2184 2475 1800 2475 
Q 1419 2475 1153 2201 
Q 888 1928 888 1484 
z
" transform="scale(0.015625)"/>
       </defs>
       <use xlink:href="#ArialMT-36"/>
       <use xlink:href="#ArialMT-30" x="55.615234"/>
      </g>
     </g>
    </g>
    <g id="xtick_8">
     <g id="line2d_8">
      <g>
       <use xlink:href="#m650cd7a475" x="207.572544" y="64.08" style="stroke: #000000; stroke-width: 0.5"/>
      </g>
     </g>
     <g id="text_8">
      <!-- 70 -->
      <g transform="translate(204.792075 74.658906) scale(0.05 -0.05)">
       <defs>
        <path id="ArialMT-37" d="M 303 3981 
L 303 4522 
L 3269 4522 
L 3269 4084 
Q 2831 3619 2401 2847 
Q 1972 2075 1738 1259 
Q 1569 684 1522 0 
L 944 0 
Q 953 541 1156 1306 
Q 1359 2072 1739 2783 
Q 2119 3494 2547 3981 
L 303 3981 
z
" transform="scale(0.015625)"/>
       </defs>
       <use xlink:href="#ArialMT-37"/>
       <use xlink:href="#ArialMT-30" x="55.615234"/>
      </g>
     </g>
    </g>
    <g id="text_9">
     <!-- Time (h) -->
     <g transform="translate(115.333594 85.112422) scale(0.075 -0.075)">
      <defs>
       <path id="ArialMT-54" d="M 1659 0 
L 1659 4041 
L 150 4041 
L 150 4581 
L 3781 4581 
L 3781 4041 
L 2266 4041 
L 2266 0 
L 1659 0 
z
" transform="scale(0.015625)"/>
       <path id="ArialMT-69" d="M 425 3934 
L 425 4581 
L 988 4581 
L 988 3934 
L 425 3934 
z
M 425 0 
L 425 3319 
L 988 3319 
L 988 0 
L 425 0 
z
" transform="scale(0.015625)"/>
       <path id="ArialMT-6d" d="M 422 0 
L 422 3319 
L 925 3319 
L 925 2853 
Q 1081 3097 1340 3245 
Q 1600 3394 1931 3394 
Q 2300 3394 2536 3241 
Q 2772 3088 2869 2813 
Q 3263 3394 3894 3394 
Q 4388 3394 4653 3120 
Q 4919 2847 4919 2278 
L 4919 0 
L 4359 0 
L 4359 2091 
Q 4359 2428 4304 2576 
Q 4250 2725 4106 2815 
Q 3963 2906 3769 2906 
Q 3419 2906 3187 2673 
Q 2956 2441 2956 1928 
L 2956 0 
L 2394 0 
L 2394 2156 
Q 2394 2531 2256 2718 
Q 2119 2906 1806 2906 
Q 1569 2906 1367 2781 
Q 1166 2656 1075 2415 
Q 984 2175 984 1722 
L 984 0 
L 422 0 
z
" transform="scale(0.015625)"/>
       <path id="ArialMT-65" d="M 2694 1069 
L 3275 997 
Q 3138 488 2766 206 
Q 2394 -75 1816 -75 
Q 1088 -75 661 373 
Q 234 822 234 1631 
Q 234 2469 665 2931 
Q 1097 3394 1784 3394 
Q 2450 3394 2872 2941 
Q 3294 2488 3294 1666 
Q 3294 1616 3291 1516 
L 816 1516 
Q 847 969 1125 678 
Q 1403 388 1819 388 
Q 2128 388 2347 550 
Q 2566 713 2694 1069 
z
M 847 1978 
L 2700 1978 
Q 2663 2397 2488 2606 
Q 2219 2931 1791 2931 
Q 1403 2931 1139 2672 
Q 875 2413 847 1978 
z
" transform="scale(0.015625)"/>
       <path id="ArialMT-20" transform="scale(0.015625)"/>
       <path id="ArialMT-28" d="M 1497 -1347 
Q 1031 -759 709 28 
Q 388 816 388 1659 
Q 388 2403 628 3084 
Q 909 3875 1497 4659 
L 1900 4659 
Q 1522 4009 1400 3731 
Q 1209 3300 1100 2831 
Q 966 2247 966 1656 
Q 966 153 1900 -1347 
L 1497 -1347 
z
" transform="scale(0.015625)"/>
       <path id="ArialMT-68" d="M 422 0 
L 422 4581 
L 984 4581 
L 984 2938 
Q 1378 3394 1978 3394 
Q 2347 3394 2619 3248 
Q 2891 3103 3008 2847 
Q 3125 2591 3125 2103 
L 3125 0 
L 2563 0 
L 2563 2103 
Q 2563 2525 2380 2717 
Q 2197 2909 1863 2909 
Q 1613 2909 1392 2779 
Q 1172 2650 1078 2428 
Q 984 2206 984 1816 
L 984 0 
L 422 0 
z
" transform="scale(0.015625)"/>
       <path id="ArialMT-29" d="M 791 -1347 
L 388 -1347 
Q 1322 153 1322 1656 
Q 1322 2244 1188 2822 
Q 1081 3291 891 3722 
Q 769 4003 388 4659 
L 791 4659 
Q 1378 3875 1659 3084 
Q 1900 2403 1900 1659 
Q 1900 816 1576 28 
Q 1253 -759 791 -1347 
z
" transform="scale(0.015625)"/>
      </defs>
      <use xlink:href="#ArialMT-54"/>
      <use xlink:href="#ArialMT-69" x="57.333984"/>
      <use xlink:href="#ArialMT-6d" x="79.550781"/>
      <use xlink:href="#ArialMT-65" x="162.851562"/>
      <use xlink:href="#ArialMT-20" x="218.466797"/>
      <use xlink:href="#ArialMT-28" x="246.25"/>
      <use xlink:href="#ArialMT-68" x="279.550781"/>
      <use xlink:href="#ArialMT-29" x="335.166016"/>
     </g>
    </g>
   </g>
   <g id="matplotlib.axis_2">
    <g id="ytick_1">
     <g id="line2d_9">
      <defs>
       <path id="m98645312b2" d="M 0 0 
L -3.5 0 
" style="stroke: #000000; stroke-width: 0.5"/>
      </defs>
      <g>
       <use xlink:href="#m98645312b2" x="31.5" y="58.561986" style="stroke: #000000; stroke-width: 0.5"/>
      </g>
     </g>
     <g id="text_10">
      <!-- 0 -->
      <g transform="translate(21.719531 60.351439) scale(0.05 -0.05)">
       <use xlink:href="#ArialMT-30"/>
      </g>
     </g>
    </g>
    <g id="ytick_2">
     <g id="line2d_10">
      <g>
       <use xlink:href="#m98645312b2" x="31.5" y="41.517625" style="stroke: #000000; stroke-width: 0.5"/>
      </g>
     </g>
     <g id="text_11">
      <!-- 2 -->
      <g transform="translate(21.719531 43.307079) scale(0.05 -0.05)">
       <use xlink:href="#ArialMT-32"/>
      </g>
     </g>
    </g>
    <g id="ytick_3">
     <g id="line2d_11">
      <g>
       <use xlink:href="#m98645312b2" x="31.5" y="24.473265" style="stroke: #000000; stroke-width: 0.5"/>
      </g>
     </g>
     <g id="text_12">
      <!-- 4 -->
      <g transform="translate(21.719531 26.262718) scale(0.05 -0.05)">
       <use xlink:href="#ArialMT-34"/>
      </g>
     </g>
    </g>
    <g id="text_13">
     <!-- p53 level (FC) -->
     <g transform="translate(16.141016 59.907656) rotate(-90) scale(0.075 -0.075)">
      <defs>
       <path id="ArialMT-70" d="M 422 -1272 
L 422 3319 
L 934 3319 
L 934 2888 
Q 1116 3141 1344 3267 
Q 1572 3394 1897 3394 
Q 2322 3394 2647 3175 
Q 2972 2956 3137 2557 
Q 3303 2159 3303 1684 
Q 3303 1175 3120 767 
Q 2938 359 2589 142 
Q 2241 -75 1856 -75 
Q 1575 -75 1351 44 
Q 1128 163 984 344 
L 984 -1272 
L 422 -1272 
z
M 931 1641 
Q 931 1000 1190 694 
Q 1450 388 1819 388 
Q 2194 388 2461 705 
Q 2728 1022 2728 1688 
Q 2728 2322 2467 2637 
Q 2206 2953 1844 2953 
Q 1484 2953 1207 2617 
Q 931 2281 931 1641 
z
" transform="scale(0.015625)"/>
       <path id="ArialMT-6c" d="M 409 0 
L 409 4581 
L 972 4581 
L 972 0 
L 409 0 
z
" transform="scale(0.015625)"/>
       <path id="ArialMT-76" d="M 1344 0 
L 81 3319 
L 675 3319 
L 1388 1331 
Q 1503 1009 1600 663 
Q 1675 925 1809 1294 
L 2547 3319 
L 3125 3319 
L 1869 0 
L 1344 0 
z
" transform="scale(0.015625)"/>
       <path id="ArialMT-46" d="M 525 0 
L 525 4581 
L 3616 4581 
L 3616 4041 
L 1131 4041 
L 1131 2622 
L 3281 2622 
L 3281 2081 
L 1131 2081 
L 1131 0 
L 525 0 
z
" transform="scale(0.015625)"/>
       <path id="ArialMT-43" d="M 3763 1606 
L 4369 1453 
Q 4178 706 3683 314 
Q 3188 -78 2472 -78 
Q 1731 -78 1267 223 
Q 803 525 561 1097 
Q 319 1669 319 2325 
Q 319 3041 592 3573 
Q 866 4106 1370 4382 
Q 1875 4659 2481 4659 
Q 3169 4659 3637 4309 
Q 4106 3959 4291 3325 
L 3694 3184 
Q 3534 3684 3231 3912 
Q 2928 4141 2469 4141 
Q 1941 4141 1586 3887 
Q 1231 3634 1087 3207 
Q 944 2781 944 2328 
Q 944 1744 1114 1308 
Q 1284 872 1643 656 
Q 2003 441 2422 441 
Q 2931 441 3284 734 
Q 3638 1028 3763 1606 
z
" transform="scale(0.015625)"/>
      </defs>
      <use xlink:href="#ArialMT-70"/>
      <use xlink:href="#ArialMT-35" x="55.615234"/>
      <use xlink:href="#ArialMT-33" x="111.230469"/>
      <use xlink:href="#ArialMT-20" x="166.845703"/>
      <use xlink:href="#ArialMT-6c" x="194.628906"/>
      <use xlink:href="#ArialMT-65" x="216.845703"/>
      <use xlink:href="#ArialMT-76" x="272.460938"/>
      <use xlink:href="#ArialMT-65" x="322.460938"/>
      <use xlink:href="#ArialMT-6c" x="378.076172"/>
      <use xlink:href="#ArialMT-20" x="400.292969"/>
      <use xlink:href="#ArialMT-28" x="428.076172"/>
      <use xlink:href="#ArialMT-46" x="461.376953"/>
      <use xlink:href="#ArialMT-43" x="522.460938"/>
      <use xlink:href="#ArialMT-29" x="594.677734"/>
     </g>
    </g>
   </g>
   <g id="line2d_12">
    <path d="M 40.775357 50.039806 
L 41.173441 50.332737 
L 41.571525 51.498421 
L 41.969609 49.5838 
L 42.367693 48.532872 
L 43.561945 37.942054 
L 44.358113 31.804091 
L 44.756196 27.372376 
L 45.15428 27.203261 
L 45.552364 23.571822 
L 45.950448 22.836474 
L 46.348532 23.233592 
L 47.1447 29.459133 
L 47.542784 35.207528 
L 47.940868 38.989962 
L 48.338952 41.430048 
L 49.13512 49.873711 
L 49.533204 52.407414 
L 49.931288 54.189159 
L 50.329372 54.084973 
L 50.727456 54.775022 
L 51.12554 54.51229 
L 51.523624 54.750862 
L 51.921708 53.802611 
L 52.717876 55.110231 
L 53.11596 54.681404 
L 53.514044 54.737273 
L 53.912128 54.605907 
L 54.310212 54.642146 
L 55.10638 52.20055 
L 55.504464 50.150033 
L 55.902548 45.95991 
L 56.300632 43.919962 
L 56.698716 42.542884 
L 57.0968 39.448988 
L 57.494884 34.440471 
L 57.892968 28.002027 
L 58.291052 23.589941 
L 58.689136 24.880952 
L 59.08722 23.6443 
L 59.485304 26.097975 
L 59.883388 38.204786 
L 60.281472 40.901564 
L 61.07764 52.097873 
L 61.873808 54.427732 
L 62.271892 51.483322 
L 62.669976 54.219359 
L 63.06806 54.030614 
L 63.466143 54.687444 
L 63.864227 54.965276 
L 65.058479 54.741803 
L 65.456563 53.678795 
L 65.854647 54.015515 
L 67.048899 50.308578 
L 67.845067 44.552633 
L 68.641235 37.74123 
L 69.835487 24.921721 
L 70.233571 21.867084 
L 70.631655 22.803255 
L 71.427823 32.18611 
L 71.825907 40.095249 
L 72.622075 50.378036 
L 73.020159 51.806452 
L 73.418243 53.674265 
L 74.214411 55.567748 
L 74.612495 54.616476 
L 75.806747 55.412222 
L 76.204831 54.856559 
L 76.602915 53.625947 
L 77.399083 54.557588 
L 77.797167 54.587787 
L 78.195251 54.232948 
L 78.593335 52.119013 
L 79.389503 51.025806 
L 79.787587 48.92848 
L 80.583755 41.138627 
L 80.981839 39.834027 
L 81.379923 34.179249 
L 81.778007 33.754952 
L 82.176091 34.052413 
L 82.574174 34.80739 
L 83.370342 43.290311 
L 83.768426 49.026627 
L 84.16651 52.282088 
L 84.564594 53.882639 
L 84.962678 54.18312 
L 85.360762 54.263147 
L 85.758846 54.726703 
L 86.15693 55.431852 
L 86.555014 54.710094 
L 86.953098 54.711604 
L 87.351182 55.857659 
L 87.749266 56.019224 
L 88.14735 54.604397 
L 88.545434 55.741392 
L 88.943518 54.948666 
L 89.341602 54.918467 
L 89.739686 54.598357 
L 90.13777 53.52327 
L 90.535854 53.535349 
L 90.933938 53.097463 
L 91.332022 48.836373 
L 91.730106 47.426075 
L 92.12819 43.749337 
L 92.526274 38.653243 
L 92.924358 37.253515 
L 93.322442 34.407252 
L 93.720526 25.882052 
L 94.11861 22.126796 
L 94.516694 17.107709 
L 94.914778 33.295926 
L 95.312862 44.339729 
L 95.710946 50.116814 
L 96.10903 52.422513 
L 96.507114 53.468911 
L 96.905198 54.038164 
L 97.303282 53.274127 
L 97.701366 54.405083 
L 98.09945 52.658066 
L 98.497534 52.787922 
L 99.293702 53.268088 
L 99.691786 50.89897 
L 100.08987 50.675497 
L 100.487954 53.431163 
L 100.886038 53.900758 
L 101.284121 53.746743 
L 101.682205 55.061913 
L 102.080289 54.059303 
L 102.478373 53.825261 
L 102.876457 53.227319 
L 103.672625 46.28908 
L 104.070709 44.437876 
L 104.468793 36.876027 
L 104.866877 33.095102 
L 105.663045 21.524324 
L 106.459213 11.16 
L 107.653465 35.521598 
L 108.449633 46.408366 
L 108.847717 47.750716 
L 109.245801 49.511322 
L 109.643885 46.921751 
L 110.041969 46.979129 
L 110.440053 47.430605 
L 110.838137 48.303359 
L 111.236221 48.292789 
L 111.634305 46.989699 
L 112.032389 47.356618 
L 112.430473 50.770624 
L 112.828557 51.803432 
L 113.624725 53.225809 
L 114.022809 53.108032 
L 114.420893 53.305836 
L 115.217061 49.594369 
L 115.615145 45.481255 
L 116.013229 42.742198 
L 117.207481 28.088094 
L 117.605565 18.501396 
L 118.003649 15.495078 
L 118.401733 13.640854 
L 118.799817 17.305513 
L 119.595985 29.978557 
L 119.994068 38.555096 
L 120.392152 43.294841 
L 120.790236 46.261901 
L 121.18832 47.726556 
L 121.984488 45.050918 
L 122.780656 45.221543 
L 123.17874 44.899922 
L 123.576824 43.459426 
L 123.974908 43.625521 
L 124.771076 50.542621 
L 125.16916 51.839671 
L 125.965328 52.893619 
L 126.363412 54.069873 
L 127.15958 51.336856 
L 127.557664 51.806452 
L 127.955748 49.713656 
L 128.353832 46.659019 
L 128.751916 47.072746 
L 129.15 45.218523 
L 129.548084 41.37418 
L 129.946168 39.0715 
L 131.14042 48.378856 
L 131.936588 52.984216 
L 132.334672 52.066164 
L 132.732756 52.129582 
L 133.13084 50.56527 
L 133.528924 50.159092 
L 133.927008 47.181463 
L 134.325092 47.030468 
L 134.723176 47.065196 
L 135.12126 44.767046 
L 135.519344 46.29512 
L 135.917428 45.452566 
L 136.315512 46.791895 
L 136.713596 50.87481 
L 137.11168 52.022375 
L 137.509764 54.097052 
L 137.907848 53.887169 
L 138.305932 53.441732 
L 138.704015 52.125052 
L 139.102099 51.504461 
L 139.500183 48.863552 
L 139.898267 49.132324 
L 140.296351 48.357717 
L 140.694435 45.801365 
L 141.092519 45.129435 
L 141.490603 40.188866 
L 141.888687 36.948505 
L 142.286771 41.603693 
L 143.481023 49.456964 
L 144.277191 52.221689 
L 144.675275 50.749484 
L 145.073359 50.636238 
L 145.471443 51.181331 
L 145.869527 48.161423 
L 146.267611 47.025938 
L 146.665695 46.891552 
L 147.063779 47.125595 
L 147.461863 45.64282 
L 147.859947 42.237873 
L 148.258031 44.748927 
L 148.656115 49.366366 
L 149.054199 50.275359 
L 149.452283 52.111463 
L 149.850367 53.310366 
L 150.248451 52.807552 
L 150.646535 53.553469 
L 151.044619 52.016336 
L 151.442703 53.441732 
L 151.840787 51.921209 
L 152.238871 52.478382 
L 153.035039 52.787922 
L 153.433123 52.822651 
L 154.229291 52.642967 
L 154.627375 53.017435 
L 155.025459 52.53274 
L 155.423543 53.876599 
L 155.821627 51.984627 
L 156.219711 51.54372 
L 156.617795 52.411944 
L 157.413962 52.84832 
L 157.812046 52.150722 
L 158.21013 50.88085 
L 158.608214 50.750994 
L 159.006298 50.476183 
L 159.404382 50.906519 
L 160.598634 47.468354 
L 160.996718 49.367876 
L 161.394802 49.372406 
L 161.792886 49.503772 
L 162.19097 48.671788 
L 162.589054 50.54715 
L 162.987138 50.732875 
L 163.385222 50.124363 
L 163.783306 51.521071 
L 164.18139 52.180921 
L 164.977558 51.033356 
L 165.375642 53.179 
L 165.773726 52.245849 
L 166.17181 52.905699 
L 166.569894 52.232259 
L 166.967978 52.19753 
L 167.366062 52.960057 
L 167.764146 53.260538 
L 168.16223 52.193 
L 168.560314 51.721895 
L 168.958398 51.605628 
L 169.356482 51.308167 
L 169.754566 50.485242 
L 170.15265 51.53315 
L 170.550734 51.077144 
L 170.948818 50.409745 
L 171.346902 51.249279 
L 171.744986 50.192311 
L 172.14307 50.196841 
L 172.541154 51.663006 
L 172.939238 50.187781 
L 173.337322 50.746464 
L 173.735406 50.450513 
L 174.13349 51.637337 
L 174.531574 49.943169 
L 174.929658 50.005077 
L 175.327742 49.068905 
L 175.725826 49.878241 
L 176.123909 50.024706 
L 176.920077 51.85779 
L 177.318161 51.782293 
L 177.716245 54.027594 
L 178.910497 52.276048 
L 179.706665 52.673166 
L 180.104749 52.048045 
L 180.502833 51.036376 
L 180.900917 51.158682 
L 181.299001 51.057515 
L 181.697085 51.181331 
L 182.095169 51.733974 
L 182.493253 51.980097 
L 182.891337 51.85779 
L 183.289421 51.86836 
L 183.687505 51.666026 
L 184.085589 51.786823 
L 184.483673 51.146602 
L 184.881757 50.88689 
L 185.279841 51.045435 
L 185.677925 48.871101 
L 186.076009 48.573641 
L 186.872177 45.851193 
L 187.270261 43.767457 
L 187.668345 44.887843 
L 188.066429 44.419757 
L 188.862597 45.704728 
L 190.454933 50.991077 
L 190.853017 51.972547 
L 191.251101 52.581058 
L 191.649185 52.623337 
L 192.047269 54.054774 
L 192.843437 53.043104 
L 193.241521 51.53013 
L 193.639605 52.721484 
L 194.037689 52.271518 
L 195.23194 53.106522 
L 195.630024 52.917778 
L 196.028108 52.427043 
L 196.426192 51.468222 
L 196.824276 52.766783 
L 197.620444 52.260948 
L 198.018528 51.794372 
L 198.416612 50.735895 
L 198.814696 51.001647 
L 199.21278 50.278379 
L 199.610864 50.270829 
L 200.008948 48.821273 
L 200.407032 48.91036 
L 200.805116 50.734385 
L 201.2032 48.849962 
L 201.601284 49.979408 
L 201.999368 49.212351 
L 202.397452 49.965818 
L 202.795536 49.266709 
L 203.19362 49.479613 
L 203.591704 49.396565 
L 203.989788 48.786544 
L 204.387872 49.452434 
L 204.785956 48.786544 
L 205.18404 48.617429 
L 205.980208 49.737815 
L 206.378292 50.23912 
L 206.776376 50.954838 
L 207.17446 50.479202 
L 207.572544 51.012216 
L 207.970628 50.160602 
L 208.368712 50.651337 
L 208.766796 50.610568 
L 209.16488 51.022786 
L 209.562964 50.713245 
L 209.961048 51.505971 
L 210.359132 50.716265 
L 210.757216 51.522581 
L 211.1553 51.314207 
L 211.553384 50.791763 
L 211.951468 51.2221 
L 212.349552 50.88538 
L 212.747636 50.802333 
L 213.14572 52.064654 
L 213.543804 51.134523 
L 213.941887 51.567879 
L 214.339971 51.126973 
L 214.738055 51.193411 
L 215.136139 50.379546 
L 215.534223 51.007686 
L 215.932307 50.211941 
L 216.330391 49.687987 
L 216.728475 47.916811 
L 217.126559 48.412075 
L 217.922727 46.331359 
L 217.922727 46.331359 
" clip-path="url(#p1e6722cfba)" style="fill: none; stroke: #000000; stroke-width: 0.75; stroke-linecap: square"/>
   </g>
   <g id="line2d_13">
    <path d="M 40.377273 61.56 
L 90.535854 61.56 
L 90.535854 56.625485 
L 93.521484 56.625485 
L 93.521484 61.56 
L 96.507114 61.56 
L 96.507114 56.625485 
L 99.492744 56.625485 
L 99.492744 61.56 
L 102.478373 61.56 
L 102.478373 56.625485 
L 105.464003 56.625485 
L 105.464003 61.56 
L 108.449633 61.56 
L 108.449633 56.625485 
L 111.435263 56.625485 
L 111.435263 61.56 
L 114.420893 61.56 
L 114.420893 56.625485 
L 117.406523 56.625485 
L 117.406523 61.56 
L 120.392152 61.56 
L 120.392152 56.625485 
L 123.377782 56.625485 
L 123.377782 61.56 
L 126.363412 61.56 
L 126.363412 56.625485 
L 129.349042 56.625485 
L 129.349042 61.56 
L 132.334672 61.56 
L 132.334672 56.625485 
L 135.320302 56.625485 
L 135.320302 61.56 
L 138.305932 61.56 
L 138.305932 56.625485 
L 141.291561 56.625485 
L 141.291561 61.56 
L 144.277191 61.56 
L 144.277191 56.625485 
L 147.262821 56.625485 
L 147.262821 61.56 
L 217.922727 61.56 
" clip-path="url(#p1e6722cfba)" style="fill: none; stroke: #000000; stroke-width: 0.75; stroke-linecap: square"/>
   </g>
   <g id="patch_3">
    <path d="M 31.5 64.08 
L 31.5 8.64 
" style="fill: none; stroke: #000000; stroke-width: 0.5; stroke-linejoin: miter; stroke-linecap: square"/>
   </g>
   <g id="patch_4">
    <path d="M 31.5 64.08 
L 226.8 64.08 
" style="fill: none; stroke: #000000; stroke-width: 0.5; stroke-linejoin: miter; stroke-linecap: square"/>
   </g>
  </g>
 </g>
 <defs>
  <clipPath id="p1e6722cfba">
   <rect x="31.5" y="8.64" width="195.3" height="55.44"/>
  </clipPath>
 </defs>
</svg>
