<?xml version="1.0" encoding="utf-8" standalone="no"?>
<!DOCTYPE svg PUBLIC "-//W3C//DTD SVG 1.1//EN"
  "http://www.w3.org/Graphics/SVG/1.1/DTD/svg11.dtd">
<svg xmlns:xlink="http://www.w3.org/1999/xlink" width="252pt" height="72pt" viewBox="0 0 252 72" xmlns="http://www.w3.org/2000/svg" version="1.1">
 <metadata>
  <rdf:RDF xmlns:dc="http://purl.org/dc/elements/1.1/" xmlns:cc="http://creativecommons.org/ns#" xmlns:rdf="http://www.w3.org/1999/02/22-rdf-syntax-ns#">
   <cc:Work>
    <dc:type rdf:resource="http://purl.org/dc/dcmitype/StillImage"/>
    <dc:date>2024-07-09T19:54:46.893720</dc:date>
    <dc:format>image/svg+xml</dc:format>
    <dc:creator>
     <cc:Agent>
      <dc:title>Matplotlib v3.8.3, https://matplotlib.org/</dc:title>
     </cc:Agent>
    </dc:creator>
   </cc:Work>
  </rdf:RDF>
 </metadata>
 <defs>
  <style type="text/css">*{stroke-linejoin: round; stroke-linecap: butt}</style>
 </defs>
 <g id="figure_1">
  <g id="patch_1">
   <path d="M 0 72 
L 252 72 
L 252 0 
L 0 0 
z
" style="fill: #ffffff"/>
  </g>
  <g id="axes_1">
   <g id="patch_2">
    <path d="M 31.5 64.08 
L 226.8 64.08 
L 226.8 8.64 
L 31.5 8.64 
z
" style="fill: #f2f2f2"/>
   </g>
   <g id="matplotlib.axis_1">
    <g id="xtick_1">
     <g id="line2d_1">
      <defs>
       <path id="m3e7e4d22a6" d="M 0 0 
L 0 3.5 
" style="stroke: #000000; stroke-width: 0.5"/>
      </defs>
      <g>
       <use xlink:href="#m3e7e4d22a6" x="40.377273" y="64.08" style="stroke: #000000; stroke-width: 0.5"/>
      </g>
     </g>
     <g id="text_1">
      <!-- 0 -->
      <g transform="translate(38.987038 74.658906) scale(0.05 -0.05)">
       <defs>
        <path id="ArialMT-30" d="M 266 2259 
Q 266 3072 433 3567 
Q 600 4063 929 4331 
Q 1259 4600 1759 4600 
Q 2128 4600 2406 4451 
Q 2684 4303 2865 4023 
Q 3047 3744 3150 3342 
Q 3253 2941 3253 2259 
Q 3253 1453 3087 958 
Q 2922 463 2592 192 
Q 2263 -78 1759 -78 
Q 1097 -78 719 397 
Q 266 969 266 2259 
z
M 844 2259 
Q 844 1131 1108 757 
Q 1372 384 1759 384 
Q 2147 384 2411 759 
Q 2675 1134 2675 2259 
Q 2675 3391 2411 3762 
Q 2147 4134 1753 4134 
Q 1366 4134 1134 3806 
Q 844 3388 844 2259 
z
" transform="scale(0.015625)"/>
       </defs>
       <use xlink:href="#ArialMT-30"/>
      </g>
     </g>
    </g>
    <g id="xtick_2">
     <g id="line2d_2">
      <g>
       <use xlink:href="#m3e7e4d22a6" x="80.881939" y="64.08" style="stroke: #000000; stroke-width: 0.5"/>
      </g>
     </g>
     <g id="text_2">
      <!-- 20 -->
      <g transform="translate(78.10147 74.658906) scale(0.05 -0.05)">
       <defs>
        <path id="ArialMT-32" d="M 3222 541 
L 3222 0 
L 194 0 
Q 188 203 259 391 
Q 375 700 629 1000 
Q 884 1300 1366 1694 
Q 2113 2306 2375 2664 
Q 2638 3022 2638 3341 
Q 2638 3675 2398 3904 
Q 2159 4134 1775 4134 
Q 1369 4134 1125 3890 
Q 881 3647 878 3216 
L 300 3275 
Q 359 3922 746 4261 
Q 1134 4600 1788 4600 
Q 2447 4600 2831 4234 
Q 3216 3869 3216 3328 
Q 3216 3053 3103 2787 
Q 2991 2522 2730 2228 
Q 2469 1934 1863 1422 
Q 1356 997 1212 845 
Q 1069 694 975 541 
L 3222 541 
z
" transform="scale(0.015625)"/>
       </defs>
       <use xlink:href="#ArialMT-32"/>
       <use xlink:href="#ArialMT-30" x="55.615234"/>
      </g>
     </g>
    </g>
    <g id="xtick_3">
     <g id="line2d_3">
      <g>
       <use xlink:href="#m3e7e4d22a6" x="121.386606" y="64.08" style="stroke: #000000; stroke-width: 0.5"/>
      </g>
     </g>
     <g id="text_3">
      <!-- 40 -->
      <g transform="translate(118.606137 74.658906) scale(0.05 -0.05)">
       <defs>
        <path id="ArialMT-34" d="M 2069 0 
L 2069 1097 
L 81 1097 
L 81 1613 
L 2172 4581 
L 2631 4581 
L 2631 1613 
L 3250 1613 
L 3250 1097 
L 2631 1097 
L 2631 0 
L 2069 0 
z
M 2069 1613 
L 2069 3678 
L 634 1613 
L 2069 1613 
z
" transform="scale(0.015625)"/>
       </defs>
       <use xlink:href="#ArialMT-34"/>
       <use xlink:href="#ArialMT-30" x="55.615234"/>
      </g>
     </g>
    </g>
    <g id="xtick_4">
     <g id="line2d_4">
      <g>
       <use xlink:href="#m3e7e4d22a6" x="161.891272" y="64.08" style="stroke: #000000; stroke-width: 0.5"/>
      </g>
     </g>
     <g id="text_4">
      <!-- 60 -->
      <g transform="translate(159.110803 74.658906) scale(0.05 -0.05)">
       <defs>
        <path id="ArialMT-36" d="M 3184 3459 
L 2625 3416 
Q 2550 3747 2413 3897 
Q 2184 4138 1850 4138 
Q 1581 4138 1378 3988 
Q 1113 3794 959 3422 
Q 806 3050 800 2363 
Q 1003 2672 1297 2822 
Q 1591 2972 1913 2972 
Q 2475 2972 2870 2558 
Q 3266 2144 3266 1488 
Q 3266 1056 3080 686 
Q 2894 316 2569 119 
Q 2244 -78 1831 -78 
Q 1128 -78 684 439 
Q 241 956 241 2144 
Q 241 3472 731 4075 
Q 1159 4600 1884 4600 
Q 2425 4600 2770 4297 
Q 3116 3994 3184 3459 
z
M 888 1484 
Q 888 1194 1011 928 
Q 1134 663 1356 523 
Q 1578 384 1822 384 
Q 2178 384 2434 671 
Q 2691 959 2691 1453 
Q 2691 1928 2437 2201 
Q 2184 2475 1800 2475 
Q 1419 2475 1153 2201 
Q 888 1928 888 1484 
z
" transform="scale(0.015625)"/>
       </defs>
       <use xlink:href="#ArialMT-36"/>
       <use xlink:href="#ArialMT-30" x="55.615234"/>
      </g>
     </g>
    </g>
    <g id="xtick_5">
     <g id="line2d_5">
      <g>
       <use xlink:href="#m3e7e4d22a6" x="202.395938" y="64.08" style="stroke: #000000; stroke-width: 0.5"/>
      </g>
     </g>
     <g id="text_5">
      <!-- 80 -->
      <g transform="translate(199.61547 74.658906) scale(0.05 -0.05)">
       <defs>
        <path id="ArialMT-38" d="M 1131 2484 
Q 781 2613 612 2850 
Q 444 3088 444 3419 
Q 444 3919 803 4259 
Q 1163 4600 1759 4600 
Q 2359 4600 2725 4251 
Q 3091 3903 3091 3403 
Q 3091 3084 2923 2848 
Q 2756 2613 2416 2484 
Q 2838 2347 3058 2040 
Q 3278 1734 3278 1309 
Q 3278 722 2862 322 
Q 2447 -78 1769 -78 
Q 1091 -78 675 323 
Q 259 725 259 1325 
Q 259 1772 486 2073 
Q 713 2375 1131 2484 
z
M 1019 3438 
Q 1019 3113 1228 2906 
Q 1438 2700 1772 2700 
Q 2097 2700 2305 2904 
Q 2513 3109 2513 3406 
Q 2513 3716 2298 3927 
Q 2084 4138 1766 4138 
Q 1444 4138 1231 3931 
Q 1019 3725 1019 3438 
z
M 838 1322 
Q 838 1081 952 856 
Q 1066 631 1291 507 
Q 1516 384 1775 384 
Q 2178 384 2440 643 
Q 2703 903 2703 1303 
Q 2703 1709 2433 1975 
Q 2163 2241 1756 2241 
Q 1359 2241 1098 1978 
Q 838 1716 838 1322 
z
" transform="scale(0.015625)"/>
       </defs>
       <use xlink:href="#ArialMT-38"/>
       <use xlink:href="#ArialMT-30" x="55.615234"/>
      </g>
     </g>
    </g>
    <g id="text_6">
     <!-- Time (h) -->
     <g transform="translate(115.333594 85.112422) scale(0.075 -0.075)">
      <defs>
       <path id="ArialMT-54" d="M 1659 0 
L 1659 4041 
L 150 4041 
L 150 4581 
L 3781 4581 
L 3781 4041 
L 2266 4041 
L 2266 0 
L 1659 0 
z
" transform="scale(0.015625)"/>
       <path id="ArialMT-69" d="M 425 3934 
L 425 4581 
L 988 4581 
L 988 3934 
L 425 3934 
z
M 425 0 
L 425 3319 
L 988 3319 
L 988 0 
L 425 0 
z
" transform="scale(0.015625)"/>
       <path id="ArialMT-6d" d="M 422 0 
L 422 3319 
L 925 3319 
L 925 2853 
Q 1081 3097 1340 3245 
Q 1600 3394 1931 3394 
Q 2300 3394 2536 3241 
Q 2772 3088 2869 2813 
Q 3263 3394 3894 3394 
Q 4388 3394 4653 3120 
Q 4919 2847 4919 2278 
L 4919 0 
L 4359 0 
L 4359 2091 
Q 4359 2428 4304 2576 
Q 4250 2725 4106 2815 
Q 3963 2906 3769 2906 
Q 3419 2906 3187 2673 
Q 2956 2441 2956 1928 
L 2956 0 
L 2394 0 
L 2394 2156 
Q 2394 2531 2256 2718 
Q 2119 2906 1806 2906 
Q 1569 2906 1367 2781 
Q 1166 2656 1075 2415 
Q 984 2175 984 1722 
L 984 0 
L 422 0 
z
" transform="scale(0.015625)"/>
       <path id="ArialMT-65" d="M 2694 1069 
L 3275 997 
Q 3138 488 2766 206 
Q 2394 -75 1816 -75 
Q 1088 -75 661 373 
Q 234 822 234 1631 
Q 234 2469 665 2931 
Q 1097 3394 1784 3394 
Q 2450 3394 2872 2941 
Q 3294 2488 3294 1666 
Q 3294 1616 3291 1516 
L 816 1516 
Q 847 969 1125 678 
Q 1403 388 1819 388 
Q 2128 388 2347 550 
Q 2566 713 2694 1069 
z
M 847 1978 
L 2700 1978 
Q 2663 2397 2488 2606 
Q 2219 2931 1791 2931 
Q 1403 2931 1139 2672 
Q 875 2413 847 1978 
z
" transform="scale(0.015625)"/>
       <path id="ArialMT-20" transform="scale(0.015625)"/>
       <path id="ArialMT-28" d="M 1497 -1347 
Q 1031 -759 709 28 
Q 388 816 388 1659 
Q 388 2403 628 3084 
Q 909 3875 1497 4659 
L 1900 4659 
Q 1522 4009 1400 3731 
Q 1209 3300 1100 2831 
Q 966 2247 966 1656 
Q 966 153 1900 -1347 
L 1497 -1347 
z
" transform="scale(0.015625)"/>
       <path id="ArialMT-68" d="M 422 0 
L 422 4581 
L 984 4581 
L 984 2938 
Q 1378 3394 1978 3394 
Q 2347 3394 2619 3248 
Q 2891 3103 3008 2847 
Q 3125 2591 3125 2103 
L 3125 0 
L 2563 0 
L 2563 2103 
Q 2563 2525 2380 2717 
Q 2197 2909 1863 2909 
Q 1613 2909 1392 2779 
Q 1172 2650 1078 2428 
Q 984 2206 984 1816 
L 984 0 
L 422 0 
z
" transform="scale(0.015625)"/>
       <path id="ArialMT-29" d="M 791 -1347 
L 388 -1347 
Q 1322 153 1322 1656 
Q 1322 2244 1188 2822 
Q 1081 3291 891 3722 
Q 769 4003 388 4659 
L 791 4659 
Q 1378 3875 1659 3084 
Q 1900 2403 1900 1659 
Q 1900 816 1576 28 
Q 1253 -759 791 -1347 
z
" transform="scale(0.015625)"/>
      </defs>
      <use xlink:href="#ArialMT-54"/>
      <use xlink:href="#ArialMT-69" x="57.333984"/>
      <use xlink:href="#ArialMT-6d" x="79.550781"/>
      <use xlink:href="#ArialMT-65" x="162.851562"/>
      <use xlink:href="#ArialMT-20" x="218.466797"/>
      <use xlink:href="#ArialMT-28" x="246.25"/>
      <use xlink:href="#ArialMT-68" x="279.550781"/>
      <use xlink:href="#ArialMT-29" x="335.166016"/>
     </g>
    </g>
   </g>
   <g id="matplotlib.axis_2">
    <g id="ytick_1">
     <g id="line2d_6">
      <defs>
       <path id="m13d4163052" d="M 0 0 
L -3.5 0 
" style="stroke: #000000; stroke-width: 0.5"/>
      </defs>
      <g>
       <use xlink:href="#m13d4163052" x="31.5" y="49.994098" style="stroke: #000000; stroke-width: 0.5"/>
      </g>
     </g>
     <g id="text_7">
      <!-- 1 -->
      <g transform="translate(21.719531 51.783552) scale(0.05 -0.05)">
       <defs>
        <path id="ArialMT-31" d="M 2384 0 
L 1822 0 
L 1822 3584 
Q 1619 3391 1289 3197 
Q 959 3003 697 2906 
L 697 3450 
Q 1169 3672 1522 3987 
Q 1875 4303 2022 4600 
L 2384 4600 
L 2384 0 
z
" transform="scale(0.015625)"/>
       </defs>
       <use xlink:href="#ArialMT-31"/>
      </g>
     </g>
    </g>
    <g id="ytick_2">
     <g id="line2d_7">
      <g>
       <use xlink:href="#m13d4163052" x="31.5" y="31.871205" style="stroke: #000000; stroke-width: 0.5"/>
      </g>
     </g>
     <g id="text_8">
      <!-- 2 -->
      <g transform="translate(21.719531 33.660658) scale(0.05 -0.05)">
       <use xlink:href="#ArialMT-32"/>
      </g>
     </g>
    </g>
    <g id="ytick_3">
     <g id="line2d_8">
      <g>
       <use xlink:href="#m13d4163052" x="31.5" y="13.748311" style="stroke: #000000; stroke-width: 0.5"/>
      </g>
     </g>
     <g id="text_9">
      <!-- 3 -->
      <g transform="translate(21.719531 15.537764) scale(0.05 -0.05)">
       <defs>
        <path id="ArialMT-33" d="M 269 1209 
L 831 1284 
Q 928 806 1161 595 
Q 1394 384 1728 384 
Q 2125 384 2398 659 
Q 2672 934 2672 1341 
Q 2672 1728 2419 1979 
Q 2166 2231 1775 2231 
Q 1616 2231 1378 2169 
L 1441 2663 
Q 1497 2656 1531 2656 
Q 1891 2656 2178 2843 
Q 2466 3031 2466 3422 
Q 2466 3731 2256 3934 
Q 2047 4138 1716 4138 
Q 1388 4138 1169 3931 
Q 950 3725 888 3313 
L 325 3413 
Q 428 3978 793 4289 
Q 1159 4600 1703 4600 
Q 2078 4600 2393 4439 
Q 2709 4278 2876 4000 
Q 3044 3722 3044 3409 
Q 3044 3113 2884 2869 
Q 2725 2625 2413 2481 
Q 2819 2388 3044 2092 
Q 3269 1797 3269 1353 
Q 3269 753 2831 336 
Q 2394 -81 1725 -81 
Q 1122 -81 723 278 
Q 325 638 269 1209 
z
" transform="scale(0.015625)"/>
       </defs>
       <use xlink:href="#ArialMT-33"/>
      </g>
     </g>
    </g>
    <g id="text_10">
     <!-- p53 level (FC) -->
     <g transform="translate(16.141016 59.907656) rotate(-90) scale(0.075 -0.075)">
      <defs>
       <path id="ArialMT-70" d="M 422 -1272 
L 422 3319 
L 934 3319 
L 934 2888 
Q 1116 3141 1344 3267 
Q 1572 3394 1897 3394 
Q 2322 3394 2647 3175 
Q 2972 2956 3137 2557 
Q 3303 2159 3303 1684 
Q 3303 1175 3120 767 
Q 2938 359 2589 142 
Q 2241 -75 1856 -75 
Q 1575 -75 1351 44 
Q 1128 163 984 344 
L 984 -1272 
L 422 -1272 
z
M 931 1641 
Q 931 1000 1190 694 
Q 1450 388 1819 388 
Q 2194 388 2461 705 
Q 2728 1022 2728 1688 
Q 2728 2322 2467 2637 
Q 2206 2953 1844 2953 
Q 1484 2953 1207 2617 
Q 931 2281 931 1641 
z
" transform="scale(0.015625)"/>
       <path id="ArialMT-35" d="M 266 1200 
L 856 1250 
Q 922 819 1161 601 
Q 1400 384 1738 384 
Q 2144 384 2425 690 
Q 2706 997 2706 1503 
Q 2706 1984 2436 2262 
Q 2166 2541 1728 2541 
Q 1456 2541 1237 2417 
Q 1019 2294 894 2097 
L 366 2166 
L 809 4519 
L 3088 4519 
L 3088 3981 
L 1259 3981 
L 1013 2750 
Q 1425 3038 1878 3038 
Q 2478 3038 2890 2622 
Q 3303 2206 3303 1553 
Q 3303 931 2941 478 
Q 2500 -78 1738 -78 
Q 1113 -78 717 272 
Q 322 622 266 1200 
z
" transform="scale(0.015625)"/>
       <path id="ArialMT-6c" d="M 409 0 
L 409 4581 
L 972 4581 
L 972 0 
L 409 0 
z
" transform="scale(0.015625)"/>
       <path id="ArialMT-76" d="M 1344 0 
L 81 3319 
L 675 3319 
L 1388 1331 
Q 1503 1009 1600 663 
Q 1675 925 1809 1294 
L 2547 3319 
L 3125 3319 
L 1869 0 
L 1344 0 
z
" transform="scale(0.015625)"/>
       <path id="ArialMT-46" d="M 525 0 
L 525 4581 
L 3616 4581 
L 3616 4041 
L 1131 4041 
L 1131 2622 
L 3281 2622 
L 3281 2081 
L 1131 2081 
L 1131 0 
L 525 0 
z
" transform="scale(0.015625)"/>
       <path id="ArialMT-43" d="M 3763 1606 
L 4369 1453 
Q 4178 706 3683 314 
Q 3188 -78 2472 -78 
Q 1731 -78 1267 223 
Q 803 525 561 1097 
Q 319 1669 319 2325 
Q 319 3041 592 3573 
Q 866 4106 1370 4382 
Q 1875 4659 2481 4659 
Q 3169 4659 3637 4309 
Q 4106 3959 4291 3325 
L 3694 3184 
Q 3534 3684 3231 3912 
Q 2928 4141 2469 4141 
Q 1941 4141 1586 3887 
Q 1231 3634 1087 3207 
Q 944 2781 944 2328 
Q 944 1744 1114 1308 
Q 1284 872 1643 656 
Q 2003 441 2422 441 
Q 2931 441 3284 734 
Q 3638 1028 3763 1606 
z
" transform="scale(0.015625)"/>
      </defs>
      <use xlink:href="#ArialMT-70"/>
      <use xlink:href="#ArialMT-35" x="55.615234"/>
      <use xlink:href="#ArialMT-33" x="111.230469"/>
      <use xlink:href="#ArialMT-20" x="166.845703"/>
      <use xlink:href="#ArialMT-6c" x="194.628906"/>
      <use xlink:href="#ArialMT-65" x="216.845703"/>
      <use xlink:href="#ArialMT-76" x="272.460938"/>
      <use xlink:href="#ArialMT-65" x="322.460938"/>
      <use xlink:href="#ArialMT-6c" x="378.076172"/>
      <use xlink:href="#ArialMT-20" x="400.292969"/>
      <use xlink:href="#ArialMT-28" x="428.076172"/>
      <use xlink:href="#ArialMT-46" x="461.376953"/>
      <use xlink:href="#ArialMT-43" x="522.460938"/>
      <use xlink:href="#ArialMT-29" x="594.677734"/>
     </g>
    </g>
   </g>
   <g id="line2d_9">
    <path d="M 40.714812 49.994098 
L 41.052351 47.7406 
L 42.064967 27.531318 
L 42.740045 21.837741 
L 43.077584 23.517992 
L 43.415123 28.6451 
L 43.752662 27.385722 
L 44.0902 24.369464 
L 44.765278 39.773777 
L 45.102817 39.515594 
L 46.115434 50.481875 
L 46.452973 45.695769 
L 46.790512 51.358694 
L 47.12805 53.302433 
L 47.465589 51.408503 
L 47.803128 52.131474 
L 48.140667 51.41764 
L 48.478206 50.193041 
L 48.815745 47.646876 
L 49.153284 47.400187 
L 49.828362 40.978924 
L 50.503439 33.070163 
L 51.178517 21.308703 
L 51.516056 22.35617 
L 51.853595 24.71194 
L 52.191134 24.949197 
L 52.528673 33.361355 
L 53.541289 44.03497 
L 53.878828 49.229276 
L 54.216367 50.274091 
L 54.553906 53.389967 
L 54.891445 51.925458 
L 55.228984 52.485444 
L 55.566523 51.213982 
L 55.904062 51.18893 
L 56.2416 50.200998 
L 56.579139 50.709701 
L 56.916678 50.463602 
L 57.591756 48.761836 
L 58.941912 37.050774 
L 59.27945 31.719714 
L 59.616989 30.599449 
L 59.954528 21.148665 
L 60.292067 20.483756 
L 60.967145 27.022321 
L 61.979761 49.324179 
L 62.3173 51.265265 
L 62.992378 53.575941 
L 63.329917 53.965573 
L 63.667456 52.934021 
L 64.004995 53.041597 
L 64.342534 52.817309 
L 64.680073 52.181283 
L 65.017611 52.29328 
L 65.35515 51.861207 
L 65.692689 50.488064 
L 66.030228 51.028303 
L 66.705306 47.880596 
L 67.042845 47.317663 
L 67.380384 45.418134 
L 67.717923 42.817739 
L 68.055461 41.846901 
L 68.393 39.684768 
L 69.068078 32.77897 
L 69.405617 27.936276 
L 69.743156 18.351685 
L 70.080695 13.080455 
L 71.093311 36.24469 
L 71.43085 40.118904 
L 71.768389 46.846097 
L 72.105928 48.397551 
L 72.443467 47.290548 
L 72.781006 46.950431 
L 73.118545 45.879385 
L 73.793623 42.474085 
L 74.4687 36.904294 
L 74.806239 34.453327 
L 75.143778 33.79667 
L 75.481317 28.261952 
L 76.156395 22.03521 
L 76.493934 20.895198 
L 76.831473 15.715923 
L 77.169011 14.384042 
L 77.50655 17.691787 
L 77.844089 17.084645 
L 78.181628 18.688266 
L 78.519167 26.173796 
L 78.856706 26.025547 
L 79.531784 32.512535 
L 79.869323 38.609597 
L 80.206861 39.373535 
L 80.5444 40.98924 
L 80.881939 40.080884 
L 81.219478 42.613492 
L 81.557017 44.089495 
L 81.894556 40.787645 
L 82.232095 47.440565 
L 82.569634 49.065702 
L 82.907172 50.010898 
L 83.244711 48.928358 
L 83.58225 48.222482 
L 83.919789 48.178567 
L 84.257328 46.937463 
L 84.932406 45.809534 
L 85.269945 45.714337 
L 85.607484 43.775314 
L 85.945022 43.082995 
L 86.282561 43.566056 
L 86.6201 41.134541 
L 86.957639 39.672095 
L 87.295178 38.984197 
L 87.632717 38.825338 
L 87.970256 37.205802 
L 88.307795 34.954071 
L 88.645334 36.941135 
L 88.982872 35.132382 
L 89.320411 38.091758 
L 89.65795 38.647027 
L 89.995489 39.440438 
L 90.333028 39.942951 
L 90.670567 41.304894 
L 91.008106 37.133004 
L 91.345645 39.426291 
L 91.683184 35.442732 
L 92.020722 27.656873 
L 92.358261 29.104288 
L 93.033339 22.550102 
L 93.370878 23.419258 
L 93.708417 17.939654 
L 94.383495 20.389442 
L 94.721034 20.821515 
L 95.058572 20.080272 
L 95.396111 24.680404 
L 96.071189 29.322977 
L 96.408728 33.808459 
L 97.083806 38.900494 
L 97.421345 41.020776 
L 97.758884 40.455485 
L 98.096422 44.403971 
L 98.433961 45.382767 
L 99.446578 46.462359 
L 99.784117 46.523074 
L 100.121656 45.234813 
L 100.459195 41.305779 
L 100.796733 48.470644 
L 101.134272 51.392883 
L 101.471811 52.485149 
L 101.80935 51.38463 
L 102.146889 52.03834 
L 102.484428 51.821124 
L 102.821967 51.813167 
L 103.159506 51.622772 
L 103.497045 51.21074 
L 103.834583 50.40554 
L 104.172122 52.035392 
L 104.509661 49.870017 
L 104.8472 49.333905 
L 105.184739 49.463881 
L 105.522278 49.24755 
L 105.859817 49.222792 
L 107.209972 45.624739 
L 107.547511 45.95012 
L 107.88505 44.750867 
L 108.222589 45.577877 
L 108.560128 43.881416 
L 108.897667 43.707821 
L 109.235206 41.151635 
L 109.572745 36.616049 
L 109.910283 38.619028 
L 110.247822 34.496357 
L 111.260439 16.381716 
L 111.597978 11.266102 
L 111.935517 11.729417 
L 112.273056 11.16 
L 112.610595 15.157706 
L 113.285672 31.342755 
L 113.623211 38.647617 
L 114.298289 44.716384 
L 114.635828 46.180304 
L 114.973367 45.500658 
L 115.310906 47.271391 
L 115.648445 44.836928 
L 115.985983 47.096616 
L 116.323522 45.886164 
L 116.661061 46.317942 
L 116.9986 45.319989 
L 117.673678 42.545409 
L 118.011217 42.068538 
L 118.686295 35.80466 
L 119.023833 29.300283 
L 119.698911 38.588376 
L 120.03645 42.042896 
L 120.373989 41.792966 
L 121.049067 47.13051 
L 121.386606 49.551415 
L 121.724144 50.184788 
L 122.061683 51.740074 
L 122.399222 51.316548 
L 122.736761 51.958468 
L 123.0743 52.219598 
L 123.749378 51.608625 
L 124.086917 52.519043 
L 124.424456 50.591514 
L 124.761994 50.720606 
L 125.774611 47.335347 
L 126.449689 41.904668 
L 127.124767 38.484337 
L 127.462306 35.513467 
L 127.799844 34.828222 
L 128.137383 31.153834 
L 128.474922 33.178918 
L 128.812461 31.221327 
L 129.15 31.416143 
L 129.487539 29.405796 
L 129.825078 31.083689 
L 130.837694 41.818313 
L 131.175233 42.887295 
L 131.850311 48.404919 
L 132.18785 49.35542 
L 132.525389 50.777194 
L 132.862928 50.86237 
L 133.200467 49.814314 
L 133.538006 49.632171 
L 133.875544 49.707327 
L 134.213083 49.114921 
L 134.550622 47.221876 
L 134.888161 48.525168 
L 135.2257 47.5057 
L 136.575856 39.524436 
L 137.250933 33.291504 
L 137.588472 25.288725 
L 138.601089 45.228329 
L 138.938628 50.161799 
L 139.276167 51.189225 
L 139.613705 53.656992 
L 140.626322 54.99683 
L 140.963861 53.396451 
L 141.3014 53.424451 
L 141.638939 53.677918 
L 141.976478 53.68057 
L 142.314017 52.050129 
L 142.651555 52.286796 
L 142.989094 51.81464 
L 143.326633 50.391688 
L 143.664172 51.356336 
L 144.33925 47.409619 
L 144.676789 46.371288 
L 145.351867 42.472022 
L 145.689405 39.603129 
L 146.026944 39.690958 
L 146.364483 36.362582 
L 146.702022 27.274315 
L 147.039561 28.19888 
L 147.3771 24.668909 
L 148.052178 13.5532 
L 148.389717 14.724454 
L 148.727255 16.575942 
L 150.41495 47.405787 
L 150.752489 50.240492 
L 151.090028 49.910985 
L 151.427567 50.578841 
L 151.765105 51.57532 
L 152.102644 51.89687 
L 152.777722 52.816424 
L 153.4528 52.178041 
L 154.127878 51.001188 
L 154.465417 50.626882 
L 154.802955 50.62305 
L 155.140494 49.067765 
L 155.478033 48.976399 
L 155.815572 48.117853 
L 156.153111 42.651512 
L 156.49065 45.613539 
L 156.828189 47.209498 
L 157.165728 47.967836 
L 157.503267 47.520732 
L 157.840805 47.521616 
L 158.178344 45.725242 
L 158.515883 46.89738 
L 158.853422 46.82635 
L 159.190961 48.60504 
L 159.5285 47.333873 
L 159.866039 47.994361 
L 160.203578 47.732347 
L 160.541116 49.755368 
L 160.878655 48.803098 
L 161.216194 49.276433 
L 161.553733 48.424076 
L 161.891272 49.312095 
L 162.228811 48.456202 
L 162.56635 49.294117 
L 162.903889 47.885312 
L 163.241428 48.34391 
L 163.578966 48.451191 
L 164.254044 46.964283 
L 164.929122 46.854054 
L 165.266661 44.674532 
L 165.6042 44.001371 
L 165.941739 42.505031 
L 167.291894 32.260247 
L 167.629433 33.139129 
L 167.966972 36.021875 
L 168.64205 43.468796 
L 169.654666 48.648365 
L 169.992205 49.435292 
L 170.667283 50.566168 
L 171.004822 51.500754 
L 171.6799 49.765094 
L 172.017439 50.355142 
L 172.354978 50.667849 
L 172.692516 50.659007 
L 173.030055 48.834045 
L 173.367594 48.546389 
L 173.705133 49.052734 
L 174.042672 46.440549 
L 174.380211 45.038818 
L 174.71775 41.318452 
L 175.055289 43.568119 
L 175.392828 41.52712 
L 175.730366 45.80305 
L 176.405444 42.662122 
L 176.742983 42.273374 
L 177.080522 40.240333 
L 177.418061 36.266795 
L 177.7556 34.457453 
L 178.093139 38.669721 
L 178.430677 39.804723 
L 178.768216 41.829807 
L 179.443294 48.733247 
L 179.780833 49.973467 
L 180.118372 51.772494 
L 180.455911 51.566478 
L 180.79345 52.28827 
L 181.130989 51.997077 
L 181.468527 52.135305 
L 181.806066 51.7498 
L 182.143605 50.936347 
L 182.481144 51.280886 
L 182.818683 50.617745 
L 183.493761 48.940737 
L 183.8313 48.396961 
L 184.506377 42.551304 
L 184.843916 40.737541 
L 185.181455 35.864784 
L 185.856533 29.13995 
L 186.194072 28.597943 
L 187.206689 21.031362 
L 187.881766 29.474468 
L 188.219305 38.310447 
L 188.894383 46.790688 
L 189.231922 48.424666 
L 189.569461 48.225429 
L 189.907 49.501606 
L 190.244539 50.043023 
L 190.582077 50.85736 
L 190.919616 50.958747 
L 191.257155 50.845276 
L 191.594694 50.129674 
L 191.932233 51.070744 
L 192.269772 50.118474 
L 192.607311 51.257013 
L 192.94485 49.983193 
L 193.282389 49.163846 
L 193.619927 47.554036 
L 193.957466 46.9354 
L 194.295005 45.863764 
L 194.632544 46.602945 
L 194.970083 44.140778 
L 195.307622 43.779145 
L 196.995316 30.54345 
L 197.332855 32.310056 
L 197.670394 29.424953 
L 198.683011 40.494095 
L 199.358088 48.075707 
L 199.695627 49.037408 
L 200.370705 51.367831 
L 200.708244 52.372857 
L 201.045783 52.393783 
L 201.383322 52.084317 
L 201.720861 52.182462 
L 202.0584 50.7377 
L 202.395938 50.895675 
L 202.733477 50.804014 
L 203.071016 50.58562 
L 203.408555 48.742973 
L 203.746094 48.449718 
L 204.421172 45.021429 
L 204.758711 41.032565 
L 205.09625 39.440143 
L 206.446405 28.187975 
L 206.783944 22.97628 
L 207.121483 24.919724 
L 207.459022 24.317297 
L 207.796561 26.168196 
L 208.471638 36.565945 
L 208.809177 39.266548 
L 209.484255 48.507779 
L 209.821794 49.749178 
L 210.159333 49.562025 
L 210.496872 50.486296 
L 210.834411 50.344237 
L 211.17195 50.875338 
L 211.509488 51.014451 
L 211.847027 49.737979 
L 212.184566 49.671959 
L 212.522105 49.417019 
L 213.197183 46.610903 
L 213.534722 45.844607 
L 214.884877 36.944377 
L 215.222416 31.951371 
L 215.559955 29.300283 
L 215.897494 25.731702 
L 216.235033 24.85842 
L 216.572572 18.795253 
L 216.910111 19.366143 
L 217.247649 14.616878 
L 217.585188 13.385205 
L 217.922727 13.820815 
L 217.922727 13.820815 
" clip-path="url(#p1d65f507e1)" style="fill: none; stroke: #000000; stroke-width: 0.75; stroke-linecap: square"/>
   </g>
   <g id="line2d_10">
    <path d="M 40.377273 61.56 
L 72.105928 61.56 
L 72.105928 56.737949 
L 81.391623 56.737949 
L 81.391623 61.56 
L 90.677318 61.56 
L 90.677318 56.737949 
L 99.963012 56.737949 
L 99.963012 61.56 
L 109.248707 61.56 
L 109.248707 56.737949 
L 118.534402 56.737949 
L 118.534402 61.56 
L 127.820097 61.56 
L 127.820097 56.737949 
L 137.105792 56.737949 
L 137.105792 61.56 
L 146.391486 61.56 
L 146.391486 56.737949 
L 155.677181 56.737949 
L 155.677181 61.56 
L 164.962876 61.56 
L 164.962876 56.737949 
L 174.248571 56.737949 
L 174.248571 61.56 
L 217.922727 61.56 
" clip-path="url(#p1d65f507e1)" style="fill: none; stroke: #000000; stroke-width: 0.75; stroke-linecap: square"/>
   </g>
   <g id="patch_3">
    <path d="M 31.5 64.08 
L 31.5 8.64 
" style="fill: none; stroke: #000000; stroke-width: 0.5; stroke-linejoin: miter; stroke-linecap: square"/>
   </g>
   <g id="patch_4">
    <path d="M 31.5 64.08 
L 226.8 64.08 
" style="fill: none; stroke: #000000; stroke-width: 0.5; stroke-linejoin: miter; stroke-linecap: square"/>
   </g>
  </g>
 </g>
 <defs>
  <clipPath id="p1d65f507e1">
   <rect x="31.5" y="8.64" width="195.3" height="55.44"/>
  </clipPath>
 </defs>
</svg>
