<?xml version="1.0" encoding="utf-8" standalone="no"?>
<!DOCTYPE svg PUBLIC "-//W3C//DTD SVG 1.1//EN"
  "http://www.w3.org/Graphics/SVG/1.1/DTD/svg11.dtd">
<svg xmlns:xlink="http://www.w3.org/1999/xlink" width="720pt" height="158.4pt" viewBox="0 0 720 158.4" xmlns="http://www.w3.org/2000/svg" version="1.1">
 <metadata>
  <rdf:RDF xmlns:dc="http://purl.org/dc/elements/1.1/" xmlns:cc="http://creativecommons.org/ns#" xmlns:rdf="http://www.w3.org/1999/02/22-rdf-syntax-ns#">
   <cc:Work>
    <dc:type rdf:resource="http://purl.org/dc/dcmitype/StillImage"/>
    <dc:date>2024-07-09T19:54:00.272497</dc:date>
    <dc:format>image/svg+xml</dc:format>
    <dc:creator>
     <cc:Agent>
      <dc:title>Matplotlib v3.8.3, https://matplotlib.org/</dc:title>
     </cc:Agent>
    </dc:creator>
   </cc:Work>
  </rdf:RDF>
 </metadata>
 <defs>
  <style type="text/css">*{stroke-linejoin: round; stroke-linecap: butt}</style>
 </defs>
 <g id="figure_1">
  <g id="patch_1">
   <path d="M 0 158.4 
L 720 158.4 
L 720 0 
L 0 0 
z
" style="fill: #ffffff"/>
  </g>
  <g id="axes_1">
   <g id="patch_2">
    <path d="M 90 140.976 
L 211.304348 140.976 
L 211.304348 19.008 
L 90 19.008 
z
" style="fill: #f2f2f2"/>
   </g>
   <g id="matplotlib.axis_1">
    <g id="xtick_1">
     <g id="line2d_1">
      <defs>
       <path id="m8dc5ab2c7e" d="M 0 0 
L 0 3.5 
" style="stroke: #000000; stroke-width: 0.8"/>
      </defs>
      <g>
       <use xlink:href="#m8dc5ab2c7e" x="90" y="140.976" style="stroke: #000000; stroke-width: 0.8"/>
      </g>
     </g>
     <g id="text_1">
      <!-- 0 -->
      <g transform="translate(87.219531 155.133813) scale(0.1 -0.1)">
       <defs>
        <path id="ArialMT-30" d="M 266 2259 
Q 266 3072 433 3567 
Q 600 4063 929 4331 
Q 1259 4600 1759 4600 
Q 2128 4600 2406 4451 
Q 2684 4303 2865 4023 
Q 3047 3744 3150 3342 
Q 3253 2941 3253 2259 
Q 3253 1453 3087 958 
Q 2922 463 2592 192 
Q 2263 -78 1759 -78 
Q 1097 -78 719 397 
Q 266 969 266 2259 
z
M 844 2259 
Q 844 1131 1108 757 
Q 1372 384 1759 384 
Q 2147 384 2411 759 
Q 2675 1134 2675 2259 
Q 2675 3391 2411 3762 
Q 2147 4134 1753 4134 
Q 1366 4134 1134 3806 
Q 844 3388 844 2259 
z
" transform="scale(0.015625)"/>
       </defs>
       <use xlink:href="#ArialMT-30"/>
      </g>
     </g>
    </g>
    <g id="xtick_2">
     <g id="line2d_2">
      <g>
       <use xlink:href="#m8dc5ab2c7e" x="145.13834" y="140.976" style="stroke: #000000; stroke-width: 0.8"/>
      </g>
     </g>
     <g id="text_2">
      <!-- 50 -->
      <g transform="translate(139.577402 155.133813) scale(0.1 -0.1)">
       <defs>
        <path id="ArialMT-35" d="M 266 1200 
L 856 1250 
Q 922 819 1161 601 
Q 1400 384 1738 384 
Q 2144 384 2425 690 
Q 2706 997 2706 1503 
Q 2706 1984 2436 2262 
Q 2166 2541 1728 2541 
Q 1456 2541 1237 2417 
Q 1019 2294 894 2097 
L 366 2166 
L 809 4519 
L 3088 4519 
L 3088 3981 
L 1259 3981 
L 1013 2750 
Q 1425 3038 1878 3038 
Q 2478 3038 2890 2622 
Q 3303 2206 3303 1553 
Q 3303 931 2941 478 
Q 2500 -78 1738 -78 
Q 1113 -78 717 272 
Q 322 622 266 1200 
z
" transform="scale(0.015625)"/>
       </defs>
       <use xlink:href="#ArialMT-35"/>
       <use xlink:href="#ArialMT-30" x="55.615234"/>
      </g>
     </g>
    </g>
    <g id="xtick_3">
     <g id="line2d_3">
      <g>
       <use xlink:href="#m8dc5ab2c7e" x="200.27668" y="140.976" style="stroke: #000000; stroke-width: 0.8"/>
      </g>
     </g>
     <g id="text_3">
      <!-- 100 -->
      <g transform="translate(191.935274 155.133813) scale(0.1 -0.1)">
       <defs>
        <path id="ArialMT-31" d="M 2384 0 
L 1822 0 
L 1822 3584 
Q 1619 3391 1289 3197 
Q 959 3003 697 2906 
L 697 3450 
Q 1169 3672 1522 3987 
Q 1875 4303 2022 4600 
L 2384 4600 
L 2384 0 
z
" transform="scale(0.015625)"/>
       </defs>
       <use xlink:href="#ArialMT-31"/>
       <use xlink:href="#ArialMT-30" x="55.615234"/>
       <use xlink:href="#ArialMT-30" x="111.230469"/>
      </g>
     </g>
    </g>
   </g>
   <g id="matplotlib.axis_2">
    <g id="ytick_1">
     <g id="line2d_4">
      <defs>
       <path id="ma786d6dce0" d="M 0 0 
L -3.5 0 
" style="stroke: #000000; stroke-width: 0.8"/>
      </defs>
      <g>
       <use xlink:href="#ma786d6dce0" x="90" y="135.432" style="stroke: #000000; stroke-width: 0.8"/>
      </g>
     </g>
     <g id="text_4">
      <!-- 0 -->
      <g transform="translate(77.439063 139.010906) scale(0.1 -0.1)">
       <use xlink:href="#ArialMT-30"/>
      </g>
     </g>
    </g>
    <g id="ytick_2">
     <g id="line2d_5">
      <g>
       <use xlink:href="#ma786d6dce0" x="90" y="100.914611" style="stroke: #000000; stroke-width: 0.8"/>
      </g>
     </g>
     <g id="text_5">
      <!-- 1 -->
      <g transform="translate(77.439063 104.493518) scale(0.1 -0.1)">
       <use xlink:href="#ArialMT-31"/>
      </g>
     </g>
    </g>
    <g id="ytick_3">
     <g id="line2d_6">
      <g>
       <use xlink:href="#ma786d6dce0" x="90" y="66.397223" style="stroke: #000000; stroke-width: 0.8"/>
      </g>
     </g>
     <g id="text_6">
      <!-- 2 -->
      <g transform="translate(77.439063 69.976129) scale(0.1 -0.1)">
       <defs>
        <path id="ArialMT-32" d="M 3222 541 
L 3222 0 
L 194 0 
Q 188 203 259 391 
Q 375 700 629 1000 
Q 884 1300 1366 1694 
Q 2113 2306 2375 2664 
Q 2638 3022 2638 3341 
Q 2638 3675 2398 3904 
Q 2159 4134 1775 4134 
Q 1369 4134 1125 3890 
Q 881 3647 878 3216 
L 300 3275 
Q 359 3922 746 4261 
Q 1134 4600 1788 4600 
Q 2447 4600 2831 4234 
Q 3216 3869 3216 3328 
Q 3216 3053 3103 2787 
Q 2991 2522 2730 2228 
Q 2469 1934 1863 1422 
Q 1356 997 1212 845 
Q 1069 694 975 541 
L 3222 541 
z
" transform="scale(0.015625)"/>
       </defs>
       <use xlink:href="#ArialMT-32"/>
      </g>
     </g>
    </g>
    <g id="ytick_4">
     <g id="line2d_7">
      <g>
       <use xlink:href="#ma786d6dce0" x="90" y="31.879834" style="stroke: #000000; stroke-width: 0.8"/>
      </g>
     </g>
     <g id="text_7">
      <!-- 3 -->
      <g transform="translate(77.439063 35.458741) scale(0.1 -0.1)">
       <defs>
        <path id="ArialMT-33" d="M 269 1209 
L 831 1284 
Q 928 806 1161 595 
Q 1394 384 1728 384 
Q 2125 384 2398 659 
Q 2672 934 2672 1341 
Q 2672 1728 2419 1979 
Q 2166 2231 1775 2231 
Q 1616 2231 1378 2169 
L 1441 2663 
Q 1497 2656 1531 2656 
Q 1891 2656 2178 2843 
Q 2466 3031 2466 3422 
Q 2466 3731 2256 3934 
Q 2047 4138 1716 4138 
Q 1388 4138 1169 3931 
Q 950 3725 888 3313 
L 325 3413 
Q 428 3978 793 4289 
Q 1159 4600 1703 4600 
Q 2078 4600 2393 4439 
Q 2709 4278 2876 4000 
Q 3044 3722 3044 3409 
Q 3044 3113 2884 2869 
Q 2725 2625 2413 2481 
Q 2819 2388 3044 2092 
Q 3269 1797 3269 1353 
Q 3269 753 2831 336 
Q 2394 -81 1725 -81 
Q 1122 -81 723 278 
Q 325 638 269 1209 
z
" transform="scale(0.015625)"/>
       </defs>
       <use xlink:href="#ArialMT-33"/>
      </g>
     </g>
    </g>
   </g>
   <g id="line2d_8">
    <path d="M 90.183794 100.914611 
L 90.367589 104.839748 
L 90.551383 105.878591 
L 90.735178 96.083853 
L 90.918972 98.998694 
L 91.102767 98.472774 
L 91.837945 42.828997 
L 92.021739 50.97333 
L 92.205534 44.705227 
L 92.389328 51.521763 
L 92.756917 89.319769 
L 92.940711 88.595875 
L 93.124506 81.722941 
L 93.492095 97.455051 
L 93.859684 107.944208 
L 94.043478 109.938573 
L 94.227273 110.338235 
L 94.778656 104.902181 
L 95.146245 107.205228 
L 95.881423 96.797535 
L 96.065217 100.466674 
L 96.249012 100.896508 
L 96.432806 95.435388 
L 96.616601 70.119047 
L 96.800395 73.893788 
L 97.167984 59.30032 
L 97.351779 58.387039 
L 97.535573 59.932538 
L 97.719368 55.803625 
L 98.086957 75.414453 
L 98.270751 73.371349 
L 98.454545 82.077809 
L 98.63834 85.196659 
L 98.822134 94.626548 
L 99.005929 96.792893 
L 99.189723 97.354091 
L 99.373518 96.833973 
L 99.557312 102.581727 
L 99.741107 102.368434 
L 99.924901 106.051499 
L 100.108696 99.0038 
L 100.29249 97.18536 
L 100.476285 98.965505 
L 100.660079 103.352736 
L 100.843874 92.256427 
L 101.027668 92.963379 
L 101.211462 98.791436 
L 101.395257 88.997394 
L 101.579051 99.270009 
L 101.762846 84.78632 
L 101.94664 88.32572 
L 102.130435 77.654836 
L 102.314229 73.550756 
L 102.498024 77.165354 
L 102.681818 77.931953 
L 102.865613 65.687486 
L 103.049407 63.383743 
L 103.233202 67.372937 
L 103.416996 79.348409 
L 103.600791 77.424136 
L 103.784585 86.493355 
L 103.968379 89.552557 
L 104.152174 101.06199 
L 104.335968 91.118249 
L 104.519763 93.98319 
L 104.703557 92.902803 
L 104.887352 97.991183 
L 105.071146 96.101492 
L 105.254941 100.910434 
L 105.438735 97.903452 
L 105.62253 106.750328 
L 105.806324 93.078032 
L 105.990119 95.98591 
L 106.173913 92.563716 
L 106.357708 95.288938 
L 106.541502 94.018004 
L 106.909091 97.546959 
L 107.092885 93.782198 
L 107.27668 86.565304 
L 107.460474 91.111518 
L 107.644269 85.394633 
L 107.828063 90.386927 
L 108.011858 77.464288 
L 108.195652 54.842069 
L 108.379447 58.384254 
L 108.747036 49.513009 
L 108.93083 49.007513 
L 109.114625 39.92785 
L 109.298419 44.498665 
L 109.482213 37.687932 
L 109.666008 49.28788 
L 109.849802 48.469756 
L 110.033597 60.411575 
L 110.217391 61.199991 
L 110.401186 63.419021 
L 110.768775 76.369975 
L 110.952569 82.817253 
L 111.136364 102.949592 
L 111.320158 99.059038 
L 111.503953 90.596042 
L 111.687747 88.588448 
L 111.871542 90.796802 
L 112.055336 89.570893 
L 112.23913 89.981927 
L 112.422925 98.458384 
L 112.790514 89.483162 
L 112.974308 93.207539 
L 113.158103 94.620514 
L 113.341897 84.312389 
L 113.709486 95.693474 
L 113.893281 93.226803 
L 114.077075 97.301638 
L 114.444664 85.864851 
L 114.628458 87.835774 
L 114.812253 86.22645 
L 114.996047 82.998053 
L 115.179842 86.237822 
L 115.363636 83.277491 
L 115.547431 82.672892 
L 115.731225 78.614999 
L 115.91502 80.768347 
L 116.466403 68.961141 
L 116.650198 73.777974 
L 116.833992 67.304934 
L 117.017787 68.845791 
L 117.201581 68.584456 
L 117.385375 66.640919 
L 117.56917 65.929326 
L 117.752964 68.646192 
L 117.936759 67.52867 
L 118.120553 73.978037 
L 118.304348 76.307311 
L 118.488142 82.742984 
L 118.671937 85.030713 
L 118.855731 83.864684 
L 119.039526 87.362771 
L 119.22332 88.077846 
L 119.407115 75.935267 
L 119.590909 84.862446 
L 120.326087 71.365612 
L 120.509881 69.902505 
L 120.87747 61.682742 
L 121.061265 59.847592 
L 121.245059 54.236773 
L 121.612648 50.585273 
L 121.796443 51.35721 
L 121.980237 47.33065 
L 122.164032 51.240004 
L 122.347826 58.557858 
L 122.531621 60.365389 
L 122.715415 67.30006 
L 122.899209 68.886872 
L 123.266798 76.342356 
L 123.450593 73.615278 
L 123.634387 79.807023 
L 124.001976 78.761913 
L 124.185771 76.246967 
L 124.369565 76.229328 
L 124.55336 76.389935 
L 124.737154 81.775625 
L 125.104743 78.518217 
L 125.288538 78.923449 
L 125.472332 65.75897 
L 126.023715 84.179864 
L 126.20751 83.722644 
L 126.391304 86.452275 
L 126.575099 85.675464 
L 126.758893 82.448692 
L 127.126482 84.724352 
L 127.310277 85.41645 
L 127.494071 84.398727 
L 127.677866 80.434599 
L 128.045455 78.34322 
L 128.229249 72.405847 
L 128.413043 71.596311 
L 128.596838 64.108798 
L 128.780632 65.911687 
L 128.964427 70.343248 
L 129.148221 61.509602 
L 129.332016 66.426466 
L 129.51581 62.424275 
L 129.699605 65.283879 
L 130.067194 80.546003 
L 130.250988 82.812147 
L 130.434783 88.833073 
L 130.802372 93.307571 
L 130.986166 92.181461 
L 131.16996 91.951458 
L 131.353755 91.509556 
L 131.537549 85.278587 
L 131.721344 85.715616 
L 131.905138 90.616234 
L 132.088933 79.680533 
L 132.272727 83.747942 
L 132.456522 77.462896 
L 132.640316 75.936428 
L 132.824111 70.567448 
L 133.007905 71.314088 
L 133.1917 60.593767 
L 133.375494 60.846748 
L 133.743083 56.694161 
L 133.926877 58.96193 
L 134.110672 56.182167 
L 134.294466 62.644531 
L 134.478261 64.203259 
L 134.662055 64.553021 
L 135.581028 88.385368 
L 135.764822 96.765738 
L 135.948617 95.359494 
L 136.132411 97.326008 
L 136.683794 94.669485 
L 136.867589 97.457836 
L 137.418972 94.273769 
L 137.602767 91.086452 
L 137.786561 90.90426 
L 137.970356 97.459693 
L 138.15415 97.373587 
L 138.337945 101.307079 
L 138.521739 99.124952 
L 138.705534 100.981918 
L 138.889328 97.787407 
L 139.073123 97.885581 
L 139.256917 99.788502 
L 139.8083 95.929976 
L 139.992095 95.427265 
L 140.175889 91.89065 
L 140.359684 90.989902 
L 140.543478 87.475568 
L 140.727273 87.04968 
L 140.911067 80.552038 
L 141.094862 83.400964 
L 141.278656 77.495621 
L 141.646245 82.523193 
L 142.013834 86.304897 
L 142.749012 95.148291 
L 142.932806 94.042141 
L 143.116601 95.250411 
L 143.48419 99.867877 
L 143.667984 90.647334 
L 143.851779 90.703037 
L 144.035573 91.270269 
L 144.219368 93.162513 
L 144.586957 88.331987 
L 144.770751 85.892238 
L 144.954545 85.109624 
L 145.322134 81.014364 
L 145.505929 74.487711 
L 145.689723 80.848883 
L 145.873518 70.895858 
L 146.241107 66.979309 
L 146.424901 65.697466 
L 146.608696 65.451449 
L 146.976285 68.40737 
L 147.160079 71.599328 
L 147.343874 72.810383 
L 147.527668 77.368666 
L 147.711462 79.017447 
L 148.079051 87.13741 
L 148.262846 84.503865 
L 148.44664 91.971186 
L 148.630435 89.848707 
L 148.998024 95.129723 
L 149.181818 94.707316 
L 149.549407 96.535503 
L 149.916996 86.011533 
L 150.100791 91.295335 
L 150.284585 91.422521 
L 150.468379 90.553801 
L 150.652174 91.289068 
L 151.019763 91.447819 
L 151.203557 90.788214 
L 151.387352 88.494451 
L 151.571146 88.678732 
L 151.754941 86.897659 
L 151.938735 88.703798 
L 152.12253 83.452025 
L 152.306324 84.741062 
L 152.490119 82.03905 
L 152.673913 82.304795 
L 152.857708 77.449202 
L 153.041502 78.816223 
L 153.225296 74.868574 
L 153.409091 75.485938 
L 153.592885 74.385823 
L 153.960474 70.399182 
L 154.144269 70.05615 
L 154.328063 72.510057 
L 154.511858 72.582005 
L 154.879447 73.520352 
L 155.063241 76.261124 
L 155.247036 75.285643 
L 155.798419 87.497849 
L 155.982213 80.911548 
L 156.166008 86.665103 
L 156.349802 81.633121 
L 156.533597 84.165475 
L 156.717391 80.177441 
L 156.901186 81.838754 
L 157.08498 78.771429 
L 157.268775 79.664983 
L 157.452569 74.560588 
L 157.636364 77.088532 
L 157.820158 76.359067 
L 158.187747 70.255517 
L 158.371542 72.586879 
L 158.555336 69.653239 
L 158.73913 71.677079 
L 158.922925 67.45208 
L 159.106719 69.349895 
L 159.290514 63.07715 
L 159.474308 65.967853 
L 159.658103 65.479068 
L 159.841897 70.419142 
L 160.025692 68.069444 
L 160.209486 73.488556 
L 160.393281 71.863449 
L 160.577075 73.957845 
L 160.76087 74.233338 
L 160.944664 76.045511 
L 161.312253 81.753577 
L 161.496047 81.574866 
L 161.679842 83.690383 
L 161.863636 82.530388 
L 162.047431 79.646879 
L 162.598814 89.183067 
L 162.782609 89.254087 
L 162.966403 88.33129 
L 163.150198 88.95701 
L 163.333992 86.924118 
L 163.517787 88.706815 
L 163.701581 86.911353 
L 164.06917 86.752602 
L 164.252964 86.985854 
L 164.436759 83.939185 
L 164.620553 84.044091 
L 165.72332 69.117107 
L 165.907115 68.799141 
L 166.090909 69.053049 
L 166.274704 65.922363 
L 166.458498 69.184645 
L 166.642292 69.257986 
L 167.37747 80.735158 
L 167.561265 85.24122 
L 167.745059 84.230228 
L 167.928854 87.245565 
L 168.112648 81.945981 
L 168.296443 86.227146 
L 168.480237 83.606598 
L 168.664032 84.315406 
L 168.847826 82.715365 
L 169.031621 82.751571 
L 169.215415 80.421138 
L 169.399209 82.486523 
L 169.766798 79.002361 
L 169.950593 78.858928 
L 170.134387 76.801202 
L 170.318182 77.050933 
L 170.501976 76.234898 
L 170.685771 74.393482 
L 170.869565 70.383632 
L 171.05336 70.341391 
L 171.420949 66.647882 
L 171.604743 69.996967 
L 171.788538 64.240626 
L 171.972332 66.368908 
L 172.156126 63.569881 
L 172.339921 64.050311 
L 172.523715 60.82261 
L 172.70751 62.757559 
L 172.891304 60.130048 
L 173.075099 63.551777 
L 173.258893 63.121015 
L 173.810277 67.991926 
L 173.994071 69.221548 
L 174.177866 65.901707 
L 174.545455 77.992529 
L 174.729249 80.849811 
L 174.913043 86.628665 
L 175.096838 87.790284 
L 175.280632 91.280945 
L 175.464427 90.849719 
L 175.648221 92.488519 
L 175.832016 89.747282 
L 176.01581 91.516982 
L 176.199605 89.719199 
L 176.383399 92.00159 
L 176.567194 91.317151 
L 176.750988 92.463685 
L 176.934783 89.896982 
L 177.118577 92.409143 
L 177.302372 87.760809 
L 177.486166 88.976506 
L 177.66996 88.368657 
L 177.853755 90.026257 
L 178.221344 86.990032 
L 178.405138 85.677785 
L 178.772727 85.941441 
L 178.956522 84.346738 
L 179.140316 84.926736 
L 179.324111 82.924712 
L 179.507905 79.172484 
L 179.6917 79.123745 
L 179.875494 78.404724 
L 180.059289 79.053885 
L 180.243083 68.694932 
L 180.426877 69.855159 
L 180.610672 68.04902 
L 180.794466 68.294573 
L 180.978261 61.856347 
L 181.162055 60.111945 
L 181.34585 51.360924 
L 181.529644 51.376242 
L 181.713439 43.549178 
L 182.264822 36.065842 
L 182.448617 30.663905 
L 182.632411 32.548491 
L 182.816206 25.132229 
L 183 28.751469 
L 183.183794 26.325646 
L 183.367589 29.245128 
L 183.551383 26.427766 
L 183.735178 29.617404 
L 183.918972 24.552 
L 184.102767 30.018226 
L 184.286561 28.105558 
L 184.470356 35.161148 
L 184.65415 33.318804 
L 185.205534 49.139109 
L 185.389328 46.938879 
L 185.573123 57.524353 
L 185.756917 53.075618 
L 186.124506 63.523694 
L 186.3083 60.217315 
L 186.492095 64.989818 
L 186.675889 73.627811 
L 186.859684 76.707669 
L 187.043478 76.445637 
L 187.227273 72.595931 
L 187.411067 78.868444 
L 187.594862 77.646248 
L 187.778656 82.297832 
L 187.962451 83.423709 
L 188.146245 85.836536 
L 188.33004 83.265423 
L 188.513834 86.227842 
L 188.697628 83.561572 
L 188.881423 85.491415 
L 189.065217 83.857489 
L 189.249012 84.961085 
L 189.432806 82.628795 
L 189.616601 82.92448 
L 189.800395 81.662829 
L 189.98419 82.853924 
L 190.167984 81.277324 
L 190.351779 82.006557 
L 190.535573 78.830845 
L 190.719368 81.286608 
L 190.903162 78.688805 
L 191.086957 79.429642 
L 191.270751 78.383604 
L 191.454545 79.748304 
L 191.63834 77.145394 
L 191.822134 81.410313 
L 192.005929 77.10942 
L 192.557312 79.159719 
L 193.29249 71.836758 
L 193.476285 72.282143 
L 194.211462 66.272822 
L 194.395257 65.961122 
L 194.579051 65.310801 
L 194.762846 68.056911 
L 194.94664 68.681238 
L 195.130435 63.454531 
L 195.498024 58.715681 
L 195.681818 61.48384 
L 195.865613 57.484898 
L 196.049407 57.639007 
L 196.416996 59.9771 
L 197.152174 73.50016 
L 197.335968 70.952953 
L 197.703557 78.77375 
L 197.887352 80.605187 
L 198.071146 80.024725 
L 198.438735 84.103506 
L 198.806324 86.487321 
L 198.990119 90.531985 
L 199.173913 89.360618 
L 199.357708 90.864108 
L 199.541502 90.298733 
L 199.725296 90.474426 
L 199.909091 88.973953 
L 200.092885 90.145088 
L 200.27668 87.28827 
L 200.460474 88.955385 
L 200.644269 85.360283 
L 200.828063 85.361212 
L 201.011858 84.727137 
L 201.195652 86.128739 
L 201.379447 83.306503 
L 201.563241 85.910805 
L 201.747036 82.734397 
L 201.93083 83.963787 
L 202.114625 80.608436 
L 202.298419 80.654158 
L 202.482213 77.733515 
L 202.666008 78.962673 
L 202.849802 73.812556 
L 203.033597 73.586034 
L 203.217391 77.791306 
L 203.952569 61.818052 
L 204.503953 54.746215 
L 204.687747 55.00871 
L 204.871542 54.327057 
L 205.055336 49.937273 
L 205.23913 49.806141 
L 205.422925 46.895245 
L 205.606719 49.055788 
L 205.790514 48.990338 
L 205.974308 46.833741 
L 206.158103 46.316408 
L 206.341897 49.664333 
L 206.525692 46.895942 
L 206.893281 50.936196 
L 207.077075 57.296671 
L 207.26087 58.011282 
L 207.628458 65.040182 
L 207.996047 72.782068 
L 208.179842 76.320076 
L 208.363636 75.091846 
L 208.547431 76.23513 
L 208.731225 80.203436 
L 208.91502 81.277789 
L 209.098814 83.392377 
L 209.282609 82.767586 
L 209.466403 84.57442 
L 209.650198 83.948933 
L 209.833992 85.515553 
L 210.017787 81.47321 
L 210.201581 85.299011 
L 210.385375 82.975772 
L 210.752964 85.438962 
L 210.936759 85.663163 
L 211.304348 83.376595 
L 211.488142 83.825924 
L 211.671937 85.425037 
L 211.855731 81.796514 
L 212.039526 85.714687 
L 212.22332 80.567588 
L 212.407115 81.419132 
L 212.590909 81.023184 
L 212.774704 81.739187 
L 212.958498 77.554108 
L 213.142292 78.663042 
L 213.509881 72.152171 
L 213.693676 71.127254 
L 213.87747 71.772469 
L 214.245059 68.098456 
L 214.428854 67.143166 
L 214.796443 61.489874 
L 214.980237 66.108037 
L 215.164032 63.535995 
L 215.347826 64.051703 
L 215.531621 63.120087 
L 215.715415 52.226858 
L 215.899209 51.905643 
L 216.083004 52.094566 
L 216.266798 48.23163 
L 216.450593 48.192639 
L 216.818182 44.68782 
L 217.001976 40.23189 
L 217.185771 39.675798 
L 217.369565 40.72787 
L 217.55336 41.114535 
L 217.737154 35.70169 
L 217.920949 40.972495 
L 218.104743 41.429483 
L 218.288538 40.638979 
L 218.839921 51.61344 
L 219.023715 54.668928 
L 219.20751 55.429725 
L 219.391304 59.879389 
L 219.575099 60.121461 
L 219.758893 66.471956 
L 219.942688 64.07352 
L 220.494071 74.955144 
L 220.677866 73.014624 
L 220.86166 78.777464 
L 221.045455 75.858445 
L 221.229249 80.355456 
L 221.413043 78.347165 
L 221.596838 81.767966 
L 221.780632 80.673886 
L 221.964427 86.011301 
L 222.148221 82.476311 
L 222.332016 85.475633 
L 222.51581 84.336062 
L 222.699605 85.916839 
L 222.883399 83.883947 
L 223.067194 85.242381 
L 223.250988 84.307051 
L 223.618577 80.076481 
L 223.802372 80.841456 
L 223.986166 76.615529 
L 224.16996 79.06665 
L 224.353755 74.574745 
L 224.537549 75.956852 
L 225.272727 69.393992 
L 225.456522 64.74264 
L 225.824111 69.474064 
L 226.007905 61.764206 
L 226.1917 63.593786 
L 226.375494 60.21685 
L 226.559289 67.253177 
L 226.743083 58.91528 
L 226.926877 59.181953 
L 227.110672 60.100108 
L 227.294466 64.471325 
L 227.478261 58.254978 
L 227.662055 59.170813 
L 227.84585 61.430923 
L 228.029644 60.819361 
L 228.397233 53.477833 
L 228.581028 51.115603 
L 228.948617 45.03062 
L 229.132411 47.624014 
L 229.316206 42.643556 
L 229.5 44.101556 
L 229.683794 44.214353 
L 229.867589 36.343192 
L 230.051383 37.877319 
L 230.235178 33.657193 
L 230.418972 32.328932 
L 230.602767 37.340258 
L 230.786561 37.483691 
L 230.970356 36.56043 
L 231.337945 38.531817 
L 231.521739 40.507615 
L 231.705534 40.677738 
L 231.889328 41.806168 
L 232.073123 39.658623 
L 232.256917 44.636528 
L 232.440711 45.53658 
L 232.624506 53.531214 
L 232.8083 48.098873 
L 232.992095 51.11978 
L 233.175889 50.698998 
L 233.359684 51.204262 
L 233.543478 49.81055 
L 233.727273 51.852958 
L 233.911067 51.026711 
L 234.094862 52.681294 
L 234.278656 53.178435 
L 235.013834 60.796152 
L 235.197628 60.04487 
L 235.381423 65.264151 
L 235.565217 65.249993 
L 235.749012 65.926541 
L 235.932806 67.064719 
L 236.116601 70.084465 
L 236.300395 69.232224 
L 236.48419 73.60437 
L 236.667984 71.539449 
L 236.851779 76.063382 
L 237.035573 75.079777 
L 237.219368 74.840955 
L 237.403162 72.265896 
L 237.586957 75.331365 
L 237.770751 72.463174 
L 237.954545 74.764596 
L 238.13834 70.044546 
L 238.322134 71.0126 
L 238.505929 72.703157 
L 238.689723 70.887503 
L 238.873518 70.318878 
L 239.057312 66.711707 
L 239.241107 69.893222 
L 239.424901 63.764606 
L 239.608696 64.865417 
L 239.79249 61.19767 
L 240.343874 58.745853 
L 240.527668 55.099923 
L 240.711462 56.02388 
L 240.895257 52.12056 
L 241.079051 54.528048 
L 241.44664 46.479801 
L 242.365613 42.302149 
L 242.549407 38.258413 
L 242.733202 38.980219 
L 242.916996 36.437885 
L 243.100791 38.060671 
L 243.284585 33.307199 
L 243.468379 34.933234 
L 243.652174 33.377523 
L 243.835968 34.533572 
L 244.019763 28.90024 
L 244.203557 33.240124 
L 244.387352 30.292326 
L 244.571146 31.5187 
L 244.754941 30.191599 
L 244.938735 31.651688 
L 245.12253 30.779951 
L 245.306324 34.007884 
L 245.490119 34.171741 
L 245.673913 32.512981 
L 246.041502 35.040925 
L 246.225296 39.478056 
L 246.409091 38.033516 
L 246.592885 44.979095 
L 246.77668 44.382155 
L 246.960474 49.23241 
L 247.144269 48.748498 
L 247.511858 56.550728 
L 247.695652 58.403749 
L 247.879447 54.445192 
L 248.063241 62.24951 
L 248.247036 58.519795 
L 248.43083 63.395348 
L 248.43083 63.395348 
" clip-path="url(#p6a493cb6c3)" style="fill: none; stroke: #000000; stroke-width: 0.7; stroke-linecap: square"/>
   </g>
   <g id="line2d_9">
    <path d="M 90 135.432 
L 107.092885 135.432 
L 107.092885 125.995514 
L 113.158103 125.995514 
L 113.158103 135.432 
L 119.22332 135.432 
L 119.22332 125.995514 
L 125.288538 125.995514 
L 125.288538 135.432 
L 131.353755 135.432 
L 131.353755 125.995514 
L 137.418972 125.995514 
L 137.418972 135.432 
L 143.48419 135.432 
L 143.48419 125.995514 
L 149.549407 125.995514 
L 149.549407 135.432 
L 155.614625 135.432 
L 155.614625 125.995514 
L 161.679842 125.995514 
L 161.679842 135.432 
L 167.745059 135.432 
L 167.745059 125.995514 
L 173.810277 125.995514 
L 173.810277 135.432 
L 179.875494 135.432 
L 179.875494 125.995514 
L 185.940711 125.995514 
L 185.940711 135.432 
L 248.43083 135.432 
" clip-path="url(#p6a493cb6c3)" style="fill: none; stroke: #000000; stroke-width: 0.7; stroke-linecap: square"/>
   </g>
   <g id="patch_3">
    <path d="M 90 140.976 
L 90 19.008 
" style="fill: none; stroke: #000000; stroke-width: 0.8; stroke-linejoin: miter; stroke-linecap: square"/>
   </g>
   <g id="patch_4">
    <path d="M 211.304348 140.976 
L 211.304348 19.008 
" style="fill: none; stroke: #000000; stroke-width: 0.8; stroke-linejoin: miter; stroke-linecap: square"/>
   </g>
   <g id="patch_5">
    <path d="M 90 140.976 
L 211.304348 140.976 
" style="fill: none; stroke: #000000; stroke-width: 0.8; stroke-linejoin: miter; stroke-linecap: square"/>
   </g>
   <g id="patch_6">
    <path d="M 90 19.008 
L 211.304348 19.008 
" style="fill: none; stroke: #000000; stroke-width: 0.8; stroke-linejoin: miter; stroke-linecap: square"/>
   </g>
  </g>
  <g id="axes_2">
   <g id="patch_7">
    <path d="M 235.565217 140.976 
L 356.869565 140.976 
L 356.869565 19.008 
L 235.565217 19.008 
z
" style="fill: #f2f2f2"/>
   </g>
   <g id="matplotlib.axis_3">
    <g id="xtick_4">
     <g id="line2d_10">
      <g>
       <use xlink:href="#m8dc5ab2c7e" x="235.565217" y="140.976" style="stroke: #000000; stroke-width: 0.8"/>
      </g>
     </g>
     <g id="text_8">
      <!-- 0 -->
      <g transform="translate(232.784749 155.133813) scale(0.1 -0.1)">
       <use xlink:href="#ArialMT-30"/>
      </g>
     </g>
    </g>
    <g id="xtick_5">
     <g id="line2d_11">
      <g>
       <use xlink:href="#m8dc5ab2c7e" x="290.703557" y="140.976" style="stroke: #000000; stroke-width: 0.8"/>
      </g>
     </g>
     <g id="text_9">
      <!-- 50 -->
      <g transform="translate(285.14262 155.133813) scale(0.1 -0.1)">
       <use xlink:href="#ArialMT-35"/>
       <use xlink:href="#ArialMT-30" x="55.615234"/>
      </g>
     </g>
    </g>
    <g id="xtick_6">
     <g id="line2d_12">
      <g>
       <use xlink:href="#m8dc5ab2c7e" x="345.841897" y="140.976" style="stroke: #000000; stroke-width: 0.8"/>
      </g>
     </g>
     <g id="text_10">
      <!-- 100 -->
      <g transform="translate(337.500491 155.133813) scale(0.1 -0.1)">
       <use xlink:href="#ArialMT-31"/>
       <use xlink:href="#ArialMT-30" x="55.615234"/>
       <use xlink:href="#ArialMT-30" x="111.230469"/>
      </g>
     </g>
    </g>
   </g>
   <g id="matplotlib.axis_4">
    <g id="ytick_5">
     <g id="line2d_13">
      <g>
       <use xlink:href="#ma786d6dce0" x="235.565217" y="135.432" style="stroke: #000000; stroke-width: 0.8"/>
      </g>
     </g>
     <g id="text_11">
      <!-- 0.0 -->
      <g transform="translate(214.665217 139.010906) scale(0.1 -0.1)">
       <defs>
        <path id="ArialMT-2e" d="M 581 0 
L 581 641 
L 1222 641 
L 1222 0 
L 581 0 
z
" transform="scale(0.015625)"/>
       </defs>
       <use xlink:href="#ArialMT-30"/>
       <use xlink:href="#ArialMT-2e" x="55.615234"/>
       <use xlink:href="#ArialMT-30" x="83.398438"/>
      </g>
     </g>
    </g>
    <g id="ytick_6">
     <g id="line2d_14">
      <g>
       <use xlink:href="#ma786d6dce0" x="235.565217" y="113.49971" style="stroke: #000000; stroke-width: 0.8"/>
      </g>
     </g>
     <g id="text_12">
      <!-- 0.5 -->
      <g transform="translate(214.665217 117.078616) scale(0.1 -0.1)">
       <use xlink:href="#ArialMT-30"/>
       <use xlink:href="#ArialMT-2e" x="55.615234"/>
       <use xlink:href="#ArialMT-35" x="83.398438"/>
      </g>
     </g>
    </g>
    <g id="ytick_7">
     <g id="line2d_15">
      <g>
       <use xlink:href="#ma786d6dce0" x="235.565217" y="91.56742" style="stroke: #000000; stroke-width: 0.8"/>
      </g>
     </g>
     <g id="text_13">
      <!-- 1.0 -->
      <g transform="translate(214.665217 95.146326) scale(0.1 -0.1)">
       <use xlink:href="#ArialMT-31"/>
       <use xlink:href="#ArialMT-2e" x="55.615234"/>
       <use xlink:href="#ArialMT-30" x="83.398438"/>
      </g>
     </g>
    </g>
    <g id="ytick_8">
     <g id="line2d_16">
      <g>
       <use xlink:href="#ma786d6dce0" x="235.565217" y="69.63513" style="stroke: #000000; stroke-width: 0.8"/>
      </g>
     </g>
     <g id="text_14">
      <!-- 1.5 -->
      <g transform="translate(214.665217 73.214036) scale(0.1 -0.1)">
       <use xlink:href="#ArialMT-31"/>
       <use xlink:href="#ArialMT-2e" x="55.615234"/>
       <use xlink:href="#ArialMT-35" x="83.398438"/>
      </g>
     </g>
    </g>
    <g id="ytick_9">
     <g id="line2d_17">
      <g>
       <use xlink:href="#ma786d6dce0" x="235.565217" y="47.70284" style="stroke: #000000; stroke-width: 0.8"/>
      </g>
     </g>
     <g id="text_15">
      <!-- 2.0 -->
      <g transform="translate(214.665217 51.281747) scale(0.1 -0.1)">
       <use xlink:href="#ArialMT-32"/>
       <use xlink:href="#ArialMT-2e" x="55.615234"/>
       <use xlink:href="#ArialMT-30" x="83.398438"/>
      </g>
     </g>
    </g>
    <g id="ytick_10">
     <g id="line2d_18">
      <g>
       <use xlink:href="#ma786d6dce0" x="235.565217" y="25.77055" style="stroke: #000000; stroke-width: 0.8"/>
      </g>
     </g>
     <g id="text_16">
      <!-- 2.5 -->
      <g transform="translate(214.665217 29.349457) scale(0.1 -0.1)">
       <use xlink:href="#ArialMT-32"/>
       <use xlink:href="#ArialMT-2e" x="55.615234"/>
       <use xlink:href="#ArialMT-35" x="83.398438"/>
      </g>
     </g>
    </g>
   </g>
   <g id="line2d_19">
    <path d="M 235.749012 91.56742 
L 235.932806 88.776065 
L 236.116601 80.138226 
L 236.300395 86.686487 
L 236.48419 77.140727 
L 236.667984 55.140575 
L 236.851779 58.212803 
L 237.035573 48.174507 
L 237.219368 25.785765 
L 237.403162 41.115802 
L 237.586957 29.867707 
L 238.13834 70.744213 
L 238.322134 75.093966 
L 238.505929 75.542608 
L 238.689723 87.26964 
L 238.873518 90.427907 
L 239.057312 96.785912 
L 239.241107 93.4965 
L 239.424901 96.823479 
L 239.608696 95.899804 
L 239.79249 93.901651 
L 239.976285 90.678215 
L 240.160079 95.956894 
L 240.343874 92.5121 
L 240.527668 94.586328 
L 240.895257 83.505868 
L 241.079051 89.473399 
L 241.262846 88.353275 
L 241.630435 79.76364 
L 241.814229 80.456665 
L 241.998024 76.18743 
L 242.181818 76.258927 
L 242.365613 69.961244 
L 242.549407 69.383611 
L 242.733202 62.542898 
L 242.916996 62.514218 
L 243.100791 56.836716 
L 243.284585 47.407022 
L 243.468379 47.387768 
L 243.652174 38.457611 
L 243.835968 35.195667 
L 244.019763 39.569656 
L 244.387352 51.589275 
L 244.571146 55.429122 
L 244.938735 71.271354 
L 245.673913 82.150652 
L 245.857708 83.244789 
L 246.041502 82.555264 
L 246.225296 83.881128 
L 246.409091 81.333752 
L 246.592885 81.276258 
L 246.77668 80.598717 
L 246.960474 78.933006 
L 247.144269 74.720322 
L 247.328063 77.248309 
L 247.879447 71.042186 
L 248.063241 69.854739 
L 248.247036 70.463475 
L 248.43083 65.395248 
L 248.614625 66.107259 
L 248.798419 61.705936 
L 248.982213 61.016142 
L 249.166008 57.898538 
L 249.533597 49.511277 
L 249.717391 49.75391 
L 249.901186 51.570155 
L 250.08498 48.783378 
L 250.268775 55.945626 
L 250.452569 56.823521 
L 251.003953 69.091159 
L 251.555336 74.28326 
L 251.922925 74.520103 
L 252.106719 76.55865 
L 252.290514 75.90548 
L 252.474308 74.004542 
L 252.658103 75.590946 
L 252.841897 74.444836 
L 253.025692 76.276162 
L 253.209486 73.706031 
L 253.393281 72.963321 
L 253.577075 70.431295 
L 253.76087 46.774992 
L 253.944664 54.736232 
L 254.128458 56.126726 
L 254.496047 44.921449 
L 255.047431 26.510029 
L 255.231225 28.303789 
L 255.41502 24.552 
L 255.782609 29.794998 
L 256.150198 46.589987 
L 256.517787 58.333446 
L 257.06917 69.91506 
L 257.252964 70.610509 
L 257.436759 77.00635 
L 257.620553 75.493058 
L 257.804348 75.17637 
L 257.988142 73.559266 
L 258.171937 75.497771 
L 258.355731 74.344659 
L 258.539526 77.16254 
L 258.72332 74.965514 
L 258.907115 75.587311 
L 259.090909 77.752695 
L 259.274704 73.517526 
L 259.458498 73.097698 
L 259.642292 72.965745 
L 259.826087 51.972344 
L 260.193676 71.782606 
L 260.37747 77.173042 
L 260.561265 76.71686 
L 260.928854 73.66254 
L 261.112648 74.597525 
L 261.296443 72.171735 
L 261.480237 73.346929 
L 261.664032 70.361144 
L 261.847826 70.278875 
L 262.031621 70.704896 
L 262.215415 67.105124 
L 262.583004 72.853719 
L 262.766798 71.647556 
L 262.950593 74.379667 
L 263.318182 71.2043 
L 263.501976 68.499791 
L 263.685771 68.494944 
L 263.869565 69.785126 
L 264.05336 70.238616 
L 264.604743 73.998079 
L 264.788538 72.623069 
L 265.156126 74.990289 
L 265.339921 75.034857 
L 265.523715 73.652711 
L 265.70751 74.311805 
L 265.891304 55.842622 
L 266.075099 68.032972 
L 266.258893 69.001888 
L 266.442688 60.830061 
L 266.626482 59.997811 
L 266.810277 56.294091 
L 266.994071 56.757275 
L 267.177866 52.42139 
L 267.36166 52.660522 
L 267.545455 54.544226 
L 267.729249 53.084928 
L 268.096838 55.278184 
L 268.280632 56.601489 
L 268.464427 54.801939 
L 269.199605 67.807305 
L 269.567194 71.383649 
L 269.750988 75.590946 
L 269.934783 74.849044 
L 270.118577 74.728132 
L 270.302372 78.092677 
L 270.66996 74.751156 
L 270.853755 77.028028 
L 271.037549 77.044455 
L 271.221344 77.219495 
L 271.405138 78.225439 
L 271.588933 75.512447 
L 271.772727 76.311439 
L 271.956522 62.292321 
L 272.324111 78.330732 
L 272.507905 77.514775 
L 272.6917 81.024873 
L 272.875494 80.812535 
L 273.059289 82.660289 
L 273.610672 78.077866 
L 273.794466 78.935295 
L 273.978261 77.446509 
L 274.162055 79.244982 
L 274.34585 76.390881 
L 274.529644 79.540261 
L 275.081028 73.417618 
L 275.264822 73.335349 
L 275.448617 75.457916 
L 275.816206 69.279125 
L 276 69.407712 
L 276.183794 66.970881 
L 276.367589 66.032126 
L 276.551383 63.683892 
L 276.735178 65.654443 
L 276.918972 63.078387 
L 277.102767 62.751465 
L 277.470356 64.412464 
L 277.65415 66.036704 
L 277.837945 69.798187 
L 278.021739 54.625687 
L 278.205534 68.986404 
L 278.389328 65.813864 
L 278.573123 64.99858 
L 278.756917 60.108894 
L 278.940711 60.152116 
L 279.124506 59.531665 
L 279.492095 59.53732 
L 279.675889 60.556863 
L 280.043478 66.0021 
L 280.411067 67.021508 
L 280.594862 67.837062 
L 280.962451 67.026894 
L 281.146245 67.177429 
L 281.33004 68.670119 
L 281.513834 66.75437 
L 281.697628 67.886477 
L 282.249012 65.370608 
L 282.432806 66.427179 
L 282.616601 65.124744 
L 282.800395 64.703704 
L 282.98419 64.824078 
L 283.167984 66.46461 
L 283.351779 65.936123 
L 283.535573 66.775913 
L 283.903162 64.721478 
L 284.086957 45.703206 
L 284.454545 71.122569 
L 284.63834 76.154711 
L 285.189723 76.839119 
L 285.373518 78.457165 
L 285.557312 78.276739 
L 285.741107 77.325327 
L 285.924901 79.104949 
L 286.108696 78.104795 
L 286.29249 80.663347 
L 286.476285 80.67735 
L 286.660079 79.887918 
L 286.843874 81.306284 
L 287.027668 80.884571 
L 287.211462 79.162039 
L 287.395257 79.604218 
L 287.579051 79.647036 
L 287.94664 78.11449 
L 288.130435 78.124858 
L 288.314229 77.521507 
L 288.498024 79.370337 
L 288.681818 77.02924 
L 288.865613 77.070172 
L 289.049407 77.601622 
L 289.416996 74.82023 
L 289.600791 75.017756 
L 289.784585 74.825347 
L 289.968379 75.460609 
L 290.152174 64.306901 
L 290.335968 71.658193 
L 290.519763 70.80817 
L 290.703557 70.98698 
L 291.071146 63.567019 
L 291.254941 63.575098 
L 291.438735 59.152905 
L 291.62253 60.077926 
L 291.806324 56.402212 
L 291.990119 56.257602 
L 292.173913 53.640614 
L 292.357708 55.435855 
L 292.541502 51.239868 
L 292.725296 53.846488 
L 292.909091 51.402117 
L 293.092885 53.089237 
L 293.27668 53.399058 
L 293.460474 54.981423 
L 293.828063 62.16912 
L 294.563241 78.833502 
L 294.747036 79.598967 
L 294.93083 82.171522 
L 295.114625 83.019391 
L 295.482213 86.472264 
L 295.666008 85.834444 
L 295.849802 87.321883 
L 296.033597 85.973668 
L 296.217391 79.635591 
L 296.401186 82.769083 
L 296.58498 89.408364 
L 296.952569 92.486247 
L 297.136364 90.456587 
L 297.320158 91.232958 
L 297.503953 91.11999 
L 297.687747 92.286297 
L 297.871542 88.562112 
L 298.055336 90.384416 
L 298.23913 89.0976 
L 298.422925 89.584886 
L 298.606719 90.660846 
L 298.790514 89.513389 
L 298.974308 90.350082 
L 299.158103 90.213415 
L 299.525692 88.685852 
L 299.893281 91.409345 
L 300.26087 89.085348 
L 300.628458 87.259946 
L 300.812253 88.568171 
L 301.179842 89.267524 
L 301.363636 86.085425 
L 301.547431 85.714339 
L 301.731225 86.66023 
L 301.91502 83.782701 
L 302.098814 83.990461 
L 302.282609 85.115028 
L 302.466403 79.160154 
L 302.650198 77.998155 
L 302.833992 75.139073 
L 303.017787 74.823327 
L 303.201581 70.294763 
L 303.385375 69.240078 
L 303.56917 63.5343 
L 303.936759 62.843294 
L 304.488142 55.786609 
L 304.671937 57.173198 
L 304.855731 56.93622 
L 305.039526 56.912657 
L 305.22332 58.874052 
L 305.774704 74.187661 
L 305.958498 74.946125 
L 306.509881 86.340849 
L 306.87747 88.684505 
L 307.061265 90.507483 
L 307.245059 90.477592 
L 307.428854 93.289279 
L 307.612648 91.929215 
L 307.796443 94.62376 
L 308.164032 92.769678 
L 308.347826 93.451932 
L 308.531621 92.1157 
L 308.715415 95.239229 
L 308.899209 96.168289 
L 309.266798 98.813418 
L 309.634387 97.96353 
L 309.818182 98.599869 
L 310.001976 96.798838 
L 310.185771 98.184754 
L 310.369565 96.156979 
L 310.55336 96.633089 
L 310.737154 96.425195 
L 311.288538 98.295299 
L 311.472332 94.40644 
L 311.656126 95.131108 
L 311.839921 94.969397 
L 312.023715 96.115642 
L 312.20751 94.055148 
L 312.575099 95.30911 
L 312.758893 93.355929 
L 312.942688 93.440621 
L 313.310277 90.176926 
L 313.494071 90.462107 
L 313.677866 86.672349 
L 313.86166 89.293646 
L 314.229249 84.174792 
L 314.413043 83.44245 
L 314.596838 80.011793 
L 314.780632 81.733921 
L 315.148221 71.245232 
L 315.332016 70.42739 
L 315.699605 65.838504 
L 315.883399 63.32277 
L 316.067194 63.472093 
L 316.434783 60.090044 
L 316.618577 58.4996 
L 316.986166 60.485231 
L 317.537549 65.739674 
L 317.721344 66.223324 
L 317.905138 68.360702 
L 318.088933 76.075808 
L 318.272727 76.497252 
L 318.640316 81.468937 
L 319.375494 91.367605 
L 319.559289 92.218436 
L 319.743083 91.991826 
L 319.926877 93.013119 
L 320.110672 93.011503 
L 320.294466 94.748712 
L 320.478261 94.471879 
L 320.662055 91.207106 
L 320.84585 96.894707 
L 321.029644 96.505309 
L 321.397233 101.019466 
L 321.581028 100.047722 
L 321.764822 100.19516 
L 322.132411 99.913884 
L 322.316206 99.400073 
L 322.5 101.069554 
L 322.683794 100.33425 
L 322.867589 98.48165 
L 323.051383 98.239825 
L 323.418972 96.521601 
L 323.602767 96.993806 
L 323.786561 95.287567 
L 324.15415 97.67404 
L 324.337945 97.718204 
L 324.521739 97.237113 
L 324.705534 96.346022 
L 324.889328 96.538567 
L 325.073123 96.129915 
L 325.256917 94.774294 
L 325.440711 95.365931 
L 325.8083 92.39967 
L 325.992095 93.325768 
L 326.175889 91.916693 
L 326.359684 91.643361 
L 326.543478 89.469629 
L 326.727273 83.806938 
L 326.911067 85.212377 
L 327.094862 82.80436 
L 328.013834 63.593679 
L 328.565217 58.172813 
L 328.932806 53.389767 
L 329.116601 50.779915 
L 329.300395 50.389845 
L 329.48419 51.343815 
L 329.667984 49.208591 
L 329.851779 49.168467 
L 330.035573 47.579908 
L 330.219368 48.742445 
L 330.403162 53.512834 
L 330.586957 51.740752 
L 330.770751 53.932393 
L 331.13834 61.533319 
L 331.322134 63.010121 
L 332.241107 78.256273 
L 332.608696 81.605199 
L 332.79249 82.238711 
L 333.160079 92.351197 
L 333.343874 90.475707 
L 333.527668 95.775256 
L 334.262846 93.842541 
L 334.44664 95.702412 
L 334.630435 95.164231 
L 334.814229 94.108199 
L 334.998024 95.898727 
L 335.181818 95.369028 
L 335.365613 95.655555 
L 335.733202 94.897227 
L 336.100791 98.399111 
L 336.284585 97.724263 
L 336.468379 95.888494 
L 336.652174 97.510041 
L 336.835968 97.852716 
L 337.019763 96.554186 
L 337.203557 96.755752 
L 337.387352 95.53774 
L 337.571146 95.946392 
L 337.754941 95.384378 
L 337.938735 95.438909 
L 338.306324 97.482034 
L 338.490119 92.4814 
L 338.673913 93.603274 
L 338.857708 93.017832 
L 339.041502 90.823499 
L 339.592885 93.190179 
L 339.960474 89.873837 
L 340.144269 87.078173 
L 340.328063 88.982478 
L 340.511858 88.677773 
L 340.695652 88.00104 
L 341.063241 84.754983 
L 341.43083 85.222745 
L 341.614625 86.272583 
L 341.798419 82.868317 
L 341.982213 81.933602 
L 342.166008 82.659885 
L 342.349802 79.447894 
L 342.533597 82.423715 
L 342.901186 74.880417 
L 343.268775 73.072789 
L 343.452569 71.499983 
L 343.636364 73.813209 
L 343.820158 70.122012 
L 344.003953 69.414714 
L 344.187747 69.74931 
L 344.371542 65.286858 
L 344.555336 65.117069 
L 344.73913 65.586312 
L 344.922925 67.305477 
L 345.106719 70.547091 
L 345.290514 67.655154 
L 345.474308 68.791166 
L 346.025692 78.17158 
L 346.209486 77.324115 
L 346.577075 83.81165 
L 346.76087 83.332309 
L 347.128458 90.250309 
L 347.496047 89.345619 
L 347.679842 93.157056 
L 347.863636 93.827057 
L 348.047431 92.331269 
L 348.41502 95.24071 
L 348.598814 92.739921 
L 348.782609 94.083558 
L 348.966403 91.13332 
L 349.150198 93.341656 
L 349.333992 93.773467 
L 349.517787 89.3778 
L 349.701581 92.076384 
L 349.885375 91.199297 
L 350.06917 91.911846 
L 350.252964 91.717282 
L 350.436759 91.708395 
L 350.620553 90.323826 
L 350.804348 89.943988 
L 350.988142 87.994577 
L 351.171937 87.655941 
L 351.355731 88.869913 
L 351.539526 85.735075 
L 351.72332 86.956453 
L 351.907115 86.209703 
L 352.090909 89.803013 
L 352.458498 87.592792 
L 352.642292 85.246981 
L 352.826087 84.980651 
L 353.009881 82.186198 
L 353.193676 82.160077 
L 353.37747 80.538395 
L 353.561265 80.12907 
L 353.745059 77.881417 
L 353.928854 80.240827 
L 354.296443 73.090293 
L 354.480237 74.051399 
L 354.664032 70.468592 
L 354.847826 71.906212 
L 355.215415 68.910059 
L 355.215415 68.910059 
" clip-path="url(#p5be6c8a4f3)" style="fill: none; stroke: #000000; stroke-width: 0.7; stroke-linecap: square"/>
   </g>
   <g id="line2d_20">
    <path d="M 235.565217 135.432 
L 253.577075 135.432 
L 253.577075 127.015069 
L 259.642292 127.015069 
L 259.642292 135.432 
L 265.70751 135.432 
L 265.70751 127.015069 
L 271.772727 127.015069 
L 271.772727 135.432 
L 277.837945 135.432 
L 277.837945 127.015069 
L 283.903162 127.015069 
L 283.903162 135.432 
L 289.968379 135.432 
L 289.968379 127.015069 
L 296.033597 127.015069 
L 296.033597 135.432 
L 302.098814 135.432 
L 302.098814 127.015069 
L 308.164032 127.015069 
L 308.164032 135.432 
L 314.229249 135.432 
L 314.229249 127.015069 
L 320.294466 127.015069 
L 320.294466 135.432 
L 326.359684 135.432 
L 326.359684 127.015069 
L 332.424901 127.015069 
L 332.424901 135.432 
L 355.215415 135.432 
" clip-path="url(#p5be6c8a4f3)" style="fill: none; stroke: #000000; stroke-width: 0.7; stroke-linecap: square"/>
   </g>
   <g id="patch_8">
    <path d="M 235.565217 140.976 
L 235.565217 19.008 
" style="fill: none; stroke: #000000; stroke-width: 0.8; stroke-linejoin: miter; stroke-linecap: square"/>
   </g>
   <g id="patch_9">
    <path d="M 356.869565 140.976 
L 356.869565 19.008 
" style="fill: none; stroke: #000000; stroke-width: 0.8; stroke-linejoin: miter; stroke-linecap: square"/>
   </g>
   <g id="patch_10">
    <path d="M 235.565217 140.976 
L 356.869565 140.976 
" style="fill: none; stroke: #000000; stroke-width: 0.8; stroke-linejoin: miter; stroke-linecap: square"/>
   </g>
   <g id="patch_11">
    <path d="M 235.565217 19.008 
L 356.869565 19.008 
" style="fill: none; stroke: #000000; stroke-width: 0.8; stroke-linejoin: miter; stroke-linecap: square"/>
   </g>
  </g>
  <g id="axes_3">
   <g id="patch_12">
    <path d="M 381.130435 140.976 
L 502.434783 140.976 
L 502.434783 19.008 
L 381.130435 19.008 
z
" style="fill: #f2f2f2"/>
   </g>
   <g id="matplotlib.axis_5">
    <g id="xtick_7">
     <g id="line2d_21">
      <g>
       <use xlink:href="#m8dc5ab2c7e" x="381.130435" y="140.976" style="stroke: #000000; stroke-width: 0.8"/>
      </g>
     </g>
     <g id="text_17">
      <!-- 0 -->
      <g transform="translate(378.349966 155.133813) scale(0.1 -0.1)">
       <use xlink:href="#ArialMT-30"/>
      </g>
     </g>
    </g>
    <g id="xtick_8">
     <g id="line2d_22">
      <g>
       <use xlink:href="#m8dc5ab2c7e" x="436.268775" y="140.976" style="stroke: #000000; stroke-width: 0.8"/>
      </g>
     </g>
     <g id="text_18">
      <!-- 50 -->
      <g transform="translate(430.707837 155.133813) scale(0.1 -0.1)">
       <use xlink:href="#ArialMT-35"/>
       <use xlink:href="#ArialMT-30" x="55.615234"/>
      </g>
     </g>
    </g>
    <g id="xtick_9">
     <g id="line2d_23">
      <g>
       <use xlink:href="#m8dc5ab2c7e" x="491.407115" y="140.976" style="stroke: #000000; stroke-width: 0.8"/>
      </g>
     </g>
     <g id="text_19">
      <!-- 100 -->
      <g transform="translate(483.065708 155.133813) scale(0.1 -0.1)">
       <use xlink:href="#ArialMT-31"/>
       <use xlink:href="#ArialMT-30" x="55.615234"/>
       <use xlink:href="#ArialMT-30" x="111.230469"/>
      </g>
     </g>
    </g>
   </g>
   <g id="matplotlib.axis_6">
    <g id="ytick_11">
     <g id="line2d_24">
      <g>
       <use xlink:href="#ma786d6dce0" x="381.130435" y="135.432" style="stroke: #000000; stroke-width: 0.8"/>
      </g>
     </g>
     <g id="text_20">
      <!-- 0 -->
      <g transform="translate(368.569497 139.010906) scale(0.1 -0.1)">
       <use xlink:href="#ArialMT-30"/>
      </g>
     </g>
    </g>
    <g id="ytick_12">
     <g id="line2d_25">
      <g>
       <use xlink:href="#ma786d6dce0" x="381.130435" y="107.058659" style="stroke: #000000; stroke-width: 0.8"/>
      </g>
     </g>
     <g id="text_21">
      <!-- 1 -->
      <g transform="translate(368.569497 110.637565) scale(0.1 -0.1)">
       <use xlink:href="#ArialMT-31"/>
      </g>
     </g>
    </g>
    <g id="ytick_13">
     <g id="line2d_26">
      <g>
       <use xlink:href="#ma786d6dce0" x="381.130435" y="78.685318" style="stroke: #000000; stroke-width: 0.8"/>
      </g>
     </g>
     <g id="text_22">
      <!-- 2 -->
      <g transform="translate(368.569497 82.264225) scale(0.1 -0.1)">
       <use xlink:href="#ArialMT-32"/>
      </g>
     </g>
    </g>
    <g id="ytick_14">
     <g id="line2d_27">
      <g>
       <use xlink:href="#ma786d6dce0" x="381.130435" y="50.311977" style="stroke: #000000; stroke-width: 0.8"/>
      </g>
     </g>
     <g id="text_23">
      <!-- 3 -->
      <g transform="translate(368.569497 53.890884) scale(0.1 -0.1)">
       <use xlink:href="#ArialMT-33"/>
      </g>
     </g>
    </g>
    <g id="ytick_15">
     <g id="line2d_28">
      <g>
       <use xlink:href="#ma786d6dce0" x="381.130435" y="21.938637" style="stroke: #000000; stroke-width: 0.8"/>
      </g>
     </g>
     <g id="text_24">
      <!-- 4 -->
      <g transform="translate(368.569497 25.517543) scale(0.1 -0.1)">
       <defs>
        <path id="ArialMT-34" d="M 2069 0 
L 2069 1097 
L 81 1097 
L 81 1613 
L 2172 4581 
L 2631 4581 
L 2631 1613 
L 3250 1613 
L 3250 1097 
L 2631 1097 
L 2631 0 
L 2069 0 
z
M 2069 1613 
L 2069 3678 
L 634 1613 
L 2069 1613 
z
" transform="scale(0.015625)"/>
       </defs>
       <use xlink:href="#ArialMT-34"/>
      </g>
     </g>
    </g>
   </g>
   <g id="line2d_29">
    <path d="M 381.314229 107.058659 
L 381.498024 104.16162 
L 381.681818 96.928126 
L 381.865613 94.729905 
L 382.233202 83.421545 
L 382.416996 76.185365 
L 382.600791 79.293407 
L 382.784585 68.627308 
L 382.968379 67.812395 
L 383.152174 59.197831 
L 383.335968 68.747285 
L 383.519763 63.117056 
L 383.703557 53.468666 
L 383.887352 50.125746 
L 384.438735 89.484972 
L 384.806324 101.673456 
L 384.990119 106.080196 
L 385.725296 110.986986 
L 385.909091 109.378349 
L 386.092885 109.751559 
L 386.27668 108.923216 
L 386.460474 109.057219 
L 386.644269 106.28329 
L 386.828063 107.428884 
L 387.195652 102.257072 
L 387.563241 100.629185 
L 387.93083 91.830031 
L 388.114625 91.239849 
L 389.033597 67.339802 
L 389.217391 73.575434 
L 389.401186 75.643084 
L 389.952569 96.555364 
L 390.320158 103.215987 
L 390.503953 103.89809 
L 390.871542 103.238818 
L 391.055336 103.970763 
L 391.23913 105.171122 
L 391.422925 103.136898 
L 391.606719 103.268066 
L 391.790514 101.121625 
L 391.974308 101.476331 
L 392.158103 99.245578 
L 392.341897 101.536617 
L 392.893281 93.77293 
L 393.077075 90.57028 
L 393.444664 81.08738 
L 393.628458 76.93268 
L 393.812253 76.229685 
L 393.996047 70.236542 
L 394.179842 72.276139 
L 394.363636 71.44302 
L 394.731225 80.136374 
L 395.098814 94.281934 
L 395.466403 101.65928 
L 395.650198 100.733642 
L 395.833992 101.758962 
L 396.017787 103.816763 
L 396.201581 101.660474 
L 396.385375 101.114015 
L 396.56917 99.18559 
L 396.936759 101.162214 
L 397.304348 97.664548 
L 397.488142 97.029151 
L 397.671937 97.852123 
L 397.855731 94.402358 
L 398.039526 95.051035 
L 398.22332 90.621464 
L 398.407115 80.699547 
L 398.590909 79.067929 
L 398.774704 79.613642 
L 399.326087 60.03468 
L 399.509881 57.207479 
L 399.87747 45.021979 
L 400.061265 35.187955 
L 400.245059 31.62284 
L 400.428854 24.552 
L 400.612648 32.248238 
L 400.796443 31.975606 
L 401.347826 41.25765 
L 401.531621 51.801832 
L 401.715415 48.519049 
L 402.083004 55.644355 
L 402.266798 61.962359 
L 402.450593 61.905057 
L 402.634387 65.988726 
L 402.818182 67.354277 
L 403.001976 71.134723 
L 403.185771 70.809712 
L 403.55336 78.448798 
L 403.737154 79.808678 
L 403.920949 78.412984 
L 404.104743 80.583002 
L 404.288538 79.40249 
L 404.472332 62.5891 
L 404.656126 69.187645 
L 405.023715 90.266758 
L 405.391304 97.369532 
L 405.758893 96.968566 
L 405.942688 97.532186 
L 406.126482 97.434892 
L 406.310277 94.734978 
L 406.494071 94.649771 
L 406.677866 91.20687 
L 406.86166 91.794217 
L 407.045455 89.779392 
L 407.413043 88.289985 
L 407.780632 83.347082 
L 408.332016 75.525048 
L 408.51581 75.866025 
L 408.883399 71.865921 
L 409.067194 66.643074 
L 409.250988 45.477859 
L 409.434783 62.880087 
L 409.618577 66.672471 
L 409.802372 63.920031 
L 410.353755 80.310818 
L 410.537549 70.041357 
L 410.721344 77.110854 
L 410.905138 72.907357 
L 411.088933 76.142986 
L 411.272727 69.77544 
L 411.456522 69.12512 
L 411.640316 62.381529 
L 411.824111 59.776075 
L 412.1917 49.608534 
L 412.375494 37.040872 
L 412.559289 37.592106 
L 412.743083 29.605328 
L 412.926877 29.481472 
L 413.110672 25.863532 
L 413.294466 30.328767 
L 413.478261 28.738037 
L 413.662055 36.320567 
L 413.84585 32.410594 
L 414.029644 40.250088 
L 414.213439 41.857382 
L 414.397233 46.783571 
L 414.581028 45.468309 
L 414.764822 51.169569 
L 414.948617 51.014376 
L 415.132411 56.71086 
L 415.316206 56.624758 
L 415.5 61.49469 
L 415.683794 59.800398 
L 415.867589 64.2722 
L 416.051383 63.612928 
L 416.235178 67.690777 
L 416.418972 67.439931 
L 416.602767 55.64734 
L 416.786561 61.153563 
L 417.15415 86.607482 
L 417.337945 91.53785 
L 417.521739 92.006115 
L 417.705534 95.083268 
L 417.889328 94.301333 
L 418.073123 96.664149 
L 418.256917 94.183446 
L 418.440711 96.092322 
L 418.624506 93.383604 
L 418.8083 94.626045 
L 418.992095 92.89191 
L 419.175889 92.664791 
L 419.359684 91.158223 
L 419.543478 92.325157 
L 419.727273 89.799537 
L 419.911067 89.570179 
L 420.278656 86.059978 
L 420.462451 86.032969 
L 420.646245 85.166872 
L 420.83004 83.451539 
L 421.013834 83.627922 
L 421.197628 79.935369 
L 421.565217 77.568375 
L 421.932806 69.590401 
L 422.116601 71.24873 
L 422.300395 68.005939 
L 422.48419 67.374124 
L 422.667984 49.838191 
L 422.851779 55.92042 
L 423.035573 48.631862 
L 423.219368 49.784171 
L 423.403162 48.633056 
L 423.586957 49.335603 
L 423.954545 39.350564 
L 424.322134 33.878811 
L 424.505929 32.860654 
L 424.689723 34.50794 
L 425.424901 52.724485 
L 425.608696 51.945684 
L 425.79249 59.044876 
L 425.976285 59.54612 
L 426.343874 70.329211 
L 426.711462 77.173379 
L 427.079051 79.276694 
L 427.262846 80.590762 
L 427.44664 80.900552 
L 427.814229 84.295402 
L 427.998024 83.029235 
L 428.181818 83.126231 
L 428.365613 83.350216 
L 428.549407 82.76287 
L 428.733202 64.055676 
L 429.100791 74.326032 
L 429.284585 86.82147 
L 429.468379 88.915533 
L 429.652174 92.425286 
L 429.835968 89.713136 
L 430.019763 90.649369 
L 430.203557 87.150658 
L 430.387352 88.567691 
L 430.571146 84.760385 
L 430.754941 85.997603 
L 431.12253 82.99357 
L 431.306324 82.712432 
L 431.490119 81.521473 
L 431.673913 78.487149 
L 431.857708 79.869562 
L 432.041502 79.051514 
L 432.592885 66.024988 
L 432.960474 59.439276 
L 433.144269 53.594761 
L 433.328063 54.901219 
L 433.511858 53.910967 
L 433.695652 56.244535 
L 433.879447 55.339788 
L 434.247036 63.340892 
L 434.43083 64.652722 
L 434.614625 69.353135 
L 434.798419 60.233149 
L 434.982213 65.661179 
L 435.166008 65.290655 
L 435.349802 67.022402 
L 435.533597 64.977135 
L 435.717391 64.202363 
L 435.901186 54.610679 
L 436.08498 58.308604 
L 436.268775 48.517407 
L 436.452569 53.255425 
L 436.636364 46.330228 
L 436.820158 48.772431 
L 437.003953 45.790036 
L 437.187747 47.655339 
L 437.371542 40.090119 
L 437.73913 47.751439 
L 437.922925 51.383258 
L 438.106719 47.521336 
L 438.290514 52.756121 
L 438.658103 55.966978 
L 439.209486 66.611588 
L 439.393281 66.779614 
L 439.76087 73.543948 
L 439.944664 73.073294 
L 440.128458 75.362394 
L 440.312253 72.02395 
L 440.496047 74.175464 
L 440.679842 74.913378 
L 440.863636 56.701758 
L 441.047431 62.970219 
L 441.41502 88.559036 
L 441.598814 90.497309 
L 441.782609 90.478507 
L 441.966403 93.319139 
L 442.150198 92.159518 
L 442.333992 93.324213 
L 442.517787 88.835996 
L 442.701581 91.848087 
L 443.06917 93.210802 
L 443.252964 92.944735 
L 443.436759 93.812176 
L 443.620553 89.648224 
L 443.804348 89.921752 
L 443.988142 85.233426 
L 444.171937 87.042769 
L 444.355731 87.089924 
L 444.539526 87.472982 
L 444.72332 81.617872 
L 444.907115 85.522771 
L 445.090909 77.802956 
L 445.274704 77.041464 
L 445.826087 64.405607 
L 446.009881 63.647249 
L 446.193676 55.476329 
L 446.37747 53.078594 
L 446.561265 55.064768 
L 446.745059 50.703691 
L 446.928854 42.354149 
L 447.112648 45.93941 
L 447.296443 45.998801 
L 447.480237 45.609774 
L 447.664032 51.794371 
L 447.847826 49.02462 
L 448.031621 43.831916 
L 448.215415 41.908864 
L 448.583004 31.890249 
L 448.766798 37.779383 
L 448.950593 39.092108 
L 449.501976 51.344907 
L 449.685771 50.435386 
L 449.869565 57.217477 
L 450.05336 55.902513 
L 450.420949 61.649286 
L 450.604743 62.447934 
L 450.788538 67.294438 
L 450.972332 66.846915 
L 451.156126 67.134022 
L 451.339921 68.743554 
L 451.523715 72.034097 
L 451.70751 71.338115 
L 451.891304 71.511663 
L 452.075099 72.445956 
L 452.258893 75.80559 
L 452.442688 75.784251 
L 452.626482 77.9771 
L 452.810277 75.731724 
L 452.994071 60.380731 
L 453.36166 76.331605 
L 453.729249 92.29382 
L 454.096838 93.095601 
L 454.280632 95.590928 
L 454.464427 93.245124 
L 454.648221 95.159073 
L 454.832016 95.328741 
L 455.01581 95.249354 
L 455.199605 96.239307 
L 455.383399 98.403506 
L 455.567194 95.373359 
L 455.750988 95.592868 
L 455.934783 93.69787 
L 456.118577 93.472691 
L 456.302372 95.406786 
L 456.486166 93.513877 
L 456.66996 89.437967 
L 456.853755 94.101522 
L 457.037549 90.736367 
L 457.221344 90.967216 
L 457.405138 86.759392 
L 457.588933 88.155086 
L 457.772727 83.501828 
L 457.956522 85.183435 
L 458.140316 85.110166 
L 458.324111 83.917567 
L 458.507905 81.647717 
L 458.6917 83.366482 
L 458.875494 76.433227 
L 459.059289 61.112527 
L 459.243083 62.621333 
L 459.794466 59.148886 
L 459.978261 54.340583 
L 460.162055 55.983989 
L 460.34585 46.769246 
L 460.529644 43.646281 
L 460.713439 37.783859 
L 460.897233 35.798431 
L 461.081028 36.253565 
L 461.264822 37.224119 
L 461.448617 42.308636 
L 461.632411 36.391448 
L 461.816206 40.085643 
L 462 39.312214 
L 462.367589 42.325796 
L 462.551383 46.965923 
L 462.735178 47.893501 
L 462.918972 55.784178 
L 463.102767 54.087201 
L 463.470356 67.163568 
L 463.837945 69.545336 
L 464.205534 78.837825 
L 464.573123 83.702385 
L 464.756917 79.802709 
L 464.940711 84.455221 
L 465.124506 70.538871 
L 465.3083 80.406321 
L 465.492095 81.280626 
L 465.675889 88.222237 
L 465.859684 89.866389 
L 466.043478 95.120126 
L 466.227273 94.624254 
L 466.594862 95.510496 
L 466.778656 97.456231 
L 466.962451 95.092669 
L 467.146245 95.673449 
L 467.33004 95.437078 
L 467.513834 95.389028 
L 467.881423 94.360426 
L 468.249012 95.842073 
L 468.432806 93.084111 
L 468.616601 93.090826 
L 468.800395 92.366641 
L 469.167984 88.833907 
L 469.719368 85.074651 
L 469.903162 78.54266 
L 470.086957 78.615332 
L 470.270751 65.572241 
L 470.454545 69.888551 
L 470.63834 65.159935 
L 471.005929 61.677788 
L 471.189723 50.775169 
L 471.373518 51.259103 
L 471.557312 50.904994 
L 471.741107 41.528641 
L 471.924901 47.450006 
L 472.108696 45.050034 
L 472.29249 47.566401 
L 472.476285 44.61415 
L 472.660079 43.588979 
L 472.843874 38.414929 
L 473.027668 45.992981 
L 473.211462 39.244764 
L 473.395257 44.38912 
L 473.579051 41.632352 
L 474.130435 51.054219 
L 474.314229 58.982501 
L 474.498024 59.077407 
L 474.681818 64.978329 
L 474.865613 61.59273 
L 475.049407 67.988778 
L 475.233202 70.290561 
L 475.416996 74.597769 
L 475.600791 75.385523 
L 475.784585 80.329769 
L 475.968379 80.602402 
L 476.152174 83.592407 
L 476.335968 83.352902 
L 476.519763 84.929008 
L 476.703557 84.666075 
L 476.887352 84.692935 
L 477.071146 85.687515 
L 477.254941 74.448246 
L 477.438735 84.7574 
L 477.62253 83.521376 
L 477.806324 92.593312 
L 477.990119 89.91623 
L 478.173913 96.811582 
L 478.357708 97.593069 
L 478.541502 100.604265 
L 478.725296 97.086006 
L 478.909091 96.603862 
L 479.092885 94.97702 
L 479.27668 99.421215 
L 479.460474 99.181263 
L 479.644269 99.597449 
L 479.828063 94.363559 
L 480.011858 96.170366 
L 480.195652 95.369181 
L 480.379447 93.017258 
L 480.563241 95.798648 
L 480.747036 91.736616 
L 480.93083 90.221095 
L 481.114625 91.017953 
L 481.298419 88.26208 
L 481.482213 87.995118 
L 481.666008 87.01561 
L 482.033597 82.701837 
L 482.217391 76.853143 
L 482.401186 75.02067 
L 482.58498 71.163523 
L 482.768775 75.709788 
L 483.320158 62.039955 
L 483.503953 68.192171 
L 483.687747 60.8869 
L 483.871542 67.376064 
L 484.055336 61.620486 
L 484.23913 66.339403 
L 484.422925 62.14292 
L 484.606719 62.874417 
L 484.974308 67.24982 
L 485.158103 68.031307 
L 485.341897 70.690482 
L 485.525692 70.783897 
L 485.709486 79.05435 
L 485.893281 77.28082 
L 486.077075 79.426813 
L 486.628458 88.974626 
L 486.996047 93.101122 
L 487.179842 92.376191 
L 487.363636 93.814862 
L 487.547431 92.6342 
L 487.731225 95.688521 
L 487.91502 93.788151 
L 488.098814 98.014031 
L 488.282609 95.026861 
L 488.466403 98.228914 
L 488.650198 96.394053 
L 488.833992 99.297956 
L 489.017787 96.899923 
L 489.201581 97.26403 
L 489.385375 93.243035 
L 489.56917 94.485475 
L 489.752964 93.119328 
L 490.120553 94.164345 
L 490.671937 88.274764 
L 490.855731 90.602065 
L 491.039526 91.340426 
L 491.22332 86.242181 
L 491.407115 87.660408 
L 491.590909 84.318084 
L 491.774704 84.409559 
L 491.958498 81.956164 
L 492.142292 82.208651 
L 492.509881 78.836482 
L 492.693676 79.578425 
L 492.87747 74.812055 
L 493.061265 79.299077 
L 493.245059 72.058421 
L 493.428854 77.193225 
L 493.612648 72.013206 
L 493.796443 70.449485 
L 493.980237 66.885862 
L 494.347826 69.075727 
L 494.531621 67.741514 
L 494.715415 71.417055 
L 494.899209 70.155812 
L 495.818182 77.141445 
L 496.185771 82.564849 
L 496.369565 80.140553 
L 496.55336 85.519638 
L 496.737154 84.076192 
L 496.920949 90.542524 
L 497.104743 90.496862 
L 497.472332 93.561479 
L 498.20751 99.053527 
L 498.391304 97.998512 
L 498.575099 99.715336 
L 498.758893 99.876051 
L 498.942688 100.519058 
L 499.126482 99.708323 
L 499.310277 100.937482 
L 499.494071 99.085013 
L 499.677866 101.299351 
L 499.86166 99.486874 
L 500.045455 100.329841 
L 500.229249 99.076955 
L 500.413043 99.372419 
L 500.596838 98.791787 
L 500.780632 97.824516 
L 500.964427 97.84884 
L 501.148221 95.594062 
L 501.332016 95.943844 
L 501.51581 94.406536 
L 501.699605 94.57501 
L 501.883399 91.011685 
L 502.067194 91.623057 
L 502.250988 88.175082 
L 502.434783 88.457564 
L 502.618577 85.898219 
L 502.802372 86.3059 
L 503.16996 81.438952 
L 503.353755 80.024307 
L 503.721344 75.914225 
L 503.905138 74.723565 
L 504.088933 74.620003 
L 504.272727 72.386266 
L 504.456522 72.064539 
L 504.640316 69.225847 
L 504.824111 72.87408 
L 505.007905 68.346618 
L 505.1917 69.690382 
L 505.559289 68.320802 
L 505.743083 63.461167 
L 505.926877 65.255438 
L 506.110672 64.083431 
L 506.294466 64.002254 
L 506.478261 62.238722 
L 506.662055 63.51429 
L 506.84585 61.616905 
L 507.029644 65.499718 
L 507.213439 65.650286 
L 507.397233 66.681276 
L 507.581028 68.570902 
L 507.764822 68.695056 
L 507.948617 73.858363 
L 508.132411 74.488537 
L 508.316206 76.796438 
L 508.683794 84.395233 
L 508.867589 85.974174 
L 509.051383 88.840175 
L 509.235178 89.714778 
L 509.418972 93.970652 
L 509.602767 94.727965 
L 509.786561 98.066259 
L 509.970356 96.909623 
L 510.15415 100.317008 
L 510.337945 99.657586 
L 510.521739 101.186985 
L 510.705534 100.135999 
L 510.889328 102.56134 
L 511.073123 101.632569 
L 511.256917 102.602078 
L 511.440711 102.326909 
L 511.624506 103.963749 
L 511.8083 102.934401 
L 511.992095 104.383815 
L 512.175889 102.846209 
L 512.359684 102.65565 
L 512.543478 102.735336 
L 513.278656 101.213547 
L 513.462451 101.067457 
L 514.197628 97.707375 
L 514.381423 97.768408 
L 514.565217 96.8177 
L 514.749012 96.867541 
L 514.932806 94.70394 
L 515.116601 96.684592 
L 515.300395 93.758754 
L 515.48419 94.45772 
L 515.667984 92.608533 
L 515.851779 92.522282 
L 516.035573 90.485521 
L 516.219368 90.269295 
L 516.403162 88.887628 
L 516.586957 88.997457 
L 516.770751 85.219398 
L 516.954545 86.993525 
L 517.13834 82.42428 
L 517.322134 82.988497 
L 517.322134 82.988497 
" clip-path="url(#p1779c9ae3c)" style="fill: none; stroke: #000000; stroke-width: 0.7; stroke-linecap: square"/>
   </g>
   <g id="line2d_30">
    <path d="M 381.130435 135.432 
L 398.22332 135.432 
L 398.22332 125.924152 
L 404.288538 125.924152 
L 404.288538 135.432 
L 410.353755 135.432 
L 410.353755 125.924152 
L 416.418972 125.924152 
L 416.418972 135.432 
L 422.48419 135.432 
L 422.48419 125.924152 
L 428.549407 125.924152 
L 428.549407 135.432 
L 434.614625 135.432 
L 434.614625 125.924152 
L 440.679842 125.924152 
L 440.679842 135.432 
L 446.745059 135.432 
L 446.745059 125.924152 
L 452.810277 125.924152 
L 452.810277 135.432 
L 458.875494 135.432 
L 458.875494 125.924152 
L 464.940711 125.924152 
L 464.940711 135.432 
L 471.005929 135.432 
L 471.005929 125.924152 
L 477.071146 125.924152 
L 477.071146 135.432 
L 517.322134 135.432 
" clip-path="url(#p1779c9ae3c)" style="fill: none; stroke: #000000; stroke-width: 0.7; stroke-linecap: square"/>
   </g>
   <g id="patch_13">
    <path d="M 381.130435 140.976 
L 381.130435 19.008 
" style="fill: none; stroke: #000000; stroke-width: 0.8; stroke-linejoin: miter; stroke-linecap: square"/>
   </g>
   <g id="patch_14">
    <path d="M 502.434783 140.976 
L 502.434783 19.008 
" style="fill: none; stroke: #000000; stroke-width: 0.8; stroke-linejoin: miter; stroke-linecap: square"/>
   </g>
   <g id="patch_15">
    <path d="M 381.130435 140.976 
L 502.434783 140.976 
" style="fill: none; stroke: #000000; stroke-width: 0.8; stroke-linejoin: miter; stroke-linecap: square"/>
   </g>
   <g id="patch_16">
    <path d="M 381.130435 19.008 
L 502.434783 19.008 
" style="fill: none; stroke: #000000; stroke-width: 0.8; stroke-linejoin: miter; stroke-linecap: square"/>
   </g>
  </g>
  <g id="axes_4">
   <g id="patch_17">
    <path d="M 526.695652 140.976 
L 648 140.976 
L 648 19.008 
L 526.695652 19.008 
z
" style="fill: #f2f2f2"/>
   </g>
   <g id="matplotlib.axis_7">
    <g id="xtick_10">
     <g id="line2d_31">
      <g>
       <use xlink:href="#m8dc5ab2c7e" x="526.695652" y="140.976" style="stroke: #000000; stroke-width: 0.8"/>
      </g>
     </g>
     <g id="text_25">
      <!-- 0 -->
      <g transform="translate(523.915183 155.133813) scale(0.1 -0.1)">
       <use xlink:href="#ArialMT-30"/>
      </g>
     </g>
    </g>
    <g id="xtick_11">
     <g id="line2d_32">
      <g>
       <use xlink:href="#m8dc5ab2c7e" x="581.833992" y="140.976" style="stroke: #000000; stroke-width: 0.8"/>
      </g>
     </g>
     <g id="text_26">
      <!-- 50 -->
      <g transform="translate(576.273055 155.133813) scale(0.1 -0.1)">
       <use xlink:href="#ArialMT-35"/>
       <use xlink:href="#ArialMT-30" x="55.615234"/>
      </g>
     </g>
    </g>
    <g id="xtick_12">
     <g id="line2d_33">
      <g>
       <use xlink:href="#m8dc5ab2c7e" x="636.972332" y="140.976" style="stroke: #000000; stroke-width: 0.8"/>
      </g>
     </g>
     <g id="text_27">
      <!-- 100 -->
      <g transform="translate(628.630926 155.133813) scale(0.1 -0.1)">
       <use xlink:href="#ArialMT-31"/>
       <use xlink:href="#ArialMT-30" x="55.615234"/>
       <use xlink:href="#ArialMT-30" x="111.230469"/>
      </g>
     </g>
    </g>
   </g>
   <g id="matplotlib.axis_8">
    <g id="ytick_16">
     <g id="line2d_34">
      <g>
       <use xlink:href="#ma786d6dce0" x="526.695652" y="135.432" style="stroke: #000000; stroke-width: 0.8"/>
      </g>
     </g>
     <g id="text_28">
      <!-- 0 -->
      <g transform="translate(514.134715 139.010906) scale(0.1 -0.1)">
       <use xlink:href="#ArialMT-30"/>
      </g>
     </g>
    </g>
    <g id="ytick_17">
     <g id="line2d_35">
      <g>
       <use xlink:href="#ma786d6dce0" x="526.695652" y="106.569119" style="stroke: #000000; stroke-width: 0.8"/>
      </g>
     </g>
     <g id="text_29">
      <!-- 2 -->
      <g transform="translate(514.134715 110.148026) scale(0.1 -0.1)">
       <use xlink:href="#ArialMT-32"/>
      </g>
     </g>
    </g>
    <g id="ytick_18">
     <g id="line2d_36">
      <g>
       <use xlink:href="#ma786d6dce0" x="526.695652" y="77.706239" style="stroke: #000000; stroke-width: 0.8"/>
      </g>
     </g>
     <g id="text_30">
      <!-- 4 -->
      <g transform="translate(514.134715 81.285145) scale(0.1 -0.1)">
       <use xlink:href="#ArialMT-34"/>
      </g>
     </g>
    </g>
    <g id="ytick_19">
     <g id="line2d_37">
      <g>
       <use xlink:href="#ma786d6dce0" x="526.695652" y="48.843358" style="stroke: #000000; stroke-width: 0.8"/>
      </g>
     </g>
     <g id="text_31">
      <!-- 6 -->
      <g transform="translate(514.134715 52.422264) scale(0.1 -0.1)">
       <defs>
        <path id="ArialMT-36" d="M 3184 3459 
L 2625 3416 
Q 2550 3747 2413 3897 
Q 2184 4138 1850 4138 
Q 1581 4138 1378 3988 
Q 1113 3794 959 3422 
Q 806 3050 800 2363 
Q 1003 2672 1297 2822 
Q 1591 2972 1913 2972 
Q 2475 2972 2870 2558 
Q 3266 2144 3266 1488 
Q 3266 1056 3080 686 
Q 2894 316 2569 119 
Q 2244 -78 1831 -78 
Q 1128 -78 684 439 
Q 241 956 241 2144 
Q 241 3472 731 4075 
Q 1159 4600 1884 4600 
Q 2425 4600 2770 4297 
Q 3116 3994 3184 3459 
z
M 888 1484 
Q 888 1194 1011 928 
Q 1134 663 1356 523 
Q 1578 384 1822 384 
Q 2178 384 2434 671 
Q 2691 959 2691 1453 
Q 2691 1928 2437 2201 
Q 2184 2475 1800 2475 
Q 1419 2475 1153 2201 
Q 888 1928 888 1484 
z
" transform="scale(0.015625)"/>
       </defs>
       <use xlink:href="#ArialMT-36"/>
      </g>
     </g>
    </g>
    <g id="ytick_20">
     <g id="line2d_38">
      <g>
       <use xlink:href="#ma786d6dce0" x="526.695652" y="19.980478" style="stroke: #000000; stroke-width: 0.8"/>
      </g>
     </g>
     <g id="text_32">
      <!-- 8 -->
      <g transform="translate(514.134715 23.559384) scale(0.1 -0.1)">
       <defs>
        <path id="ArialMT-38" d="M 1131 2484 
Q 781 2613 612 2850 
Q 444 3088 444 3419 
Q 444 3919 803 4259 
Q 1163 4600 1759 4600 
Q 2359 4600 2725 4251 
Q 3091 3903 3091 3403 
Q 3091 3084 2923 2848 
Q 2756 2613 2416 2484 
Q 2838 2347 3058 2040 
Q 3278 1734 3278 1309 
Q 3278 722 2862 322 
Q 2447 -78 1769 -78 
Q 1091 -78 675 323 
Q 259 725 259 1325 
Q 259 1772 486 2073 
Q 713 2375 1131 2484 
z
M 1019 3438 
Q 1019 3113 1228 2906 
Q 1438 2700 1772 2700 
Q 2097 2700 2305 2904 
Q 2513 3109 2513 3406 
Q 2513 3716 2298 3927 
Q 2084 4138 1766 4138 
Q 1444 4138 1231 3931 
Q 1019 3725 1019 3438 
z
M 838 1322 
Q 838 1081 952 856 
Q 1066 631 1291 507 
Q 1516 384 1775 384 
Q 2178 384 2440 643 
Q 2703 903 2703 1303 
Q 2703 1709 2433 1975 
Q 2163 2241 1756 2241 
Q 1359 2241 1098 1978 
Q 838 1716 838 1322 
z
" transform="scale(0.015625)"/>
       </defs>
       <use xlink:href="#ArialMT-38"/>
      </g>
     </g>
    </g>
   </g>
   <g id="line2d_39">
    <path d="M 526.879447 121.00056 
L 527.063241 118.044187 
L 527.247036 113.273776 
L 527.614625 111.345359 
L 527.982213 100.604649 
L 528.166008 99.23647 
L 528.349802 103.145759 
L 528.533597 97.659932 
L 528.717391 84.708136 
L 528.901186 83.479106 
L 529.08498 88.415622 
L 529.268775 73.121603 
L 529.452569 73.117232 
L 529.636364 61.451289 
L 529.820158 62.664291 
L 530.003953 59.926477 
L 530.187747 62.514214 
L 530.555336 60.726402 
L 531.106719 71.558907 
L 531.290514 72.563549 
L 531.474308 74.894844 
L 532.577075 114.620827 
L 532.76087 115.151925 
L 533.312253 120.042543 
L 533.496047 117.638396 
L 533.679842 118.374939 
L 533.863636 118.031802 
L 534.047431 119.611983 
L 534.231225 118.127968 
L 534.41502 117.703964 
L 534.598814 116.649053 
L 534.782609 114.716264 
L 534.966403 116.819529 
L 535.333992 115.224778 
L 535.517787 109.277063 
L 535.701581 109.503636 
L 535.885375 113.230793 
L 536.252964 105.854432 
L 536.436759 102.508296 
L 536.620553 105.823105 
L 536.804348 103.719112 
L 536.988142 93.183847 
L 537.355731 102.718841 
L 537.539526 100.067722 
L 537.72332 109.821275 
L 537.907115 111.706709 
L 538.274704 119.906308 
L 538.458498 118.973791 
L 538.642292 121.629281 
L 538.826087 118.68165 
L 539.37747 124.024686 
L 539.561265 120.764516 
L 539.745059 120.834455 
L 539.928854 122.980703 
L 540.112648 122.817512 
L 540.296443 121.259188 
L 540.480237 120.696763 
L 540.664032 120.857768 
L 540.847826 120.865782 
L 541.031621 118.342884 
L 541.215415 118.94465 
L 541.583004 109.277063 
L 541.766798 108.107774 
L 541.950593 106.198298 
L 542.318182 97.108436 
L 542.501976 98.17646 
L 542.685771 100.007254 
L 543.05336 97.301496 
L 543.420949 105.568848 
L 543.972332 114.920253 
L 544.156126 116.523018 
L 544.339921 120.409722 
L 544.523715 120.033073 
L 544.70751 122.988717 
L 545.075099 118.370568 
L 545.442688 116.292802 
L 545.626482 105.39473 
L 545.810277 105.552092 
L 545.994071 95.956631 
L 546.177866 92.904821 
L 546.36166 92.846538 
L 546.545455 90.632537 
L 546.729249 84.190151 
L 546.913043 84.695751 
L 547.096838 93.637721 
L 547.464427 81.87707 
L 547.648221 71.376775 
L 547.832016 69.940115 
L 548.01581 62.793969 
L 548.199605 65.464758 
L 548.383399 55.952349 
L 548.567194 56.128653 
L 548.750988 50.540832 
L 548.934783 53.151881 
L 549.118577 46.851559 
L 549.302372 50.470164 
L 549.486166 59.42962 
L 549.66996 81.705137 
L 549.853755 40.07842 
L 550.037549 38.610433 
L 550.221344 34.900033 
L 550.405138 35.098193 
L 550.588933 35.498884 
L 550.956522 78.232237 
L 551.324111 108.182812 
L 551.6917 115.538046 
L 552.059289 122.353439 
L 552.243083 121.424564 
L 552.426877 119.805043 
L 552.610672 123.107467 
L 552.794466 123.560612 
L 552.978261 120.97579 
L 553.162055 121.66425 
L 553.34585 121.762602 
L 553.529644 122.819698 
L 553.897233 123.268472 
L 554.081028 120.881809 
L 554.264822 120.569999 
L 554.448617 118.901666 
L 554.632411 118.754503 
L 554.816206 107.726753 
L 555.183794 111.04229 
L 555.551383 105.667928 
L 555.735178 103.860447 
L 556.102767 97.618406 
L 556.286561 98.221629 
L 556.65415 85.368912 
L 557.205534 57.288472 
L 557.389328 71.215041 
L 557.573123 70.894488 
L 558.124506 53.126383 
L 558.3083 50.879598 
L 558.675889 29.744958 
L 558.859684 28.967617 
L 559.043478 25.697977 
L 559.227273 24.552 
L 559.411067 29.914705 
L 559.594862 29.626936 
L 559.778656 26.779843 
L 560.146245 41.640387 
L 560.33004 34.140905 
L 560.513834 38.364919 
L 560.697628 54.473434 
L 560.881423 59.820112 
L 561.065217 71.157487 
L 561.249012 73.026894 
L 561.432806 78.604516 
L 561.616601 76.49688 
L 561.800395 78.038448 
L 561.98419 61.608652 
L 562.167984 62.251943 
L 562.351779 62.243201 
L 562.535573 72.018609 
L 562.719368 47.683539 
L 562.903162 85.438122 
L 563.086957 98.61722 
L 563.270751 102.926472 
L 563.454545 115.762433 
L 563.63834 116.579843 
L 564.005929 121.958576 
L 564.189723 122.046728 
L 564.557312 120.908765 
L 564.741107 114.694409 
L 564.924901 117.226777 
L 565.108696 116.644682 
L 565.476285 112.73175 
L 565.660079 112.415568 
L 565.843874 118.906037 
L 566.027668 118.355998 
L 566.395257 114.952308 
L 566.579051 116.147096 
L 566.762846 114.827001 
L 567.498024 103.73514 
L 567.681818 98.87512 
L 567.865613 100.496098 
L 568.049407 98.372434 
L 568.233202 92.968203 
L 568.416996 93.482544 
L 568.600791 88.903008 
L 568.784585 75.919885 
L 568.968379 74.412557 
L 569.519763 65.023269 
L 569.703557 64.092937 
L 570.071146 53.397396 
L 570.254941 52.099156 
L 570.438735 46.060376 
L 570.62253 43.951283 
L 570.990119 27.477774 
L 571.173913 36.222314 
L 571.357708 37.839649 
L 571.541502 33.717629 
L 571.725296 40.577463 
L 571.909091 35.217671 
L 572.092885 45.019307 
L 572.27668 44.461982 
L 572.460474 48.119928 
L 572.644269 55.807371 
L 572.828063 58.524058 
L 573.011858 58.620224 
L 573.195652 61.344195 
L 573.379447 61.34201 
L 573.93083 84.16101 
L 574.114625 82.300346 
L 574.298419 86.826699 
L 574.482213 88.119839 
L 574.666008 86.902466 
L 574.849802 58.782686 
L 575.58498 108.447268 
L 576.136364 117.165581 
L 576.503953 118.583299 
L 576.687747 119.10784 
L 576.871542 118.778545 
L 577.055336 119.332227 
L 577.23913 119.169765 
L 577.422925 118.847755 
L 577.606719 118.119226 
L 577.790514 118.825171 
L 577.974308 118.490047 
L 578.158103 112.51392 
L 578.525692 115.51109 
L 578.709486 112.914611 
L 578.893281 113.012234 
L 579.077075 110.847044 
L 579.444664 111.806518 
L 579.628458 110.857972 
L 579.812253 108.146386 
L 579.996047 108.856702 
L 580.179842 108.289177 
L 580.363636 105.544807 
L 580.547431 108.02545 
L 580.731225 103.857533 
L 580.91502 79.521734 
L 581.098814 84.736548 
L 581.282609 83.332672 
L 581.466403 83.023775 
L 582.201581 58.544457 
L 582.936759 30.53687 
L 583.120553 30.15512 
L 583.304348 27.505458 
L 583.488142 28.095567 
L 583.671937 34.527026 
L 583.855731 33.302367 
L 584.039526 37.107477 
L 584.22332 45.382115 
L 584.407115 42.809677 
L 584.590909 43.792463 
L 584.774704 55.945792 
L 584.958498 54.091684 
L 585.326087 61.021457 
L 585.509881 60.659378 
L 585.87747 71.122518 
L 586.428854 78.477751 
L 586.612648 77.247994 
L 586.796443 77.852673 
L 586.980237 69.111777 
L 587.347826 95.899077 
L 587.715415 110.573846 
L 587.899209 114.327958 
L 588.266798 116.552159 
L 588.450593 117.386325 
L 588.634387 119.673908 
L 588.818182 117.950207 
L 589.001976 119.781001 
L 589.369565 118.216849 
L 589.55336 118.606612 
L 589.737154 117.762975 
L 589.920949 116.297173 
L 590.104743 118.531573 
L 590.472332 118.324671 
L 590.656126 116.357641 
L 590.839921 117.446064 
L 591.20751 115.046288 
L 591.391304 114.950851 
L 591.575099 113.800503 
L 591.758893 110.980365 
L 592.126482 111.764992 
L 592.310277 109.174341 
L 592.494071 108.357659 
L 592.677866 105.621303 
L 592.86166 106.285721 
L 593.045455 93.163449 
L 593.229249 92.159535 
L 593.780632 79.53849 
L 593.964427 77.072418 
L 594.699605 54.128111 
L 594.883399 54.497475 
L 595.067194 45.916127 
L 595.250988 44.578547 
L 595.434783 47.070117 
L 595.802372 41.641116 
L 595.986166 49.151526 
L 596.353755 53.334014 
L 596.537549 59.186291 
L 596.721344 61.063712 
L 596.905138 68.074351 
L 597.088933 67.54471 
L 597.272727 68.408017 
L 597.456522 73.804963 
L 597.640316 74.77755 
L 597.824111 79.037991 
L 598.007905 78.901756 
L 598.1917 77.027978 
L 598.375494 79.773805 
L 598.559289 78.063218 
L 598.743083 81.101915 
L 598.926877 81.384584 
L 599.110672 79.344702 
L 599.84585 113.235893 
L 600.029644 113.434781 
L 600.397233 118.569457 
L 600.581028 117.8198 
L 600.948617 120.527016 
L 601.316206 117.756418 
L 601.5 117.910138 
L 601.683794 119.187978 
L 602.051383 117.879539 
L 602.235178 119.356997 
L 602.418972 113.349543 
L 602.602767 114.868527 
L 602.786561 113.488692 
L 602.970356 110.45801 
L 603.15415 109.988837 
L 603.337945 107.860074 
L 603.889328 87.715505 
L 604.073123 90.550942 
L 604.440711 90.752745 
L 604.624506 87.244147 
L 604.8083 90.631809 
L 604.992095 89.005731 
L 605.175889 82.284318 
L 605.359684 84.543488 
L 605.543478 82.470822 
L 605.727273 76.73948 
L 605.911067 76.114402 
L 606.278656 65.434888 
L 606.462451 66.762269 
L 606.83004 58.756459 
L 607.013834 61.776942 
L 607.197628 61.937947 
L 607.381423 60.42552 
L 607.565217 64.712187 
L 607.749012 62.940403 
L 608.116601 70.993568 
L 608.300395 76.273221 
L 608.48419 75.620459 
L 608.667984 78.638757 
L 608.851779 83.804759 
L 609.035573 84.479377 
L 609.219368 84.50269 
L 609.586957 94.831781 
L 609.770751 93.40532 
L 609.954545 97.572509 
L 610.13834 97.322623 
L 610.322134 97.826766 
L 610.689723 99.2168 
L 610.873518 98.302495 
L 611.057312 98.488999 
L 611.241107 94.405591 
L 611.608696 105.769923 
L 611.976285 112.588958 
L 612.160079 115.344257 
L 612.343874 114.766533 
L 612.527668 117.212935 
L 612.711462 116.352542 
L 612.895257 116.657067 
L 613.262846 115.421481 
L 613.44664 115.621098 
L 613.630435 116.13034 
L 613.814229 116.219221 
L 614.365613 114.412468 
L 614.916996 111.593059 
L 615.284585 112.501535 
L 615.652174 106.445998 
L 615.835968 106.223796 
L 616.019763 103.755539 
L 616.203557 99.186202 
L 616.387352 100.679687 
L 616.754941 92.186491 
L 616.938735 94.426719 
L 617.306324 82.950922 
L 617.490119 92.803555 
L 617.673913 86.256261 
L 618.592885 106.735953 
L 618.77668 107.763179 
L 619.144269 115.728192 
L 619.328063 119.68265 
L 619.511858 117.413281 
L 619.695652 119.347526 
L 619.879447 120.033801 
L 620.063241 119.091812 
L 620.247036 120.84174 
L 620.43083 120.733189 
L 620.614625 118.807686 
L 620.798419 120.694577 
L 620.982213 119.52893 
L 621.166008 116.214121 
L 621.349802 117.033717 
L 621.533597 115.483406 
L 621.717391 116.283331 
L 622.08498 112.708437 
L 623.003953 108.628672 
L 623.555336 103.154502 
L 623.73913 101.377618 
L 623.922925 97.751727 
L 624.106719 91.747916 
L 624.290514 92.437105 
L 624.658103 82.787003 
L 625.209486 69.519025 
L 625.393281 74.884644 
L 625.577075 73.225054 
L 625.76087 69.123433 
L 625.944664 79.893284 
L 627.047431 100.236741 
L 627.231225 100.982027 
L 627.782609 106.327248 
L 627.966403 110.232166 
L 628.150198 107.763179 
L 628.517787 112.98965 
L 628.701581 111.212766 
L 628.885375 113.786661 
L 629.06917 111.809432 
L 629.252964 112.851958 
L 629.436759 112.070245 
L 629.620553 112.506635 
L 629.804348 111.938382 
L 629.988142 109.8781 
L 630.355731 109.797233 
L 630.539526 105.933842 
L 630.72332 108.081547 
L 630.907115 107.908157 
L 631.090909 103.638974 
L 631.274704 105.694155 
L 631.458498 102.423787 
L 631.642292 101.836592 
L 631.826087 101.79288 
L 632.009881 94.678061 
L 632.193676 95.751185 
L 632.37747 92.515786 
L 632.745059 81.239607 
L 632.928854 84.70085 
L 633.112648 75.983995 
L 633.296443 73.710255 
L 633.480237 75.790935 
L 633.664032 79.781091 
L 633.847826 77.877443 
L 634.031621 80.860771 
L 634.215415 89.522258 
L 634.399209 87.021945 
L 634.766798 97.783054 
L 635.134387 100.308137 
L 635.318182 104.084105 
L 635.501976 103.504196 
L 635.685771 106.035107 
L 635.869565 106.266051 
L 636.237154 109.385614 
L 636.604743 111.744593 
L 636.788538 109.048305 
L 636.972332 109.502908 
L 637.523715 112.698238 
L 637.891304 112.882556 
L 638.075099 111.781748 
L 638.258893 111.577031 
L 638.442688 110.673654 
L 638.626482 110.511921 
L 638.994071 109.427869 
L 639.177866 107.553363 
L 639.36166 107.342818 
L 639.913043 100.480799 
L 640.096838 102.299208 
L 640.464427 95.638992 
L 640.648221 95.777412 
L 640.832016 93.956817 
L 641.01581 88.162822 
L 641.199605 87.184407 
L 641.383399 87.15308 
L 641.567194 79.695124 
L 641.750988 84.569715 
L 641.934783 83.60587 
L 642.302372 90.410336 
L 642.486166 92.441476 
L 642.66996 93.068011 
L 643.037549 102.666387 
L 643.221344 101.950243 
L 643.772727 107.459382 
L 643.956522 105.908343 
L 644.140316 109.448268 
L 644.324111 105.44937 
L 644.507905 105.227168 
L 644.875494 112.130713 
L 645.059289 110.983279 
L 645.243083 111.110044 
L 645.426877 110.402641 
L 645.794466 107.836761 
L 645.978261 108.76345 
L 646.713439 102.307222 
L 646.897233 103.706727 
L 647.081028 100.57915 
L 647.264822 100.494641 
L 647.448617 103.797065 
L 647.816206 96.984586 
L 648 95.114451 
L 648.551383 85.208635 
L 648.918972 87.665237 
L 649.102767 87.877967 
L 649.286561 88.72889 
L 649.470356 87.300243 
L 649.65415 87.867039 
L 649.837945 92.47426 
L 650.021739 88.436021 
L 650.205534 92.17702 
L 650.389328 93.121922 
L 650.573123 92.598838 
L 650.756917 93.9998 
L 650.940711 98.977842 
L 651.124506 97.82458 
L 651.3083 98.558209 
L 651.492095 101.728041 
L 651.675889 100.806451 
L 651.859684 105.151401 
L 652.043478 105.460298 
L 652.227273 104.588248 
L 652.411067 108.543434 
L 652.594862 108.434883 
L 652.778656 109.470852 
L 652.962451 105.023908 
L 653.146245 106.742509 
L 653.33004 104.526323 
L 653.513834 134.573064 
L 653.513834 134.573064 
" clip-path="url(#pd1cfd92e7c)" style="fill: none; stroke: #000000; stroke-width: 0.7; stroke-linecap: square"/>
   </g>
   <g id="line2d_40">
    <path d="M 526.695652 135.432 
L 544.70751 135.432 
L 544.70751 123.329683 
L 550.772727 123.329683 
L 550.772727 135.432 
L 556.837945 135.432 
L 556.837945 123.329683 
L 562.903162 123.329683 
L 562.903162 135.432 
L 568.968379 135.432 
L 568.968379 123.329683 
L 575.033597 123.329683 
L 575.033597 135.432 
L 581.098814 135.432 
L 581.098814 123.329683 
L 587.164032 123.329683 
L 587.164032 135.432 
L 593.229249 135.432 
L 593.229249 123.329683 
L 599.294466 123.329683 
L 599.294466 135.432 
L 605.359684 135.432 
L 605.359684 123.329683 
L 611.424901 123.329683 
L 611.424901 135.432 
L 653.513834 135.432 
" clip-path="url(#pd1cfd92e7c)" style="fill: none; stroke: #000000; stroke-width: 0.7; stroke-linecap: square"/>
   </g>
   <g id="patch_18">
    <path d="M 526.695652 140.976 
L 526.695652 19.008 
" style="fill: none; stroke: #000000; stroke-width: 0.8; stroke-linejoin: miter; stroke-linecap: square"/>
   </g>
   <g id="patch_19">
    <path d="M 648 140.976 
L 648 19.008 
" style="fill: none; stroke: #000000; stroke-width: 0.8; stroke-linejoin: miter; stroke-linecap: square"/>
   </g>
   <g id="patch_20">
    <path d="M 526.695652 140.976 
L 648 140.976 
" style="fill: none; stroke: #000000; stroke-width: 0.8; stroke-linejoin: miter; stroke-linecap: square"/>
   </g>
   <g id="patch_21">
    <path d="M 526.695652 19.008 
L 648 19.008 
" style="fill: none; stroke: #000000; stroke-width: 0.8; stroke-linejoin: miter; stroke-linecap: square"/>
   </g>
  </g>
 </g>
 <defs>
  <clipPath id="p6a493cb6c3">
   <rect x="90" y="19.008" width="121.304348" height="121.968"/>
  </clipPath>
  <clipPath id="p5be6c8a4f3">
   <rect x="235.565217" y="19.008" width="121.304348" height="121.968"/>
  </clipPath>
  <clipPath id="p1779c9ae3c">
   <rect x="381.130435" y="19.008" width="121.304348" height="121.968"/>
  </clipPath>
  <clipPath id="pd1cfd92e7c">
   <rect x="526.695652" y="19.008" width="121.304348" height="121.968"/>
  </clipPath>
 </defs>
</svg>
