<?xml version="1.0" encoding="utf-8" standalone="no"?>
<!DOCTYPE svg PUBLIC "-//W3C//DTD SVG 1.1//EN"
  "http://www.w3.org/Graphics/SVG/1.1/DTD/svg11.dtd">
<svg xmlns:xlink="http://www.w3.org/1999/xlink" width="216pt" height="144pt" viewBox="0 0 216 144" xmlns="http://www.w3.org/2000/svg" version="1.1">
 <metadata>
  <rdf:RDF xmlns:dc="http://purl.org/dc/elements/1.1/" xmlns:cc="http://creativecommons.org/ns#" xmlns:rdf="http://www.w3.org/1999/02/22-rdf-syntax-ns#">
   <cc:Work>
    <dc:type rdf:resource="http://purl.org/dc/dcmitype/StillImage"/>
    <dc:date>2024-07-09T19:54:59.792646</dc:date>
    <dc:format>image/svg+xml</dc:format>
    <dc:creator>
     <cc:Agent>
      <dc:title>Matplotlib v3.8.3, https://matplotlib.org/</dc:title>
     </cc:Agent>
    </dc:creator>
   </cc:Work>
  </rdf:RDF>
 </metadata>
 <defs>
  <style type="text/css">*{stroke-linejoin: round; stroke-linecap: butt}</style>
 </defs>
 <g id="figure_1">
  <g id="patch_1">
   <path d="M 0 144 
L 216 144 
L 216 0 
L 0 0 
z
" style="fill: #ffffff"/>
  </g>
  <g id="axes_1">
   <g id="patch_2">
    <path d="M 27 128.16 
L 194.4 128.16 
L 194.4 17.28 
L 27 17.28 
z
" style="fill: #f2f2f2"/>
   </g>
   <g id="matplotlib.axis_1">
    <g id="xtick_1">
     <g id="line2d_1">
      <defs>
       <path id="m1238098537" d="M 0 0 
L 0 3.5 
" style="stroke: #000000; stroke-width: 0.8"/>
      </defs>
      <g>
       <use xlink:href="#m1238098537" x="43.74" y="128.16" style="stroke: #000000; stroke-width: 0.8"/>
      </g>
     </g>
     <g id="text_1">
      <!-- 30 -->
      <g transform="translate(38.179063 142.317813) scale(0.1 -0.1)">
       <defs>
        <path id="ArialMT-33" d="M 269 1209 
L 831 1284 
Q 928 806 1161 595 
Q 1394 384 1728 384 
Q 2125 384 2398 659 
Q 2672 934 2672 1341 
Q 2672 1728 2419 1979 
Q 2166 2231 1775 2231 
Q 1616 2231 1378 2169 
L 1441 2663 
Q 1497 2656 1531 2656 
Q 1891 2656 2178 2843 
Q 2466 3031 2466 3422 
Q 2466 3731 2256 3934 
Q 2047 4138 1716 4138 
Q 1388 4138 1169 3931 
Q 950 3725 888 3313 
L 325 3413 
Q 428 3978 793 4289 
Q 1159 4600 1703 4600 
Q 2078 4600 2393 4439 
Q 2709 4278 2876 4000 
Q 3044 3722 3044 3409 
Q 3044 3113 2884 2869 
Q 2725 2625 2413 2481 
Q 2819 2388 3044 2092 
Q 3269 1797 3269 1353 
Q 3269 753 2831 336 
Q 2394 -81 1725 -81 
Q 1122 -81 723 278 
Q 325 638 269 1209 
z
" transform="scale(0.015625)"/>
        <path id="ArialMT-30" d="M 266 2259 
Q 266 3072 433 3567 
Q 600 4063 929 4331 
Q 1259 4600 1759 4600 
Q 2128 4600 2406 4451 
Q 2684 4303 2865 4023 
Q 3047 3744 3150 3342 
Q 3253 2941 3253 2259 
Q 3253 1453 3087 958 
Q 2922 463 2592 192 
Q 2263 -78 1759 -78 
Q 1097 -78 719 397 
Q 266 969 266 2259 
z
M 844 2259 
Q 844 1131 1108 757 
Q 1372 384 1759 384 
Q 2147 384 2411 759 
Q 2675 1134 2675 2259 
Q 2675 3391 2411 3762 
Q 2147 4134 1753 4134 
Q 1366 4134 1134 3806 
Q 844 3388 844 2259 
z
" transform="scale(0.015625)"/>
       </defs>
       <use xlink:href="#ArialMT-33"/>
       <use xlink:href="#ArialMT-30" x="55.615234"/>
      </g>
     </g>
    </g>
    <g id="xtick_2">
     <g id="line2d_2">
      <g>
       <use xlink:href="#m1238098537" x="80.94" y="128.16" style="stroke: #000000; stroke-width: 0.8"/>
      </g>
     </g>
     <g id="text_2">
      <!-- 40 -->
      <g transform="translate(75.379063 142.317813) scale(0.1 -0.1)">
       <defs>
        <path id="ArialMT-34" d="M 2069 0 
L 2069 1097 
L 81 1097 
L 81 1613 
L 2172 4581 
L 2631 4581 
L 2631 1613 
L 3250 1613 
L 3250 1097 
L 2631 1097 
L 2631 0 
L 2069 0 
z
M 2069 1613 
L 2069 3678 
L 634 1613 
L 2069 1613 
z
" transform="scale(0.015625)"/>
       </defs>
       <use xlink:href="#ArialMT-34"/>
       <use xlink:href="#ArialMT-30" x="55.615234"/>
      </g>
     </g>
    </g>
    <g id="xtick_3">
     <g id="line2d_3">
      <g>
       <use xlink:href="#m1238098537" x="118.14" y="128.16" style="stroke: #000000; stroke-width: 0.8"/>
      </g>
     </g>
     <g id="text_3">
      <!-- 50 -->
      <g transform="translate(112.579063 142.317813) scale(0.1 -0.1)">
       <defs>
        <path id="ArialMT-35" d="M 266 1200 
L 856 1250 
Q 922 819 1161 601 
Q 1400 384 1738 384 
Q 2144 384 2425 690 
Q 2706 997 2706 1503 
Q 2706 1984 2436 2262 
Q 2166 2541 1728 2541 
Q 1456 2541 1237 2417 
Q 1019 2294 894 2097 
L 366 2166 
L 809 4519 
L 3088 4519 
L 3088 3981 
L 1259 3981 
L 1013 2750 
Q 1425 3038 1878 3038 
Q 2478 3038 2890 2622 
Q 3303 2206 3303 1553 
Q 3303 931 2941 478 
Q 2500 -78 1738 -78 
Q 1113 -78 717 272 
Q 322 622 266 1200 
z
" transform="scale(0.015625)"/>
       </defs>
       <use xlink:href="#ArialMT-35"/>
       <use xlink:href="#ArialMT-30" x="55.615234"/>
      </g>
     </g>
    </g>
    <g id="xtick_4">
     <g id="line2d_4">
      <g>
       <use xlink:href="#m1238098537" x="155.34" y="128.16" style="stroke: #000000; stroke-width: 0.8"/>
      </g>
     </g>
     <g id="text_4">
      <!-- 60 -->
      <g transform="translate(149.779063 142.317813) scale(0.1 -0.1)">
       <defs>
        <path id="ArialMT-36" d="M 3184 3459 
L 2625 3416 
Q 2550 3747 2413 3897 
Q 2184 4138 1850 4138 
Q 1581 4138 1378 3988 
Q 1113 3794 959 3422 
Q 806 3050 800 2363 
Q 1003 2672 1297 2822 
Q 1591 2972 1913 2972 
Q 2475 2972 2870 2558 
Q 3266 2144 3266 1488 
Q 3266 1056 3080 686 
Q 2894 316 2569 119 
Q 2244 -78 1831 -78 
Q 1128 -78 684 439 
Q 241 956 241 2144 
Q 241 3472 731 4075 
Q 1159 4600 1884 4600 
Q 2425 4600 2770 4297 
Q 3116 3994 3184 3459 
z
M 888 1484 
Q 888 1194 1011 928 
Q 1134 663 1356 523 
Q 1578 384 1822 384 
Q 2178 384 2434 671 
Q 2691 959 2691 1453 
Q 2691 1928 2437 2201 
Q 2184 2475 1800 2475 
Q 1419 2475 1153 2201 
Q 888 1928 888 1484 
z
" transform="scale(0.015625)"/>
       </defs>
       <use xlink:href="#ArialMT-36"/>
       <use xlink:href="#ArialMT-30" x="55.615234"/>
      </g>
     </g>
    </g>
    <g id="xtick_5">
     <g id="line2d_5">
      <g>
       <use xlink:href="#m1238098537" x="192.54" y="128.16" style="stroke: #000000; stroke-width: 0.8"/>
      </g>
     </g>
     <g id="text_5">
      <!-- 70 -->
      <g transform="translate(186.979063 142.317813) scale(0.1 -0.1)">
       <defs>
        <path id="ArialMT-37" d="M 303 3981 
L 303 4522 
L 3269 4522 
L 3269 4084 
Q 2831 3619 2401 2847 
Q 1972 2075 1738 1259 
Q 1569 684 1522 0 
L 944 0 
Q 953 541 1156 1306 
Q 1359 2072 1739 2783 
Q 2119 3494 2547 3981 
L 303 3981 
z
" transform="scale(0.015625)"/>
       </defs>
       <use xlink:href="#ArialMT-37"/>
       <use xlink:href="#ArialMT-30" x="55.615234"/>
      </g>
     </g>
    </g>
    <g id="text_6">
     <!-- Time (h) -->
     <g transform="translate(92.278125 155.585) scale(0.1 -0.1)">
      <defs>
       <path id="ArialMT-54" d="M 1659 0 
L 1659 4041 
L 150 4041 
L 150 4581 
L 3781 4581 
L 3781 4041 
L 2266 4041 
L 2266 0 
L 1659 0 
z
" transform="scale(0.015625)"/>
       <path id="ArialMT-69" d="M 425 3934 
L 425 4581 
L 988 4581 
L 988 3934 
L 425 3934 
z
M 425 0 
L 425 3319 
L 988 3319 
L 988 0 
L 425 0 
z
" transform="scale(0.015625)"/>
       <path id="ArialMT-6d" d="M 422 0 
L 422 3319 
L 925 3319 
L 925 2853 
Q 1081 3097 1340 3245 
Q 1600 3394 1931 3394 
Q 2300 3394 2536 3241 
Q 2772 3088 2869 2813 
Q 3263 3394 3894 3394 
Q 4388 3394 4653 3120 
Q 4919 2847 4919 2278 
L 4919 0 
L 4359 0 
L 4359 2091 
Q 4359 2428 4304 2576 
Q 4250 2725 4106 2815 
Q 3963 2906 3769 2906 
Q 3419 2906 3187 2673 
Q 2956 2441 2956 1928 
L 2956 0 
L 2394 0 
L 2394 2156 
Q 2394 2531 2256 2718 
Q 2119 2906 1806 2906 
Q 1569 2906 1367 2781 
Q 1166 2656 1075 2415 
Q 984 2175 984 1722 
L 984 0 
L 422 0 
z
" transform="scale(0.015625)"/>
       <path id="ArialMT-65" d="M 2694 1069 
L 3275 997 
Q 3138 488 2766 206 
Q 2394 -75 1816 -75 
Q 1088 -75 661 373 
Q 234 822 234 1631 
Q 234 2469 665 2931 
Q 1097 3394 1784 3394 
Q 2450 3394 2872 2941 
Q 3294 2488 3294 1666 
Q 3294 1616 3291 1516 
L 816 1516 
Q 847 969 1125 678 
Q 1403 388 1819 388 
Q 2128 388 2347 550 
Q 2566 713 2694 1069 
z
M 847 1978 
L 2700 1978 
Q 2663 2397 2488 2606 
Q 2219 2931 1791 2931 
Q 1403 2931 1139 2672 
Q 875 2413 847 1978 
z
" transform="scale(0.015625)"/>
       <path id="ArialMT-20" transform="scale(0.015625)"/>
       <path id="ArialMT-28" d="M 1497 -1347 
Q 1031 -759 709 28 
Q 388 816 388 1659 
Q 388 2403 628 3084 
Q 909 3875 1497 4659 
L 1900 4659 
Q 1522 4009 1400 3731 
Q 1209 3300 1100 2831 
Q 966 2247 966 1656 
Q 966 153 1900 -1347 
L 1497 -1347 
z
" transform="scale(0.015625)"/>
       <path id="ArialMT-68" d="M 422 0 
L 422 4581 
L 984 4581 
L 984 2938 
Q 1378 3394 1978 3394 
Q 2347 3394 2619 3248 
Q 2891 3103 3008 2847 
Q 3125 2591 3125 2103 
L 3125 0 
L 2563 0 
L 2563 2103 
Q 2563 2525 2380 2717 
Q 2197 2909 1863 2909 
Q 1613 2909 1392 2779 
Q 1172 2650 1078 2428 
Q 984 2206 984 1816 
L 984 0 
L 422 0 
z
" transform="scale(0.015625)"/>
       <path id="ArialMT-29" d="M 791 -1347 
L 388 -1347 
Q 1322 153 1322 1656 
Q 1322 2244 1188 2822 
Q 1081 3291 891 3722 
Q 769 4003 388 4659 
L 791 4659 
Q 1378 3875 1659 3084 
Q 1900 2403 1900 1659 
Q 1900 816 1576 28 
Q 1253 -759 791 -1347 
z
" transform="scale(0.015625)"/>
      </defs>
      <use xlink:href="#ArialMT-54"/>
      <use xlink:href="#ArialMT-69" x="57.333984"/>
      <use xlink:href="#ArialMT-6d" x="79.550781"/>
      <use xlink:href="#ArialMT-65" x="162.851562"/>
      <use xlink:href="#ArialMT-20" x="218.466797"/>
      <use xlink:href="#ArialMT-28" x="246.25"/>
      <use xlink:href="#ArialMT-68" x="279.550781"/>
      <use xlink:href="#ArialMT-29" x="335.166016"/>
     </g>
    </g>
   </g>
   <g id="matplotlib.axis_2">
    <g id="ytick_1">
     <g id="line2d_6">
      <defs>
       <path id="m680209bc55" d="M 0 0 
L -3.5 0 
" style="stroke: #000000; stroke-width: 0.8"/>
      </defs>
      <g>
       <use xlink:href="#m680209bc55" x="27" y="109.68" style="stroke: #000000; stroke-width: 0.8"/>
      </g>
     </g>
     <g id="text_7">
      <!-- 4 -->
      <g transform="translate(14.439062 113.258906) scale(0.1 -0.1)">
       <use xlink:href="#ArialMT-34"/>
      </g>
     </g>
    </g>
    <g id="ytick_2">
     <g id="line2d_7">
      <g>
       <use xlink:href="#m680209bc55" x="27" y="72.72" style="stroke: #000000; stroke-width: 0.8"/>
      </g>
     </g>
     <g id="text_8">
      <!-- 6 -->
      <g transform="translate(14.439062 76.298906) scale(0.1 -0.1)">
       <use xlink:href="#ArialMT-36"/>
      </g>
     </g>
    </g>
    <g id="ytick_3">
     <g id="line2d_8">
      <g>
       <use xlink:href="#m680209bc55" x="27" y="35.76" style="stroke: #000000; stroke-width: 0.8"/>
      </g>
     </g>
     <g id="text_9">
      <!-- 8 -->
      <g transform="translate(14.439062 39.338906) scale(0.1 -0.1)">
       <defs>
        <path id="ArialMT-38" d="M 1131 2484 
Q 781 2613 612 2850 
Q 444 3088 444 3419 
Q 444 3919 803 4259 
Q 1163 4600 1759 4600 
Q 2359 4600 2725 4251 
Q 3091 3903 3091 3403 
Q 3091 3084 2923 2848 
Q 2756 2613 2416 2484 
Q 2838 2347 3058 2040 
Q 3278 1734 3278 1309 
Q 3278 722 2862 322 
Q 2447 -78 1769 -78 
Q 1091 -78 675 323 
Q 259 725 259 1325 
Q 259 1772 486 2073 
Q 713 2375 1131 2484 
z
M 1019 3438 
Q 1019 3113 1228 2906 
Q 1438 2700 1772 2700 
Q 2097 2700 2305 2904 
Q 2513 3109 2513 3406 
Q 2513 3716 2298 3927 
Q 2084 4138 1766 4138 
Q 1444 4138 1231 3931 
Q 1019 3725 1019 3438 
z
M 838 1322 
Q 838 1081 952 856 
Q 1066 631 1291 507 
Q 1516 384 1775 384 
Q 2178 384 2440 643 
Q 2703 903 2703 1303 
Q 2703 1709 2433 1975 
Q 2163 2241 1756 2241 
Q 1359 2241 1098 1978 
Q 838 1716 838 1322 
z
" transform="scale(0.015625)"/>
       </defs>
       <use xlink:href="#ArialMT-38"/>
      </g>
     </g>
    </g>
    <g id="text_10">
     <!-- p53 level (F.C.) -->
     <g transform="translate(8.334375 106.33875) rotate(-90) scale(0.1 -0.1)">
      <defs>
       <path id="ArialMT-70" d="M 422 -1272 
L 422 3319 
L 934 3319 
L 934 2888 
Q 1116 3141 1344 3267 
Q 1572 3394 1897 3394 
Q 2322 3394 2647 3175 
Q 2972 2956 3137 2557 
Q 3303 2159 3303 1684 
Q 3303 1175 3120 767 
Q 2938 359 2589 142 
Q 2241 -75 1856 -75 
Q 1575 -75 1351 44 
Q 1128 163 984 344 
L 984 -1272 
L 422 -1272 
z
M 931 1641 
Q 931 1000 1190 694 
Q 1450 388 1819 388 
Q 2194 388 2461 705 
Q 2728 1022 2728 1688 
Q 2728 2322 2467 2637 
Q 2206 2953 1844 2953 
Q 1484 2953 1207 2617 
Q 931 2281 931 1641 
z
" transform="scale(0.015625)"/>
       <path id="ArialMT-6c" d="M 409 0 
L 409 4581 
L 972 4581 
L 972 0 
L 409 0 
z
" transform="scale(0.015625)"/>
       <path id="ArialMT-76" d="M 1344 0 
L 81 3319 
L 675 3319 
L 1388 1331 
Q 1503 1009 1600 663 
Q 1675 925 1809 1294 
L 2547 3319 
L 3125 3319 
L 1869 0 
L 1344 0 
z
" transform="scale(0.015625)"/>
       <path id="ArialMT-46" d="M 525 0 
L 525 4581 
L 3616 4581 
L 3616 4041 
L 1131 4041 
L 1131 2622 
L 3281 2622 
L 3281 2081 
L 1131 2081 
L 1131 0 
L 525 0 
z
" transform="scale(0.015625)"/>
       <path id="ArialMT-2e" d="M 581 0 
L 581 641 
L 1222 641 
L 1222 0 
L 581 0 
z
" transform="scale(0.015625)"/>
       <path id="ArialMT-43" d="M 3763 1606 
L 4369 1453 
Q 4178 706 3683 314 
Q 3188 -78 2472 -78 
Q 1731 -78 1267 223 
Q 803 525 561 1097 
Q 319 1669 319 2325 
Q 319 3041 592 3573 
Q 866 4106 1370 4382 
Q 1875 4659 2481 4659 
Q 3169 4659 3637 4309 
Q 4106 3959 4291 3325 
L 3694 3184 
Q 3534 3684 3231 3912 
Q 2928 4141 2469 4141 
Q 1941 4141 1586 3887 
Q 1231 3634 1087 3207 
Q 944 2781 944 2328 
Q 944 1744 1114 1308 
Q 1284 872 1643 656 
Q 2003 441 2422 441 
Q 2931 441 3284 734 
Q 3638 1028 3763 1606 
z
" transform="scale(0.015625)"/>
      </defs>
      <use xlink:href="#ArialMT-70"/>
      <use xlink:href="#ArialMT-35" x="55.615234"/>
      <use xlink:href="#ArialMT-33" x="111.230469"/>
      <use xlink:href="#ArialMT-20" x="166.845703"/>
      <use xlink:href="#ArialMT-6c" x="194.628906"/>
      <use xlink:href="#ArialMT-65" x="216.845703"/>
      <use xlink:href="#ArialMT-76" x="272.460938"/>
      <use xlink:href="#ArialMT-65" x="322.460938"/>
      <use xlink:href="#ArialMT-6c" x="378.076172"/>
      <use xlink:href="#ArialMT-20" x="400.292969"/>
      <use xlink:href="#ArialMT-28" x="428.076172"/>
      <use xlink:href="#ArialMT-46" x="461.376953"/>
      <use xlink:href="#ArialMT-2e" x="511.335938"/>
      <use xlink:href="#ArialMT-43" x="539.119141"/>
      <use xlink:href="#ArialMT-2e" x="611.335938"/>
      <use xlink:href="#ArialMT-29" x="639.119141"/>
     </g>
    </g>
   </g>
   <g id="line2d_9">
    <path d="M -1 123.555288 
L -0.9 123.520433 
L -0.28 127.147417 
L 0.96 129.644169 
L 1.58 130.009428 
L 2.2 131.070252 
L 2.82 126.606422 
L 3.44 127.643617 
L 4.06 124.133791 
L 4.68 126.119083 
L 5.3 122.229722 
L 5.92 123.771486 
L 6.54 120.430505 
L 7.16 120.460041 
L 7.78 117.442968 
L 8.4 112.057624 
L 9.02 110.445959 
L 9.64 107.059198 
L 10.26 106.097811 
L 10.88 90.398106 
L 11.5 89.116256 
L 12.12 105.282625 
L 12.74 116.252679 
L 13.36 122.828313 
L 14.6 130.774895 
L 15.22 131.637337 
L 15.84 129.776588 
L 16.46 126.291866 
L 17.08 119.021652 
L 17.7 118.203021 
L 18.32 120.847451 
L 18.94 118.317225 
L 19.56 117.646765 
L 20.18 115.324274 
L 20.8 120.186836 
L 21.42 117.698945 
L 22.04 120.465456 
L 22.66 115.57385 
L 23.28 114.968861 
L 24.52 108.185001 
L 25.14 103.190513 
L 25.76 102.135103 
L 26.38 91.262025 
L 27 91.841417 
L 27.62 82.245266 
L 28.24 79.979877 
L 28.86 67.649211 
L 29.48 66.930017 
L 30.1 58.437024 
L 30.72 61.814924 
L 31.34 46.148693 
L 31.96 62.488831 
L 32.58 60.760007 
L 33.2 68.656871 
L 33.82 72.298132 
L 35.06 92.617222 
L 35.68 106.794854 
L 36.3 109.540198 
L 36.92 120.968547 
L 37.54 119.813209 
L 38.16 125.17837 
L 38.78 123.003065 
L 39.4 126.219012 
L 40.02 121.557293 
L 40.64 123.701093 
L 41.26 109.243856 
L 41.88 109.139004 
L 42.5 107.915734 
L 43.12 105.834451 
L 43.74 101.996778 
L 44.36 101.406064 
L 44.98 110.272191 
L 45.6 111.388641 
L 46.22 108.346463 
L 46.84 108.973604 
L 47.46 104.03868 
L 48.08 105.028618 
L 48.7 97.506858 
L 49.32 97.666843 
L 49.94 90.006265 
L 50.56 93.528891 
L 51.8 69.632534 
L 52.42 64.639523 
L 53.66 94.166862 
L 54.28 107.928533 
L 55.52 119.267783 
L 56.14 120.230647 
L 56.76 120.809055 
L 57.38 121.881693 
L 58 120.964609 
L 58.62 123.536185 
L 59.24 120.369957 
L 59.86 120.712079 
L 60.48 118.480164 
L 61.1 115.202685 
L 61.72 114.262465 
L 62.34 115.355778 
L 62.96 111.922745 
L 63.58 117.234742 
L 64.2 113.514719 
L 64.82 114.460847 
L 65.44 109.672124 
L 66.06 109.633727 
L 66.68 101.616752 
L 67.3 100.134059 
L 67.92 93.201044 
L 68.54 91.029185 
L 69.16 84.791244 
L 69.78 85.074787 
L 70.4 76.83777 
L 71.02 78.245639 
L 72.88 46.573023 
L 73.5 57.684356 
L 74.12 53.896894 
L 75.36 66.260048 
L 75.98 81.006243 
L 77.22 100.378713 
L 77.84 105.74929 
L 78.46 108.539429 
L 79.08 113.161275 
L 79.7 114.610494 
L 80.32 116.857669 
L 80.94 114.454447 
L 81.56 116.900496 
L 82.18 110.167339 
L 82.8 110.515368 
L 83.42 105.686772 
L 84.04 108.273608 
L 84.66 104.921798 
L 85.28 107.003573 
L 85.9 104.660406 
L 86.52 106.594503 
L 87.14 98.945247 
L 87.76 101.330255 
L 88.38 93.834585 
L 89 92.732903 
L 89.62 83.553698 
L 90.24 82.32452 
L 90.86 66.278262 
L 91.48 70.952288 
L 92.1 65.870669 
L 92.72 64.677427 
L 93.34 50.488965 
L 93.96 82.247235 
L 94.58 96.717762 
L 95.2 102.721387 
L 95.82 107.125161 
L 96.44 107.794637 
L 97.06 108.216998 
L 97.68 107.051814 
L 98.3 107.086765 
L 98.92 109.940406 
L 99.54 110.767899 
L 100.16 109.29259 
L 100.78 108.412426 
L 101.4 107.126638 
L 102.02 108.922409 
L 102.64 108.148081 
L 103.26 108.213552 
L 103.88 105.249152 
L 104.5 106.553645 
L 105.12 102.080462 
L 105.74 104.001268 
L 106.36 97.946448 
L 106.98 96.617341 
L 107.6 91.217229 
L 108.22 87.248615 
L 108.84 84.6859 
L 109.46 79.982831 
L 110.7 73.127101 
L 111.32 73.003051 
L 111.94 66.411173 
L 112.56 68.342808 
L 113.18 65.973552 
L 113.8 54.659899 
L 114.42 48.613448 
L 115.04 61.799664 
L 115.66 59.646019 
L 116.28 63.469416 
L 116.9 61.515137 
L 117.52 69.460242 
L 118.14 68.63915 
L 118.76 79.47777 
L 119.38 80.215178 
L 120 89.741428 
L 121.24 92.308574 
L 121.86 95.434436 
L 122.48 95.108066 
L 123.1 101.252478 
L 123.72 99.737296 
L 124.34 100.854731 
L 124.96 99.878575 
L 125.58 101.932292 
L 126.2 97.804184 
L 126.82 99.969644 
L 127.44 97.097789 
L 128.06 95.978385 
L 128.68 88.35325 
L 129.3 90.815051 
L 129.92 83.495118 
L 130.54 82.187179 
L 131.16 75.619422 
L 131.78 74.368585 
L 132.4 65.580727 
L 133.02 68.184792 
L 133.64 59.848831 
L 134.26 46.43322 
L 136.12 94.481909 
L 136.74 101.141719 
L 137.36 106.067291 
L 137.98 103.689174 
L 138.6 107.191124 
L 139.22 105.710401 
L 139.84 109.452575 
L 140.46 107.685355 
L 141.08 113.081529 
L 141.7 109.139004 
L 142.32 110.696521 
L 142.94 108.555674 
L 143.56 110.002431 
L 144.18 102.666254 
L 144.8 105.999851 
L 145.42 103.321947 
L 146.04 101.708805 
L 146.66 99.624076 
L 147.28 98.012903 
L 147.9 95.970017 
L 148.52 92.599993 
L 149.76 88.370479 
L 150.38 88.626948 
L 151 84.299966 
L 151.62 84.067619 
L 152.24 69.985978 
L 152.86 77.076517 
L 153.48 64.833966 
L 154.1 68.339362 
L 154.72 25.960544 
L 155.34 44.965788 
L 155.96 40.267641 
L 156.58 43.371844 
L 157.2 34.396435 
L 157.82 34.434831 
L 158.44 27.592885 
L 159.06 34.626813 
L 159.68 38.677636 
L 160.3 56.149483 
L 160.92 63.674197 
L 161.54 74.081596 
L 162.16 78.194443 
L 162.78 88.073645 
L 163.4 88.831729 
L 164.02 94.368197 
L 164.64 94.581839 
L 165.26 98.774432 
L 165.88 92.225874 
L 166.5 99.130337 
L 167.12 95.986261 
L 167.74 98.883222 
L 168.36 96.839351 
L 168.98 98.818736 
L 169.6 94.47551 
L 170.22 94.745269 
L 170.84 93.201536 
L 171.46 91.193108 
L 172.08 89.745859 
L 172.7 88.998605 
L 173.32 84.482103 
L 173.94 81.324244 
L 174.56 77.425038 
L 175.18 56.618117 
L 176.42 81.094358 
L 177.04 78.651755 
L 177.66 84.495394 
L 178.28 79.199642 
L 178.9 80.101466 
L 179.52 76.459713 
L 180.14 77.960619 
L 180.76 72.086951 
L 181.38 80.60948 
L 182 73.280194 
L 182.62 73.590811 
L 183.24 64.921096 
L 183.86 68.795689 
L 184.48 64.063576 
L 185.1 64.932911 
L 185.72 58.781115 
L 186.34 58.583226 
L 186.96 50.193608 
L 187.58 53.370173 
L 188.2 50.349163 
L 188.82 50.847824 
L 189.44 46.115711 
L 190.06 50.40725 
L 190.68 59.292575 
L 191.3 71.556785 
L 191.92 77.53432 
L 192.54 89.196494 
L 193.16 87.199388 
L 193.78 94.525228 
L 194.4 93.399426 
L 195.02 97.43548 
L 195.64 62.966817 
L 196.26 74.35234 
L 196.88 73.346157 
L 197.5 84.64455 
L 198.12 79.342398 
L 198.74 78.030028 
L 199.36 80.497736 
L 199.98 78.052672 
L 200.6 70.068678 
L 201.84 67.411941 
L 202.46 64.14923 
L 203.08 49.620615 
L 203.7 64.539101 
L 204.32 60.809234 
L 204.94 60.728503 
L 205.56 49.857886 
L 206.18 61.081947 
L 206.8 58.892366 
L 207.42 73.451501 
L 208.04 72.954317 
L 208.66 81.567913 
L 209.28 82.691747 
L 209.9 90.34691 
L 210.52 87.222525 
L 211.14 86.248831 
L 211.76 93.501324 
L 212.38 80.876778 
L 213 94.404132 
L 213.62 97.168674 
L 214.24 96.196949 
L 214.86 96.93485 
L 215.48 86.907477 
L 216.1 68.321641 
L 216.72 74.854447 
L 217 80.570083 
L 217 80.570083 
" clip-path="url(#p3eb5808808)" style="fill: none; stroke: #000000; stroke-width: 1.5; stroke-linecap: square"/>
   </g>
   <g id="LineCollection_1">
    <path clip-path="url(#p3eb5808808)" style="fill: none; stroke-dasharray: 5.55,2.4; stroke-dashoffset: 0; stroke: #7f7f7f; stroke-width: 1.5"/>
    <path d="M 30.72 132.183748 
L 30.72 -1 
" clip-path="url(#p3eb5808808)" style="fill: none; stroke-dasharray: 5.55,2.4; stroke-dashoffset: 0; stroke: #7f7f7f; stroke-width: 1.5"/>
    <path d="M 71.64 132.183748 
L 71.64 -1 
" clip-path="url(#p3eb5808808)" style="fill: none; stroke-dasharray: 5.55,2.4; stroke-dashoffset: 0; stroke: #7f7f7f; stroke-width: 1.5"/>
    <path d="M 112.56 132.183748 
L 112.56 -1 
" clip-path="url(#p3eb5808808)" style="fill: none; stroke-dasharray: 5.55,2.4; stroke-dashoffset: 0; stroke: #7f7f7f; stroke-width: 1.5"/>
    <path d="M 153.48 132.183748 
L 153.48 -1 
" clip-path="url(#p3eb5808808)" style="fill: none; stroke-dasharray: 5.55,2.4; stroke-dashoffset: 0; stroke: #7f7f7f; stroke-width: 1.5"/>
    <path d="M 194.4 132.183748 
L 194.4 -1 
" clip-path="url(#p3eb5808808)" style="fill: none; stroke-dasharray: 5.55,2.4; stroke-dashoffset: 0; stroke: #7f7f7f; stroke-width: 1.5"/>
    <path clip-path="url(#p3eb5808808)" style="fill: none; stroke-dasharray: 5.55,2.4; stroke-dashoffset: 0; stroke: #7f7f7f; stroke-width: 1.5"/>
   </g>
   <g id="patch_3">
    <path d="M 27 128.16 
L 27 17.28 
" style="fill: none; stroke: #000000; stroke-width: 0.8; stroke-linejoin: miter; stroke-linecap: square"/>
   </g>
   <g id="patch_4">
    <path d="M 194.4 128.16 
L 194.4 17.28 
" style="fill: none; stroke: #000000; stroke-width: 0.8; stroke-linejoin: miter; stroke-linecap: square"/>
   </g>
   <g id="patch_5">
    <path d="M 27 128.16 
L 194.4 128.16 
" style="fill: none; stroke: #000000; stroke-width: 0.8; stroke-linejoin: miter; stroke-linecap: square"/>
   </g>
   <g id="patch_6">
    <path d="M 27 17.28 
L 194.4 17.28 
" style="fill: none; stroke: #000000; stroke-width: 0.8; stroke-linejoin: miter; stroke-linecap: square"/>
   </g>
  </g>
 </g>
 <defs>
  <clipPath id="p3eb5808808">
   <rect x="27" y="17.28" width="167.4" height="110.88"/>
  </clipPath>
 </defs>
</svg>
