<?xml version="1.0" encoding="utf-8" standalone="no"?>
<!DOCTYPE svg PUBLIC "-//W3C//DTD SVG 1.1//EN"
  "http://www.w3.org/Graphics/SVG/1.1/DTD/svg11.dtd">
<svg xmlns:xlink="http://www.w3.org/1999/xlink" width="216pt" height="72pt" viewBox="0 0 216 72" xmlns="http://www.w3.org/2000/svg" version="1.1">
 <metadata>
  <rdf:RDF xmlns:dc="http://purl.org/dc/elements/1.1/" xmlns:cc="http://creativecommons.org/ns#" xmlns:rdf="http://www.w3.org/1999/02/22-rdf-syntax-ns#">
   <cc:Work>
    <dc:type rdf:resource="http://purl.org/dc/dcmitype/StillImage"/>
    <dc:date>2023-12-08T16:12:15.173143</dc:date>
    <dc:format>image/svg+xml</dc:format>
    <dc:creator>
     <cc:Agent>
      <dc:title>Matplotlib v3.5.3, https://matplotlib.org/</dc:title>
     </cc:Agent>
    </dc:creator>
   </cc:Work>
  </rdf:RDF>
 </metadata>
 <defs>
  <style type="text/css">*{stroke-linejoin: round; stroke-linecap: butt}</style>
 </defs>
 <g id="figure_1">
  <g id="patch_1">
   <path d="M 0 72 
L 216 72 
L 216 0 
L 0 0 
z
" style="fill: #ffffff"/>
  </g>
  <g id="axes_1">
   <g id="patch_2">
    <path d="M 27 64.08 
L 194.4 64.08 
L 194.4 8.64 
L 27 8.64 
z
" style="fill: #ffffff"/>
   </g>
   <g id="PathCollection_1">
    <defs>
     <path id="C0_0_64930e5061" d="M 0 2.236068 
C 0.593012 2.236068 1.161816 2.000462 1.581139 1.581139 
C 2.000462 1.161816 2.236068 0.593012 2.236068 -0 
C 2.236068 -0.593012 2.000462 -1.161816 1.581139 -1.581139 
C 1.161816 -2.000462 0.593012 -2.236068 0 -2.236068 
C -0.593012 -2.236068 -1.161816 -2.000462 -1.581139 -1.581139 
C -2.000462 -1.161816 -2.236068 -0.593012 -2.236068 0 
C -2.236068 0.593012 -2.000462 1.161816 -1.581139 1.581139 
C -1.161816 2.000462 -0.593012 2.236068 0 2.236068 
z
"/>
    </defs>
    <g clip-path="url(#p47295e966c)">
     <use xlink:href="#C0_0_64930e5061" x="95.877897" y="20.762759" style="fill: #5baa46; stroke: #5baa46"/>
    </g>
    <g clip-path="url(#p47295e966c)">
     <use xlink:href="#C0_0_64930e5061" x="102.446037" y="39.449655" style="fill: #1f77b4; stroke: #1f77b4"/>
    </g>
    <g clip-path="url(#p47295e966c)">
     <use xlink:href="#C0_0_64930e5061" x="109.014177" y="15.311724" style="fill: #5baa46; stroke: #5baa46"/>
    </g>
    <g clip-path="url(#p47295e966c)">
     <use xlink:href="#C0_0_64930e5061" x="115.144442" y="38.696552" style="fill: #1f77b4; stroke: #1f77b4"/>
    </g>
    <g clip-path="url(#p47295e966c)">
     <use xlink:href="#C0_0_64930e5061" x="122.150458" y="14.806897" style="fill: #5baa46; stroke: #5baa46"/>
    </g>
    <g clip-path="url(#p47295e966c)">
     <use xlink:href="#C0_0_64930e5061" x="128.718598" y="27.97931" style="fill: #1f77b4; stroke: #1f77b4"/>
    </g>
    <g clip-path="url(#p47295e966c)">
     <use xlink:href="#C0_0_64930e5061" x="135.286738" y="11.16" style="fill: #5baa46; stroke: #5baa46"/>
    </g>
    <g clip-path="url(#p47295e966c)">
     <use xlink:href="#C0_0_64930e5061" x="141.417002" y="40.224828" style="fill: #1f77b4; stroke: #1f77b4"/>
    </g>
    <g clip-path="url(#p47295e966c)">
     <use xlink:href="#C0_0_64930e5061" x="148.423019" y="12.798621" style="fill: #5baa46; stroke: #5baa46"/>
    </g>
    <g clip-path="url(#p47295e966c)">
     <use xlink:href="#C0_0_64930e5061" x="155.866911" y="42.288276" style="fill: #1f77b4; stroke: #1f77b4"/>
    </g>
   </g>
   <g id="matplotlib.axis_1">
    <g id="xtick_1">
     <g id="line2d_1">
      <defs>
       <path id="m3c9496253d" d="M 0 0 
L 0 3.5 
" style="stroke: #000000; stroke-width: 0.5"/>
      </defs>
      <g>
       <use xlink:href="#m3c9496253d" x="36.764635" y="64.08" style="stroke: #000000; stroke-width: 0.5"/>
      </g>
     </g>
     <g id="text_1">
      <!-- 0 -->
      <g transform="translate(35.374401 74.658906)scale(0.05 -0.05)">
       <defs>
        <path id="ArialMT-30" d="M 266 2259 
Q 266 3072 433 3567 
Q 600 4063 929 4331 
Q 1259 4600 1759 4600 
Q 2128 4600 2406 4451 
Q 2684 4303 2865 4023 
Q 3047 3744 3150 3342 
Q 3253 2941 3253 2259 
Q 3253 1453 3087 958 
Q 2922 463 2592 192 
Q 2263 -78 1759 -78 
Q 1097 -78 719 397 
Q 266 969 266 2259 
z
M 844 2259 
Q 844 1131 1108 757 
Q 1372 384 1759 384 
Q 2147 384 2411 759 
Q 2675 1134 2675 2259 
Q 2675 3391 2411 3762 
Q 2147 4134 1753 4134 
Q 1366 4134 1134 3806 
Q 844 3388 844 2259 
z
" transform="scale(0.015625)"/>
       </defs>
       <use xlink:href="#ArialMT-30"/>
      </g>
     </g>
    </g>
    <g id="xtick_2">
     <g id="line2d_2">
      <g>
       <use xlink:href="#m3c9496253d" x="63.037196" y="64.08" style="stroke: #000000; stroke-width: 0.5"/>
      </g>
     </g>
     <g id="text_2">
      <!-- 10 -->
      <g transform="translate(60.256727 74.658906)scale(0.05 -0.05)">
       <defs>
        <path id="ArialMT-31" d="M 2384 0 
L 1822 0 
L 1822 3584 
Q 1619 3391 1289 3197 
Q 959 3003 697 2906 
L 697 3450 
Q 1169 3672 1522 3987 
Q 1875 4303 2022 4600 
L 2384 4600 
L 2384 0 
z
" transform="scale(0.015625)"/>
       </defs>
       <use xlink:href="#ArialMT-31"/>
       <use xlink:href="#ArialMT-30" x="55.615234"/>
      </g>
     </g>
    </g>
    <g id="xtick_3">
     <g id="line2d_3">
      <g>
       <use xlink:href="#m3c9496253d" x="89.309757" y="64.08" style="stroke: #000000; stroke-width: 0.5"/>
      </g>
     </g>
     <g id="text_3">
      <!-- 20 -->
      <g transform="translate(86.529288 74.658906)scale(0.05 -0.05)">
       <defs>
        <path id="ArialMT-32" d="M 3222 541 
L 3222 0 
L 194 0 
Q 188 203 259 391 
Q 375 700 629 1000 
Q 884 1300 1366 1694 
Q 2113 2306 2375 2664 
Q 2638 3022 2638 3341 
Q 2638 3675 2398 3904 
Q 2159 4134 1775 4134 
Q 1369 4134 1125 3890 
Q 881 3647 878 3216 
L 300 3275 
Q 359 3922 746 4261 
Q 1134 4600 1788 4600 
Q 2447 4600 2831 4234 
Q 3216 3869 3216 3328 
Q 3216 3053 3103 2787 
Q 2991 2522 2730 2228 
Q 2469 1934 1863 1422 
Q 1356 997 1212 845 
Q 1069 694 975 541 
L 3222 541 
z
" transform="scale(0.015625)"/>
       </defs>
       <use xlink:href="#ArialMT-32"/>
       <use xlink:href="#ArialMT-30" x="55.615234"/>
      </g>
     </g>
    </g>
    <g id="xtick_4">
     <g id="line2d_4">
      <g>
       <use xlink:href="#m3c9496253d" x="115.582318" y="64.08" style="stroke: #000000; stroke-width: 0.5"/>
      </g>
     </g>
     <g id="text_4">
      <!-- 30 -->
      <g transform="translate(112.801849 74.658906)scale(0.05 -0.05)">
       <defs>
        <path id="ArialMT-33" d="M 269 1209 
L 831 1284 
Q 928 806 1161 595 
Q 1394 384 1728 384 
Q 2125 384 2398 659 
Q 2672 934 2672 1341 
Q 2672 1728 2419 1979 
Q 2166 2231 1775 2231 
Q 1616 2231 1378 2169 
L 1441 2663 
Q 1497 2656 1531 2656 
Q 1891 2656 2178 2843 
Q 2466 3031 2466 3422 
Q 2466 3731 2256 3934 
Q 2047 4138 1716 4138 
Q 1388 4138 1169 3931 
Q 950 3725 888 3313 
L 325 3413 
Q 428 3978 793 4289 
Q 1159 4600 1703 4600 
Q 2078 4600 2393 4439 
Q 2709 4278 2876 4000 
Q 3044 3722 3044 3409 
Q 3044 3113 2884 2869 
Q 2725 2625 2413 2481 
Q 2819 2388 3044 2092 
Q 3269 1797 3269 1353 
Q 3269 753 2831 336 
Q 2394 -81 1725 -81 
Q 1122 -81 723 278 
Q 325 638 269 1209 
z
" transform="scale(0.015625)"/>
       </defs>
       <use xlink:href="#ArialMT-33"/>
       <use xlink:href="#ArialMT-30" x="55.615234"/>
      </g>
     </g>
    </g>
    <g id="xtick_5">
     <g id="line2d_5">
      <g>
       <use xlink:href="#m3c9496253d" x="141.854878" y="64.08" style="stroke: #000000; stroke-width: 0.5"/>
      </g>
     </g>
     <g id="text_5">
      <!-- 40 -->
      <g transform="translate(139.07441 74.658906)scale(0.05 -0.05)">
       <defs>
        <path id="ArialMT-34" d="M 2069 0 
L 2069 1097 
L 81 1097 
L 81 1613 
L 2172 4581 
L 2631 4581 
L 2631 1613 
L 3250 1613 
L 3250 1097 
L 2631 1097 
L 2631 0 
L 2069 0 
z
M 2069 1613 
L 2069 3678 
L 634 1613 
L 2069 1613 
z
" transform="scale(0.015625)"/>
       </defs>
       <use xlink:href="#ArialMT-34"/>
       <use xlink:href="#ArialMT-30" x="55.615234"/>
      </g>
     </g>
    </g>
    <g id="xtick_6">
     <g id="line2d_6">
      <g>
       <use xlink:href="#m3c9496253d" x="168.127439" y="64.08" style="stroke: #000000; stroke-width: 0.5"/>
      </g>
     </g>
     <g id="text_6">
      <!-- 50 -->
      <g transform="translate(165.34697 74.658906)scale(0.05 -0.05)">
       <defs>
        <path id="ArialMT-35" d="M 266 1200 
L 856 1250 
Q 922 819 1161 601 
Q 1400 384 1738 384 
Q 2144 384 2425 690 
Q 2706 997 2706 1503 
Q 2706 1984 2436 2262 
Q 2166 2541 1728 2541 
Q 1456 2541 1237 2417 
Q 1019 2294 894 2097 
L 366 2166 
L 809 4519 
L 3088 4519 
L 3088 3981 
L 1259 3981 
L 1013 2750 
Q 1425 3038 1878 3038 
Q 2478 3038 2890 2622 
Q 3303 2206 3303 1553 
Q 3303 931 2941 478 
Q 2500 -78 1738 -78 
Q 1113 -78 717 272 
Q 322 622 266 1200 
z
" transform="scale(0.015625)"/>
       </defs>
       <use xlink:href="#ArialMT-35"/>
       <use xlink:href="#ArialMT-30" x="55.615234"/>
      </g>
     </g>
    </g>
    <g id="xtick_7">
     <g id="line2d_7">
      <g>
       <use xlink:href="#m3c9496253d" x="194.4" y="64.08" style="stroke: #000000; stroke-width: 0.5"/>
      </g>
     </g>
     <g id="text_7">
      <!-- 60 -->
      <g transform="translate(191.619531 74.658906)scale(0.05 -0.05)">
       <defs>
        <path id="ArialMT-36" d="M 3184 3459 
L 2625 3416 
Q 2550 3747 2413 3897 
Q 2184 4138 1850 4138 
Q 1581 4138 1378 3988 
Q 1113 3794 959 3422 
Q 806 3050 800 2363 
Q 1003 2672 1297 2822 
Q 1591 2972 1913 2972 
Q 2475 2972 2870 2558 
Q 3266 2144 3266 1488 
Q 3266 1056 3080 686 
Q 2894 316 2569 119 
Q 2244 -78 1831 -78 
Q 1128 -78 684 439 
Q 241 956 241 2144 
Q 241 3472 731 4075 
Q 1159 4600 1884 4600 
Q 2425 4600 2770 4297 
Q 3116 3994 3184 3459 
z
M 888 1484 
Q 888 1194 1011 928 
Q 1134 663 1356 523 
Q 1578 384 1822 384 
Q 2178 384 2434 671 
Q 2691 959 2691 1453 
Q 2691 1928 2437 2201 
Q 2184 2475 1800 2475 
Q 1419 2475 1153 2201 
Q 888 1928 888 1484 
z
" transform="scale(0.015625)"/>
       </defs>
       <use xlink:href="#ArialMT-36"/>
       <use xlink:href="#ArialMT-30" x="55.615234"/>
      </g>
     </g>
    </g>
    <g id="text_8">
     <!-- Time (h) -->
     <g transform="translate(96.883594 85.112422)scale(0.075 -0.075)">
      <defs>
       <path id="ArialMT-54" d="M 1659 0 
L 1659 4041 
L 150 4041 
L 150 4581 
L 3781 4581 
L 3781 4041 
L 2266 4041 
L 2266 0 
L 1659 0 
z
" transform="scale(0.015625)"/>
       <path id="ArialMT-69" d="M 425 3934 
L 425 4581 
L 988 4581 
L 988 3934 
L 425 3934 
z
M 425 0 
L 425 3319 
L 988 3319 
L 988 0 
L 425 0 
z
" transform="scale(0.015625)"/>
       <path id="ArialMT-6d" d="M 422 0 
L 422 3319 
L 925 3319 
L 925 2853 
Q 1081 3097 1340 3245 
Q 1600 3394 1931 3394 
Q 2300 3394 2536 3241 
Q 2772 3088 2869 2813 
Q 3263 3394 3894 3394 
Q 4388 3394 4653 3120 
Q 4919 2847 4919 2278 
L 4919 0 
L 4359 0 
L 4359 2091 
Q 4359 2428 4304 2576 
Q 4250 2725 4106 2815 
Q 3963 2906 3769 2906 
Q 3419 2906 3187 2673 
Q 2956 2441 2956 1928 
L 2956 0 
L 2394 0 
L 2394 2156 
Q 2394 2531 2256 2718 
Q 2119 2906 1806 2906 
Q 1569 2906 1367 2781 
Q 1166 2656 1075 2415 
Q 984 2175 984 1722 
L 984 0 
L 422 0 
z
" transform="scale(0.015625)"/>
       <path id="ArialMT-65" d="M 2694 1069 
L 3275 997 
Q 3138 488 2766 206 
Q 2394 -75 1816 -75 
Q 1088 -75 661 373 
Q 234 822 234 1631 
Q 234 2469 665 2931 
Q 1097 3394 1784 3394 
Q 2450 3394 2872 2941 
Q 3294 2488 3294 1666 
Q 3294 1616 3291 1516 
L 816 1516 
Q 847 969 1125 678 
Q 1403 388 1819 388 
Q 2128 388 2347 550 
Q 2566 713 2694 1069 
z
M 847 1978 
L 2700 1978 
Q 2663 2397 2488 2606 
Q 2219 2931 1791 2931 
Q 1403 2931 1139 2672 
Q 875 2413 847 1978 
z
" transform="scale(0.015625)"/>
       <path id="ArialMT-20" transform="scale(0.015625)"/>
       <path id="ArialMT-28" d="M 1497 -1347 
Q 1031 -759 709 28 
Q 388 816 388 1659 
Q 388 2403 628 3084 
Q 909 3875 1497 4659 
L 1900 4659 
Q 1522 4009 1400 3731 
Q 1209 3300 1100 2831 
Q 966 2247 966 1656 
Q 966 153 1900 -1347 
L 1497 -1347 
z
" transform="scale(0.015625)"/>
       <path id="ArialMT-68" d="M 422 0 
L 422 4581 
L 984 4581 
L 984 2938 
Q 1378 3394 1978 3394 
Q 2347 3394 2619 3248 
Q 2891 3103 3008 2847 
Q 3125 2591 3125 2103 
L 3125 0 
L 2563 0 
L 2563 2103 
Q 2563 2525 2380 2717 
Q 2197 2909 1863 2909 
Q 1613 2909 1392 2779 
Q 1172 2650 1078 2428 
Q 984 2206 984 1816 
L 984 0 
L 422 0 
z
" transform="scale(0.015625)"/>
       <path id="ArialMT-29" d="M 791 -1347 
L 388 -1347 
Q 1322 153 1322 1656 
Q 1322 2244 1188 2822 
Q 1081 3291 891 3722 
Q 769 4003 388 4659 
L 791 4659 
Q 1378 3875 1659 3084 
Q 1900 2403 1900 1659 
Q 1900 816 1576 28 
Q 1253 -759 791 -1347 
z
" transform="scale(0.015625)"/>
      </defs>
      <use xlink:href="#ArialMT-54"/>
      <use xlink:href="#ArialMT-69" x="57.333984"/>
      <use xlink:href="#ArialMT-6d" x="79.550781"/>
      <use xlink:href="#ArialMT-65" x="162.851562"/>
      <use xlink:href="#ArialMT-20" x="218.466797"/>
      <use xlink:href="#ArialMT-28" x="246.25"/>
      <use xlink:href="#ArialMT-68" x="279.550781"/>
      <use xlink:href="#ArialMT-29" x="335.166016"/>
     </g>
    </g>
   </g>
   <g id="matplotlib.axis_2">
    <g id="ytick_1">
     <g id="line2d_8">
      <defs>
       <path id="m1a26b83e2e" d="M 0 0 
L -3.5 0 
" style="stroke: #000000; stroke-width: 0.5"/>
      </defs>
      <g>
       <use xlink:href="#m1a26b83e2e" x="27" y="59.394483" style="stroke: #000000; stroke-width: 0.5"/>
      </g>
     </g>
     <g id="text_9">
      <!-- 0 -->
      <g transform="translate(17.219531 61.183936)scale(0.05 -0.05)">
       <use xlink:href="#ArialMT-30"/>
      </g>
     </g>
    </g>
    <g id="ytick_2">
     <g id="line2d_9">
      <g>
       <use xlink:href="#m1a26b83e2e" x="27" y="37.73931" style="stroke: #000000; stroke-width: 0.5"/>
      </g>
     </g>
     <g id="text_10">
      <!-- 50 -->
      <g transform="translate(14.439062 39.528763)scale(0.05 -0.05)">
       <use xlink:href="#ArialMT-35"/>
       <use xlink:href="#ArialMT-30" x="55.615234"/>
      </g>
     </g>
    </g>
    <g id="ytick_3">
     <g id="line2d_10">
      <g>
       <use xlink:href="#m1a26b83e2e" x="27" y="16.084138" style="stroke: #000000; stroke-width: 0.5"/>
      </g>
     </g>
     <g id="text_11">
      <!-- 100 -->
      <g transform="translate(11.658594 17.873591)scale(0.05 -0.05)">
       <use xlink:href="#ArialMT-31"/>
       <use xlink:href="#ArialMT-30" x="55.615234"/>
       <use xlink:href="#ArialMT-30" x="111.230469"/>
      </g>
     </g>
    </g>
    <g id="text_12">
     <!-- p53 (a.u.) -->
     <g transform="translate(6.080078 52.409414)rotate(-90)scale(0.075 -0.075)">
      <defs>
       <path id="ArialMT-70" d="M 422 -1272 
L 422 3319 
L 934 3319 
L 934 2888 
Q 1116 3141 1344 3267 
Q 1572 3394 1897 3394 
Q 2322 3394 2647 3175 
Q 2972 2956 3137 2557 
Q 3303 2159 3303 1684 
Q 3303 1175 3120 767 
Q 2938 359 2589 142 
Q 2241 -75 1856 -75 
Q 1575 -75 1351 44 
Q 1128 163 984 344 
L 984 -1272 
L 422 -1272 
z
M 931 1641 
Q 931 1000 1190 694 
Q 1450 388 1819 388 
Q 2194 388 2461 705 
Q 2728 1022 2728 1688 
Q 2728 2322 2467 2637 
Q 2206 2953 1844 2953 
Q 1484 2953 1207 2617 
Q 931 2281 931 1641 
z
" transform="scale(0.015625)"/>
       <path id="ArialMT-61" d="M 2588 409 
Q 2275 144 1986 34 
Q 1697 -75 1366 -75 
Q 819 -75 525 192 
Q 231 459 231 875 
Q 231 1119 342 1320 
Q 453 1522 633 1644 
Q 813 1766 1038 1828 
Q 1203 1872 1538 1913 
Q 2219 1994 2541 2106 
Q 2544 2222 2544 2253 
Q 2544 2597 2384 2738 
Q 2169 2928 1744 2928 
Q 1347 2928 1158 2789 
Q 969 2650 878 2297 
L 328 2372 
Q 403 2725 575 2942 
Q 747 3159 1072 3276 
Q 1397 3394 1825 3394 
Q 2250 3394 2515 3294 
Q 2781 3194 2906 3042 
Q 3031 2891 3081 2659 
Q 3109 2516 3109 2141 
L 3109 1391 
Q 3109 606 3145 398 
Q 3181 191 3288 0 
L 2700 0 
Q 2613 175 2588 409 
z
M 2541 1666 
Q 2234 1541 1622 1453 
Q 1275 1403 1131 1340 
Q 988 1278 909 1158 
Q 831 1038 831 891 
Q 831 666 1001 516 
Q 1172 366 1500 366 
Q 1825 366 2078 508 
Q 2331 650 2450 897 
Q 2541 1088 2541 1459 
L 2541 1666 
z
" transform="scale(0.015625)"/>
       <path id="ArialMT-2e" d="M 581 0 
L 581 641 
L 1222 641 
L 1222 0 
L 581 0 
z
" transform="scale(0.015625)"/>
       <path id="ArialMT-75" d="M 2597 0 
L 2597 488 
Q 2209 -75 1544 -75 
Q 1250 -75 995 37 
Q 741 150 617 320 
Q 494 491 444 738 
Q 409 903 409 1263 
L 409 3319 
L 972 3319 
L 972 1478 
Q 972 1038 1006 884 
Q 1059 663 1231 536 
Q 1403 409 1656 409 
Q 1909 409 2131 539 
Q 2353 669 2445 892 
Q 2538 1116 2538 1541 
L 2538 3319 
L 3100 3319 
L 3100 0 
L 2597 0 
z
" transform="scale(0.015625)"/>
      </defs>
      <use xlink:href="#ArialMT-70"/>
      <use xlink:href="#ArialMT-35" x="55.615234"/>
      <use xlink:href="#ArialMT-33" x="111.230469"/>
      <use xlink:href="#ArialMT-20" x="166.845703"/>
      <use xlink:href="#ArialMT-28" x="194.628906"/>
      <use xlink:href="#ArialMT-61" x="227.929688"/>
      <use xlink:href="#ArialMT-2e" x="283.544922"/>
      <use xlink:href="#ArialMT-75" x="311.328125"/>
      <use xlink:href="#ArialMT-2e" x="366.943359"/>
      <use xlink:href="#ArialMT-29" x="394.726562"/>
     </g>
    </g>
   </g>
   <g id="line2d_11">
    <path d="M 37.202511 52.495172 
L 37.640387 51.764138 
L 38.078263 49.686897 
L 38.516139 49.882759 
L 38.954015 47.86069 
L 39.391891 46.914483 
L 39.829767 44.371034 
L 40.267643 41.08 
L 40.705519 39.01931 
L 41.143395 36.172414 
L 42.019147 33.766897 
L 42.457023 33.808276 
L 42.894899 35.077241 
L 43.332775 35.965517 
L 43.770651 41.488276 
L 44.208527 43.071724 
L 44.646403 47.322759 
L 45.084279 49.684138 
L 45.522155 51.041379 
L 45.960031 51.678621 
L 46.397907 51.70069 
L 46.835783 53.551724 
L 47.273659 53.664828 
L 47.711535 55.598621 
L 48.149411 56.053793 
L 48.587287 55.761379 
L 49.025163 55.951724 
L 49.463039 55.226207 
L 49.900916 56.362759 
L 50.338792 53.808276 
L 50.776668 54.671724 
L 51.214544 54.762759 
L 51.65242 53.88 
L 52.528172 50.445517 
L 52.966048 47.742069 
L 53.8418 38.045517 
L 54.279676 38.357241 
L 55.155428 29.284138 
L 55.593304 29.306207 
L 56.03118 28.362759 
L 56.469056 25.350345 
L 56.906932 30.376552 
L 57.782684 32.61931 
L 58.22056 36.034483 
L 58.658436 41.615172 
L 59.096312 39.267586 
L 59.534188 43.033103 
L 60.40994 48.315862 
L 60.847816 50.045517 
L 61.285692 53.063448 
L 62.161444 55.176552 
L 62.59932 55.195862 
L 63.037196 55.89931 
L 63.475072 55.855172 
L 63.912948 55.457931 
L 64.350824 54.842759 
L 64.7887 55.262069 
L 65.226576 53.816552 
L 65.664452 54.028966 
L 66.102328 54.464828 
L 66.540204 51.805517 
L 66.97808 51.70069 
L 67.415956 48.473103 
L 67.853832 48.224828 
L 68.291708 43.228966 
L 69.605336 32.793103 
L 70.043212 37.342069 
L 70.481088 32.230345 
L 70.918964 34.922759 
L 71.35684 35.805517 
L 71.794716 38.089655 
L 72.232592 42.928276 
L 72.670468 44.387586 
L 73.108344 46.85931 
L 73.54622 50.594483 
L 74.859848 55.943448 
L 75.297724 56.953103 
L 75.7356 56.503448 
L 76.173476 55.303448 
L 76.611352 56.693793 
L 77.049228 56.704828 
L 77.487104 56.028966 
L 77.92498 56.445517 
L 78.362856 55.32 
L 78.800732 55.54069 
L 79.238608 53.769655 
L 80.552236 49.731034 
L 80.990112 46.188966 
L 81.865865 37.226207 
L 82.303741 37.466207 
L 82.741617 37.314483 
L 84.493121 51.052414 
L 85.368873 54.194483 
L 85.806749 53.893793 
L 86.244625 54.45931 
L 86.682501 55.267586 
L 87.120377 54.817931 
L 87.558253 55.70069 
L 87.996129 55.88 
L 88.434005 55.717241 
L 88.871881 56.547586 
L 89.309757 56.508966 
L 89.747633 56.61931 
L 90.185509 56.04 
L 91.061261 55.394483 
L 91.499137 55.477241 
L 91.937013 52.806897 
L 92.374889 51.411034 
L 92.812765 47.504828 
L 93.688517 42.914483 
L 94.126393 39.209655 
L 94.564269 33.88 
L 95.002145 30.089655 
L 95.440021 21.515862 
L 95.877897 20.762759 
L 96.315773 17.943448 
L 96.753649 25.893793 
L 97.629401 46.111724 
L 98.505153 53.513103 
L 98.943029 52.594483 
L 99.380905 52.211034 
L 99.818781 49.493793 
L 100.256657 50.415172 
L 100.694533 48.908966 
L 101.132409 47.968276 
L 101.570285 44.933793 
L 102.008161 38.881379 
L 102.446037 39.449655 
L 102.883913 38.961379 
L 103.321789 44.095172 
L 104.197541 50.073103 
L 104.635417 52.972414 
L 105.073293 53.383448 
L 105.511169 51.761379 
L 105.949045 49.54069 
L 106.386921 44.906207 
L 106.824797 42.702069 
L 107.262673 39.057931 
L 107.700549 36.608276 
L 108.138425 33.488276 
L 108.576301 26.630345 
L 109.014177 15.311724 
L 109.452053 14.175172 
L 109.889929 27.750345 
L 110.765681 43.965517 
L 111.203557 48.051034 
L 111.641433 50.531034 
L 112.079309 49.841379 
L 112.517185 46.704828 
L 112.955061 44.715862 
L 113.392937 45.182069 
L 113.830813 42.671724 
L 114.26869 41.198621 
L 114.706566 40.511724 
L 115.144442 38.696552 
L 115.582318 31.736552 
L 116.020194 32.009655 
L 116.45807 40.870345 
L 116.895946 46.266207 
L 117.333822 47.595862 
L 118.209574 51.107586 
L 118.64745 49.521379 
L 119.523202 42.475862 
L 119.961078 41.548966 
L 120.398954 39.943448 
L 120.83683 36.417931 
L 121.274706 35.88 
L 121.712582 28.93931 
L 122.150458 14.806897 
L 122.588334 18.958621 
L 123.464086 36.828966 
L 124.777714 51.044138 
L 125.21559 50.456552 
L 125.653466 47.333793 
L 126.091342 45.73931 
L 126.529218 44.674483 
L 126.967094 44.390345 
L 127.40497 42.955862 
L 127.842846 40.765517 
L 128.280722 40.142069 
L 128.718598 27.97931 
L 129.156474 30.484138 
L 129.59435 41.011034 
L 130.470102 48.092414 
L 131.345854 50.851034 
L 131.78373 49.692414 
L 132.221606 45.571034 
L 132.659482 43.830345 
L 133.097358 43.234483 
L 133.535234 37.386207 
L 134.410986 34.023448 
L 134.848862 29.929655 
L 135.286738 11.16 
L 135.724614 18.856552 
L 136.16249 23.706207 
L 136.600366 35.49931 
L 137.476118 47.466207 
L 137.913994 48.136552 
L 138.35187 47.852414 
L 138.789746 46.848276 
L 139.665498 43.70069 
L 140.103374 42.398621 
L 140.54125 45.452414 
L 141.417002 40.224828 
L 141.854878 34.04 
L 142.292754 36.66069 
L 142.73063 41.587586 
L 143.168506 48.748966 
L 143.606382 50.925517 
L 144.044258 52.161379 
L 144.482134 52.497931 
L 144.92001 51.024828 
L 145.357886 47.957241 
L 145.795762 43.344828 
L 146.233639 44.13931 
L 146.671515 39.582069 
L 147.109391 38.166897 
L 147.547267 35.118621 
L 147.985143 30.630345 
L 148.423019 12.798621 
L 148.860895 18.66069 
L 149.736647 38.365517 
L 150.174523 44.233103 
L 151.050275 50.784828 
L 151.488151 47.184828 
L 151.926027 47.962759 
L 152.363903 49.044138 
L 152.801779 46.558621 
L 153.239655 44.729655 
L 153.677531 44.478621 
L 154.115407 42.064828 
L 154.553283 43.091034 
L 154.991159 31.24 
L 155.429035 32.511724 
L 155.866911 42.288276 
L 156.304787 47.297931 
L 156.742663 48.417931 
L 157.180539 50.84 
L 157.618415 48.61931 
L 158.056291 49.830345 
L 158.494167 48.456552 
L 158.932043 48.950345 
L 159.369919 49.262069 
L 160.245671 47.435862 
L 160.683547 48.004138 
L 161.121423 46.346207 
L 161.559299 45.46069 
L 161.997175 41.88 
L 162.435051 42.547586 
L 162.872927 40.155862 
L 163.310803 39.187586 
L 163.748679 33.788966 
L 164.186555 34.194483 
L 165.062307 27.766897 
L 165.938059 22.726897 
L 166.375935 20.84 
L 167.251687 29.951724 
L 167.689563 32.409655 
L 169.441067 48.93931 
L 169.878943 48.136552 
L 170.316819 51.226207 
L 170.754695 51.984828 
L 171.192571 51.913103 
L 171.630447 53.14069 
L 172.068323 52.387586 
L 172.506199 52.602759 
L 173.381951 52.304828 
L 173.819827 51.471724 
L 174.257703 51.289655 
L 174.695579 51.747586 
L 175.133455 49.521379 
L 175.571331 51.314483 
L 176.009207 48.511724 
L 176.447083 46.682759 
L 176.884959 45.524138 
L 177.322835 40.475862 
L 177.760711 40.028966 
L 178.198587 37.433103 
L 178.636464 32.633103 
L 179.07434 30.575172 
L 180.387968 19.30069 
L 181.26372 18.732414 
L 182.139472 26.702069 
L 183.890976 46.266207 
L 184.328852 50.649655 
L 184.766728 51.86069 
L 185.204604 54.048276 
L 185.64248 53.091034 
L 186.080356 53.692414 
L 186.518232 54.644138 
L 187.393984 54.095172 
L 188.269736 54.246897 
L 188.707612 53.515862 
L 189.145488 53.593103 
L 189.583364 52.453793 
L 190.02124 52.343448 
L 190.459116 52.713103 
L 190.896992 51.314483 
L 191.334868 51.30069 
L 191.772744 50.542069 
L 192.21062 48.437241 
L 192.648496 43.424828 
L 193.962124 37.162759 
L 195.275752 25.278621 
L 195.713628 23.295172 
L 196.151504 17.110345 
L 197.027256 22.337931 
L 197.465132 23.849655 
L 197.903008 30.936552 
L 199.654512 49.73931 
L 200.092388 51.711724 
L 200.530264 52.85931 
L 200.96814 51.984828 
L 201.406016 54.155862 
L 201.843892 54.051034 
L 202.281768 52.848276 
L 202.719644 52.942069 
L 203.15752 53.744828 
L 203.595396 52.233103 
L 204.471148 54.597241 
L 204.909024 52.873103 
L 205.784776 53.513103 
L 206.222652 54.142069 
L 206.660528 52.348966 
L 207.098404 51.110345 
L 207.53628 52.169655 
L 207.974156 50.536552 
L 208.412032 50.897931 
L 208.849908 50.012414 
L 209.287784 49.88 
L 210.601413 43.606897 
L 211.039289 40.682759 
L 211.477165 39.742069 
L 211.915041 36.542069 
L 212.352917 35.085517 
L 212.790793 32.131034 
L 213.228669 31.046897 
L 213.666545 31.582069 
L 214.104421 33.491034 
L 214.980173 43.148966 
L 215.418049 48.707586 
L 215.855925 48.66069 
L 216.731677 52.470345 
L 217 52.316515 
L 217 52.316515 
" clip-path="url(#p47295e966c)" style="fill: none; stroke: #000000; stroke-width: 0.75; stroke-linecap: square"/>
   </g>
   <g id="line2d_12">
    <path d="M 36.764635 61.56 
L 91.937013 61.56 
L 91.937013 56.522759 
L 95.221083 56.522759 
L 95.221083 61.56 
L 98.505153 61.56 
L 98.505153 56.522759 
L 101.789223 56.522759 
L 101.789223 61.56 
L 105.073293 61.56 
L 105.073293 56.522759 
L 108.357363 56.522759 
L 108.357363 61.56 
L 111.641433 61.56 
L 111.641433 56.522759 
L 114.925504 56.522759 
L 114.925504 61.56 
L 118.209574 61.56 
L 118.209574 56.522759 
L 121.493644 56.522759 
L 121.493644 61.56 
L 124.777714 61.56 
L 124.777714 56.522759 
L 128.061784 56.522759 
L 128.061784 61.56 
L 131.345854 61.56 
L 131.345854 56.522759 
L 134.629924 56.522759 
L 134.629924 61.56 
L 137.913994 61.56 
L 137.913994 56.522759 
L 141.198064 56.522759 
L 141.198064 61.56 
L 144.482134 61.56 
L 144.482134 56.522759 
L 147.766205 56.522759 
L 147.766205 61.56 
L 151.050275 61.56 
L 151.050275 56.522759 
L 154.334345 56.522759 
L 154.334345 61.56 
L 217 61.56 
" clip-path="url(#p47295e966c)" style="fill: none; stroke: #000000; stroke-width: 0.75; stroke-linecap: square"/>
   </g>
   <g id="patch_3">
    <path d="M 27 64.08 
L 27 8.64 
" style="fill: none; stroke: #000000; stroke-width: 0.5; stroke-linejoin: miter; stroke-linecap: square"/>
   </g>
   <g id="patch_4">
    <path d="M 27 64.08 
L 194.4 64.08 
" style="fill: none; stroke: #000000; stroke-width: 0.5; stroke-linejoin: miter; stroke-linecap: square"/>
   </g>
  </g>
 </g>
 <defs>
  <clipPath id="p47295e966c">
   <rect x="27" y="8.64" width="167.4" height="55.44"/>
  </clipPath>
 </defs>
</svg>
