<?xml version="1.0" encoding="utf-8" standalone="no"?>
<!DOCTYPE svg PUBLIC "-//W3C//DTD SVG 1.1//EN"
  "http://www.w3.org/Graphics/SVG/1.1/DTD/svg11.dtd">
<svg xmlns:xlink="http://www.w3.org/1999/xlink" width="216pt" height="72pt" viewBox="0 0 216 72" xmlns="http://www.w3.org/2000/svg" version="1.1">
 <metadata>
  <rdf:RDF xmlns:dc="http://purl.org/dc/elements/1.1/" xmlns:cc="http://creativecommons.org/ns#" xmlns:rdf="http://www.w3.org/1999/02/22-rdf-syntax-ns#">
   <cc:Work>
    <dc:type rdf:resource="http://purl.org/dc/dcmitype/StillImage"/>
    <dc:date>2023-12-08T16:12:08.913808</dc:date>
    <dc:format>image/svg+xml</dc:format>
    <dc:creator>
     <cc:Agent>
      <dc:title>Matplotlib v3.5.3, https://matplotlib.org/</dc:title>
     </cc:Agent>
    </dc:creator>
   </cc:Work>
  </rdf:RDF>
 </metadata>
 <defs>
  <style type="text/css">*{stroke-linejoin: round; stroke-linecap: butt}</style>
 </defs>
 <g id="figure_1">
  <g id="patch_1">
   <path d="M 0 72 
L 216 72 
L 216 0 
L 0 0 
z
" style="fill: #ffffff"/>
  </g>
  <g id="axes_1">
   <g id="patch_2">
    <path d="M 27 64.08 
L 194.4 64.08 
L 194.4 8.64 
L 27 8.64 
z
" style="fill: #ffffff"/>
   </g>
   <g id="PathCollection_1">
    <defs>
     <path id="C0_0_d343a32f47" d="M 0 2.236068 
C 0.593012 2.236068 1.161816 2.000462 1.581139 1.581139 
C 2.000462 1.161816 2.236068 0.593012 2.236068 -0 
C 2.236068 -0.593012 2.000462 -1.161816 1.581139 -1.581139 
C 1.161816 -2.000462 0.593012 -2.236068 0 -2.236068 
C -0.593012 -2.236068 -1.161816 -2.000462 -1.581139 -1.581139 
C -2.000462 -1.161816 -2.236068 -0.593012 -2.236068 0 
C -2.236068 0.593012 -2.000462 1.161816 -1.581139 1.581139 
C -1.161816 2.000462 -0.593012 2.236068 0 2.236068 
z
"/>
    </defs>
    <g clip-path="url(#p49c5e5504d)">
     <use xlink:href="#C0_0_d343a32f47" x="65.254162" y="13.706197" style="fill: #5baa46; stroke: #5baa46"/>
    </g>
    <g clip-path="url(#p49c5e5504d)">
     <use xlink:href="#C0_0_d343a32f47" x="81.926678" y="34.490915" style="fill: #1f77b4; stroke: #1f77b4"/>
    </g>
    <g clip-path="url(#p49c5e5504d)">
     <use xlink:href="#C0_0_d343a32f47" x="99.922409" y="13.411395" style="fill: #5baa46; stroke: #5baa46"/>
    </g>
    <g clip-path="url(#p49c5e5504d)">
     <use xlink:href="#C0_0_d343a32f47" x="116.065639" y="31.295487" style="fill: #1f77b4; stroke: #1f77b4"/>
    </g>
    <g clip-path="url(#p49c5e5504d)">
     <use xlink:href="#C0_0_d343a32f47" x="134.061371" y="22.164525" style="fill: #5baa46; stroke: #5baa46"/>
    </g>
    <g clip-path="url(#p49c5e5504d)">
     <use xlink:href="#C0_0_d343a32f47" x="150.99853" y="35.014077" style="fill: #1f77b4; stroke: #1f77b4"/>
    </g>
    <g clip-path="url(#p49c5e5504d)">
     <use xlink:href="#C0_0_d343a32f47" x="169.788191" y="18.574369" style="fill: #5baa46; stroke: #5baa46"/>
    </g>
   </g>
   <g id="matplotlib.axis_1">
    <g id="xtick_1">
     <g id="line2d_1">
      <defs>
       <path id="m73803b4115" d="M 0 0 
L 0 3.5 
" style="stroke: #000000; stroke-width: 0.5"/>
      </defs>
      <g>
       <use xlink:href="#m73803b4115" x="35.614133" y="64.08" style="stroke: #000000; stroke-width: 0.5"/>
      </g>
     </g>
     <g id="text_1">
      <!-- 0 -->
      <g transform="translate(34.223899 74.658906)scale(0.05 -0.05)">
       <defs>
        <path id="ArialMT-30" d="M 266 2259 
Q 266 3072 433 3567 
Q 600 4063 929 4331 
Q 1259 4600 1759 4600 
Q 2128 4600 2406 4451 
Q 2684 4303 2865 4023 
Q 3047 3744 3150 3342 
Q 3253 2941 3253 2259 
Q 3253 1453 3087 958 
Q 2922 463 2592 192 
Q 2263 -78 1759 -78 
Q 1097 -78 719 397 
Q 266 969 266 2259 
z
M 844 2259 
Q 844 1131 1108 757 
Q 1372 384 1759 384 
Q 2147 384 2411 759 
Q 2675 1134 2675 2259 
Q 2675 3391 2411 3762 
Q 2147 4134 1753 4134 
Q 1366 4134 1134 3806 
Q 844 3388 844 2259 
z
" transform="scale(0.015625)"/>
       </defs>
       <use xlink:href="#ArialMT-30"/>
      </g>
     </g>
    </g>
    <g id="xtick_2">
     <g id="line2d_2">
      <g>
       <use xlink:href="#m73803b4115" x="67.371307" y="64.08" style="stroke: #000000; stroke-width: 0.5"/>
      </g>
     </g>
     <g id="text_2">
      <!-- 20 -->
      <g transform="translate(64.590838 74.658906)scale(0.05 -0.05)">
       <defs>
        <path id="ArialMT-32" d="M 3222 541 
L 3222 0 
L 194 0 
Q 188 203 259 391 
Q 375 700 629 1000 
Q 884 1300 1366 1694 
Q 2113 2306 2375 2664 
Q 2638 3022 2638 3341 
Q 2638 3675 2398 3904 
Q 2159 4134 1775 4134 
Q 1369 4134 1125 3890 
Q 881 3647 878 3216 
L 300 3275 
Q 359 3922 746 4261 
Q 1134 4600 1788 4600 
Q 2447 4600 2831 4234 
Q 3216 3869 3216 3328 
Q 3216 3053 3103 2787 
Q 2991 2522 2730 2228 
Q 2469 1934 1863 1422 
Q 1356 997 1212 845 
Q 1069 694 975 541 
L 3222 541 
z
" transform="scale(0.015625)"/>
       </defs>
       <use xlink:href="#ArialMT-32"/>
       <use xlink:href="#ArialMT-30" x="55.615234"/>
      </g>
     </g>
    </g>
    <g id="xtick_3">
     <g id="line2d_3">
      <g>
       <use xlink:href="#m73803b4115" x="99.12848" y="64.08" style="stroke: #000000; stroke-width: 0.5"/>
      </g>
     </g>
     <g id="text_3">
      <!-- 40 -->
      <g transform="translate(96.348011 74.658906)scale(0.05 -0.05)">
       <defs>
        <path id="ArialMT-34" d="M 2069 0 
L 2069 1097 
L 81 1097 
L 81 1613 
L 2172 4581 
L 2631 4581 
L 2631 1613 
L 3250 1613 
L 3250 1097 
L 2631 1097 
L 2631 0 
L 2069 0 
z
M 2069 1613 
L 2069 3678 
L 634 1613 
L 2069 1613 
z
" transform="scale(0.015625)"/>
       </defs>
       <use xlink:href="#ArialMT-34"/>
       <use xlink:href="#ArialMT-30" x="55.615234"/>
      </g>
     </g>
    </g>
    <g id="xtick_4">
     <g id="line2d_4">
      <g>
       <use xlink:href="#m73803b4115" x="130.885653" y="64.08" style="stroke: #000000; stroke-width: 0.5"/>
      </g>
     </g>
     <g id="text_4">
      <!-- 60 -->
      <g transform="translate(128.105185 74.658906)scale(0.05 -0.05)">
       <defs>
        <path id="ArialMT-36" d="M 3184 3459 
L 2625 3416 
Q 2550 3747 2413 3897 
Q 2184 4138 1850 4138 
Q 1581 4138 1378 3988 
Q 1113 3794 959 3422 
Q 806 3050 800 2363 
Q 1003 2672 1297 2822 
Q 1591 2972 1913 2972 
Q 2475 2972 2870 2558 
Q 3266 2144 3266 1488 
Q 3266 1056 3080 686 
Q 2894 316 2569 119 
Q 2244 -78 1831 -78 
Q 1128 -78 684 439 
Q 241 956 241 2144 
Q 241 3472 731 4075 
Q 1159 4600 1884 4600 
Q 2425 4600 2770 4297 
Q 3116 3994 3184 3459 
z
M 888 1484 
Q 888 1194 1011 928 
Q 1134 663 1356 523 
Q 1578 384 1822 384 
Q 2178 384 2434 671 
Q 2691 959 2691 1453 
Q 2691 1928 2437 2201 
Q 2184 2475 1800 2475 
Q 1419 2475 1153 2201 
Q 888 1928 888 1484 
z
" transform="scale(0.015625)"/>
       </defs>
       <use xlink:href="#ArialMT-36"/>
       <use xlink:href="#ArialMT-30" x="55.615234"/>
      </g>
     </g>
    </g>
    <g id="xtick_5">
     <g id="line2d_5">
      <g>
       <use xlink:href="#m73803b4115" x="162.642827" y="64.08" style="stroke: #000000; stroke-width: 0.5"/>
      </g>
     </g>
     <g id="text_5">
      <!-- 80 -->
      <g transform="translate(159.862358 74.658906)scale(0.05 -0.05)">
       <defs>
        <path id="ArialMT-38" d="M 1131 2484 
Q 781 2613 612 2850 
Q 444 3088 444 3419 
Q 444 3919 803 4259 
Q 1163 4600 1759 4600 
Q 2359 4600 2725 4251 
Q 3091 3903 3091 3403 
Q 3091 3084 2923 2848 
Q 2756 2613 2416 2484 
Q 2838 2347 3058 2040 
Q 3278 1734 3278 1309 
Q 3278 722 2862 322 
Q 2447 -78 1769 -78 
Q 1091 -78 675 323 
Q 259 725 259 1325 
Q 259 1772 486 2073 
Q 713 2375 1131 2484 
z
M 1019 3438 
Q 1019 3113 1228 2906 
Q 1438 2700 1772 2700 
Q 2097 2700 2305 2904 
Q 2513 3109 2513 3406 
Q 2513 3716 2298 3927 
Q 2084 4138 1766 4138 
Q 1444 4138 1231 3931 
Q 1019 3725 1019 3438 
z
M 838 1322 
Q 838 1081 952 856 
Q 1066 631 1291 507 
Q 1516 384 1775 384 
Q 2178 384 2440 643 
Q 2703 903 2703 1303 
Q 2703 1709 2433 1975 
Q 2163 2241 1756 2241 
Q 1359 2241 1098 1978 
Q 838 1716 838 1322 
z
" transform="scale(0.015625)"/>
       </defs>
       <use xlink:href="#ArialMT-38"/>
       <use xlink:href="#ArialMT-30" x="55.615234"/>
      </g>
     </g>
    </g>
    <g id="xtick_6">
     <g id="line2d_6">
      <g>
       <use xlink:href="#m73803b4115" x="194.4" y="64.08" style="stroke: #000000; stroke-width: 0.5"/>
      </g>
     </g>
     <g id="text_6">
      <!-- 100 -->
      <g transform="translate(190.229297 74.658906)scale(0.05 -0.05)">
       <defs>
        <path id="ArialMT-31" d="M 2384 0 
L 1822 0 
L 1822 3584 
Q 1619 3391 1289 3197 
Q 959 3003 697 2906 
L 697 3450 
Q 1169 3672 1522 3987 
Q 1875 4303 2022 4600 
L 2384 4600 
L 2384 0 
z
" transform="scale(0.015625)"/>
       </defs>
       <use xlink:href="#ArialMT-31"/>
       <use xlink:href="#ArialMT-30" x="55.615234"/>
       <use xlink:href="#ArialMT-30" x="111.230469"/>
      </g>
     </g>
    </g>
    <g id="text_7">
     <!-- Time (h) -->
     <g transform="translate(96.883594 85.112422)scale(0.075 -0.075)">
      <defs>
       <path id="ArialMT-54" d="M 1659 0 
L 1659 4041 
L 150 4041 
L 150 4581 
L 3781 4581 
L 3781 4041 
L 2266 4041 
L 2266 0 
L 1659 0 
z
" transform="scale(0.015625)"/>
       <path id="ArialMT-69" d="M 425 3934 
L 425 4581 
L 988 4581 
L 988 3934 
L 425 3934 
z
M 425 0 
L 425 3319 
L 988 3319 
L 988 0 
L 425 0 
z
" transform="scale(0.015625)"/>
       <path id="ArialMT-6d" d="M 422 0 
L 422 3319 
L 925 3319 
L 925 2853 
Q 1081 3097 1340 3245 
Q 1600 3394 1931 3394 
Q 2300 3394 2536 3241 
Q 2772 3088 2869 2813 
Q 3263 3394 3894 3394 
Q 4388 3394 4653 3120 
Q 4919 2847 4919 2278 
L 4919 0 
L 4359 0 
L 4359 2091 
Q 4359 2428 4304 2576 
Q 4250 2725 4106 2815 
Q 3963 2906 3769 2906 
Q 3419 2906 3187 2673 
Q 2956 2441 2956 1928 
L 2956 0 
L 2394 0 
L 2394 2156 
Q 2394 2531 2256 2718 
Q 2119 2906 1806 2906 
Q 1569 2906 1367 2781 
Q 1166 2656 1075 2415 
Q 984 2175 984 1722 
L 984 0 
L 422 0 
z
" transform="scale(0.015625)"/>
       <path id="ArialMT-65" d="M 2694 1069 
L 3275 997 
Q 3138 488 2766 206 
Q 2394 -75 1816 -75 
Q 1088 -75 661 373 
Q 234 822 234 1631 
Q 234 2469 665 2931 
Q 1097 3394 1784 3394 
Q 2450 3394 2872 2941 
Q 3294 2488 3294 1666 
Q 3294 1616 3291 1516 
L 816 1516 
Q 847 969 1125 678 
Q 1403 388 1819 388 
Q 2128 388 2347 550 
Q 2566 713 2694 1069 
z
M 847 1978 
L 2700 1978 
Q 2663 2397 2488 2606 
Q 2219 2931 1791 2931 
Q 1403 2931 1139 2672 
Q 875 2413 847 1978 
z
" transform="scale(0.015625)"/>
       <path id="ArialMT-20" transform="scale(0.015625)"/>
       <path id="ArialMT-28" d="M 1497 -1347 
Q 1031 -759 709 28 
Q 388 816 388 1659 
Q 388 2403 628 3084 
Q 909 3875 1497 4659 
L 1900 4659 
Q 1522 4009 1400 3731 
Q 1209 3300 1100 2831 
Q 966 2247 966 1656 
Q 966 153 1900 -1347 
L 1497 -1347 
z
" transform="scale(0.015625)"/>
       <path id="ArialMT-68" d="M 422 0 
L 422 4581 
L 984 4581 
L 984 2938 
Q 1378 3394 1978 3394 
Q 2347 3394 2619 3248 
Q 2891 3103 3008 2847 
Q 3125 2591 3125 2103 
L 3125 0 
L 2563 0 
L 2563 2103 
Q 2563 2525 2380 2717 
Q 2197 2909 1863 2909 
Q 1613 2909 1392 2779 
Q 1172 2650 1078 2428 
Q 984 2206 984 1816 
L 984 0 
L 422 0 
z
" transform="scale(0.015625)"/>
       <path id="ArialMT-29" d="M 791 -1347 
L 388 -1347 
Q 1322 153 1322 1656 
Q 1322 2244 1188 2822 
Q 1081 3291 891 3722 
Q 769 4003 388 4659 
L 791 4659 
Q 1378 3875 1659 3084 
Q 1900 2403 1900 1659 
Q 1900 816 1576 28 
Q 1253 -759 791 -1347 
z
" transform="scale(0.015625)"/>
      </defs>
      <use xlink:href="#ArialMT-54"/>
      <use xlink:href="#ArialMT-69" x="57.333984"/>
      <use xlink:href="#ArialMT-6d" x="79.550781"/>
      <use xlink:href="#ArialMT-65" x="162.851562"/>
      <use xlink:href="#ArialMT-20" x="218.466797"/>
      <use xlink:href="#ArialMT-28" x="246.25"/>
      <use xlink:href="#ArialMT-68" x="279.550781"/>
      <use xlink:href="#ArialMT-29" x="335.166016"/>
     </g>
    </g>
   </g>
   <g id="matplotlib.axis_2">
    <g id="ytick_1">
     <g id="line2d_7">
      <defs>
       <path id="m95139a6284" d="M 0 0 
L -3.5 0 
" style="stroke: #000000; stroke-width: 0.5"/>
      </defs>
      <g>
       <use xlink:href="#m95139a6284" x="27" y="54.49856" style="stroke: #000000; stroke-width: 0.5"/>
      </g>
     </g>
     <g id="text_8">
      <!-- 5000 -->
      <g transform="translate(8.878125 56.288013)scale(0.05 -0.05)">
       <defs>
        <path id="ArialMT-35" d="M 266 1200 
L 856 1250 
Q 922 819 1161 601 
Q 1400 384 1738 384 
Q 2144 384 2425 690 
Q 2706 997 2706 1503 
Q 2706 1984 2436 2262 
Q 2166 2541 1728 2541 
Q 1456 2541 1237 2417 
Q 1019 2294 894 2097 
L 366 2166 
L 809 4519 
L 3088 4519 
L 3088 3981 
L 1259 3981 
L 1013 2750 
Q 1425 3038 1878 3038 
Q 2478 3038 2890 2622 
Q 3303 2206 3303 1553 
Q 3303 931 2941 478 
Q 2500 -78 1738 -78 
Q 1113 -78 717 272 
Q 322 622 266 1200 
z
" transform="scale(0.015625)"/>
       </defs>
       <use xlink:href="#ArialMT-35"/>
       <use xlink:href="#ArialMT-30" x="55.615234"/>
       <use xlink:href="#ArialMT-30" x="111.230469"/>
       <use xlink:href="#ArialMT-30" x="166.845703"/>
      </g>
     </g>
    </g>
    <g id="ytick_2">
     <g id="line2d_8">
      <g>
       <use xlink:href="#m95139a6284" x="27" y="42.283861" style="stroke: #000000; stroke-width: 0.5"/>
      </g>
     </g>
     <g id="text_9">
      <!-- 7500 -->
      <g transform="translate(8.878125 44.073314)scale(0.05 -0.05)">
       <defs>
        <path id="ArialMT-37" d="M 303 3981 
L 303 4522 
L 3269 4522 
L 3269 4084 
Q 2831 3619 2401 2847 
Q 1972 2075 1738 1259 
Q 1569 684 1522 0 
L 944 0 
Q 953 541 1156 1306 
Q 1359 2072 1739 2783 
Q 2119 3494 2547 3981 
L 303 3981 
z
" transform="scale(0.015625)"/>
       </defs>
       <use xlink:href="#ArialMT-37"/>
       <use xlink:href="#ArialMT-35" x="55.615234"/>
       <use xlink:href="#ArialMT-30" x="111.230469"/>
       <use xlink:href="#ArialMT-30" x="166.845703"/>
      </g>
     </g>
    </g>
    <g id="ytick_3">
     <g id="line2d_9">
      <g>
       <use xlink:href="#m95139a6284" x="27" y="30.069163" style="stroke: #000000; stroke-width: 0.5"/>
      </g>
     </g>
     <g id="text_10">
      <!-- 10000 -->
      <g transform="translate(6.097656 31.858616)scale(0.05 -0.05)">
       <use xlink:href="#ArialMT-31"/>
       <use xlink:href="#ArialMT-30" x="55.615234"/>
       <use xlink:href="#ArialMT-30" x="111.230469"/>
       <use xlink:href="#ArialMT-30" x="166.845703"/>
       <use xlink:href="#ArialMT-30" x="222.460938"/>
      </g>
     </g>
    </g>
    <g id="ytick_4">
     <g id="line2d_10">
      <g>
       <use xlink:href="#m95139a6284" x="27" y="17.854464" style="stroke: #000000; stroke-width: 0.5"/>
      </g>
     </g>
     <g id="text_11">
      <!-- 12500 -->
      <g transform="translate(6.097656 19.643917)scale(0.05 -0.05)">
       <use xlink:href="#ArialMT-31"/>
       <use xlink:href="#ArialMT-32" x="55.615234"/>
       <use xlink:href="#ArialMT-35" x="111.230469"/>
       <use xlink:href="#ArialMT-30" x="166.845703"/>
       <use xlink:href="#ArialMT-30" x="222.460938"/>
      </g>
     </g>
    </g>
    <g id="text_12">
     <!-- p53 (a.u.) -->
     <g transform="translate(0.519141 52.409414)rotate(-90)scale(0.075 -0.075)">
      <defs>
       <path id="ArialMT-70" d="M 422 -1272 
L 422 3319 
L 934 3319 
L 934 2888 
Q 1116 3141 1344 3267 
Q 1572 3394 1897 3394 
Q 2322 3394 2647 3175 
Q 2972 2956 3137 2557 
Q 3303 2159 3303 1684 
Q 3303 1175 3120 767 
Q 2938 359 2589 142 
Q 2241 -75 1856 -75 
Q 1575 -75 1351 44 
Q 1128 163 984 344 
L 984 -1272 
L 422 -1272 
z
M 931 1641 
Q 931 1000 1190 694 
Q 1450 388 1819 388 
Q 2194 388 2461 705 
Q 2728 1022 2728 1688 
Q 2728 2322 2467 2637 
Q 2206 2953 1844 2953 
Q 1484 2953 1207 2617 
Q 931 2281 931 1641 
z
" transform="scale(0.015625)"/>
       <path id="ArialMT-33" d="M 269 1209 
L 831 1284 
Q 928 806 1161 595 
Q 1394 384 1728 384 
Q 2125 384 2398 659 
Q 2672 934 2672 1341 
Q 2672 1728 2419 1979 
Q 2166 2231 1775 2231 
Q 1616 2231 1378 2169 
L 1441 2663 
Q 1497 2656 1531 2656 
Q 1891 2656 2178 2843 
Q 2466 3031 2466 3422 
Q 2466 3731 2256 3934 
Q 2047 4138 1716 4138 
Q 1388 4138 1169 3931 
Q 950 3725 888 3313 
L 325 3413 
Q 428 3978 793 4289 
Q 1159 4600 1703 4600 
Q 2078 4600 2393 4439 
Q 2709 4278 2876 4000 
Q 3044 3722 3044 3409 
Q 3044 3113 2884 2869 
Q 2725 2625 2413 2481 
Q 2819 2388 3044 2092 
Q 3269 1797 3269 1353 
Q 3269 753 2831 336 
Q 2394 -81 1725 -81 
Q 1122 -81 723 278 
Q 325 638 269 1209 
z
" transform="scale(0.015625)"/>
       <path id="ArialMT-61" d="M 2588 409 
Q 2275 144 1986 34 
Q 1697 -75 1366 -75 
Q 819 -75 525 192 
Q 231 459 231 875 
Q 231 1119 342 1320 
Q 453 1522 633 1644 
Q 813 1766 1038 1828 
Q 1203 1872 1538 1913 
Q 2219 1994 2541 2106 
Q 2544 2222 2544 2253 
Q 2544 2597 2384 2738 
Q 2169 2928 1744 2928 
Q 1347 2928 1158 2789 
Q 969 2650 878 2297 
L 328 2372 
Q 403 2725 575 2942 
Q 747 3159 1072 3276 
Q 1397 3394 1825 3394 
Q 2250 3394 2515 3294 
Q 2781 3194 2906 3042 
Q 3031 2891 3081 2659 
Q 3109 2516 3109 2141 
L 3109 1391 
Q 3109 606 3145 398 
Q 3181 191 3288 0 
L 2700 0 
Q 2613 175 2588 409 
z
M 2541 1666 
Q 2234 1541 1622 1453 
Q 1275 1403 1131 1340 
Q 988 1278 909 1158 
Q 831 1038 831 891 
Q 831 666 1001 516 
Q 1172 366 1500 366 
Q 1825 366 2078 508 
Q 2331 650 2450 897 
Q 2541 1088 2541 1459 
L 2541 1666 
z
" transform="scale(0.015625)"/>
       <path id="ArialMT-2e" d="M 581 0 
L 581 641 
L 1222 641 
L 1222 0 
L 581 0 
z
" transform="scale(0.015625)"/>
       <path id="ArialMT-75" d="M 2597 0 
L 2597 488 
Q 2209 -75 1544 -75 
Q 1250 -75 995 37 
Q 741 150 617 320 
Q 494 491 444 738 
Q 409 903 409 1263 
L 409 3319 
L 972 3319 
L 972 1478 
Q 972 1038 1006 884 
Q 1059 663 1231 536 
Q 1403 409 1656 409 
Q 1909 409 2131 539 
Q 2353 669 2445 892 
Q 2538 1116 2538 1541 
L 2538 3319 
L 3100 3319 
L 3100 0 
L 2597 0 
z
" transform="scale(0.015625)"/>
      </defs>
      <use xlink:href="#ArialMT-70"/>
      <use xlink:href="#ArialMT-35" x="55.615234"/>
      <use xlink:href="#ArialMT-33" x="111.230469"/>
      <use xlink:href="#ArialMT-20" x="166.845703"/>
      <use xlink:href="#ArialMT-28" x="194.628906"/>
      <use xlink:href="#ArialMT-61" x="227.929688"/>
      <use xlink:href="#ArialMT-2e" x="283.544922"/>
      <use xlink:href="#ArialMT-75" x="311.328125"/>
      <use xlink:href="#ArialMT-2e" x="366.943359"/>
      <use xlink:href="#ArialMT-29" x="394.726562"/>
     </g>
    </g>
   </g>
   <g id="line2d_11">
    <path d="M 35.878776 52.877195 
L 36.143419 50.406589 
L 36.672706 39.699916 
L 36.937349 34.664846 
L 37.201992 27.378879 
L 37.995921 16.950265 
L 38.260564 20.745286 
L 38.525207 27.138911 
L 39.319137 54.069443 
L 39.58378 56.690608 
L 39.848423 58.164712 
L 40.113066 58.755686 
L 40.642352 59.16 
L 40.906995 58.843289 
L 41.171639 58.821598 
L 41.436282 58.323488 
L 41.700925 57.555751 
L 41.965568 57.380731 
L 42.230211 56.941686 
L 42.494854 57.478448 
L 42.759497 56.93095 
L 43.02414 56.698979 
L 43.288783 55.651036 
L 43.553427 55.707053 
L 43.81807 54.696578 
L 44.082713 54.797501 
L 44.611999 52.7965 
L 45.141285 50.615562 
L 45.405928 47.970122 
L 45.670571 47.609314 
L 46.464501 37.954816 
L 46.729144 36.892215 
L 46.993787 32.728855 
L 47.25843 31.908898 
L 47.523073 27.27083 
L 48.581646 47.609345 
L 48.846289 49.767535 
L 49.110932 50.7233 
L 49.375575 50.991121 
L 49.640218 50.260199 
L 49.904861 50.42523 
L 50.169504 50.875509 
L 50.434147 50.529607 
L 50.698791 49.786736 
L 50.963434 50.050791 
L 51.228077 49.565533 
L 51.49272 50.276413 
L 51.757363 49.288252 
L 52.022006 48.79288 
L 52.286649 48.674 
L 52.551292 49.085752 
L 53.080579 45.954059 
L 53.345222 45.709205 
L 54.139151 43.349263 
L 54.403794 41.136675 
L 54.668437 40.594467 
L 55.462367 35.041152 
L 56.256296 29.321841 
L 56.520939 24.417663 
L 56.785582 23.379771 
L 57.050225 20.402154 
L 57.314868 22.137638 
L 58.108798 37.817203 
L 58.373441 42.584047 
L 58.638084 44.552465 
L 58.902727 45.338438 
L 59.16737 47.227936 
L 59.432013 47.608879 
L 59.696656 47.720818 
L 59.9613 48.551418 
L 60.225943 48.392798 
L 60.490586 48.444862 
L 60.755229 48.129178 
L 61.019872 47.357458 
L 61.284515 47.563318 
L 61.549158 47.205871 
L 61.813801 34.479369 
L 62.078444 40.204064 
L 62.343088 42.91221 
L 62.607731 37.851777 
L 62.872374 36.197487 
L 63.40166 30.212378 
L 63.666303 27.825455 
L 63.930946 26.730769 
L 64.195589 20.947163 
L 64.724876 16.008006 
L 64.989519 15.071816 
L 65.254162 13.706197 
L 65.518805 14.642232 
L 65.783448 14.258145 
L 66.312734 19.584657 
L 66.84202 26.652097 
L 67.371307 33.54377 
L 67.63595 36.427061 
L 67.900593 37.450668 
L 68.165236 39.75892 
L 68.694522 42.277917 
L 68.959165 42.318996 
L 69.223808 43.95477 
L 69.488452 43.671793 
L 69.753095 44.646044 
L 70.017738 44.658243 
L 70.282381 45.45044 
L 70.547024 32.278265 
L 70.811667 42.468467 
L 71.07631 46.986629 
L 71.340953 49.089798 
L 71.87024 50.154982 
L 72.134883 48.976925 
L 72.399526 48.801531 
L 72.664169 48.334634 
L 73.193455 49.23625 
L 73.458098 48.657133 
L 73.722741 48.610795 
L 73.987384 48.07618 
L 74.252028 47.924842 
L 75.839886 44.2998 
L 76.104529 43.117728 
L 76.369172 41.067339 
L 76.633816 41.242204 
L 76.898459 40.491148 
L 77.427745 37.536342 
L 77.692388 38.338031 
L 78.486317 42.557875 
L 78.75096 45.023564 
L 79.015604 45.007568 
L 79.280247 33.465222 
L 79.54489 44.026658 
L 79.809533 45.514921 
L 80.074176 41.635004 
L 80.338819 39.62115 
L 80.603462 38.793912 
L 81.132748 34.608954 
L 81.397392 33.785076 
L 81.662035 34.008022 
L 81.926678 34.490915 
L 82.191321 34.489794 
L 82.455964 34.891619 
L 82.720607 37.067516 
L 82.98525 37.012713 
L 83.514536 40.803191 
L 83.77918 43.27473 
L 84.573109 46.961764 
L 84.837752 46.893766 
L 85.102395 47.594625 
L 85.367038 47.091878 
L 85.631681 48.009645 
L 85.896324 48.096253 
L 86.160968 47.81894 
L 86.425611 49.043366 
L 86.690254 47.373547 
L 86.954897 47.935579 
L 87.484183 47.821243 
L 87.748826 46.849607 
L 88.013469 37.645606 
L 88.542756 48.719187 
L 88.807399 49.214092 
L 89.072042 50.054339 
L 89.336685 49.936611 
L 89.601328 50.165874 
L 89.865971 48.846811 
L 90.130614 49.490907 
L 90.395257 48.067529 
L 90.6599 48.833554 
L 90.924544 48.850328 
L 91.189187 48.033265 
L 91.718473 47.432893 
L 91.983116 47.200052 
L 92.512402 45.532504 
L 92.777045 45.842555 
L 93.041688 44.899238 
L 93.306332 45.173999 
L 93.570975 44.370132 
L 93.835618 45.751497 
L 94.100261 46.007679 
L 94.364904 44.752226 
L 94.629547 45.322909 
L 94.89419 45.118076 
L 95.158833 44.184624 
L 95.423476 44.699944 
L 95.68812 45.98826 
L 95.952763 45.248252 
L 96.217406 47.27278 
L 96.482049 46.038675 
L 96.746692 36.581915 
L 97.011335 45.02151 
L 98.334551 24.927444 
L 98.599194 22.290594 
L 98.863837 15.892394 
L 99.12848 15.876554 
L 99.657766 11.16 
L 100.187052 14.936972 
L 100.451696 16.620204 
L 100.716339 16.009033 
L 101.510268 29.569029 
L 101.774911 32.535442 
L 102.039554 37.347505 
L 102.304197 37.248449 
L 102.56884 40.631127 
L 102.833484 39.749366 
L 103.098127 41.838032 
L 103.36277 40.928699 
L 103.627413 41.480336 
L 103.892056 41.633479 
L 104.421342 43.480217 
L 104.685985 43.062739 
L 104.950628 44.555142 
L 105.215272 44.226232 
L 105.479915 33.970397 
L 105.744558 42.928237 
L 106.273844 47.316317 
L 106.538487 48.298441 
L 106.80313 47.83254 
L 107.067773 47.678775 
L 107.332416 47.054253 
L 107.59706 46.747563 
L 108.126346 47.413288 
L 108.390989 47.085311 
L 108.655632 47.184243 
L 108.920275 45.735719 
L 109.184918 45.507484 
L 109.449561 44.770089 
L 109.714204 45.866954 
L 109.978848 45.380046 
L 110.243491 45.881954 
L 110.508134 45.452899 
L 110.772777 44.629395 
L 111.302063 45.004798 
L 111.566706 43.412966 
L 111.831349 43.039056 
L 112.625279 41.378386 
L 112.889922 41.461882 
L 113.683851 38.620292 
L 113.948494 38.890447 
L 114.213137 33.711757 
L 114.47778 38.364359 
L 114.742424 37.215368 
L 115.007067 34.633788 
L 115.800996 30.097575 
L 116.065639 31.295487 
L 116.330282 30.935426 
L 116.594925 31.352219 
L 116.859568 33.474278 
L 117.124212 34.582501 
L 117.918141 39.353765 
L 118.182784 40.657361 
L 118.447427 41.126468 
L 118.71207 41.877804 
L 118.976713 44.236128 
L 119.241356 43.641607 
L 119.506 44.268835 
L 119.770643 46.129235 
L 120.299929 45.835896 
L 120.564572 47.360975 
L 120.829215 47.848349 
L 121.093858 47.492675 
L 121.358501 47.951668 
L 121.623144 47.482468 
L 121.887788 48.081097 
L 122.417074 47.158195 
L 122.681717 46.680499 
L 122.94636 42.564597 
L 123.211003 43.785289 
L 123.475646 47.771669 
L 124.004932 51.6153 
L 124.269576 51.184533 
L 124.534219 51.663629 
L 124.798862 51.745009 
L 125.063505 52.91261 
L 125.328148 52.865805 
L 125.592791 53.45628 
L 125.857434 52.804622 
L 126.122077 52.884103 
L 126.651364 51.107728 
L 126.916007 50.012856 
L 127.18065 50.627761 
L 127.445293 50.27383 
L 127.709936 49.061976 
L 127.974579 49.049871 
L 128.239222 48.21286 
L 128.503865 48.723264 
L 128.768508 47.729221 
L 129.033152 49.044269 
L 129.297795 47.107811 
L 129.562438 48.80399 
L 129.827081 48.525028 
L 130.62101 47.222147 
L 130.885653 46.940789 
L 131.41494 44.562175 
L 131.679583 43.732229 
L 132.208869 36.446449 
L 132.738155 29.244165 
L 133.002798 27.608453 
L 133.267441 23.83117 
L 133.796728 20.122632 
L 134.061371 22.164525 
L 134.326014 22.532616 
L 134.590657 24.258545 
L 134.8553 26.833092 
L 135.384586 35.037946 
L 135.649229 36.842081 
L 135.913872 37.290492 
L 136.178516 40.225039 
L 136.443159 40.540287 
L 136.972445 43.822073 
L 137.237088 44.231927 
L 137.501731 45.103169 
L 137.766374 46.358591 
L 138.031017 46.173364 
L 138.560304 47.116805 
L 138.824947 47.247386 
L 139.08959 46.932075 
L 139.618876 46.825302 
L 139.883519 47.121504 
L 140.148162 47.229398 
L 140.677448 45.478853 
L 140.942092 48.571148 
L 141.206735 49.637141 
L 141.471378 50.199328 
L 141.736021 51.65504 
L 142.000664 50.891038 
L 142.794593 53.490606 
L 143.059236 53.660274 
L 143.32388 52.589426 
L 143.588523 53.150368 
L 143.853166 53.164777 
L 144.117809 53.511706 
L 144.911738 52.085029 
L 145.176381 51.137946 
L 145.441024 51.33223 
L 145.705668 50.071611 
L 145.970311 49.46237 
L 146.499597 49.045981 
L 146.76424 47.848349 
L 147.028883 48.049635 
L 147.293526 47.302406 
L 147.558169 44.807869 
L 147.822812 44.786209 
L 148.087456 44.579135 
L 148.352099 43.059969 
L 148.616742 43.522198 
L 148.881385 44.687527 
L 149.146028 43.434595 
L 149.410671 40.631874 
L 149.675314 40.88012 
L 149.939957 39.359616 
L 150.2046 36.365318 
L 150.469244 35.238299 
L 151.263173 34.988683 
L 151.527816 36.099614 
L 151.792459 38.683746 
L 152.057102 38.601153 
L 152.321745 40.451314 
L 152.586388 41.24849 
L 153.115675 45.014694 
L 153.644961 45.98048 
L 153.909604 47.543215 
L 154.174247 47.235249 
L 154.43889 47.758442 
L 154.703533 47.634553 
L 154.968176 47.751067 
L 155.23282 47.467406 
L 155.762106 48.858886 
L 156.026749 49.13374 
L 156.556035 48.793346 
L 156.820678 48.085205 
L 157.085321 47.927674 
L 157.349964 48.14589 
L 157.614608 47.963556 
L 157.879251 47.122127 
L 158.143894 44.375235 
L 158.67318 49.186022 
L 158.937823 50.652346 
L 159.202466 50.980291 
L 159.467109 50.818403 
L 159.996396 49.861954 
L 160.261039 50.376371 
L 160.525682 49.950989 
L 160.790325 50.046123 
L 161.054968 49.966549 
L 161.319611 50.106497 
L 162.11354 49.399258 
L 162.378184 49.397515 
L 162.642827 48.86455 
L 162.90747 48.631926 
L 163.172113 47.941616 
L 163.436756 48.664322 
L 163.701399 48.113773 
L 163.966042 47.948525 
L 164.230685 47.165104 
L 164.495328 47.137905 
L 165.024615 46.073343 
L 165.289258 44.086471 
L 165.553901 43.393205 
L 165.818544 43.159585 
L 166.34783 41.529257 
L 166.612473 39.708598 
L 166.877116 32.977039 
L 167.14176 35.613111 
L 167.406403 33.381011 
L 167.671046 32.363316 
L 168.200332 26.395853 
L 168.464975 24.432787 
L 168.729618 21.203937 
L 168.994261 23.21362 
L 169.523548 17.286986 
L 169.788191 18.574369 
L 170.052834 17.539652 
L 170.317477 19.897851 
L 170.58212 19.753328 
L 170.846763 26.345842 
L 171.905336 35.911305 
L 172.169979 40.083877 
L 172.434622 39.197137 
L 172.699265 41.634133 
L 172.963908 42.665925 
L 173.757837 47.396794 
L 174.02248 48.616614 
L 174.287124 48.429177 
L 174.551767 47.89755 
L 174.81641 48.315059 
L 175.081053 47.847758 
L 175.345696 49.122319 
L 175.610339 47.846948 
L 176.139625 52.200516 
L 176.404268 52.001844 
L 176.668912 52.009313 
L 176.933555 50.557118 
L 177.198198 51.213288 
L 177.727484 51.662229 
L 178.25677 52.9329 
L 178.521413 53.116852 
L 178.786056 52.467341 
L 179.0507 53.090306 
L 179.315343 53.174082 
L 179.579986 52.582579 
L 179.844629 52.309592 
L 180.109272 53.350658 
L 180.638558 51.889998 
L 180.903201 52.380111 
L 181.167844 52.305298 
L 181.432488 52.798087 
L 181.697131 52.695079 
L 181.961774 52.409146 
L 182.226417 51.871606 
L 182.49106 51.808619 
L 182.755703 51.183848 
L 183.020346 51.503827 
L 183.284989 51.439937 
L 183.549632 51.917851 
L 183.814276 50.7922 
L 184.343562 50.47191 
L 184.608205 50.768082 
L 184.872848 51.559937 
L 185.402134 49.129445 
L 185.666777 48.778938 
L 186.196064 47.420383 
L 186.460707 47.366141 
L 186.72535 46.33522 
L 186.989993 46.193747 
L 187.254636 45.611425 
L 187.783922 43.297105 
L 188.048565 42.422409 
L 188.313208 42.424618 
L 188.577852 42.103613 
L 188.842495 43.157344 
L 189.371781 43.911326 
L 189.636424 44.797911 
L 190.694996 50.892221 
L 190.95964 51.537094 
L 191.224283 53.343252 
L 191.488926 53.003294 
L 191.753569 53.582193 
L 192.018212 53.872109 
L 192.812141 54.238488 
L 193.076784 53.894765 
L 193.341428 53.893738 
L 193.606071 53.478874 
L 193.870714 53.676674 
L 194.135357 53.527795 
L 194.4 53.837815 
L 194.664643 53.955636 
L 194.929286 53.1068 
L 195.193929 53.392484 
L 195.458572 53.433998 
L 195.723216 53.71461 
L 195.987859 52.912859 
L 196.252502 53.025514 
L 196.517145 52.626241 
L 196.781788 53.370264 
L 197.046431 52.769363 
L 197.311074 53.116229 
L 197.84036 52.415588 
L 198.105004 52.321947 
L 198.369647 51.670227 
L 198.63429 52.504187 
L 199.163576 52.195879 
L 199.428219 52.371926 
L 199.692862 51.494304 
L 200.751435 51.005498 
L 201.016078 50.776951 
L 201.280721 50.764036 
L 201.545364 50.870032 
L 201.810007 49.464237 
L 202.07465 50.152772 
L 202.339293 50.349888 
L 202.603936 49.656155 
L 202.86858 49.779921 
L 203.133223 50.177575 
L 203.397866 49.160877 
L 203.662509 49.22265 
L 203.927152 48.537849 
L 204.191795 48.66482 
L 204.456438 48.658191 
L 204.985724 47.896865 
L 205.250368 48.379074 
L 205.515011 47.241286 
L 205.779654 47.527343 
L 206.044297 46.557232 
L 206.30894 47.228651 
L 206.573583 46.461288 
L 206.838226 46.658279 
L 207.102869 46.041694 
L 207.367512 46.644711 
L 207.632156 46.763901 
L 207.896799 47.443319 
L 207.896799 47.443319 
" clip-path="url(#p49c5e5504d)" style="fill: none; stroke: #000000; stroke-width: 0.75; stroke-linecap: square"/>
   </g>
   <g id="line2d_12">
    <path d="M 35.614133 61.56 
L 61.549158 61.56 
L 61.549158 56.28 
L 70.282381 56.28 
L 70.282381 61.56 
L 79.015604 61.56 
L 79.015604 56.28 
L 87.748826 56.28 
L 87.748826 61.56 
L 96.482049 61.56 
L 96.482049 56.28 
L 105.215272 56.28 
L 105.215272 61.56 
L 113.948494 61.56 
L 113.948494 56.28 
L 122.681717 56.28 
L 122.681717 61.56 
L 131.41494 61.56 
L 131.41494 56.28 
L 140.148162 56.28 
L 140.148162 61.56 
L 148.881385 61.56 
L 148.881385 56.28 
L 157.614608 56.28 
L 157.614608 61.56 
L 166.34783 61.56 
L 166.34783 56.28 
L 175.081053 56.28 
L 175.081053 61.56 
L 207.896799 61.56 
" clip-path="url(#p49c5e5504d)" style="fill: none; stroke: #000000; stroke-width: 0.75; stroke-linecap: square"/>
   </g>
   <g id="patch_3">
    <path d="M 27 64.08 
L 27 8.64 
" style="fill: none; stroke: #000000; stroke-width: 0.5; stroke-linejoin: miter; stroke-linecap: square"/>
   </g>
   <g id="patch_4">
    <path d="M 27 64.08 
L 194.4 64.08 
" style="fill: none; stroke: #000000; stroke-width: 0.5; stroke-linejoin: miter; stroke-linecap: square"/>
   </g>
  </g>
 </g>
 <defs>
  <clipPath id="p49c5e5504d">
   <rect x="27" y="8.64" width="167.4" height="55.44"/>
  </clipPath>
 </defs>
</svg>
