<?xml version="1.0" encoding="utf-8" standalone="no"?>
<!DOCTYPE svg PUBLIC "-//W3C//DTD SVG 1.1//EN"
  "http://www.w3.org/Graphics/SVG/1.1/DTD/svg11.dtd">
<svg xmlns:xlink="http://www.w3.org/1999/xlink" width="252pt" height="72pt" viewBox="0 0 252 72" xmlns="http://www.w3.org/2000/svg" version="1.1">
 <metadata>
  <rdf:RDF xmlns:dc="http://purl.org/dc/elements/1.1/" xmlns:cc="http://creativecommons.org/ns#" xmlns:rdf="http://www.w3.org/1999/02/22-rdf-syntax-ns#">
   <cc:Work>
    <dc:type rdf:resource="http://purl.org/dc/dcmitype/StillImage"/>
    <dc:date>2024-07-09T19:54:48.699730</dc:date>
    <dc:format>image/svg+xml</dc:format>
    <dc:creator>
     <cc:Agent>
      <dc:title>Matplotlib v3.8.3, https://matplotlib.org/</dc:title>
     </cc:Agent>
    </dc:creator>
   </cc:Work>
  </rdf:RDF>
 </metadata>
 <defs>
  <style type="text/css">*{stroke-linejoin: round; stroke-linecap: butt}</style>
 </defs>
 <g id="figure_1">
  <g id="patch_1">
   <path d="M 0 72 
L 252 72 
L 252 0 
L 0 0 
z
" style="fill: #ffffff"/>
  </g>
  <g id="axes_1">
   <g id="patch_2">
    <path d="M 31.5 64.08 
L 226.8 64.08 
L 226.8 8.64 
L 31.5 8.64 
z
" style="fill: #f2f2f2"/>
   </g>
   <g id="PathCollection_1">
    <defs>
     <path id="C0_0_24a0ecffef" d="M 0 2.236068 
C 0.593012 2.236068 1.161816 2.000462 1.581139 1.581139 
C 2.000462 1.161816 2.236068 0.593012 2.236068 -0 
C 2.236068 -0.593012 2.000462 -1.161816 1.581139 -1.581139 
C 1.161816 -2.000462 0.593012 -2.236068 0 -2.236068 
C -0.593012 -2.236068 -1.161816 -2.000462 -1.581139 -1.581139 
C -2.000462 -1.161816 -2.236068 -0.593012 -2.236068 0 
C -2.236068 0.593012 -2.000462 1.161816 -1.581139 1.581139 
C -1.161816 2.000462 -0.593012 2.236068 0 2.236068 
z
"/>
    </defs>
    <g clip-path="url(#pd12ac5b83a)">
     <use xlink:href="#C0_0_24a0ecffef" x="81.559091" y="32.488959" style="fill: #5baa46; stroke: #5baa46"/>
    </g>
    <g clip-path="url(#pd12ac5b83a)">
     <use xlink:href="#C0_0_24a0ecffef" x="88.104545" y="11.16" style="fill: #1f77b4; stroke: #1f77b4"/>
    </g>
    <g clip-path="url(#pd12ac5b83a)">
     <use xlink:href="#C0_0_24a0ecffef" x="100.65" y="27.03648" style="fill: #5baa46; stroke: #5baa46"/>
    </g>
    <g clip-path="url(#pd12ac5b83a)">
     <use xlink:href="#C0_0_24a0ecffef" x="106.922727" y="11.428531" style="fill: #1f77b4; stroke: #1f77b4"/>
    </g>
    <g clip-path="url(#pd12ac5b83a)">
     <use xlink:href="#C0_0_24a0ecffef" x="118.104545" y="22.854529" style="fill: #5baa46; stroke: #5baa46"/>
    </g>
    <g clip-path="url(#pd12ac5b83a)">
     <use xlink:href="#C0_0_24a0ecffef" x="125.468182" y="13.246" style="fill: #1f77b4; stroke: #1f77b4"/>
    </g>
    <g clip-path="url(#pd12ac5b83a)">
     <use xlink:href="#C0_0_24a0ecffef" x="136.65" y="26.196943" style="fill: #5baa46; stroke: #5baa46"/>
    </g>
    <g clip-path="url(#pd12ac5b83a)">
     <use xlink:href="#C0_0_24a0ecffef" x="144.559091" y="19.99653" style="fill: #1f77b4; stroke: #1f77b4"/>
    </g>
    <g clip-path="url(#pd12ac5b83a)">
     <use xlink:href="#C0_0_24a0ecffef" x="155.740909" y="25.840195" style="fill: #5baa46; stroke: #5baa46"/>
    </g>
    <g clip-path="url(#pd12ac5b83a)">
     <use xlink:href="#C0_0_24a0ecffef" x="177.559091" y="14.718437" style="fill: #1f77b4; stroke: #1f77b4"/>
    </g>
   </g>
   <g id="matplotlib.axis_1">
    <g id="xtick_1">
     <g id="line2d_1">
      <defs>
       <path id="mbd5dcfc639" d="M 0 0 
L 0 3.5 
" style="stroke: #000000; stroke-width: 0.5"/>
      </defs>
      <g>
       <use xlink:href="#mbd5dcfc639" x="40.377273" y="64.08" style="stroke: #000000; stroke-width: 0.5"/>
      </g>
     </g>
     <g id="text_1">
      <!-- 0 -->
      <g transform="translate(38.987038 74.658906) scale(0.05 -0.05)">
       <defs>
        <path id="ArialMT-30" d="M 266 2259 
Q 266 3072 433 3567 
Q 600 4063 929 4331 
Q 1259 4600 1759 4600 
Q 2128 4600 2406 4451 
Q 2684 4303 2865 4023 
Q 3047 3744 3150 3342 
Q 3253 2941 3253 2259 
Q 3253 1453 3087 958 
Q 2922 463 2592 192 
Q 2263 -78 1759 -78 
Q 1097 -78 719 397 
Q 266 969 266 2259 
z
M 844 2259 
Q 844 1131 1108 757 
Q 1372 384 1759 384 
Q 2147 384 2411 759 
Q 2675 1134 2675 2259 
Q 2675 3391 2411 3762 
Q 2147 4134 1753 4134 
Q 1366 4134 1134 3806 
Q 844 3388 844 2259 
z
" transform="scale(0.015625)"/>
       </defs>
       <use xlink:href="#ArialMT-30"/>
      </g>
     </g>
    </g>
    <g id="xtick_2">
     <g id="line2d_2">
      <g>
       <use xlink:href="#mbd5dcfc639" x="73.104545" y="64.08" style="stroke: #000000; stroke-width: 0.5"/>
      </g>
     </g>
     <g id="text_2">
      <!-- 20 -->
      <g transform="translate(70.324077 74.658906) scale(0.05 -0.05)">
       <defs>
        <path id="ArialMT-32" d="M 3222 541 
L 3222 0 
L 194 0 
Q 188 203 259 391 
Q 375 700 629 1000 
Q 884 1300 1366 1694 
Q 2113 2306 2375 2664 
Q 2638 3022 2638 3341 
Q 2638 3675 2398 3904 
Q 2159 4134 1775 4134 
Q 1369 4134 1125 3890 
Q 881 3647 878 3216 
L 300 3275 
Q 359 3922 746 4261 
Q 1134 4600 1788 4600 
Q 2447 4600 2831 4234 
Q 3216 3869 3216 3328 
Q 3216 3053 3103 2787 
Q 2991 2522 2730 2228 
Q 2469 1934 1863 1422 
Q 1356 997 1212 845 
Q 1069 694 975 541 
L 3222 541 
z
" transform="scale(0.015625)"/>
       </defs>
       <use xlink:href="#ArialMT-32"/>
       <use xlink:href="#ArialMT-30" x="55.615234"/>
      </g>
     </g>
    </g>
    <g id="xtick_3">
     <g id="line2d_3">
      <g>
       <use xlink:href="#mbd5dcfc639" x="105.831818" y="64.08" style="stroke: #000000; stroke-width: 0.5"/>
      </g>
     </g>
     <g id="text_3">
      <!-- 40 -->
      <g transform="translate(103.051349 74.658906) scale(0.05 -0.05)">
       <defs>
        <path id="ArialMT-34" d="M 2069 0 
L 2069 1097 
L 81 1097 
L 81 1613 
L 2172 4581 
L 2631 4581 
L 2631 1613 
L 3250 1613 
L 3250 1097 
L 2631 1097 
L 2631 0 
L 2069 0 
z
M 2069 1613 
L 2069 3678 
L 634 1613 
L 2069 1613 
z
" transform="scale(0.015625)"/>
       </defs>
       <use xlink:href="#ArialMT-34"/>
       <use xlink:href="#ArialMT-30" x="55.615234"/>
      </g>
     </g>
    </g>
    <g id="xtick_4">
     <g id="line2d_4">
      <g>
       <use xlink:href="#mbd5dcfc639" x="138.559091" y="64.08" style="stroke: #000000; stroke-width: 0.5"/>
      </g>
     </g>
     <g id="text_4">
      <!-- 60 -->
      <g transform="translate(135.778622 74.658906) scale(0.05 -0.05)">
       <defs>
        <path id="ArialMT-36" d="M 3184 3459 
L 2625 3416 
Q 2550 3747 2413 3897 
Q 2184 4138 1850 4138 
Q 1581 4138 1378 3988 
Q 1113 3794 959 3422 
Q 806 3050 800 2363 
Q 1003 2672 1297 2822 
Q 1591 2972 1913 2972 
Q 2475 2972 2870 2558 
Q 3266 2144 3266 1488 
Q 3266 1056 3080 686 
Q 2894 316 2569 119 
Q 2244 -78 1831 -78 
Q 1128 -78 684 439 
Q 241 956 241 2144 
Q 241 3472 731 4075 
Q 1159 4600 1884 4600 
Q 2425 4600 2770 4297 
Q 3116 3994 3184 3459 
z
M 888 1484 
Q 888 1194 1011 928 
Q 1134 663 1356 523 
Q 1578 384 1822 384 
Q 2178 384 2434 671 
Q 2691 959 2691 1453 
Q 2691 1928 2437 2201 
Q 2184 2475 1800 2475 
Q 1419 2475 1153 2201 
Q 888 1928 888 1484 
z
" transform="scale(0.015625)"/>
       </defs>
       <use xlink:href="#ArialMT-36"/>
       <use xlink:href="#ArialMT-30" x="55.615234"/>
      </g>
     </g>
    </g>
    <g id="xtick_5">
     <g id="line2d_5">
      <g>
       <use xlink:href="#mbd5dcfc639" x="171.286364" y="64.08" style="stroke: #000000; stroke-width: 0.5"/>
      </g>
     </g>
     <g id="text_5">
      <!-- 80 -->
      <g transform="translate(168.505895 74.658906) scale(0.05 -0.05)">
       <defs>
        <path id="ArialMT-38" d="M 1131 2484 
Q 781 2613 612 2850 
Q 444 3088 444 3419 
Q 444 3919 803 4259 
Q 1163 4600 1759 4600 
Q 2359 4600 2725 4251 
Q 3091 3903 3091 3403 
Q 3091 3084 2923 2848 
Q 2756 2613 2416 2484 
Q 2838 2347 3058 2040 
Q 3278 1734 3278 1309 
Q 3278 722 2862 322 
Q 2447 -78 1769 -78 
Q 1091 -78 675 323 
Q 259 725 259 1325 
Q 259 1772 486 2073 
Q 713 2375 1131 2484 
z
M 1019 3438 
Q 1019 3113 1228 2906 
Q 1438 2700 1772 2700 
Q 2097 2700 2305 2904 
Q 2513 3109 2513 3406 
Q 2513 3716 2298 3927 
Q 2084 4138 1766 4138 
Q 1444 4138 1231 3931 
Q 1019 3725 1019 3438 
z
M 838 1322 
Q 838 1081 952 856 
Q 1066 631 1291 507 
Q 1516 384 1775 384 
Q 2178 384 2440 643 
Q 2703 903 2703 1303 
Q 2703 1709 2433 1975 
Q 2163 2241 1756 2241 
Q 1359 2241 1098 1978 
Q 838 1716 838 1322 
z
" transform="scale(0.015625)"/>
       </defs>
       <use xlink:href="#ArialMT-38"/>
       <use xlink:href="#ArialMT-30" x="55.615234"/>
      </g>
     </g>
    </g>
    <g id="xtick_6">
     <g id="line2d_6">
      <g>
       <use xlink:href="#mbd5dcfc639" x="204.013636" y="64.08" style="stroke: #000000; stroke-width: 0.5"/>
      </g>
     </g>
     <g id="text_6">
      <!-- 100 -->
      <g transform="translate(199.842933 74.658906) scale(0.05 -0.05)">
       <defs>
        <path id="ArialMT-31" d="M 2384 0 
L 1822 0 
L 1822 3584 
Q 1619 3391 1289 3197 
Q 959 3003 697 2906 
L 697 3450 
Q 1169 3672 1522 3987 
Q 1875 4303 2022 4600 
L 2384 4600 
L 2384 0 
z
" transform="scale(0.015625)"/>
       </defs>
       <use xlink:href="#ArialMT-31"/>
       <use xlink:href="#ArialMT-30" x="55.615234"/>
       <use xlink:href="#ArialMT-30" x="111.230469"/>
      </g>
     </g>
    </g>
    <g id="text_7">
     <!-- Time (h) -->
     <g transform="translate(115.333594 85.112422) scale(0.075 -0.075)">
      <defs>
       <path id="ArialMT-54" d="M 1659 0 
L 1659 4041 
L 150 4041 
L 150 4581 
L 3781 4581 
L 3781 4041 
L 2266 4041 
L 2266 0 
L 1659 0 
z
" transform="scale(0.015625)"/>
       <path id="ArialMT-69" d="M 425 3934 
L 425 4581 
L 988 4581 
L 988 3934 
L 425 3934 
z
M 425 0 
L 425 3319 
L 988 3319 
L 988 0 
L 425 0 
z
" transform="scale(0.015625)"/>
       <path id="ArialMT-6d" d="M 422 0 
L 422 3319 
L 925 3319 
L 925 2853 
Q 1081 3097 1340 3245 
Q 1600 3394 1931 3394 
Q 2300 3394 2536 3241 
Q 2772 3088 2869 2813 
Q 3263 3394 3894 3394 
Q 4388 3394 4653 3120 
Q 4919 2847 4919 2278 
L 4919 0 
L 4359 0 
L 4359 2091 
Q 4359 2428 4304 2576 
Q 4250 2725 4106 2815 
Q 3963 2906 3769 2906 
Q 3419 2906 3187 2673 
Q 2956 2441 2956 1928 
L 2956 0 
L 2394 0 
L 2394 2156 
Q 2394 2531 2256 2718 
Q 2119 2906 1806 2906 
Q 1569 2906 1367 2781 
Q 1166 2656 1075 2415 
Q 984 2175 984 1722 
L 984 0 
L 422 0 
z
" transform="scale(0.015625)"/>
       <path id="ArialMT-65" d="M 2694 1069 
L 3275 997 
Q 3138 488 2766 206 
Q 2394 -75 1816 -75 
Q 1088 -75 661 373 
Q 234 822 234 1631 
Q 234 2469 665 2931 
Q 1097 3394 1784 3394 
Q 2450 3394 2872 2941 
Q 3294 2488 3294 1666 
Q 3294 1616 3291 1516 
L 816 1516 
Q 847 969 1125 678 
Q 1403 388 1819 388 
Q 2128 388 2347 550 
Q 2566 713 2694 1069 
z
M 847 1978 
L 2700 1978 
Q 2663 2397 2488 2606 
Q 2219 2931 1791 2931 
Q 1403 2931 1139 2672 
Q 875 2413 847 1978 
z
" transform="scale(0.015625)"/>
       <path id="ArialMT-20" transform="scale(0.015625)"/>
       <path id="ArialMT-28" d="M 1497 -1347 
Q 1031 -759 709 28 
Q 388 816 388 1659 
Q 388 2403 628 3084 
Q 909 3875 1497 4659 
L 1900 4659 
Q 1522 4009 1400 3731 
Q 1209 3300 1100 2831 
Q 966 2247 966 1656 
Q 966 153 1900 -1347 
L 1497 -1347 
z
" transform="scale(0.015625)"/>
       <path id="ArialMT-68" d="M 422 0 
L 422 4581 
L 984 4581 
L 984 2938 
Q 1378 3394 1978 3394 
Q 2347 3394 2619 3248 
Q 2891 3103 3008 2847 
Q 3125 2591 3125 2103 
L 3125 0 
L 2563 0 
L 2563 2103 
Q 2563 2525 2380 2717 
Q 2197 2909 1863 2909 
Q 1613 2909 1392 2779 
Q 1172 2650 1078 2428 
Q 984 2206 984 1816 
L 984 0 
L 422 0 
z
" transform="scale(0.015625)"/>
       <path id="ArialMT-29" d="M 791 -1347 
L 388 -1347 
Q 1322 153 1322 1656 
Q 1322 2244 1188 2822 
Q 1081 3291 891 3722 
Q 769 4003 388 4659 
L 791 4659 
Q 1378 3875 1659 3084 
Q 1900 2403 1900 1659 
Q 1900 816 1576 28 
Q 1253 -759 791 -1347 
z
" transform="scale(0.015625)"/>
      </defs>
      <use xlink:href="#ArialMT-54"/>
      <use xlink:href="#ArialMT-69" x="57.333984"/>
      <use xlink:href="#ArialMT-6d" x="79.550781"/>
      <use xlink:href="#ArialMT-65" x="162.851562"/>
      <use xlink:href="#ArialMT-20" x="218.466797"/>
      <use xlink:href="#ArialMT-28" x="246.25"/>
      <use xlink:href="#ArialMT-68" x="279.550781"/>
      <use xlink:href="#ArialMT-29" x="335.166016"/>
     </g>
    </g>
   </g>
   <g id="matplotlib.axis_2">
    <g id="ytick_1">
     <g id="line2d_7">
      <defs>
       <path id="m81188df19e" d="M 0 0 
L -3.5 0 
" style="stroke: #000000; stroke-width: 0.5"/>
      </defs>
      <g>
       <use xlink:href="#m81188df19e" x="31.5" y="61.56" style="stroke: #000000; stroke-width: 0.5"/>
      </g>
     </g>
     <g id="text_8">
      <!-- 0 -->
      <g transform="translate(21.719531 63.349453) scale(0.05 -0.05)">
       <use xlink:href="#ArialMT-30"/>
      </g>
     </g>
    </g>
    <g id="ytick_2">
     <g id="line2d_8">
      <g>
       <use xlink:href="#m81188df19e" x="31.5" y="49.389808" style="stroke: #000000; stroke-width: 0.5"/>
      </g>
     </g>
     <g id="text_9">
      <!-- 1 -->
      <g transform="translate(21.719531 51.179261) scale(0.05 -0.05)">
       <use xlink:href="#ArialMT-31"/>
      </g>
     </g>
    </g>
    <g id="ytick_3">
     <g id="line2d_9">
      <g>
       <use xlink:href="#m81188df19e" x="31.5" y="37.219616" style="stroke: #000000; stroke-width: 0.5"/>
      </g>
     </g>
     <g id="text_10">
      <!-- 2 -->
      <g transform="translate(21.719531 39.009069) scale(0.05 -0.05)">
       <use xlink:href="#ArialMT-32"/>
      </g>
     </g>
    </g>
    <g id="ytick_4">
     <g id="line2d_10">
      <g>
       <use xlink:href="#m81188df19e" x="31.5" y="25.049424" style="stroke: #000000; stroke-width: 0.5"/>
      </g>
     </g>
     <g id="text_11">
      <!-- 3 -->
      <g transform="translate(21.719531 26.838877) scale(0.05 -0.05)">
       <defs>
        <path id="ArialMT-33" d="M 269 1209 
L 831 1284 
Q 928 806 1161 595 
Q 1394 384 1728 384 
Q 2125 384 2398 659 
Q 2672 934 2672 1341 
Q 2672 1728 2419 1979 
Q 2166 2231 1775 2231 
Q 1616 2231 1378 2169 
L 1441 2663 
Q 1497 2656 1531 2656 
Q 1891 2656 2178 2843 
Q 2466 3031 2466 3422 
Q 2466 3731 2256 3934 
Q 2047 4138 1716 4138 
Q 1388 4138 1169 3931 
Q 950 3725 888 3313 
L 325 3413 
Q 428 3978 793 4289 
Q 1159 4600 1703 4600 
Q 2078 4600 2393 4439 
Q 2709 4278 2876 4000 
Q 3044 3722 3044 3409 
Q 3044 3113 2884 2869 
Q 2725 2625 2413 2481 
Q 2819 2388 3044 2092 
Q 3269 1797 3269 1353 
Q 3269 753 2831 336 
Q 2394 -81 1725 -81 
Q 1122 -81 723 278 
Q 325 638 269 1209 
z
" transform="scale(0.015625)"/>
       </defs>
       <use xlink:href="#ArialMT-33"/>
      </g>
     </g>
    </g>
    <g id="ytick_5">
     <g id="line2d_11">
      <g>
       <use xlink:href="#m81188df19e" x="31.5" y="12.879232" style="stroke: #000000; stroke-width: 0.5"/>
      </g>
     </g>
     <g id="text_12">
      <!-- 4 -->
      <g transform="translate(21.719531 14.668685) scale(0.05 -0.05)">
       <use xlink:href="#ArialMT-34"/>
      </g>
     </g>
    </g>
    <g id="text_13">
     <!-- p53 level (FC) -->
     <g transform="translate(16.141016 59.907656) rotate(-90) scale(0.075 -0.075)">
      <defs>
       <path id="ArialMT-70" d="M 422 -1272 
L 422 3319 
L 934 3319 
L 934 2888 
Q 1116 3141 1344 3267 
Q 1572 3394 1897 3394 
Q 2322 3394 2647 3175 
Q 2972 2956 3137 2557 
Q 3303 2159 3303 1684 
Q 3303 1175 3120 767 
Q 2938 359 2589 142 
Q 2241 -75 1856 -75 
Q 1575 -75 1351 44 
Q 1128 163 984 344 
L 984 -1272 
L 422 -1272 
z
M 931 1641 
Q 931 1000 1190 694 
Q 1450 388 1819 388 
Q 2194 388 2461 705 
Q 2728 1022 2728 1688 
Q 2728 2322 2467 2637 
Q 2206 2953 1844 2953 
Q 1484 2953 1207 2617 
Q 931 2281 931 1641 
z
" transform="scale(0.015625)"/>
       <path id="ArialMT-35" d="M 266 1200 
L 856 1250 
Q 922 819 1161 601 
Q 1400 384 1738 384 
Q 2144 384 2425 690 
Q 2706 997 2706 1503 
Q 2706 1984 2436 2262 
Q 2166 2541 1728 2541 
Q 1456 2541 1237 2417 
Q 1019 2294 894 2097 
L 366 2166 
L 809 4519 
L 3088 4519 
L 3088 3981 
L 1259 3981 
L 1013 2750 
Q 1425 3038 1878 3038 
Q 2478 3038 2890 2622 
Q 3303 2206 3303 1553 
Q 3303 931 2941 478 
Q 2500 -78 1738 -78 
Q 1113 -78 717 272 
Q 322 622 266 1200 
z
" transform="scale(0.015625)"/>
       <path id="ArialMT-6c" d="M 409 0 
L 409 4581 
L 972 4581 
L 972 0 
L 409 0 
z
" transform="scale(0.015625)"/>
       <path id="ArialMT-76" d="M 1344 0 
L 81 3319 
L 675 3319 
L 1388 1331 
Q 1503 1009 1600 663 
Q 1675 925 1809 1294 
L 2547 3319 
L 3125 3319 
L 1869 0 
L 1344 0 
z
" transform="scale(0.015625)"/>
       <path id="ArialMT-46" d="M 525 0 
L 525 4581 
L 3616 4581 
L 3616 4041 
L 1131 4041 
L 1131 2622 
L 3281 2622 
L 3281 2081 
L 1131 2081 
L 1131 0 
L 525 0 
z
" transform="scale(0.015625)"/>
       <path id="ArialMT-43" d="M 3763 1606 
L 4369 1453 
Q 4178 706 3683 314 
Q 3188 -78 2472 -78 
Q 1731 -78 1267 223 
Q 803 525 561 1097 
Q 319 1669 319 2325 
Q 319 3041 592 3573 
Q 866 4106 1370 4382 
Q 1875 4659 2481 4659 
Q 3169 4659 3637 4309 
Q 4106 3959 4291 3325 
L 3694 3184 
Q 3534 3684 3231 3912 
Q 2928 4141 2469 4141 
Q 1941 4141 1586 3887 
Q 1231 3634 1087 3207 
Q 944 2781 944 2328 
Q 944 1744 1114 1308 
Q 1284 872 1643 656 
Q 2003 441 2422 441 
Q 2931 441 3284 734 
Q 3638 1028 3763 1606 
z
" transform="scale(0.015625)"/>
      </defs>
      <use xlink:href="#ArialMT-70"/>
      <use xlink:href="#ArialMT-35" x="55.615234"/>
      <use xlink:href="#ArialMT-33" x="111.230469"/>
      <use xlink:href="#ArialMT-20" x="166.845703"/>
      <use xlink:href="#ArialMT-6c" x="194.628906"/>
      <use xlink:href="#ArialMT-65" x="216.845703"/>
      <use xlink:href="#ArialMT-76" x="272.460938"/>
      <use xlink:href="#ArialMT-65" x="322.460938"/>
      <use xlink:href="#ArialMT-6c" x="378.076172"/>
      <use xlink:href="#ArialMT-20" x="400.292969"/>
      <use xlink:href="#ArialMT-28" x="428.076172"/>
      <use xlink:href="#ArialMT-46" x="461.376953"/>
      <use xlink:href="#ArialMT-43" x="522.460938"/>
      <use xlink:href="#ArialMT-29" x="594.677734"/>
     </g>
    </g>
   </g>
   <g id="line2d_12">
    <path d="M 40.65 49.389808 
L 41.195455 46.804997 
L 41.468182 41.149338 
L 41.740909 39.382682 
L 42.013636 31.131344 
L 42.286364 31.644693 
L 42.559091 29.5239 
L 42.831818 23.72766 
L 43.104545 28.760229 
L 43.65 25.481261 
L 43.922727 30.307615 
L 44.195455 32.871747 
L 44.468182 39.779444 
L 44.740909 37.850116 
L 45.013636 39.502303 
L 45.286364 43.458702 
L 45.559091 43.186572 
L 45.831818 43.082336 
L 46.104545 43.666752 
L 46.377273 45.225571 
L 46.65 46.091362 
L 47.195455 43.149239 
L 47.468182 42.197984 
L 47.740909 43.382907 
L 48.013636 42.870475 
L 48.286364 45.653667 
L 48.559091 45.096281 
L 49.104545 42.10137 
L 49.65 38.578572 
L 49.922727 34.508973 
L 50.195455 34.23762 
L 51.013636 23.740645 
L 51.286364 23.835425 
L 51.559091 26.911566 
L 51.831818 26.993854 
L 53.195455 43.683619 
L 53.740909 46.406612 
L 54.013636 46.688763 
L 54.286364 44.73664 
L 54.559091 45.260293 
L 54.831818 46.733859 
L 55.104545 44.277421 
L 55.377273 44.302051 
L 55.922727 42.719167 
L 56.195455 43.475993 
L 56.740909 38.499389 
L 57.013636 36.003429 
L 57.286364 34.907288 
L 57.831818 28.912314 
L 58.104545 30.050799 
L 58.377273 27.214466 
L 58.65 26.345499 
L 58.922727 29.290727 
L 59.195455 30.835431 
L 59.468182 34.068173 
L 59.740909 39.885939 
L 60.559091 44.93735 
L 60.831818 45.781687 
L 61.104545 45.226841 
L 61.65 46.104347 
L 61.922727 45.512521 
L 62.195455 46.733436 
L 62.740909 44.564724 
L 63.013636 44.431976 
L 63.286364 42.508365 
L 63.559091 43.515867 
L 64.104545 39.566242 
L 64.377273 37.557379 
L 64.65 37.041348 
L 64.922727 34.583922 
L 65.195455 29.891374 
L 65.468182 27.828593 
L 65.740909 22.785509 
L 66.286364 18.761642 
L 66.559091 22.140188 
L 67.104545 35.240534 
L 67.377273 31.13826 
L 67.65 31.401498 
L 67.922727 28.896576 
L 68.195455 28.676741 
L 68.468182 30.112762 
L 68.740909 30.484471 
L 69.013636 31.315328 
L 69.559091 31.943711 
L 70.104545 34.094427 
L 70.65 34.087158 
L 71.195455 32.39799 
L 71.468182 31.982173 
L 71.740909 32.453319 
L 72.013636 31.579554 
L 72.559091 34.480179 
L 72.831818 32.861585 
L 73.377273 35.068194 
L 73.65 34.746805 
L 73.922727 36.4419 
L 74.195455 36.34218 
L 74.468182 34.817095 
L 74.740909 37.163087 
L 75.013636 37.186517 
L 75.286364 36.309434 
L 75.559091 36.897591 
L 75.831818 35.801026 
L 76.104545 35.700882 
L 76.377273 30.758859 
L 76.922727 41.807786 
L 77.195455 43.275142 
L 77.468182 43.955749 
L 77.740909 43.565832 
L 78.013636 42.66292 
L 78.286364 43.517913 
L 78.559091 43.636899 
L 78.831818 44.402477 
L 79.104545 43.52977 
L 79.377273 43.902396 
L 79.65 42.643301 
L 79.922727 42.181258 
L 80.468182 38.416748 
L 80.740909 35.885008 
L 81.559091 32.488959 
L 81.831818 33.660614 
L 82.104545 33.560259 
L 83.195455 42.932086 
L 83.468182 42.607026 
L 83.740909 42.910984 
L 84.013636 44.114962 
L 84.286364 43.950244 
L 84.559091 44.535436 
L 85.104545 43.835845 
L 85.377273 40.960202 
L 85.65 41.145457 
L 86.468182 30.418203 
L 87.013636 22.94818 
L 87.286364 18.877523 
L 87.559091 16.963368 
L 88.104545 11.16 
L 88.377273 12.661231 
L 89.195455 21.034943 
L 89.468182 25.970756 
L 90.013636 31.584212 
L 90.559091 36.50838 
L 90.831818 37.049111 
L 91.104545 38.718236 
L 91.65 39.610139 
L 91.922727 40.39343 
L 92.195455 40.486233 
L 92.468182 39.227421 
L 92.740909 38.895657 
L 93.013636 39.196863 
L 93.286364 39.153743 
L 93.559091 38.061553 
L 93.831818 38.33827 
L 94.104545 37.763029 
L 94.377273 32.227627 
L 94.65 33.832742 
L 94.922727 38.515479 
L 95.195455 39.864202 
L 95.468182 42.32925 
L 96.013636 41.173686 
L 96.286364 41.29726 
L 96.559091 42.199678 
L 97.104545 41.286462 
L 97.377273 40.958862 
L 97.65 41.099302 
L 97.922727 40.418624 
L 98.195455 40.157645 
L 98.740909 38.853242 
L 99.013636 37.073741 
L 99.286364 36.043021 
L 99.559091 32.434406 
L 100.104545 28.651687 
L 100.377273 28.362549 
L 100.65 27.03648 
L 100.922727 27.498875 
L 101.195455 26.928997 
L 102.286364 40.489762 
L 102.831818 41.990852 
L 103.104545 42.606461 
L 103.377273 36.657289 
L 103.65 38.846114 
L 103.922727 35.76708 
L 104.195455 35.160857 
L 104.740909 28.893965 
L 105.013636 27.439735 
L 106.104545 15.491566 
L 106.377273 13.221511 
L 106.65 12.932091 
L 106.922727 11.428531 
L 107.468182 13.994922 
L 109.104545 28.359656 
L 109.65 32.669344 
L 109.922727 35.33362 
L 110.195455 35.614007 
L 110.468182 37.374524 
L 111.013636 38.803629 
L 111.286364 38.092252 
L 111.559091 38.616258 
L 111.831818 39.447538 
L 112.104545 38.556412 
L 112.377273 29.777328 
L 112.65 37.732188 
L 112.922727 40.359625 
L 113.195455 41.807997 
L 113.468182 41.606299 
L 113.740909 41.109959 
L 114.013636 40.910025 
L 114.286364 41.052936 
L 114.831818 39.043648 
L 115.104545 38.8296 
L 115.922727 36.073861 
L 116.195455 33.896893 
L 116.740909 31.967847 
L 117.559091 26.006607 
L 117.831818 25.785784 
L 118.104545 22.854529 
L 118.377273 24.710532 
L 118.65 24.934813 
L 119.740909 40.635848 
L 120.013636 41.472563 
L 120.286364 41.856481 
L 120.559091 41.543419 
L 121.104545 42.099253 
L 121.377273 34.687664 
L 121.65 39.752767 
L 122.468182 33.516433 
L 122.740909 32.67252 
L 123.013636 30.485529 
L 123.286364 29.917134 
L 123.559091 26.711985 
L 124.104545 23.692797 
L 125.195455 14.060978 
L 125.468182 13.246 
L 125.740909 13.395968 
L 126.013636 14.575245 
L 126.286364 16.898723 
L 127.377273 31.567133 
L 127.65 34.008539 
L 127.922727 34.769035 
L 128.195455 36.72137 
L 128.468182 37.532396 
L 128.740909 39.058045 
L 129.286364 39.757637 
L 129.559091 39.421356 
L 129.831818 39.526227 
L 130.104545 39.464829 
L 130.377273 31.947522 
L 130.65 37.899094 
L 130.922727 40.728934 
L 131.468182 41.288367 
L 131.740909 41.272489 
L 132.013636 41.693598 
L 132.286364 41.457743 
L 132.559091 41.604182 
L 132.831818 40.320528 
L 133.104545 40.325821 
L 133.65 38.817532 
L 133.922727 38.618163 
L 134.468182 36.580294 
L 134.740909 35.712809 
L 135.013636 33.861394 
L 135.286364 33.144654 
L 135.831818 29.496165 
L 136.104545 28.716967 
L 136.65 26.196943 
L 136.922727 25.275187 
L 137.195455 25.862426 
L 137.468182 28.114908 
L 138.013636 35.632638 
L 138.286364 38.837998 
L 138.831818 41.42415 
L 139.104545 40.981163 
L 139.377273 35.955581 
L 139.65 38.449705 
L 139.922727 38.425781 
L 140.468182 34.456255 
L 140.740909 33.211698 
L 141.013636 32.844506 
L 141.286364 33.685103 
L 141.559091 32.820935 
L 141.831818 32.471245 
L 142.104545 30.540153 
L 142.377273 29.668646 
L 142.65 27.672062 
L 142.922727 26.958991 
L 143.195455 24.363382 
L 143.468182 24.355408 
L 144.013636 21.324151 
L 144.286364 20.357088 
L 144.559091 19.99653 
L 144.831818 19.253395 
L 145.104545 22.109771 
L 145.377273 23.252421 
L 146.740909 33.085231 
L 147.559091 35.951346 
L 147.831818 36.275418 
L 148.104545 37.25095 
L 148.377273 30.468521 
L 148.65 37.089973 
L 148.922727 40.480094 
L 149.195455 42.177448 
L 149.468182 40.870857 
L 149.740909 41.37729 
L 150.013636 41.050889 
L 150.286364 41.131836 
L 150.559091 41.522952 
L 150.831818 40.857519 
L 151.377273 40.230688 
L 151.65 40.355744 
L 151.922727 39.931458 
L 152.468182 38.563046 
L 152.740909 38.846961 
L 153.559091 36.33844 
L 154.377273 31.826842 
L 154.922727 28.21978 
L 155.195455 26.988702 
L 155.740909 25.840195 
L 156.013636 25.660869 
L 156.286364 25.615561 
L 156.559091 26.656162 
L 157.104545 33.010494 
L 157.377273 30.449114 
L 157.65 33.498931 
L 157.922727 33.804795 
L 158.195455 31.947381 
L 158.468182 31.535516 
L 158.740909 32.543512 
L 159.013636 32.615497 
L 159.286364 32.521352 
L 159.559091 33.925263 
L 159.831818 33.504365 
L 160.104545 33.982921 
L 160.377273 33.667459 
L 160.65 34.258368 
L 160.922727 34.133171 
L 161.195455 34.813778 
L 161.468182 34.512643 
L 161.740909 33.747772 
L 162.013636 34.295278 
L 162.286364 33.510716 
L 162.559091 33.427722 
L 162.831818 33.978263 
L 163.104545 32.38324 
L 163.377273 32.529609 
L 163.65 32.864337 
L 163.922727 32.688187 
L 164.195455 32.223745 
L 164.468182 32.206384 
L 165.286364 30.661115 
L 165.831818 30.557514 
L 166.104545 30.263365 
L 166.377273 30.480095 
L 166.65 31.371363 
L 166.922727 37.282496 
L 167.468182 41.218147 
L 167.740909 41.309257 
L 168.013636 41.042632 
L 168.831818 42.002497 
L 169.104545 41.369879 
L 169.377273 42.391637 
L 169.65 42.673788 
L 169.922727 41.55464 
L 170.195455 41.523305 
L 170.740909 40.734933 
L 171.013636 41.289497 
L 171.286364 41.306081 
L 171.559091 41.03628 
L 171.831818 41.116804 
L 172.104545 40.107185 
L 172.377273 39.665821 
L 172.65 38.719224 
L 172.922727 38.311876 
L 173.195455 37.314466 
L 173.468182 36.870843 
L 174.286364 33.099487 
L 175.104545 30.0755 
L 175.377273 29.068562 
L 175.65 24.170788 
L 176.195455 23.753772 
L 176.468182 20.287926 
L 176.740909 19.557989 
L 177.286364 15.690018 
L 177.559091 14.718437 
L 177.831818 16.633368 
L 178.104545 17.471353 
L 178.65 22.512814 
L 178.922727 25.423602 
L 179.195455 30.214529 
L 179.740909 34.533109 
L 180.286364 37.612426 
L 180.559091 38.676386 
L 180.831818 40.684191 
L 181.104545 40.871986 
L 181.377273 41.470376 
L 181.65 41.777227 
L 182.195455 41.508344 
L 182.468182 42.008072 
L 182.740909 41.387805 
L 183.286364 41.97702 
L 183.559091 41.309892 
L 184.377273 40.356873 
L 184.65 39.627076 
L 184.922727 42.07067 
L 185.195455 43.451574 
L 185.468182 43.474581 
L 185.740909 43.754757 
L 186.013636 42.985086 
L 186.286364 43.929919 
L 186.831818 43.059188 
L 187.104545 43.128491 
L 187.377273 42.429746 
L 187.65 43.074149 
L 187.922727 41.484631 
L 188.195455 41.92162 
L 188.468182 40.396253 
L 188.740909 40.940019 
L 189.013636 39.970979 
L 189.286364 39.477391 
L 189.559091 38.272214 
L 189.831818 37.686669 
L 190.65 34.431343 
L 190.922727 34.471358 
L 191.468182 31.56558 
L 191.740909 31.272067 
L 192.013636 32.621213 
L 192.286364 31.860364 
L 192.559091 34.657741 
L 193.377273 38.205804 
L 193.65 40.304931 
L 194.195455 42.792774 
L 194.468182 42.723542 
L 194.740909 43.150792 
L 195.013636 43.101532 
L 195.286364 44.00762 
L 195.831818 44.555338 
L 196.104545 44.156741 
L 196.377273 44.648071 
L 196.65 44.524427 
L 196.922727 45.110537 
L 197.468182 45.062123 
L 197.740909 44.402194 
L 198.013636 44.789923 
L 198.286364 43.701403 
L 198.559091 43.610646 
L 198.831818 43.248747 
L 199.377273 43.74537 
L 199.65 42.417114 
L 199.922727 42.294458 
L 200.195455 42.57174 
L 200.740909 40.818351 
L 201.013636 40.417072 
L 201.286364 38.646675 
L 201.831818 36.937323 
L 202.104545 35.315694 
L 202.377273 34.825494 
L 202.922727 31.246025 
L 203.740909 28.829743 
L 204.013636 29.273577 
L 204.559091 32.176461 
L 205.377273 41.600583 
L 206.195455 45.339052 
L 206.468182 45.099316 
L 206.740909 46.180637 
L 207.286364 46.617202 
L 207.559091 46.061086 
L 207.831818 46.269065 
L 208.104545 46.676201 
L 208.377273 46.789048 
L 208.65 46.731248 
L 208.922727 46.330463 
L 209.195455 46.937745 
L 209.740909 46.158406 
L 210.013636 46.215006 
L 210.286364 45.730239 
L 210.559091 46.489253 
L 210.831818 45.219996 
L 211.377273 44.586814 
L 211.65 44.561407 
L 212.468182 43.239855 
L 212.740909 42.022822 
L 213.286364 41.262185 
L 213.831818 39.397361 
L 214.104545 39.521358 
L 214.65 37.948777 
L 215.195455 36.19073 
L 215.468182 35.811047 
L 216.013636 33.395188 
L 216.831818 31.449417 
L 217.104545 30.366684 
L 217.377273 30.625194 
L 217.65 31.698258 
L 217.922727 32.185283 
L 217.922727 32.185283 
" clip-path="url(#pd12ac5b83a)" style="fill: none; stroke: #000000; stroke-width: 0.75; stroke-linecap: square"/>
   </g>
   <g id="line2d_13">
    <path d="M 40.377273 61.56 
L 67.104545 61.56 
L 67.104545 57.354721 
L 76.104545 57.354721 
L 76.104545 61.56 
L 85.104545 61.56 
L 85.104545 57.354721 
L 94.104545 57.354721 
L 94.104545 61.56 
L 103.104545 61.56 
L 103.104545 57.354721 
L 112.104545 57.354721 
L 112.104545 61.56 
L 121.104545 61.56 
L 121.104545 57.354721 
L 130.104545 57.354721 
L 130.104545 61.56 
L 139.104545 61.56 
L 139.104545 57.354721 
L 148.104545 57.354721 
L 148.104545 61.56 
L 157.104545 61.56 
L 157.104545 57.354721 
L 166.104545 57.354721 
L 166.104545 61.56 
L 175.104545 61.56 
L 175.104545 57.354721 
L 184.104545 57.354721 
L 184.104545 61.56 
L 217.922727 61.56 
" clip-path="url(#pd12ac5b83a)" style="fill: none; stroke: #000000; stroke-width: 0.75; stroke-linecap: square"/>
   </g>
   <g id="patch_3">
    <path d="M 31.5 64.08 
L 31.5 8.64 
" style="fill: none; stroke: #000000; stroke-width: 0.5; stroke-linejoin: miter; stroke-linecap: square"/>
   </g>
   <g id="patch_4">
    <path d="M 31.5 64.08 
L 226.8 64.08 
" style="fill: none; stroke: #000000; stroke-width: 0.5; stroke-linejoin: miter; stroke-linecap: square"/>
   </g>
  </g>
 </g>
 <defs>
  <clipPath id="pd12ac5b83a">
   <rect x="31.5" y="8.64" width="195.3" height="55.44"/>
  </clipPath>
 </defs>
</svg>
