<?xml version="1.0" encoding="utf-8" standalone="no"?>
<!DOCTYPE svg PUBLIC "-//W3C//DTD SVG 1.1//EN"
  "http://www.w3.org/Graphics/SVG/1.1/DTD/svg11.dtd">
<svg xmlns:xlink="http://www.w3.org/1999/xlink" width="252pt" height="72pt" viewBox="0 0 252 72" xmlns="http://www.w3.org/2000/svg" version="1.1">
 <metadata>
  <rdf:RDF xmlns:dc="http://purl.org/dc/elements/1.1/" xmlns:cc="http://creativecommons.org/ns#" xmlns:rdf="http://www.w3.org/1999/02/22-rdf-syntax-ns#">
   <cc:Work>
    <dc:type rdf:resource="http://purl.org/dc/dcmitype/StillImage"/>
    <dc:date>2024-07-09T19:54:48.632247</dc:date>
    <dc:format>image/svg+xml</dc:format>
    <dc:creator>
     <cc:Agent>
      <dc:title>Matplotlib v3.8.3, https://matplotlib.org/</dc:title>
     </cc:Agent>
    </dc:creator>
   </cc:Work>
  </rdf:RDF>
 </metadata>
 <defs>
  <style type="text/css">*{stroke-linejoin: round; stroke-linecap: butt}</style>
 </defs>
 <g id="figure_1">
  <g id="patch_1">
   <path d="M 0 72 
L 252 72 
L 252 0 
L 0 0 
z
" style="fill: #ffffff"/>
  </g>
  <g id="axes_1">
   <g id="patch_2">
    <path d="M 31.5 64.08 
L 226.8 64.08 
L 226.8 8.64 
L 31.5 8.64 
z
" style="fill: #f2f2f2"/>
   </g>
   <g id="PathCollection_1">
    <defs>
     <path id="C0_0_93e07f9a09" d="M 0 2.236068 
C 0.593012 2.236068 1.161816 2.000462 1.581139 1.581139 
C 2.000462 1.161816 2.236068 0.593012 2.236068 -0 
C 2.236068 -0.593012 2.000462 -1.161816 1.581139 -1.581139 
C 1.161816 -2.000462 0.593012 -2.236068 0 -2.236068 
C -0.593012 -2.236068 -1.161816 -2.000462 -1.581139 -1.581139 
C -2.000462 -1.161816 -2.236068 -0.593012 -2.236068 0 
C -2.236068 0.593012 -2.000462 1.161816 -1.581139 1.581139 
C -1.161816 2.000462 -0.593012 2.236068 0 2.236068 
z
"/>
    </defs>
    <g clip-path="url(#pb2c30a5ab5)">
     <use xlink:href="#C0_0_93e07f9a09" x="111.857546" y="21.19388" style="fill: #5baa46; stroke: #5baa46"/>
    </g>
    <g clip-path="url(#pb2c30a5ab5)">
     <use xlink:href="#C0_0_93e07f9a09" x="119.520377" y="40.719737" style="fill: #1f77b4; stroke: #1f77b4"/>
    </g>
    <g clip-path="url(#pb2c30a5ab5)">
     <use xlink:href="#C0_0_93e07f9a09" x="127.183207" y="15.498118" style="fill: #5baa46; stroke: #5baa46"/>
    </g>
    <g clip-path="url(#pb2c30a5ab5)">
     <use xlink:href="#C0_0_93e07f9a09" x="134.335182" y="39.932822" style="fill: #1f77b4; stroke: #1f77b4"/>
    </g>
    <g clip-path="url(#pb2c30a5ab5)">
     <use xlink:href="#C0_0_93e07f9a09" x="142.508867" y="14.970626" style="fill: #5baa46; stroke: #5baa46"/>
    </g>
    <g clip-path="url(#pb2c30a5ab5)">
     <use xlink:href="#C0_0_93e07f9a09" x="150.171698" y="28.734424" style="fill: #1f77b4; stroke: #1f77b4"/>
    </g>
    <g clip-path="url(#pb2c30a5ab5)">
     <use xlink:href="#C0_0_93e07f9a09" x="157.834528" y="11.16" style="fill: #5baa46; stroke: #5baa46"/>
    </g>
    <g clip-path="url(#pb2c30a5ab5)">
     <use xlink:href="#C0_0_93e07f9a09" x="164.986503" y="41.529711" style="fill: #1f77b4; stroke: #1f77b4"/>
    </g>
    <g clip-path="url(#pb2c30a5ab5)">
     <use xlink:href="#C0_0_93e07f9a09" x="173.160188" y="12.872188" style="fill: #5baa46; stroke: #5baa46"/>
    </g>
    <g clip-path="url(#pb2c30a5ab5)">
     <use xlink:href="#C0_0_93e07f9a09" x="181.844729" y="43.685799" style="fill: #1f77b4; stroke: #1f77b4"/>
    </g>
   </g>
   <g id="matplotlib.axis_1">
    <g id="xtick_1">
     <g id="line2d_1">
      <defs>
       <path id="mb0979548e8" d="M 0 0 
L 0 3.5 
" style="stroke: #000000; stroke-width: 0.5"/>
      </defs>
      <g>
       <use xlink:href="#mb0979548e8" x="42.892074" y="64.08" style="stroke: #000000; stroke-width: 0.5"/>
      </g>
     </g>
     <g id="text_1">
      <!-- 0 -->
      <g transform="translate(41.50184 74.658906) scale(0.05 -0.05)">
       <defs>
        <path id="ArialMT-30" d="M 266 2259 
Q 266 3072 433 3567 
Q 600 4063 929 4331 
Q 1259 4600 1759 4600 
Q 2128 4600 2406 4451 
Q 2684 4303 2865 4023 
Q 3047 3744 3150 3342 
Q 3253 2941 3253 2259 
Q 3253 1453 3087 958 
Q 2922 463 2592 192 
Q 2263 -78 1759 -78 
Q 1097 -78 719 397 
Q 266 969 266 2259 
z
M 844 2259 
Q 844 1131 1108 757 
Q 1372 384 1759 384 
Q 2147 384 2411 759 
Q 2675 1134 2675 2259 
Q 2675 3391 2411 3762 
Q 2147 4134 1753 4134 
Q 1366 4134 1134 3806 
Q 844 3388 844 2259 
z
" transform="scale(0.015625)"/>
       </defs>
       <use xlink:href="#ArialMT-30"/>
      </g>
     </g>
    </g>
    <g id="xtick_2">
     <g id="line2d_2">
      <g>
       <use xlink:href="#mb0979548e8" x="73.543395" y="64.08" style="stroke: #000000; stroke-width: 0.5"/>
      </g>
     </g>
     <g id="text_2">
      <!-- 10 -->
      <g transform="translate(70.762926 74.658906) scale(0.05 -0.05)">
       <defs>
        <path id="ArialMT-31" d="M 2384 0 
L 1822 0 
L 1822 3584 
Q 1619 3391 1289 3197 
Q 959 3003 697 2906 
L 697 3450 
Q 1169 3672 1522 3987 
Q 1875 4303 2022 4600 
L 2384 4600 
L 2384 0 
z
" transform="scale(0.015625)"/>
       </defs>
       <use xlink:href="#ArialMT-31"/>
       <use xlink:href="#ArialMT-30" x="55.615234"/>
      </g>
     </g>
    </g>
    <g id="xtick_3">
     <g id="line2d_3">
      <g>
       <use xlink:href="#mb0979548e8" x="104.194716" y="64.08" style="stroke: #000000; stroke-width: 0.5"/>
      </g>
     </g>
     <g id="text_3">
      <!-- 20 -->
      <g transform="translate(101.414247 74.658906) scale(0.05 -0.05)">
       <defs>
        <path id="ArialMT-32" d="M 3222 541 
L 3222 0 
L 194 0 
Q 188 203 259 391 
Q 375 700 629 1000 
Q 884 1300 1366 1694 
Q 2113 2306 2375 2664 
Q 2638 3022 2638 3341 
Q 2638 3675 2398 3904 
Q 2159 4134 1775 4134 
Q 1369 4134 1125 3890 
Q 881 3647 878 3216 
L 300 3275 
Q 359 3922 746 4261 
Q 1134 4600 1788 4600 
Q 2447 4600 2831 4234 
Q 3216 3869 3216 3328 
Q 3216 3053 3103 2787 
Q 2991 2522 2730 2228 
Q 2469 1934 1863 1422 
Q 1356 997 1212 845 
Q 1069 694 975 541 
L 3222 541 
z
" transform="scale(0.015625)"/>
       </defs>
       <use xlink:href="#ArialMT-32"/>
       <use xlink:href="#ArialMT-30" x="55.615234"/>
      </g>
     </g>
    </g>
    <g id="xtick_4">
     <g id="line2d_4">
      <g>
       <use xlink:href="#mb0979548e8" x="134.846037" y="64.08" style="stroke: #000000; stroke-width: 0.5"/>
      </g>
     </g>
     <g id="text_4">
      <!-- 30 -->
      <g transform="translate(132.065568 74.658906) scale(0.05 -0.05)">
       <defs>
        <path id="ArialMT-33" d="M 269 1209 
L 831 1284 
Q 928 806 1161 595 
Q 1394 384 1728 384 
Q 2125 384 2398 659 
Q 2672 934 2672 1341 
Q 2672 1728 2419 1979 
Q 2166 2231 1775 2231 
Q 1616 2231 1378 2169 
L 1441 2663 
Q 1497 2656 1531 2656 
Q 1891 2656 2178 2843 
Q 2466 3031 2466 3422 
Q 2466 3731 2256 3934 
Q 2047 4138 1716 4138 
Q 1388 4138 1169 3931 
Q 950 3725 888 3313 
L 325 3413 
Q 428 3978 793 4289 
Q 1159 4600 1703 4600 
Q 2078 4600 2393 4439 
Q 2709 4278 2876 4000 
Q 3044 3722 3044 3409 
Q 3044 3113 2884 2869 
Q 2725 2625 2413 2481 
Q 2819 2388 3044 2092 
Q 3269 1797 3269 1353 
Q 3269 753 2831 336 
Q 2394 -81 1725 -81 
Q 1122 -81 723 278 
Q 325 638 269 1209 
z
" transform="scale(0.015625)"/>
       </defs>
       <use xlink:href="#ArialMT-33"/>
       <use xlink:href="#ArialMT-30" x="55.615234"/>
      </g>
     </g>
    </g>
    <g id="xtick_5">
     <g id="line2d_5">
      <g>
       <use xlink:href="#mb0979548e8" x="165.497358" y="64.08" style="stroke: #000000; stroke-width: 0.5"/>
      </g>
     </g>
     <g id="text_5">
      <!-- 40 -->
      <g transform="translate(162.716889 74.658906) scale(0.05 -0.05)">
       <defs>
        <path id="ArialMT-34" d="M 2069 0 
L 2069 1097 
L 81 1097 
L 81 1613 
L 2172 4581 
L 2631 4581 
L 2631 1613 
L 3250 1613 
L 3250 1097 
L 2631 1097 
L 2631 0 
L 2069 0 
z
M 2069 1613 
L 2069 3678 
L 634 1613 
L 2069 1613 
z
" transform="scale(0.015625)"/>
       </defs>
       <use xlink:href="#ArialMT-34"/>
       <use xlink:href="#ArialMT-30" x="55.615234"/>
      </g>
     </g>
    </g>
    <g id="xtick_6">
     <g id="line2d_6">
      <g>
       <use xlink:href="#mb0979548e8" x="196.148679" y="64.08" style="stroke: #000000; stroke-width: 0.5"/>
      </g>
     </g>
     <g id="text_6">
      <!-- 50 -->
      <g transform="translate(193.36821 74.658906) scale(0.05 -0.05)">
       <defs>
        <path id="ArialMT-35" d="M 266 1200 
L 856 1250 
Q 922 819 1161 601 
Q 1400 384 1738 384 
Q 2144 384 2425 690 
Q 2706 997 2706 1503 
Q 2706 1984 2436 2262 
Q 2166 2541 1728 2541 
Q 1456 2541 1237 2417 
Q 1019 2294 894 2097 
L 366 2166 
L 809 4519 
L 3088 4519 
L 3088 3981 
L 1259 3981 
L 1013 2750 
Q 1425 3038 1878 3038 
Q 2478 3038 2890 2622 
Q 3303 2206 3303 1553 
Q 3303 931 2941 478 
Q 2500 -78 1738 -78 
Q 1113 -78 717 272 
Q 322 622 266 1200 
z
" transform="scale(0.015625)"/>
       </defs>
       <use xlink:href="#ArialMT-35"/>
       <use xlink:href="#ArialMT-30" x="55.615234"/>
      </g>
     </g>
    </g>
    <g id="xtick_7">
     <g id="line2d_7">
      <g>
       <use xlink:href="#mb0979548e8" x="226.8" y="64.08" style="stroke: #000000; stroke-width: 0.5"/>
      </g>
     </g>
     <g id="text_7">
      <!-- 60 -->
      <g transform="translate(224.019531 74.658906) scale(0.05 -0.05)">
       <defs>
        <path id="ArialMT-36" d="M 3184 3459 
L 2625 3416 
Q 2550 3747 2413 3897 
Q 2184 4138 1850 4138 
Q 1581 4138 1378 3988 
Q 1113 3794 959 3422 
Q 806 3050 800 2363 
Q 1003 2672 1297 2822 
Q 1591 2972 1913 2972 
Q 2475 2972 2870 2558 
Q 3266 2144 3266 1488 
Q 3266 1056 3080 686 
Q 2894 316 2569 119 
Q 2244 -78 1831 -78 
Q 1128 -78 684 439 
Q 241 956 241 2144 
Q 241 3472 731 4075 
Q 1159 4600 1884 4600 
Q 2425 4600 2770 4297 
Q 3116 3994 3184 3459 
z
M 888 1484 
Q 888 1194 1011 928 
Q 1134 663 1356 523 
Q 1578 384 1822 384 
Q 2178 384 2434 671 
Q 2691 959 2691 1453 
Q 2691 1928 2437 2201 
Q 2184 2475 1800 2475 
Q 1419 2475 1153 2201 
Q 888 1928 888 1484 
z
" transform="scale(0.015625)"/>
       </defs>
       <use xlink:href="#ArialMT-36"/>
       <use xlink:href="#ArialMT-30" x="55.615234"/>
      </g>
     </g>
    </g>
    <g id="text_8">
     <!-- Time (h) -->
     <g transform="translate(115.333594 85.112422) scale(0.075 -0.075)">
      <defs>
       <path id="ArialMT-54" d="M 1659 0 
L 1659 4041 
L 150 4041 
L 150 4581 
L 3781 4581 
L 3781 4041 
L 2266 4041 
L 2266 0 
L 1659 0 
z
" transform="scale(0.015625)"/>
       <path id="ArialMT-69" d="M 425 3934 
L 425 4581 
L 988 4581 
L 988 3934 
L 425 3934 
z
M 425 0 
L 425 3319 
L 988 3319 
L 988 0 
L 425 0 
z
" transform="scale(0.015625)"/>
       <path id="ArialMT-6d" d="M 422 0 
L 422 3319 
L 925 3319 
L 925 2853 
Q 1081 3097 1340 3245 
Q 1600 3394 1931 3394 
Q 2300 3394 2536 3241 
Q 2772 3088 2869 2813 
Q 3263 3394 3894 3394 
Q 4388 3394 4653 3120 
Q 4919 2847 4919 2278 
L 4919 0 
L 4359 0 
L 4359 2091 
Q 4359 2428 4304 2576 
Q 4250 2725 4106 2815 
Q 3963 2906 3769 2906 
Q 3419 2906 3187 2673 
Q 2956 2441 2956 1928 
L 2956 0 
L 2394 0 
L 2394 2156 
Q 2394 2531 2256 2718 
Q 2119 2906 1806 2906 
Q 1569 2906 1367 2781 
Q 1166 2656 1075 2415 
Q 984 2175 984 1722 
L 984 0 
L 422 0 
z
" transform="scale(0.015625)"/>
       <path id="ArialMT-65" d="M 2694 1069 
L 3275 997 
Q 3138 488 2766 206 
Q 2394 -75 1816 -75 
Q 1088 -75 661 373 
Q 234 822 234 1631 
Q 234 2469 665 2931 
Q 1097 3394 1784 3394 
Q 2450 3394 2872 2941 
Q 3294 2488 3294 1666 
Q 3294 1616 3291 1516 
L 816 1516 
Q 847 969 1125 678 
Q 1403 388 1819 388 
Q 2128 388 2347 550 
Q 2566 713 2694 1069 
z
M 847 1978 
L 2700 1978 
Q 2663 2397 2488 2606 
Q 2219 2931 1791 2931 
Q 1403 2931 1139 2672 
Q 875 2413 847 1978 
z
" transform="scale(0.015625)"/>
       <path id="ArialMT-20" transform="scale(0.015625)"/>
       <path id="ArialMT-28" d="M 1497 -1347 
Q 1031 -759 709 28 
Q 388 816 388 1659 
Q 388 2403 628 3084 
Q 909 3875 1497 4659 
L 1900 4659 
Q 1522 4009 1400 3731 
Q 1209 3300 1100 2831 
Q 966 2247 966 1656 
Q 966 153 1900 -1347 
L 1497 -1347 
z
" transform="scale(0.015625)"/>
       <path id="ArialMT-68" d="M 422 0 
L 422 4581 
L 984 4581 
L 984 2938 
Q 1378 3394 1978 3394 
Q 2347 3394 2619 3248 
Q 2891 3103 3008 2847 
Q 3125 2591 3125 2103 
L 3125 0 
L 2563 0 
L 2563 2103 
Q 2563 2525 2380 2717 
Q 2197 2909 1863 2909 
Q 1613 2909 1392 2779 
Q 1172 2650 1078 2428 
Q 984 2206 984 1816 
L 984 0 
L 422 0 
z
" transform="scale(0.015625)"/>
       <path id="ArialMT-29" d="M 791 -1347 
L 388 -1347 
Q 1322 153 1322 1656 
Q 1322 2244 1188 2822 
Q 1081 3291 891 3722 
Q 769 4003 388 4659 
L 791 4659 
Q 1378 3875 1659 3084 
Q 1900 2403 1900 1659 
Q 1900 816 1576 28 
Q 1253 -759 791 -1347 
z
" transform="scale(0.015625)"/>
      </defs>
      <use xlink:href="#ArialMT-54"/>
      <use xlink:href="#ArialMT-69" x="57.333984"/>
      <use xlink:href="#ArialMT-6d" x="79.550781"/>
      <use xlink:href="#ArialMT-65" x="162.851562"/>
      <use xlink:href="#ArialMT-20" x="218.466797"/>
      <use xlink:href="#ArialMT-28" x="246.25"/>
      <use xlink:href="#ArialMT-68" x="279.550781"/>
      <use xlink:href="#ArialMT-29" x="335.166016"/>
     </g>
    </g>
   </g>
   <g id="matplotlib.axis_2">
    <g id="ytick_1">
     <g id="line2d_8">
      <defs>
       <path id="m5edecd4fcc" d="M 0 0 
L -3.5 0 
" style="stroke: #000000; stroke-width: 0.5"/>
      </defs>
      <g>
       <use xlink:href="#m5edecd4fcc" x="31.5" y="61.56" style="stroke: #000000; stroke-width: 0.5"/>
      </g>
     </g>
     <g id="text_9">
      <!-- 0 -->
      <g transform="translate(21.719531 63.349453) scale(0.05 -0.05)">
       <use xlink:href="#ArialMT-30"/>
      </g>
     </g>
    </g>
    <g id="ytick_2">
     <g id="line2d_9">
      <g>
       <use xlink:href="#m5edecd4fcc" x="31.5" y="47.141882" style="stroke: #000000; stroke-width: 0.5"/>
      </g>
     </g>
     <g id="text_10">
      <!-- 2 -->
      <g transform="translate(21.719531 48.931335) scale(0.05 -0.05)">
       <use xlink:href="#ArialMT-32"/>
      </g>
     </g>
    </g>
    <g id="ytick_3">
     <g id="line2d_10">
      <g>
       <use xlink:href="#m5edecd4fcc" x="31.5" y="32.723763" style="stroke: #000000; stroke-width: 0.5"/>
      </g>
     </g>
     <g id="text_11">
      <!-- 4 -->
      <g transform="translate(21.719531 34.513216) scale(0.05 -0.05)">
       <use xlink:href="#ArialMT-34"/>
      </g>
     </g>
    </g>
    <g id="ytick_4">
     <g id="line2d_11">
      <g>
       <use xlink:href="#m5edecd4fcc" x="31.5" y="18.305645" style="stroke: #000000; stroke-width: 0.5"/>
      </g>
     </g>
     <g id="text_12">
      <!-- 6 -->
      <g transform="translate(21.719531 20.095098) scale(0.05 -0.05)">
       <use xlink:href="#ArialMT-36"/>
      </g>
     </g>
    </g>
    <g id="text_13">
     <!-- p53 level (FC) -->
     <g transform="translate(16.141016 59.907656) rotate(-90) scale(0.075 -0.075)">
      <defs>
       <path id="ArialMT-70" d="M 422 -1272 
L 422 3319 
L 934 3319 
L 934 2888 
Q 1116 3141 1344 3267 
Q 1572 3394 1897 3394 
Q 2322 3394 2647 3175 
Q 2972 2956 3137 2557 
Q 3303 2159 3303 1684 
Q 3303 1175 3120 767 
Q 2938 359 2589 142 
Q 2241 -75 1856 -75 
Q 1575 -75 1351 44 
Q 1128 163 984 344 
L 984 -1272 
L 422 -1272 
z
M 931 1641 
Q 931 1000 1190 694 
Q 1450 388 1819 388 
Q 2194 388 2461 705 
Q 2728 1022 2728 1688 
Q 2728 2322 2467 2637 
Q 2206 2953 1844 2953 
Q 1484 2953 1207 2617 
Q 931 2281 931 1641 
z
" transform="scale(0.015625)"/>
       <path id="ArialMT-6c" d="M 409 0 
L 409 4581 
L 972 4581 
L 972 0 
L 409 0 
z
" transform="scale(0.015625)"/>
       <path id="ArialMT-76" d="M 1344 0 
L 81 3319 
L 675 3319 
L 1388 1331 
Q 1503 1009 1600 663 
Q 1675 925 1809 1294 
L 2547 3319 
L 3125 3319 
L 1869 0 
L 1344 0 
z
" transform="scale(0.015625)"/>
       <path id="ArialMT-46" d="M 525 0 
L 525 4581 
L 3616 4581 
L 3616 4041 
L 1131 4041 
L 1131 2622 
L 3281 2622 
L 3281 2081 
L 1131 2081 
L 1131 0 
L 525 0 
z
" transform="scale(0.015625)"/>
       <path id="ArialMT-43" d="M 3763 1606 
L 4369 1453 
Q 4178 706 3683 314 
Q 3188 -78 2472 -78 
Q 1731 -78 1267 223 
Q 803 525 561 1097 
Q 319 1669 319 2325 
Q 319 3041 592 3573 
Q 866 4106 1370 4382 
Q 1875 4659 2481 4659 
Q 3169 4659 3637 4309 
Q 4106 3959 4291 3325 
L 3694 3184 
Q 3534 3684 3231 3912 
Q 2928 4141 2469 4141 
Q 1941 4141 1586 3887 
Q 1231 3634 1087 3207 
Q 944 2781 944 2328 
Q 944 1744 1114 1308 
Q 1284 872 1643 656 
Q 2003 441 2422 441 
Q 2931 441 3284 734 
Q 3638 1028 3763 1606 
z
" transform="scale(0.015625)"/>
      </defs>
      <use xlink:href="#ArialMT-70"/>
      <use xlink:href="#ArialMT-35" x="55.615234"/>
      <use xlink:href="#ArialMT-33" x="111.230469"/>
      <use xlink:href="#ArialMT-20" x="166.845703"/>
      <use xlink:href="#ArialMT-6c" x="194.628906"/>
      <use xlink:href="#ArialMT-65" x="216.845703"/>
      <use xlink:href="#ArialMT-76" x="272.460938"/>
      <use xlink:href="#ArialMT-65" x="322.460938"/>
      <use xlink:href="#ArialMT-6c" x="378.076172"/>
      <use xlink:href="#ArialMT-20" x="400.292969"/>
      <use xlink:href="#ArialMT-28" x="428.076172"/>
      <use xlink:href="#ArialMT-46" x="461.376953"/>
      <use xlink:href="#ArialMT-43" x="522.460938"/>
      <use xlink:href="#ArialMT-29" x="594.677734"/>
     </g>
    </g>
   </g>
   <g id="line2d_12">
    <path d="M 43.40293 54.350941 
L 43.913785 53.587086 
L 44.42464 51.416586 
L 44.935496 51.621241 
L 45.446351 49.50839 
L 45.957206 48.519703 
L 46.468062 45.862065 
L 46.978917 42.423277 
L 47.489772 40.270071 
L 48.000628 37.295362 
L 49.022338 34.781847 
L 49.533194 34.825084 
L 50.044049 36.151021 
L 50.554905 37.079176 
L 51.06576 42.849883 
L 51.576615 44.504421 
L 52.087471 48.946308 
L 52.598326 51.413703 
L 53.109181 52.831879 
L 53.620037 53.497729 
L 54.130892 53.520789 
L 54.641747 55.454927 
L 55.152603 55.573108 
L 55.663458 57.59372 
L 56.174313 58.069328 
L 56.685169 57.763786 
L 57.196024 57.962677 
L 57.706879 57.204587 
L 58.217735 58.392165 
L 58.72859 55.722997 
L 59.239445 56.62521 
L 59.750301 56.720332 
L 60.261156 55.797941 
L 61.282867 52.209265 
L 61.793722 49.384444 
L 62.815433 39.252559 
L 63.326288 39.578279 
L 64.347999 30.097832 
L 64.858854 30.120892 
L 65.36971 29.135087 
L 65.880565 25.987429 
L 66.39142 31.239291 
L 67.413131 33.582739 
L 67.923986 37.151238 
L 68.434842 42.982476 
L 68.945697 40.529494 
L 69.456552 44.464066 
L 70.478263 49.983998 
L 70.989118 51.791307 
L 71.499974 54.94473 
L 72.521685 57.152702 
L 73.03254 57.17288 
L 73.543395 57.90791 
L 74.054251 57.86179 
L 74.565106 57.446714 
L 75.075961 56.803923 
L 75.586817 57.242059 
L 76.097672 55.731644 
L 76.608527 55.953595 
L 77.119383 56.409025 
L 77.630238 53.630323 
L 78.141093 53.520789 
L 78.651949 50.148299 
L 79.162804 49.888876 
L 79.673659 44.668722 
L 81.206225 33.764335 
L 81.717081 38.517529 
L 82.227936 33.176311 
L 82.738792 35.989603 
L 83.249647 36.911993 
L 83.760502 39.298679 
L 84.271358 44.354532 
L 84.782213 45.879359 
L 85.293068 48.462053 
L 85.803924 52.364919 
L 87.33649 57.954029 
L 87.847345 59.009013 
L 88.3582 58.539171 
L 88.869056 57.285296 
L 89.379911 58.738061 
L 89.890766 58.749591 
L 90.401622 58.043386 
L 90.912477 58.478639 
L 91.423332 57.302591 
L 91.934188 57.533188 
L 92.445043 55.682642 
L 93.977609 51.462705 
L 94.488465 47.761613 
L 95.510175 38.396466 
L 96.021031 38.64724 
L 96.531886 38.488705 
L 98.575307 52.843409 
L 99.597018 56.126543 
L 100.107873 55.812353 
L 100.618729 56.40326 
L 101.129584 57.247824 
L 101.640439 56.777981 
L 102.151295 57.700372 
L 102.66215 57.887732 
L 103.173005 57.717667 
L 103.683861 58.58529 
L 104.194716 58.544936 
L 104.705572 58.660234 
L 105.216427 58.054916 
L 106.238138 57.380418 
L 106.748993 57.466892 
L 107.259848 54.67666 
L 107.770704 53.21813 
L 108.281559 49.136551 
L 109.30327 44.34012 
L 109.814125 40.468962 
L 110.32498 34.900029 
L 110.835836 30.939514 
L 111.346691 21.980795 
L 111.857546 21.19388 
L 112.368402 18.247995 
L 112.879257 26.555276 
L 113.900968 47.680904 
L 114.922679 55.414572 
L 115.433534 54.45471 
L 115.944389 54.054046 
L 116.455245 51.214813 
L 116.9661 52.177558 
L 117.476955 50.603729 
L 117.987811 49.620806 
L 118.498666 46.450089 
L 119.009521 40.125948 
L 119.520377 40.719737 
L 120.031232 40.20954 
L 120.542087 45.573818 
L 121.563798 51.820132 
L 122.074653 54.849608 
L 122.585509 55.279096 
L 123.096364 53.584204 
L 123.607219 51.263815 
L 124.118075 46.421264 
L 124.62893 44.11817 
L 125.139786 40.310426 
L 125.650641 37.750792 
L 126.161496 34.490718 
L 126.672352 27.324896 
L 127.183207 15.498118 
L 127.694062 14.31054 
L 128.204918 28.495179 
L 129.226628 45.438341 
L 129.737484 49.707281 
L 130.248339 52.298622 
L 130.759194 51.578004 
L 131.27005 48.300635 
L 131.780905 46.222373 
L 132.29176 46.709511 
L 132.802616 44.086463 
L 133.313471 42.547223 
L 133.824326 41.829488 
L 134.335182 39.932822 
L 134.846037 32.660349 
L 135.356892 32.945713 
L 135.867748 42.204209 
L 136.378603 47.842322 
L 136.889459 49.231673 
L 137.911169 52.901058 
L 138.422025 51.243637 
L 139.443735 43.881807 
L 139.954591 42.913297 
L 140.465446 41.235699 
L 140.976301 37.551902 
L 141.487157 36.98982 
L 141.998012 29.737524 
L 142.508867 14.970626 
L 143.019723 19.308745 
L 144.041433 37.98139 
L 145.573999 52.834761 
L 146.084855 52.220795 
L 146.59571 48.957838 
L 147.106566 47.29177 
L 147.617421 46.179136 
L 148.128276 45.882242 
L 148.639132 44.383357 
L 149.149987 42.094675 
L 149.660842 41.443237 
L 150.171698 28.734424 
L 150.682553 31.351707 
L 151.193408 42.351215 
L 152.215119 49.750518 
L 153.23683 52.632988 
L 153.747685 51.422351 
L 154.25854 47.115939 
L 154.769396 45.2971 
L 155.280251 44.674487 
L 155.791106 38.563649 
L 156.812817 35.049917 
L 157.323673 30.772331 
L 157.834528 11.16 
L 158.345383 19.202093 
L 158.856239 24.269477 
L 159.367094 36.592039 
L 160.388805 49.096197 
L 160.89966 49.796637 
L 161.410515 49.499743 
L 161.921371 48.450523 
L 162.943081 45.161624 
L 163.453937 43.801098 
L 163.964792 46.991993 
L 164.986503 41.529711 
L 165.497358 35.067212 
L 166.008213 37.805559 
L 166.519069 42.953652 
L 167.029924 50.436546 
L 167.540779 52.710815 
L 168.051635 54.002162 
L 168.56249 54.353823 
L 169.073346 52.814584 
L 169.584201 49.609277 
L 170.095056 44.789786 
L 170.605912 45.619937 
L 171.116767 40.858096 
L 171.627622 39.379388 
L 172.138478 36.194258 
L 172.649333 31.504478 
L 173.160188 12.872188 
L 173.671044 18.997438 
L 174.692754 39.586926 
L 175.20361 45.717941 
L 176.22532 52.563809 
L 176.736176 48.802185 
L 177.247031 49.615041 
L 177.757886 50.74497 
L 178.268742 48.147864 
L 178.779597 46.236786 
L 179.290453 45.974481 
L 179.801308 43.452319 
L 180.312163 44.524598 
L 180.823019 32.141504 
L 181.333874 33.470323 
L 181.844729 43.685799 
L 182.355585 48.920366 
L 182.86644 50.090649 
L 183.377295 52.621458 
L 183.888151 50.301069 
L 184.399006 51.566474 
L 184.909861 50.131004 
L 185.420717 50.646966 
L 185.931572 50.972685 
L 186.953283 49.06449 
L 187.464138 49.658279 
L 187.974993 47.925914 
L 188.485849 47.000641 
L 188.996704 43.259194 
L 189.50756 43.956752 
L 190.018415 41.457649 
L 190.52927 40.445902 
L 191.040126 34.804907 
L 191.550981 35.22863 
L 192.572692 28.512474 
L 193.594402 23.2462 
L 194.105258 21.27459 
L 195.126968 30.79539 
L 195.637824 33.363672 
L 196.659534 43.273606 
L 197.17039 48.058507 
L 197.681245 50.635436 
L 198.1921 49.796637 
L 198.702956 53.025004 
L 199.213811 53.817684 
L 199.724666 53.742739 
L 200.235522 55.025439 
L 200.746377 54.238524 
L 201.257233 54.463357 
L 202.278943 54.15205 
L 202.789799 53.281544 
L 203.300654 53.091301 
L 203.811509 53.569791 
L 204.322365 51.243637 
L 204.83322 53.117243 
L 205.344075 50.188653 
L 205.854931 48.277575 
L 206.365786 47.066937 
L 206.876641 41.792016 
L 207.387497 41.325056 
L 207.898352 38.612651 
L 208.409207 33.597152 
L 208.920063 31.446829 
L 210.452629 19.666171 
L 211.47434 19.072382 
L 212.49605 27.39984 
L 214.028616 44.760961 
L 214.539472 47.842322 
L 215.050327 52.422568 
L 215.561182 53.687973 
L 216.072038 55.973772 
L 216.582893 54.973554 
L 217.093748 55.601933 
L 217.604604 56.596385 
L 218.626314 56.022774 
L 219.648025 56.18131 
L 220.15888 55.417455 
L 220.669736 55.498164 
L 221.180591 54.307704 
L 221.691447 54.192405 
L 222.202302 54.578656 
L 222.713157 53.117243 
L 223.224013 53.102831 
L 223.734868 52.310152 
L 224.245723 50.110826 
L 224.756579 44.873377 
L 226.289145 38.330169 
L 227.821711 25.912485 
L 228.332566 23.839989 
L 228.843421 17.377489 
L 229.865132 22.839771 
L 230.375987 24.419365 
L 230.886843 31.824432 
L 232.930264 51.471353 
L 233.44112 53.532319 
L 233.951975 54.731427 
L 234.46283 53.817684 
L 234.973686 56.086188 
L 235.484541 55.976654 
L 235.995396 54.719897 
L 236.506252 54.817901 
L 237.017107 55.6567 
L 237.527962 54.077106 
L 238.549673 56.547383 
L 239.060528 54.745839 
L 240.082239 55.414572 
L 240.593094 56.071776 
L 241.10395 54.19817 
L 241.614805 52.903941 
L 242.12566 54.010809 
L 242.636516 52.304387 
L 243.147371 52.68199 
L 243.658227 51.756717 
L 244.169082 51.618359 
L 245.701648 45.06362 
L 246.212503 42.008201 
L 246.723359 41.025279 
L 247.234214 37.681613 
L 247.745069 36.159668 
L 248.255925 33.072542 
L 248.76678 31.939731 
L 249.277635 32.498931 
L 249.788491 34.4936 
L 250.810201 44.58513 
L 251.321057 50.393309 
L 251.831912 50.344307 
L 252.853623 54.324999 
L 253 54.249839 
" clip-path="url(#pb2c30a5ab5)" style="fill: none; stroke: #000000; stroke-width: 0.75; stroke-linecap: square"/>
   </g>
   <g id="line2d_13">
    <path d="M 42.892074 61.56 
L 107.259848 61.56 
L 107.259848 56.296609 
L 111.091263 56.296609 
L 111.091263 61.56 
L 114.922679 61.56 
L 114.922679 56.296609 
L 118.754094 56.296609 
L 118.754094 61.56 
L 122.585509 61.56 
L 122.585509 56.296609 
L 126.416924 56.296609 
L 126.416924 61.56 
L 130.248339 61.56 
L 130.248339 56.296609 
L 134.079754 56.296609 
L 134.079754 61.56 
L 137.911169 61.56 
L 137.911169 56.296609 
L 141.742584 56.296609 
L 141.742584 61.56 
L 145.573999 61.56 
L 145.573999 56.296609 
L 149.405415 56.296609 
L 149.405415 61.56 
L 153.23683 61.56 
L 153.23683 56.296609 
L 157.068245 56.296609 
L 157.068245 61.56 
L 160.89966 61.56 
L 160.89966 56.296609 
L 164.731075 56.296609 
L 164.731075 61.56 
L 168.56249 61.56 
L 168.56249 56.296609 
L 172.393905 56.296609 
L 172.393905 61.56 
L 176.22532 61.56 
L 176.22532 56.296609 
L 180.056736 56.296609 
L 180.056736 61.56 
L 253 61.56 
" clip-path="url(#pb2c30a5ab5)" style="fill: none; stroke: #000000; stroke-width: 0.75; stroke-linecap: square"/>
   </g>
   <g id="patch_3">
    <path d="M 31.5 64.08 
L 31.5 8.64 
" style="fill: none; stroke: #000000; stroke-width: 0.5; stroke-linejoin: miter; stroke-linecap: square"/>
   </g>
   <g id="patch_4">
    <path d="M 31.5 64.08 
L 226.8 64.08 
" style="fill: none; stroke: #000000; stroke-width: 0.5; stroke-linejoin: miter; stroke-linecap: square"/>
   </g>
  </g>
 </g>
 <defs>
  <clipPath id="pb2c30a5ab5">
   <rect x="31.5" y="8.64" width="195.3" height="55.44"/>
  </clipPath>
 </defs>
</svg>
