<?xml version="1.0" encoding="utf-8" standalone="no"?>
<!DOCTYPE svg PUBLIC "-//W3C//DTD SVG 1.1//EN"
  "http://www.w3.org/Graphics/SVG/1.1/DTD/svg11.dtd">
<svg xmlns:xlink="http://www.w3.org/1999/xlink" width="252pt" height="72pt" viewBox="0 0 252 72" xmlns="http://www.w3.org/2000/svg" version="1.1">
 <metadata>
  <rdf:RDF xmlns:dc="http://purl.org/dc/elements/1.1/" xmlns:cc="http://creativecommons.org/ns#" xmlns:rdf="http://www.w3.org/1999/02/22-rdf-syntax-ns#">
   <cc:Work>
    <dc:type rdf:resource="http://purl.org/dc/dcmitype/StillImage"/>
    <dc:date>2024-07-09T19:54:55.101892</dc:date>
    <dc:format>image/svg+xml</dc:format>
    <dc:creator>
     <cc:Agent>
      <dc:title>Matplotlib v3.8.3, https://matplotlib.org/</dc:title>
     </cc:Agent>
    </dc:creator>
   </cc:Work>
  </rdf:RDF>
 </metadata>
 <defs>
  <style type="text/css">*{stroke-linejoin: round; stroke-linecap: butt}</style>
 </defs>
 <g id="figure_1">
  <g id="patch_1">
   <path d="M 0 72 
L 252 72 
L 252 0 
L 0 0 
z
" style="fill: #ffffff"/>
  </g>
  <g id="axes_1">
   <g id="patch_2">
    <path d="M 31.5 64.08 
L 226.8 64.08 
L 226.8 8.64 
L 31.5 8.64 
z
" style="fill: #f2f2f2"/>
   </g>
   <g id="matplotlib.axis_1">
    <g id="xtick_1">
     <g id="line2d_1">
      <defs>
       <path id="m75c885ddea" d="M 0 0 
L 0 3.5 
" style="stroke: #000000; stroke-width: 0.5"/>
      </defs>
      <g>
       <use xlink:href="#m75c885ddea" x="40.377273" y="64.08" style="stroke: #000000; stroke-width: 0.5"/>
      </g>
     </g>
     <g id="text_1">
      <!-- 0 -->
      <g transform="translate(38.987038 74.658906) scale(0.05 -0.05)">
       <defs>
        <path id="ArialMT-30" d="M 266 2259 
Q 266 3072 433 3567 
Q 600 4063 929 4331 
Q 1259 4600 1759 4600 
Q 2128 4600 2406 4451 
Q 2684 4303 2865 4023 
Q 3047 3744 3150 3342 
Q 3253 2941 3253 2259 
Q 3253 1453 3087 958 
Q 2922 463 2592 192 
Q 2263 -78 1759 -78 
Q 1097 -78 719 397 
Q 266 969 266 2259 
z
M 844 2259 
Q 844 1131 1108 757 
Q 1372 384 1759 384 
Q 2147 384 2411 759 
Q 2675 1134 2675 2259 
Q 2675 3391 2411 3762 
Q 2147 4134 1753 4134 
Q 1366 4134 1134 3806 
Q 844 3388 844 2259 
z
" transform="scale(0.015625)"/>
       </defs>
       <use xlink:href="#ArialMT-30"/>
      </g>
     </g>
    </g>
    <g id="xtick_2">
     <g id="line2d_2">
      <g>
       <use xlink:href="#m75c885ddea" x="73.104545" y="64.08" style="stroke: #000000; stroke-width: 0.5"/>
      </g>
     </g>
     <g id="text_2">
      <!-- 20 -->
      <g transform="translate(70.324077 74.658906) scale(0.05 -0.05)">
       <defs>
        <path id="ArialMT-32" d="M 3222 541 
L 3222 0 
L 194 0 
Q 188 203 259 391 
Q 375 700 629 1000 
Q 884 1300 1366 1694 
Q 2113 2306 2375 2664 
Q 2638 3022 2638 3341 
Q 2638 3675 2398 3904 
Q 2159 4134 1775 4134 
Q 1369 4134 1125 3890 
Q 881 3647 878 3216 
L 300 3275 
Q 359 3922 746 4261 
Q 1134 4600 1788 4600 
Q 2447 4600 2831 4234 
Q 3216 3869 3216 3328 
Q 3216 3053 3103 2787 
Q 2991 2522 2730 2228 
Q 2469 1934 1863 1422 
Q 1356 997 1212 845 
Q 1069 694 975 541 
L 3222 541 
z
" transform="scale(0.015625)"/>
       </defs>
       <use xlink:href="#ArialMT-32"/>
       <use xlink:href="#ArialMT-30" x="55.615234"/>
      </g>
     </g>
    </g>
    <g id="xtick_3">
     <g id="line2d_3">
      <g>
       <use xlink:href="#m75c885ddea" x="105.831818" y="64.08" style="stroke: #000000; stroke-width: 0.5"/>
      </g>
     </g>
     <g id="text_3">
      <!-- 40 -->
      <g transform="translate(103.051349 74.658906) scale(0.05 -0.05)">
       <defs>
        <path id="ArialMT-34" d="M 2069 0 
L 2069 1097 
L 81 1097 
L 81 1613 
L 2172 4581 
L 2631 4581 
L 2631 1613 
L 3250 1613 
L 3250 1097 
L 2631 1097 
L 2631 0 
L 2069 0 
z
M 2069 1613 
L 2069 3678 
L 634 1613 
L 2069 1613 
z
" transform="scale(0.015625)"/>
       </defs>
       <use xlink:href="#ArialMT-34"/>
       <use xlink:href="#ArialMT-30" x="55.615234"/>
      </g>
     </g>
    </g>
    <g id="xtick_4">
     <g id="line2d_4">
      <g>
       <use xlink:href="#m75c885ddea" x="138.559091" y="64.08" style="stroke: #000000; stroke-width: 0.5"/>
      </g>
     </g>
     <g id="text_4">
      <!-- 60 -->
      <g transform="translate(135.778622 74.658906) scale(0.05 -0.05)">
       <defs>
        <path id="ArialMT-36" d="M 3184 3459 
L 2625 3416 
Q 2550 3747 2413 3897 
Q 2184 4138 1850 4138 
Q 1581 4138 1378 3988 
Q 1113 3794 959 3422 
Q 806 3050 800 2363 
Q 1003 2672 1297 2822 
Q 1591 2972 1913 2972 
Q 2475 2972 2870 2558 
Q 3266 2144 3266 1488 
Q 3266 1056 3080 686 
Q 2894 316 2569 119 
Q 2244 -78 1831 -78 
Q 1128 -78 684 439 
Q 241 956 241 2144 
Q 241 3472 731 4075 
Q 1159 4600 1884 4600 
Q 2425 4600 2770 4297 
Q 3116 3994 3184 3459 
z
M 888 1484 
Q 888 1194 1011 928 
Q 1134 663 1356 523 
Q 1578 384 1822 384 
Q 2178 384 2434 671 
Q 2691 959 2691 1453 
Q 2691 1928 2437 2201 
Q 2184 2475 1800 2475 
Q 1419 2475 1153 2201 
Q 888 1928 888 1484 
z
" transform="scale(0.015625)"/>
       </defs>
       <use xlink:href="#ArialMT-36"/>
       <use xlink:href="#ArialMT-30" x="55.615234"/>
      </g>
     </g>
    </g>
    <g id="xtick_5">
     <g id="line2d_5">
      <g>
       <use xlink:href="#m75c885ddea" x="171.286364" y="64.08" style="stroke: #000000; stroke-width: 0.5"/>
      </g>
     </g>
     <g id="text_5">
      <!-- 80 -->
      <g transform="translate(168.505895 74.658906) scale(0.05 -0.05)">
       <defs>
        <path id="ArialMT-38" d="M 1131 2484 
Q 781 2613 612 2850 
Q 444 3088 444 3419 
Q 444 3919 803 4259 
Q 1163 4600 1759 4600 
Q 2359 4600 2725 4251 
Q 3091 3903 3091 3403 
Q 3091 3084 2923 2848 
Q 2756 2613 2416 2484 
Q 2838 2347 3058 2040 
Q 3278 1734 3278 1309 
Q 3278 722 2862 322 
Q 2447 -78 1769 -78 
Q 1091 -78 675 323 
Q 259 725 259 1325 
Q 259 1772 486 2073 
Q 713 2375 1131 2484 
z
M 1019 3438 
Q 1019 3113 1228 2906 
Q 1438 2700 1772 2700 
Q 2097 2700 2305 2904 
Q 2513 3109 2513 3406 
Q 2513 3716 2298 3927 
Q 2084 4138 1766 4138 
Q 1444 4138 1231 3931 
Q 1019 3725 1019 3438 
z
M 838 1322 
Q 838 1081 952 856 
Q 1066 631 1291 507 
Q 1516 384 1775 384 
Q 2178 384 2440 643 
Q 2703 903 2703 1303 
Q 2703 1709 2433 1975 
Q 2163 2241 1756 2241 
Q 1359 2241 1098 1978 
Q 838 1716 838 1322 
z
" transform="scale(0.015625)"/>
       </defs>
       <use xlink:href="#ArialMT-38"/>
       <use xlink:href="#ArialMT-30" x="55.615234"/>
      </g>
     </g>
    </g>
    <g id="xtick_6">
     <g id="line2d_6">
      <g>
       <use xlink:href="#m75c885ddea" x="204.013636" y="64.08" style="stroke: #000000; stroke-width: 0.5"/>
      </g>
     </g>
     <g id="text_6">
      <!-- 100 -->
      <g transform="translate(199.842933 74.658906) scale(0.05 -0.05)">
       <defs>
        <path id="ArialMT-31" d="M 2384 0 
L 1822 0 
L 1822 3584 
Q 1619 3391 1289 3197 
Q 959 3003 697 2906 
L 697 3450 
Q 1169 3672 1522 3987 
Q 1875 4303 2022 4600 
L 2384 4600 
L 2384 0 
z
" transform="scale(0.015625)"/>
       </defs>
       <use xlink:href="#ArialMT-31"/>
       <use xlink:href="#ArialMT-30" x="55.615234"/>
       <use xlink:href="#ArialMT-30" x="111.230469"/>
      </g>
     </g>
    </g>
    <g id="text_7">
     <!-- Time (h) -->
     <g transform="translate(115.333594 85.112422) scale(0.075 -0.075)">
      <defs>
       <path id="ArialMT-54" d="M 1659 0 
L 1659 4041 
L 150 4041 
L 150 4581 
L 3781 4581 
L 3781 4041 
L 2266 4041 
L 2266 0 
L 1659 0 
z
" transform="scale(0.015625)"/>
       <path id="ArialMT-69" d="M 425 3934 
L 425 4581 
L 988 4581 
L 988 3934 
L 425 3934 
z
M 425 0 
L 425 3319 
L 988 3319 
L 988 0 
L 425 0 
z
" transform="scale(0.015625)"/>
       <path id="ArialMT-6d" d="M 422 0 
L 422 3319 
L 925 3319 
L 925 2853 
Q 1081 3097 1340 3245 
Q 1600 3394 1931 3394 
Q 2300 3394 2536 3241 
Q 2772 3088 2869 2813 
Q 3263 3394 3894 3394 
Q 4388 3394 4653 3120 
Q 4919 2847 4919 2278 
L 4919 0 
L 4359 0 
L 4359 2091 
Q 4359 2428 4304 2576 
Q 4250 2725 4106 2815 
Q 3963 2906 3769 2906 
Q 3419 2906 3187 2673 
Q 2956 2441 2956 1928 
L 2956 0 
L 2394 0 
L 2394 2156 
Q 2394 2531 2256 2718 
Q 2119 2906 1806 2906 
Q 1569 2906 1367 2781 
Q 1166 2656 1075 2415 
Q 984 2175 984 1722 
L 984 0 
L 422 0 
z
" transform="scale(0.015625)"/>
       <path id="ArialMT-65" d="M 2694 1069 
L 3275 997 
Q 3138 488 2766 206 
Q 2394 -75 1816 -75 
Q 1088 -75 661 373 
Q 234 822 234 1631 
Q 234 2469 665 2931 
Q 1097 3394 1784 3394 
Q 2450 3394 2872 2941 
Q 3294 2488 3294 1666 
Q 3294 1616 3291 1516 
L 816 1516 
Q 847 969 1125 678 
Q 1403 388 1819 388 
Q 2128 388 2347 550 
Q 2566 713 2694 1069 
z
M 847 1978 
L 2700 1978 
Q 2663 2397 2488 2606 
Q 2219 2931 1791 2931 
Q 1403 2931 1139 2672 
Q 875 2413 847 1978 
z
" transform="scale(0.015625)"/>
       <path id="ArialMT-20" transform="scale(0.015625)"/>
       <path id="ArialMT-28" d="M 1497 -1347 
Q 1031 -759 709 28 
Q 388 816 388 1659 
Q 388 2403 628 3084 
Q 909 3875 1497 4659 
L 1900 4659 
Q 1522 4009 1400 3731 
Q 1209 3300 1100 2831 
Q 966 2247 966 1656 
Q 966 153 1900 -1347 
L 1497 -1347 
z
" transform="scale(0.015625)"/>
       <path id="ArialMT-68" d="M 422 0 
L 422 4581 
L 984 4581 
L 984 2938 
Q 1378 3394 1978 3394 
Q 2347 3394 2619 3248 
Q 2891 3103 3008 2847 
Q 3125 2591 3125 2103 
L 3125 0 
L 2563 0 
L 2563 2103 
Q 2563 2525 2380 2717 
Q 2197 2909 1863 2909 
Q 1613 2909 1392 2779 
Q 1172 2650 1078 2428 
Q 984 2206 984 1816 
L 984 0 
L 422 0 
z
" transform="scale(0.015625)"/>
       <path id="ArialMT-29" d="M 791 -1347 
L 388 -1347 
Q 1322 153 1322 1656 
Q 1322 2244 1188 2822 
Q 1081 3291 891 3722 
Q 769 4003 388 4659 
L 791 4659 
Q 1378 3875 1659 3084 
Q 1900 2403 1900 1659 
Q 1900 816 1576 28 
Q 1253 -759 791 -1347 
z
" transform="scale(0.015625)"/>
      </defs>
      <use xlink:href="#ArialMT-54"/>
      <use xlink:href="#ArialMT-69" x="57.333984"/>
      <use xlink:href="#ArialMT-6d" x="79.550781"/>
      <use xlink:href="#ArialMT-65" x="162.851562"/>
      <use xlink:href="#ArialMT-20" x="218.466797"/>
      <use xlink:href="#ArialMT-28" x="246.25"/>
      <use xlink:href="#ArialMT-68" x="279.550781"/>
      <use xlink:href="#ArialMT-29" x="335.166016"/>
     </g>
    </g>
   </g>
   <g id="matplotlib.axis_2">
    <g id="ytick_1">
     <g id="line2d_7">
      <defs>
       <path id="m53f55745d6" d="M 0 0 
L -3.5 0 
" style="stroke: #000000; stroke-width: 0.5"/>
      </defs>
      <g>
       <use xlink:href="#m53f55745d6" x="31.5" y="55.304914" style="stroke: #000000; stroke-width: 0.5"/>
      </g>
     </g>
     <g id="text_8">
      <!-- 2000 -->
      <g transform="translate(13.378125 57.094367) scale(0.05 -0.05)">
       <use xlink:href="#ArialMT-32"/>
       <use xlink:href="#ArialMT-30" x="55.615234"/>
       <use xlink:href="#ArialMT-30" x="111.230469"/>
       <use xlink:href="#ArialMT-30" x="166.845703"/>
      </g>
     </g>
    </g>
    <g id="ytick_2">
     <g id="line2d_8">
      <g>
       <use xlink:href="#m53f55745d6" x="31.5" y="43.143503" style="stroke: #000000; stroke-width: 0.5"/>
      </g>
     </g>
     <g id="text_9">
      <!-- 4000 -->
      <g transform="translate(13.378125 44.932956) scale(0.05 -0.05)">
       <use xlink:href="#ArialMT-34"/>
       <use xlink:href="#ArialMT-30" x="55.615234"/>
       <use xlink:href="#ArialMT-30" x="111.230469"/>
       <use xlink:href="#ArialMT-30" x="166.845703"/>
      </g>
     </g>
    </g>
    <g id="ytick_3">
     <g id="line2d_9">
      <g>
       <use xlink:href="#m53f55745d6" x="31.5" y="30.982092" style="stroke: #000000; stroke-width: 0.5"/>
      </g>
     </g>
     <g id="text_10">
      <!-- 6000 -->
      <g transform="translate(13.378125 32.771545) scale(0.05 -0.05)">
       <use xlink:href="#ArialMT-36"/>
       <use xlink:href="#ArialMT-30" x="55.615234"/>
       <use xlink:href="#ArialMT-30" x="111.230469"/>
       <use xlink:href="#ArialMT-30" x="166.845703"/>
      </g>
     </g>
    </g>
    <g id="ytick_4">
     <g id="line2d_10">
      <g>
       <use xlink:href="#m53f55745d6" x="31.5" y="18.820682" style="stroke: #000000; stroke-width: 0.5"/>
      </g>
     </g>
     <g id="text_11">
      <!-- 8000 -->
      <g transform="translate(13.378125 20.610135) scale(0.05 -0.05)">
       <use xlink:href="#ArialMT-38"/>
       <use xlink:href="#ArialMT-30" x="55.615234"/>
       <use xlink:href="#ArialMT-30" x="111.230469"/>
       <use xlink:href="#ArialMT-30" x="166.845703"/>
      </g>
     </g>
    </g>
    <g id="text_12">
     <!-- p53 level (a.u.) -->
     <g transform="translate(7.799609 61.16332) rotate(-90) scale(0.075 -0.075)">
      <defs>
       <path id="ArialMT-70" d="M 422 -1272 
L 422 3319 
L 934 3319 
L 934 2888 
Q 1116 3141 1344 3267 
Q 1572 3394 1897 3394 
Q 2322 3394 2647 3175 
Q 2972 2956 3137 2557 
Q 3303 2159 3303 1684 
Q 3303 1175 3120 767 
Q 2938 359 2589 142 
Q 2241 -75 1856 -75 
Q 1575 -75 1351 44 
Q 1128 163 984 344 
L 984 -1272 
L 422 -1272 
z
M 931 1641 
Q 931 1000 1190 694 
Q 1450 388 1819 388 
Q 2194 388 2461 705 
Q 2728 1022 2728 1688 
Q 2728 2322 2467 2637 
Q 2206 2953 1844 2953 
Q 1484 2953 1207 2617 
Q 931 2281 931 1641 
z
" transform="scale(0.015625)"/>
       <path id="ArialMT-35" d="M 266 1200 
L 856 1250 
Q 922 819 1161 601 
Q 1400 384 1738 384 
Q 2144 384 2425 690 
Q 2706 997 2706 1503 
Q 2706 1984 2436 2262 
Q 2166 2541 1728 2541 
Q 1456 2541 1237 2417 
Q 1019 2294 894 2097 
L 366 2166 
L 809 4519 
L 3088 4519 
L 3088 3981 
L 1259 3981 
L 1013 2750 
Q 1425 3038 1878 3038 
Q 2478 3038 2890 2622 
Q 3303 2206 3303 1553 
Q 3303 931 2941 478 
Q 2500 -78 1738 -78 
Q 1113 -78 717 272 
Q 322 622 266 1200 
z
" transform="scale(0.015625)"/>
       <path id="ArialMT-33" d="M 269 1209 
L 831 1284 
Q 928 806 1161 595 
Q 1394 384 1728 384 
Q 2125 384 2398 659 
Q 2672 934 2672 1341 
Q 2672 1728 2419 1979 
Q 2166 2231 1775 2231 
Q 1616 2231 1378 2169 
L 1441 2663 
Q 1497 2656 1531 2656 
Q 1891 2656 2178 2843 
Q 2466 3031 2466 3422 
Q 2466 3731 2256 3934 
Q 2047 4138 1716 4138 
Q 1388 4138 1169 3931 
Q 950 3725 888 3313 
L 325 3413 
Q 428 3978 793 4289 
Q 1159 4600 1703 4600 
Q 2078 4600 2393 4439 
Q 2709 4278 2876 4000 
Q 3044 3722 3044 3409 
Q 3044 3113 2884 2869 
Q 2725 2625 2413 2481 
Q 2819 2388 3044 2092 
Q 3269 1797 3269 1353 
Q 3269 753 2831 336 
Q 2394 -81 1725 -81 
Q 1122 -81 723 278 
Q 325 638 269 1209 
z
" transform="scale(0.015625)"/>
       <path id="ArialMT-6c" d="M 409 0 
L 409 4581 
L 972 4581 
L 972 0 
L 409 0 
z
" transform="scale(0.015625)"/>
       <path id="ArialMT-76" d="M 1344 0 
L 81 3319 
L 675 3319 
L 1388 1331 
Q 1503 1009 1600 663 
Q 1675 925 1809 1294 
L 2547 3319 
L 3125 3319 
L 1869 0 
L 1344 0 
z
" transform="scale(0.015625)"/>
       <path id="ArialMT-61" d="M 2588 409 
Q 2275 144 1986 34 
Q 1697 -75 1366 -75 
Q 819 -75 525 192 
Q 231 459 231 875 
Q 231 1119 342 1320 
Q 453 1522 633 1644 
Q 813 1766 1038 1828 
Q 1203 1872 1538 1913 
Q 2219 1994 2541 2106 
Q 2544 2222 2544 2253 
Q 2544 2597 2384 2738 
Q 2169 2928 1744 2928 
Q 1347 2928 1158 2789 
Q 969 2650 878 2297 
L 328 2372 
Q 403 2725 575 2942 
Q 747 3159 1072 3276 
Q 1397 3394 1825 3394 
Q 2250 3394 2515 3294 
Q 2781 3194 2906 3042 
Q 3031 2891 3081 2659 
Q 3109 2516 3109 2141 
L 3109 1391 
Q 3109 606 3145 398 
Q 3181 191 3288 0 
L 2700 0 
Q 2613 175 2588 409 
z
M 2541 1666 
Q 2234 1541 1622 1453 
Q 1275 1403 1131 1340 
Q 988 1278 909 1158 
Q 831 1038 831 891 
Q 831 666 1001 516 
Q 1172 366 1500 366 
Q 1825 366 2078 508 
Q 2331 650 2450 897 
Q 2541 1088 2541 1459 
L 2541 1666 
z
" transform="scale(0.015625)"/>
       <path id="ArialMT-2e" d="M 581 0 
L 581 641 
L 1222 641 
L 1222 0 
L 581 0 
z
" transform="scale(0.015625)"/>
       <path id="ArialMT-75" d="M 2597 0 
L 2597 488 
Q 2209 -75 1544 -75 
Q 1250 -75 995 37 
Q 741 150 617 320 
Q 494 491 444 738 
Q 409 903 409 1263 
L 409 3319 
L 972 3319 
L 972 1478 
Q 972 1038 1006 884 
Q 1059 663 1231 536 
Q 1403 409 1656 409 
Q 1909 409 2131 539 
Q 2353 669 2445 892 
Q 2538 1116 2538 1541 
L 2538 3319 
L 3100 3319 
L 3100 0 
L 2597 0 
z
" transform="scale(0.015625)"/>
      </defs>
      <use xlink:href="#ArialMT-70"/>
      <use xlink:href="#ArialMT-35" x="55.615234"/>
      <use xlink:href="#ArialMT-33" x="111.230469"/>
      <use xlink:href="#ArialMT-20" x="166.845703"/>
      <use xlink:href="#ArialMT-6c" x="194.628906"/>
      <use xlink:href="#ArialMT-65" x="216.845703"/>
      <use xlink:href="#ArialMT-76" x="272.460938"/>
      <use xlink:href="#ArialMT-65" x="322.460938"/>
      <use xlink:href="#ArialMT-6c" x="378.076172"/>
      <use xlink:href="#ArialMT-20" x="400.292969"/>
      <use xlink:href="#ArialMT-28" x="428.076172"/>
      <use xlink:href="#ArialMT-61" x="461.376953"/>
      <use xlink:href="#ArialMT-2e" x="516.992188"/>
      <use xlink:href="#ArialMT-75" x="544.775391"/>
      <use xlink:href="#ArialMT-2e" x="600.390625"/>
      <use xlink:href="#ArialMT-29" x="628.173828"/>
     </g>
    </g>
   </g>
   <g id="line2d_11">
    <path d="M 40.65 51.181692 
L 41.195455 48.953404 
L 42.559091 34.368348 
L 42.831818 31.185544 
L 43.104545 30.684177 
L 43.377273 28.51716 
L 43.65 30.814931 
L 43.922727 28.794936 
L 44.195455 34.906239 
L 44.468182 36.278968 
L 45.013636 42.33047 
L 45.286364 44.758802 
L 45.559091 45.364703 
L 45.831818 48.610522 
L 46.922727 54.146985 
L 47.468182 51.966955 
L 47.740909 55.021444 
L 48.013636 54.060267 
L 48.286364 54.254733 
L 48.559091 52.29237 
L 48.831818 52.360613 
L 49.104545 53.71874 
L 49.377273 51.620742 
L 49.65 52.53126 
L 49.922727 46.892703 
L 50.195455 47.443104 
L 50.468182 44.546054 
L 50.740909 45.935205 
L 51.286364 41.988866 
L 51.559091 42.45739 
L 51.831818 44.269983 
L 52.104545 41.797614 
L 52.377273 38.196752 
L 52.65 40.094823 
L 53.195455 49.43529 
L 53.468182 52.389583 
L 53.740909 50.984088 
L 54.013636 52.312006 
L 54.286364 52.042054 
L 55.104545 54.861022 
L 55.377273 53.325508 
L 55.65 52.787269 
L 56.195455 53.632913 
L 56.468182 52.408871 
L 56.740909 49.949904 
L 57.286364 49.202945 
L 57.559091 47.430361 
L 57.831818 47.713676 
L 58.104545 44.111265 
L 59.195455 41.217081 
L 59.468182 42.808793 
L 59.740909 46.727788 
L 60.286364 50.826881 
L 60.559091 51.993718 
L 61.104545 53.307925 
L 61.377273 52.74757 
L 61.65 53.320125 
L 61.922727 53.423536 
L 62.195455 52.251741 
L 62.468182 52.024431 
L 62.740909 52.765309 
L 63.013636 52.281138 
L 63.286364 51.430187 
L 63.831818 53.082513 
L 65.195455 49.901568 
L 66.286364 43.812342 
L 66.559091 41.809776 
L 66.831818 42.040688 
L 67.104545 43.66106 
L 67.377273 39.253788 
L 67.65 42.595697 
L 67.922727 42.0092 
L 68.195455 39.376293 
L 68.468182 39.605191 
L 68.740909 38.528674 
L 69.013636 38.073202 
L 69.559091 41.337224 
L 70.104545 43.225844 
L 70.377273 44.491444 
L 70.65 46.303998 
L 71.195455 48.292853 
L 71.740909 47.005409 
L 72.013636 46.653619 
L 72.286364 46.532741 
L 72.559091 45.451499 
L 72.831818 45.309667 
L 73.104545 44.922477 
L 73.377273 43.718691 
L 74.195455 41.667789 
L 74.468182 43.093424 
L 74.740909 41.579058 
L 75.013636 43.02522 
L 75.286364 40.950731 
L 75.559091 41.84475 
L 75.831818 40.142462 
L 76.104545 40.391693 
L 76.377273 33.610003 
L 76.922727 47.250032 
L 77.195455 50.788073 
L 77.468182 50.498097 
L 77.740909 51.164108 
L 78.013636 50.8751 
L 78.286364 50.360642 
L 78.831818 51.668729 
L 79.104545 51.707266 
L 79.377273 50.504642 
L 79.65 50.535975 
L 79.922727 50.013151 
L 80.195455 48.414041 
L 80.468182 49.216888 
L 80.740909 47.941877 
L 81.013636 47.313163 
L 81.559091 44.566388 
L 82.65 35.356366 
L 82.922727 33.924534 
L 83.195455 33.791378 
L 83.468182 34.324195 
L 83.740909 36.50926 
L 84.286364 45.329071 
L 84.559091 46.345478 
L 84.831818 48.572101 
L 85.104545 49.828212 
L 85.377273 45.95581 
L 85.65 48.389796 
L 85.922727 45.896707 
L 87.831818 37.54174 
L 88.377273 34.400843 
L 88.65 34.038092 
L 89.195455 36.353408 
L 90.286364 41.638935 
L 90.559091 44.182374 
L 91.104545 46.021807 
L 91.377273 46.576158 
L 91.65 47.469286 
L 92.195455 47.585168 
L 92.468182 47.070477 
L 92.740909 47.341281 
L 93.013636 47.30042 
L 93.559091 45.44108 
L 93.831818 45.08228 
L 94.104545 44.412201 
L 94.377273 39.206343 
L 95.195455 48.038161 
L 95.468182 48.839962 
L 95.740909 47.982273 
L 96.286364 48.389835 
L 96.559091 47.975146 
L 96.831818 48.184989 
L 97.104545 47.797024 
L 97.377273 46.684255 
L 97.65 46.788208 
L 97.922727 46.4626 
L 98.195455 46.314571 
L 98.468182 45.474853 
L 99.013636 44.525372 
L 99.559091 41.93778 
L 99.831818 42.020586 
L 100.104545 41.11886 
L 100.65 41.419952 
L 101.195455 44.802645 
L 101.468182 46.58189 
L 102.013636 47.833818 
L 102.286364 47.075899 
L 102.831818 47.234927 
L 103.104545 47.104289 
L 103.377273 40.710872 
L 103.65 43.628565 
L 104.740909 30.535761 
L 105.559091 21.029992 
L 105.831818 21.038629 
L 106.104545 22.616862 
L 106.65 28.77255 
L 107.195455 37.055013 
L 107.740909 42.1166 
L 108.013636 42.261452 
L 108.286364 42.228609 
L 108.559091 44.236519 
L 108.831818 44.10042 
L 109.104545 44.381294 
L 109.377273 43.613964 
L 109.65 41.877245 
L 109.922727 42.361687 
L 110.195455 41.854161 
L 110.740909 39.819449 
L 111.559091 32.897282 
L 111.831818 30.09063 
L 112.104545 25.277306 
L 112.377273 12.589043 
L 112.65 19.512991 
L 112.922727 30.160771 
L 113.468182 37.504598 
L 114.013636 43.275845 
L 114.286364 44.869532 
L 115.104545 46.069871 
L 115.377273 46.111391 
L 115.65 46.275996 
L 115.922727 44.745169 
L 116.195455 44.639821 
L 116.468182 44.307706 
L 117.013636 43.229717 
L 117.286364 42.951012 
L 117.559091 41.84657 
L 118.104545 41.399386 
L 118.377273 39.725295 
L 118.65 39.414675 
L 118.922727 36.644507 
L 119.468182 34.535587 
L 120.013636 29.855187 
L 120.286364 28.642144 
L 120.559091 28.682811 
L 120.831818 28.4055 
L 121.104545 29.896357 
L 121.377273 25.248762 
L 121.65 32.413653 
L 122.195455 28.573862 
L 122.468182 28.236402 
L 122.740909 28.938549 
L 123.013636 32.080066 
L 123.286364 32.70514 
L 123.559091 35.276697 
L 123.831818 35.861452 
L 124.104545 37.32086 
L 124.377273 38.098299 
L 124.65 39.750818 
L 124.922727 40.193664 
L 125.195455 41.024668 
L 125.468182 41.330485 
L 125.740909 41.877942 
L 126.013636 40.905261 
L 126.286364 41.236021 
L 126.559091 40.879622 
L 126.831818 40.878266 
L 127.65 38.952038 
L 127.922727 37.158733 
L 128.468182 35.705329 
L 129.013636 31.357973 
L 129.286364 30.758113 
L 129.559091 29.581477 
L 129.831818 30.10709 
L 130.104545 30.037763 
L 130.377273 21.623035 
L 130.922727 40.32163 
L 131.195455 41.430409 
L 131.740909 45.535389 
L 132.013636 46.877482 
L 132.286364 46.578366 
L 132.559091 46.097641 
L 132.831818 46.486845 
L 133.104545 46.199503 
L 133.65 44.703494 
L 133.922727 45.323145 
L 134.195455 45.141886 
L 134.740909 44.256388 
L 135.013636 44.047785 
L 135.831818 42.251731 
L 136.104545 40.904177 
L 136.377273 38.985346 
L 136.922727 33.526345 
L 137.195455 32.076503 
L 137.468182 31.66561 
L 137.740909 30.520036 
L 138.013636 28.533505 
L 138.286364 29.135766 
L 138.559091 27.986667 
L 139.104545 35.108839 
L 139.377273 31.319785 
L 139.65 36.746988 
L 139.922727 36.132527 
L 140.195455 35.208183 
L 140.740909 34.988657 
L 141.013636 35.318487 
L 141.286364 35.947511 
L 141.559091 35.380224 
L 141.831818 36.121799 
L 142.104545 35.665088 
L 142.377273 36.551902 
L 142.65 36.590981 
L 143.195455 36.901485 
L 143.468182 36.395973 
L 143.740909 36.817943 
L 144.286364 34.75546 
L 144.559091 34.573078 
L 144.831818 34.140806 
L 145.104545 33.490248 
L 145.377273 32.104234 
L 145.65 31.800509 
L 145.922727 29.498052 
L 147.013636 25.867096 
L 147.286364 26.736869 
L 147.559091 26.574588 
L 148.104545 28.625645 
L 148.377273 20.470644 
L 148.65 31.661117 
L 148.922727 37.37609 
L 149.195455 40.180495 
L 150.013636 41.807994 
L 150.286364 41.412942 
L 150.559091 41.331182 
L 150.831818 41.404189 
L 151.104545 41.338967 
L 151.377273 41.091555 
L 151.65 40.246337 
L 151.922727 40.554323 
L 152.195455 39.505808 
L 152.468182 39.756821 
L 152.740909 39.560728 
L 153.013636 38.432932 
L 153.286364 39.164863 
L 153.559091 37.8316 
L 153.831818 37.600882 
L 154.377273 35.778568 
L 154.65 35.594908 
L 155.195455 32.923658 
L 155.468182 30.104147 
L 155.740909 29.262802 
L 156.559091 23.922122 
L 156.831818 22.490833 
L 157.104545 23.956321 
L 157.377273 19.363375 
L 157.65 24.044085 
L 157.922727 22.995531 
L 158.195455 23.919024 
L 158.468182 24.140098 
L 159.013636 26.885169 
L 159.286364 27.113021 
L 159.559091 30.567481 
L 159.831818 31.389771 
L 160.104545 33.385791 
L 160.377273 34.299059 
L 160.65 34.369161 
L 160.922727 35.670045 
L 161.195455 34.267958 
L 161.468182 35.3901 
L 161.740909 34.942219 
L 162.013636 35.166044 
L 162.286364 34.148397 
L 162.559091 35.385491 
L 162.831818 35.317519 
L 163.104545 32.916531 
L 163.377273 34.358937 
L 163.922727 31.894585 
L 164.195455 31.52556 
L 164.468182 29.255714 
L 164.740909 28.178655 
L 165.013636 25.155537 
L 165.286364 25.593735 
L 165.559091 24.113297 
L 165.831818 20.871274 
L 166.104545 19.480651 
L 166.377273 16.624153 
L 166.65 15.784086 
L 167.195455 29.685973 
L 167.740909 36.614917 
L 168.013636 37.285111 
L 168.286364 37.489803 
L 168.559091 38.557567 
L 169.377273 39.804537 
L 169.65 38.903392 
L 169.922727 39.161299 
L 170.195455 40.446458 
L 170.468182 39.271914 
L 170.740909 39.361653 
L 171.013636 39.887808 
L 171.286364 38.218713 
L 171.559091 38.934764 
L 171.831818 38.941774 
L 172.104545 38.580844 
L 172.377273 37.160399 
L 172.65 37.268651 
L 173.195455 35.74007 
L 173.468182 36.065562 
L 173.740909 34.285929 
L 174.013636 34.168459 
L 174.831818 29.284259 
L 175.104545 28.387916 
L 175.377273 26.037898 
L 175.65 22.529215 
L 175.922727 21.944305 
L 176.195455 21.819089 
L 176.740909 14.424525 
L 177.013636 11.903434 
L 177.286364 12.677659 
L 177.559091 11.16 
L 177.831818 12.588772 
L 178.104545 15.22195 
L 178.922727 26.005906 
L 179.195455 28.353097 
L 179.740909 35.317364 
L 180.013636 35.171079 
L 180.286364 37.53411 
L 180.559091 36.721426 
L 181.104545 38.296445 
L 181.377273 37.610565 
L 182.195455 39.383303 
L 182.468182 38.034742 
L 182.740909 38.466898 
L 183.013636 37.522491 
L 183.286364 37.390885 
L 183.559091 36.007737 
L 183.831818 36.807989 
L 184.377273 35.326156 
L 184.65 35.657225 
L 185.195455 38.274059 
L 185.468182 37.995663 
L 185.740909 39.081979 
L 186.013636 38.910093 
L 186.286364 38.317398 
L 186.559091 37.995121 
L 186.831818 35.161047 
L 187.104545 36.637845 
L 187.377273 34.882303 
L 187.65 34.393058 
L 187.922727 34.510412 
L 188.468182 32.568304 
L 188.740909 32.625316 
L 189.013636 30.38355 
L 189.286364 29.391155 
L 189.559091 29.890083 
L 190.104545 25.249808 
L 190.377273 25.504694 
L 190.65 24.244206 
L 190.922727 24.039205 
L 191.195455 25.191673 
L 191.468182 24.892053 
L 191.740909 29.59329 
L 192.013636 30.451018 
L 192.286364 33.972754 
L 193.104545 38.480028 
L 193.377273 38.234399 
L 193.65 39.786256 
L 193.922727 39.964843 
L 194.195455 41.019284 
L 194.468182 39.551394 
L 194.740909 39.88928 
L 195.286364 41.115801 
L 195.559091 39.963836 
L 195.831818 40.585269 
L 196.104545 39.506776 
L 196.377273 40.991747 
L 196.922727 38.622479 
L 197.195455 40.80859 
L 197.468182 38.419647 
L 197.740909 39.340893 
L 198.286364 37.152188 
L 198.559091 37.532445 
L 198.831818 34.561769 
L 199.104545 34.98951 
L 199.377273 33.49261 
L 199.65 33.414103 
L 199.922727 33.133035 
L 200.468182 28.867479 
L 200.740909 29.681519 
L 201.013636 26.367108 
L 201.286364 25.289274 
L 201.559091 25.418015 
L 201.831818 24.300443 
L 202.104545 23.827697 
L 202.377273 27.957619 
L 202.65 27.805098 
L 202.922727 30.470074 
L 203.195455 35.21651 
L 203.468182 37.510678 
L 203.740909 38.091173 
L 204.286364 41.79227 
L 204.559091 41.317277 
L 204.831818 39.900357 
L 205.104545 41.431145 
L 205.377273 40.947013 
L 205.922727 40.382088 
L 206.195455 40.486932 
L 206.468182 40.831557 
L 206.740909 41.392492 
L 207.013636 41.108287 
L 207.286364 41.236602 
L 207.559091 40.353001 
L 207.831818 41.611979 
L 208.104545 39.362582 
L 208.377273 39.768944 
L 208.922727 41.680183 
L 209.195455 40.006866 
L 209.468182 41.338502 
L 209.740909 40.458116 
L 210.013636 41.371307 
L 210.559091 38.426076 
L 211.104545 37.202344 
L 211.922727 33.393809 
L 212.468182 32.324573 
L 212.740909 29.512033 
L 213.013636 30.113132 
L 213.286364 28.84881 
L 213.559091 29.362495 
L 213.831818 28.864303 
L 214.104545 30.349931 
L 214.377273 30.391412 
L 214.65 31.590279 
L 215.195455 37.76541 
L 215.468182 38.674882 
L 215.740909 38.366005 
L 216.559091 39.924176 
L 216.831818 40.115234 
L 217.104545 40.985162 
L 217.377273 41.37638 
L 217.922727 37.681558 
L 217.922727 37.681558 
" clip-path="url(#p190eb52b90)" style="fill: none; stroke: #000000; stroke-width: 0.75; stroke-linecap: square"/>
   </g>
   <g id="line2d_12">
    <path d="M 40.65 52.178192 
L 40.922727 49.324249 
L 41.195455 48.820442 
L 41.468182 44.769879 
L 41.740909 44.808803 
L 42.013636 39.915501 
L 42.286364 40.496266 
L 42.559091 39.5024 
L 42.831818 39.199372 
L 43.377273 44.358908 
L 43.922727 51.143775 
L 44.195455 53.986098 
L 44.468182 54.701646 
L 44.740909 55.045651 
L 45.286364 56.178211 
L 45.559091 56.314543 
L 45.831818 56.053228 
L 46.377273 56.410672 
L 46.65 56.384181 
L 46.922727 56.749255 
L 47.468182 54.715008 
L 47.740909 54.488163 
L 48.559091 51.302725 
L 48.831818 48.467877 
L 49.104545 48.415126 
L 49.377273 46.999638 
L 49.65 43.874117 
L 49.922727 42.880483 
L 50.195455 41.077729 
L 50.468182 40.758124 
L 50.740909 40.67737 
L 51.013636 39.640436 
L 52.104545 50.960927 
L 52.377273 52.960318 
L 52.65 54.007864 
L 53.195455 54.628445 
L 53.468182 55.298058 
L 54.013636 54.805792 
L 54.286364 55.416961 
L 54.559091 54.704202 
L 54.831818 55.476723 
L 55.65 54.360235 
L 55.922727 53.542167 
L 56.195455 53.485737 
L 56.468182 52.911594 
L 56.740909 52.759577 
L 57.013636 50.988233 
L 57.286364 50.649107 
L 57.559091 48.77474 
L 57.831818 48.452036 
L 58.377273 45.200757 
L 58.65 44.72956 
L 58.922727 44.486952 
L 59.195455 43.118096 
L 59.468182 42.387327 
L 59.740909 43.382742 
L 60.286364 49.52987 
L 60.559091 50.089954 
L 61.104545 53.020389 
L 61.65 54.118634 
L 62.195455 53.539766 
L 62.468182 53.407346 
L 62.740909 53.70104 
L 63.013636 53.240921 
L 63.286364 53.615562 
L 64.104545 52.047127 
L 64.377273 52.197363 
L 64.922727 50.437832 
L 65.195455 51.04048 
L 65.468182 49.983561 
L 65.740909 48.481936 
L 66.013636 48.591854 
L 66.286364 46.625617 
L 66.559091 46.607336 
L 66.831818 46.176342 
L 67.104545 44.837502 
L 67.377273 41.957301 
L 67.65 43.03041 
L 67.922727 41.552256 
L 68.468182 37.626444 
L 69.013636 35.835309 
L 69.831818 41.003986 
L 70.922727 49.721664 
L 71.195455 50.648797 
L 71.468182 50.534387 
L 71.740909 51.111977 
L 72.013636 51.145014 
L 72.286364 51.574072 
L 72.559091 51.512877 
L 72.831818 51.180453 
L 73.104545 51.175999 
L 73.377273 52.090893 
L 73.922727 51.36268 
L 74.195455 51.429645 
L 75.013636 49.292413 
L 75.286364 49.664227 
L 75.559091 48.29448 
L 75.831818 47.745822 
L 76.104545 45.935399 
L 76.377273 40.210744 
L 77.195455 48.71219 
L 77.740909 52.402558 
L 78.013636 51.871019 
L 78.286364 52.797107 
L 78.559091 53.087857 
L 78.831818 52.885413 
L 79.104545 53.216559 
L 79.377273 53.081699 
L 79.65 52.464721 
L 79.922727 52.784558 
L 80.195455 52.278891 
L 80.468182 52.690133 
L 80.740909 52.750785 
L 81.013636 51.763116 
L 81.286364 51.708893 
L 82.104545 51.124254 
L 82.377273 50.211451 
L 82.65 49.728016 
L 82.922727 47.350925 
L 83.195455 48.057604 
L 83.468182 46.360428 
L 84.286364 44.058707 
L 84.831818 43.131496 
L 85.104545 43.424687 
L 85.377273 39.922976 
L 85.65 43.716174 
L 86.195455 37.835512 
L 86.468182 38.262904 
L 86.740909 37.900347 
L 87.286364 42.688147 
L 87.559091 42.498251 
L 87.831818 45.382326 
L 88.104545 44.968915 
L 88.377273 45.436858 
L 88.65 47.531642 
L 88.922727 47.683543 
L 89.195455 47.579745 
L 89.468182 47.722313 
L 89.740909 48.464662 
L 90.013636 48.333598 
L 90.286364 48.854718 
L 90.559091 49.860165 
L 90.831818 49.103795 
L 91.104545 49.819769 
L 91.65 48.190953 
L 91.922727 48.17976 
L 92.195455 47.827776 
L 92.468182 46.801841 
L 93.286364 45.35045 
L 93.559091 43.584916 
L 93.831818 43.180762 
L 94.377273 35.088621 
L 94.65 35.83283 
L 94.922727 37.681325 
L 95.468182 46.936081 
L 95.740909 49.045118 
L 96.013636 50.0025 
L 96.559091 50.956047 
L 96.831818 50.219353 
L 97.104545 50.404098 
L 97.377273 50.091929 
L 97.65 50.815417 
L 97.922727 50.088172 
L 98.195455 50.98924 
L 98.740909 51.928495 
L 99.013636 50.027946 
L 99.286364 50.020006 
L 99.831818 49.006194 
L 100.104545 50.095608 
L 100.377273 48.462726 
L 101.468182 45.821879 
L 101.740909 45.773931 
L 102.013636 44.635793 
L 102.286364 42.468816 
L 102.831818 42.196269 
L 103.104545 40.746621 
L 103.377273 35.708001 
L 103.65 40.049625 
L 104.195455 35.720008 
L 104.468182 36.171451 
L 104.740909 37.672108 
L 105.013636 37.816147 
L 105.286364 41.191751 
L 105.559091 42.522303 
L 105.831818 44.433968 
L 106.104545 45.059158 
L 106.377273 46.074597 
L 106.65 48.061322 
L 106.922727 48.742245 
L 107.195455 48.928152 
L 107.468182 48.729851 
L 107.740909 49.942003 
L 108.013636 49.867291 
L 108.286364 49.282653 
L 108.559091 49.545208 
L 108.831818 50.513783 
L 109.104545 50.505572 
L 109.377273 49.812914 
L 109.65 50.61425 
L 109.922727 49.56833 
L 110.195455 47.857173 
L 110.468182 49.321306 
L 111.013636 46.513414 
L 111.286364 46.357369 
L 111.559091 45.698174 
L 111.831818 45.385192 
L 112.104545 43.942089 
L 112.377273 41.826043 
L 112.65 41.907571 
L 112.922727 43.797353 
L 113.195455 46.681854 
L 113.740909 49.017581 
L 114.013636 49.732005 
L 114.286364 49.701486 
L 114.559091 50.578153 
L 114.831818 49.797537 
L 115.104545 50.801512 
L 115.377273 50.935055 
L 115.65 49.923451 
L 115.922727 49.86946 
L 116.195455 50.40859 
L 117.013636 47.452748 
L 117.286364 48.049199 
L 117.559091 48.016511 
L 117.831818 47.763677 
L 118.104545 48.014729 
L 118.377273 47.282411 
L 118.65 47.326331 
L 118.922727 46.866792 
L 119.195455 46.705518 
L 119.468182 46.238931 
L 119.740909 45.474272 
L 120.013636 45.673696 
L 120.286364 45.030381 
L 120.559091 44.074316 
L 120.831818 42.6725 
L 121.104545 42.285349 
L 121.377273 40.949646 
L 121.65 40.630351 
L 121.922727 41.13811 
L 122.195455 38.892586 
L 122.468182 39.40902 
L 122.740909 39.08287 
L 123.013636 39.401236 
L 123.286364 40.618461 
L 123.831818 45.122792 
L 124.377273 47.247824 
L 124.65 47.20708 
L 124.922727 47.493105 
L 125.195455 48.481278 
L 125.468182 47.37335 
L 126.013636 47.886221 
L 126.286364 47.836878 
L 126.559091 49.033073 
L 126.831818 48.197111 
L 127.104545 47.749114 
L 127.377273 48.085761 
L 127.65 48.792285 
L 128.195455 47.971622 
L 128.468182 47.62599 
L 128.740909 47.064783 
L 129.013636 47.135738 
L 129.286364 47.562394 
L 129.559091 47.504414 
L 129.831818 46.716479 
L 130.104545 46.346059 
L 130.377273 46.389631 
L 130.65 43.94542 
L 130.922727 46.029282 
L 131.468182 47.859961 
L 131.740909 48.19808 
L 132.013636 48.874316 
L 132.286364 48.405869 
L 132.559091 49.442571 
L 132.831818 49.37762 
L 133.104545 49.637774 
L 133.377273 50.208585 
L 133.65 49.880615 
L 133.922727 48.325968 
L 134.195455 49.04566 
L 134.468182 48.104352 
L 134.740909 49.353762 
L 135.013636 48.763818 
L 135.286364 49.250274 
L 135.559091 48.867151 
L 135.831818 48.228406 
L 136.104545 48.341073 
L 136.377273 47.909072 
L 136.65 48.097457 
L 137.468182 42.718396 
L 137.740909 42.376017 
L 138.286364 40.095753 
L 138.559091 38.571355 
L 138.831818 38.813576 
L 139.104545 38.153452 
L 139.377273 38.606832 
L 139.65 37.887062 
L 139.922727 38.657918 
L 140.468182 33.808884 
L 140.740909 33.752764 
L 141.013636 33.216732 
L 141.286364 36.401627 
L 141.559091 37.516372 
L 142.104545 40.969438 
L 142.377273 41.418016 
L 142.65 43.10698 
L 142.922727 44.070365 
L 143.195455 44.363866 
L 143.468182 44.854931 
L 143.740909 43.46458 
L 144.013636 45.070854 
L 144.286364 44.618132 
L 144.559091 44.937853 
L 145.377273 44.36952 
L 145.65 45.044362 
L 145.922727 43.712843 
L 146.195455 43.175107 
L 146.468182 42.281553 
L 146.740909 42.573272 
L 147.013636 40.818388 
L 147.286364 40.998718 
L 147.559091 41.036016 
L 147.831818 40.312528 
L 148.104545 40.249436 
L 148.65 37.40293 
L 148.922727 39.198055 
L 149.195455 41.892737 
L 149.740909 44.785177 
L 150.286364 46.588552 
L 150.559091 46.761987 
L 150.831818 46.706448 
L 151.104545 46.869271 
L 151.377273 47.275826 
L 151.65 48.060547 
L 151.922727 47.600699 
L 152.195455 47.538149 
L 152.468182 46.902386 
L 152.740909 47.019159 
L 153.013636 46.866018 
L 153.286364 46.27677 
L 153.559091 47.560922 
L 153.831818 45.894035 
L 154.104545 46.387462 
L 154.377273 44.901369 
L 154.65 45.054781 
L 154.922727 44.076756 
L 155.195455 43.691619 
L 156.286364 40.810371 
L 156.559091 39.516885 
L 157.104545 37.772768 
L 157.65 33.526461 
L 157.922727 30.756641 
L 158.195455 29.682061 
L 158.468182 26.710997 
L 158.740909 25.991189 
L 159.286364 21.810994 
L 159.559091 23.936995 
L 159.831818 22.767718 
L 160.104545 27.934846 
L 160.377273 29.943415 
L 160.65 35.871057 
L 161.195455 40.265277 
L 161.468182 41.7956 
L 161.740909 41.46244 
L 162.013636 42.467654 
L 162.286364 42.332678 
L 162.559091 43.681084 
L 162.831818 43.769816 
L 163.104545 44.875691 
L 163.377273 44.213049 
L 163.922727 45.660063 
L 164.195455 45.807123 
L 164.468182 45.349947 
L 164.740909 46.158371 
L 165.013636 46.294896 
L 165.286364 45.272176 
L 165.559091 45.849339 
L 165.831818 45.436549 
L 166.377273 46.270264 
L 166.65 43.332237 
L 166.922727 45.841787 
L 167.195455 46.924346 
L 167.468182 46.17669 
L 167.740909 47.499805 
L 168.013636 46.429446 
L 168.286364 46.679724 
L 168.559091 46.324254 
L 168.831818 46.524995 
L 169.104545 46.286259 
L 169.377273 46.323944 
L 169.65 45.484923 
L 169.922727 45.236931 
L 170.468182 44.123 
L 170.740909 44.363866 
L 171.013636 42.771883 
L 171.286364 42.937921 
L 171.831818 40.860953 
L 172.65 34.660648 
L 172.922727 34.684661 
L 173.195455 35.984654 
L 173.468182 34.931917 
L 173.740909 35.838988 
L 174.013636 39.098556 
L 174.559091 41.992584 
L 174.831818 43.510088 
L 175.104545 43.323329 
L 175.377273 44.345198 
L 175.65 41.05267 
L 175.922727 43.033895 
L 176.195455 43.48716 
L 176.468182 42.055638 
L 176.740909 41.804354 
L 177.013636 40.90805 
L 177.286364 40.433058 
L 177.831818 41.165996 
L 178.104545 40.398587 
L 178.377273 40.794569 
L 178.922727 38.975857 
L 179.195455 39.709299 
L 179.468182 39.37637 
L 180.013636 37.511608 
L 180.286364 35.611407 
L 180.559091 34.649067 
L 180.831818 34.811968 
L 181.104545 32.359004 
L 181.377273 31.352241 
L 181.65 30.964586 
L 181.922727 30.198107 
L 182.195455 30.065959 
L 182.740909 30.645562 
L 183.013636 31.843461 
L 183.559091 35.699325 
L 183.831818 39.259908 
L 184.104545 39.921814 
L 184.377273 40.175964 
L 184.65 37.630317 
L 184.922727 40.953171 
L 185.195455 41.613838 
L 185.468182 41.826856 
L 185.740909 41.737776 
L 186.013636 41.245355 
L 186.286364 41.777474 
L 186.559091 41.548809 
L 186.831818 42.527493 
L 187.104545 40.755916 
L 187.377273 39.733196 
L 187.65 40.835391 
L 187.922727 40.520976 
L 188.195455 41.082028 
L 188.468182 39.294068 
L 188.740909 41.451634 
L 189.559091 38.385835 
L 190.104545 39.846986 
L 190.377273 39.013348 
L 190.65 39.340777 
L 190.922727 37.780127 
L 191.468182 38.438974 
L 191.740909 35.378636 
L 192.013636 34.430743 
L 192.286364 34.317224 
L 192.559091 33.810898 
L 192.831818 32.965874 
L 193.104545 32.777488 
L 193.922727 29.505875 
L 194.195455 28.767631 
L 194.740909 30.331224 
L 195.286364 28.598456 
L 195.559091 22.568294 
L 196.377273 20.634281 
L 196.65 19.50265 
L 196.922727 21.714013 
L 197.195455 22.697809 
L 197.740909 30.233275 
L 198.286364 34.825563 
L 198.559091 35.13777 
L 198.831818 35.818654 
L 199.104545 34.643103 
L 199.377273 34.517964 
L 199.65 35.550445 
L 199.922727 34.440774 
L 200.195455 34.494455 
L 200.468182 34.038441 
L 200.740909 34.247818 
L 201.013636 33.543425 
L 201.286364 34.866385 
L 201.559091 35.120419 
L 202.104545 34.670369 
L 202.377273 35.937635 
L 202.65 34.149675 
L 202.922727 35.69065 
L 203.195455 33.719959 
L 203.468182 33.735722 
L 204.013636 34.770294 
L 204.559091 35.204852 
L 204.831818 34.89338 
L 205.104545 33.823137 
L 205.377273 31.58691 
L 205.65 31.539503 
L 206.740909 28.716662 
L 207.013636 27.124446 
L 207.286364 27.249353 
L 207.559091 27.23785 
L 207.831818 24.56323 
L 208.104545 23.407702 
L 208.377273 24.291922 
L 208.65 24.507109 
L 209.195455 23.897645 
L 209.468182 24.216049 
L 209.740909 26.501 
L 210.013636 26.335543 
L 211.104545 35.203535 
L 211.377273 36.357939 
L 211.65 36.790367 
L 211.922727 37.551423 
L 212.195455 37.307498 
L 212.468182 37.485155 
L 212.740909 37.284569 
L 213.013636 38.638165 
L 213.559091 39.28667 
L 213.831818 38.415464 
L 214.104545 39.932465 
L 214.377273 38.502221 
L 214.65 38.720777 
L 214.922727 37.921455 
L 215.195455 37.608667 
L 215.468182 36.502947 
L 215.740909 37.762389 
L 216.286364 34.587253 
L 216.559091 35.163487 
L 216.831818 33.39497 
L 217.104545 33.85265 
L 217.377273 32.394249 
L 217.65 33.064947 
L 217.922727 30.924229 
L 217.922727 30.924229 
" clip-path="url(#p190eb52b90)" style="fill: none; stroke: #ff8080; stroke-width: 0.75; stroke-linecap: square"/>
   </g>
   <g id="line2d_13">
    <path d="M 40.377273 61.56 
L 67.104545 61.56 
L 67.104545 56.545182 
L 76.104545 56.545182 
L 76.104545 61.56 
L 85.104545 61.56 
L 85.104545 56.545182 
L 94.104545 56.545182 
L 94.104545 61.56 
L 103.104545 61.56 
L 103.104545 56.545182 
L 112.104545 56.545182 
L 112.104545 61.56 
L 121.104545 61.56 
L 121.104545 56.545182 
L 130.104545 56.545182 
L 130.104545 61.56 
L 139.104545 61.56 
L 139.104545 56.545182 
L 148.104545 56.545182 
L 148.104545 61.56 
L 157.104545 61.56 
L 157.104545 56.545182 
L 166.104545 56.545182 
L 166.104545 61.56 
L 175.104545 61.56 
L 175.104545 56.545182 
L 184.104545 56.545182 
L 184.104545 61.56 
L 217.922727 61.56 
" clip-path="url(#p190eb52b90)" style="fill: none; stroke: #000000; stroke-width: 0.75; stroke-linecap: square"/>
   </g>
   <g id="patch_3">
    <path d="M 31.5 64.08 
L 31.5 8.64 
" style="fill: none; stroke: #000000; stroke-width: 0.5; stroke-linejoin: miter; stroke-linecap: square"/>
   </g>
   <g id="patch_4">
    <path d="M 31.5 64.08 
L 226.8 64.08 
" style="fill: none; stroke: #000000; stroke-width: 0.5; stroke-linejoin: miter; stroke-linecap: square"/>
   </g>
   <g id="legend_1">
    <g id="patch_5">
     <path d="M 36.4 34.043438 
L 76.695937 34.043438 
Q 78.095937 34.043438 78.095937 32.643438 
L 78.095937 13.54 
Q 78.095937 12.14 76.695937 12.14 
L 36.4 12.14 
Q 35 12.14 35 13.54 
L 35 32.643438 
Q 35 34.043438 36.4 34.043438 
z
" style="fill: #ffffff; opacity: 0.8; stroke: #cccccc; stroke-width: 0.5; stroke-linejoin: miter"/>
    </g>
    <g id="line2d_14">
     <path d="M 37.8 17.500469 
L 44.8 17.500469 
L 51.8 17.500469 
" style="fill: none; stroke: #000000; stroke-width: 0.75; stroke-linecap: square"/>
    </g>
    <g id="text_13">
     <!-- Cell 1 -->
     <g transform="translate(57.4 19.950469) scale(0.07 -0.07)">
      <defs>
       <path id="ArialMT-43" d="M 3763 1606 
L 4369 1453 
Q 4178 706 3683 314 
Q 3188 -78 2472 -78 
Q 1731 -78 1267 223 
Q 803 525 561 1097 
Q 319 1669 319 2325 
Q 319 3041 592 3573 
Q 866 4106 1370 4382 
Q 1875 4659 2481 4659 
Q 3169 4659 3637 4309 
Q 4106 3959 4291 3325 
L 3694 3184 
Q 3534 3684 3231 3912 
Q 2928 4141 2469 4141 
Q 1941 4141 1586 3887 
Q 1231 3634 1087 3207 
Q 944 2781 944 2328 
Q 944 1744 1114 1308 
Q 1284 872 1643 656 
Q 2003 441 2422 441 
Q 2931 441 3284 734 
Q 3638 1028 3763 1606 
z
" transform="scale(0.015625)"/>
      </defs>
      <use xlink:href="#ArialMT-43"/>
      <use xlink:href="#ArialMT-65" x="72.216797"/>
      <use xlink:href="#ArialMT-6c" x="127.832031"/>
      <use xlink:href="#ArialMT-6c" x="150.048828"/>
      <use xlink:href="#ArialMT-20" x="172.265625"/>
      <use xlink:href="#ArialMT-31" x="200.048828"/>
     </g>
    </g>
    <g id="line2d_15">
     <path d="M 37.8 27.402188 
L 44.8 27.402188 
L 51.8 27.402188 
" style="fill: none; stroke: #ff8080; stroke-width: 0.75; stroke-linecap: square"/>
    </g>
    <g id="text_14">
     <!-- Cell 2 -->
     <g transform="translate(57.4 29.852188) scale(0.07 -0.07)">
      <use xlink:href="#ArialMT-43"/>
      <use xlink:href="#ArialMT-65" x="72.216797"/>
      <use xlink:href="#ArialMT-6c" x="127.832031"/>
      <use xlink:href="#ArialMT-6c" x="150.048828"/>
      <use xlink:href="#ArialMT-20" x="172.265625"/>
      <use xlink:href="#ArialMT-32" x="200.048828"/>
     </g>
    </g>
   </g>
  </g>
 </g>
 <defs>
  <clipPath id="p190eb52b90">
   <rect x="31.5" y="8.64" width="195.3" height="55.44"/>
  </clipPath>
 </defs>
</svg>
