<?xml version="1.0" encoding="utf-8" standalone="no"?>
<!DOCTYPE svg PUBLIC "-//W3C//DTD SVG 1.1//EN"
  "http://www.w3.org/Graphics/SVG/1.1/DTD/svg11.dtd">
<svg xmlns:xlink="http://www.w3.org/1999/xlink" width="252pt" height="72pt" viewBox="0 0 252 72" xmlns="http://www.w3.org/2000/svg" version="1.1">
 <metadata>
  <rdf:RDF xmlns:dc="http://purl.org/dc/elements/1.1/" xmlns:cc="http://creativecommons.org/ns#" xmlns:rdf="http://www.w3.org/1999/02/22-rdf-syntax-ns#">
   <cc:Work>
    <dc:type rdf:resource="http://purl.org/dc/dcmitype/StillImage"/>
    <dc:date>2024-07-09T19:54:55.047391</dc:date>
    <dc:format>image/svg+xml</dc:format>
    <dc:creator>
     <cc:Agent>
      <dc:title>Matplotlib v3.8.3, https://matplotlib.org/</dc:title>
     </cc:Agent>
    </dc:creator>
   </cc:Work>
  </rdf:RDF>
 </metadata>
 <defs>
  <style type="text/css">*{stroke-linejoin: round; stroke-linecap: butt}</style>
 </defs>
 <g id="figure_1">
  <g id="patch_1">
   <path d="M 0 72 
L 252 72 
L 252 0 
L 0 0 
z
" style="fill: #ffffff"/>
  </g>
  <g id="axes_1">
   <g id="patch_2">
    <path d="M 31.5 64.08 
L 226.8 64.08 
L 226.8 8.64 
L 31.5 8.64 
z
" style="fill: #f2f2f2"/>
   </g>
   <g id="matplotlib.axis_1">
    <g id="xtick_1">
     <g id="line2d_1">
      <defs>
       <path id="mbf8b8c92e3" d="M 0 0 
L 0 3.5 
" style="stroke: #000000; stroke-width: 0.5"/>
      </defs>
      <g>
       <use xlink:href="#mbf8b8c92e3" x="40.377273" y="64.08" style="stroke: #000000; stroke-width: 0.5"/>
      </g>
     </g>
     <g id="text_1">
      <!-- 0 -->
      <g transform="translate(38.987038 74.658906) scale(0.05 -0.05)">
       <defs>
        <path id="ArialMT-30" d="M 266 2259 
Q 266 3072 433 3567 
Q 600 4063 929 4331 
Q 1259 4600 1759 4600 
Q 2128 4600 2406 4451 
Q 2684 4303 2865 4023 
Q 3047 3744 3150 3342 
Q 3253 2941 3253 2259 
Q 3253 1453 3087 958 
Q 2922 463 2592 192 
Q 2263 -78 1759 -78 
Q 1097 -78 719 397 
Q 266 969 266 2259 
z
M 844 2259 
Q 844 1131 1108 757 
Q 1372 384 1759 384 
Q 2147 384 2411 759 
Q 2675 1134 2675 2259 
Q 2675 3391 2411 3762 
Q 2147 4134 1753 4134 
Q 1366 4134 1134 3806 
Q 844 3388 844 2259 
z
" transform="scale(0.015625)"/>
       </defs>
       <use xlink:href="#ArialMT-30"/>
      </g>
     </g>
    </g>
    <g id="xtick_2">
     <g id="line2d_2">
      <g>
       <use xlink:href="#mbf8b8c92e3" x="73.104545" y="64.08" style="stroke: #000000; stroke-width: 0.5"/>
      </g>
     </g>
     <g id="text_2">
      <!-- 20 -->
      <g transform="translate(70.324077 74.658906) scale(0.05 -0.05)">
       <defs>
        <path id="ArialMT-32" d="M 3222 541 
L 3222 0 
L 194 0 
Q 188 203 259 391 
Q 375 700 629 1000 
Q 884 1300 1366 1694 
Q 2113 2306 2375 2664 
Q 2638 3022 2638 3341 
Q 2638 3675 2398 3904 
Q 2159 4134 1775 4134 
Q 1369 4134 1125 3890 
Q 881 3647 878 3216 
L 300 3275 
Q 359 3922 746 4261 
Q 1134 4600 1788 4600 
Q 2447 4600 2831 4234 
Q 3216 3869 3216 3328 
Q 3216 3053 3103 2787 
Q 2991 2522 2730 2228 
Q 2469 1934 1863 1422 
Q 1356 997 1212 845 
Q 1069 694 975 541 
L 3222 541 
z
" transform="scale(0.015625)"/>
       </defs>
       <use xlink:href="#ArialMT-32"/>
       <use xlink:href="#ArialMT-30" x="55.615234"/>
      </g>
     </g>
    </g>
    <g id="xtick_3">
     <g id="line2d_3">
      <g>
       <use xlink:href="#mbf8b8c92e3" x="105.831818" y="64.08" style="stroke: #000000; stroke-width: 0.5"/>
      </g>
     </g>
     <g id="text_3">
      <!-- 40 -->
      <g transform="translate(103.051349 74.658906) scale(0.05 -0.05)">
       <defs>
        <path id="ArialMT-34" d="M 2069 0 
L 2069 1097 
L 81 1097 
L 81 1613 
L 2172 4581 
L 2631 4581 
L 2631 1613 
L 3250 1613 
L 3250 1097 
L 2631 1097 
L 2631 0 
L 2069 0 
z
M 2069 1613 
L 2069 3678 
L 634 1613 
L 2069 1613 
z
" transform="scale(0.015625)"/>
       </defs>
       <use xlink:href="#ArialMT-34"/>
       <use xlink:href="#ArialMT-30" x="55.615234"/>
      </g>
     </g>
    </g>
    <g id="xtick_4">
     <g id="line2d_4">
      <g>
       <use xlink:href="#mbf8b8c92e3" x="138.559091" y="64.08" style="stroke: #000000; stroke-width: 0.5"/>
      </g>
     </g>
     <g id="text_4">
      <!-- 60 -->
      <g transform="translate(135.778622 74.658906) scale(0.05 -0.05)">
       <defs>
        <path id="ArialMT-36" d="M 3184 3459 
L 2625 3416 
Q 2550 3747 2413 3897 
Q 2184 4138 1850 4138 
Q 1581 4138 1378 3988 
Q 1113 3794 959 3422 
Q 806 3050 800 2363 
Q 1003 2672 1297 2822 
Q 1591 2972 1913 2972 
Q 2475 2972 2870 2558 
Q 3266 2144 3266 1488 
Q 3266 1056 3080 686 
Q 2894 316 2569 119 
Q 2244 -78 1831 -78 
Q 1128 -78 684 439 
Q 241 956 241 2144 
Q 241 3472 731 4075 
Q 1159 4600 1884 4600 
Q 2425 4600 2770 4297 
Q 3116 3994 3184 3459 
z
M 888 1484 
Q 888 1194 1011 928 
Q 1134 663 1356 523 
Q 1578 384 1822 384 
Q 2178 384 2434 671 
Q 2691 959 2691 1453 
Q 2691 1928 2437 2201 
Q 2184 2475 1800 2475 
Q 1419 2475 1153 2201 
Q 888 1928 888 1484 
z
" transform="scale(0.015625)"/>
       </defs>
       <use xlink:href="#ArialMT-36"/>
       <use xlink:href="#ArialMT-30" x="55.615234"/>
      </g>
     </g>
    </g>
    <g id="xtick_5">
     <g id="line2d_5">
      <g>
       <use xlink:href="#mbf8b8c92e3" x="171.286364" y="64.08" style="stroke: #000000; stroke-width: 0.5"/>
      </g>
     </g>
     <g id="text_5">
      <!-- 80 -->
      <g transform="translate(168.505895 74.658906) scale(0.05 -0.05)">
       <defs>
        <path id="ArialMT-38" d="M 1131 2484 
Q 781 2613 612 2850 
Q 444 3088 444 3419 
Q 444 3919 803 4259 
Q 1163 4600 1759 4600 
Q 2359 4600 2725 4251 
Q 3091 3903 3091 3403 
Q 3091 3084 2923 2848 
Q 2756 2613 2416 2484 
Q 2838 2347 3058 2040 
Q 3278 1734 3278 1309 
Q 3278 722 2862 322 
Q 2447 -78 1769 -78 
Q 1091 -78 675 323 
Q 259 725 259 1325 
Q 259 1772 486 2073 
Q 713 2375 1131 2484 
z
M 1019 3438 
Q 1019 3113 1228 2906 
Q 1438 2700 1772 2700 
Q 2097 2700 2305 2904 
Q 2513 3109 2513 3406 
Q 2513 3716 2298 3927 
Q 2084 4138 1766 4138 
Q 1444 4138 1231 3931 
Q 1019 3725 1019 3438 
z
M 838 1322 
Q 838 1081 952 856 
Q 1066 631 1291 507 
Q 1516 384 1775 384 
Q 2178 384 2440 643 
Q 2703 903 2703 1303 
Q 2703 1709 2433 1975 
Q 2163 2241 1756 2241 
Q 1359 2241 1098 1978 
Q 838 1716 838 1322 
z
" transform="scale(0.015625)"/>
       </defs>
       <use xlink:href="#ArialMT-38"/>
       <use xlink:href="#ArialMT-30" x="55.615234"/>
      </g>
     </g>
    </g>
    <g id="xtick_6">
     <g id="line2d_6">
      <g>
       <use xlink:href="#mbf8b8c92e3" x="204.013636" y="64.08" style="stroke: #000000; stroke-width: 0.5"/>
      </g>
     </g>
     <g id="text_6">
      <!-- 100 -->
      <g transform="translate(199.842933 74.658906) scale(0.05 -0.05)">
       <defs>
        <path id="ArialMT-31" d="M 2384 0 
L 1822 0 
L 1822 3584 
Q 1619 3391 1289 3197 
Q 959 3003 697 2906 
L 697 3450 
Q 1169 3672 1522 3987 
Q 1875 4303 2022 4600 
L 2384 4600 
L 2384 0 
z
" transform="scale(0.015625)"/>
       </defs>
       <use xlink:href="#ArialMT-31"/>
       <use xlink:href="#ArialMT-30" x="55.615234"/>
       <use xlink:href="#ArialMT-30" x="111.230469"/>
      </g>
     </g>
    </g>
    <g id="text_7">
     <!-- Time (h) -->
     <g transform="translate(115.333594 85.112422) scale(0.075 -0.075)">
      <defs>
       <path id="ArialMT-54" d="M 1659 0 
L 1659 4041 
L 150 4041 
L 150 4581 
L 3781 4581 
L 3781 4041 
L 2266 4041 
L 2266 0 
L 1659 0 
z
" transform="scale(0.015625)"/>
       <path id="ArialMT-69" d="M 425 3934 
L 425 4581 
L 988 4581 
L 988 3934 
L 425 3934 
z
M 425 0 
L 425 3319 
L 988 3319 
L 988 0 
L 425 0 
z
" transform="scale(0.015625)"/>
       <path id="ArialMT-6d" d="M 422 0 
L 422 3319 
L 925 3319 
L 925 2853 
Q 1081 3097 1340 3245 
Q 1600 3394 1931 3394 
Q 2300 3394 2536 3241 
Q 2772 3088 2869 2813 
Q 3263 3394 3894 3394 
Q 4388 3394 4653 3120 
Q 4919 2847 4919 2278 
L 4919 0 
L 4359 0 
L 4359 2091 
Q 4359 2428 4304 2576 
Q 4250 2725 4106 2815 
Q 3963 2906 3769 2906 
Q 3419 2906 3187 2673 
Q 2956 2441 2956 1928 
L 2956 0 
L 2394 0 
L 2394 2156 
Q 2394 2531 2256 2718 
Q 2119 2906 1806 2906 
Q 1569 2906 1367 2781 
Q 1166 2656 1075 2415 
Q 984 2175 984 1722 
L 984 0 
L 422 0 
z
" transform="scale(0.015625)"/>
       <path id="ArialMT-65" d="M 2694 1069 
L 3275 997 
Q 3138 488 2766 206 
Q 2394 -75 1816 -75 
Q 1088 -75 661 373 
Q 234 822 234 1631 
Q 234 2469 665 2931 
Q 1097 3394 1784 3394 
Q 2450 3394 2872 2941 
Q 3294 2488 3294 1666 
Q 3294 1616 3291 1516 
L 816 1516 
Q 847 969 1125 678 
Q 1403 388 1819 388 
Q 2128 388 2347 550 
Q 2566 713 2694 1069 
z
M 847 1978 
L 2700 1978 
Q 2663 2397 2488 2606 
Q 2219 2931 1791 2931 
Q 1403 2931 1139 2672 
Q 875 2413 847 1978 
z
" transform="scale(0.015625)"/>
       <path id="ArialMT-20" transform="scale(0.015625)"/>
       <path id="ArialMT-28" d="M 1497 -1347 
Q 1031 -759 709 28 
Q 388 816 388 1659 
Q 388 2403 628 3084 
Q 909 3875 1497 4659 
L 1900 4659 
Q 1522 4009 1400 3731 
Q 1209 3300 1100 2831 
Q 966 2247 966 1656 
Q 966 153 1900 -1347 
L 1497 -1347 
z
" transform="scale(0.015625)"/>
       <path id="ArialMT-68" d="M 422 0 
L 422 4581 
L 984 4581 
L 984 2938 
Q 1378 3394 1978 3394 
Q 2347 3394 2619 3248 
Q 2891 3103 3008 2847 
Q 3125 2591 3125 2103 
L 3125 0 
L 2563 0 
L 2563 2103 
Q 2563 2525 2380 2717 
Q 2197 2909 1863 2909 
Q 1613 2909 1392 2779 
Q 1172 2650 1078 2428 
Q 984 2206 984 1816 
L 984 0 
L 422 0 
z
" transform="scale(0.015625)"/>
       <path id="ArialMT-29" d="M 791 -1347 
L 388 -1347 
Q 1322 153 1322 1656 
Q 1322 2244 1188 2822 
Q 1081 3291 891 3722 
Q 769 4003 388 4659 
L 791 4659 
Q 1378 3875 1659 3084 
Q 1900 2403 1900 1659 
Q 1900 816 1576 28 
Q 1253 -759 791 -1347 
z
" transform="scale(0.015625)"/>
      </defs>
      <use xlink:href="#ArialMT-54"/>
      <use xlink:href="#ArialMT-69" x="57.333984"/>
      <use xlink:href="#ArialMT-6d" x="79.550781"/>
      <use xlink:href="#ArialMT-65" x="162.851562"/>
      <use xlink:href="#ArialMT-20" x="218.466797"/>
      <use xlink:href="#ArialMT-28" x="246.25"/>
      <use xlink:href="#ArialMT-68" x="279.550781"/>
      <use xlink:href="#ArialMT-29" x="335.166016"/>
     </g>
    </g>
   </g>
   <g id="matplotlib.axis_2">
    <g id="ytick_1">
     <g id="line2d_7">
      <defs>
       <path id="m95a679b606" d="M 0 0 
L -3.5 0 
" style="stroke: #000000; stroke-width: 0.5"/>
      </defs>
      <g>
       <use xlink:href="#m95a679b606" x="31.5" y="50.202072" style="stroke: #000000; stroke-width: 0.5"/>
      </g>
     </g>
     <g id="text_8">
      <!-- 2000 -->
      <g transform="translate(13.378125 51.991525) scale(0.05 -0.05)">
       <use xlink:href="#ArialMT-32"/>
       <use xlink:href="#ArialMT-30" x="55.615234"/>
       <use xlink:href="#ArialMT-30" x="111.230469"/>
       <use xlink:href="#ArialMT-30" x="166.845703"/>
      </g>
     </g>
    </g>
    <g id="ytick_2">
     <g id="line2d_8">
      <g>
       <use xlink:href="#m95a679b606" x="31.5" y="28.461412" style="stroke: #000000; stroke-width: 0.5"/>
      </g>
     </g>
     <g id="text_9">
      <!-- 4000 -->
      <g transform="translate(13.378125 30.250865) scale(0.05 -0.05)">
       <use xlink:href="#ArialMT-34"/>
       <use xlink:href="#ArialMT-30" x="55.615234"/>
       <use xlink:href="#ArialMT-30" x="111.230469"/>
       <use xlink:href="#ArialMT-30" x="166.845703"/>
      </g>
     </g>
    </g>
    <g id="text_10">
     <!-- p53 level (a.u.) -->
     <g transform="translate(7.799609 61.16332) rotate(-90) scale(0.075 -0.075)">
      <defs>
       <path id="ArialMT-70" d="M 422 -1272 
L 422 3319 
L 934 3319 
L 934 2888 
Q 1116 3141 1344 3267 
Q 1572 3394 1897 3394 
Q 2322 3394 2647 3175 
Q 2972 2956 3137 2557 
Q 3303 2159 3303 1684 
Q 3303 1175 3120 767 
Q 2938 359 2589 142 
Q 2241 -75 1856 -75 
Q 1575 -75 1351 44 
Q 1128 163 984 344 
L 984 -1272 
L 422 -1272 
z
M 931 1641 
Q 931 1000 1190 694 
Q 1450 388 1819 388 
Q 2194 388 2461 705 
Q 2728 1022 2728 1688 
Q 2728 2322 2467 2637 
Q 2206 2953 1844 2953 
Q 1484 2953 1207 2617 
Q 931 2281 931 1641 
z
" transform="scale(0.015625)"/>
       <path id="ArialMT-35" d="M 266 1200 
L 856 1250 
Q 922 819 1161 601 
Q 1400 384 1738 384 
Q 2144 384 2425 690 
Q 2706 997 2706 1503 
Q 2706 1984 2436 2262 
Q 2166 2541 1728 2541 
Q 1456 2541 1237 2417 
Q 1019 2294 894 2097 
L 366 2166 
L 809 4519 
L 3088 4519 
L 3088 3981 
L 1259 3981 
L 1013 2750 
Q 1425 3038 1878 3038 
Q 2478 3038 2890 2622 
Q 3303 2206 3303 1553 
Q 3303 931 2941 478 
Q 2500 -78 1738 -78 
Q 1113 -78 717 272 
Q 322 622 266 1200 
z
" transform="scale(0.015625)"/>
       <path id="ArialMT-33" d="M 269 1209 
L 831 1284 
Q 928 806 1161 595 
Q 1394 384 1728 384 
Q 2125 384 2398 659 
Q 2672 934 2672 1341 
Q 2672 1728 2419 1979 
Q 2166 2231 1775 2231 
Q 1616 2231 1378 2169 
L 1441 2663 
Q 1497 2656 1531 2656 
Q 1891 2656 2178 2843 
Q 2466 3031 2466 3422 
Q 2466 3731 2256 3934 
Q 2047 4138 1716 4138 
Q 1388 4138 1169 3931 
Q 950 3725 888 3313 
L 325 3413 
Q 428 3978 793 4289 
Q 1159 4600 1703 4600 
Q 2078 4600 2393 4439 
Q 2709 4278 2876 4000 
Q 3044 3722 3044 3409 
Q 3044 3113 2884 2869 
Q 2725 2625 2413 2481 
Q 2819 2388 3044 2092 
Q 3269 1797 3269 1353 
Q 3269 753 2831 336 
Q 2394 -81 1725 -81 
Q 1122 -81 723 278 
Q 325 638 269 1209 
z
" transform="scale(0.015625)"/>
       <path id="ArialMT-6c" d="M 409 0 
L 409 4581 
L 972 4581 
L 972 0 
L 409 0 
z
" transform="scale(0.015625)"/>
       <path id="ArialMT-76" d="M 1344 0 
L 81 3319 
L 675 3319 
L 1388 1331 
Q 1503 1009 1600 663 
Q 1675 925 1809 1294 
L 2547 3319 
L 3125 3319 
L 1869 0 
L 1344 0 
z
" transform="scale(0.015625)"/>
       <path id="ArialMT-61" d="M 2588 409 
Q 2275 144 1986 34 
Q 1697 -75 1366 -75 
Q 819 -75 525 192 
Q 231 459 231 875 
Q 231 1119 342 1320 
Q 453 1522 633 1644 
Q 813 1766 1038 1828 
Q 1203 1872 1538 1913 
Q 2219 1994 2541 2106 
Q 2544 2222 2544 2253 
Q 2544 2597 2384 2738 
Q 2169 2928 1744 2928 
Q 1347 2928 1158 2789 
Q 969 2650 878 2297 
L 328 2372 
Q 403 2725 575 2942 
Q 747 3159 1072 3276 
Q 1397 3394 1825 3394 
Q 2250 3394 2515 3294 
Q 2781 3194 2906 3042 
Q 3031 2891 3081 2659 
Q 3109 2516 3109 2141 
L 3109 1391 
Q 3109 606 3145 398 
Q 3181 191 3288 0 
L 2700 0 
Q 2613 175 2588 409 
z
M 2541 1666 
Q 2234 1541 1622 1453 
Q 1275 1403 1131 1340 
Q 988 1278 909 1158 
Q 831 1038 831 891 
Q 831 666 1001 516 
Q 1172 366 1500 366 
Q 1825 366 2078 508 
Q 2331 650 2450 897 
Q 2541 1088 2541 1459 
L 2541 1666 
z
" transform="scale(0.015625)"/>
       <path id="ArialMT-2e" d="M 581 0 
L 581 641 
L 1222 641 
L 1222 0 
L 581 0 
z
" transform="scale(0.015625)"/>
       <path id="ArialMT-75" d="M 2597 0 
L 2597 488 
Q 2209 -75 1544 -75 
Q 1250 -75 995 37 
Q 741 150 617 320 
Q 494 491 444 738 
Q 409 903 409 1263 
L 409 3319 
L 972 3319 
L 972 1478 
Q 972 1038 1006 884 
Q 1059 663 1231 536 
Q 1403 409 1656 409 
Q 1909 409 2131 539 
Q 2353 669 2445 892 
Q 2538 1116 2538 1541 
L 2538 3319 
L 3100 3319 
L 3100 0 
L 2597 0 
z
" transform="scale(0.015625)"/>
      </defs>
      <use xlink:href="#ArialMT-70"/>
      <use xlink:href="#ArialMT-35" x="55.615234"/>
      <use xlink:href="#ArialMT-33" x="111.230469"/>
      <use xlink:href="#ArialMT-20" x="166.845703"/>
      <use xlink:href="#ArialMT-6c" x="194.628906"/>
      <use xlink:href="#ArialMT-65" x="216.845703"/>
      <use xlink:href="#ArialMT-76" x="272.460938"/>
      <use xlink:href="#ArialMT-65" x="322.460938"/>
      <use xlink:href="#ArialMT-6c" x="378.076172"/>
      <use xlink:href="#ArialMT-20" x="400.292969"/>
      <use xlink:href="#ArialMT-28" x="428.076172"/>
      <use xlink:href="#ArialMT-61" x="461.376953"/>
      <use xlink:href="#ArialMT-2e" x="516.992188"/>
      <use xlink:href="#ArialMT-75" x="544.775391"/>
      <use xlink:href="#ArialMT-2e" x="600.390625"/>
      <use xlink:href="#ArialMT-29" x="628.173828"/>
     </g>
    </g>
   </g>
   <g id="line2d_9">
    <path d="M 40.65 48.471197 
L 41.195455 47.743854 
L 41.740909 43.387068 
L 42.013636 41.090035 
L 42.286364 37.680767 
L 42.559091 35.844512 
L 42.831818 31.325501 
L 43.377273 29.295311 
L 43.65 29.125887 
L 43.922727 28.714476 
L 44.195455 34.156703 
L 44.740909 39.261535 
L 45.286364 46.884614 
L 46.377273 52.00177 
L 46.65 51.788794 
L 46.922727 52.487404 
L 47.195455 51.575196 
L 47.468182 52.02261 
L 47.740909 52.188089 
L 48.286364 51.507135 
L 48.831818 49.768021 
L 49.104545 48.862044 
L 49.377273 48.545351 
L 49.65 49.078274 
L 49.922727 45.745375 
L 50.468182 44.663743 
L 50.740909 44.911476 
L 51.013636 41.785182 
L 51.286364 40.077779 
L 51.559091 40.987494 
L 51.831818 40.543126 
L 52.104545 39.273651 
L 52.377273 39.604331 
L 52.65 41.777359 
L 52.922727 45.502974 
L 53.468182 46.727375 
L 53.740909 47.541265 
L 54.013636 50.008484 
L 54.286364 49.256423 
L 54.559091 49.265978 
L 54.831818 48.816278 
L 55.104545 50.211835 
L 55.377273 50.488578 
L 55.922727 48.751541 
L 56.195455 47.772727 
L 56.468182 47.6571 
L 56.740909 49.314098 
L 57.559091 46.184897 
L 57.831818 45.606623 
L 58.104545 43.282657 
L 58.377273 42.294219 
L 58.65 38.12292 
L 58.922727 38.349258 
L 59.195455 34.901078 
L 59.468182 34.686441 
L 59.740909 32.394325 
L 60.013636 34.003065 
L 60.286364 33.782888 
L 60.559091 36.853722 
L 60.831818 37.817235 
L 61.65 47.25469 
L 61.922727 48.101606 
L 62.195455 48.553106 
L 62.468182 50.100154 
L 62.740909 50.085614 
L 63.013636 50.52382 
L 63.286364 49.756181 
L 63.559091 50.163022 
L 63.831818 49.645331 
L 64.65 47.387349 
L 64.922727 43.776322 
L 65.195455 44.230938 
L 65.468182 44.29159 
L 65.740909 40.194583 
L 66.286364 37.246577 
L 66.831818 34.699735 
L 67.104545 30.295866 
L 67.377273 23.788762 
L 67.65 26.478096 
L 67.922727 23.848168 
L 68.195455 23.384621 
L 68.468182 22.103307 
L 68.740909 18.340649 
L 69.013636 18.325833 
L 69.286364 17.491864 
L 69.559091 17.430796 
L 69.831818 19.39154 
L 70.104545 19.690786 
L 70.377273 20.821854 
L 70.65 24.103586 
L 70.922727 24.948495 
L 71.195455 27.741616 
L 71.468182 25.154823 
L 72.286364 30.468961 
L 72.559091 33.796459 
L 72.831818 31.253148 
L 73.104545 34.156842 
L 73.377273 31.844092 
L 73.922727 34.682633 
L 74.195455 34.496661 
L 74.468182 37.385053 
L 74.740909 37.650095 
L 75.286364 39.177342 
L 75.559091 42.017752 
L 75.831818 40.486143 
L 76.104545 42.946369 
L 76.377273 35.686996 
L 76.65 43.520004 
L 76.922727 47.312157 
L 77.195455 49.008621 
L 77.468182 49.821334 
L 77.740909 49.010559 
L 78.013636 49.350032 
L 78.286364 50.242299 
L 78.559091 49.76352 
L 78.831818 48.832618 
L 79.104545 49.223743 
L 79.377273 49.089629 
L 79.65 48.074188 
L 79.922727 47.647268 
L 80.740909 43.36228 
L 81.286364 40.591662 
L 81.831818 38.548663 
L 82.104545 35.613881 
L 82.377273 31.44916 
L 82.65 32.047374 
L 82.922727 30.57621 
L 83.468182 40.202407 
L 84.013636 47.807622 
L 84.286364 49.680989 
L 84.559091 49.88531 
L 84.831818 50.859831 
L 85.104545 50.897566 
L 85.377273 46.978985 
L 85.65 48.029599 
L 85.922727 46.484419 
L 86.195455 43.569371 
L 86.468182 42.123063 
L 86.740909 38.716841 
L 87.013636 37.540699 
L 87.286364 35.598026 
L 87.831818 28.887709 
L 88.377273 26.056299 
L 88.65 21.655339 
L 88.922727 20.848719 
L 89.195455 20.601955 
L 89.740909 22.227035 
L 90.013636 25.059137 
L 90.286364 26.206268 
L 91.104545 31.955288 
L 91.922727 39.742114 
L 92.195455 41.031599 
L 92.468182 43.998506 
L 92.740909 45.583151 
L 93.013636 46.033405 
L 93.286364 47.046145 
L 93.559091 46.38534 
L 93.831818 46.98757 
L 94.104545 47.161496 
L 94.377273 40.73083 
L 94.65 44.28889 
L 94.922727 49.520011 
L 95.468182 50.348441 
L 95.740909 50.199511 
L 96.013636 50.704877 
L 96.286364 49.987574 
L 96.559091 50.233506 
L 96.831818 49.52105 
L 97.104545 49.8689 
L 97.377273 48.652877 
L 97.65 49.041509 
L 98.468182 43.782554 
L 98.740909 43.510865 
L 99.559091 37.016015 
L 100.65 34.570053 
L 100.922727 36.107339 
L 101.195455 36.934315 
L 102.013636 47.47722 
L 102.559091 50.810742 
L 102.831818 51.508104 
L 103.104545 51.789348 
L 103.377273 46.933703 
L 103.65 49.559338 
L 103.922727 49.60552 
L 104.195455 48.703213 
L 105.013636 44.134143 
L 105.286364 43.744888 
L 105.559091 43.035686 
L 105.831818 41.871245 
L 106.922727 34.489806 
L 107.195455 34.053747 
L 107.468182 34.781436 
L 108.013636 33.916933 
L 108.286364 36.084629 
L 108.559091 36.106577 
L 108.831818 36.664841 
L 109.377273 39.030558 
L 109.65 39.04489 
L 109.922727 41.875053 
L 110.195455 43.15069 
L 110.468182 46.443223 
L 111.013636 47.720175 
L 111.286364 49.158174 
L 112.104545 50.616114 
L 112.377273 46.431176 
L 112.922727 52.366445 
L 113.195455 53.740746 
L 113.468182 53.524239 
L 113.740909 53.595693 
L 114.013636 53.034036 
L 114.286364 51.712564 
L 114.559091 51.976083 
L 114.831818 50.464137 
L 115.104545 50.990344 
L 115.377273 50.371082 
L 115.65 50.070105 
L 115.922727 49.954409 
L 116.195455 49.616736 
L 116.468182 49.619921 
L 117.559091 45.883159 
L 117.831818 45.379454 
L 118.377273 42.505325 
L 118.65 40.718575 
L 118.922727 39.723628 
L 119.195455 37.242908 
L 119.468182 37.215628 
L 119.740909 35.709152 
L 120.286364 37.699531 
L 120.831818 42.691159 
L 121.104545 44.299968 
L 121.377273 40.505738 
L 121.65 45.122859 
L 121.922727 43.429649 
L 122.195455 42.779852 
L 122.468182 41.393435 
L 123.013636 42.271439 
L 123.286364 42.586471 
L 123.831818 44.588481 
L 124.104545 44.757352 
L 124.377273 45.344627 
L 124.65 45.404795 
L 124.922727 45.293391 
L 125.195455 44.725088 
L 125.468182 42.536551 
L 126.831818 36.587087 
L 127.104545 37.168615 
L 127.377273 35.965055 
L 127.65 35.892217 
L 127.922727 36.284103 
L 128.195455 37.762122 
L 128.468182 38.407072 
L 128.740909 41.102913 
L 129.013636 40.916248 
L 129.286364 44.299068 
L 129.831818 45.470224 
L 130.104545 45.272204 
L 130.377273 39.579406 
L 130.922727 48.276362 
L 131.195455 50.004398 
L 131.468182 50.809011 
L 131.740909 50.41941 
L 132.013636 50.945132 
L 132.559091 50.785608 
L 132.831818 50.542653 
L 133.377273 50.628508 
L 133.65 50.929138 
L 134.195455 50.531159 
L 134.468182 50.705085 
L 135.013636 49.221665 
L 135.286364 49.616113 
L 135.559091 49.062488 
L 135.831818 47.986048 
L 136.104545 47.616595 
L 136.377273 46.276291 
L 136.65 46.282107 
L 137.195455 44.45873 
L 137.740909 41.599418 
L 138.013636 41.687626 
L 138.559091 40.828593 
L 138.831818 41.437609 
L 139.104545 41.616104 
L 139.377273 36.740311 
L 139.65 39.242841 
L 139.922727 38.891321 
L 140.740909 34.146941 
L 141.013636 33.607371 
L 141.286364 33.677232 
L 141.559091 33.493128 
L 141.831818 34.353892 
L 142.104545 35.802208 
L 142.922727 38.184334 
L 143.195455 39.479149 
L 143.468182 40.003279 
L 143.740909 41.086712 
L 144.013636 41.478875 
L 144.286364 40.638674 
L 144.559091 41.51107 
L 144.831818 39.849225 
L 145.104545 40.773203 
L 145.65 40.773896 
L 145.922727 41.058463 
L 146.195455 42.481784 
L 146.468182 43.06435 
L 146.740909 44.470639 
L 147.013636 44.324893 
L 147.286364 44.817312 
L 147.831818 46.529424 
L 148.104545 47.28647 
L 148.377273 41.325651 
L 148.65 45.808174 
L 149.195455 50.574779 
L 149.468182 50.94444 
L 149.740909 51.069068 
L 150.013636 51.750644 
L 150.286364 50.964172 
L 150.559091 51.075922 
L 150.831818 50.176454 
L 151.104545 51.080561 
L 151.377273 50.555739 
L 151.65 50.849099 
L 151.922727 50.667489 
L 152.195455 50.131934 
L 152.468182 49.875616 
L 153.013636 49.074397 
L 153.286364 48.890847 
L 153.831818 47.135601 
L 154.104545 47.571452 
L 154.377273 46.113166 
L 154.65 46.569582 
L 154.922727 45.582736 
L 155.195455 45.145984 
L 155.468182 43.407839 
L 155.740909 42.708537 
L 156.286364 40.317549 
L 156.559091 38.794595 
L 156.831818 39.32191 
L 157.104545 38.260634 
L 157.377273 32.868604 
L 157.65 36.173946 
L 157.922727 37.702716 
L 158.195455 36.632854 
L 158.468182 36.690182 
L 158.740909 36.248792 
L 159.013636 36.345863 
L 159.286364 35.653139 
L 159.559091 37.394261 
L 159.831818 35.996766 
L 160.104545 36.014145 
L 160.377273 36.244984 
L 160.65 37.866671 
L 160.922727 37.472777 
L 161.468182 38.981399 
L 162.013636 40.444601 
L 162.286364 42.706806 
L 162.559091 42.842443 
L 162.831818 44.513635 
L 163.377273 45.490165 
L 163.65 46.680639 
L 163.922727 46.564112 
L 164.195455 47.639167 
L 164.468182 47.026274 
L 165.286364 48.997612 
L 165.831818 49.385759 
L 166.104545 48.651008 
L 166.377273 48.76795 
L 166.65 47.687841 
L 166.922727 49.926644 
L 167.195455 51.128266 
L 167.468182 49.340824 
L 167.740909 49.482346 
L 168.286364 50.193002 
L 168.559091 50.345948 
L 168.831818 49.9407 
L 169.104545 50.157483 
L 169.377273 49.307382 
L 169.65 49.189262 
L 169.922727 48.202624 
L 170.468182 47.291732 
L 170.740909 47.310495 
L 171.013636 46.518277 
L 171.286364 47.00848 
L 171.559091 47.221871 
L 171.831818 45.806235 
L 172.104545 46.899708 
L 172.377273 46.498959 
L 172.65 46.666722 
L 172.922727 46.53247 
L 173.195455 45.526722 
L 173.468182 45.809628 
L 173.740909 43.973096 
L 174.013636 42.971779 
L 174.286364 41.056732 
L 174.559091 40.818762 
L 174.831818 40.822431 
L 175.65 34.540765 
L 175.922727 35.061087 
L 176.468182 33.041075 
L 176.740909 32.929948 
L 177.559091 31.602037 
L 177.831818 31.633263 
L 178.65 36.743565 
L 178.922727 36.847006 
L 179.468182 39.812044 
L 180.013636 40.921857 
L 180.286364 41.657993 
L 180.559091 41.310973 
L 180.831818 42.945954 
L 181.104545 43.697461 
L 181.377273 42.774729 
L 181.922727 43.68749 
L 182.195455 45.055144 
L 182.468182 45.597345 
L 182.740909 46.428337 
L 183.013636 46.60794 
L 183.286364 46.446546 
L 183.831818 48.669356 
L 184.104545 48.385896 
L 184.377273 48.544866 
L 184.65 46.143562 
L 184.922727 47.867375 
L 185.195455 47.387626 
L 185.740909 51.917092 
L 186.013636 51.502288 
L 186.286364 53.530471 
L 186.559091 53.482973 
L 186.831818 53.084095 
L 187.104545 53.159841 
L 187.377273 52.37323 
L 187.65 52.876935 
L 188.195455 51.83006 
L 188.468182 52.372261 
L 189.013636 52.115735 
L 189.286364 51.588974 
L 189.559091 51.782978 
L 189.831818 51.790179 
L 190.104545 52.617224 
L 190.377273 52.029396 
L 190.65 51.100917 
L 190.922727 50.798279 
L 191.468182 49.3312 
L 191.740909 49.637092 
L 192.286364 47.948521 
L 192.559091 48.480544 
L 192.831818 47.687149 
L 193.104545 46.013949 
L 193.377273 46.686317 
L 193.65 45.800073 
L 193.922727 45.790726 
L 194.195455 45.44246 
L 195.013636 42.177553 
L 195.286364 41.689842 
L 195.559091 40.947959 
L 195.831818 41.100075 
L 196.104545 39.741214 
L 196.377273 40.418844 
L 196.65 39.957444 
L 197.195455 41.994696 
L 197.468182 42.175684 
L 197.740909 43.150967 
L 198.286364 46.356537 
L 198.831818 47.646298 
L 199.104545 49.640069 
L 199.377273 49.80894 
L 199.65 51.153676 
L 199.922727 51.011947 
L 200.468182 52.83013 
L 200.740909 53.434715 
L 201.013636 53.320542 
L 201.286364 53.788866 
L 201.559091 54.540373 
L 201.831818 54.308426 
L 202.104545 54.375795 
L 202.377273 54.92215 
L 202.65 54.451056 
L 202.922727 54.363055 
L 203.468182 54.823417 
L 203.740909 54.177774 
L 204.013636 54.502707 
L 204.559091 53.889053 
L 204.831818 54.063948 
L 205.104545 54.521886 
L 205.377273 53.485951 
L 205.922727 52.664514 
L 206.468182 52.569658 
L 206.740909 51.67019 
L 207.013636 51.993461 
L 207.559091 50.858308 
L 208.104545 50.36762 
L 208.377273 50.872709 
L 208.922727 49.915151 
L 209.468182 48.227134 
L 209.740909 48.017898 
L 210.013636 47.97137 
L 210.559091 46.979677 
L 211.104545 44.580173 
L 211.65 44.28072 
L 211.922727 42.642485 
L 212.195455 41.84895 
L 212.740909 41.221241 
L 213.013636 41.852897 
L 213.286364 41.290409 
L 213.559091 41.75638 
L 213.831818 41.008127 
L 214.104545 41.871037 
L 214.377273 42.075496 
L 214.65 43.197356 
L 214.922727 43.104785 
L 215.195455 43.882395 
L 215.468182 45.068715 
L 215.740909 46.877482 
L 216.013636 47.36187 
L 216.831818 51.631348 
L 217.104545 51.72378 
L 217.377273 52.533724 
L 217.922727 53.247496 
L 217.922727 53.247496 
" clip-path="url(#pa5f331b473)" style="fill: none; stroke: #000000; stroke-width: 0.75; stroke-linecap: square"/>
   </g>
   <g id="line2d_10">
    <path d="M 40.65 34.995103 
L 41.195455 42.172776 
L 41.468182 25.240332 
L 41.740909 23.328677 
L 42.013636 23.099639 
L 42.286364 23.531405 
L 42.831818 31.641156 
L 43.377273 41.051608 
L 44.195455 46.834832 
L 44.740909 49.56917 
L 45.013636 51.268334 
L 45.286364 51.630655 
L 45.559091 51.477363 
L 45.831818 52.260927 
L 46.104545 52.253241 
L 46.65 50.139204 
L 46.922727 50.286335 
L 47.195455 49.320399 
L 47.468182 47.283216 
L 48.013636 45.871596 
L 48.559091 38.35999 
L 48.831818 37.323085 
L 49.65 26.368561 
L 50.195455 28.366071 
L 50.468182 28.401452 
L 50.740909 27.097566 
L 51.013636 20.362531 
L 51.286364 34.788913 
L 51.559091 36.480392 
L 51.831818 40.59277 
L 52.104545 40.778396 
L 53.195455 48.758257 
L 53.740909 48.217233 
L 54.013636 48.348231 
L 54.559091 51.000869 
L 54.831818 51.189888 
L 55.65 47.527556 
L 55.922727 46.9803 
L 56.195455 45.837669 
L 56.468182 44.113787 
L 56.740909 41.447925 
L 57.013636 40.093288 
L 57.559091 35.663248 
L 57.831818 34.132054 
L 58.104545 31.628624 
L 58.377273 30.308675 
L 58.65 31.675291 
L 58.922727 31.471524 
L 59.195455 32.909523 
L 59.740909 37.767661 
L 60.013636 40.566044 
L 60.286364 45.44613 
L 60.559091 46.238279 
L 61.104545 49.313475 
L 61.377273 49.151389 
L 61.65 49.689505 
L 61.922727 49.192447 
L 62.195455 49.019145 
L 62.740909 50.093231 
L 63.013636 49.371219 
L 63.286364 49.578378 
L 63.831818 48.761857 
L 64.377273 46.590422 
L 64.65 45.881981 
L 65.195455 41.821325 
L 65.740909 39.174088 
L 66.013636 35.506563 
L 66.286364 34.656669 
L 66.559091 32.453731 
L 67.104545 30.102485 
L 67.377273 25.430736 
L 67.65 24.420903 
L 68.195455 19.773387 
L 68.468182 22.291634 
L 68.740909 19.587829 
L 69.286364 19.568512 
L 69.559091 21.291286 
L 69.831818 20.513331 
L 70.104545 21.361147 
L 70.65 26.162164 
L 70.922727 25.967121 
L 71.195455 27.618511 
L 71.468182 27.83571 
L 71.740909 30.209527 
L 72.013636 30.904536 
L 73.377273 36.68492 
L 73.65 35.223588 
L 74.195455 37.023839 
L 74.468182 37.260079 
L 74.740909 36.953078 
L 75.013636 38.438436 
L 75.286364 37.1709 
L 75.559091 38.998016 
L 75.831818 38.813428 
L 76.104545 40.019827 
L 76.377273 34.596571 
L 76.922727 46.917848 
L 77.195455 49.013606 
L 77.468182 49.168352 
L 78.013636 50.11781 
L 78.286364 50.232537 
L 78.559091 48.927613 
L 78.831818 49.505817 
L 79.104545 49.201863 
L 79.377273 49.355502 
L 79.65 48.92969 
L 79.922727 49.192793 
L 80.740909 48.011181 
L 81.286364 47.120022 
L 81.559091 47.30011 
L 81.831818 45.764416 
L 82.377273 44.624416 
L 82.65 45.287644 
L 83.195455 41.444948 
L 83.468182 41.066771 
L 83.740909 39.360406 
L 84.013636 39.711996 
L 84.286364 37.167369 
L 84.559091 37.815642 
L 84.831818 36.811972 
L 85.104545 36.367534 
L 85.377273 31.666844 
L 85.65 35.044193 
L 85.922727 33.022311 
L 86.195455 31.989145 
L 86.740909 27.448394 
L 87.013636 27.530787 
L 87.286364 27.496306 
L 87.559091 28.563468 
L 87.831818 27.47512 
L 88.65 30.908759 
L 88.922727 33.38401 
L 89.195455 34.184121 
L 89.468182 36.537859 
L 90.013636 39.073554 
L 90.286364 40.8943 
L 90.559091 41.725223 
L 90.831818 43.066497 
L 91.104545 43.20061 
L 91.377273 43.023362 
L 91.65 44.889596 
L 91.922727 44.857193 
L 92.468182 45.409503 
L 93.013636 43.276772 
L 93.286364 43.473476 
L 93.559091 43.395238 
L 93.831818 42.297334 
L 94.104545 41.976625 
L 94.377273 34.604395 
L 94.922727 45.707225 
L 95.195455 46.43346 
L 95.468182 47.890846 
L 95.740909 47.20193 
L 96.013636 48.149103 
L 96.286364 47.908502 
L 96.559091 48.12307 
L 96.831818 48.072665 
L 97.104545 46.896661 
L 97.65 47.929135 
L 97.922727 46.557881 
L 98.195455 47.317834 
L 98.740909 46.216192 
L 99.013636 46.865089 
L 99.286364 46.075778 
L 99.559091 46.086233 
L 99.831818 44.757006 
L 100.104545 45.043235 
L 100.377273 43.547353 
L 100.65 43.319422 
L 101.195455 43.051057 
L 101.468182 42.283487 
L 101.740909 39.779433 
L 102.013636 39.788157 
L 102.286364 38.170071 
L 102.559091 38.668513 
L 102.831818 35.606265 
L 103.104545 34.208424 
L 103.377273 25.914223 
L 103.65 29.259377 
L 103.922727 30.650433 
L 104.195455 29.05021 
L 104.468182 24.510635 
L 105.286364 20.07734 
L 105.559091 15.07505 
L 106.104545 11.16 
L 106.377273 11.652696 
L 106.65 12.757108 
L 106.922727 15.247798 
L 107.195455 15.395482 
L 108.831818 27.420352 
L 109.104545 28.243036 
L 109.377273 31.712264 
L 109.65 33.737815 
L 109.922727 37.347457 
L 110.195455 39.129983 
L 110.468182 39.330496 
L 110.740909 39.163494 
L 111.013636 40.335482 
L 111.286364 38.381938 
L 111.559091 38.538069 
L 111.831818 37.393361 
L 112.104545 38.306677 
L 112.377273 30.5481 
L 112.922727 42.784837 
L 113.195455 44.692338 
L 113.468182 45.310978 
L 113.740909 45.626425 
L 114.013636 45.739282 
L 114.286364 46.026619 
L 114.559091 46.628572 
L 114.831818 46.619779 
L 115.377273 45.173956 
L 115.65 45.460393 
L 115.922727 44.793218 
L 116.195455 45.25898 
L 116.468182 41.294217 
L 116.740909 35.683604 
L 117.013636 42.467867 
L 117.286364 41.519309 
L 117.559091 40.116968 
L 117.831818 40.025435 
L 118.104545 38.220891 
L 118.377273 37.210504 
L 118.65 35.751041 
L 118.922727 36.851091 
L 119.740909 31.177263 
L 120.013636 31.187857 
L 120.286364 30.051042 
L 120.559091 30.506211 
L 120.831818 30.384698 
L 121.104545 33.698972 
L 121.377273 27.454902 
L 121.65 34.870406 
L 121.922727 35.625167 
L 122.468182 32.577874 
L 122.740909 30.763914 
L 123.013636 32.484542 
L 123.286364 33.057692 
L 123.559091 34.872345 
L 123.831818 34.385465 
L 124.377273 37.277942 
L 124.65 38.061714 
L 124.922727 39.55718 
L 125.195455 39.441969 
L 125.740909 40.283207 
L 126.559091 39.58446 
L 126.831818 40.283277 
L 127.377273 39.27829 
L 127.65 39.973368 
L 127.922727 39.695863 
L 128.195455 38.805119 
L 128.468182 39.153662 
L 128.740909 37.956818 
L 129.013636 37.471531 
L 129.286364 37.97302 
L 129.831818 36.544437 
L 130.104545 36.301759 
L 130.377273 29.327438 
L 131.468182 46.037559 
L 131.740909 46.326973 
L 132.286364 47.964861 
L 132.559091 48.56903 
L 132.831818 48.009866 
L 133.104545 48.621443 
L 133.65 48.436094 
L 133.922727 48.552967 
L 134.195455 49.050925 
L 134.468182 49.036731 
L 134.740909 48.500831 
L 135.013636 49.002182 
L 135.286364 47.561274 
L 135.831818 47.049538 
L 136.377273 46.077509 
L 136.65 44.394062 
L 137.195455 42.942007 
L 137.740909 39.171318 
L 138.013636 37.80228 
L 138.286364 37.156845 
L 139.104545 31.627309 
L 139.377273 24.048334 
L 139.922727 25.452338 
L 140.195455 24.223298 
L 140.468182 21.202593 
L 141.013636 18.935956 
L 141.286364 19.861111 
L 141.559091 18.031295 
L 141.831818 22.656586 
L 142.104545 23.548299 
L 143.195455 38.434974 
L 143.740909 43.213973 
L 144.013636 45.93211 
L 144.286364 45.770786 
L 144.559091 47.323443 
L 144.831818 47.448625 
L 145.104545 48.107768 
L 145.922727 48.127986 
L 146.195455 48.388943 
L 146.468182 48.090736 
L 146.740909 48.924497 
L 147.013636 48.763865 
L 147.286364 48.348854 
L 147.559091 47.680086 
L 147.831818 48.18206 
L 148.104545 46.74233 
L 148.377273 39.682362 
L 149.195455 48.321297 
L 149.468182 48.829503 
L 149.740909 48.830126 
L 150.013636 48.364987 
L 150.286364 49.120232 
L 150.559091 48.318666 
L 150.831818 48.617912 
L 151.104545 48.312781 
L 151.65 45.995531 
L 151.922727 43.916737 
L 152.195455 43.830397 
L 152.468182 42.234189 
L 152.740909 39.46274 
L 153.013636 40.756517 
L 153.559091 37.1646 
L 153.831818 36.574971 
L 154.104545 35.283132 
L 154.377273 32.955289 
L 154.65 32.736429 
L 154.922727 29.807117 
L 155.195455 29.756781 
L 155.468182 29.311167 
L 156.286364 33.830801 
L 157.104545 45.101256 
L 157.65 39.348567 
L 158.195455 44.670113 
L 158.468182 42.77916 
L 158.740909 44.016162 
L 159.013636 44.204281 
L 159.286364 44.660419 
L 159.559091 45.357298 
L 160.104545 43.81925 
L 160.922727 42.035962 
L 161.195455 40.38921 
L 161.740909 39.016987 
L 162.013636 39.431237 
L 162.831818 35.029307 
L 163.377273 32.637903 
L 163.65 30.986513 
L 163.922727 31.716349 
L 164.195455 30.659642 
L 164.468182 29.014691 
L 165.286364 30.223721 
L 165.559091 30.3192 
L 165.831818 31.901421 
L 166.104545 35.25156 
L 166.377273 36.863623 
L 166.65 36.026192 
L 167.195455 48.275116 
L 167.468182 50.846814 
L 167.740909 52.070592 
L 168.013636 52.621863 
L 168.286364 51.625393 
L 168.559091 52.074192 
L 168.831818 52.235655 
L 169.104545 50.60829 
L 169.377273 52.441568 
L 169.65 51.596867 
L 170.195455 52.081462 
L 170.468182 51.354258 
L 170.740909 52.502844 
L 171.013636 52.578036 
L 171.286364 50.774946 
L 171.559091 51.210659 
L 172.104545 51.496888 
L 172.377273 50.235376 
L 172.65 49.681681 
L 173.195455 49.455135 
L 173.468182 49.641108 
L 173.740909 48.582393 
L 174.013636 48.803885 
L 174.286364 48.278024 
L 174.559091 47.307449 
L 174.831818 47.083603 
L 175.377273 46.283284 
L 175.65 41.133447 
L 175.922727 40.38741 
L 176.195455 40.557251 
L 176.740909 34.725214 
L 177.013636 30.846514 
L 177.286364 30.477062 
L 177.831818 25.880643 
L 178.377273 28.231196 
L 178.65 28.12367 
L 178.922727 32.767793 
L 179.195455 35.120978 
L 179.468182 39.213415 
L 181.104545 50.653295 
L 181.65 51.769754 
L 181.922727 52.732713 
L 182.468182 52.555326 
L 182.740909 52.924432 
L 183.286364 53.023789 
L 183.559091 52.90373 
L 183.831818 53.374893 
L 184.104545 52.719973 
L 184.377273 53.393172 
L 184.65 50.204288 
L 184.922727 52.501666 
L 185.195455 53.812061 
L 185.468182 53.450986 
L 185.740909 54.69685 
L 186.013636 53.908647 
L 186.286364 54.454033 
L 186.559091 54.252897 
L 187.104545 53.002186 
L 187.377273 53.220355 
L 187.65 51.722049 
L 187.922727 51.250678 
L 188.195455 50.45119 
L 188.740909 47.926781 
L 189.013636 47.312919 
L 189.559091 44.60046 
L 189.831818 43.028 
L 190.104545 40.012142 
L 190.377273 40.661038 
L 190.65 38.850886 
L 190.922727 38.235777 
L 191.195455 37.936739 
L 191.740909 37.079368 
L 192.013636 37.964157 
L 193.104545 49.030085 
L 193.377273 49.627676 
L 193.922727 51.802365 
L 194.195455 51.956073 
L 194.468182 51.430212 
L 194.740909 51.610022 
L 195.013636 52.136368 
L 195.559091 52.332242 
L 195.831818 52.056745 
L 196.377273 51.874511 
L 196.65 52.352044 
L 196.922727 51.404317 
L 197.195455 51.035003 
L 197.468182 51.481032 
L 197.740909 49.903934 
L 198.013636 50.163299 
L 198.286364 49.667072 
L 198.559091 48.626567 
L 198.831818 48.532196 
L 199.104545 47.889738 
L 199.377273 46.495497 
L 199.65 46.255935 
L 199.922727 45.799173 
L 200.195455 46.350098 
L 200.468182 43.587165 
L 200.740909 43.120225 
L 201.013636 41.359162 
L 201.286364 41.624482 
L 201.831818 37.090308 
L 202.104545 37.480947 
L 202.377273 39.133445 
L 202.65 36.908143 
L 202.922727 35.96914 
L 203.195455 36.04634 
L 203.468182 37.071129 
L 203.740909 36.946985 
L 204.013636 37.739689 
L 204.286364 38.103949 
L 204.559091 41.786013 
L 204.831818 43.662288 
L 205.104545 44.234192 
L 206.195455 48.737624 
L 206.468182 48.968048 
L 207.013636 50.698715 
L 207.286364 51.119681 
L 207.831818 49.780553 
L 208.104545 50.189194 
L 208.377273 50.062558 
L 208.65 49.709446 
L 208.922727 50.109986 
L 209.195455 49.847298 
L 209.468182 48.096067 
L 209.740909 50.567786 
L 210.013636 49.223535 
L 210.286364 50.156029 
L 210.559091 49.357856 
L 211.104545 48.827772 
L 211.377273 48.082219 
L 211.65 47.891954 
L 211.922727 47.422591 
L 212.195455 45.55234 
L 212.468182 46.121683 
L 212.740909 45.705217 
L 213.286364 44.592082 
L 213.559091 44.432489 
L 213.831818 42.47486 
L 214.104545 42.645946 
L 214.377273 40.437815 
L 214.65 40.766002 
L 214.922727 39.861342 
L 215.195455 40.541395 
L 215.740909 37.445636 
L 216.013636 37.83309 
L 216.286364 37.280919 
L 216.559091 37.902605 
L 216.831818 37.462599 
L 217.377273 38.237854 
L 217.922727 41.56646 
L 217.922727 41.56646 
" clip-path="url(#pa5f331b473)" style="fill: none; stroke: #ff8080; stroke-width: 0.75; stroke-linecap: square"/>
   </g>
   <g id="line2d_11">
    <path d="M 40.377273 61.56 
L 67.104545 61.56 
L 67.104545 56.746164 
L 76.104545 56.746164 
L 76.104545 61.56 
L 85.104545 61.56 
L 85.104545 56.746164 
L 94.104545 56.746164 
L 94.104545 61.56 
L 103.104545 61.56 
L 103.104545 56.746164 
L 112.104545 56.746164 
L 112.104545 61.56 
L 121.104545 61.56 
L 121.104545 56.746164 
L 130.104545 56.746164 
L 130.104545 61.56 
L 139.104545 61.56 
L 139.104545 56.746164 
L 148.104545 56.746164 
L 148.104545 61.56 
L 157.104545 61.56 
L 157.104545 56.746164 
L 166.104545 56.746164 
L 166.104545 61.56 
L 175.104545 61.56 
L 175.104545 56.746164 
L 184.104545 56.746164 
L 184.104545 61.56 
L 217.922727 61.56 
" clip-path="url(#pa5f331b473)" style="fill: none; stroke: #000000; stroke-width: 0.75; stroke-linecap: square"/>
   </g>
   <g id="patch_3">
    <path d="M 31.5 64.08 
L 31.5 8.64 
" style="fill: none; stroke: #000000; stroke-width: 0.5; stroke-linejoin: miter; stroke-linecap: square"/>
   </g>
   <g id="patch_4">
    <path d="M 31.5 64.08 
L 226.8 64.08 
" style="fill: none; stroke: #000000; stroke-width: 0.5; stroke-linejoin: miter; stroke-linecap: square"/>
   </g>
   <g id="legend_1">
    <g id="patch_5">
     <path d="M 181.604063 34.043438 
L 221.9 34.043438 
Q 223.3 34.043438 223.3 32.643438 
L 223.3 13.54 
Q 223.3 12.14 221.9 12.14 
L 181.604063 12.14 
Q 180.204063 12.14 180.204063 13.54 
L 180.204063 32.643438 
Q 180.204063 34.043438 181.604063 34.043438 
z
" style="fill: #ffffff; opacity: 0.8; stroke: #cccccc; stroke-width: 0.5; stroke-linejoin: miter"/>
    </g>
    <g id="line2d_12">
     <path d="M 183.004063 17.500469 
L 190.004063 17.500469 
L 197.004063 17.500469 
" style="fill: none; stroke: #000000; stroke-width: 0.75; stroke-linecap: square"/>
    </g>
    <g id="text_11">
     <!-- Cell 1 -->
     <g transform="translate(202.604063 19.950469) scale(0.07 -0.07)">
      <defs>
       <path id="ArialMT-43" d="M 3763 1606 
L 4369 1453 
Q 4178 706 3683 314 
Q 3188 -78 2472 -78 
Q 1731 -78 1267 223 
Q 803 525 561 1097 
Q 319 1669 319 2325 
Q 319 3041 592 3573 
Q 866 4106 1370 4382 
Q 1875 4659 2481 4659 
Q 3169 4659 3637 4309 
Q 4106 3959 4291 3325 
L 3694 3184 
Q 3534 3684 3231 3912 
Q 2928 4141 2469 4141 
Q 1941 4141 1586 3887 
Q 1231 3634 1087 3207 
Q 944 2781 944 2328 
Q 944 1744 1114 1308 
Q 1284 872 1643 656 
Q 2003 441 2422 441 
Q 2931 441 3284 734 
Q 3638 1028 3763 1606 
z
" transform="scale(0.015625)"/>
      </defs>
      <use xlink:href="#ArialMT-43"/>
      <use xlink:href="#ArialMT-65" x="72.216797"/>
      <use xlink:href="#ArialMT-6c" x="127.832031"/>
      <use xlink:href="#ArialMT-6c" x="150.048828"/>
      <use xlink:href="#ArialMT-20" x="172.265625"/>
      <use xlink:href="#ArialMT-31" x="200.048828"/>
     </g>
    </g>
    <g id="line2d_13">
     <path d="M 183.004063 27.402188 
L 190.004063 27.402188 
L 197.004063 27.402188 
" style="fill: none; stroke: #ff8080; stroke-width: 0.75; stroke-linecap: square"/>
    </g>
    <g id="text_12">
     <!-- Cell 2 -->
     <g transform="translate(202.604063 29.852188) scale(0.07 -0.07)">
      <use xlink:href="#ArialMT-43"/>
      <use xlink:href="#ArialMT-65" x="72.216797"/>
      <use xlink:href="#ArialMT-6c" x="127.832031"/>
      <use xlink:href="#ArialMT-6c" x="150.048828"/>
      <use xlink:href="#ArialMT-20" x="172.265625"/>
      <use xlink:href="#ArialMT-32" x="200.048828"/>
     </g>
    </g>
   </g>
  </g>
 </g>
 <defs>
  <clipPath id="pa5f331b473">
   <rect x="31.5" y="8.64" width="195.3" height="55.44"/>
  </clipPath>
 </defs>
</svg>
